<?xml version="1.0" encoding="UTF-8"?>
<svg width="136px" height="74px" viewBox="0 0 136 74" version="1.1" xmlns="http://www.w3.org/2000/svg" xmlns:xlink="http://www.w3.org/1999/xlink">
    <!-- Generator: Sketch 47.1 (45422) - http://www.bohemiancoding.com/sketch -->
    <title>Key / Down - Default</title>
    <desc>Created with Sketch.</desc>
    <defs>
        <linearGradient x1="50%" y1="0.460379464%" x2="50%" y2="100%" id="linearGradient-1">
            <stop stop-color="#F0F0F0" offset="0%"></stop>
            <stop stop-color="#F5F5F5" offset="100%"></stop>
        </linearGradient>
        <linearGradient x1="50%" y1="0%" x2="50%" y2="100%" id="linearGradient-2">
            <stop stop-color="#FFFFFF" offset="0%"></stop>
            <stop stop-color="#E6E6E6" offset="100%"></stop>
        </linearGradient>
        <path d="M0,0 L134,0 L134,60.009604 C134,66.6317169 128.622786,72 121.990467,72 L12.0095332,72 C5.37685117,72 0,66.6177433 0,60.009604 L0,0 Z" id="path-3"></path>
        <polygon id="path-4" points="67 48 60 32 74 32"></polygon>
        <filter x="-7.1%" y="-6.2%" width="114.3%" height="125.0%" filterUnits="objectBoundingBox" id="filter-5">
            <feOffset dx="0" dy="2" in="SourceAlpha" result="shadowOffsetOuter1"></feOffset>
            <feColorMatrix values="0 0 0 0 1   0 0 0 0 1   0 0 0 0 1  0 0 0 1 0" type="matrix" in="shadowOffsetOuter1"></feColorMatrix>
        </filter>
    </defs>
    <g id="Symbols" stroke="none" stroke-width="1" fill="none" fill-rule="evenodd">
        <g id="Key-/-Down---Default">
            <g id="Down" transform="translate(1.000000, 1.000000)">
                <g id="key">
                    <use fill="url(#linearGradient-1)" fill-rule="evenodd" xlink:href="#path-3"></use>
                    <path stroke="#FFFFFF" stroke-width="8" d="M4,4 L4,60.009604 C4,64.4127225 7.5901129,68 12.0095332,68 L121.990467,68 C126.415218,68 130,64.4210049 130,60.009604 L130,4 L4,4 Z"></path>
                    <path stroke="url(#linearGradient-2)" stroke-width="6" d="M3,3 L3,60.009604 C3,64.9651842 7.03800495,69 12.0095332,69 L121.990467,69 C126.967141,69 131,64.9736516 131,60.009604 L131,3 L3,3 Z"></path>
                    <path stroke="#8A8A8A" stroke-width="2" d="M1,1 L1,60.009604 C1,66.0701076 5.93378904,71 12.0095332,71 L121.990467,71 C128.070988,71 133,66.0789451 133,60.009604 L133,1 L1,1 Z"></path>
                    <path stroke-opacity="0.6" stroke="#818181" stroke-width="1" d="M-0.5,-0.5 L134.5,-0.5 L134.5,60.009604 C134.5,66.9079152 128.898873,72.5 121.990467,72.5 L12.0095332,72.5 C5.1056271,72.5 -0.5,66.8988002 -0.5,60.009604 L-0.5,-0.5 Z"></path>
                </g>
                <g id="Shape-3">
                    <use fill="black" fill-opacity="1" filter="url(#filter-5)" xlink:href="#path-4"></use>
                    <use fill="#6E6F71" fill-rule="evenodd" xlink:href="#path-4"></use>
                </g>
            </g>
        </g>
    </g>
</svg>