<?xml version="1.0" encoding="UTF-8"?>
<svg width="136px" height="74px" viewBox="0 0 136 74" version="1.1" xmlns="http://www.w3.org/2000/svg" xmlns:xlink="http://www.w3.org/1999/xlink">
    <!-- Generator: Sketch 47.1 (45422) - http://www.bohemiancoding.com/sketch -->
    <title>Key / Down - Pressed</title>
    <desc>Created with Sketch.</desc>
    <defs>
        <linearGradient x1="50%" y1="100%" x2="50%" y2="0%" id="linearGradient-1">
            <stop stop-color="#7C7C7C" offset="0%"></stop>
            <stop stop-color="#5B5858" offset="100%"></stop>
        </linearGradient>
        <linearGradient x1="50%" y1="98.3309878%" x2="50%" y2="2.28196747%" id="linearGradient-2">
            <stop stop-color="#5E5D5D" offset="0%"></stop>
            <stop stop-color="#818181" offset="100%"></stop>
        </linearGradient>
        <path d="M0,0 L132,0 L132,55.9994951 C132,62.6271909 126.620726,68 119.99457,68 L12.00543,68 C5.37501409,68 0,62.6357666 0,55.9994951 L0,0 Z" id="path-3"></path>
        <polygon id="path-4" points="65.5625 44.3478261 59 29.5652174 72.125 29.5652174"></polygon>
        <filter x="-3.8%" y="-3.4%" width="107.6%" height="113.5%" filterUnits="objectBoundingBox" id="filter-5">
            <feOffset dx="0" dy="1" in="SourceAlpha" result="shadowOffsetOuter1"></feOffset>
            <feColorMatrix values="0 0 0 0 0.764705882   0 0 0 0 0.768627451   0 0 0 0 0.776470588  0 0 0 0.5 0" type="matrix" in="shadowOffsetOuter1"></feColorMatrix>
        </filter>
    </defs>
    <g id="Symbols" stroke="none" stroke-width="1" fill="none" fill-rule="evenodd">
        <g id="Key-/-Down---Pressed">
            <g id="Down" transform="translate(2.000000, 2.000000)">
                <g id="key">
                    <use fill="url(#linearGradient-1)" fill-rule="evenodd" xlink:href="#path-3"></use>
                    <path stroke="#B3B3B3" stroke-width="2" d="M-1,-1 L133,-1 L133,55.9994951 C133,63.1781523 127.174336,69 119.99457,69 L12.00543,69 C4.81996716,69 -1,63.185292 -1,55.9994951 L-1,-1 Z"></path>
                    <path stroke="#818181" stroke-width="8" d="M4,4 L4,55.9994951 C4,60.4228559 7.58037952,64 12.00543,64 L119.99457,64 C124.413645,64 128,60.4159947 128,55.9994951 L128,4 L4,4 Z"></path>
                    <path stroke="url(#linearGradient-2)" stroke-width="6" d="M3,3 L3,55.9994951 C3,60.9753431 7.02829705,65 12.00543,65 L119.99457,65 C124.965783,65 129,60.9684262 129,55.9994951 L129,3 L3,3 Z"></path>
                    <use stroke="#464444" stroke-width="2" xlink:href="#path-3"></use>
                </g>
                <g id="Shape-3">
                    <use fill="black" fill-opacity="1" filter="url(#filter-5)" xlink:href="#path-4"></use>
                    <use fill="#4D4E4F" fill-rule="evenodd" xlink:href="#path-4"></use>
                </g>
            </g>
        </g>
    </g>
</svg>