<svg id="Layer_1" data-name="Layer 1" xmlns="http://www.w3.org/2000/svg" viewBox="0 0 119.44 311.51"><defs><style>.cls-1{fill:#ff6608;}.cls-2,.cls-6{fill:none;stroke-linecap:round;stroke-linejoin:round;}.cls-2{stroke:#983233;}.cls-3{fill:#af3c47;}.cls-4{fill:#fff;stroke:#545454;stroke-miterlimit:10;}.cls-5{fill:#e2e2e2;}.cls-6{stroke:#999;}</style></defs><title>ChickenA_BACK_BODY</title><path class="cls-1" d="M53.24,89.38a50.24,50.24,0,0,1,36.07,5.15c7.28,4,3.87-5.15,1-8.73-2.38-3-12-12.88-26.63-14.46,0,0-12,.15-13,9.88C50.67,81.22,51,89.66,53.24,89.38Z"/><path class="cls-2" d="M53.24,86.38a50.24,50.24,0,0,1,36.07,5.15c7.28,4,3.87-5.15,1-8.73-2.38-3-12-12.88-26.63-14.46,0,0-12,.15-13,9.88C50.67,78.22,51,86.66,53.24,86.38Z"/><path class="cls-3" d="M63.89,33.82S63,16.1,57,11.23L55.82,24.4S44.37,6.36,25.76,3.5L36.64,14.66S24.9,7.79,10,17L27.19,28.12S59,50.73,59,49.88,63.89,33.82,63.89,33.82Z"/><path class="cls-2" d="M63.89,30.82S63,13.1,57,8.23L55.82,21.4S44.37,3.36,25.76.5L36.64,11.66S24.9,4.79,10,14L27.19,25.12S59,47.73,59,46.88,63.89,30.82,63.89,30.82Z"/><circle class="cls-4" cx="78.59" cy="52.7" r="25.37"/><ellipse class="cls-4" cx="31.43" cy="60.29" rx="32.21" ry="30.9" transform="translate(-32.27 84.06) rotate(-82.93)"/><path class="cls-5" d="M77.29,89.24c1.86,4.29,21,21.75,21,21.75-7.16-.43-26.19-7.87-26.19-7.87,2.72,6.44,20.9,19.75,20.9,19.75-6.45-.57-20.62-5.72-20.62-5.72s.92,96.62,5.64,108.64c0,0,34.59-7.73,40.88,18.75,0,0-18.75-10.45-25.33-8.16,1.57,2.15,20.61,5.73,19.32,38.22-1,25.06-22.9,29.48-32.63,30.77-11.74,7.16-17.47,8.59-28.77,1.43-10.45-.71-29.35-1.28-34.79-22-9.5-36.27,15.89-48.67,15.89-48.67-6-.43-25.76,9-25.76,9,24.62-31.63,44.66-19,44.66-19,4.72-12,2.86-93.61,2.86-93.61-4.72,8.16-27.77,26.91-27.77,26.91C32.06,151.64,49,116.72,49,116.72l-10.74,6.87,6.45-13.31-13.75,3.43C47.66,106,49,39.26,49.81,38l13.45-1.72Z"/><path class="cls-6" d="M77.29,87.24c1.86,4.29,21,21.75,21,21.75-7.16-.43-26.19-7.87-26.19-7.87,2.72,6.44,20.9,19.75,20.9,19.75-6.45-.57-20.62-5.72-20.62-5.72s.92,96.62,5.64,108.64c0,0,34.59-7.73,40.88,18.75,0,0-18.75-10.45-25.33-8.16,1.57,2.15,20.61,5.73,19.32,38.22-1,25.06-22.9,29.48-32.63,30.77-11.74,7.16-17.47,8.59-28.77,1.43-10.45-.71-29.35-1.28-34.79-22-9.5-36.27,15.89-48.67,15.89-48.67-6-.43-25.76,9-25.76,9,24.62-31.63,44.66-19,44.66-19,4.72-12,2.86-93.61,2.86-93.61-4.72,8.16-27.77,26.91-27.77,26.91C32.06,149.64,49,114.72,49,114.72l-10.74,6.87,6.45-13.31-13.75,3.43C47.66,104,49,37.26,49.81,36l13.45-1.72Z"/><path class="cls-6" d="M43.45,265.91c-4.57,7.22-9.47-7.23-9.47-7.23s-3.59,9,3.27,14.91c0,0-7.84.9-9.14-1.36,0,0,3.59,11.74,10.12,10.39,0,0,3.14,26.41,25.66,27"/></svg>