<svg id="Layer_1" data-name="Layer 1" xmlns="http://www.w3.org/2000/svg" viewBox="0 0 162.81 294.88"><defs><style>.cls-1{fill:#af3c47;}.cls-2,.cls-4{fill:none;stroke-linecap:round;stroke-linejoin:round;}.cls-2{stroke:#983233;}.cls-3,.cls-6{fill:#fff;}.cls-4{stroke:#999;}.cls-5{fill:#e2e2e2;}.cls-6{stroke:#545454;stroke-miterlimit:10;}.cls-7{fill:#545454;}.cls-8{fill:#999;}.cls-9{fill:#ff6608;}</style></defs><title>4_BODY</title><path class="cls-1" d="M132.27,36.61s-7.4-12.92-12.08-18.89l-4,12.33s-7-19.74-24.14-26.55l8,13.05S90.31,7.41,74.08,12.9L88,27.34s25.41,28.57,25.6,27.74S132.27,36.61,132.27,36.61Z"/><path class="cls-2" d="M132.3,33.9l.3-.29s-7.4-12.92-12.08-18.89l-4,12.33S109.56,7.31,92.41.5l7.94,13.05S90.64,4.41,74.41,9.9l14,14.44s2.7,3,6.36,7.11"/><path class="cls-3" d="M117.09,228.49s21.68-2.11,34.1,16.62c0,0-21.05-10.31-28.21-3.36"/><path class="cls-4" d="M117.09,226.49s21.68-2.11,34.1,16.62c0,0-21.05-10.31-28.21-3.36"/><path class="cls-5" d="M103.76,80.06c-.56,2.46-.56,13.14-11.78,21.73l9.54.36-7.86,18.41,14-8.66-5,111.15s-5-10.43-34.79-10.43c-26.94,0-33.12,14.73-41,24.54s-16.28-9.81-16.28-9.81-6.17,12.27,5.61,20.25c0,0-13.47,1.22-15.71-1.84,0,0,6.17,15.95,17.4,14.11,0,0,11.79,34.15,50.51,35C97,295.47,99.83,287,99.83,287s7.62,8.17,22.45-10.66c17.4-22.09-3.74-52.75-3.74-52.75l1.68-93.16s12.91,18.46,24.13,19.08c0,0-17.4-18.52-20.76-34.8,0,0,11.78,5.67,10.1,5s-8.42-16.83-8.42-16.83l12.35,5s-16.46-20.54-15.9-29.75Z"/><path class="cls-4" d="M103.76,78.06C103.2,80.52,103.2,91.2,92,99.79l9.54.36-7.86,18.41,14-8.66-5,111.15s-5-10.43-34.79-10.43c-26.94,0-33.12,14.73-41,24.54s-16.28-9.81-16.28-9.81-6.17,12.27,5.61,20.25c0,0-13.47,1.22-15.71-1.84,0,0,6.17,15.95,17.4,14.11,0,0,11.79,34.15,50.51,35C97,293.47,99.83,285,99.83,285s7.62,8.17,22.45-10.66c17.4-22.09-3.74-52.75-3.74-52.75l1.68-93.16s12.91,18.46,24.13,19.08c0,0-17.4-18.52-20.76-34.8,0,0,11.78,5.67,10.1,5s-8.42-16.83-8.42-16.83l12.35,5s-16.46-20.54-15.9-29.75Z"/><circle class="cls-6" cx="137.44" cy="57.7" r="24.87"/><ellipse class="cls-7" cx="148.49" cy="57.71" rx="3.23" ry="2.95"/><path class="cls-3" d="M82,220.7c-.63.42-21.26-.42-22.94,17.26,0,0,20.62-10.31,28.62-5.26"/><ellipse class="cls-6" cx="91.76" cy="61.87" rx="30.29" ry="31.57" transform="translate(-6.92 11.76) rotate(-7.07)"/><ellipse class="cls-7" cx="96.73" cy="59.76" rx="3.79" ry="3.55"/><path class="cls-4" d="M82,218.7c-.63.42-21.26-.42-22.94,17.26,0,0,20.62-10.31,28.62-5.26"/><path class="cls-8" d="M103.34,252.58s-8.91,5.58-1.88,11.85c4.24,3.79,11.53-3.58,11.53-3.58s-5.64,9,3.36,12.43c5.6,2.14,7.09-6.44,7.09-6.44s2.3-9-.84-10.4-6.75-2.69-6.75-2.69-3.83-4.06-6-4.42S103.34,252.58,103.34,252.58Z"/><path class="cls-8" d="M96.53,248.12s-3.46,5.56,4.17,8.6c4.74,1.9,6.45-6.2,6.45-6.2s1.46-7.29-.24-9.78C105.33,238.41,96.53,248.12,96.53,248.12Z"/><path class="cls-3" d="M98.19,245.17s-4.3,5,2.87,9c4.46,2.46,7.39-5.27,7.39-5.27s2.56-7,1.24-9.62C108.46,236.76,98.19,245.17,98.19,245.17Z"/><path class="cls-3" d="M105.93,248.35s-10.72,6.05-3.74,13.18c4.21,4.3,10.08-1.09,10.08-1.09s-4.23,7.26,5,10.83c5.75,2.22,7.86-8.24,7.86-8.24s1.83-9.39-.22-12.51c-1.9-2.9-7.5-5.64-9.8-5.93S105.93,248.35,105.93,248.35Z"/><path class="cls-8" d="M105.13,230.64s-8.69,2.32-5,5.72,7-4,7-4Z"/><path class="cls-8" d="M106.22,247.49s-5.43,7,1.84,10c4.38,1.83,8-6.15,8-6.15s-1.92,8.82,6.11,9c5,.12,3.77-7.18,3.77-7.18s-.71-7.86-3.57-8.08-6-.24-6-.24-4.14-2.16-6-1.81S106.22,247.49,106.22,247.49Z"/><path class="cls-8" d="M100.05,245.86s-1.06,5.43,5.16,5.7c3.87.17,3-6.81,3-6.81s-.8-6.25-2.65-7.76S100.05,245.86,100.05,245.86Z"/><path class="cls-3" d="M100.49,243s-1.8,5.23,4.32,6.36c3.81.7,3.94-6.32,3.94-6.32s.07-6.3-1.55-8.06S100.49,243,100.49,243Z"/><path class="cls-8" d="M106.71,232.28s-7.25,6.87-2.75,9.25c3.51,1.85,4.12-2.63,4.12-2.63s1.5,4.38,5.88,2.63-3.75-9-3.75-9Z"/><path class="cls-3" d="M107.79,229.35s-9-.16-6.36,4.13,7.84-1.89,7.84-1.89Z"/><path class="cls-3" d="M107,243.36s-6.54,7.9.72,11.62c4.39,2.24,7.4-3.74,7.4-3.74s-1.26,7,6.77,7.25c5,.14,3.77-8.84,3.77-8.84s-1.16-8-3.57-10c-2.24-1.79-7.26-2.38-9.09-2S107,243.36,107,243.36Z"/><path class="cls-3" d="M109.17,229.31s-9,4.4-5.39,8c2.8,2.82,4.72-1.27,4.72-1.27s.13,4.62,4.83,4.25-.89-9.7-.89-9.7Z"/><path class="cls-8" d="M110.05,239.33s-1.26,5.76,4,5.5c3.15-.16,3.07-6,3.07-6s1.37,5.84,6.24,3.66c3-1.36.22-5.39.22-5.39s-2.68-4.51-4.46-3.83-3.7,1.58-3.7,1.58-3.1-.11-4.1.62S110.05,239.33,110.05,239.33Z"/><path class="cls-3" d="M111,236.22s-1.67,6.61,3.75,6.76c3.27.1,3.37-4.36,3.37-4.36s1.25,4.58,6.14,2.42c3-1.34-.26-6.38-.26-6.38s-3-4.49-5-5a9.52,9.52,0,0,0-6,1.43C112,231.9,111,236.22,111,236.22Z"/><path class="cls-9" d="M114.86,88.89a49.29,49.29,0,0,1,35.36,5c7.12,3.92,3.78-5,1-8.56-2.33-2.91-11.79-12.63-26.1-14.17,0,0-11.78.14-12.77,9.68C112.33,80.89,112.61,89.17,114.86,88.89Z"/><path class="cls-2" d="M114.86,86.89a49.29,49.29,0,0,1,35.36,5c7.12,3.92,3.78-5,1-8.56-2.33-2.91-11.79-12.63-26.1-14.17,0,0-11.78.14-12.77,9.68C112.33,78.89,112.61,87.17,114.86,86.89Z"/></svg>