<svg id="Layer_1" data-name="Layer 1" xmlns="http://www.w3.org/2000/svg" viewBox="0 0 165.8 207.81"><defs><style>.cls-1{fill:#fff;stroke:#545454;}.cls-1,.cls-3{stroke-miterlimit:10;}.cls-2{fill:#fae183;}.cls-3,.cls-5{fill:none;}.cls-3{stroke:#ff6608;}.cls-4{fill:#af3c47;}.cls-5{stroke:#983233;stroke-linecap:round;stroke-linejoin:round;}</style></defs><title>ChickenB_BACK_BODY</title><circle class="cls-1" cx="66.42" cy="56.73" r="14.72"/><circle class="cls-1" cx="99.85" cy="55.75" r="14.72"/><line class="cls-1" x1="105.5" y1="42.03" x2="109.56" y2="33.89"/><line class="cls-1" x1="110.93" y1="46.24" x2="121.35" y2="38.44"/><line class="cls-1" x1="98.61" y1="41.15" x2="94.65" y2="30.64"/><line class="cls-1" x1="59.97" y1="43.14" x2="55.43" y2="35.25"/><line class="cls-1" x1="54.8" y1="47.66" x2="43.93" y2="40.48"/><line class="cls-1" x1="66.8" y1="41.85" x2="70.13" y2="31.13"/><path class="cls-2" d="M101.13,103.23s34.15-12.51,63.73,32.64l-17.52-.49s15,16.57,7.28,35.06-23.22,35.8-68.94,37.28-63.74-15.89-72.52-33.89,5.21-35.42,5.21-35.42L.91,139.93C27.8,93.12,62.62,103.6,62.62,103.6Z"/><path class="cls-3" d="M101.13,101.23s34.15-12.51,63.73,32.64l-17.52-.49s15,16.57,7.28,35.06-23.22,35.8-68.94,37.28-63.74-15.89-72.52-33.89,5.21-35.42,5.21-35.42L.91,137.93C27.8,91.12,62.62,101.6,62.62,101.6Z"/><path class="cls-4" d="M88.11,51.64c.21.49,13.76-25.58,8.83-45.78-1.13,6.87-7.08,20.22-8.13,18.58C86.44,20.74,81,2.33,75.16,2.5c2.54,6.76,5.4,28.06,4.46,26.88-2.08-2.6-8.46-4.25-8.46-4.25l10.9,19.35S85.61,45.88,88.11,51.64Z"/><path class="cls-5" d="M86.11,49.64c.21.49,13.76-25.58,8.83-45.78-1.13,6.87-7.08,20.22-8.13,18.58C84.44,18.74,79,.33,73.16.5c2.54,6.76,5.4,28.06,4.46,26.88-2.08-2.6-8.46-4.25-8.46-4.25l10.9,19.35S83.61,43.88,86.11,49.64Z"/><path class="cls-3" d="M78.47,176.73,67,160.09l4.27,17.78s-19.43-5.74-20.3-4.91,38.6,33,38.6,33"/><path class="cls-2" d="M99.23,81.13s17.15,38.93,24.27,43l-10-1.46s6,32.84-26,34.53l-1.25,0c-32,.19-28-32.94-28-32.94l-9.95,2C55.15,121.86,70.49,82,70.49,82l3.88-32.8s5.4-3.6,10.39-3.8,10.61,3.69,10.61,3.69Z"/><path class="cls-3" d="M98.23,79.13s17.15,38.93,24.27,43l-10-1.46s6,32.84-26,34.53l-1.25,0c-32,.19-28-32.94-28-32.94l-9.95,2C54.15,119.86,69.49,80,69.49,80l3.88-32.8s5.4-3.6,10.39-3.8,10.61,3.69,10.61,3.69Z"/></svg>