<svg id="Layer_1" data-name="Layer 1" xmlns="http://www.w3.org/2000/svg" viewBox="0 0 116.42 334.14"><defs><style>.cls-1{fill:#af3c47;}.cls-2,.cls-4,.cls-6{fill:none;stroke-linecap:round;stroke-linejoin:round;}.cls-2,.cls-6{stroke:#983233;}.cls-3{fill:#e2e2e2;}.cls-4{stroke:#999;}.cls-5,.cls-9{fill:#fff;}.cls-5{stroke:#545454;stroke-miterlimit:10;}.cls-6{stroke-width:2px;}.cls-7{fill:#ff6608;}.cls-8{fill:#999;}.cls-10{fill:#545454;}</style></defs><title>ChickenA_FRONT_pickyourchicken</title><path class="cls-1" d="M71.42,26.65S61.38,15.77,55.52,11L54.41,23.86S43.25,6.29,25.12,3.5l10.6,10.88S24.28,7.68,9.77,16.61L26.51,27.49s31,22,31,21.2S71.42,26.65,71.42,26.65Z"/><path class="cls-2" d="M71.42,23.65S61.38,12.77,55.52,8L54.41,20.86S43.25,3.29,25.12.5l10.6,10.88S24.28,4.68,9.77,13.61L26.51,24.49s31,22,31,21.2S71.42,23.65,71.42,23.65Z"/><path class="cls-3" d="M75.33,84.07c1.81,4.19,20.5,21.2,20.5,21.2-7-.41-25.52-7.67-25.52-7.67,2.65,6.28,20.36,19.25,20.36,19.25-6.27-.56-20.08-5.58-20.08-5.58s.89,94.15,5.49,105.87c0,0,33.7-7.53,39.84,18.27,0,0-18.27-10.18-24.69-7.95,1.53,2.09,20.09,5.58,18.83,37.24-1,24.42-22.32,28.73-31.8,30-11.44,7-17,8.37-28,1.39-10.18-.69-28.59-1.25-33.89-21.48-9.26-35.34,15.48-47.42,15.48-47.42C26,226.76,6.71,236,6.71,236c24-30.83,43.51-18.55,43.51-18.55C54.83,205.7,53,126.2,53,126.2c-4.6,8-27.06,26.22-27.06,26.22,5.3-7.53,21.76-41.57,21.76-41.57l-10.46,6.7,6.28-13-13.39,3.34c16.32-7.53,17.57-28.73,18.41-30l13.11-1.68Z"/><path class="cls-4" d="M75.33,82.07c1.81,4.19,20.5,21.2,20.5,21.2-7-.41-25.52-7.67-25.52-7.67,2.65,6.28,20.36,19.25,20.36,19.25-6.27-.56-20.08-5.58-20.08-5.58s.89,94.15,5.49,105.87c0,0,33.7-7.53,39.84,18.27,0,0-18.27-10.18-24.69-7.95,1.53,2.09,20.09,5.58,18.83,37.24-1,24.42-22.32,28.73-31.8,30-11.44,7-17,8.37-28,1.39-10.18-.69-28.59-1.25-33.89-21.48-9.26-35.34,15.48-47.42,15.48-47.42C26,224.76,6.71,234,6.71,234c24-30.83,43.51-18.55,43.51-18.55C54.83,203.7,53,124.2,53,124.2c-4.6,8-27.06,26.22-27.06,26.22,5.3-7.53,21.76-41.57,21.76-41.57l-10.46,6.7,6.28-13-13.39,3.34c16.32-7.53,17.57-28.73,18.41-30l13.11-1.68Z"/><circle class="cls-5" cx="76.59" cy="48.41" r="24.73"/><ellipse class="cls-5" cx="30.64" cy="55.81" rx="31.38" ry="30.12" transform="translate(-28.52 79.35) rotate(-82.93)"/><polyline class="cls-6" points="43.11 281.67 48.55 330.21 34.32 332.72"/><polyline class="cls-6" points="86.21 280 79.1 331.05 92.07 333.14"/><path class="cls-7" d="M51.9,83.24a48.94,48.94,0,0,1,35.15,5c7.08,3.89,3.76-5,1-8.51-2.31-2.9-11.71-12.55-25.94-14.09,0,0-11.72.14-12.69,9.63C49.39,75.29,49.67,83.51,51.9,83.24Z"/><path class="cls-8" d="M56.86,241.12S48,246.7,55,253c4.24,3.78,11.53-3.59,11.53-3.59s-5.64,9,3.37,12.44c5.6,2.13,7.09-6.44,7.09-6.44s2.29-9-.85-10.4-6.75-2.7-6.75-2.7-3.82-4.05-6-4.41S56.86,241.12,56.86,241.12Z"/><path class="cls-8" d="M50.05,236.66s-3.46,5.55,4.17,8.6c4.75,1.9,6.45-6.21,6.45-6.21s1.46-7.28-.23-9.78C58.85,227,50.05,236.66,50.05,236.66Z"/><path class="cls-9" d="M51.71,233.71s-4.3,5,2.87,9C59,245.13,62,237.4,62,237.4s2.57-7,1.25-9.62C62,225.3,51.71,233.71,51.71,233.71Z"/><path class="cls-9" d="M59.45,236.88s-10.72,6.06-3.73,13.19c4.21,4.3,10.08-1.1,10.08-1.1s-4.24,7.27,5,10.84c5.75,2.22,7.87-8.24,7.87-8.24s1.82-9.4-.22-12.51c-1.91-2.91-7.5-5.64-9.8-5.93S59.45,236.88,59.45,236.88Z"/><path class="cls-8" d="M58.66,219.18s-8.7,2.32-5,5.72,7-4,7-4Z"/><path class="cls-8" d="M59.75,236s-5.44,7,1.83,10c4.38,1.82,8-6.15,8-6.15s-1.91,8.82,6.11,9c5,.11,3.78-7.18,3.78-7.18s-.72-7.86-3.57-8.09-6-.23-6-.23-4.14-2.16-6-1.82S59.75,236,59.75,236Z"/><path class="cls-9" d="M54,231.56s-1.8,5.23,4.33,6.36c3.81.7,3.93-6.33,3.93-6.33s.07-6.3-1.55-8.05S54,231.56,54,231.56Z"/><path class="cls-8" d="M60.23,220.82s-7.25,6.87-2.75,9.25c3.51,1.85,4.13-2.63,4.13-2.63s1.5,4.38,5.87,2.63-3.75-9-3.75-9Z"/><path class="cls-9" d="M61.31,217.88s-9-.15-6.36,4.14,7.84-1.89,7.84-1.89Z"/><path class="cls-9" d="M60.52,231.9s-6.54,7.9.73,11.62c4.38,2.24,7.4-3.75,7.4-3.75s-1.27,7,6.76,7.25c5,.14,3.77-8.83,3.77-8.83s-1.16-8-3.56-9.95-7.26-2.39-9.1-2S60.52,231.9,60.52,231.9Z"/><path class="cls-9" d="M62.69,217.85s-9,4.4-5.38,8c2.8,2.81,4.72-1.28,4.72-1.28s.12,4.63,4.82,4.26-.89-9.71-.89-9.71Z"/><path class="cls-8" d="M63.58,227.87s-1.26,5.76,4,5.49c3.15-.16,3.08-6,3.08-6S72,233.21,76.86,231c3-1.35.21-5.38.21-5.38s-2.67-4.52-4.45-3.84-3.7,1.59-3.7,1.59-3.1-.11-4.11.62S63.58,227.87,63.58,227.87Z"/><path class="cls-9" d="M64.51,224.75s-1.67,6.62,3.76,6.77c3.27.1,3.37-4.36,3.37-4.36s1.25,4.58,6.13,2.42c3-1.34-.26-6.38-.26-6.38s-3-4.5-5-5c-1.85-.43-5,.65-6,1.42S64.51,224.75,64.51,224.75Z"/><path class="cls-2" d="M51.9,81.24a48.94,48.94,0,0,1,35.15,5c7.08,3.89,3.76-5,1-8.51-2.31-2.9-11.71-12.55-25.94-14.09,0,0-11.72.14-12.69,9.63C49.39,73.29,49.67,81.51,51.9,81.24Z"/><ellipse class="cls-10" cx="81.78" cy="48.18" rx="3.23" ry="2.95"/><ellipse class="cls-10" cx="30.02" cy="50.23" rx="3.79" ry="3.55"/></svg>