<?xml version="1.0" encoding="utf-8"?>
<!-- Generator: Adobe Illustrator 22.0.0, SVG Export Plug-In . SVG Version: 6.00 Build 0)  -->
<svg version="1.1" id="Layer_2_1_" xmlns="http://www.w3.org/2000/svg" xmlns:xlink="http://www.w3.org/1999/xlink" x="0px" y="0px"
	 viewBox="0 0 151.2 181.8" style="enable-background:new 0 0 151.2 181.8;" xml:space="preserve">
<style type="text/css">
	.st0{fill:#C64F1A;}
	.st1{fill:none;stroke:#983233;stroke-linecap:round;stroke-linejoin:round;}
	.st2{fill:#AF3C47;}
	.st3{fill:#FFFFFF;stroke:#545454;stroke-miterlimit:10;}
	.st4{fill:none;stroke:#983233;stroke-width:3;stroke-linecap:round;stroke-linejoin:round;}
	.st5{fill:none;stroke:#545454;stroke-miterlimit:10;}
	.st6{fill:#545454;}
	.st7{fill:#FF6608;}
</style>
<title>ChickenC_FRONT_pickyourchicken</title>
<path class="st0" d="M124.7,137.3c0.8-0.1,15-12.9,19.9-7c4,4.9-5.9,7.2-5.9,7.2s7.3,1.1,6.1,4.3c-1.4,3.9-8.5,2.7-8.5,2.7
	s9.3,6.6,2.6,8.5c-7.6,2.1-13.6-3.8-13.6-3.8L124.7,137.3z"/>
<path class="st1" d="M124.7,135.3c0.8-0.1,15-12.9,19.9-7c4,4.9-5.9,7.2-5.9,7.2s7.3,1.1,6.1,4.3c-1.4,3.9-8.5,2.7-8.5,2.7
	s9.3,6.6,2.6,8.5c-7.6,2.1-13.6-3.8-13.6-3.8L124.7,135.3z"/>
<path class="st0" d="M70.2,64.4c-14.1,1.4-29.5,7.3-45.4,20.8C9.8,97.8,8,102.6,2.5,119.2c0,0,17.8-10.1,18.5-7.9s-5.5,26.2,10,41.7
	s84.5,18,96.8-2c9.9-16.1,0-36.9,0.2-39.4s19.2,2.2,23.2,8.7c0,0-5.5-20.5-12-28.1c0,0-21.3-23.1-52.2-27.4"/>
<path class="st1" d="M68.2,61.4c-14.1,1.4-29.5,7.3-45.4,20.8C7.8,94.8,6,99.6,0.5,116.2c0,0,17.8-10.1,18.5-7.9s-5.5,26.2,10,41.7
	s84.5,18,96.8-2c9.9-16.1,0-36.9,0.2-39.4s19.2,2.2,23.2,8.7c0,0-5.5-20.5-12-28.1c0,0-21.3-23.1-52.2-27.4"/>
<path class="st2" d="M107.9,24.6c-3.6-3.6-15.5,9.2-15.5,9.2s4.2-9-0.8-14.2s-12,12.2-12,12.2S74.8,20,68.4,18.6
	c-4.5-1-2.8,11.8-2.8,11.8s-4.3-9.2-13.2-6.8c-9.2,2.5,27,47.8,27,47.8S114.6,31.3,107.9,24.6z"/>
<path class="st1" d="M107.9,21.6c-3.6-3.6-15.5,9.2-15.5,9.2s4.2-9-0.8-14.2s-12,12.2-12,12.2S74.8,17,68.4,15.6
	c-4.5-1-2.8,11.8-2.8,11.8s-4.3-9.2-13.2-6.8c-9.2,2.5,27,47.8,27,47.8S114.6,28.3,107.9,21.6z"/>
<circle class="st3" cx="45.4" cy="62" r="28.2"/>
<ellipse transform="matrix(0.1234 -0.9924 0.9924 0.1234 32.6752 169.439)" class="st3" cx="112.2" cy="66.2" rx="23.3" ry="30.4"/>
<path class="st4" d="M80.5,27c0,0,4.2-11.3-3.8-13.5c-9.7-2.7-5.5-12.2-0.2-12c7.8,0.2,8.8,6,5.5,7"/>
<path class="st1" d="M68.2,84.3c4.8,7,8.8,14,8.8,14s6.5-9.8,10.2-14.5C84,78.3,73,74.8,68.2,84.3z"/>
<circle class="st5" cx="114.1" cy="66.6" r="16.9"/>
<circle class="st6" cx="114.7" cy="66" r="12"/>
<polyline class="st4" points="55.5,149.3 59,177.8 42.5,179.3 "/>
<path class="st4" d="M97.5,148.3c-0.5,1.5-6,30.5-6,30.5l14.5,1.5"/>
<path class="st7" d="M68.2,86.3c4.8,7,8.8,14,8.8,14s6.5-9.8,10.2-14.5C84,80.3,73,76.8,68.2,86.3z"/>
<path class="st6" d="M61.8,62.1c0,9.3-7.6,16.8-16.9,16.8c-9.3,0-16.8-7.6-16.8-16.9c0-9.3,7.6-16.8,16.9-16.8
	c7.6,0,14.2,5.1,16.2,12.4C61.6,59,61.8,60.5,61.8,62.1z"/>
<path class="st0" d="M124.7,137.3c0.8-0.1,15-12.9,19.9-7c4,4.9-5.9,7.2-5.9,7.2s7.3,1.1,6.1,4.3c-1.4,3.9-8.5,2.7-8.5,2.7
	s9.3,6.6,2.6,8.5c-7.6,2.1-13.6-3.8-13.6-3.8L124.7,137.3z"/>
<path class="st1" d="M124.7,135.3c0.8-0.1,15-12.9,19.9-7c4,4.9-5.9,7.2-5.9,7.2s7.3,1.1,6.1,4.3c-1.4,3.9-8.5,2.7-8.5,2.7
	s9.3,6.6,2.6,8.5c-7.6,2.1-13.6-3.8-13.6-3.8L124.7,135.3z"/>
<path class="st0" d="M70.2,64.4c-14.1,1.4-29.5,7.3-45.4,20.8C9.8,97.8,8,102.6,2.5,119.2c0,0,17.8-10.1,18.5-7.9s-5.5,26.2,10,41.7
	s84.5,18,96.8-2c9.9-16.1,0-36.9,0.2-39.4s19.2,2.2,23.2,8.7c0,0-5.5-20.5-12-28.1c0,0-21.3-23.1-52.2-27.4"/>
<path class="st1" d="M68.2,61.4c-14.1,1.4-29.5,7.3-45.4,20.8C7.8,94.8,6,99.6,0.5,116.2c0,0,17.8-10.1,18.5-7.9s-5.5,26.2,10,41.7
	s84.5,18,96.8-2c9.9-16.1,0-36.9,0.2-39.4s19.2,2.2,23.2,8.7c0,0-5.5-20.5-12-28.1c0,0-21.3-23.1-52.2-27.4"/>
<path class="st2" d="M107.9,24.6c-3.6-3.6-15.5,9.2-15.5,9.2s4.2-9-0.8-14.2s-12,12.2-12,12.2S74.8,20,68.4,18.6
	c-4.5-1-2.8,11.8-2.8,11.8s-4.3-9.2-13.2-6.8c-9.2,2.5,27,47.8,27,47.8S114.6,31.3,107.9,24.6z"/>
<path class="st1" d="M107.9,21.6c-3.6-3.6-15.5,9.2-15.5,9.2s4.2-9-0.8-14.2s-12,12.2-12,12.2S74.8,17,68.4,15.6
	c-4.5-1-2.8,11.8-2.8,11.8s-4.3-9.2-13.2-6.8c-9.2,2.5,27,47.8,27,47.8S114.6,28.3,107.9,21.6z"/>
<circle class="st3" cx="45.4" cy="62" r="28.2"/>
<ellipse transform="matrix(0.1234 -0.9924 0.9924 0.1234 32.6752 169.439)" class="st3" cx="112.2" cy="66.2" rx="23.3" ry="30.4"/>
<path class="st7" d="M68.2,86.3c4.8,7,8.8,14,8.8,14s6.5-9.8,10.2-14.5C84,80.3,73,76.8,68.2,86.3z"/>
<path class="st1" d="M68.2,84.3c4.8,7,8.8,14,8.8,14s6.5-9.8,10.2-14.5C84,78.3,73,74.8,68.2,84.3z"/>
<circle class="st5" cx="114.1" cy="66.6" r="16.9"/>
<circle class="st6" cx="114.7" cy="66" r="12"/>
<polyline class="st4" points="55.5,149.3 59,177.8 42.5,179.3 "/>
<path class="st4" d="M97.5,148.3c-0.5,1.5-6,30.5-6,30.5l14.5,1.5"/>
<path class="st6" d="M61.8,62.1c0,9.3-7.6,16.8-16.9,16.8c-9.3,0-16.8-7.6-16.8-16.9c0-9.3,7.6-16.8,16.9-16.8
	c7.6,0,14.2,5.1,16.2,12.4C61.6,59,61.8,60.5,61.8,62.1z"/>
</svg>
