<svg id="Layer_1" data-name="Layer 1" xmlns="http://www.w3.org/2000/svg" viewBox="0 0 181.15 208.08"><defs><style>.cls-1{fill:#fae183;}.cls-2,.cls-7{fill:none;}.cls-2{stroke:#ff6608;}.cls-2,.cls-3{stroke-miterlimit:10;}.cls-3{fill:#fff;stroke:#545454;}.cls-4{fill:#ff6608;}.cls-5{fill:#545454;}.cls-6{fill:#af3c47;}.cls-7{stroke:#983233;stroke-linecap:round;stroke-linejoin:round;}</style></defs><title>ChickenB_BODY</title><path class="cls-1" d="M149.12,119.49s28.07,9.73,31.31,22.54c0,0-18.23-7.42-21.71.18s-6.24,11.13-12.06-5.18S149.12,119.49,149.12,119.49Z"/><path class="cls-2" d="M149.12,116.49s28.07,9.73,31.31,22.54c0,0-18.23-7.42-21.71.18s-6.24,11.13-12.06-5.18S149.12,116.49,149.12,116.49Z"/><path class="cls-1" d="M35.65,112C15.35,130.15,25,156.21,25,156.21l-19.15-11,14,18.07S.72,171.61.5,173.3s50.78,9.48,50.78,9.48,16,29,54.87,24.91c38.15-4,62.65-31.1,49.21-75.27s-69.48-18.88-69.48-18.88S67.74,83.4,35.65,112Z"/><path class="cls-2" d="M98.92,81.9a92.48,92.48,0,0,1-4.33,19.35c-2.45,7.45-5.22,11.39-8.53,16.63l11.14-3.12S80.52,153.35,111,158.91s47.55-17.68,33.69-39.11l4.55-6.66L130.67,82s5.48-51.21-19.46-49.1C89,34.81,101.88,74,98.92,81.9Z"/><path class="cls-2" d="M35.65,109C15.35,127.15,25,153.21,25,153.21l-19.15-11,14,18.07S.72,168.61.5,170.3s50.78,9.48,50.78,9.48,16,29,54.87,24.91c38.15-4,62.65-31.1,49.21-75.27s-69.48-18.88-69.48-18.88S67.74,80.4,35.65,109Z"/><path class="cls-1" d="M99.92,84.9a92.48,92.48,0,0,1-4.33,19.35c-2.45,7.45-5.22,11.39-8.53,16.63l11.14-3.12S81.52,156.35,112,161.91s47.55-17.68,33.69-39.11l4.55-6.66L131.67,85s5.48-51.21-19.46-49.1C90,37.81,102.88,77,99.92,84.9Z"/><path class="cls-2" d="M98.92,81.9a92.48,92.48,0,0,1-4.33,19.35c-2.45,7.45-5.22,11.39-8.53,16.63l11.14-3.12S80.52,153.35,111,158.91s47.55-17.68,33.69-39.11l4.55-6.66L130.67,82s5.48-51.21-19.46-49.1C89,34.81,101.88,74,98.92,81.9Z"/><circle class="cls-3" cx="140.06" cy="57.82" r="19.64"/><path class="cls-4" d="M126.11,85.68s-6.14-21,6-19.47,18.5,16.09,19.4,19.36S126.11,85.68,126.11,85.68Z"/><circle class="cls-5" cx="147.4" cy="57.36" r="3.47"/><line class="cls-3" x1="146.64" y1="39.14" x2="151.5" y2="28.02"/><line class="cls-3" x1="154.16" y1="44.38" x2="167.52" y2="33.27"/><line class="cls-3" x1="137.39" y1="38.44" x2="131.4" y2="24.71"/><path class="cls-6" d="M120.87,45.91c.33.37,6-26.92-4.3-43.41.83,6.46-1.13,20.13-2.59,19-3.29-2.58-13.59-17.32-19.1-15.41,4.29,5.25,12.94,23.34,11.71,22.58-2.7-1.7-9.25-1.24-9.25-1.24l15.78,13.94S116.88,41.54,120.87,45.91Z"/><path class="cls-7" d="M126.11,83.68s-6.14-21,6-19.47,18.5,16.09,19.4,19.36S126.11,83.68,126.11,83.68Z"/><path class="cls-7" d="M120.87,43.91c.33.37,6-26.92-4.3-43.41.83,6.46-1.13,20.13-2.59,19-3.29-2.58-13.59-17.32-19.1-15.41,4.29,5.25,12.94,23.34,11.71,22.58-2.7-1.7-9.25-1.24-9.25-1.24l15.78,13.94S116.88,39.54,120.87,43.91Z"/><circle class="cls-3" cx="105.84" cy="65.14" r="19.64"/><circle class="cls-5" cx="109.64" cy="63.62" r="3.47"/><line class="cls-3" x1="92" y1="50.64" x2="83.75" y2="41.74"/><line class="cls-3" x1="99.8" y1="45.85" x2="94.97" y2="29.16"/><line class="cls-3" x1="87.65" y1="58.83" x2="72.67" y2="58.83"/><path class="cls-4" d="M72.6,118.56S57,124.14,50.37,144.84c0,0,18.95-6.2,24.81-3.61"/><path class="cls-1" d="M76.35,117.56s-15.69,5.1-22.41,23.61c0,0,19-5.67,24.82-3.4"/></svg>