<svg id="Layer_1" data-name="Layer 1" xmlns="http://www.w3.org/2000/svg" viewBox="0 0 157.27 170.52"><defs><style>.cls-1{fill:#c64f1a;}.cls-2,.cls-3,.cls-8{fill:none;}.cls-2,.cls-3{stroke:#983233;stroke-linecap:round;stroke-linejoin:round;}.cls-3{stroke-width:3px;}.cls-4,.cls-6{fill:#fff;}.cls-5{fill:#af3c47;}.cls-6,.cls-8{stroke:#545454;stroke-miterlimit:10;}.cls-7{fill:#545454;}.cls-9{fill:#ff6608;}</style></defs><title>ChickenC_BODY</title><path class="cls-1" d="M21.4,130c-.82-.09-15.23-12.65-20-6.66-3.92,4.93,6,7.16,6,7.16s-7.29,1.23-6,4.44c1.5,3.82,8.53,2.56,8.53,2.56S.68,144.2,7.4,146c7.63,2,13.5-4,13.5-4Z"/><path class="cls-2" d="M21.4,128c-.82-.09-15.23-12.65-20-6.66-3.92,4.93,6,7.16,6,7.16s-7.29,1.23-6,4.44c1.5,3.82,8.53,2.56,8.53,2.56S.68,142.2,7.4,144c7.63,2,13.5-4,13.5-4Z"/><path class="cls-1" d="M124.27,81.5c19-4,31,32.34,31,32.34S134.6,96.5,123.6,102.5C123.6,102.5,113.08,83.83,124.27,81.5Z"/><path class="cls-2" d="M125.77,80.25c19-4,31,32.34,31,32.34S136.1,95.25,125.1,101.25C125.1,101.25,114.58,82.58,125.77,80.25Z"/><path class="cls-1" d="M92.4,50.21c-17-6.36-34.82,15.54-59.3,43.71-5.92,6.81-17.85,30.63-18,33-.5,8-.92,16.68,14.58,32.16s100.54,16.35,111.42-4.16c8.92-16.81.13-36.48-6.67-51-3.82-8.17-12.71-28.22-24.66-37.33"/><path class="cls-2" d="M93.42,62c-17-6.36-36.84.8-61.32,29-5.92,6.81-17.85,30.63-18,33-.5,8-.92,16.68,14.58,32.16s100.54,16.35,111.42-4.16c8.92-16.81.13-36.48-6.67-51-3.82-8.17-12.71-28.22-24.66-37.33"/><path class="cls-3" d="M86.93,32.21S91.18,18.66,83.18,16c-9.71-3.29-5.5-14.65-.25-14.45,7.75.3,8.75,7.23,5.5,8.43"/><path class="cls-4" d="M93.61,91.55c8.23,2,15.91,4.43,15.91,4.43,1.08.36.1-11.13-3.5-18.23C99.91,75.88,90.71,81.33,93.61,91.55Z"/><path class="cls-1" d="M60.4,92c-14.26-4.59-49.3,13-49.3,13,5.29-11.1,28.8-35.71,28.8-35.71l24.5,6Z"/><path class="cls-2" d="M60.4,89c-14.26-4.59-49.3,13-49.3,13,5.29-11.1,28.8-35.71,28.8-35.71l24.5,6Z"/><path class="cls-5" d="M100.07,64.63c8.78-12.2,20.31-39.19,14.91-43.89C111.11,17.37,100.15,31,100.15,31s3.63-9.27-1.72-14.16-11.13,13-11.13,13S81.63,18.44,75.16,17.46c-4.55-.69-1.93,11.91-1.93,11.91s-4.94-8.84-13.69-5.82c-6.65,2.29,8.65,25.61,19.42,38"/><path class="cls-2" d="M100.15,64.21C108.93,52,120.38,22.44,115,17.74,111.11,14.37,100.15,28,100.15,28s3.63-9.27-1.72-14.16-11.13,13-11.13,13S81.63,15.44,75.16,14.46c-4.55-.69-1.93,11.91-1.93,11.91s-4.94-8.84-13.69-5.82c-6.65,2.29,8.65,25.61,19.42,38"/><circle class="cls-6" cx="67.68" cy="60.34" r="28.25"/><path class="cls-7" d="M89.18,61.88a16.85,16.85,0,1,1-.6-4.49A16.87,16.87,0,0,1,89.18,61.88Z"/><ellipse class="cls-6" cx="126.4" cy="62.63" rx="20.85" ry="23.69" transform="translate(56.5 185.17) rotate(-86.66)"/><ellipse class="cls-8" cx="130.44" cy="62.18" rx="13.53" ry="13.78" transform="translate(35.65 171.25) rotate(-74.5)"/><ellipse class="cls-7" cx="131.06" cy="61.84" rx="9.62" ry="9.8" transform="translate(36.44 171.6) rotate(-74.5)"/><path class="cls-9" d="M93.24,93.18c8.23,2,15.9,4.43,15.9,4.43,1.08.36.11-11.14-3.5-18.23C99.53,77.51,90.34,83,93.24,93.18Z"/><path class="cls-2" d="M93.61,91.55c8.23,2,15.91,4.43,15.91,4.43,1.08.36.1-11.13-3.5-18.23C99.91,75.88,90.71,81.33,93.61,91.55Z"/></svg>