<svg id="Layer_1" data-name="Layer 1" xmlns="http://www.w3.org/2000/svg" viewBox="0 0 151.25 165.25"><defs><style>.cls-1{fill:#c64f1a;}.cls-2,.cls-6{fill:none;}.cls-2,.cls-5{stroke:#983233;stroke-linecap:round;stroke-linejoin:round;}.cls-3{fill:#af3c47;}.cls-4,.cls-5{fill:#fff;}.cls-4,.cls-6{stroke:#545454;stroke-miterlimit:10;}.cls-5{stroke-width:3px;}.cls-7{fill:#545454;}.cls-8{fill:#ff6608;}</style></defs><title>ChickenC_FRONT</title><path class="cls-1" d="M124.7,137.29c.82-.11,15-12.88,19.87-7,4,4.86-5.87,7.25-5.87,7.25s7.31,1.12,6.1,4.34c-1.44,3.85-8.49,2.7-8.49,2.7s9.33,6.59,2.64,8.46c-7.59,2.12-13.56-3.79-13.56-3.79Z"/><path class="cls-2" d="M124.67,135.29c.82-.11,15-12.88,19.87-7,4,4.86-5.87,7.25-5.87,7.25s7.3,1.12,6.1,4.34c-1.44,3.85-8.49,2.7-8.49,2.7s9.33,6.59,2.64,8.46c-7.6,2.12-13.56-3.79-13.56-3.79Z"/><path class="cls-1" d="M70.18,64.35c-14.11,1.42-29.53,7.33-45.43,20.76C9.75,97.78,8,102.56,2.5,119.17c0,0,17.75-10.14,18.5-7.89s-5.5,26.18,10,41.66,84.5,18,96.75-2c9.85-16.06,0-36.87.25-39.4s19.25,2.25,23.25,8.72c0,0-5.5-20.54-12-28.14,0,0-21.26-23.08-52.15-27.44"/><path class="cls-2" d="M68.18,61.35c-14.11,1.42-29.53,7.33-45.43,20.76C7.75,94.78,6,99.56.5,116.17c0,0,17.75-10.14,18.5-7.89s-5.5,26.18,10,41.66,84.5,18,96.75-2c9.85-16.06,0-36.87.25-39.4s19.25,2.25,23.25,8.72c0,0-5.5-20.54-12-28.14,0,0-21.26-23.08-52.15-27.44"/><path class="cls-3" d="M107.88,24.55c-3.63-3.63-15.5,9.25-15.5,9.25s4.25-9-.75-14.25-12,12.25-12,12.25S74.76,20,68.38,18.55c-4.5-1-2.75,11.75-2.75,11.75s-4.33-9.16-13.25-6.75c-9.25,2.5,27,47.75,27,47.75S114.63,31.3,107.88,24.55Z"/><path class="cls-2" d="M107.88,21.55c-3.63-3.63-15.5,9.25-15.5,9.25s4.25-9-.75-14.25-12,12.25-12,12.25S74.76,17,68.38,15.55c-4.5-1-2.75,11.75-2.75,11.75s-4.33-9.16-13.25-6.75c-9.25,2.5,27,47.75,27,47.75S114.63,28.3,107.88,21.55Z"/><circle class="cls-4" cx="45.42" cy="62" r="28.25"/><ellipse class="cls-4" cx="112.24" cy="66.22" rx="23.26" ry="30.37" transform="translate(32.68 169.43) rotate(-82.91)"/><path class="cls-5" d="M80.5,27s4.25-11.25-3.75-13.5c-9.71-2.73-5.5-12.17-.25-12,7.75.25,8.75,6,5.5,7"/><path class="cls-2" d="M68.25,84.25c4.75,7,8.75,14,8.75,14s6.5-9.75,10.25-14.5C84,78.25,73,74.75,68.25,84.25Z"/><circle class="cls-6" cx="114.12" cy="66.63" r="16.87"/><circle class="cls-7" cx="114.75" cy="66" r="12"/><path class="cls-8" d="M68.25,86.25c4.75,7,8.75,14,8.75,14s6.5-9.75,10.25-14.5C84,80.25,73,76.75,68.25,86.25Z"/><path class="cls-7" d="M61.75,62.05a16.85,16.85,0,1,1-.6-4.48A16.87,16.87,0,0,1,61.75,62.05Z"/><path class="cls-1" d="M124.7,137.29c.82-.11,15-12.88,19.87-7,4,4.86-5.87,7.25-5.87,7.25s7.31,1.12,6.1,4.34c-1.44,3.85-8.49,2.7-8.49,2.7s9.33,6.59,2.64,8.46c-7.59,2.12-13.56-3.79-13.56-3.79Z"/><path class="cls-2" d="M124.67,135.29c.82-.11,15-12.88,19.87-7,4,4.86-5.87,7.25-5.87,7.25s7.3,1.12,6.1,4.34c-1.44,3.85-8.49,2.7-8.49,2.7s9.33,6.59,2.64,8.46c-7.6,2.12-13.56-3.79-13.56-3.79Z"/><path class="cls-1" d="M70.18,64.35c-14.11,1.42-29.53,7.33-45.43,20.76C9.75,97.78,8,102.56,2.5,119.17c0,0,17.75-10.14,18.5-7.89s-5.5,26.18,10,41.66,84.5,18,96.75-2c9.85-16.06,0-36.87.25-39.4s19.25,2.25,23.25,8.72c0,0-5.5-20.54-12-28.14,0,0-21.26-23.08-52.15-27.44"/><path class="cls-2" d="M68.18,61.35c-14.11,1.42-29.53,7.33-45.43,20.76C7.75,94.78,6,99.56.5,116.17c0,0,17.75-10.14,18.5-7.89s-5.5,26.18,10,41.66,84.5,18,96.75-2c9.85-16.06,0-36.87.25-39.4s19.25,2.25,23.25,8.72c0,0-5.5-20.54-12-28.14,0,0-21.26-23.08-52.15-27.44"/><path class="cls-3" d="M107.88,24.55c-3.63-3.63-15.5,9.25-15.5,9.25s4.25-9-.75-14.25-12,12.25-12,12.25S74.76,20,68.38,18.55c-4.5-1-2.75,11.75-2.75,11.75s-4.33-9.16-13.25-6.75c-9.25,2.5,27,47.75,27,47.75S114.63,31.3,107.88,24.55Z"/><path class="cls-2" d="M107.88,21.55c-3.63-3.63-15.5,9.25-15.5,9.25s4.25-9-.75-14.25-12,12.25-12,12.25S74.76,17,68.38,15.55c-4.5-1-2.75,11.75-2.75,11.75s-4.33-9.16-13.25-6.75c-9.25,2.5,27,47.75,27,47.75S114.63,28.3,107.88,21.55Z"/><circle class="cls-4" cx="45.42" cy="62" r="28.25"/><ellipse class="cls-4" cx="112.24" cy="66.22" rx="23.26" ry="30.37" transform="translate(32.68 169.43) rotate(-82.91)"/><path class="cls-8" d="M68.25,86.25c4.75,7,8.75,14,8.75,14s6.5-9.75,10.25-14.5C84,80.25,73,76.75,68.25,86.25Z"/><path class="cls-5" d="M80.5,27s4.25-11.25-3.75-13.5c-9.71-2.73-5.5-12.17-.25-12,7.75.25,8.75,6,5.5,7"/><path class="cls-2" d="M68.25,84.25c4.75,7,8.75,14,8.75,14s6.5-9.75,10.25-14.5C84,78.25,73,74.75,68.25,84.25Z"/><circle class="cls-6" cx="114.12" cy="66.63" r="16.87"/><circle class="cls-7" cx="114.75" cy="66" r="12"/><path class="cls-7" d="M61.75,62.05a16.85,16.85,0,1,1-.6-4.48A16.87,16.87,0,0,1,61.75,62.05Z"/></svg>