<svg id="Layer_1" data-name="Layer 1" xmlns="http://www.w3.org/2000/svg" viewBox="0 0 165.8 241"><defs><style>.cls-1{fill:#fae183;}.cls-2,.cls-7,.cls-8,.cls-9{fill:none;}.cls-2{stroke:#ff6608;}.cls-2,.cls-3,.cls-8{stroke-miterlimit:10;}.cls-3,.cls-5{fill:#fff;}.cls-3,.cls-8{stroke:#545454;}.cls-4{fill:#af3c47;}.cls-6{fill:#ff6608;}.cls-7,.cls-9{stroke:#983233;stroke-linecap:round;stroke-linejoin:round;}.cls-9{stroke-width:3px;}.cls-10{fill:#545454;}</style></defs><title>ChickenB_FRONT_pickyourchicken</title><path class="cls-1" d="M101.13,104.23s34.15-12.51,63.73,32.64l-17.52-.49s15,16.57,7.28,35.06-23.22,35.8-68.94,37.28-63.74-15.89-72.52-33.89,5.21-35.42,5.21-35.42L.91,140.93C27.8,94.12,62.62,104.6,62.62,104.6Z"/><path class="cls-2" d="M101.13,101.23s34.15-12.51,63.73,32.64l-17.52-.49s15,16.57,7.28,35.06-23.22,35.8-68.94,37.28-63.74-15.89-72.52-33.89,5.21-35.42,5.21-35.42L.91,137.93C27.8,91.12,62.62,101.6,62.62,101.6Z"/><path class="cls-1" d="M99.23,83.13s17.15,38.93,24.27,43l-10-1.46s6,32.84-26,34.53l-1.25,0c-32,.19-28-32.94-28-32.94l-9.95,2C55.15,123.86,70.49,84,70.49,84l3.88-32.8s5.4-3.6,10.39-3.8,10.61,3.69,10.61,3.69Z"/><path class="cls-2" d="M98.23,79.13s17.15,38.93,24.27,43l-10-1.46s6,32.84-26,34.53l-1.25,0c-32,.19-28-32.94-28-32.94l-9.95,2C54.15,119.86,69.49,80,69.49,80l3.88-32.8s5.4-3.6,10.39-3.8,10.61,3.69,10.61,3.69Z"/><circle class="cls-3" cx="60.55" cy="64.9" r="22"/><path class="cls-4" d="M86.11,52.64c.21.49,13.76-25.58,8.83-45.78-1.13,6.87-7.08,20.22-8.13,18.58C84.44,21.74,79,3.33,73.16,3.5c2.54,6.76,5.4,28.06,4.46,26.88-2.08-2.6-8.46-4.25-8.46-4.25l10.9,19.35S83.61,46.88,86.11,52.64Z"/><path class="cls-5" d="M76.59,83.1c3.22-4.38,11.15-6.33,17.29-1.67s2.08,11.15.44,15a36.43,36.43,0,0,1-7,10.88A39.78,39.78,0,0,1,79,98C77,94.9,72.58,88.56,76.59,83.1Z"/><circle class="cls-3" cx="110.52" cy="63.43" r="22"/><path class="cls-6" d="M76.59,85.1c3.22-4.38,11.15-6.33,17.29-1.67s2.08,11.15.44,15a36.43,36.43,0,0,1-7,10.88A39.78,39.78,0,0,1,79,100C77,96.9,72.58,90.56,76.59,85.1Z"/><path class="cls-7" d="M76.59,83.1c3.22-4.38,11.15-6.33,17.29-1.67s2.08,11.15.44,15a36.43,36.43,0,0,1-7,10.88A39.78,39.78,0,0,1,79,98C77,94.9,72.58,88.56,76.59,83.1Z"/><path class="cls-7" d="M86.11,49.64c.21.49,13.76-25.58,8.83-45.78-1.13,6.87-7.08,20.22-8.13,18.58C84.44,18.74,79,.33,73.16.5c2.54,6.76,5.4,28.06,4.46,26.88-2.08-2.6-8.46-4.25-8.46-4.25l10.9,19.35S83.61,43.88,86.11,49.64Z"/><line class="cls-8" x1="118.96" y1="42.92" x2="125.04" y2="30.75"/><line class="cls-8" x1="127.07" y1="49.21" x2="142.66" y2="37.55"/><line class="cls-8" x1="108.66" y1="41.6" x2="102.74" y2="25.89"/><line class="cls-8" x1="50.9" y1="43.08" x2="44.12" y2="31.29"/><line class="cls-8" x1="43.17" y1="49.83" x2="26.93" y2="39.11"/><line class="cls-8" x1="61.11" y1="41.16" x2="66.09" y2="25.13"/><polyline class="cls-9" points="55.8 193.1 63.58 236.74 46.66 239.5"/><polyline class="cls-9" points="107.23 190.08 100.09 236.42 115.64 237.86"/><circle class="cls-10" cx="111.5" cy="64.3" r="3.47"/><circle class="cls-10" cx="61.46" cy="66.1" r="3.47"/></svg>