<svg id="Layer_2" data-name="Layer 2" xmlns="http://www.w3.org/2000/svg" viewBox="0 0 549.85 310.71"><defs><style>.cls-1,.cls-3,.cls-6,.cls-7{fill:none;}.cls-1{stroke:#000;}.cls-1,.cls-5,.cls-7{stroke-miterlimit:10;}.cls-2{fill:#c64f1a;}.cls-3,.cls-6{stroke:#983233;stroke-linecap:round;stroke-linejoin:round;}.cls-4{fill:#af3c47;}.cls-5{fill:#fff;}.cls-5,.cls-7{stroke:#545454;}.cls-6{stroke-width:3px;}.cls-8{fill:#545454;}.cls-9{fill:#ff6608;}</style></defs><title>ChickenC_FRONT_pickyourchicken_new</title><path class="cls-1" d="M-398.6-128.46h0Z" transform="translate(398.6 128.96)"/><path class="cls-2" d="M124.7,137.29c.82-.11,15-12.88,19.87-7,4,4.86-5.87,7.25-5.87,7.25s7.31,1.12,6.1,4.34c-1.44,3.85-8.49,2.7-8.49,2.7s9.33,6.59,2.64,8.46c-7.59,2.12-13.56-3.79-13.56-3.79Z" transform="translate(398.6 128.96)"/><path class="cls-3" d="M124.67,135.29c.82-.11,15-12.88,19.87-7,4,4.86-5.87,7.25-5.87,7.25s7.3,1.12,6.1,4.34c-1.44,3.85-8.49,2.7-8.49,2.7s9.33,6.59,2.64,8.46c-7.6,2.12-13.56-3.79-13.56-3.79Z" transform="translate(398.6 128.96)"/><path class="cls-2" d="M70.18,64.35c-14.11,1.42-29.53,7.33-45.43,20.76C9.75,97.78,8,102.56,2.5,119.17c0,0,17.75-10.14,18.5-7.89s-5.5,26.18,10,41.66,84.5,18,96.75-2c9.85-16.06,0-36.87.25-39.4s19.25,2.25,23.25,8.72c0,0-5.5-20.54-12-28.14,0,0-21.26-23.08-52.15-27.44" transform="translate(398.6 128.96)"/><path class="cls-3" d="M68.18,61.35c-14.11,1.42-29.53,7.33-45.43,20.76C7.75,94.78,6,99.56.5,116.17c0,0,17.75-10.14,18.5-7.89s-5.5,26.18,10,41.66,84.5,18,96.75-2c9.85-16.06,0-36.87.25-39.4s19.25,2.25,23.25,8.72c0,0-5.5-20.54-12-28.14,0,0-21.26-23.08-52.15-27.44" transform="translate(398.6 128.96)"/><path class="cls-4" d="M107.88,24.55c-3.63-3.63-15.5,9.25-15.5,9.25s4.25-9-.75-14.25-12,12.25-12,12.25S74.76,20,68.38,18.55c-4.5-1-2.75,11.75-2.75,11.75s-4.33-9.16-13.25-6.75c-9.25,2.5,27,47.75,27,47.75S114.63,31.3,107.88,24.55Z" transform="translate(398.6 128.96)"/><path class="cls-3" d="M107.88,21.55c-3.63-3.63-15.5,9.25-15.5,9.25s4.25-9-.75-14.25-12,12.25-12,12.25S74.76,17,68.38,15.55c-4.5-1-2.75,11.75-2.75,11.75s-4.33-9.16-13.25-6.75c-9.25,2.5,27,47.75,27,47.75S114.63,28.3,107.88,21.55Z" transform="translate(398.6 128.96)"/><circle class="cls-5" cx="444.02" cy="190.96" r="28.25"/><ellipse class="cls-5" cx="112.24" cy="66.22" rx="23.26" ry="30.37" transform="translate(431.28 298.39) rotate(-82.91)"/><path class="cls-6" d="M80.5,27s4.25-11.25-3.75-13.5c-9.71-2.73-5.5-12.17-.25-12,7.75.25,8.75,6,5.5,7" transform="translate(398.6 128.96)"/><path class="cls-3" d="M68.25,84.25c4.75,7,8.75,14,8.75,14s6.5-9.75,10.25-14.5C84,78.25,73,74.75,68.25,84.25Z" transform="translate(398.6 128.96)"/><circle class="cls-7" cx="512.73" cy="195.58" r="16.87"/><circle class="cls-8" cx="513.35" cy="194.96" r="12"/><polyline class="cls-6" points="454.1 278.21 457.6 306.71 441.1 308.21"/><path class="cls-6" d="M97.5,148.25c-.5,1.5-6,30.5-6,30.5l14.5,1.5" transform="translate(398.6 128.96)"/><path class="cls-9" d="M68.25,86.25c4.75,7,8.75,14,8.75,14s6.5-9.75,10.25-14.5C84,80.25,73,76.75,68.25,86.25Z" transform="translate(398.6 128.96)"/><path class="cls-8" d="M61.75,62.05a16.85,16.85,0,1,1-.6-4.48A16.87,16.87,0,0,1,61.75,62.05Z" transform="translate(398.6 128.96)"/><path class="cls-2" d="M124.7,137.29c.82-.11,15-12.88,19.87-7,4,4.86-5.87,7.25-5.87,7.25s7.31,1.12,6.1,4.34c-1.44,3.85-8.49,2.7-8.49,2.7s9.33,6.59,2.64,8.46c-7.59,2.12-13.56-3.79-13.56-3.79Z" transform="translate(398.6 128.96)"/><path class="cls-3" d="M124.67,135.29c.82-.11,15-12.88,19.87-7,4,4.86-5.87,7.25-5.87,7.25s7.3,1.12,6.1,4.34c-1.44,3.85-8.49,2.7-8.49,2.7s9.33,6.59,2.64,8.46c-7.6,2.12-13.56-3.79-13.56-3.79Z" transform="translate(398.6 128.96)"/><path class="cls-2" d="M70.18,64.35c-14.11,1.42-29.53,7.33-45.43,20.76C9.75,97.78,8,102.56,2.5,119.17c0,0,17.75-10.14,18.5-7.89s-5.5,26.18,10,41.66,84.5,18,96.75-2c9.85-16.06,0-36.87.25-39.4s19.25,2.25,23.25,8.72c0,0-5.5-20.54-12-28.14,0,0-21.26-23.08-52.15-27.44" transform="translate(398.6 128.96)"/><path class="cls-3" d="M68.18,61.35c-14.11,1.42-29.53,7.33-45.43,20.76C7.75,94.78,6,99.56.5,116.17c0,0,17.75-10.14,18.5-7.89s-5.5,26.18,10,41.66,84.5,18,96.75-2c9.85-16.06,0-36.87.25-39.4s19.25,2.25,23.25,8.72c0,0-5.5-20.54-12-28.14,0,0-21.26-23.08-52.15-27.44" transform="translate(398.6 128.96)"/><path class="cls-4" d="M107.88,24.55c-3.63-3.63-15.5,9.25-15.5,9.25s4.25-9-.75-14.25-12,12.25-12,12.25S74.76,20,68.38,18.55c-4.5-1-2.75,11.75-2.75,11.75s-4.33-9.16-13.25-6.75c-9.25,2.5,27,47.75,27,47.75S114.63,31.3,107.88,24.55Z" transform="translate(398.6 128.96)"/><path class="cls-3" d="M107.88,21.55c-3.63-3.63-15.5,9.25-15.5,9.25s4.25-9-.75-14.25-12,12.25-12,12.25S74.76,17,68.38,15.55c-4.5-1-2.75,11.75-2.75,11.75s-4.33-9.16-13.25-6.75c-9.25,2.5,27,47.75,27,47.75S114.63,28.3,107.88,21.55Z" transform="translate(398.6 128.96)"/><circle class="cls-5" cx="444.02" cy="190.96" r="28.25"/><ellipse class="cls-5" cx="112.24" cy="66.22" rx="23.26" ry="30.37" transform="translate(431.28 298.39) rotate(-82.91)"/><path class="cls-9" d="M68.25,86.25c4.75,7,8.75,14,8.75,14s6.5-9.75,10.25-14.5C84,80.25,73,76.75,68.25,86.25Z" transform="translate(398.6 128.96)"/><path class="cls-3" d="M68.25,84.25c4.75,7,8.75,14,8.75,14s6.5-9.75,10.25-14.5C84,78.25,73,74.75,68.25,84.25Z" transform="translate(398.6 128.96)"/><circle class="cls-7" cx="512.73" cy="195.58" r="16.87"/><circle class="cls-8" cx="513.35" cy="194.96" r="12"/><polyline class="cls-6" points="454.1 278.21 457.6 306.71 441.1 308.21"/><path class="cls-6" d="M97.5,148.25c-.5,1.5-6,30.5-6,30.5l14.5,1.5" transform="translate(398.6 128.96)"/><path class="cls-8" d="M61.75,62.05a16.85,16.85,0,1,1-.6-4.48A16.87,16.87,0,0,1,61.75,62.05Z" transform="translate(398.6 128.96)"/></svg>