<svg id="Layer_1" data-name="Layer 1" xmlns="http://www.w3.org/2000/svg" viewBox="0 0 150.25 169.78"><defs><style>.cls-1,.cls-2{fill:#fff;}.cls-1{stroke:#545454;stroke-miterlimit:10;}.cls-2,.cls-4{stroke:#983233;stroke-linecap:round;stroke-linejoin:round;}.cls-2{stroke-width:3px;}.cls-3{fill:#c64f1a;}.cls-4{fill:none;}.cls-5{fill:#af3c47;}</style></defs><title>ChickenC_BACK_BODY</title><circle class="cls-1" cx="45.42" cy="62" r="28.25"/><ellipse class="cls-1" cx="112.24" cy="66.22" rx="23.26" ry="30.37" transform="translate(32.68 169.43) rotate(-82.91)"/><path class="cls-2" d="M80.5,27s4.25-11.25-3.75-13.5c-9.71-2.73-5.5-12.17-.25-12,7.75.25,8.75,6,5.5,7"/><path class="cls-3" d="M71.18,64.48C57.07,66,39.65,72.13,23.75,86.15,8.75,99.36,7,104.35,1.5,121.68c0,0,17.75-10.57,18.5-8.22s-12.5,27.31,3,43.47,98.5,18.79,110.75-2.06c9.85-16.76-7-38.47-6.75-41.12s19.25,2.35,23.25,9.11c0,0-5.5-21.44-12-29.37,0,0-21.26-24.09-52.15-28.64"/><path class="cls-4" d="M70.18,61.35C56.07,62.83,38.65,69,22.75,83,7.75,96.23,6,101.22.5,118.55c0,0,17.75-10.57,18.5-8.22s-12.5,27.31,3,43.46,98.5,18.8,110.75-2c9.85-16.76-7-38.48-6.75-41.12s19.25,2.35,23.25,9.11c0,0-5.5-21.44-12-29.37,0,0-21.26-24.09-52.15-28.64"/><path class="cls-4" d="M85,123.86c.81-.21,9.54-7.66,15-2.09,4.5,4.59-7,8.35-7,8.35s9.34.17,8.5,3.65c-1,4.16-10,4.18-10,4.18s9.44,5.64,3,8.35c-7.31,3.06-15.5-2.09-15.5-2.09"/><path class="cls-5" d="M108,23.75C104.37,20.13,92.5,33,92.5,33s4.25-9-.75-14.25S79.75,31,79.75,31,74.89,19.17,68.5,17.75c-4.5-1-2.75,11.75-2.75,11.75s-4.32-9.16-13.25-6.75c-9.25,2.5,27,47.75,27,47.75S114.75,30.5,108,23.75Z"/><path class="cls-4" d="M108,20.75C104.37,17.13,92.5,30,92.5,30s4.25-9-.75-14.25S79.75,28,79.75,28,74.89,16.17,68.5,14.75c-4.5-1-2.75,11.75-2.75,11.75s-4.32-9.16-13.25-6.75c-9.25,2.5,27,47.75,27,47.75S114.75,27.5,108,20.75Z"/></svg>