<svg id="Layer_1" data-name="Layer 1" xmlns="http://www.w3.org/2000/svg" viewBox="0 0 86.88 38.84"><defs><style>.cls-1{fill:#983233;}.cls-2{fill:#ff6608;}</style></defs><title>Farm</title><path class="cls-1" d="M16.27,11.86l-.14.1a.16.16,0,0,1-.1,0H13a1.12,1.12,0,0,1-.38-.19,1,1,0,0,0,0-.29,1.55,1.55,0,0,1,.05-.34.26.26,0,0,0-.05-.17.27.27,0,0,1,0-.16,8.7,8.7,0,0,0,0-.89,8.53,8.53,0,0,1,.05-.89,1.56,1.56,0,0,0-.09-.43,2,2,0,0,0-1.25-1.39,1.42,1.42,0,0,0-.48-.1c-.74,0-1.46,0-2.16,0H6.53a1.12,1.12,0,0,1,0,.27,1.83,1.83,0,0,0,0,.21c0,.45-.06.92-.1,1.4a10.74,10.74,0,0,0,0,1.39c0,.83.07,1.65.1,2.45s0,1.62,0,2.46a1.51,1.51,0,0,0,1.08-.36A1.69,1.69,0,0,0,8,13.41a1.08,1.08,0,0,0,.5-.14.59.59,0,0,1,.6,0,1.71,1.71,0,0,1,.6-.07,2.38,2.38,0,0,0,.6,0h1.2v8.61H8.11A2.77,2.77,0,0,0,8,20.94a1.79,1.79,0,0,0-.53-.75A3.5,3.5,0,0,0,7,20a3.18,3.18,0,0,0-.55-.12,10.16,10.16,0,0,1,0,1.23c0,.4,0,.81,0,1.23v12.4h2v4a9.2,9.2,0,0,1-1.11.07l-2.13,0H2.62l-2.52,0A3.64,3.64,0,0,1,0,38.08c0-.35,0-.74,0-1.16V35.66a7.39,7.39,0,0,1,.05-.95H2v-15a2,2,0,0,0-.72-.91,7.18,7.18,0,0,1-.63-.6L.05,17.5a3,3,0,0,1,.55-.67q.32-.3.6-.63c.16-.16.31-.33.46-.51A2.43,2.43,0,0,0,2,15.05V7.16a3.76,3.76,0,0,0-1,0,5.34,5.34,0,0,1-1,0v-4H16.22a8.48,8.48,0,0,1,.08,1.2c0,.64,0,1.4,0,2.28V9.32C16.32,10.28,16.3,11.13,16.27,11.86ZM3.12,7.5a1.16,1.16,0,0,1,.24-.34,1.53,1.53,0,0,0,.24-.29A1.4,1.4,0,0,0,3,6.39a.73.73,0,0,1-.46-.53.79.79,0,0,0-.6,0,3,3,0,0,1-.55.29,11.16,11.16,0,0,1,1.11.19,4.14,4.14,0,0,1,.38.34.74.74,0,0,1,.05.43C2.9,7.29,3,7.4,3.12,7.5Zm.34-3.27a.17.17,0,0,0,0-.12.22.22,0,0,1,0-.12h-1v.48a5.07,5.07,0,0,1,.45-.33C3.05,4,3.23,4.07,3.46,4.23ZM3.31,15.56l-.26.19a.56.56,0,0,0-.17.24,1,1,0,0,0-.1.43,1.36,1.36,0,0,1-.09.48,4,4,0,0,1,.6-.12c.17,0,.31-.13.41-.36V15.9A4,4,0,0,0,3.31,15.56ZM3,13.5a2.07,2.07,0,0,0,0,1.15h.28a4.07,4.07,0,0,1-.14-.58C3.09,13.88,3.06,13.69,3,13.5Zm.82-5.76a4,4,0,0,1-.46.4l-.45.36V11a1.37,1.37,0,0,0,.14.58l.05.05a.08.08,0,0,0,.07,0l.07,0s0,0,.1,0a1.69,1.69,0,0,1,.22.31c0,.05,0,.17.07.36a5.24,5.24,0,0,1,.89-.21,1.07,1.07,0,0,0,.74-.56.89.89,0,0,1,.29.1V10a4.43,4.43,0,0,1,0-.72,2,2,0,0,0-.07-.72A4,4,0,0,1,5,9L4.8,8.79A1,1,0,0,0,5,8.5,4.33,4.33,0,0,1,4.75,8a.82.82,0,0,1-.26,0,.54.54,0,0,0-.22.05,4.94,4.94,0,0,1-.12-.77A4.18,4.18,0,0,0,4,6.49a5.34,5.34,0,0,0-.12.67C3.9,7.35,3.87,7.54,3.84,7.74ZM3.07,13h0v0Zm.15,23h.09v-.24H3.22ZM4,6.3h0V6.1H4Zm.58,6.33c-.16.1-.23.19-.22.27a1,1,0,0,0,.07.21,1.79,1.79,0,0,0,.15.24,1.26,1.26,0,0,0,.19.24c0-.16-.06-.32-.1-.48Zm-.15,2.64v0ZM5.66,5.14A1.43,1.43,0,0,0,6,4.69c0-.08-.06-.23-.22-.46H5.09c-.16.13-.23.26-.19.39a1.4,1.4,0,0,1,0,.33,2.12,2.12,0,0,0,.32.17A1.65,1.65,0,0,0,5.66,5.14Zm-.52,15a0,0,0,0,0,0-.05v.1Zm1.39-3.75v0l0,.05v-.1ZM7.92,5.72V5.24a.5.5,0,0,1-.19.12.44.44,0,0,0-.19.12.44.44,0,0,0,.19.12A.5.5,0,0,1,7.92,5.72ZM10.56,18.3A5.46,5.46,0,0,0,10,18l-.65-.26c-.35-.13-.61-.1-.77.09a1.61,1.61,0,0,0,0,.72c.05.23.09.45.12.68a1.59,1.59,0,0,0,.36,0,2.38,2.38,0,0,1,.41.05.92.92,0,0,1,.24-.17L9.94,19a2,2,0,0,1,.33.19l.29.19a.43.43,0,0,1-.07-.55A.63.63,0,0,0,10.56,18.3Zm0,2.68V19.54c-.1.13-.19.25-.29.36a3,3,0,0,1-.29.32.64.64,0,0,0-.19-.08.73.73,0,0,1-.19-.07c0,.07-.06.11-.1.12a.08.08,0,0,0,0,.07.48.48,0,0,0,0,.2.17.17,0,0,1,0,.19.23.23,0,0,1-.07.17.48.48,0,0,0-.12.16Zm-1.1-4.84a2.11,2.11,0,0,0,.4-.22l.36-.22a4.58,4.58,0,0,1,.39.44,2,2,0,0,1-.12-.53c0-.16,0-.32-.07-.48q-.35-.39-.51-.36c-.11,0-.29.17-.55.45a.94.94,0,0,1,.1.39.37.37,0,0,1,0,.24A1.37,1.37,0,0,0,9.46,16.14ZM14.93,4.47V4.38h-.19v.09Zm-.1,1.63v.1a.6.6,0,0,1,.24,0s-.05,0-.05-.09S14.93,6.1,14.83,6.1Z"/><path class="cls-1" d="M15,29.77h1.54c.13-.52.26-1,.38-1.49a10.33,10.33,0,0,0,.29-1.49,9.31,9.31,0,0,1,.31-1.47,8.82,8.82,0,0,0,.32-1.42,5.34,5.34,0,0,1,.16-1c.08-.29.16-.6.22-.92s.18-.71.26-1.08.16-.73.22-1.08a2.11,2.11,0,0,1-.12-.51.84.84,0,0,0-.26-.5l-1.16-1.3.36-.34.41-.33q.19-.19.36-.39a1.49,1.49,0,0,1,.41-.33,3,3,0,0,0,1.25-2c.06-.35.13-.69.21-1s.16-.68.22-1,.14-.76.22-1.13.16-.75.26-1.13.14-.71.22-1.06.15-.71.21-1.06a1,1,0,0,0,.05-.27,1.6,1.6,0,0,1,.05-.31H19.3V3h7.53a3.14,3.14,0,0,1,.75,0,3.05,3.05,0,0,0,.74,0,4,4,0,0,1,.77,0l.77,0V7.11H27.74c0,.16.06.31.08.44s0,.27.07.43A10.7,10.7,0,0,0,28.13,9q.14.53.24,1.05t.21,1.11c.08.39.16.75.22,1.11s.14.72.22,1.1.15.76.21,1.11a2.54,2.54,0,0,0,.51,1,7.62,7.62,0,0,0,.79.82l.67.57.72.63a6,6,0,0,0-.53.6,5.4,5.4,0,0,1-.48.55,1.38,1.38,0,0,0-.33.53c-.07.2-.13.39-.2.58a1.81,1.81,0,0,0,.05.43c0,.13.07.28.1.44s.13.57.19.84.13.54.19.79l.29,1.44c.06.33.13.64.19.94s.13.6.19.89.18.69.24,1,.13.66.2,1,.12.64.19.94.13.6.19.89a1.65,1.65,0,0,0,.1.34h1.39a4.46,4.46,0,0,1,.07,1c0,.33,0,.67,0,1a6.41,6.41,0,0,1,0,1c0,.3,0,.63,0,1a6.21,6.21,0,0,1-1,.07l-1.89,0q-1.11,0-2.4,0l-2.55,0a5.29,5.29,0,0,1-.07-.71c0-.35,0-.73,0-1.14V30.76a8.86,8.86,0,0,1,0-1h2.07a2.64,2.64,0,0,1,0-.29.41.41,0,0,0,0-.25c-.16-.74-.31-1.49-.46-2.25s-.29-1.51-.45-2.25H21.46a.53.53,0,0,0-.22.48,1.2,1.2,0,0,1-.07.54,11.36,11.36,0,0,0-.24,1.16c-.07.39-.13.79-.19,1.21,0,.16-.07.33-.1.51a4.58,4.58,0,0,1-.14.56.36.36,0,0,0,0,.24.57.57,0,0,1,0,.29,3.89,3.89,0,0,0,1,.07,7,7,0,0,1,1,0l.12.11a.15.15,0,0,1,0,.17.74.74,0,0,0,0,.43,1.79,1.79,0,0,1,0,.42.93.93,0,0,1,0,.57,1.09,1.09,0,0,0,0,.62,1.31,1.31,0,0,1,.05.59,4.48,4.48,0,0,0-.05.64,2.31,2.31,0,0,1-.1.48H15Zm3.17-.63h-.43a4.94,4.94,0,0,0-.19.63,1.23,1.23,0,0,0,.55-.07A1.14,1.14,0,0,0,18.19,29.14Zm-.53,1.59a1.2,1.2,0,0,1,.05.43,1.73,1.73,0,0,0,.51-.05q.12,0,.12-.24a.31.31,0,0,0-.08-.19l-.12-.19a1.34,1.34,0,0,1-.26.14ZM18.48,27l.1.1s.08,0,.14-.1Zm2.59-3.36c0-.35-.05-.68-.07-1s0-.62-.07-.94a4.25,4.25,0,0,0-.12.84,5.14,5.14,0,0,1-.12.8l-.48.26a.7.7,0,0,0-.34.46,4.35,4.35,0,0,0-.72,0,5.49,5.49,0,0,0,.15.53.91.91,0,0,0-.24.15,2.77,2.77,0,0,0,.33.38.49.49,0,0,0-.41,0,1.42,1.42,0,0,1-.36.14v.24l.72.44a2.21,2.21,0,0,0-.19.72,4.43,4.43,0,0,1,.77.09L20,27q.09-.66.24-1.32t.24-1.32a4.26,4.26,0,0,0,.52-.52,1.72,1.72,0,0,0,.34,0l.29,0q0-.11,0-.12a.29.29,0,0,1,0-.12.91.91,0,0,1-.26,0A.93.93,0,0,0,21.07,23.62ZM19.73,23l.14,0a.19.19,0,0,0,.1,0c.09-.1.18-.19.26-.29l.27-.34a2.28,2.28,0,0,0-.56-.4,6.36,6.36,0,0,0-.64-.32c-.07.26-.14.51-.22.75a1.69,1.69,0,0,0-.07.74q.24.15.36,0A.62.62,0,0,1,19.73,23Zm-.24,6.81c0-.19.05-.35.07-.48a2.82,2.82,0,0,0,0-.43.92.92,0,0,0-.28,0c-.1,0-.2.09-.29.25v.57a.68.68,0,0,0,.24.07Zm0-11a3.37,3.37,0,0,1,.05.52,3.4,3.4,0,0,0,0,.53.66.66,0,0,1,.72,0l-.14-.86a.46.46,0,0,0-.36-.17Zm1.1,12.72a4.14,4.14,0,0,1-.38-.34l-.29.17a.74.74,0,0,0-.24.17v.67a.5.5,0,0,0,.19.12.31.31,0,0,1,.19.12,3.09,3.09,0,0,1,.29-.17.74.74,0,0,0,.24-.17Zm-.24-15.6-.43.43c.13.32.34.41.62.29s.28-.29.15-.58A2.75,2.75,0,0,0,20.35,15.9ZM21,31.11h-.1l.05.05A0,0,0,0,0,21,31.11ZM21.22,16h0v.82c.16.12.26.18.31.16a1.11,1.11,0,0,0,.31-.26l-.53-.34A1.34,1.34,0,0,0,21.22,16Zm5.37,5.09q-.57-3-1.08-6c-.33-2-.71-4-1.13-6-.06.35-.12.7-.19,1a8.68,8.68,0,0,0-.14.89,6.36,6.36,0,0,1-.15.89,9.35,9.35,0,0,0-.28,1.25c-.07.41-.15.85-.24,1.29-.07.29-.12.57-.17.84s-.09.56-.12.84a5,5,0,0,1-.17.8c-.08.27-.15.53-.22.79-.06.41-.12.81-.16,1.2a6,6,0,0,1-.27,1.15,1.43,1.43,0,0,0-.09.5v.51Zm-4,2.59,0,0-.05,0,.05.05ZM26.35,5.43l-.05.05s.05,0,.05,0l0,0Zm.82-.91h-.05V5h.05Zm.29,6.05-.1-.1a.14.14,0,0,1-.1,0l.08,0S27.39,10.57,27.46,10.57Zm.24,13.25s-.05,0-.05,0h.05ZM28.22,4a2.77,2.77,0,0,0-.33.38,1.32,1.32,0,0,0,.38.34c.16-.16.24-.27.24-.34S28.42,4.23,28.22,4Zm-.09,28.18v0h-.19v.09S28,32.22,28.13,32.22Zm.09-15.94,0,0v.05l0-.05Zm.29,1.15c-.25.16-.32.34-.19.53h.43A.36.36,0,0,0,28.51,17.43Zm.34,2.5a.43.43,0,0,0,.33-.15.39.39,0,0,0,.15-.28.3.3,0,0,0-.34-.34.43.43,0,0,0-.29.17,1,1,0,0,0-.19.31C28.51,19.9,28.62,20,28.85,19.93Zm.38,1.53c.07-.16.12-.3.17-.43a3.17,3.17,0,0,1,.17-.38l-.29-.29-.07.12a.54.54,0,0,0-.07.12s-.06-.05-.08-.05A.11.11,0,0,1,29,20.5a2.26,2.26,0,0,0-.33.39c0,.22,0,.35.09.38A1.13,1.13,0,0,0,29.23,21.46ZM28.75,4.71v0H28.7S28.72,4.71,28.75,4.71Zm.1,11.43s0,0-.05,0h.1Zm.72,16.38a3.22,3.22,0,0,1-.58,0,.28.28,0,0,0-.09.17.41.41,0,0,1,0,.17h.72Zm-.53-5c.06.22.13.34.19.34a1.45,1.45,0,0,0,.29,0A3.37,3.37,0,0,1,29,27.56Zm.34-9.89a3,3,0,0,0-.24.43,1.1,1.1,0,0,0,.26,0,1.1,1.1,0,0,1,.26,0,.81.81,0,0,1-.14-.2A1,1,0,0,0,29.38,17.67Zm.19,6.82h-.1l.05.05A0,0,0,0,0,29.57,24.49Zm.19.62a.87.87,0,0,0-.17.79,5,5,0,0,1,.17.8.83.83,0,0,1,.58,0,.48.48,0,0,0,.52-.15c-.09-.48-.19-.91-.28-1.29a.41.41,0,0,0-.39-.15A1,1,0,0,1,29.76,25.11Zm-.1-7.82a0,0,0,0,1,.05-.05l-.05,0,0,0S29.63,17.29,29.66,17.29Zm.44,13.2a.12.12,0,0,1-.05-.1.3.3,0,0,1-.1.07.32.32,0,0,0-.09.08.12.12,0,0,1,0,.09l.1-.07Zm1.58.08a3.48,3.48,0,0,1,.05.63,1.63,1.63,0,0,1,.41-.05,1.63,1.63,0,0,0,.36,0,1.62,1.62,0,0,0,.31-.1.89.89,0,0,0,.31-.28h-.91l-.58-.57c-.09-.42-.18-.82-.26-1.2s-.17-.79-.27-1.2l-.19-.1-.19-.1s-.06,0-.1,0a.11.11,0,0,1-.09.05c0,.07,0,.13.07.19a1.59,1.59,0,0,0,.07.2l-.14.16a.73.73,0,0,1-.15.17,2,2,0,0,1,.29.34,5.5,5.5,0,0,0-.6.12c-.05,0-.1.09-.17.21l.39.29.38.29c-.06.13-.11.23-.14.31s-.07.17-.1.27a.52.52,0,0,1,.34.12c.09.08.22.05.38-.08a2.21,2.21,0,0,0,.15.38Zm-.43,2.33q.13-.24,0-.36a3.58,3.58,0,0,1-.29-.27h-.38a1.27,1.27,0,0,0-.27.25.34.34,0,0,0,0,.38Zm-.91-15.47s0-.05,0-.05l0,0Zm1.82,14.42h.05v-.33h-.05Zm.67.82c.23-.16.28-.32.17-.48a.69.69,0,0,1-.12-.52l-.38.24a.43.43,0,0,1,.14.4A.32.32,0,0,0,32.83,32.67Z"/><path class="cls-1" d="M48.05,17.82l.36.16.31.12a3.21,3.21,0,0,1,1.06.39,5.75,5.75,0,0,1,.91.67,2.28,2.28,0,0,1,.5.72,8.74,8.74,0,0,1,.31.82,2.13,2.13,0,0,1,.1.64,3.63,3.63,0,0,0,0,.65,6,6,0,0,1,.09,1c0,.32,0,.66,0,1a1.18,1.18,0,0,1-.07.43.69.69,0,0,0,0,.43,1.58,1.58,0,0,1,0,.87,5.58,5.58,0,0,1,0,.72,4.07,4.07,0,0,0-.05.72v2.47c0,.62,0,1.29,0,2s0,1.39,0,2,0,1,0,1.05h2v4.08H50.26a2.81,2.81,0,0,1-2.12-.86,2.58,2.58,0,0,1-.72-1.83V28.71c0-1.12,0-2.22,0-3.31s0-2.19,0-3.31a2.82,2.82,0,0,0-.62-1.68,1.22,1.22,0,0,0-.5-.36l-.65-.22a5.62,5.62,0,0,0-1.73-.12,10.11,10.11,0,0,1-1.82,0v3.69a5,5,0,0,0,0,.53.82.82,0,0,1-.12.53v.19a.72.72,0,0,1,.12.48,3.85,3.85,0,0,0,0,.48v9.07h1.82a4.63,4.63,0,0,1,.07,1c0,.33,0,.68,0,1v2a12.72,12.72,0,0,1-1.37.07l-2.57,0H37.34a15.13,15.13,0,0,1-1.68,0v-4h2V20.53a2.5,2.5,0,0,0-.77-1.83l-.6-.6c-.2-.21-.42-.44-.64-.7l.72-.72a4.91,4.91,0,0,0,1-1.37,5,5,0,0,0,.26-1.85c0-.93,0-1.88,0-2.84s0-1.92,0-2.88V7.11h-2v-4A1.79,1.79,0,0,1,36.14,3h8.07c.44,0,.9,0,1.37.07l1.36.17c.32.07.63.14.91.22l.87.26a3.89,3.89,0,0,1,1.56,1.11,5.49,5.49,0,0,1,.94,1.68,4.37,4.37,0,0,1,.31,1.15c0,.38.08.78.12,1.2s.11.91.14,1.39a6.94,6.94,0,0,1,0,1.44c-.06.58-.1,1.16-.12,1.75a4.89,4.89,0,0,1-.36,1.75,4.66,4.66,0,0,1-.76,1.28,3.21,3.21,0,0,1-1.25.84c-.19.06-.39.13-.58.21Zm-5.86-2.16c.48,0,1,0,1.47,0a14.18,14.18,0,0,0,1.46,0,3.42,3.42,0,0,0,1.13-.29A1.7,1.7,0,0,0,47,14.5a3.57,3.57,0,0,0,.34-1.39c0-.45,0-.89,0-1.32V10.47c0-.32,0-.62,0-.91a6.14,6.14,0,0,0-.12-.86A2.31,2.31,0,0,0,47,8a1.54,1.54,0,0,0-.6-.53A2.76,2.76,0,0,0,45,7.11c-.41,0-.81-.05-1.2-.05H42.1v7.35a1,1,0,0,0,0,.29.21.21,0,0,1,0,.24.42.42,0,0,0-.08.38C42.07,15.42,42.13,15.53,42.19,15.66Zm1.2,1.82h0v.05h0Zm1.83-.77v.05h.19a.19.19,0,0,0,0-.1A.2.2,0,0,0,45.22,16.71Zm3.12,5.09a.62.62,0,0,0,0,.19,1.15,1.15,0,0,1,0,.29c.1-.26.08-.42,0-.48v-.31a.57.57,0,0,0-.1-.31.63.63,0,0,1,0,.36C48.17,21.65,48.21,21.74,48.34,21.8Zm0,3.89c0,.35,0,1,0,1.82s0,1.79,0,2.76,0,1.91,0,2.79a7.83,7.83,0,0,0,.17,1.8,3,3,0,0,1,1-.22.94.94,0,0,0,.77-.55.39.39,0,0,0,.14,0,.33.33,0,0,1,.14,0l.29-.14V26.5a1,1,0,0,0-.24-.07.84.84,0,0,1-.24-.07,1,1,0,0,0-.14.17,1,1,0,0,1-.15.17.67.67,0,0,1-.28-.05l.14-.43c0-.07-.07-.14-.1-.22a1.34,1.34,0,0,0-.14-.26l-.19.07a.62.62,0,0,0-.19.07c-.16-.06-.21-.15-.15-.26a.33.33,0,0,0,0-.36.31.31,0,0,1,0-.29.49.49,0,0,0,0-.34,2,2,0,0,1,0-.36,1,1,0,0,0-.07-.41c-.07.36-.12.67-.17.94s-.11.55-.17.84l-.19,0Zm0-.77a3.39,3.39,0,0,1,.28-.34l-.14-.16-.14-.22Zm.57,10.56H49v-.24h-.05Zm.82.82a.42.42,0,0,0,0-.41.69.69,0,0,1-.12-.41l-.16,0a.47.47,0,0,1-.17,0,.34.34,0,0,1,.17.41C49.37,36.11,49.47,36.23,49.73,36.3Zm.09-13.59a5.1,5.1,0,0,1,.48.29,4,4,0,0,0,.53-.29v-.57c-.13-.16-.25-.23-.36-.2a.55.55,0,0,1-.36,0A.64.64,0,0,0,49.82,22.71ZM50.3,7.26l-.09.09a.12.12,0,0,0,0,.07.1.1,0,0,1,0,.08A.61.61,0,0,0,50.3,7.26Zm.39,18.57s0,0,0,0v.1A0,0,0,0,0,50.69,25.83Zm1.82,10.56.05,0c-.07,0-.1,0-.12,0s-.06,0-.12,0v.09Z"/><path class="cls-1" d="M75.65,34.71h2.11v2.74a2.51,2.51,0,0,0,0,.67,1.21,1.21,0,0,1-.1.67h-8a6.39,6.39,0,0,1,0-1c0-.34,0-.68,0-1a6.49,6.49,0,0,1,0-1c0-.33,0-.68,0-1l.29,0,.24,0h1.3l.17,0a.27.27,0,0,1,.12,0c0-.22,0-.7.07-1.44s0-1.52,0-2.37V27c0-.45,0-.89,0-1.32a11.7,11.7,0,0,1,0-1.32c0-.45,0-.88-.05-1.29a6.37,6.37,0,0,1,.05-1.3,4.3,4.3,0,0,0,0-1.34,10.2,10.2,0,0,1-.09-1.35,11.74,11.74,0,0,1,0-1.32q0-.64,0-1.32v-8h-.1c-.06.36-.14.7-.22,1s-.15.68-.21,1-.24.9-.34,1.37-.21.92-.33,1.36-.19.89-.27,1.32-.17.88-.26,1.32-.2.92-.31,1.4-.22.94-.32,1.39-.25,1.14-.38,1.7-.24,1.13-.34,1.71c-.06.32-.12.63-.19.93s-.13.62-.19.94-.18.77-.26,1.15-.17.77-.27,1.15-.13.69-.21,1-.17.66-.27,1l-.14.72H65.37q-1.05-5.19-2.11-10.3T61.15,8.46h0V34.71a6.33,6.33,0,0,0,.87,0q.42,0,1,0l.09.19a.49.49,0,0,1,0,.2v3.36a.49.49,0,0,1,0,.19l-.09.19H55.44c0-.35,0-.69,0-1V34.76a4,4,0,0,1,1,0,5.9,5.9,0,0,0,1,0v-.89c0-.56,0-1.16,0-1.82s0-1.26,0-1.82V20.36a2,2,0,0,0-.67-1.54c-.22-.22-.43-.44-.62-.67s-.42-.46-.68-.72a.4.4,0,0,0,.1-.12,1.53,1.53,0,0,1,.14-.17l.58-.64.63-.7a2.24,2.24,0,0,0,.52-1.49V7.16H55.44V3.08A7.81,7.81,0,0,1,56.61,3h4.71c.81,0,1.45,0,1.89.05q.87,4.08,1.69,8.14t1.67,8.13c.1-.41.2-.83.29-1.25s.2-.83.29-1.24.18-1,.26-1.42.17-.92.27-1.37.3-1.1.43-1.68.26-1.13.38-1.68.3-1.35.41-2,.25-1.37.41-2,.21-1.06.34-1.56a14.91,14.91,0,0,0,.29-1.51c0-.1.06-.18.09-.26l.1-.27h7.44c.12.13.19.21.19.24V7.11H75.65v7.11A2.39,2.39,0,0,0,76.32,16a6.23,6.23,0,0,1,.67.7c.19.24.4.49.62.74a.43.43,0,0,1-.12.34,2.93,2.93,0,0,1-.26.19A6.89,6.89,0,0,0,76,19.26a1.81,1.81,0,0,0-.33,1ZM57.12,17.82a1.22,1.22,0,0,0,.09-.32,1.31,1.31,0,0,0-.09-.31ZM58,16.23a4.33,4.33,0,0,1,.53,0,.39.39,0,0,0,.38-.22v-.67l-.26-.1-.27-.09c-.09.16-.18.32-.26.48A1.26,1.26,0,0,0,58,16.23Zm1.73,5c0-.16.09-.24.26-.24s.23-.06.17-.19a4.05,4.05,0,0,1-.31-.43.51.51,0,0,0-.31-.24,1,1,0,0,1-.36-.24.81.81,0,0,0-.36-.24l-.24,0-.24,0v2.59a.26.26,0,0,0,.16.09.41.41,0,0,1,.17,0,1.94,1.94,0,0,0,.29-.21l.34-.27a1.65,1.65,0,0,0,.09.48l.15,0a.26.26,0,0,1,.14,0,1,1,0,0,1-.12-.14,1,1,0,0,0-.12-.14c.19-.13.33-.14.41,0l.26.36a1.84,1.84,0,0,0,0-.67A1.05,1.05,0,0,0,59.76,21.27ZM58.41,9.66V9.61l.05.05Zm.34,9.4v.05h0A0,0,0,0,0,58.75,19.06ZM59,24.87l0,.05a0,0,0,0,1,0,0l.05,0Zm.72-3.6v.29C59.57,21.43,59.57,21.34,59.76,21.27Zm.38-6.77v-.76c-.25,0-.38.16-.38.38A.33.33,0,0,0,60.14,14.5Zm-.29,5.57a.63.63,0,0,0,.29.29v-.58l-.14.15ZM69.26,15s-.05,0-.05,0V15S69.26,15,69.26,15ZM70.8,8.41l-.36.07-.22.07c-.09,0-.14.07-.14.19s0,.26.14.29a.21.21,0,0,0,.15.05.49.49,0,0,1,.19.05Zm-.43-1.54a1.75,1.75,0,0,1-.22.39.34.34,0,0,0,0,.38.94.94,0,0,0,.45-.12,1,1,0,0,0,.12-.46A1.69,1.69,0,0,1,70.37,6.87Zm.19,29.38h-.1a1.48,1.48,0,0,1,.05.43h0Zm0,1.53v.1h.19v-.1ZM71.09,5s0,0,0,0l0,0,0,0S71.05,5,71.09,5Zm.28,31-.14.58.24.16.19.17c.45-.19.66-.4.63-.62a1,1,0,0,1-.15-.17L72.05,36ZM76.8,4.57a1,1,0,0,0-.17-.07l-.17-.08a.45.45,0,0,1-.12-.21A.37.37,0,0,0,76.22,4H71.9a3.12,3.12,0,0,0-.33.43l.38.24h.38a.86.86,0,0,0,0,.34l.19-.1c.2.07.28.16.27.29a.5.5,0,0,0,.12.39l1.44-.44a.41.41,0,0,0,0-.19.43.43,0,0,1,0-.19,2.26,2.26,0,0,1,.53.1c.07-.1.19-.28.39-.53q.18.24.36.09a.33.33,0,0,1,.4,0q.1.24.24.48a5.25,5.25,0,0,1,.29.53s0,.07-.09.12,0,.09.19.12ZM71.57,6.78v0h.57v0Zm1.2,3.45A2.48,2.48,0,0,1,73,10c.06-.08.13-.15.19-.22S73,9.5,73,9.39A2.26,2.26,0,0,1,72.77,9Zm0,3.79v.1s0,0,0-.1Zm0,4.76q.44-.06.33-.48c0-.26-.11-.36-.33-.29Zm.62,5h-.1q0,.24-.09.45c0,.15-.07.3-.1.46a1.15,1.15,0,0,1-.33.91v9.12c.16,0,.32-.33.5-.89s.34-1.17.5-1.85.31-1.31.44-1.92A4.8,4.8,0,0,1,74.54,29a.43.43,0,0,0,.15.05.14.14,0,0,1,.09.05,11.34,11.34,0,0,0,.07-1.75,4.83,4.83,0,0,0-.07-1c-.16-.06-.25,0-.29.07a.29.29,0,0,1-.24.22.67.67,0,0,1-.23-.1.61.61,0,0,0,0-.86h-.24a.72.72,0,0,1-.24.14,3.09,3.09,0,0,1-.08-.33,2.83,2.83,0,0,1,0-.29V23.82Zm-.58.67h0s0,.05,0,.05Zm.29-3H73v.34h0A1.18,1.18,0,0,0,73.1,21.46Zm.05,13.92h0v-.24h0ZM73.29,6v.1l0,0S73.33,6,73.29,6Zm.34,12a.53.53,0,0,0-.24.38,1.16,1.16,0,0,0,0,.34.46.46,0,0,0,.07.26.92.92,0,0,0,.17.22c.29,0,.45-.08.48-.34-.1-.06-.27-.19-.53-.38ZM74,36.15a.34.34,0,0,0,0-.41.52.52,0,0,1-.1-.45,1.72,1.72,0,0,1-.34.24.41.41,0,0,1,.12.38C73.64,36.07,73.74,36.15,74,36.15Zm-.34,1.68s0,0,0,0v.1ZM73.92,7a1.5,1.5,0,0,0,0-.82.72.72,0,0,0-.34.1ZM73.73,8.6l0,.05h.09S73.73,8.63,73.73,8.6Zm.67,14.3a.46.46,0,0,1,.21,0,.51.51,0,0,0,.22-.05,1.29,1.29,0,0,1,0-.48.8.8,0,0,0,0-.48.55.55,0,0,0-.72.33.86.86,0,0,0,0,.34A2.86,2.86,0,0,0,74.4,22.9Zm-.05-7.58v.1h.05A.14.14,0,0,0,74.35,15.32Zm.14-7.92.05-.05s0,0-.05,0h0s0,0,0,0S74.49,7.37,74.49,7.4Zm.05,28.18.24.67a1.88,1.88,0,0,0,0-.41A.92.92,0,0,0,74.54,35.58Zm.1-14.12a0,0,0,0,0,0,.05h0Zm1-16.89q0,.44.24.24Zm1,31.73v0l0,0Z"/><path class="cls-1" d="M79.63,17.38A14.83,14.83,0,0,1,80.83,16a2.24,2.24,0,0,0,.62-1.58,7.75,7.75,0,0,1,0-1.18,4.21,4.21,0,0,0,0-1.13,14.86,14.86,0,0,1-.08-1.87,12.26,12.26,0,0,0-.07-1.82,6.23,6.23,0,0,1-.05-1.28,5.48,5.48,0,0,0,0-1.27,8.41,8.41,0,0,1-.12-1.2q0-.57,0-1.2V3.13a4.5,4.5,0,0,1,.79-.07c.4,0,.84,0,1.3,0h1.34a7.88,7.88,0,0,1,1,.05,5.69,5.69,0,0,0,0,1.37,3.53,3.53,0,0,1-.12,1.37.37.37,0,0,0,0,.24.54.54,0,0,1,0,.28c0,.84,0,1.67,0,2.5s0,1.66-.1,2.5a11.76,11.76,0,0,0,0,1.87,13.1,13.1,0,0,1,0,1.87,4.91,4.91,0,0,0,.84,1.22l1,1.13a4.69,4.69,0,0,1-.63.7c-.22.21-.46.42-.72.65a2.5,2.5,0,0,0-.5.57,1.19,1.19,0,0,0-.17.77v.53a8.27,8.27,0,0,0,0,.86c0,.29,0,.59,0,.91a.8.8,0,0,0,.48,0,1.29,1.29,0,0,1,.48,0,3.71,3.71,0,0,1,.07.65c0,.34,0,.71,0,1.13V25.5a8,8,0,0,1,0,1.05H80.69v-4a1.68,1.68,0,0,1,.48-.05h.48a5.13,5.13,0,0,0,0-1,2.22,2.22,0,0,1-.1-.67v-.72A1.55,1.55,0,0,0,81,18.87,11.34,11.34,0,0,1,79.63,17.38Zm5.76,14.45a1.21,1.21,0,0,0,0,.43,1,1,0,0,1-.08.48,2.21,2.21,0,0,1-2,1.68,1.5,1.5,0,0,1-.63,0,1.14,1.14,0,0,1-.57-.31,3,3,0,0,1-1-1.54,3.25,3.25,0,0,1,0-1.75A2.61,2.61,0,0,1,82,29.34a2.13,2.13,0,0,1,1.25-.41,1.63,1.63,0,0,1,1.25.5,4,4,0,0,1,.67.94A2.62,2.62,0,0,1,85.39,31.83Zm-3-13.29v.09l0-.05S82.45,18.54,82.41,18.54Zm.29,1.05a.36.36,0,0,0-.09.53c0,.06.06.1.19.1a.32.32,0,0,0,.19-.48Zm.15,3.17h0v0h0Zm.09-1.39h0l0-.05,0,.05Zm0-14.59v.09l0,0S83,6.78,82.94,6.78ZM83.09,16h0v.43h0Zm0,6.86a1,1,0,0,0,.38.2,1.18,1.18,0,0,0,.43-.24,3.88,3.88,0,0,1-.38-.34A4.19,4.19,0,0,1,83.09,22.9Zm.24,7a.14.14,0,0,1,0,.1.77.77,0,0,1,.19.14l.1-.09a.44.44,0,0,1-.12-.07Zm0,1.78s0,.05,0,.05S83.37,31.67,83.37,31.64ZM83.9,5V4.9h-.19V5Zm.58,26.16a.42.42,0,0,1,0-.12.42.42,0,0,0-.05-.12.69.69,0,0,1-.29,0q0,.24.12.24A1,1,0,0,0,84.48,31.16Zm-.34,1.58s0,0,0,0h0l0,0Zm.67-7s.08,0,.15-.1V24.44a.51.51,0,0,0-.22.29,1.4,1.4,0,0,0,0,.29c0,.09,0,.18.05.26a.47.47,0,0,1,0,.26s0,.06,0,.08A.07.07,0,0,1,84.81,25.69Zm.53-8.4,0-.05a0,0,0,0,1,0,0l0,0A0,0,0,0,0,85.34,17.29Z"/><path class="cls-2" d="M16.27,8.86l-.14.1A.16.16,0,0,1,16,9H13a1.12,1.12,0,0,1-.38-.19,1,1,0,0,0,0-.29,1.55,1.55,0,0,1,.05-.34A.26.26,0,0,0,12.62,8a.27.27,0,0,1,0-.16,8.7,8.7,0,0,0,0-.89,8.53,8.53,0,0,1,.05-.89,1.56,1.56,0,0,0-.09-.43,2,2,0,0,0-1.25-1.39,1.42,1.42,0,0,0-.48-.1c-.74,0-1.46,0-2.16,0H6.53a1.12,1.12,0,0,1,0,.27,1.83,1.83,0,0,0,0,.21c0,.45-.06.92-.1,1.4a10.74,10.74,0,0,0,0,1.39c0,.83.07,1.65.1,2.45s0,1.62,0,2.46a1.51,1.51,0,0,0,1.08-.36A1.69,1.69,0,0,0,8,10.41a1.08,1.08,0,0,0,.5-.14.59.59,0,0,1,.6,0,1.71,1.71,0,0,1,.6-.07,2.38,2.38,0,0,0,.6,0h1.2v8.61H8.11A2.77,2.77,0,0,0,8,17.94a1.79,1.79,0,0,0-.53-.75A3.5,3.5,0,0,0,7,17a3.18,3.18,0,0,0-.55-.12,10.16,10.16,0,0,1,0,1.23c0,.4,0,.81,0,1.23v12.4h2v4a9.2,9.2,0,0,1-1.11.07l-2.13,0H2.62l-2.52,0A3.64,3.64,0,0,1,0,35.08c0-.35,0-.74,0-1.16V32.66a7.39,7.39,0,0,1,.05-.95H2v-15a2,2,0,0,0-.72-.91,7.18,7.18,0,0,1-.63-.6L.05,14.5a3,3,0,0,1,.55-.67q.32-.3.6-.63c.16-.16.31-.33.46-.51A2.43,2.43,0,0,0,2,12.05V4.16a3.76,3.76,0,0,0-1,0,5.34,5.34,0,0,1-1,0v-4H16.22a8.48,8.48,0,0,1,.08,1.2c0,.64,0,1.4,0,2.28V6.32C16.32,7.28,16.3,8.13,16.27,8.86ZM3.12,4.5a1.16,1.16,0,0,1,.24-.34,1.53,1.53,0,0,0,.24-.29A1.4,1.4,0,0,0,3,3.39a.73.73,0,0,1-.46-.53.79.79,0,0,0-.6.05,3,3,0,0,1-.55.29,11.16,11.16,0,0,1,1.11.19,4.14,4.14,0,0,1,.38.34.74.74,0,0,1,.05.43C2.9,4.29,3,4.4,3.12,4.5Zm.34-3.27a.17.17,0,0,0,0-.12.22.22,0,0,1,0-.12h-1v.48a5.07,5.07,0,0,1,.45-.33C3.05,1,3.23,1.07,3.46,1.23ZM3.31,12.56l-.26.19a.56.56,0,0,0-.17.24,1,1,0,0,0-.1.43,1.36,1.36,0,0,1-.09.48,4,4,0,0,1,.6-.12c.17,0,.31-.13.41-.36V12.9A4,4,0,0,0,3.31,12.56ZM3,10.5a2.07,2.07,0,0,0,0,1.15h.28a4.07,4.07,0,0,1-.14-.58C3.09,10.88,3.06,10.69,3,10.5Zm.82-5.76a4,4,0,0,1-.46.4l-.45.36V8a1.37,1.37,0,0,0,.14.58l.05.05a.08.08,0,0,0,.07,0l.07,0s0,0,.1,0a1.69,1.69,0,0,1,.22.31c0,.05,0,.17.07.36a5.24,5.24,0,0,1,.89-.21,1.07,1.07,0,0,0,.74-.56.89.89,0,0,1,.29.1V7a4.43,4.43,0,0,1,0-.72,2,2,0,0,0-.07-.72A4,4,0,0,1,5,6L4.8,5.79A1,1,0,0,0,5,5.5,4.33,4.33,0,0,1,4.75,5a.82.82,0,0,1-.26,0,.54.54,0,0,0-.22.05,4.94,4.94,0,0,1-.12-.77A4.18,4.18,0,0,0,4,3.49a5.34,5.34,0,0,0-.12.67C3.9,4.35,3.87,4.54,3.84,4.74ZM3.07,10h0v0Zm.15,23h.09v-.24H3.22ZM4,3.3h0V3.1H4Zm.58,6.33c-.16.1-.23.19-.22.27a1,1,0,0,0,.07.21,1.79,1.79,0,0,0,.15.24,1.26,1.26,0,0,0,.19.24c0-.16-.06-.32-.1-.48Zm-.15,2.64v0ZM5.66,2.14A1.43,1.43,0,0,0,6,1.69c0-.08-.06-.23-.22-.46H5.09c-.16.13-.23.26-.19.39a1.4,1.4,0,0,1,0,.33,2.12,2.12,0,0,0,.32.17A1.65,1.65,0,0,0,5.66,2.14Zm-.52,15a0,0,0,0,0,0-.05v.1Zm1.39-3.75v.05l0,0v-.1ZM7.92,2.72V2.24a.5.5,0,0,1-.19.12.44.44,0,0,0-.19.12.44.44,0,0,0,.19.12A.5.5,0,0,1,7.92,2.72ZM10.56,15.3A5.46,5.46,0,0,0,10,15l-.65-.26c-.35-.13-.61-.1-.77.09a1.61,1.61,0,0,0,0,.72c.05.23.09.45.12.68a1.59,1.59,0,0,0,.36,0,2.38,2.38,0,0,1,.41.05.92.92,0,0,1,.24-.17L9.94,16a2,2,0,0,1,.33.19l.29.19a.43.43,0,0,1-.07-.55A.63.63,0,0,0,10.56,15.3Zm0,2.68V16.54c-.1.13-.19.25-.29.36a3,3,0,0,1-.29.32.64.64,0,0,0-.19-.08.73.73,0,0,1-.19-.07c0,.07-.06.11-.1.12a.08.08,0,0,0,0,.07.48.48,0,0,0,0,.2.17.17,0,0,1,0,.19.23.23,0,0,1-.07.17.48.48,0,0,0-.12.16Zm-1.1-4.84a2.11,2.11,0,0,0,.4-.22l.36-.22a4.58,4.58,0,0,1,.39.44,2,2,0,0,1-.12-.53c0-.16,0-.32-.07-.48q-.35-.39-.51-.36c-.11,0-.29.17-.55.45a.94.94,0,0,1,.1.39.37.37,0,0,1,0,.24A1.37,1.37,0,0,0,9.46,13.14ZM14.93,1.47V1.38h-.19v.09Zm-.1,1.63v.1a.6.6,0,0,1,.24-.05s-.05,0-.05-.09S14.93,3.1,14.83,3.1Z"/><path class="cls-2" d="M15,26.77h1.54c.13-.52.26-1,.38-1.49a10.33,10.33,0,0,0,.29-1.49,9.31,9.31,0,0,1,.31-1.47,8.82,8.82,0,0,0,.32-1.42,5.34,5.34,0,0,1,.16-1c.08-.29.16-.6.22-.92s.18-.71.26-1.08.16-.73.22-1.08a2.11,2.11,0,0,1-.12-.51.84.84,0,0,0-.26-.5l-1.16-1.3.36-.34.41-.33q.19-.2.36-.39a1.49,1.49,0,0,1,.41-.33,3,3,0,0,0,1.25-2c.06-.35.13-.69.21-1s.16-.68.22-1,.14-.76.22-1.13.16-.75.26-1.13.14-.71.22-1.06.15-.71.21-1.06a1,1,0,0,0,.05-.27,1.6,1.6,0,0,1,.05-.31H19.3V0h7.53a3.14,3.14,0,0,1,.75,0,3.05,3.05,0,0,0,.74,0,4,4,0,0,1,.77,0l.77,0V4.11H27.74c0,.16.06.31.08.44s0,.27.07.43A10.7,10.7,0,0,0,28.13,6q.14.52.24,1t.21,1.11c.08.39.16.75.22,1.11s.14.72.22,1.1.15.76.21,1.11a2.54,2.54,0,0,0,.51,1,7.62,7.62,0,0,0,.79.82l.67.57.72.63a6,6,0,0,0-.53.6,5.4,5.4,0,0,1-.48.55,1.38,1.38,0,0,0-.33.53c-.07.2-.13.39-.2.58a1.81,1.81,0,0,0,.05.43c0,.13.07.28.1.44s.13.57.19.84.13.54.19.79l.29,1.44c.06.33.13.64.19.94s.13.6.19.89.18.69.24,1,.13.66.2,1,.12.64.19.94.13.6.19.89a1.65,1.65,0,0,0,.1.34h1.39a4.46,4.46,0,0,1,.07,1c0,.33,0,.67,0,1a6.41,6.41,0,0,1,0,1c0,.3,0,.63,0,1a6.21,6.21,0,0,1-1,.07l-1.89.05q-1.11,0-2.4,0l-2.55,0a5.29,5.29,0,0,1-.07-.71c0-.35,0-.73,0-1.14V27.76a8.86,8.86,0,0,1,0-1h2.07a2.64,2.64,0,0,1,0-.29.41.41,0,0,0,0-.25c-.16-.74-.31-1.49-.46-2.25s-.29-1.51-.45-2.25H21.46a.53.53,0,0,0-.22.48,1.2,1.2,0,0,1-.07.54,11.36,11.36,0,0,0-.24,1.16c-.07.39-.13.79-.19,1.21,0,.16-.07.33-.1.51a4.58,4.58,0,0,1-.14.56.36.36,0,0,0,0,.24.57.57,0,0,1,0,.29,3.89,3.89,0,0,0,1,.07,7,7,0,0,1,1,0l.12.11a.15.15,0,0,1,0,.17.74.74,0,0,0,0,.43,1.79,1.79,0,0,1,0,.42.93.93,0,0,1,0,.57,1.09,1.09,0,0,0,0,.62,1.31,1.31,0,0,1,.05.59,4.48,4.48,0,0,0-.05.64,2.31,2.31,0,0,1-.1.48H15Zm3.17-.63h-.43a4.94,4.94,0,0,0-.19.63,1.23,1.23,0,0,0,.55-.07A1.14,1.14,0,0,0,18.19,26.14Zm-.53,1.59a1.2,1.2,0,0,1,.05.43,1.73,1.73,0,0,0,.51-.05q.12,0,.12-.24a.31.31,0,0,0-.08-.19l-.12-.19a1.34,1.34,0,0,1-.26.14ZM18.48,24l.1.1s.08,0,.14-.1Zm2.59-3.36c0-.35-.05-.68-.07-1s0-.62-.07-.94a4.25,4.25,0,0,0-.12.84,5.14,5.14,0,0,1-.12.8l-.48.26a.7.7,0,0,0-.34.46,4.35,4.35,0,0,0-.72,0,5.49,5.49,0,0,0,.15.53.91.91,0,0,0-.24.15,2.77,2.77,0,0,0,.33.38.49.49,0,0,0-.41,0,1.42,1.42,0,0,1-.36.14v.24l.72.44a2.21,2.21,0,0,0-.19.72,4.43,4.43,0,0,1,.77.09L20,24q.09-.66.24-1.32t.24-1.32a4.26,4.26,0,0,0,.52-.52,1.72,1.72,0,0,0,.34,0l.29,0q0-.11,0-.12a.29.29,0,0,1,0-.12.91.91,0,0,1-.26,0A.93.93,0,0,0,21.07,20.62ZM19.73,20l.14,0a.19.19,0,0,0,.1,0c.09-.1.18-.19.26-.29l.27-.34a2.28,2.28,0,0,0-.56-.4,6.36,6.36,0,0,0-.64-.32c-.07.26-.14.51-.22.75a1.69,1.69,0,0,0-.07.74q.24.15.36,0A.62.62,0,0,1,19.73,20Zm-.24,6.81c0-.19.05-.35.07-.48a2.82,2.82,0,0,0,0-.43.92.92,0,0,0-.28,0c-.1,0-.2.09-.29.25v.57a.68.68,0,0,0,.24.07Zm0-11a3.37,3.37,0,0,1,.05.52,3.4,3.4,0,0,0,0,.53.66.66,0,0,1,.72,0l-.14-.86a.46.46,0,0,0-.36-.17Zm1.1,12.72a4.14,4.14,0,0,1-.38-.34l-.29.17a.74.74,0,0,0-.24.17v.67a.5.5,0,0,0,.19.12.31.31,0,0,1,.19.12,3.09,3.09,0,0,1,.29-.17.74.74,0,0,0,.24-.17Zm-.24-15.6-.43.43c.13.32.34.41.62.29s.28-.29.15-.58A2.75,2.75,0,0,0,20.35,12.9ZM21,28.11h-.1l.05.05A0,0,0,0,0,21,28.11ZM21.22,13h0v.82c.16.12.26.18.31.16a1.11,1.11,0,0,0,.31-.26l-.53-.34A1.34,1.34,0,0,0,21.22,13Zm5.37,5.09q-.57-3-1.08-6c-.33-2-.71-4-1.13-6-.06.35-.12.7-.19,1a8.68,8.68,0,0,0-.14.89A6.36,6.36,0,0,1,23.9,9a9.35,9.35,0,0,0-.28,1.25c-.07.41-.15.85-.24,1.29-.07.29-.12.57-.17.84s-.09.56-.12.84a5,5,0,0,1-.17.8c-.08.27-.15.53-.22.79-.06.41-.12.81-.16,1.2a6,6,0,0,1-.27,1.15,1.43,1.43,0,0,0-.09.5v.51Zm-4,2.59,0,0-.05,0,.05.05ZM26.35,2.43l-.05,0s.05,0,.05,0l0,0Zm.82-.91h-.05V2h.05Zm.29,6.05-.1-.1a.14.14,0,0,1-.1,0l.08,0S27.39,7.57,27.46,7.57Zm.24,13.25s-.05,0-.05,0h.05ZM28.22,1a2.77,2.77,0,0,0-.33.38,1.32,1.32,0,0,0,.38.34c.16-.16.24-.27.24-.34S28.42,1.23,28.22,1Zm-.09,28.18v0h-.19v.09S28,29.22,28.13,29.22Zm.09-15.94,0,.05v.05l0-.05Zm.29,1.15c-.25.16-.32.34-.19.53h.43A.36.36,0,0,0,28.51,14.43Zm.34,2.5a.43.43,0,0,0,.33-.15.39.39,0,0,0,.15-.28.3.3,0,0,0-.34-.34.43.43,0,0,0-.29.17,1,1,0,0,0-.19.31C28.51,16.9,28.62,17,28.85,16.93Zm.38,1.53c.07-.16.12-.3.17-.43a3.17,3.17,0,0,1,.17-.38l-.29-.29-.07.12a.54.54,0,0,0-.07.12s-.06-.05-.08-.05A.11.11,0,0,1,29,17.5a2.26,2.26,0,0,0-.33.39c0,.22,0,.35.09.38A1.13,1.13,0,0,0,29.23,18.46ZM28.75,1.71V1.66H28.7S28.72,1.71,28.75,1.71Zm.1,11.43s0,0-.05,0h.1Zm.72,16.38a3.22,3.22,0,0,1-.58,0,.28.28,0,0,0-.09.17.41.41,0,0,1,0,.17h.72Zm-.53-5c.06.22.13.34.19.34a1.45,1.45,0,0,0,.29,0A3.37,3.37,0,0,1,29,24.56Zm.34-9.89a3,3,0,0,0-.24.43,1.1,1.1,0,0,0,.26,0,1.1,1.1,0,0,1,.26,0,.81.81,0,0,1-.14-.2A1,1,0,0,0,29.38,14.67Zm.19,6.82h-.1l.05.05A0,0,0,0,0,29.57,21.49Zm.19.62a.87.87,0,0,0-.17.79,5,5,0,0,1,.17.8.83.83,0,0,1,.58,0,.48.48,0,0,0,.52-.15c-.09-.48-.19-.91-.28-1.29a.41.41,0,0,0-.39-.15A1,1,0,0,1,29.76,22.11Zm-.1-7.82a0,0,0,0,1,.05,0l-.05-.05,0,.05S29.63,14.29,29.66,14.29Zm.44,13.2a.12.12,0,0,1-.05-.1.3.3,0,0,1-.1.07.32.32,0,0,0-.09.08.12.12,0,0,1,0,.09l.1-.07Zm1.58.08a3.48,3.48,0,0,1,.05.63,1.63,1.63,0,0,1,.41-.05,1.63,1.63,0,0,0,.36,0,1.62,1.62,0,0,0,.31-.1.89.89,0,0,0,.31-.28h-.91l-.58-.57c-.09-.42-.18-.82-.26-1.2s-.17-.79-.27-1.2l-.19-.1-.19-.1s-.06,0-.1,0a.11.11,0,0,1-.09.05c0,.07,0,.13.07.19a1.59,1.59,0,0,0,.07.2l-.14.16a.73.73,0,0,1-.15.17,2,2,0,0,1,.29.34,5.5,5.5,0,0,0-.6.12c-.05,0-.1.09-.17.21l.39.29.38.29c-.06.13-.11.23-.14.31s-.07.17-.1.27a.52.52,0,0,1,.34.12c.09.08.22.05.38-.08a2.21,2.21,0,0,0,.15.38Zm-.43,2.33q.13-.24,0-.36a3.58,3.58,0,0,1-.29-.27h-.38a1.27,1.27,0,0,0-.27.25.34.34,0,0,0,0,.38Zm-.91-15.47s0,0,0,0l0,0Zm1.82,14.42h.05v-.33h-.05Zm.67.82c.23-.16.28-.32.17-.48a.69.69,0,0,1-.12-.52l-.38.24a.43.43,0,0,1,.14.4A.32.32,0,0,0,32.83,29.67Z"/><path class="cls-2" d="M48.05,14.82l.36.16.31.12a3.21,3.21,0,0,1,1.06.39,5.75,5.75,0,0,1,.91.67,2.28,2.28,0,0,1,.5.72,8.74,8.74,0,0,1,.31.82,2.13,2.13,0,0,1,.1.64,3.63,3.63,0,0,0,0,.65,6,6,0,0,1,.09,1c0,.32,0,.66,0,1a1.18,1.18,0,0,1-.07.43.69.69,0,0,0,0,.43,1.58,1.58,0,0,1,0,.87,5.58,5.58,0,0,1,0,.72,4.07,4.07,0,0,0-.05.72v2.47c0,.62,0,1.29,0,2s0,1.39,0,2,0,1,0,1.05h2v4.08H50.26a2.81,2.81,0,0,1-2.12-.86,2.58,2.58,0,0,1-.72-1.83V25.71c0-1.12,0-2.22,0-3.31s0-2.19,0-3.31a2.82,2.82,0,0,0-.62-1.68,1.22,1.22,0,0,0-.5-.36l-.65-.22a5.62,5.62,0,0,0-1.73-.12,10.11,10.11,0,0,1-1.82,0v3.69a5,5,0,0,0,0,.53.82.82,0,0,1-.12.53v.19a.72.72,0,0,1,.12.48,3.85,3.85,0,0,0,0,.48v9.07h1.82a4.63,4.63,0,0,1,.07,1c0,.33,0,.68,0,1v2a12.72,12.72,0,0,1-1.37.07l-2.57,0H37.34a15.13,15.13,0,0,1-1.68,0v-4h2V17.53a2.5,2.5,0,0,0-.77-1.83l-.6-.6c-.2-.21-.42-.44-.64-.7l.72-.72a4.91,4.91,0,0,0,1-1.37,5,5,0,0,0,.26-1.85c0-.93,0-1.88,0-2.84s0-1.92,0-2.88V4.11h-2v-4a1.79,1.79,0,0,1,.48,0h8.07c.44,0,.9,0,1.37.07l1.36.17c.32.07.63.14.91.22l.87.26a3.89,3.89,0,0,1,1.56,1.11,5.49,5.49,0,0,1,.94,1.68,4.37,4.37,0,0,1,.31,1.15c0,.38.08.78.12,1.2s.11.91.14,1.39a6.94,6.94,0,0,1,0,1.44c-.06.58-.1,1.16-.12,1.75a4.89,4.89,0,0,1-.36,1.75,4.66,4.66,0,0,1-.76,1.28,3.21,3.21,0,0,1-1.25.84c-.19.06-.39.13-.58.21Zm-5.86-2.16c.48,0,1,0,1.47,0a14.18,14.18,0,0,0,1.46,0,3.42,3.42,0,0,0,1.13-.29A1.7,1.7,0,0,0,47,11.5a3.57,3.57,0,0,0,.34-1.39c0-.45,0-.89,0-1.32V7.47c0-.32,0-.62,0-.91a6.14,6.14,0,0,0-.12-.86A2.31,2.31,0,0,0,47,5a1.54,1.54,0,0,0-.6-.53A2.76,2.76,0,0,0,45,4.11c-.41,0-.81-.05-1.2-.05H42.1v7.35a1,1,0,0,0,0,.29.21.21,0,0,1,0,.24.42.42,0,0,0-.08.38C42.07,12.42,42.13,12.53,42.19,12.66Zm1.2,1.82h0v0h0Zm1.83-.77v0h.19a.19.19,0,0,0,0-.1A.2.2,0,0,0,45.22,13.71Zm3.12,5.09a.62.62,0,0,0,0,.19,1.15,1.15,0,0,1,0,.29c.1-.26.08-.42,0-.48v-.31a.57.57,0,0,0-.1-.31.63.63,0,0,1,0,.36C48.17,18.65,48.21,18.74,48.34,18.8Zm0,3.89c0,.35,0,1,0,1.82s0,1.79,0,2.76,0,1.91,0,2.79a7.83,7.83,0,0,0,.17,1.8,3,3,0,0,1,1-.22.94.94,0,0,0,.77-.55.39.39,0,0,0,.14.05.33.33,0,0,1,.14,0l.29-.14V23.5a1,1,0,0,0-.24-.07.84.84,0,0,1-.24-.07,1,1,0,0,0-.14.17,1,1,0,0,1-.15.17.67.67,0,0,1-.28-.05l.14-.43c0-.07-.07-.14-.1-.22a1.34,1.34,0,0,0-.14-.26l-.19.07a.62.62,0,0,0-.19.07c-.16-.06-.21-.15-.15-.26a.33.33,0,0,0,0-.36.31.31,0,0,1,0-.29.49.49,0,0,0,0-.34,2,2,0,0,1,0-.36,1,1,0,0,0-.07-.41c-.07.36-.12.67-.17.94s-.11.55-.17.84l-.19,0Zm0-.77a3.39,3.39,0,0,1,.28-.34l-.14-.16-.14-.22Zm.57,10.56H49v-.24h-.05Zm.82.82a.42.42,0,0,0,0-.41.69.69,0,0,1-.12-.41l-.16,0a.47.47,0,0,1-.17,0,.34.34,0,0,1,.17.41C49.37,33.11,49.47,33.23,49.73,33.3Zm.09-13.59a5.1,5.1,0,0,1,.48.29,4,4,0,0,0,.53-.29v-.57c-.13-.16-.25-.23-.36-.2a.55.55,0,0,1-.36,0A.64.64,0,0,0,49.82,19.71ZM50.3,4.26l-.09.09a.12.12,0,0,0,0,.07.1.1,0,0,1,0,.08A.61.61,0,0,0,50.3,4.26Zm.39,18.57s0,0,0,0v.1A0,0,0,0,0,50.69,22.83Zm1.82,10.56.05,0c-.07,0-.1,0-.12,0s-.06,0-.12,0v.09Z"/><path class="cls-2" d="M75.65,31.71h2.11v2.74a2.51,2.51,0,0,0,0,.67,1.21,1.21,0,0,1-.1.67h-8a6.39,6.39,0,0,1,0-1c0-.34,0-.68,0-1a6.49,6.49,0,0,1,0-1c0-.33,0-.68,0-1l.29,0,.24,0h1.3l.17,0a.27.27,0,0,1,.12,0c0-.22,0-.7.07-1.44s0-1.52,0-2.37V24c0-.45,0-.89,0-1.32a11.7,11.7,0,0,1,0-1.32c0-.45,0-.88-.05-1.29a6.37,6.37,0,0,1,.05-1.3,4.3,4.3,0,0,0,0-1.34,10.2,10.2,0,0,1-.09-1.35,11.74,11.74,0,0,1,0-1.32q0-.64,0-1.32v-8h-.1c-.06.36-.14.7-.22,1s-.15.68-.21,1-.24.9-.34,1.37-.21.92-.33,1.36-.19.89-.27,1.32-.17.88-.26,1.32-.2.92-.31,1.4-.22.94-.32,1.39-.25,1.14-.38,1.7-.24,1.13-.34,1.71c-.06.32-.12.63-.19.93s-.13.62-.19.94-.18.77-.26,1.15-.17.77-.27,1.15-.13.69-.21,1-.17.66-.27,1l-.14.72H65.37q-1.05-5.19-2.11-10.3T61.15,5.46h0V31.71a6.33,6.33,0,0,0,.87,0q.42,0,1,0l.09.19a.49.49,0,0,1,0,.2v3.36a.49.49,0,0,1,0,.19l-.09.19H55.44c0-.35,0-.69,0-1V31.76a4,4,0,0,1,1-.05,5.9,5.9,0,0,0,1,0v-.89c0-.56,0-1.16,0-1.82s0-1.26,0-1.82V17.36a2,2,0,0,0-.67-1.54c-.22-.22-.43-.44-.62-.67s-.42-.46-.68-.72a.4.4,0,0,0,.1-.12,1.53,1.53,0,0,1,.14-.17l.58-.64.63-.7a2.24,2.24,0,0,0,.52-1.49V4.16H55.44V.08a7.81,7.81,0,0,1,1.17,0h4.71c.81,0,1.45,0,1.89.05q.87,4.08,1.69,8.14t1.67,8.13c.1-.41.2-.83.29-1.25s.2-.83.29-1.24.18-1,.26-1.42.17-.92.27-1.37.3-1.1.43-1.68.26-1.13.38-1.68.3-1.35.41-2,.25-1.37.41-2,.21-1.06.34-1.56A14.91,14.91,0,0,0,69.94.56c0-.1.06-.18.09-.26l.1-.27h7.44c.12.13.19.21.19.24V4.11H75.65v7.11A2.39,2.39,0,0,0,76.32,13a6.23,6.23,0,0,1,.67.7c.19.24.4.49.62.74a.43.43,0,0,1-.12.34,2.93,2.93,0,0,1-.26.19A6.89,6.89,0,0,0,76,16.26a1.81,1.81,0,0,0-.33,1ZM57.12,14.82a1.22,1.22,0,0,0,.09-.32,1.31,1.31,0,0,0-.09-.31ZM58,13.23a4.33,4.33,0,0,1,.53,0,.39.39,0,0,0,.38-.22v-.67l-.26-.1-.27-.09c-.09.16-.18.32-.26.48A1.26,1.26,0,0,0,58,13.23Zm1.73,5c0-.16.09-.24.26-.24s.23-.06.17-.19a4.05,4.05,0,0,1-.31-.43.51.51,0,0,0-.31-.24,1,1,0,0,1-.36-.24.81.81,0,0,0-.36-.24l-.24,0-.24,0v2.59a.26.26,0,0,0,.16.09.41.41,0,0,1,.17,0,1.94,1.94,0,0,0,.29-.21l.34-.27a1.65,1.65,0,0,0,.09.48l.15,0a.26.26,0,0,1,.14,0,1,1,0,0,1-.12-.14,1,1,0,0,0-.12-.14c.19-.13.33-.14.41,0l.26.36a1.84,1.84,0,0,0,0-.67A1.05,1.05,0,0,0,59.76,18.27ZM58.41,6.66v0l.05,0Zm.34,9.4v.05h0A0,0,0,0,0,58.75,16.06ZM59,21.87l0,.05a0,0,0,0,1,0,0l.05,0Zm.72-3.6v.29C59.57,18.43,59.57,18.34,59.76,18.27Zm.38-6.77v-.76c-.25,0-.38.16-.38.38A.33.33,0,0,0,60.14,11.5Zm-.29,5.57a.63.63,0,0,0,.29.29v-.58l-.14.15ZM69.26,12s-.05,0-.05,0V12S69.26,12,69.26,12ZM70.8,5.41l-.36.07-.22.07c-.09,0-.14.07-.14.19s0,.26.14.29a.21.21,0,0,0,.15,0,.49.49,0,0,1,.19,0Zm-.43-1.54a1.75,1.75,0,0,1-.22.39.34.34,0,0,0,0,.38.94.94,0,0,0,.45-.12,1,1,0,0,0,.12-.46A1.69,1.69,0,0,1,70.37,3.87Zm.19,29.38h-.1a1.48,1.48,0,0,1,.05.43h0Zm0,1.53v.1h.19v-.1ZM71.09,2s0-.05,0-.05l0-.05L71,2S71.05,2,71.09,2Zm.28,31-.14.58.24.16.19.17c.45-.19.66-.4.63-.62a1,1,0,0,1-.15-.17L72.05,33ZM76.8,1.57a1,1,0,0,0-.17-.07l-.17-.08a.45.45,0,0,1-.12-.21A.37.37,0,0,0,76.22,1H71.9a3.12,3.12,0,0,0-.33.43l.38.24h.38a.86.86,0,0,0,0,.34l.19-.1c.2.07.28.16.27.29a.5.5,0,0,0,.12.39l1.44-.44a.41.41,0,0,0,0-.19.43.43,0,0,1,0-.19,2.26,2.26,0,0,1,.53.1c.07-.1.19-.28.39-.53q.18.24.36.09a.33.33,0,0,1,.4,0q.1.24.24.48a5.25,5.25,0,0,1,.29.53s0,.07-.09.12,0,.09.19.12ZM71.57,3.78v0h.57v0Zm1.2,3.45A2.48,2.48,0,0,1,73,7c.06-.08.13-.15.19-.22S73,6.5,73,6.39A2.26,2.26,0,0,1,72.77,6Zm0,3.79v.1s0,0,0-.1Zm0,4.76q.44-.06.33-.48c0-.26-.11-.36-.33-.29Zm.62,5h-.1q0,.24-.09.45c0,.15-.07.3-.1.46a1.15,1.15,0,0,1-.33.91v9.12c.16,0,.32-.33.5-.89s.34-1.17.5-1.85.31-1.31.44-1.92A4.8,4.8,0,0,1,74.54,26a.43.43,0,0,0,.15.05.14.14,0,0,1,.09.05,11.34,11.34,0,0,0,.07-1.75,4.83,4.83,0,0,0-.07-1c-.16-.06-.25,0-.29.07a.29.29,0,0,1-.24.22.67.67,0,0,1-.23-.1.61.61,0,0,0,0-.86h-.24a.72.72,0,0,1-.24.14,3.09,3.09,0,0,1-.08-.33,2.83,2.83,0,0,1,0-.29V20.82Zm-.58.67h0s0,.05,0,.05Zm.29-3H73v.34h0A1.18,1.18,0,0,0,73.1,18.46Zm.05,13.92h0v-.24h0ZM73.29,3v.1l0-.05S73.33,3,73.29,3Zm.34,12a.53.53,0,0,0-.24.38,1.16,1.16,0,0,0,0,.34.46.46,0,0,0,.07.26.92.92,0,0,0,.17.22c.29,0,.45-.08.48-.34-.1-.06-.27-.19-.53-.38ZM74,33.15a.34.34,0,0,0,0-.41.52.52,0,0,1-.1-.45,1.72,1.72,0,0,1-.34.24.41.41,0,0,1,.12.38C73.64,33.07,73.74,33.15,74,33.15Zm-.34,1.68s0,0,0,0v.1ZM73.92,4a1.5,1.5,0,0,0,0-.82.72.72,0,0,0-.34.1ZM73.73,5.6l0,.05h.09S73.73,5.63,73.73,5.6Zm.67,14.3a.46.46,0,0,1,.21,0,.51.51,0,0,0,.22-.05,1.29,1.29,0,0,1,0-.48.8.8,0,0,0,0-.48.55.55,0,0,0-.72.33.86.86,0,0,0,0,.34A2.86,2.86,0,0,0,74.4,19.9Zm-.05-7.58v.1h.05A.14.14,0,0,0,74.35,12.32Zm.14-7.92.05-.05s0,0-.05,0h0s0,0,0,0S74.49,4.37,74.49,4.4Zm.05,28.18.24.67a1.88,1.88,0,0,0,0-.41A.92.92,0,0,0,74.54,32.58Zm.1-14.12a0,0,0,0,0,0,.05h0Zm1-16.89q0,.43.24.24Zm1,31.73v0l0,0Z"/><path class="cls-2" d="M79.63,14.38A14.83,14.83,0,0,1,80.83,13a2.24,2.24,0,0,0,.62-1.58,7.75,7.75,0,0,1,0-1.18,4.21,4.21,0,0,0,0-1.13,14.86,14.86,0,0,1-.08-1.87,12.26,12.26,0,0,0-.07-1.82,6.23,6.23,0,0,1-.05-1.28,5.48,5.48,0,0,0,0-1.27,8.41,8.41,0,0,1-.12-1.2q0-.57,0-1.2V.13a4.5,4.5,0,0,1,.79-.07c.4,0,.84,0,1.3,0h1.34a7.88,7.88,0,0,1,1,.05,5.69,5.69,0,0,0,0,1.37,3.53,3.53,0,0,1-.12,1.37.37.37,0,0,0,0,.24.54.54,0,0,1,0,.28c0,.84,0,1.67,0,2.5s0,1.66-.1,2.5a11.76,11.76,0,0,0,0,1.87,13.1,13.1,0,0,1,0,1.87,4.91,4.91,0,0,0,.84,1.22l1,1.13a4.69,4.69,0,0,1-.63.7c-.22.21-.46.42-.72.65a2.5,2.5,0,0,0-.5.57,1.19,1.19,0,0,0-.17.77v.53a8.27,8.27,0,0,0,0,.86c0,.29,0,.59,0,.91a.8.8,0,0,0,.48,0,1.29,1.29,0,0,1,.48,0,3.71,3.71,0,0,1,.07.65c0,.34,0,.71,0,1.13V22.5a8,8,0,0,1,0,1.05H80.69v-4a1.68,1.68,0,0,1,.48-.05h.48a5.13,5.13,0,0,0,0-1,2.22,2.22,0,0,1-.1-.67v-.72A1.55,1.55,0,0,0,81,15.87,11.34,11.34,0,0,1,79.63,14.38Zm5.76,14.45a1.21,1.21,0,0,0,0,.43,1,1,0,0,1-.08.48,2.21,2.21,0,0,1-2,1.68,1.5,1.5,0,0,1-.63,0,1.14,1.14,0,0,1-.57-.31,3,3,0,0,1-1-1.54,3.25,3.25,0,0,1,0-1.75A2.61,2.61,0,0,1,82,26.34a2.13,2.13,0,0,1,1.25-.41,1.63,1.63,0,0,1,1.25.5,4,4,0,0,1,.67.94A2.62,2.62,0,0,1,85.39,28.83Zm-3-13.29v.09l0-.05S82.45,15.54,82.41,15.54Zm.29,1.05a.36.36,0,0,0-.09.53c0,.06.06.1.19.1a.32.32,0,0,0,.19-.48Zm.15,3.17h0v0h0Zm.09-1.39h0l0-.05,0,.05Zm0-14.59v.09l0-.05S83,3.78,82.94,3.78ZM83.09,13h0v.43h0Zm0,6.86a1,1,0,0,0,.38.2,1.18,1.18,0,0,0,.43-.24,3.88,3.88,0,0,1-.38-.34A4.19,4.19,0,0,1,83.09,19.9Zm.24,7a.14.14,0,0,1,0,.1.77.77,0,0,1,.19.14l.1-.09a.44.44,0,0,1-.12-.07Zm0,1.78s0,.05,0,.05S83.37,28.67,83.37,28.64ZM83.9,2V1.9h-.19V2Zm.58,26.16a.42.42,0,0,1,0-.12.42.42,0,0,0-.05-.12.69.69,0,0,1-.29,0q0,.24.12.24A1,1,0,0,0,84.48,28.16Zm-.34,1.58s0,0,0,0h0l0,0Zm.67-7s.08,0,.15-.1V21.44a.51.51,0,0,0-.22.29,1.4,1.4,0,0,0,0,.29c0,.09,0,.18.05.26a.47.47,0,0,1,0,.26s0,.06,0,.08A.07.07,0,0,1,84.81,22.69Zm.53-8.4,0,0a0,0,0,0,1,0-.05l0,.05A0,0,0,0,0,85.34,14.29Z"/></svg>