<svg id="Layer_1" data-name="Layer 1" xmlns="http://www.w3.org/2000/svg" viewBox="0 0 146.78 87.38"><defs><style>.cls-1{fill:#fff;}.cls-2{fill:#fae183;}.cls-3{fill:#999;}.cls-4{fill:#fb716a;}.cls-5{fill:#983233;}</style></defs><title>FastFood_Hint1</title><path class="cls-1" d="M105.47,42.58c.29-.39,39.07-11.57,39.07-11.57s3-8.65,1.16-11.56L103,31.89Z" transform="translate(-0.01 0)"/><path class="cls-2" d="M80.4,8.66C79.82,8.27,3.83,44.33,3.83,44.33S-1.81,54.82,1.59,69.49s8.55,18.08,8.94,17.88,83.09-15,82.79-14.86,7-12.83,1.85-34.4C90.22,17.36,80.4,8.66,80.4,8.66Z" transform="translate(-0.01 0)"/><path class="cls-3" d="M10.5,85.56a1.06,1.06,0,0,1-.43-.12c-.06,0-5.38-2.69-9-18.16C-2.3,52.59,3.33,41.86,3.39,41.76a.52.52,0,0,1,.22-.22C79.87,5.36,80.35,5.7,80.68,5.91l0,0c.1.08,10,9,14.93,29.7C98.61,48,98,60.19,94,69.87l-.14.34v0a.5.5,0,0,1-.34.4l-.11,0c-1.18.19-81.09,14.43-82.69,14.85A.37.37,0,0,1,10.5,85.56Zm0-1-.15,0ZM4.19,42.37A38.7,38.7,0,0,0,2.08,67.05C5.13,80.22,9.62,84.21,10.5,84.54c.91-.2,6.34-1.22,41.47-7.51,31.46-5.63,39-7,41-7.25,0-.08.07-.18.12-.29,4-9.49,4.55-21.42,1.64-33.6-4.47-18.76-13.05-27.68-14.42-29C76.26,8.29,24.46,32.76,4.19,42.37Z" transform="translate(-0.01 0)"/><path class="cls-1" d="M79.53,7.11l9.52-4.28s14.28,17.4,15.35,38.78-3.2,30-3.2,30L93,72.94s6.71-15.74,1.75-36.29C90.56,19.16,83.61,11.29,79.53,7.11Z" transform="translate(-0.01 0)"/><path class="cls-3" d="M93,71.11a.5.5,0,0,1-.46-.69,62.8,62.8,0,0,0,1.73-36c-3.93-16.26-10.15-24.2-15.13-29.3a.5.5,0,0,1,.15-.81L88.84,0a.52.52,0,0,1,.6.14c.14.18,14.4,17.77,15.46,39.07s-3.08,29.91-3.26,30.27a.46.46,0,0,1-.36.27l-8.17,1.32ZM80.38,4.94c5,5.21,11,13.29,14.89,29.26A64.86,64.86,0,0,1,93.81,70l7-1.13c.64-1.5,4-10.45,3.05-29.55-1-19.46-13.14-35.8-15-38.19Z" transform="translate(-0.01 0)"/><path class="cls-3" d="M105.47,40.74a.55.55,0,0,1-.3-.09.52.52,0,0,1-.1-.71c.13-.16.39-.52,39.08-11.67.81-2.4,2.34-8.16,1.3-10.56L103.08,30a.5.5,0,0,1-.27-1l42.75-12.43a.49.49,0,0,1,.56.21c2,3.08-1,11.63-1.11,12a.48.48,0,0,1-.34.31c-15,4.33-37.68,10.94-38.92,11.5A.46.46,0,0,1,105.47,40.74Z" transform="translate(-0.01 0)"/><path class="cls-4" d="M112.13,29.07a9.38,9.38,0,0,1,.58,6,31.17,31.17,0,0,1-2.77,6.05l6.63-1.68A23,23,0,0,0,119,33.59c.46-2.31-.51-6.49-.51-6.49Z" transform="translate(-0.01 0)"/><path class="cls-4" d="M128.89,24a13.24,13.24,0,0,1,.44,11.37l5.1-1.46s4.15-7.14.15-11.37Z" transform="translate(-0.01 0)"/><path class="cls-5" d="M109.15,39.35l.47-.78a31.1,31.1,0,0,0,2.73-6,9.14,9.14,0,0,0-.56-5.71l-.19-.39,7.14-2.22.09.39c0,.18,1,4.28.52,6.65a23.36,23.36,0,0,1-2.45,6l-.08.13ZM112.64,27a9.46,9.46,0,0,1,.43,5.85,29.25,29.25,0,0,1-2.36,5.36l5.62-1.42a22.32,22.32,0,0,0,2.28-5.58,18.7,18.7,0,0,0-.42-5.93Z" transform="translate(-0.01 0)"/><path class="cls-5" d="M128.66,33.59l.33-.74a12.93,12.93,0,0,0-.42-11l-.26-.43,6.39-1.64.15.16c4.15,4.38.08,11.51-.1,11.82l-.07.13Zm.78-11.71A13.5,13.5,0,0,1,130,32.43l4.21-1.2c.51-.95,3.52-6.95.27-10.63Z" transform="translate(-0.01 0)"/><path class="cls-1" d="M3.3,44.71a2.23,2.23,0,0,1,2.22-1.15c2.57.71,8.49,5,10.37,20.5,1.76,14.52-1.74,20.72-4,22.88-1,1-2.49.15-3.3-1A45.4,45.4,0,0,1,1.07,66.52C-.18,56.66,2.07,47.61,3.3,44.71Z" transform="translate(-0.01 0)"/><path class="cls-3" d="M10.81,85.53h-.22a3.63,3.63,0,0,1-2.43-1.61A45.93,45.93,0,0,1,.58,64.26,49.08,49.08,0,0,1,2.83,42.18h0a2.71,2.71,0,0,1,2.81-1.44c1.42.39,8.6,3.24,10.74,20.92,1.9,15.7-2.3,21.53-4.19,23.31A2,2,0,0,1,10.81,85.53Zm-7-43c-1,2.33-3.5,11.3-2.19,21.56A44.9,44.9,0,0,0,9,83.33a2.71,2.71,0,0,0,1.72,1.2,1,1,0,0,0,.83-.29c1.78-1.67,5.72-7.22,3.87-22.46-2.1-17.41-9.2-19.85-10-20.07a1.78,1.78,0,0,0-1.63.86Z" transform="translate(-0.01 0)"/></svg>