<svg id="Layer_1" data-name="Layer 1" xmlns="http://www.w3.org/2000/svg" viewBox="0 0 74.1 62.95"><defs><style>.cls-1{fill:#e2e2e2;}.cls-2{fill:#e5e3da;}.cls-3{fill:#999;}.cls-4{fill:#983233;}</style></defs><title>FastFood_Hint2</title><path class="cls-1" d="M74.1,39.94s-3.46,3.18-3.85,3.31S40.82,30.34,40.82,30.34L40.28,25Z"/><path class="cls-1" d="M36.38,32.3C33.94,33,8.17,35.89.78,37.91a.62.62,0,0,0,0,1.19C7.83,41,33.47,51.12,34,51s25-4.92,33-6.41c.69-.13,1.57-.23.91-.47l-27.74-12C40,32.12,36.52,32.26,36.38,32.3Z"/><path class="cls-2" d="M34.49,52.46c-.05,2.1-.07,6.18-.07,8.8,0,1.21.18,2-1,1.59-6.15-2.14-23.81-7.79-25.08-9C6.8,52.45-.08,38.41.32,38.67S27.38,49,33.25,50.76A1.73,1.73,0,0,1,34.49,52.46Z"/><path class="cls-2" d="M67.09,44.38c-7.36,1.3-27.61,5.15-32.33,6a1.24,1.24,0,0,0-1,1.22l-.1,9.86a1.26,1.26,0,0,0,1.5,1.25c5.9-1.18,27-5.39,27-5.72s4-7.11,6.22-10.79A1.24,1.24,0,0,0,67.09,44.38Z"/><path class="cls-3" d="M69.14,43.57c-.29,0-2.43-.72-29.62-12.93a.32.32,0,0,1-.19-.26L38.79,25a.33.33,0,0,1,.45-.33l33.82,15a.31.31,0,0,1,.19.24.36.36,0,0,1-.1.29,42.12,42.12,0,0,1-4,3.38ZM40,30.13C51,35.1,67.55,42.45,69,42.92c.38-.25,1.88-1.57,3.32-2.88L39.48,25.5Z"/><path class="cls-2" d="M10.35,10.7l4.76-8.57s1.18-1.7,6.28-.26S43.66,8.63,43.66,8.63L41,20.45Z"/><path class="cls-2" d="M67.22,31.29c.64.3,1.36.39,1.32-.32l-.29-7.77s-.17-3.32-5-5.76c-3.19-1.61-20.07-9.23-19.54-8.88L41,20.64Z"/><path class="cls-3" d="M40.94,20.48l-.1,0-31-9.57a.34.34,0,0,1-.2-.19.31.31,0,0,1,0-.28L15,1c.06-.1,1.38-1.9,6.65-.41C26.73,2,43.78,7.29,44,7.35a.31.31,0,0,1,.22.38l-2.92,12.5a.34.34,0,0,1-.15.2A.33.33,0,0,1,40.94,20.48ZM10.42,10.39,40.7,19.75,43.48,7.87c-2.27-.7-17.3-5.34-22-6.66s-5.92.11-5.93.13Z"/><path class="cls-3" d="M68.39,32a2.46,2.46,0,0,1-1-.24L40.59,20.6a.32.32,0,0,1-.19-.38L43.6,7.58a.33.33,0,0,1,0-.17c.06-.11.1-.18.45-.08l0,0,0,0c.76.23,2.77,1.15,8.51,3.75C56.9,13,62,15.36,63.62,16.18c4.91,2.49,5.14,5.89,5.15,6l.44,8.92a.78.78,0,0,1-.32.74A.85.85,0,0,1,68.39,32ZM41.1,20.11,67.69,31.16h0c.47.21.76.22.83.16s0-.1,0-.17l-.45-8.91s-.24-3.18-4.8-5.49C60.34,15.25,46.46,9,44.16,8Z"/><path class="cls-3" d="M34,62.1a1.88,1.88,0,0,1-.6-.12c-1.51-.52-3.71-1.26-6.2-2.09-9.84-3.28-18.06-6.07-19-6.93S4.78,47.48,3.41,44.8C-.24,37.67-.07,37.45.05,37.3a.33.33,0,0,1,.44-.06c.71.36,27,10.26,32.85,12a2,2,0,0,1,1.47,2c-.05,2-.06,5.9-.07,8.79v.44c0,.66,0,1.17-.34,1.44A.72.72,0,0,1,34,62.1ZM.86,38.07C2,40.76,7.21,51.23,8.59,52.49c.91.83,11.66,4.42,18.77,6.79,2.48.83,4.69,1.57,6.2,2.09.37.13.46.08.47.08s.08-.58.07-.91v-.45c0-2.89,0-6.77.06-8.8h0a1.41,1.41,0,0,0-1-1.4C28,48.33,5.22,39.81.86,38.07Z"/><path class="cls-3" d="M34.9,61.93a1.56,1.56,0,0,1-1-.36,1.63,1.63,0,0,1-.57-1.23l.11-9.86A1.55,1.55,0,0,1,34.69,49c4.1-.79,24.92-4.75,32.34-6.06a1.57,1.57,0,0,1,1.63,2.35c-3.7,6.22-6,10.2-6.18,10.67s-1.18.81-27.27,6ZM67.32,43.51h-.18c-7.41,1.31-28.23,5.28-32.32,6.06a.91.91,0,0,0-.75.9L34,60.34a.9.9,0,0,0,.34.73.93.93,0,0,0,.77.2c12.23-2.43,25.53-5.15,26.83-5.63.23-.54,1.31-2.5,6.19-10.73a.92.92,0,0,0-.78-1.4Zm-.23-.3h0Z"/><path class="cls-2" d="M10.62,12.14c-.91-.28-1.76.87-2.45,1.53-.4.38-.78.69-.78.69L2.68,15.54l-.4,1.18s33.9,9.16,38.22,10.73S71.39,42.11,72.44,41.59s.91-2.23-.53-3.54A29,29,0,0,1,69,33.8,2.52,2.52,0,0,0,68,32.89C63.61,30.93,40.83,22,40.24,22S17,14.1,10.62,12.14Z"/><path class="cls-3" d="M72.59,40.35c-1.13,0-6.16-2.25-19.25-8.37-5.68-2.66-11-5.16-12.75-5.78C36.33,24.65,2.73,15.56,2.4,15.47a.29.29,0,0,1-.2-.16.31.31,0,0,1,0-.25l.4-1.18a.33.33,0,0,1,.22-.21l4.64-1.16c.12-.1.41-.35.71-.64.12-.11.25-.24.38-.38.65-.67,1.45-1.51,2.39-1.22h0c3.18,1,10.49,3.45,16.94,5.63,6,2,12.16,4.11,12.61,4.18h0c.73,0,23.92,9.2,27.82,11a2.8,2.8,0,0,1,1.21,1c.12.18.31.49.54.88a19.66,19.66,0,0,0,2.29,3.32,3.43,3.43,0,0,1,1.3,2.83,1.57,1.57,0,0,1-.84,1.23A.5.5,0,0,1,72.59,40.35ZM2.89,14.94c3.52,1,33.86,9.18,37.92,10.65,1.73.63,7.11,3.14,12.8,5.8,7.58,3.55,18,8.4,18.94,8.33A.92.92,0,0,0,73,39a2.78,2.78,0,0,0-1.09-2.28,19.33,19.33,0,0,1-2.41-3.46c-.22-.37-.41-.68-.52-.85a2.25,2.25,0,0,0-.94-.79C63.34,29.52,41.29,20.87,40.4,20.72h0c-.26,0-3.12-.95-12.76-4.21-6.44-2.18-13.74-4.65-16.92-5.62h0c-.56-.17-1.18.47-1.74,1-.14.14-.27.28-.4.4-.4.39-.79.71-.79.71a.33.33,0,0,1-.13.07L3.12,14.25Z"/><path class="cls-3" d="M34,50.16c-.36,0-1.94-.57-10-3.6S4.91,39.4.69,38.25A.94.94,0,0,1,0,37.34a.93.93,0,0,1,.7-.91c4.66-1.28,16.67-2.91,25.43-4.1,5.18-.71,9.28-1.26,10.16-1.51h0s3.71-.23,4-.12L68,42.67c.11,0,.45.16.42.48s-.41.42-1.11.55l-.29,0c-8,1.5-32.79,6.37-33,6.41Zm2.41-18.72c-1,.26-5.05.82-10.23,1.53C17.47,34.15,5.49,35.78.87,37.05a.29.29,0,0,0,0,.57C5.11,38.79,16.15,42.93,24.22,46,29,47.73,33.45,49.41,34,49.52c1.19-.23,25.12-4.93,32.94-6.4l.29-.06h.07L40.09,31.31C39.67,31.28,36.74,31.41,36.45,31.44Z"/><path class="cls-4" d="M37.84,51.44s-1.07,8.48,2.44,5.26S45.54,45.89,46.13,50s2.92,6.72,3.5,3.8.3-7.6,2-5.55,4.09-2.34,3.22-2.34-17,2.92-17,2.92Z"/></svg>