<svg id="Layer_1" data-name="Layer 1" xmlns="http://www.w3.org/2000/svg" viewBox="0 0 120.22 85.99"><defs><style>.cls-1{fill:#006657;}.cls-2{fill:#c64f1a;}.cls-3{fill:#983233;}.cls-4{fill:#009a87;}</style></defs><title>Forest_Hint2</title><path class="cls-1" d="M34.63,62.59c.23.34,2.74,15.62,8.22,13.69s5.81-4.11,5.81-4.11-1.37,7.76.8,6.27a13.2,13.2,0,0,0,3.2-3s.57,4,3.76,2.85a7.69,7.69,0,0,0,4.22-3.08s8.1,6.27,10.38,4.22.34-4.56.34-4.56,6.39,5.81,6.16,3.76-1-4-.68-3.88,6.62,4.57,7.42,2.17-.69-5.13-.69-5.13,5.93,5.36,7.64,3.65,3.65-5.82,3.65-5.82,14.61-8.67,9.93-12.89-32.51-33-33.2-32.17-31.48,2.62-31.94,2.74S26.42,37.15,28.13,42.51,34.63,62.59,34.63,62.59Z"/><path class="cls-2" d="M45,54.88c.57.11,7.3,5.36,9.24,10.27s7.19,9.47,1.37,15.17c0,0,3.08,6.16,9.36,5.13s7-4.67,7-4.67-4.68-8-3.66-8.56,3.88.68,7.19,0,20.65-6.39,20.65-6.39l3.54-4s-25,8-23.39,5.82S93,54.31,93,54.31l-5-5.7S83.8,58.07,78.78,60.7a91.17,91.17,0,0,1-10.15,4.45s-.35-5.48,1.14-7.53,7.53-5.59,7.75-8.1,2.17-10,2.17-10-9.81,1.94-10.15,2.17.46,6.84-2.28,9.92-2.4,5-4.34,7.3-.34,3.88-3.42,3S53.8,58,52.31,54.65s-12.09-7.41-12.09-7.41l2.28,5.24Z"/><path class="cls-3" d="M63.6,85c-5.54,0-8.31-5.41-8.34-5.47l-.13-.27.21-.2c4.25-4.18,2.31-7.66.25-11.34a27,27,0,0,1-1.71-3.4c-1.84-4.65-8.24-9.75-9-10l-.12,0-.06-.07-2.6-2.53-2.67-6.14.91.35c.44.17,10.78,4.21,12.31,7.63s4.23,6.16,6.94,7c.79.23,1.29.3,1.48.19s.19-.29.3-.67a5.9,5.9,0,0,1,1.21-2.36,10.35,10.35,0,0,0,1.66-2.92A14.7,14.7,0,0,1,67,50.34C68.88,48.18,69,44,69,42c0-1.16,0-1.47.29-1.65S75.1,39,79.61,38.12l.64-.13-.16.63c0,.07-1.94,7.52-2.16,10-.16,1.74-2.54,3.68-4.85,5.57a19.22,19.22,0,0,0-3,2.73C69,58.44,69,62.2,69,63.61a90.14,90.14,0,0,0,9.58-4.24c4.84-2.52,9-11.8,9.06-11.89l.26-.58,5.73,6.51-.36.26c-5,3.69-14.55,10.91-16.47,13,2.26,0,13-3.09,22.72-6.18l1.41-.45-4.59,5.18-.1,0c-.71.24-17.4,5.72-20.7,6.4a14.61,14.61,0,0,1-5,0,5.41,5.41,0,0,0-2-.07c-.14.78,1.81,4.72,3.75,8l.07.13,0,.15c0,.16-.81,3.94-7.29,5A9.12,9.12,0,0,1,63.6,85Zm-7.48-5.58c.65,1.13,3.53,5.52,8.79,4.66s6.39-3.57,6.59-4.22c-1.07-1.84-4.1-7.2-3.73-8.54a.66.66,0,0,1,.32-.43,4.52,4.52,0,0,1,2.57-.06,13.79,13.79,0,0,0,4.73,0c3.11-.65,19-5.87,20.5-6.34l2.49-2.81c-10.14,3.21-21.7,6.57-22.49,5.47a.59.59,0,0,1,0-.73c1.5-2,14.15-11.43,16.5-13.17l-4.31-4.9c-1,2.11-4.74,9.4-9.16,11.71a92.22,92.22,0,0,1-10.21,4.48l-.5.18,0-.54c0-.23-.33-5.65,1.22-7.79a19.16,19.16,0,0,1,3.13-2.89c2-1.61,4.42-3.62,4.55-5a96.12,96.12,0,0,1,2-9.48c-3.42.68-8.31,1.68-9.27,2,0,.21,0,.63,0,1,0,2.27-.15,6.48-2.27,8.87A13.34,13.34,0,0,0,65,55.05a11,11,0,0,1-1.79,3.12,5.18,5.18,0,0,0-1,2.06,1.69,1.69,0,0,1-.7,1.17c-.41.23-1,.19-2.09-.14-3-.88-5.76-3.65-7.45-7.41C50.79,51.29,43.57,48.1,41,47l1.85,4.26,2.4,2.29c1.29.61,7.55,5.81,9.39,10.46a27.75,27.75,0,0,0,1.67,3.31C58.38,71.06,60.54,74.91,56.12,79.43ZM69.89,40.87Z"/><path class="cls-4" d="M38.91,58.64s4.79.86,5.82,5-6,3.77-6.68,3.6,4.11,1.71,2.23,6.16-5.65-1-6.16-1.37.68,3.25-2.23,7.18-6.16-4.45-6.16-4.45-.17,1.72-2.91,6-5.47-4.27-5.47-4.27S9.82,84.31,4.69,85.68s-3.43-1.89,2.22-6,5.31-11.3,5.31-11.3a38.15,38.15,0,0,1-6.85,5.48c-4.11,2.57-4.79,3.25-5-.69S11.7,63.26,11.7,63.26s-.85.17-5.47,1.37-7.36-.34-1.2-4.11a19.32,19.32,0,0,1,11.81-3.08s6.84-8.21,6-8.21-14.37,8.9-10.26,2.56S24.19,42,24.19,42s-12.66,3.25-8.72-.17a41.62,41.62,0,0,1,8.21-5.48S8.79,39.65,12.56,34.17,24,28,24,28s-5.47-2.57-1.37-7.19,8.39-2.39,10.78-.68c0,0,.17-7.7,5.31-6.5,0,0,4.45-9.07,9.41-5.48s4.62,5,4.62,5S51.4,2,57.9,2.34s3.43,9.41,3.94,9.07S74.5.46,76.38,7,72.11,23.05,73,22.36s6.33-6.33,9.24-4.1-5.13,6.67-4.45,6.5,14.72-5.48,15.06-.86-6.67,7.19-6.16,7.53,12.84-.85,9.75,1.88-7.7,3.6-7.18,3.94,13-6.16,15.4-2.22-6.16,7-6,7.52,16.94,2.74,16.43,6.85-9.59,2.74-9.59,2.74,12.84-.35,13.52,3.93-9.24,2.4-8.38,2.91,10.44,3.77,9.07,6.68-9.76,1.54-9.76,1.54,9.59,6.16,4.79,8.89-10.6-.85-10.6-4.27c0,0-2.57,9.24-7.53,6.5s-3.43-7-3.43-7-6.5,5.31-6.33,1.54,9.58-8,9.58-8-6.67,1.2-4.62-2.91c0,0-4.62,2-4.1-2.74a21.92,21.92,0,0,1,2.74-8.38s-5.14,7.36-7.53,5S84.43,48,84.43,48L50.37,46l-4.79,3.59s4.11,2.74.35,5.31A36.4,36.4,0,0,1,38.91,58.64Z"/><path class="cls-1" d="M2.75,84.47c-.75,0-1.23-.22-1.43-.66-.8-1.66,3.48-5,5.35-6.38,4.18-3,5-7.9,5.11-10a39.19,39.19,0,0,1-6.19,4.82l-.7.44c-2.13,1.34-3.2,2-4,1.6S.08,73,0,71.27c-.13-3,5.45-6.77,8.92-8.84l-2.59.66c-2.16.56-4.66.71-5.19-.56-.46-1.07.78-2.51,3.68-4.28A20,20,0,0,1,16.58,55.1h.07c2.25-2.71,4.59-5.69,5.47-7.06L20.4,49c-5.28,2.94-7.95,4.17-8.8,3.26-.56-.6,0-1.71.62-2.6a28.81,28.81,0,0,1,9.11-8.45c-3.08.66-6.43,1.11-6.94.13-.32-.61.31-1.26.81-1.69a41.3,41.3,0,0,1,6-4.31c-3.18.52-8.28,1-9.44-.69-.45-.68-.31-1.56.42-2.63,3-4.35,8.31-5.75,10.63-6.17a5,5,0,0,1-2.06-2.9c-.28-1.38.24-2.83,1.56-4.32,3-3.42,6.65-3.8,10.73-1.15.13-1.34.61-4.18,2.37-5.54a3.74,3.74,0,0,1,3.07-.68c.61-1.15,3-5.35,6.2-6.14a4.31,4.31,0,0,1,3.67.79,21.08,21.08,0,0,1,3.85,3.39c0-2.25.21-5.91,2.07-7.9A4.39,4.39,0,0,1,57.92,0a4.53,4.53,0,0,1,3.43,1.55c1.65,2,1.18,5.38.93,7,5.86-4.7,10.06-6.69,12.49-5.93a3,3,0,0,1,2,2.24C78.16,9.72,75.39,16,74,19c2.11-1.85,6-4.89,8.49-3a1.81,1.81,0,0,1,.79,1.53c0,1.35-1.5,2.8-3.25,4.14,6.5-2.08,10.53-2.52,12.27-1.37a2.1,2.1,0,0,1,1,1.64c.26,3.62-3.57,6-5.42,7.15l-.13.08,1.38,0c5.1-.09,7.77.06,8.2,1.16.16.43,0,.89-.58,1.38a11.83,11.83,0,0,1-1.33,1c3.84-1.28,8.2-2.18,9.63.17a3,3,0,0,1,.38,2.35c-.56,2.19-3.52,3.87-5.29,4.88l-.63.37,2,.45c7,1.52,14.4,3.4,14,6.58a3,3,0,0,1-1.2,2,5.06,5.06,0,0,1-1.41.72c3.16.52,6.19,1.6,6.54,3.81a2.29,2.29,0,0,1-.52,2c-1.25,1.4-4.28,1.44-6.38,1.37,2.64,1.1,6.8,3,7.59,5a1.81,1.81,0,0,1,0,1.46c-1.11,2.36-5.92,2.23-8.54,2,1.87,1.4,5,4.1,5,6.38a2.65,2.65,0,0,1-1.54,2.26,8,8,0,0,1-8.07-.13,6.62,6.62,0,0,1-2.83-3c-.68,1.78-2.09,4.71-4.27,5.62a3.7,3.7,0,0,1-3.37-.28c-3.63-2-4-4.84-3.82-6.39-1.45,1.07-4.12,2.82-5.42,2.17a1.55,1.55,0,0,1-.72-1.62c.13-2.9,5.1-6,7.93-7.46a3.84,3.84,0,0,1-3-1,2,2,0,0,1-.24-1.79,3.49,3.49,0,0,1-2.87-.27c-.79-.57-1.11-1.64-1-3.17a22.44,22.44,0,0,1,1.34-5.47c-1.29,1.39-3,2.84-4.37,3a2,2,0,0,1-1.64-.59c-2.13-2.13.1-6.11,1.09-7.63l-33.19-2-4.25,3.19a4.19,4.19,0,0,1,1.67,2.9,3.35,3.35,0,0,1-1.77,2.73,39.19,39.19,0,0,1-6,3.36,7.3,7.3,0,0,1,5,4.94,2.69,2.69,0,0,1-.65,2.73c-1.2,1.2-3.57,1.44-5.14,1.45a4.76,4.76,0,0,1,1.32,5.83,2.82,2.82,0,0,1-2,2c-1.64.27-3.34-1.56-4.28-2.63a10.86,10.86,0,0,1-2.15,6.58A2.39,2.39,0,0,1,30,78.68c-1.84-.24-3.4-3.07-4.15-4.68a27.11,27.11,0,0,1-2.64,5c-.65,1-1.38,1.48-2.18,1.38-1.84-.25-3.27-3.64-3.81-5.12C15.44,77,9.3,82.94,4.79,84.14A8.18,8.18,0,0,1,2.75,84.47Zm9.83-19,0,1c0,.3.29,7.45-5.47,11.64-4.3,3.12-5.29,5-5.1,5.38.08.17.72.37,2.53-.11C9.55,82,17,74.3,17.06,74.23l.47-.5.2.65c.62,1.92,2.07,5,3.37,5.19.46.06.92-.28,1.38-1,2.62-4.1,2.85-5.8,2.85-5.82l.19-1.62.59,1.52c.54,1.38,2.29,5,4,5.23.52.06,1-.22,1.5-.88a10,10,0,0,0,2-6.3c0-.58,0-.87.3-1a.46.46,0,0,1,.49,0,3.51,3.51,0,0,1,.55.56c.77.87,2.38,2.66,3.63,2.46.54-.09,1-.58,1.38-1.47.94-2.21.27-4.08-2-5.55-.17-.11-.46-.3-.32-.62l.14-.32.4.09c.51.13,4.31.31,5.75-1.13a1.92,1.92,0,0,0,.43-2c-.95-3.79-5.45-4.65-5.49-4.66l-1.47-.26,1.4-.52a35.8,35.8,0,0,0,6.93-3.72,2.63,2.63,0,0,0,1.41-2A3.89,3.89,0,0,0,45.36,48l-.48-.32,5.37-4h.15l34.8,2.1-.45.6s-3.7,5-1.58,7.18a1.19,1.19,0,0,0,1,.35c2-.17,4.93-3.86,5.91-5.26l.68.44a22,22,0,0,0-2.68,8.22c-.13,1.22.08,2,.61,2.42.84.61,2.4.14,2.93-.1l1-.45-.5,1c-.4.8-.46,1.4-.17,1.78.71,1,3.45.71,4.35.55l3.18-.57-2.94,1.34c-2.55,1.16-9.21,4.81-9.34,7.69q0,.7.27.87c.87.44,3.68-1.34,5.4-2.74L94,68.14l-.48,1.37c-.06.16-1.35,4,3.23,6.52a2.91,2.91,0,0,0,2.67.24c2.76-1.16,4.26-6.44,4.27-6.49l.8-2.86v3a4.84,4.84,0,0,0,2.74,3.8,7.2,7.2,0,0,0,7.26.12,1.88,1.88,0,0,0,1.14-1.58c.06-2.25-4.27-5.54-6-6.62l-1.64-1.06,1.93.32c2.25.36,8.3.84,9.32-1.32a1,1,0,0,0,0-.82c-.73-1.88-5.63-3.92-7.72-4.8a11.4,11.4,0,0,1-1.2-.53l-.27-.16,0-.36c.11-.37.35-.36,1.5-.3,1.76.08,5.42.25,6.59-1.06a1.47,1.47,0,0,0,.33-1.31c-.35-2.17-4.6-3.09-8.4-3.43a23.53,23.53,0,0,1-4.78-.17l0-.81a44.89,44.89,0,0,1,4.83.16,7,7,0,0,0,3.48-1.06,2.09,2.09,0,0,0,.88-1.48c.34-2.7-9.26-4.79-13.37-5.68-2.76-.6-2.93-.66-3-1s.25-.67,1.42-1.33c1.66-1,4.43-2.53,4.91-4.38a2.16,2.16,0,0,0-.3-1.73c-1.62-2.66-9,.24-12.61,1.63-2.1.82-2.38.91-2.67.72l-.2-.14v-.31c0-.37.38-.5,1.5-.93a19.06,19.06,0,0,0,5.86-3.2c.33-.29.36-.45.35-.48-.3-.77-5.67-.67-7.43-.64-2,0-2.41,0-2.63-.12l-.19-.12,0-.27c0-.34.29-.52,1.15-1.05,1.71-1.06,5.27-3.27,5-6.4a1.28,1.28,0,0,0-.6-1c-1.13-.75-4.36-1-13.33,2l-.63.2-.33.09L77.34,23c-.15-.34,0-.47.73-.95,1.18-.82,4.33-3,4.36-4.54a1,1,0,0,0-.47-.86C79.67,14.9,75.2,19,73.74,20.29l-.52.46L73,21l-.32-.17c-.31-.24-.22-.43.38-1.69,1.19-2.51,4.35-9.19,3-13.94a2.22,2.22,0,0,0-1.46-1.69c-1.24-.39-4.45-.12-12.05,6l-.42.33-.22.15-.25-.14c-.28-.18-.25-.43-.12-1.27.22-1.53.69-4.72-.75-6.48A3.71,3.71,0,0,0,57.88.82a3.57,3.57,0,0,0-3,1.12C52.71,4.29,53,9.55,53.14,10.85a.83.83,0,0,1,0,.44l-.53,2.12-.26-2.17s0-.14,0-.31c-.15-.44-.88-1.81-4.42-4.37a3.46,3.46,0,0,0-3-.66c-3.24.8-5.79,5.93-5.82,6l-.14.29-.31-.08a3,3,0,0,0-2.7.47c-2,1.54-2.11,5.61-2.11,5.65l0,.77-.62-.45c-4-2.85-7.34-2.64-10.24.62a4.23,4.23,0,0,0-1.37,3.61c.38,1.87,2.58,2.93,2.6,2.94l1.36.64-1.49.14c-.08,0-7.56.73-11.17,6-.53.77-.67,1.34-.42,1.72,1,1.46,7.35.7,11.12-.12L27,33.33l-3.12,1.5a41.08,41.08,0,0,0-8.13,5.42c-.6.52-.62.73-.62.73.43.44,4.55-.12,9-1.26l.27.76c-.07,0-7.47,3.45-11.46,9.61-.84,1.29-.7,1.61-.7,1.61.63.57,6-2.43,7.8-3.42,2-1.11,2.53-1.39,2.82-1.39h.26l.18.27c.12.27.38.82-6.11,8.61l-.12.15h-.5a19.29,19.29,0,0,0-11.29,3c-3,1.82-3.51,2.92-3.35,3.28s1.65.76,4.23.09c4.58-1.19,5.47-1.37,5.5-1.38l2.79-.55-2.52,1.31C8.76,63.32.68,68.22.81,71.24c0,.59.1,2.17.47,2.36S2.89,73,4.46,72l.7-.43a38.14,38.14,0,0,0,6.76-5.41Z"/><path class="cls-4" d="M75,34.57s11.63,5,9.06,7.88-10.6,1.88-10.6,1.88c3.42,2.05,5,5.47-1.72,5.82s-8.21-3.94-8.21-3.94.68,2-3.25,4.11S56.53,46,56.53,46s1,2.91-4.1,3.25-1-7-1-7a113.48,113.48,0,0,1-11.46,5.65c-5.14,2.06.68-4.62.68-5.3s-6,5.47-8.9,1.19,11-6.84,11-6.84Z"/><path class="cls-1" d="M58.88,50.17a2,2,0,0,1-1.11-.31,3.88,3.88,0,0,1-1.42-2.51,5.76,5.76,0,0,1-3.9,1.38,2.65,2.65,0,0,1-2.62-1c-.91-1.43,0-3.92.63-5.41a108.27,108.27,0,0,1-10.37,5c-.9.36-2,.7-2.48.09-.63-.78.34-2.36,1.79-4.51l.13-.2c-1.41,1-3.72,2.39-5.78,2a3.63,3.63,0,0,1-2.36-1.63,2.26,2.26,0,0,1-.3-2.25c1.38-3.31,11.1-5.15,11.51-5.22l.15.79c-2.69.5-9.9,2.33-10.91,4.74a1.48,1.48,0,0,0,.22,1.48,2.81,2.81,0,0,0,1.84,1.3c1.91.35,4.26-1.25,5.52-2.11.8-.54,1.06-.72,1.37-.56l.21.11,0,.29c0,.29-.25.67-1,1.72-.52.77-2.11,3.14-1.83,3.54,0,0,.25.19,1.55-.33A115.77,115.77,0,0,0,51.2,41l1.26-.72-.7,1.27c-.64,1.14-2.11,4.41-1.25,5.77a1.91,1.91,0,0,0,1.89.64c1.8-.12,3-.59,3.54-1.35a1.61,1.61,0,0,0,.22-.51c0-.55,0-1,0-1l.06-2.19.73,2.07A2.51,2.51,0,0,1,57,46.12c.11,1.1.42,2.55,1.23,3.05a1.89,1.89,0,0,0,1.9-.18c3.53-1.84,3.06-3.6,3-3.62l.77-.26c.06.16,1.54,4,7.81,3.67,2.5-.13,4-.71,4.23-1.63s-.88-2.34-2.7-3.44l-1.66-1,1.92.24c.07,0,7.86,1,10.25-1.75a.93.93,0,0,0,.24-.89c-.5-2.2-6.78-5.32-9.16-6.34l.31-.74c.92.39,9,3.9,9.64,6.9a1.77,1.77,0,0,1-.42,1.61c-2,2.27-6.93,2.3-9.45,2.15,1.21,1,2.12,2.25,1.82,3.45s-2,2.09-5,2.24c-4.7.25-7-1.72-8-3.05-.32.88-1.17,2-3.34,3.17A3.51,3.51,0,0,1,58.88,50.17Z"/><path class="cls-1" d="M23.09,68.7a2.16,2.16,0,0,1-1.89-.77,2.47,2.47,0,0,1-.2-2,5.41,5.41,0,0,1-3.1,2.19,3.24,3.24,0,0,1-2.57-.75,2.53,2.53,0,0,1-1.13-2.31c.33-3,6.53-6,6.8-6.14l.34.73c-2.43,1.16-6.12,3.57-6.33,5.5a1.71,1.71,0,0,0,.82,1.57,2.43,2.43,0,0,0,1.94.6c1.55-.25,2.83-2.17,3.53-3.2.4-.6.55-.83.8-.89l.24-.06.2.2c.2.24.1.48-.16,1.08-.32.76-1,2.34-.51,3,.22.31.7.45,1.45.42a5.51,5.51,0,0,0,5.11-3.38l.77.26a6.39,6.39,0,0,1-5.84,3.93Z"/></svg>