<svg id="Layer_1" data-name="Layer 1" xmlns="http://www.w3.org/2000/svg" viewBox="0 0 147.35 184.6"><defs><style>.cls-1{fill:#c64f1a;}.cls-2{fill:none;stroke:#8343ff;stroke-linecap:round;stroke-miterlimit:10;stroke-width:0.75px;}.cls-3{fill:#983233;}.cls-4{fill:#009a87;}.cls-5{fill:#006657;}</style></defs><title>Forest_Hint1</title><path class="cls-1" d="M127.51,64c-.48.47-14,41.64-15,54.58s-5.52,29-8.2,36.91S100.69,176,100.69,176l5,2.36-19.09-2.52A76.24,76.24,0,0,0,96,154.06c2.84-12,11.67-36.44,14.35-44.8S119,68.09,120.88,65.57,127.51,64,127.51,64Z"/><path class="cls-1" d="M47.85,36.47s2.52,26.34,4.57,39.6,1.74,23.66.63,25.39-1.73,2.84-1.73,2.84,3.15,1.58,3.47,3.47,4.26,15.78,3.94,20.35,6.15,43.86,1.42,48.75-13.09,7.73-13.09,7.73,27.13,0,30.13-1.42,7.57,0,8.2,0-4.73-3.16-3.94-3.32,15-1.57,14.35-1.57-16.09-3-18.14-5.68-9.31-32.18-10.1-39.76S66.93,122,65,118s-5.68-22.88-5.68-22.88l-2-28.23s-1.42-30-3.79-30.92S45.79,1.92,46,2.4,47.85,36.47,47.85,36.47Z"/><path class="cls-2" d="M46.18,117.06s-1.74,3.63-4.58,4.89"/><path class="cls-2" d="M70.47,86.46c.94-.7,10.74.27,17.35-.95"/><path class="cls-3" d="M46,182.83H44.2l1.72-.59c.09,0,8.35-2.88,13-7.66,3.29-3.4.89-24.94-.55-37.82-.61-5.46-1.05-9.41-1-10.73.24-3.4-2-12.23-3.15-17-.41-1.64-.71-2.82-.79-3.3-.28-1.72-3.27-3.23-3.3-3.25l-.29-.14.16-.28s.65-1.13,1.74-2.85S53.11,87.12,51.09,74s-4.56-39.35-4.58-39.61v0C45.92,23,44.76,1.12,44.62.4h0c0-.07,0-.11,0-.12l0-.24.47,0,.08.23a3.14,3.14,0,0,1,0,.4c.47,3.76,5.41,32.24,7.35,33,2.42,1,3.74,26.14,4,31.18l2.05,28.23c0,.15,3.79,18.9,5.65,22.76,1.49,3.11,1.73,5.87,2.13,10.44.11,1.32.24,2.8.42,4.49.78,7.49,8,36.95,10,39.6s17.28,5.55,17.91,5.56h.28l0,.28c0,.16,0,.24-.32.31h0c-.3.07-.85.13-1.86.23l-4.42.47c-3.06.32-6.46.68-7.62.82.45.4,1.43,1.07,2.07,1.51,1.67,1.16,1.88,1.32,1.78,1.63l-.06.22-.28,0a5.56,5.56,0,0,1-.86-.15c-1.59-.31-4.9-1-7.21.12C73.26,182.81,47.13,182.83,46,182.83Zm4.68-80.72c.81.45,3.07,1.85,3.35,3.54.07.46.38,1.69.77,3.25C56.1,114,58.24,122.58,58,126.07c-.09,1.27.37,5.4,1,10.63,1.54,13.82,3.87,34.7.38,38.3s-9,6.14-11.66,7.22c5.92,0,25.87-.21,28.35-1.39s5.68-.54,7.39-.2l-.85-.59c-2.2-1.52-2.6-1.88-2.52-2.25a.37.37,0,0,1,.31-.29c.42-.09,4.3-.49,8.05-.89l4.29-.45c-4.47-.88-14.62-3.24-16.31-5.44-2-2.69-9.37-32.37-10.15-39.91-.18-1.69-.31-3.18-.42-4.5-.4-4.5-.63-7.21-2.08-10.22-1.89-3.94-5.55-22.17-5.7-23L56,64.87c-.68-14.45-2.17-30.1-3.59-30.66-1.88-.76-5.12-18-6.75-27.58.47,8.28,1.2,22.28,1.48,27.75,0,.54,2.56,26.55,4.57,39.57,2,12.57,1.87,23.58.59,25.6C51.49,100.77,51,101.68,50.7,102.11Z"/><path class="cls-3" d="M106.6,177.87,85.1,175l.26-.4A76.34,76.34,0,0,0,94.63,153c2.07-8.74,7.25-23.9,11-35,1.39-4.06,2.59-7.57,3.32-9.85,1.19-3.72,3.08-12.46,4.91-20.92,2.37-11,4.62-21.41,5.71-22.86,2-2.65,6.72-1.73,6.92-1.69l.55.11-.37.37c-.84,1.56-14,41.83-14.92,54.41-.89,12.06-5,27.46-8.22,37-2.45,7.21-3.46,18.56-3.6,20.23Zm-20.48-3.31,16.69,2.2-3.47-1.62v-.21c0-.13,1-12.75,3.65-20.58,3.23-9.5,7.31-24.84,8.19-36.84S124.1,67.79,126,63.19c-1.13-.15-4.49-.42-5.94,1.52-1,1.34-3.35,12.16-5.6,22.63-1.83,8.47-3.72,17.23-4.93,21-.73,2.28-1.93,5.79-3.32,9.86-3.78,11.06-9,26.21-11,34.91A77.28,77.28,0,0,1,86.12,174.56Z"/><path class="cls-4" d="M47.13,17.7s.15,18.61-11.2,24-14,6.46-14,6.46l20-5.67-2.05,3.62s7.73-5.83,7.73-5.36a22.27,22.27,0,0,0,2.21,4.1c-.16-.47.15-5.52.79-5s6.94,5.53,9.62,5.53L59,42.78s11.67.79,13.88.32.63-1.9.63-1.9l6.47-.63S57.38,35.68,53.28,29.85A51.66,51.66,0,0,1,47.13,17.7Z"/><path class="cls-4" d="M50,59.1S39.24,67.3,32.3,66.51a9.58,9.58,0,0,0,9,1.89s-3.79,6.31-3.16,6,9.31-5.84,9.78-6-.63,6.79-.63,6.79l6.16-7.89S60.06,73.61,59.9,73,57.54,66.83,58,67s12.3,4.42,20.82,1.74L66.21,63.83s7.89-.16,11.52-2.68c0,0-18.93-.95-20.82-2.84C56.91,58.31,52.33,61,50,59.1Z"/><path class="cls-4" d="M48.86,83.23c-.58-.25-7.73,4.89-17.19,4.1,0,0,7.25,2.21,6.78,2.21s-21.77,2.84-29.66,2-1.26,0,.32.79,15.46,2.53,21.45,1.42c0,0-7.89,7.73-7.41,7.42s15.3-7.73,14.51-6.94-1.42,3.47-.79,3.15,8.68-3.31,8.68-3.31,2.36,3.63,2.36,3S50.6,94,50.6,94a33.17,33.17,0,0,0,14.51.47s-4.58-1.89-4-1.89,14.52-.47,14-.32-6-2-5.52-1.89,14.52.79,20.83-1.26l-4.89-2a34.92,34.92,0,0,0,12.3-7.26s-30.92,4.1-38.81,2A10.09,10.09,0,0,1,48.86,83.23Z"/><path class="cls-4" d="M53.75,106.74C53,106.19,39.4,121.09,25.2,123c0,0,9.15.32,13.09-1.41l-5,5.52s7.1-2.37,8.36-3.47-.47,2-.47,2l9.94-7.58,1.1,1.58,6.16-5.2s.31,4.26,5,3.62,3.95-.63,3.95-.63l14,.48-11-3.47s12.47-.79,12-.79-10.57-2.53-10.09-2.53,15.46.63,23.82-3.94,8.2-6.78,8.2-6.78-33.13,7.73-33,7.25,4.26-3.62,4.26-3.62L59.75,105S55.8,108.16,53.75,106.74Z"/><path class="cls-4" d="M52.17,110.52c-1.1,0-16.72,2.84-25.24.32s-9.46-2.53-9.46-2.53,12.3,4.89,10.88,5-6.94.48-6.46.63,9.78,4.58,17.51,2.69A34.21,34.21,0,0,0,52.17,110.52Z"/><path class="cls-5" d="M22,46.36l-.2-.57s2.82-1.16,14-6.46c11.05-5.22,11-23.52,11-23.7v-2l.6,1.85A51.8,51.8,0,0,0,53.52,27.6c4,5.68,26.26,10.56,26.48,10.61l1.88.4-7.81.77a1.29,1.29,0,0,1,.22,1c-.13.46-.59.78-1.39,1-2,.42-11.11-.13-13.44-.28l1.25,2.49h-.49c-1.71,0-4.93-1.81-9.57-5.39l-.1-.08a16.61,16.61,0,0,0-.46,4.61l0,.18L50,43l-.15.13-.18-.08a21.64,21.64,0,0,1-2.28-4c-.93.5-4.34,3-7.36,5.24l-1.16.88,2.41-4.26Zm25.4-29.17c-.27,4.62-1.87,18.23-11.32,22.69-4.79,2.26-8,3.77-10.21,4.76l16.7-4.74-1.7,3c6.4-4.79,6.69-4.64,6.88-4.54l.17.08v.21a23.32,23.32,0,0,0,1.58,3.07c0-1.48.26-3.89.78-4.27a.44.44,0,0,1,.52,0l.24.19c5,3.89,7.5,5,8.68,5.21l-1.25-2.5.53,0c.11,0,11.65.78,13.79.32.54-.12.87-.3.93-.52s-.26-.7-.43-.85l-.51-.46,5.3-.52C72.58,37.08,56.51,32.9,53,28A52.53,52.53,0,0,1,47.37,17.19Z"/><path class="cls-5" d="M46.8,75.26,47,74.1a56.84,56.84,0,0,0,.74-6.3c-.87.5-3.47,2.13-5.45,3.36s-3.73,2.33-4,2.47l-.2.1-.22-.16c-.17-.19-.37-.4,2.8-5.73a9.92,9.92,0,0,1-8.56-2.15l-.65-.61.89.1c6.74.76,17.34-7.28,17.45-7.36l.19-.14.18.15c2.18,1.74,6.56-.79,6.6-.82l.2-.12.17.17c1.48,1.49,15.39,2.49,20.62,2.75l.89,0-.73.5c-2.75,1.92-7.79,2.49-10.26,2.67l12.1,4.68-.82.26c-7.61,2.4-17.93-.7-20.62-1.61.2.83.94,2.84,1.32,3.89s.53,1.43.58,1.62l0,.22-.2.15c-.24.14-.48.28-6.58-5.53ZM48,67l.17.12c.14.11.45.37-.39,5.9l5.64-7.23.24.23c2.17,2.06,4.58,4.28,5.71,5.21-.09-.24-.19-.51-.29-.8-1.49-4-1.54-4.47-1.31-4.71l.13-.14.3.08c2,.69,12,3.91,19.7,2l-13.2-5.12,1.53,0c.07,0,6.75-.16,10.52-2.13-4.06-.23-17.49-1.09-19.85-2.72-.89.48-4.64,2.35-6.91.8-1.42,1.05-10.18,7.39-16.69,7.39h0a9.35,9.35,0,0,0,8,1.25l.74-.22-.39.66c-1.19,2-2.43,4.16-2.94,5.21L42,70.65c3.92-2.44,5.6-3.48,5.86-3.57Z"/><path class="cls-5" d="M23.09,100.58l-.2-.2c-.07-.09-.12-.16.09-.45h0c.46-.6,2-2.13,6.69-6.72-6.33.79-19-.73-20.71-1.58a17.46,17.46,0,0,0-3.08-.84c-1.14-.25-1.23-.27-1.18-.58s0-.35,4.11.06c6.65.66,22.75-1.25,28-1.88l.33,0c-1.43-.47-3.9-1.23-5.61-1.75l-2.71-.83,2.82.24c7.11.59,12.81-2.16,15.55-3.48,1.17-.57,1.49-.71,1.74-.6h0c5.43,2.41,9.89-1.33,9.94-1.37l.12-.1.15,0c7.74,2,38.38-2,38.69-2.06l.9-.12-.65.63A35.19,35.19,0,0,1,86.46,86l4.91,2.06-.77.25c-4.91,1.59-14.75,1.59-19,1.42a26,26,0,0,0,3.55,1.16h0c.34,0,.35.12.37.23l0,.25-.26.09a.74.74,0,0,1-.33,0c-1.2,0-7.73.17-11,.26l-1.84.06c.77.36,2,.88,3.06,1.34l.91.37-1,.2a33.85,33.85,0,0,1-14.49-.43,12.53,12.53,0,0,0-2.46,2.82.36.36,0,0,1-.25.36c-.22.06-.49.14-2.54-3-2.84,1-8,3-8.42,3.21a.45.45,0,0,1-.58-.12c-.31-.43,0-1.83.52-2.78C34.07,95,24,100,23.31,100.43Zm8.39-8.29-.71.69c-2,1.93-4.63,4.56-6.17,6.1,1.48-.75,3.72-1.87,5.78-2.88,7.26-3.55,7.34-3.45,7.54-3.2l.17.21-.22.24a5.16,5.16,0,0,0-1,2.6c1.32-.56,8.22-3.14,8.53-3.25l.23-.09.13.21a33.48,33.48,0,0,0,2,2.74,17.22,17.22,0,0,1,2.64-3l.12-.11.17,0a33.45,33.45,0,0,0,13.38.66c-3.33-1.41-3.3-1.57-3.25-1.83a.33.33,0,0,1,.35-.26L64,91.12c4.56-.14,7.3-.22,9-.25-1.31-.44-2.79-1-3.32-1.28h0a.84.84,0,0,1-.18-.11l-.13-.18.26-.36.24.08c.7.16,13.4.67,19.83-1l-4.87-2,.79-.25A35.48,35.48,0,0,0,97,79.15c-5.28.67-30.47,3.74-37.84,2a10.5,10.5,0,0,1-10.41,1.38,11.41,11.41,0,0,0-1.28.57,31.88,31.88,0,0,1-13.56,3.62c4.88,1.5,4.87,1.57,4.83,1.87l0,.25h-.28L36.93,89c-5.31.63-21.45,2.55-28.17,1.88H8.67a3.54,3.54,0,0,1,.57.23c1.37.68,15.18,2.51,21.27,1.39Zm17.26-9.82Z"/><path class="cls-5" d="M32.24,126.7l5-5.48c-4.31,1.28-11.72,1-12.06,1l0-.6c10.45-1.39,20.58-9.92,25.45-14,2.41-2,2.93-2.45,3.31-2.19h0c1.53,1.06,4.59-.88,5.64-1.72l.07-.06,16.85-1-.78.6c-1.43,1.1-3,2.34-3.7,3,3.65-.62,20.62-4.49,32.16-7.18l.35-.08,0,.35c0,.25-.07,2.53-8.36,7.07-6.39,3.5-16.61,4-21.72,4,2.82.73,7.49,1.87,7.86,1.89l.27,0,0,.27c0,.16,0,.24-.32.29v0h-.07c-.31,0-.84.08-1.77.14l-4.13.27-4.38.28,11.61,3.65-16.13-.55a33.29,33.29,0,0,1-4,.63,4.81,4.81,0,0,1-3.8-.85A4.49,4.49,0,0,1,58.12,114l-6,5.08L51,117.49l-10.82,8.24.69-1.24c.28-.52.57-1.12.74-1.54-1.66,1.18-8,3.29-8.27,3.39Zm7.24-7-5.22,5.71c2.57-.9,6.31-2.31,7.15-3,.17-.15.52-.46.81-.22.13.1.33.26-.22,1.46l9.14-7,1.09,1.56,6.35-5.37.05.59a3.74,3.74,0,0,0,4.7,3.35c3.33-.44,3.83-.56,3.91-.59l.07.22v-.26h.28l11.56.39-10.48-3.3,1.62-.1,9.88-.64L77,111.72c-5.11-1.28-5.11-1.29-5.11-1.6v-.3h.49c3.66.09,16.18.09,23.5-3.91,6-3.27,7.51-5.3,7.91-6.11C71.47,107.34,71.19,107,71,106.86l-.12-.13,0-.18a22,22,0,0,1,3.59-3.17l-14.7.88c-.58.45-4.12,3-6.2,1.74A24.34,24.34,0,0,0,51,108.1c-4.44,3.74-13.23,11.13-22.73,13.55,3-.06,7.49-.33,9.9-1.4ZM53.58,106Z"/><path class="cls-5" d="M35.24,116.41a34.69,34.69,0,0,1-13.18-3l-.27-.12-.23-.07v-.27c0-.34,0-.35,4.3-.67l1.91-.15c-1.46-.83-6.13-2.82-10.41-4.52L15.89,107h1.58c.1,0,1.23.07,9.55,2.53,7,2.09,19,.48,23.44-.12,1-.14,1.52-.2,1.71-.2H53l-.63.53a35,35,0,0,1-12.9,6.21A17.73,17.73,0,0,1,35.24,116.41ZM23,113.07c6.22,2.53,12,3.34,16.37,2.28a35.31,35.31,0,0,0,11.81-5.44l-.59.08c-4.52.61-16.54,2.22-23.69.1-2.41-.71-4.21-1.22-5.55-1.59,7.56,3.12,7.5,3.57,7.47,3.81a.4.4,0,0,1-.38.32c-.49.05-1.46.12-2.49.2S23.78,113,23,113.07Z"/><path class="cls-4" d="M128.68,44.24c.32.63-7.89,14.36-13.57,14.2s-7.41-.79-7.41-.79,10.41,2.68,9.78,3-7.89,5.2-7.89,5.2L117.16,64s-9.3,6.62-17.5,6.62a23,23,0,0,0,11.51.79c6-1.26,4.58,1.11,6,.63a37.19,37.19,0,0,0,4.9-2.68s6.46,4.74,7.88,5.05c0,0-3.94-6.31-3.15-6a28.71,28.71,0,0,1,3.31,2.2l-.79-2.68s4.26,2.84,8.05,3.32a27,27,0,0,0,6.78,0s-10.1-1.11-12.3-9.47A132.89,132.89,0,0,1,128.68,44.24Z"/><path class="cls-4" d="M114,84.9c-.08-.49-9.94,6.15-14.67,6s2,2.69,2,2.69a19.22,19.22,0,0,1-14.67,5.36s9.15,1.89,15.46.31,7.41-2.36,7.41-2.36.48,4.73,2,5,1.42-2.69,1.42-2.21,4.58,5.83,6,6.31c0,0-2.21-6-2.37-6.79s10.26,7.58,16.09,8.21,8.05-.79,7.57-.79-11.83-3.47-14.82-6.15c0,0,14.51,3.62,17.35,2.52,0,0-12-4.26-12.31-4.73s12.31-4,12.31-4-19.09-3-21.77-4.57C121.11,89.79,114.64,88.69,114,84.9Z"/><path class="cls-4" d="M106.44,114.07c-.63.15-13.73,3.78-17.67,2.2l8.2,3s-14,7.57-19.87,6.94l10.25,1.42s-4.26,2.37-3.63,2.68,5.21,2.53,9.47.79a26.79,26.79,0,0,1,8-1.89L95.08,133s12-1.74,14.67-3.32c0,0,5.84,3.32,12.15,3,0,0-6.63-5.52-6-5.36s14.2,8.52,25.87,6c0,0-11.51-5.2-13.25-8.52L140,121s-19.25,2.68-24.93-2.84c0,0-7.57,2.68-9,.79S106.44,114.07,106.44,114.07Z"/><path class="cls-4" d="M108.33,140.49s6.63,8.84,18.3,9.94,21.14.95,20.35,1.11-24.92,2.21-24.92,2.21,6.15,5.36,5.36,5-10.26-3-10.26-3,4.58,6.94,3.48,6.62-7.42-3.15-11-6.94l-1.1,3.63s-2.68-3.47-2.68-3-5.21,3.95-5.21,3.95l-1.89-3.47a14,14,0,0,1-11,2.36l3-2.52s-9.93,1.57-14,.47c0,0,11.83-3.79,10.89-3.79s-13.73-2.83-13.73-2.83S87.35,153,91.29,149l9.47-9.46S105.65,142.07,108.33,140.49Z"/><path class="cls-5" d="M130.58,73.66l-.7-.16c-1.36-.3-6.67-4.13-7.84-5a34.59,34.59,0,0,1-4.78,2.61,1,1,0,0,1-1.18-.33c-.39-.41-1-1.1-4.85-.3a23.61,23.61,0,0,1-11.68-.8L98,69.12h1.68c6.09,0,12.9-3.77,15.84-5.6L108,65.4l1.42-1c.27-.18,5.87-3.95,7.52-5-1.18-.47-5-1.55-8.67-2.51a4.39,4.39,0,0,1-.67-.17l.18-.58.59.16a39.43,39.43,0,0,0,6.75.62h.09c5.27,0,13-12.48,13.17-13.82v0l-.17-1.65.74,1.48a.81.81,0,0,1,0,.11h0a133,133,0,0,0,3.15,17.47c2.13,8.06,11.94,9.23,12,9.24l2.24.25-2.22.35a27.14,27.14,0,0,1-6.87,0,21.47,21.47,0,0,1-7.49-2.93l.82,2.79-.73-.55c-.56-.42-1.94-1.42-2.77-1.92a60.39,60.39,0,0,0,3,5.31Zm-8.51-5.87.16.12a81.48,81.48,0,0,0,7,4.64c-3.11-5-2.86-5.35-2.71-5.53a.37.37,0,0,1,.43-.09,19.22,19.22,0,0,1,2.66,1.72L128.79,66l.69.46s4.24,2.8,7.91,3.26a28.8,28.8,0,0,0,4.63.18,19.3,19.3,0,0,1-3.33-1.2,12.46,12.46,0,0,1-7.15-8.07,131,131,0,0,1-3-16.31c-.39.76-1,1.7-1.48,2.53-1.15,1.79-7.06,10.7-11.84,10.7h-.1c-1,0-1.83-.06-2.58-.11,5.22,1.45,5.26,1.76,5.28,1.95l0,.21-.21.13c-.41.21-4,2.61-6.43,4.23l7.45-1.87-1.3.93c-.09.06-8.18,5.76-15.9,6.58a22.39,22.39,0,0,0,9.67.29c3.81-.8,4.77-.2,5.41.48.21.22.25.26.55.16a36.24,36.24,0,0,0,4.82-2.65Zm6.32-24.67Z"/><path class="cls-5" d="M135.61,106.88a25.49,25.49,0,0,1-2.86-.16c-4.07-.44-10.33-4.57-13.69-6.79-.75-.5-1.47-1-1.92-1.24.44,1.39,1.68,4.8,2.2,6.21l.22.59-.6-.2c-1.1-.37-4.41-3.88-5.69-5.66a3,3,0,0,1-.33.94,1.23,1.23,0,0,1-1.36.63c-1.49-.3-2.07-3.61-2.24-4.88a43.72,43.72,0,0,1-7.09,2.19c-6.3,1.58-15.5-.29-15.59-.31l.08-.6a19.15,19.15,0,0,0,14.12-5c-1.77-.77-3.65-1.77-3.49-2.51.1-.45.67-.62,2-.57,3.21.11,9-3.09,12.12-4.81,2.19-1.2,2.41-1.3,2.66-1.18l.14.07,0,.17c.59,3.53,6.79,4.64,6.85,4.65l.1,0C123.86,90,142.73,93,142.92,93l1.39.22-1.35.37c-4,1.11-10.39,3-11.87,3.63,1.44.69,7.83,3,11.89,4.47l.76.27-.75.3c-2.37.92-12.21-1.25-16-2.15,4,2.41,12.8,5.13,13.41,5.19h0a.35.35,0,0,1,.31.18l.09.16-.12.19C140.43,106.18,138.83,106.88,135.61,106.88Zm-18.88-9c.26,0,.79.33,2.66,1.56,3.32,2.2,9.5,6.28,13.42,6.7a16.62,16.62,0,0,0,6.79-.35c-2.72-.74-11.68-3.74-14.28-6.06l-.9-.82,1.18.3c4.4,1.1,12.72,2.89,16.1,2.71-4.55-1.62-11.08-4-11.38-4.46l-.08-.13,0-.18c.17-.45,3.93-1.71,11.17-3.72-4.42-.72-18-3-20.46-4.37-.65-.12-6.34-1.26-7.23-4.83-.38.18-1.18.61-2,1.07-3.39,1.87-9.06,5-12.43,4.88a3.34,3.34,0,0,0-1.35.11,11.35,11.35,0,0,0,3.53,2l.39.17-.29.31a19.72,19.72,0,0,1-11.47,5.4c3.23.4,8.15.74,12-.21,6.09-1.53,7.26-2.29,7.31-2.33l.42-.28,0,.5c.18,1.75.82,4.59,1.81,4.78a.56.56,0,0,0,.54-.12,2.73,2.73,0,0,0,.53-1.74.09.09,0,0,1,0,0v-.21l.2-.12.2-.07.14.16a.49.49,0,0,1,.06.22h0a30,30,0,0,0,5.11,5.64c-.6-1.66-2-5.4-2.08-6l0-.2.17-.16A.34.34,0,0,1,116.73,97.86Z"/><path class="cls-5" d="M137.07,132.67c-5.7,0-12.3-1.91-19.71-5.7,1.28,1.15,3.3,2.86,4.73,4.05l.59.5-.77,0c-5.77.29-11.19-2.44-12.16-3-3,1.57-14.14,3.2-14.63,3.27l-1.44.21,6.28-3.87A27.41,27.41,0,0,0,93.3,130c-4.26,1.73-8.84-.36-9.71-.8a.39.39,0,0,1-.23-.35c0-.17,0-.64,3.07-2.42l-9.37-1.3.07-.6c5,.54,16.37-5.17,19.1-6.59l-7.37-2.7-.2-.07.21-.56.21.07c3.45,1.15,13-1.16,17-2.23l.92-.23-.35.61s-1.62,2.85-.34,4.56c.94,1.25,5.81.12,8.65-.89l.18-.06.13.13c5.51,5.35,24.49,2.78,24.68,2.75l.13.59L129,123.54c2.18,3.19,12.81,8,12.92,8.07l.83.38-.89.19A22.3,22.3,0,0,1,137.07,132.67Zm-21.37-7.12.28,0a6.7,6.7,0,0,1,.87.43c9.34,4.91,17.4,6.84,24,5.74-2.73-1.29-11-5.39-12.54-8.26l-.17-.32,9.1-3c-5.58.51-17.61,1.06-22.15-3.11-1.34.46-7.73,2.53-9.16.62-1.13-1.51-.46-3.59,0-4.61-3.41.89-10,2.44-14.26,2.44h-.07l6.17,2.25-.59.32c-.5.27-10.46,5.61-17,6.79L88.29,126l-.79.44a21.73,21.73,0,0,0-3.45,2.24c1.18.56,5.25,2.23,9,.69a26.76,26.76,0,0,1,8.15-1.92l1.16,0-5.87,3.61c3.27-.52,11-1.85,13.09-3.05l.15-.09.15.09a25.72,25.72,0,0,0,11.15,3h0c-5.72-4.79-5.63-5-5.5-5.22Z"/><path class="cls-5" d="M120.7,161.7l-.15,0A34.8,34.8,0,0,1,109.73,155l-1.12,3.7-.36-.46a35.64,35.64,0,0,0-2.34-2.81,32.46,32.46,0,0,1-5.14,3.82l-.28.18L98.61,156a14.18,14.18,0,0,1-11,2.21l-.59-.13,2.65-2.24c-2.69.38-9.75,1.22-13.11.32l-1-.27,1-.31c3.2-1,8-2.61,10-3.34-3-.54-11.67-2.46-12.79-2.71l.12-.59c.14,0,13.46,2.61,17.24-1.18l9.62-9.62.2.1s4.77,2.43,7.28,1l.23-.14.16.22c.07.09,6.69,8.74,18.09,9.82,8,.75,14.92.92,18.26,1,2.38.06,2.38.06,2.41.37l0,.27-.31.07c-.73.14-20.19,1.8-24.25,2.15,5.21,4.56,5.11,4.71,4.95,5a.32.32,0,0,1-.43.12c-.57-.23-6-1.8-9.45-2.77,3.65,5.61,3.29,6.1,3.16,6.27A.39.39,0,0,1,120.7,161.7Zm-11.25-7.84.36.38c3.36,3.5,9.08,6.19,10.64,6.77a43.93,43.93,0,0,0-3.54-6.08l-.44-.68.78.22c.32.09,6.73,1.91,9.29,2.69-1-1-2.91-2.67-4.68-4.22l-.54-.47.71-.06c5.71-.49,15-1.28,20.44-1.77-3.75-.11-9.48-.34-15.87-.94-10.68-1-17.25-8.52-18.35-9.86-2.53,1.25-6.49-.51-7.43-1l-9.31,9.31c-2.18,2.18-7.08,2.42-11.19,2.17,3.59.76,6.77,1.42,7.19,1.42h.26l.09.27c0,.32.08.5-10,3.74,4.46.61,12.7-.68,12.79-.7l1.07-.17-3.35,2.82a13.81,13.81,0,0,0,10.18-2.43l.28-.22,1.91,3.5a38.72,38.72,0,0,0,4.8-3.57v-.16l.22-.11c.21-.07.43-.15,2.64,2.68Z"/><path class="cls-4" d="M55,129.17c-.4-.31-13.88,14.51-26,14.51,0,0,10.1.79,9.62.95s-12,8.67-24.61,10.25S.13,156.3.6,156.3s24.46-.47,34.71-4.42,5.2,1.11,5.2,1.11l8.84-4.58-8.68,8.68,5.52-2.37-3,3.31s10.25-2.52,13.09-5.36l7.41,5.21L62.28,153s5.21,2.84,9.94,2.36-1.73-4.89-1.73-4.89,10.09,2.53,11,1.26S76.8,149,76.8,149s13.41.63,19.4-.15S91,146.52,91,146.52s11.68-1.26,14.2-2.21c0,0-18.3-3.15-17.82-3s15.61.32,19.56-3.94c0,0-24,1.89-30.61-.32s-11.67-9.46-11.67-9.46S57.08,130.74,55,129.17Z"/><path class="cls-5" d="M64.06,157.24l-7.91-5.56c-3.09,2.79-12.64,5.16-13,5.27l-1,.23,2.73-3-5.69,2.44,8.41-8.41-8.83,4.58,1.37-1.38c.68-.68,1.31-1.64,1.12-1.92s-.78-.7-6,1.31c-10.31,4-34.57,4.44-34.81,4.44v0c-.27,0-.3-.06-.32-.09l-.1-.15.08-.16a.35.35,0,0,1,.35-.16H.59c.76,0,3.8-.23,13.21-1.41C21,152.3,29,149,37.55,143.45l.09-.06c-1.69-.2-6-.57-8.84-.79l0-.6C38.46,142,49,132.5,53,128.92c1.63-1.47,1.76-1.59,2-1.37,1.57,1.2,7.26-.76,9.32-1.62l.23-.09.13.2c0,.07,5.07,7.2,11.53,9.35s30.24.32,30.48.3l.77-.06-.53.56c-2.82,3.06-10.88,3.89-15.83,4.07,1.49.25,3.25.54,5,.85,4.46.75,8.91,1.52,8.91,1.52l1.1.19-1,.39c-1.87.7-8.5,1.55-12,2,5,.86,5,1.51,5,1.74,0,.45-.55.69-2,.88-4.44.59-13,.39-17.11.25,1.23.45,2.52,1.06,2.76,1.74a.75.75,0,0,1-.12.73c-.84,1.13-6.7-.05-9.93-.8,1.17.94,2.65,2.39,2.38,3.46-.16.62-.8,1-2,1.09-3.86.39-8-1.34-9.49-2.08Zm-16.89-4.72-3.24,3.59c2.61-.71,9.73-2.79,12-5l.18-.18L63,155.76,61.62,151l.64.35c.05,0,5.17,2.79,9.76,2.33.6-.06,1.34-.22,1.44-.64.23-.89-1.91-2.74-3.32-3.7l-1.39-1,1.64.41c4.76,1.19,10.21,2.05,10.73,1.37a.16.16,0,0,0,0-.17c-.24-.67-2.83-1.59-4.6-2l.09-.59c.13,0,13.45.62,19.35-.16a5.55,5.55,0,0,0,1.41-.3c-.66-.42-3.83-1.07-6.62-1.46l-2.4-.34,2.41-.26c.1,0,9-1,12.85-1.84-5.12-.88-14.79-2.54-16.28-2.75l-.26,0-.27-.09.06-.28c0-.14.06-.21.39-.19h0c.58.12,14,.22,18.61-3.29-4.44.32-23.88,1.59-29.84-.4-6.11-2-10.81-8.18-11.69-9.38-1.4.56-7.4,2.86-9.55,1.55-.24.18-.81.7-1.42,1.24-3.57,3.21-12.4,11.16-21.25,12.89,6.57.54,6.58.66,6.61.94l0,.24-.25.09-.66.42c-8.6,5.62-16.68,8.93-24,9.85l-2.23.27c7.78-.56,17.72-1.67,23.38-3.85,5.27-2,6.36-1.64,6.73-1.08s.05,1-.28,1.53l9.28-4.8-8.94,8.94Z"/></svg>