<svg id="Layer_1" data-name="Layer 1" xmlns="http://www.w3.org/2000/svg" viewBox="0 0 81.21 38.84"><defs><style>.cls-1{fill:#983233;}.cls-2{fill:#ff6608;}</style></defs><title>Free</title><path class="cls-1" d="M16.27,11.88a.39.39,0,0,0-.14.1.14.14,0,0,1-.1,0H13a1,1,0,0,1-.38-.19.92.92,0,0,0,0-.29,1.56,1.56,0,0,1,.05-.33.25.25,0,0,0-.05-.17.31.31,0,0,1,0-.17,8.57,8.57,0,0,0,0-.89,8.33,8.33,0,0,1,.05-.88,1.68,1.68,0,0,0-.09-.44,2.06,2.06,0,0,0-1.25-1.39,1.65,1.65,0,0,0-.48-.09c-.74,0-1.46,0-2.16,0H6.53a1.09,1.09,0,0,1,0,.26,1.8,1.8,0,0,0,0,.22c0,.45-.06.91-.1,1.39a10.9,10.9,0,0,0,0,1.4c0,.83.07,1.65.1,2.45s0,1.62,0,2.45a1.51,1.51,0,0,0,1.08-.36A1.67,1.67,0,0,0,8,13.43a1,1,0,0,0,.5-.15.6.6,0,0,1,.6.05,1.5,1.5,0,0,1,.6-.07,2.37,2.37,0,0,0,.6,0h1.2v8.61H8.11A2.86,2.86,0,0,0,8,21a1.76,1.76,0,0,0-.53-.74A3.5,3.5,0,0,0,7,20a2,2,0,0,0-.55-.12,10.16,10.16,0,0,1,0,1.23c0,.4,0,.81,0,1.22V34.73h2v4a7.38,7.38,0,0,1-1.11.07l-2.13,0c-.82,0-1.68,0-2.59,0l-2.52,0A3.75,3.75,0,0,1,0,38.1c0-.35,0-.74,0-1.17V35.68a7.39,7.39,0,0,1,.05-1H2v-15a2,2,0,0,0-.72-.92,7.18,7.18,0,0,1-.63-.6c-.19-.2-.38-.42-.57-.65a3.28,3.28,0,0,1,.55-.67,7,7,0,0,0,.6-.62c.16-.16.31-.33.46-.51A2.5,2.5,0,0,0,2,15.06V7.18a3.38,3.38,0,0,0-1,0,5.34,5.34,0,0,1-1,0v-4H16.22a8.48,8.48,0,0,1,.08,1.2c0,.64,0,1.4,0,2.28V9.34C16.32,10.3,16.3,11.14,16.27,11.88ZM3.12,7.51a1,1,0,0,1,.24-.33,1.93,1.93,0,0,0,.24-.29A1.26,1.26,0,0,0,3,6.41a.75.75,0,0,1-.46-.53.74.74,0,0,0-.6,0,3.86,3.86,0,0,1-.55.29,8.82,8.82,0,0,1,1.11.19,2.77,2.77,0,0,1,.38.33.77.77,0,0,1,.05.44C2.9,7.3,3,7.42,3.12,7.51Zm.34-3.26q0-.11,0-.12a.29.29,0,0,1,0-.12h-1v.48l.45-.34C3.05,4.06,3.23,4.09,3.46,4.25ZM3.31,15.58a2.48,2.48,0,0,0-.26.19.46.46,0,0,0-.17.24,1,1,0,0,0-.1.43,1.36,1.36,0,0,1-.09.48,4,4,0,0,1,.6-.12.54.54,0,0,0,.41-.36v-.53A2.85,2.85,0,0,0,3.31,15.58ZM3,13.51a2.07,2.07,0,0,0,0,1.15h.28a4,4,0,0,1-.14-.57C3.09,13.9,3.06,13.7,3,13.51Zm.82-5.76a4.12,4.12,0,0,1-.46.41l-.45.36V11a1.33,1.33,0,0,0,.14.57l.05.05.07,0a.09.09,0,0,1,.07,0s0,0,.1,0a1.69,1.69,0,0,1,.22.31s0,.17.07.36A5.26,5.26,0,0,1,4.54,12a1.05,1.05,0,0,0,.74-.55.7.7,0,0,1,.29.1V10a4.52,4.52,0,0,1,0-.72,2,2,0,0,0-.07-.72A4,4,0,0,1,5,9.05L4.8,8.81A1.21,1.21,0,0,0,5,8.52,4.24,4.24,0,0,1,4.75,8a.85.85,0,0,1-.26,0,.54.54,0,0,0-.22.05,5.13,5.13,0,0,1-.12-.77A4.17,4.17,0,0,0,4,6.5a5.46,5.46,0,0,0-.12.68A5.54,5.54,0,0,1,3.84,7.75ZM3.07,13h0v0Zm.15,23h.09v-.24H3.22ZM4,6.31h0V6.12H4Zm.58,6.34c-.16.09-.23.18-.22.26a1.42,1.42,0,0,0,.07.22c0,.06.08.14.15.24a2.51,2.51,0,0,0,.19.24c0-.16-.06-.32-.1-.48Zm-.15,2.64v0ZM5.66,5.16A1.43,1.43,0,0,0,6,4.7c0-.08-.06-.23-.22-.45H5.09c-.16.13-.23.25-.19.38a1.48,1.48,0,0,1,0,.34l.32.17A2.5,2.5,0,0,0,5.66,5.16Zm-.52,15s0,0,0,0v.09Zm1.39-3.74v0l0,.05v-.1ZM7.92,5.74V5.26a.5.5,0,0,1-.19.12.31.31,0,0,0-.19.12.44.44,0,0,0,.19.12A.34.34,0,0,1,7.92,5.74Zm2.64,12.57c-.19-.09-.39-.18-.6-.26l-.65-.27c-.35-.12-.61-.09-.77.1a1.61,1.61,0,0,0,0,.72c.05.22.09.45.12.67a1.63,1.63,0,0,0,.36.05,2.38,2.38,0,0,1,.41.05.74.74,0,0,1,.24-.17A3.09,3.09,0,0,0,9.94,19l.33.19.29.2a.45.45,0,0,1-.07-.56A.63.63,0,0,0,10.56,18.31Zm0,2.69V19.56c-.1.13-.19.25-.29.36a2.87,2.87,0,0,1-.29.31l-.19-.07-.19-.07a.25.25,0,0,1-.1.12.07.07,0,0,0,0,.07.43.43,0,0,0,0,.19.17.17,0,0,1,0,.19.22.22,0,0,1-.07.17.66.66,0,0,0-.12.17Zm-1.1-4.85a1.66,1.66,0,0,0,.4-.21,3.48,3.48,0,0,1,.36-.22,4.6,4.6,0,0,1,.39.43,1.9,1.9,0,0,1-.12-.53c0-.16,0-.32-.07-.48q-.35-.37-.51-.36c-.11,0-.29.17-.55.46a.94.94,0,0,1,.1.38.38.38,0,0,1,0,.24A1.46,1.46,0,0,0,9.46,16.15ZM14.93,4.49v-.1h-.19v.1Zm-.1,1.63v.1a.47.47,0,0,1,.24,0s-.05,0-.05-.1A.27.27,0,0,1,14.83,6.12Z"/><path class="cls-1" d="M30.48,17.83l.36.17.31.12a2.92,2.92,0,0,1,1.06.38,6.53,6.53,0,0,1,.91.68,2.28,2.28,0,0,1,.5.72,7.59,7.59,0,0,1,.32.81,2.54,2.54,0,0,1,.09.65,5,5,0,0,0,0,.65,6.06,6.06,0,0,1,.1,1c0,.32,0,.65,0,1a1.23,1.23,0,0,1-.07.44.77.77,0,0,0,0,.43,1.63,1.63,0,0,1,0,.86,5.31,5.31,0,0,1,0,.72,5.55,5.55,0,0,0-.05.72v2.47c0,.63,0,1.3,0,2s0,1.38,0,2,0,1,0,1.06h2v4.08H32.69a2.75,2.75,0,0,1-2.11-.87,2.57,2.57,0,0,1-.72-1.82V28.73c0-1.12,0-2.23,0-3.31s0-2.2,0-3.32a2.88,2.88,0,0,0-.63-1.68,1.15,1.15,0,0,0-.5-.36c-.21-.08-.43-.15-.65-.21a5.62,5.62,0,0,0-1.73-.12,9.31,9.31,0,0,1-1.82,0v3.7c0,.16,0,.34,0,.53a.82.82,0,0,1-.12.53v.19a.72.72,0,0,1,.12.48c0,.16,0,.32,0,.48v9.07h1.82a4,4,0,0,1,.07,1c0,.34,0,.68,0,1v2a10.19,10.19,0,0,1-1.37.07c-.78,0-1.64,0-2.57,0H19.78c-.87,0-1.43,0-1.68-.05v-4h2V20.54a2.49,2.49,0,0,0-.76-1.82l-.6-.6c-.21-.21-.43-.45-.65-.7l.72-.72a5.06,5.06,0,0,0,1-1.37,4.81,4.81,0,0,0,.26-1.85c0-.93,0-1.88,0-2.84s0-1.93,0-2.89V7.13h-2v-4a1.38,1.38,0,0,1,.48-.05h8.06A12.83,12.83,0,0,1,28,3.12c.46,0,.92.1,1.37.17s.62.13.91.21.57.17.86.27a3.78,3.78,0,0,1,1.56,1.1,5.49,5.49,0,0,1,.94,1.68A4.58,4.58,0,0,1,34,7.7q.07.59.12,1.2c.06.45.11.92.14,1.4a6.94,6.94,0,0,1,0,1.44,16.76,16.76,0,0,0-.12,1.75,5.41,5.41,0,0,1-.36,1.75,4.63,4.63,0,0,1-.77,1.27,3,3,0,0,1-1.25.84l-.58.22Zm-5.86-2.16,1.47,0c.49,0,1,0,1.46,0a3.14,3.14,0,0,0,1.13-.29,1.64,1.64,0,0,0,.79-.86,3.44,3.44,0,0,0,.34-1.39c0-.45.05-.89.05-1.32V10.49c0-.32,0-.63,0-.91a4.34,4.34,0,0,0-.12-.87A2.53,2.53,0,0,0,29.4,8a1.48,1.48,0,0,0-.6-.53,2.83,2.83,0,0,0-1.34-.33c-.42,0-.82,0-1.2,0H24.53v7.34a.71.71,0,0,0,0,.29.23.23,0,0,1,0,.24.4.4,0,0,0-.07.39Zm1.2,1.83h0v0h0Zm1.83-.77v.05h.19a.14.14,0,0,0-.05-.1A.2.2,0,0,0,27.65,16.73Zm3.12,5.09a1.37,1.37,0,0,0,0,.19,1,1,0,0,1,0,.29c.09-.26.08-.42-.05-.48V21.5a.52.52,0,0,0-.1-.31.55.55,0,0,1,0,.36Q30.58,21.72,30.77,21.82Zm0,3.88c0,.36,0,1,0,1.83s0,1.78,0,2.76,0,1.9,0,2.78a7.83,7.83,0,0,0,.17,1.8,2.77,2.77,0,0,1,1-.21.92.92,0,0,0,.77-.56.26.26,0,0,0,.14,0l.15.05.28-.14V26.52a.68.68,0,0,0-.24-.07l-.24-.07-.14.16a1,1,0,0,1-.14.17.56.56,0,0,1-.29-.05l.14-.43a2.2,2.2,0,0,1-.09-.21,1.92,1.92,0,0,0-.15-.27.73.73,0,0,1-.19.07.77.77,0,0,0-.19.08q-.24-.11-.15-.27a.33.33,0,0,0,0-.36.28.28,0,0,1,0-.29.61.61,0,0,0,0-.33,2.06,2.06,0,0,1,0-.36.82.82,0,0,0-.07-.41c-.07.35-.12.66-.17.94s-.1.55-.17.84a.62.62,0,0,0-.19,0A.62.62,0,0,1,30.77,25.7Zm0-.76a2.46,2.46,0,0,1,.29-.34.73.73,0,0,1-.15-.17l-.14-.21Zm.57,10.56h.05v-.24h-.05Zm.82.81a.42.42,0,0,0,0-.41.65.65,0,0,1-.12-.4.44.44,0,0,0-.17,0,.47.47,0,0,1-.17,0,.34.34,0,0,1,.17.41C31.8,36.13,31.9,36.25,32.16,36.31Zm.1-13.58a5.55,5.55,0,0,1,.48.29l.52-.29v-.58c-.12-.16-.24-.22-.36-.19a.73.73,0,0,1-.36,0A.63.63,0,0,0,32.26,22.73Zm.48-15.46-.1.1a.14.14,0,0,0,0,.07.09.09,0,0,1,0,.07A.54.54,0,0,0,32.74,7.27Zm.38,18.58a0,0,0,0,1,0-.05v.1A0,0,0,0,0,33.12,25.85Zm1.82,10.56.05,0-.12,0s0,0-.12,0v.1Z"/><path class="cls-1" d="M44.4,7.13v8.16a1.24,1.24,0,0,0,.79-.07,3.26,3.26,0,0,0,.65-.41,1.77,1.77,0,0,0,.53-1.39,2.21,2.21,0,0,1,1-.2c.41,0,1.07,0,2,.15a2.07,2.07,0,0,1,.2.86V18.6a1.16,1.16,0,0,1,0,.34.92.92,0,0,0-.05.28,1.8,1.8,0,0,1,0,.22.33.33,0,0,0,0,.22.28.28,0,0,1,0,.38.12.12,0,0,0,0,.19,1,1,0,0,1,.05.77,1.42,1.42,0,0,0-.05.82h-3a2.08,2.08,0,0,0-.82-1.64,1.8,1.8,0,0,0-.53-.28,1.09,1.09,0,0,0-.67,0v9.84c.51,0,1,0,1.49,0s1,0,1.49,0H50.3a1.33,1.33,0,0,1,0-.28c0-.1,0-.18,0-.24V25.75a2,2,0,0,1,0-.36c0-.11,0-.23,0-.36s0-.2,0-.31a1.8,1.8,0,0,1,0-.31l0-.05H54A10,10,0,0,1,54,25.7c0,.77,0,1.64,0,2.62v3c0,1,0,1.83,0,2.47a7.93,7.93,0,0,1-1.1.07l-2.43,0-3.24,0H40.46c-1,0-1.85,0-2.49,0,0,0,0,0,0,0v-4a3.42,3.42,0,0,1,1.06,0,3.36,3.36,0,0,0,1.05,0V20.47a2.12,2.12,0,0,0-.67-1.63,3.5,3.5,0,0,0-.48-.41A3.5,3.5,0,0,1,38.4,18l-.22-.19A.51.51,0,0,1,38,17.5s0-.06,0-.08a.18.18,0,0,1,0-.07,7.87,7.87,0,0,0,.72-.81c.23-.29.47-.56.72-.82a1.43,1.43,0,0,0,.48-1.1V7.18H38a4.11,4.11,0,0,1-.07-1c0-.33,0-.68,0-1a6.54,6.54,0,0,1,0-1c0-.31,0-.63,0-1a7.5,7.5,0,0,1,1.15-.07l2.62,0,3.43,0h3.62l3.17,0,2.09,0a7.71,7.71,0,0,1,0,1.44,11.53,11.53,0,0,0,0,1.44v5.81l-.17.09a.31.31,0,0,1-.17.05,1.6,1.6,0,0,0-.72,0,2.44,2.44,0,0,1-.72,0l-.74,0a3.8,3.8,0,0,1-.75,0,1.38,1.38,0,0,1-.43-.1V10.34c0-.25,0-.48,0-.69a2.85,2.85,0,0,1,0-.65,1.55,1.55,0,0,0-.41-1.13A1.7,1.7,0,0,0,49,7.22a1.6,1.6,0,0,0-.39-.09ZM39.12,5.78l.17.17.17.17L39.74,6A.74.74,0,0,0,40,5.78V5.3a1,1,0,0,0-.19-.16A1.91,1.91,0,0,0,39.55,5a2.6,2.6,0,0,1-.43.33Zm1,11a1,1,0,0,0,.09.39.43.43,0,0,0,.17,0l.22,0a1.91,1.91,0,0,1-.24-.17Zm.72-2.4v1.64a1.63,1.63,0,0,1,.41,0h.4a.75.75,0,0,1,.24-.15.57.57,0,0,0,.24-.14.44.44,0,0,1,.12.07l.12.07a.41.41,0,0,1,.27-.4c.17-.08.21-.24.12-.46a2.3,2.3,0,0,1-.94-.38A1.25,1.25,0,0,0,40.85,14.42Zm.09-4.17s0,0,0-.05v.1S40.91,10.25,40.94,10.25ZM42.77,20a2,2,0,0,0,0,.48,4.73,4.73,0,0,1,.62-.19v-.82a2,2,0,0,0,.34-.31,2.15,2.15,0,0,1,.24-.26,2.85,2.85,0,0,1,2.16.57,3.59,3.59,0,0,1,1,1.49h1.35V19.27c-.2-.09-.32-.15-.39-.17a3.8,3.8,0,0,0-.48,0,1.23,1.23,0,0,1,0,.19c0,.07,0,.15-.07.24a1.53,1.53,0,0,0-.17-.14l-.17-.1.29-.29a.56.56,0,0,1-.24-.36.45.45,0,0,0-.29-.31s.05,0,.05-.07,0,0,0-.07a1.74,1.74,0,0,0-.29-.07q-.15,0-.24-.27a1.46,1.46,0,0,0,.07-.19,1.46,1.46,0,0,1,.07-.19c0-.16,0-.31-.07-.43s0-.26-.07-.39a.16.16,0,0,0-.1-.05,1.8,1.8,0,0,1,0,.22.89.89,0,0,0,0,.22l-.16.09-.17.1-.65-.36a3.71,3.71,0,0,0-.65-.27,3.76,3.76,0,0,0-.62-.14,4.83,4.83,0,0,0-.63-.05.88.88,0,0,1-.24-.79,1.51,1.51,0,0,0,0-.79c-.06.25-.12.49-.16.72l-.17.72q-.39,0-.48.24a.82.82,0,0,1-.34.43,1.45,1.45,0,0,0-.26-.07l-.31-.07a1.72,1.72,0,0,0,.09.52.67.67,0,0,0-.12.17.77.77,0,0,1-.07.17l.12.14a1,1,0,0,0,.12.15l-.86.29c.16.12.31.24.45.33l.41.29c-.06.13-.11.23-.14.31a1.62,1.62,0,0,0-.1.31,2.39,2.39,0,0,0,.58.1.43.43,0,0,1,.28.29C42.64,19.82,42.77,19.88,42.77,20Zm-1.54-.29H41a.87.87,0,0,0-.1.29ZM41,4.39v.1s0,0,0,0,0,0,0-.05Zm.63,1a4.9,4.9,0,0,0,.09-.58c0-.06-.06-.16-.19-.28l-.19.19a3.54,3.54,0,0,1,.14.33A1.87,1.87,0,0,0,41.62,5.4ZM42,21.58h-.48l-.14.72a1.35,1.35,0,0,0,.19.16l.19.17a1.76,1.76,0,0,1,.27-.14,1.21,1.21,0,0,0,.26-.15v-.48a.33.33,0,0,0-.12-.14A1.53,1.53,0,0,1,42,21.58Zm-.53-14.5V7l0,0Zm.2,4.61v1.05a3.51,3.51,0,0,0,.5-.19l.46-.19a4.66,4.66,0,0,0-.1-.67c-.16-.16-.3-.22-.43-.17Zm.91,12.24a1.08,1.08,0,0,0-.39.24.52.52,0,0,0-.14.38.62.62,0,0,0,.07.29,1.78,1.78,0,0,1,.12.29h.58a1.92,1.92,0,0,1,.38-.53.43.43,0,0,0,.15,0,.26.26,0,0,1,.14.05v-.82a4.35,4.35,0,0,0-.43.38C42.82,24.14,42.66,24,42.53,23.93ZM42.24,4.44a0,0,0,0,0-.05-.05l0,.05,0,0Zm.24,4.32a1.21,1.21,0,0,1-.19.29.57.57,0,0,1,.14.24.61.61,0,0,0,.15.24c.38-.1.59-.26.62-.48A1.21,1.21,0,0,1,43,8.76Zm.05-1-.05,0v.1A0,0,0,0,1,42.53,7.75Zm.24,4.9-.05-.05h0A.16.16,0,0,0,42.77,12.65Zm.09-.48,0-.05,0,0s0,0,0,0S42.86,12.14,42.86,12.17Zm.24-6.48s0,0,0-.05V5.35h-.09a.44.44,0,0,0,0,.17A.44.44,0,0,1,43.1,5.69Zm0,20.11.15.14.14.15v-.58A.68.68,0,0,0,43.15,25.8ZM43.34,12c-.06.07-.11.1-.14.1l.14.14c.07,0,.1,0,.1-.09S43.41,12.09,43.34,12Zm.15,8.88c-.07-.06-.11-.09-.15-.09a.26.26,0,0,0-.14.09l.1.1ZM44.26,4v0h.24V4Zm.19,1.44-.05,0,.05,0a.11.11,0,0,1,0-.09Zm1.82,12.24c-.06.09-.11.14-.14.14L46,17.69a.09.09,0,0,0,.08-.05.08.08,0,0,1,.07-.05S46.14,17.62,46.27,17.69ZM48.48,15l-.58-.43a1.79,1.79,0,0,1-.43.19l-.17.43c0,.13,0,.26.22.39h.62l.29-.29A.52.52,0,0,0,48.48,15Zm-.38,3.6h.09l0-.05Zm3.84-7.92c-.07-.06-.12-.1-.15-.1l-.14.15.19.09S51.87,10.74,51.94,10.68Z"/><path class="cls-1" d="M62.35,7.13v8.16a1.24,1.24,0,0,0,.79-.07,3.26,3.26,0,0,0,.65-.41,1.74,1.74,0,0,0,.53-1.39,2.24,2.24,0,0,1,1-.2c.41,0,1.07,0,2,.15a2.23,2.23,0,0,1,.19.86V18.6a1.16,1.16,0,0,1,0,.34.92.92,0,0,0,0,.28,1.8,1.8,0,0,1,0,.22.33.33,0,0,0,0,.22.28.28,0,0,1,0,.38.12.12,0,0,0,0,.19.91.91,0,0,1,0,.77,1.42,1.42,0,0,0,0,.82h-3a2,2,0,0,0-.82-1.64A1.68,1.68,0,0,0,63,19.9a1.09,1.09,0,0,0-.67,0v9.84c.51,0,1,0,1.49,0s1,0,1.49,0h2.93a1.32,1.32,0,0,1,0-.28,1.15,1.15,0,0,0,0-.24V25.75a2,2,0,0,1,0-.36c0-.11,0-.23,0-.36s0-.2,0-.31a1.8,1.8,0,0,1,0-.31l0-.05H71.9A9.17,9.17,0,0,1,72,25.7c0,.77,0,1.64,0,2.62v3c0,1,0,1.83,0,2.47a7.77,7.77,0,0,1-1.1.07l-2.43,0-3.24,0H58.42c-1,0-1.86,0-2.5,0,0,0,0,0-.05,0v-4a3.42,3.42,0,0,1,1.06,0,3.36,3.36,0,0,0,1,0V20.47a2.12,2.12,0,0,0-.67-1.63,3.5,3.5,0,0,0-.48-.41,3.5,3.5,0,0,1-.48-.41l-.21-.19A.52.52,0,0,1,56,17.5s.05-.06.05-.08a.13.13,0,0,1,0-.07,7.87,7.87,0,0,0,.72-.81c.23-.29.47-.56.72-.82a1.43,1.43,0,0,0,.48-1.1V7.18H55.92a4.11,4.11,0,0,1-.07-1c0-.33,0-.68,0-1a6.54,6.54,0,0,1,0-1c0-.31,0-.63,0-1A7.65,7.65,0,0,1,57,3.07l2.62,0,3.43,0H66.7l3.16,0,2.09,0a6.94,6.94,0,0,1,0,1.44,11.53,11.53,0,0,0,0,1.44v5.81l-.17.09a.31.31,0,0,1-.17.05,1.6,1.6,0,0,0-.72,0,2.44,2.44,0,0,1-.72,0l-.74,0a3.68,3.68,0,0,1-.74,0,1.43,1.43,0,0,1-.44-.1V10.34c0-.25,0-.48,0-.69a2.85,2.85,0,0,1,0-.65,1.53,1.53,0,0,0-.4-1.13A1.75,1.75,0,0,0,67,7.22a1.66,1.66,0,0,0-.38-.09ZM57.07,5.78l.17.17.17.17L57.7,6a1,1,0,0,0,.24-.17V5.3a1.4,1.4,0,0,0-.2-.16A1.91,1.91,0,0,0,57.5,5a2.6,2.6,0,0,1-.43.33Zm1,11c0,.23.06.36.1.39a.38.38,0,0,0,.16,0l.22,0a1.91,1.91,0,0,1-.24-.17Zm.72-2.4v1.64a1.68,1.68,0,0,1,.41,0h.41a.58.58,0,0,1,.24-.15.72.72,0,0,0,.24-.14l.12.07s.05,0,.12.07a.4.4,0,0,1,.26-.4c.17-.08.22-.24.12-.46a2.36,2.36,0,0,1-.94-.38A1.25,1.25,0,0,0,58.8,14.42Zm.1-4.17s0,0,0-.05v.1S58.86,10.25,58.9,10.25ZM60.72,20a2,2,0,0,0,.05.48,5.27,5.27,0,0,1,.62-.19v-.82a2,2,0,0,0,.34-.31,2.15,2.15,0,0,1,.24-.26,2.83,2.83,0,0,1,2.16.57A3.59,3.59,0,0,1,65.18,21h1.35V19.27a3.5,3.5,0,0,0-.39-.17,3.8,3.8,0,0,0-.48,0,1.23,1.23,0,0,1,0,.19c0,.07,0,.15-.07.24a1.53,1.53,0,0,0-.17-.14,1.28,1.28,0,0,0-.17-.1l.29-.29a.56.56,0,0,1-.24-.36.45.45,0,0,0-.29-.31s.05,0,.05-.07,0,0,0-.07a1.53,1.53,0,0,0-.29-.07q-.15,0-.24-.27a1.46,1.46,0,0,0,.07-.19,1.46,1.46,0,0,1,.07-.19c0-.16,0-.31-.07-.43s0-.26-.07-.39a.16.16,0,0,0-.1-.05.86.86,0,0,1,0,.22.86.86,0,0,0,0,.22l-.17.09-.17.1-.65-.36a3.71,3.71,0,0,0-.65-.27,3.76,3.76,0,0,0-.62-.14,4.69,4.69,0,0,0-.62-.05.83.83,0,0,1-.24-.79,1.76,1.76,0,0,0,0-.79c-.07.25-.12.49-.17.72l-.17.72q-.39,0-.48.24a.82.82,0,0,1-.34.43,1.45,1.45,0,0,0-.26-.07l-.31-.07a1.72,1.72,0,0,0,.09.52.67.67,0,0,0-.12.17.77.77,0,0,1-.07.17.59.59,0,0,1,.12.14,1,1,0,0,0,.12.15l-.86.29c.16.12.31.24.45.33l.41.29c-.06.13-.11.23-.14.31a2.86,2.86,0,0,0-.1.31,2.39,2.39,0,0,0,.58.1.44.44,0,0,1,.29.29C60.59,19.82,60.72,19.88,60.72,20Zm-1.54-.29H59a.73.73,0,0,0-.09.29ZM58.94,4.39v.1s0,0,0,0,0,0,0-.05Zm.63,1a4.9,4.9,0,0,0,.09-.58c0-.06-.06-.16-.19-.28l-.19.19a3.54,3.54,0,0,1,.14.33A1.87,1.87,0,0,0,59.57,5.4Zm.33,16.18h-.48l-.14.72a1.35,1.35,0,0,0,.19.16,1.54,1.54,0,0,1,.19.17,1.76,1.76,0,0,1,.27-.14,1,1,0,0,0,.26-.15v-.48a.33.33,0,0,0-.12-.14A1.53,1.53,0,0,1,59.9,21.58Zm-.52-14.5V7l-.05,0Zm.19,4.61v1.05a3.51,3.51,0,0,0,.5-.19l.46-.19a3.54,3.54,0,0,0-.1-.67c-.16-.16-.3-.22-.43-.17Zm.91,12.24a1,1,0,0,0-.38.24.49.49,0,0,0-.15.38.77.77,0,0,0,.07.29,1.78,1.78,0,0,1,.12.29h.58a2.15,2.15,0,0,1,.38-.53.5.5,0,0,0,.15,0,.26.26,0,0,1,.14.05v-.82a4.35,4.35,0,0,0-.43.38C60.77,24.14,60.61,24,60.48,23.93ZM60.19,4.44s0-.05,0-.05l0,.05,0,0Zm.24,4.32a1.21,1.21,0,0,1-.19.29.57.57,0,0,1,.14.24.61.61,0,0,0,.15.24c.38-.1.59-.26.62-.48A1.21,1.21,0,0,1,61,8.76Zm0-1,0,0v.1A0,0,0,0,1,60.48,7.75Zm.24,4.9,0-.05h-.05A.16.16,0,0,0,60.72,12.65Zm.1-.48,0-.05,0,0s0,0,0,0A0,0,0,0,1,60.82,12.17Zm.24-6.48s0,0,0-.05V5.35H61a.79.79,0,0,0,0,.17A.43.43,0,0,1,61.06,5.69Zm0,20.11.15.14.14.15v-.58A.68.68,0,0,0,61.1,25.8ZM61.3,12c-.07.07-.12.1-.15.1l.15.14a.08.08,0,0,0,.09-.09A.31.31,0,0,0,61.3,12Zm.14,8.88c-.07-.06-.11-.09-.14-.09s-.08,0-.15.09l.1.1ZM62.21,4v0h.24V4Zm.19,1.44,0,0,0,0a.14.14,0,0,1,.05-.09Zm1.82,12.24c-.06.09-.11.14-.14.14l-.14-.14s.05,0,.07-.05a.08.08,0,0,1,.07-.05S64.1,17.62,64.22,17.69ZM66.43,15l-.57-.43a1.9,1.9,0,0,1-.44.19c-.06.16-.12.3-.16.43s0,.26.21.39h.63l.28-.29A.52.52,0,0,0,66.43,15Zm-.38,3.6h.09l0-.05Zm3.84-7.92c-.07-.06-.12-.1-.15-.1l-.14.15.19.09S69.82,10.74,69.89,10.68Z"/><path class="cls-1" d="M74,17.4a13.58,13.58,0,0,1,1.2-1.34,2.29,2.29,0,0,0,.62-1.59,7.62,7.62,0,0,1,0-1.17,4.19,4.19,0,0,0-.05-1.13,14.89,14.89,0,0,1-.07-1.87,14,14,0,0,0-.07-1.83,5.51,5.51,0,0,1,0-1.27,5.51,5.51,0,0,0,0-1.27q-.09-.63-.12-1.2c0-.39,0-.79,0-1.2V3.14a5.81,5.81,0,0,1,.79-.07l1.3,0h1.34a6.19,6.19,0,0,1,1,.05,5.61,5.61,0,0,0,0,1.36,3.52,3.52,0,0,1-.12,1.37.38.38,0,0,0,0,.24.72.72,0,0,1,0,.29c0,.83,0,1.66,0,2.5s0,1.66-.09,2.49a11.81,11.81,0,0,0,0,1.87,11.91,11.91,0,0,1,0,1.88,6,6,0,0,0,.84,1.22l1,1.13a5.16,5.16,0,0,1-.62.69c-.22.21-.46.43-.72.65a2.35,2.35,0,0,0-.5.58,1.12,1.12,0,0,0-.17.77v.52a8.46,8.46,0,0,0,0,.87c0,.29,0,.59-.05.91a.88.88,0,0,0,.48,0,1.29,1.29,0,0,1,.48,0,2.82,2.82,0,0,1,.07.65c0,.33,0,.71,0,1.12v1.25a10.32,10.32,0,0,1,0,1.06H75v-4a1.45,1.45,0,0,1,.48-.05H76a5.13,5.13,0,0,0,0-1,2.63,2.63,0,0,1-.09-.67v-.72a1.52,1.52,0,0,0-.58-1.25A12,12,0,0,1,74,17.4Zm5.76,14.45a1.2,1.2,0,0,0,0,.43,1,1,0,0,1-.07.48,2.24,2.24,0,0,1-2,1.68,1.87,1.87,0,0,1-.62,0,1.15,1.15,0,0,1-.58-.32,3,3,0,0,1-1-1.53,3.25,3.25,0,0,1,0-1.75,2.61,2.61,0,0,1,.92-1.47,2.24,2.24,0,0,1,1.24-.41,1.66,1.66,0,0,1,1.25.51,3.64,3.64,0,0,1,.67.93A2.56,2.56,0,0,1,79.73,31.85Zm-3-13.3v.1l0,0A0,0,0,0,0,76.75,18.55ZM77,19.61a.36.36,0,0,0-.1.53c0,.06.07.09.19.09a.32.32,0,0,0,.2-.48Zm.14,3.17h-.05v0h.05Zm.1-1.4h0l0,0,0,0Zm0-14.59v.1l0,0A0,0,0,0,0,77.28,6.79Zm.14,9.27h0v.43h0Zm0,6.86a.91.91,0,0,0,.39.19,1.27,1.27,0,0,0,.43-.24,3.8,3.8,0,0,1-.39-.33A4.35,4.35,0,0,1,77.42,22.92Zm.24,7a.14.14,0,0,1,0,.1.81.81,0,0,1,.2.14l.09-.1L77.78,30A.44.44,0,0,0,77.66,29.88Zm0,1.78s0,0,0,0S77.71,31.69,77.71,31.66ZM78.24,5v-.1h-.19V5Zm.57,26.16a.48.48,0,0,1,0-.12.42.42,0,0,0,0-.12.75.75,0,0,1-.29,0q0,.24.12.24A.82.82,0,0,0,78.81,31.18Zm-.33,1.58a0,0,0,0,0,0,0h0l0,0Zm.67-7.06a.26.26,0,0,0,.14-.09V24.46a.47.47,0,0,0-.21.28.71.71,0,0,0,0,.29,1.86,1.86,0,0,0,0,.27.61.61,0,0,1,0,.26s0,.06,0,.07S79.15,25.67,79.15,25.7Zm.53-8.4,0,0s0,0,0-.05l-.05.05S79.65,17.3,79.68,17.3Z"/><path class="cls-2" d="M16.27,8.88a.39.39,0,0,0-.14.1A.14.14,0,0,1,16,9H13a1,1,0,0,1-.38-.19.92.92,0,0,0,0-.29,1.56,1.56,0,0,1,.05-.33A.25.25,0,0,0,12.62,8a.31.31,0,0,1,0-.17,8.57,8.57,0,0,0,0-.89,8.33,8.33,0,0,1,.05-.88,1.68,1.68,0,0,0-.09-.44,2.06,2.06,0,0,0-1.25-1.39,1.65,1.65,0,0,0-.48-.09c-.74,0-1.46,0-2.16,0H6.53a1.09,1.09,0,0,1,0,.26,1.8,1.8,0,0,0,0,.22c0,.45-.06.91-.1,1.39a10.9,10.9,0,0,0,0,1.4c0,.83.07,1.65.1,2.45s0,1.62,0,2.45a1.51,1.51,0,0,0,1.08-.36A1.67,1.67,0,0,0,8,10.43a1,1,0,0,0,.5-.15.6.6,0,0,1,.6.05,1.5,1.5,0,0,1,.6-.07,2.37,2.37,0,0,0,.6,0h1.2v8.61H8.11A2.86,2.86,0,0,0,8,18a1.76,1.76,0,0,0-.53-.74A3.5,3.5,0,0,0,7,17a2,2,0,0,0-.55-.12,10.16,10.16,0,0,1,0,1.23c0,.4,0,.81,0,1.22V31.73h2v4a7.38,7.38,0,0,1-1.11.07l-2.13,0c-.82,0-1.68,0-2.59,0l-2.52,0A3.75,3.75,0,0,1,0,35.1c0-.35,0-.74,0-1.17V32.68a7.39,7.39,0,0,1,.05-.95H2v-15a2,2,0,0,0-.72-.92,7.18,7.18,0,0,1-.63-.6c-.19-.2-.38-.42-.57-.65a3.28,3.28,0,0,1,.55-.67,7,7,0,0,0,.6-.62c.16-.16.31-.33.46-.51A2.5,2.5,0,0,0,2,12.06V4.18a3.38,3.38,0,0,0-1,0,5.34,5.34,0,0,1-1,0V.1H16.22a8.48,8.48,0,0,1,.08,1.2c0,.64,0,1.4,0,2.28V6.34C16.32,7.3,16.3,8.14,16.27,8.88ZM3.12,4.51a1,1,0,0,1,.24-.33,1.93,1.93,0,0,0,.24-.29A1.26,1.26,0,0,0,3,3.41a.75.75,0,0,1-.46-.53.74.74,0,0,0-.6.05,3.86,3.86,0,0,1-.55.29,8.82,8.82,0,0,1,1.11.19,2.77,2.77,0,0,1,.38.33.77.77,0,0,1,.05.44C2.9,4.3,3,4.42,3.12,4.51Zm.34-3.26q0-.1,0-.12a.29.29,0,0,1,0-.12h-1v.48l.45-.34C3.05,1.06,3.23,1.09,3.46,1.25ZM3.31,12.58a2.48,2.48,0,0,0-.26.19.46.46,0,0,0-.17.24,1,1,0,0,0-.1.43,1.36,1.36,0,0,1-.09.48,4,4,0,0,1,.6-.12.54.54,0,0,0,.41-.36v-.53A2.85,2.85,0,0,0,3.31,12.58ZM3,10.51a2.07,2.07,0,0,0,0,1.15h.28a4,4,0,0,1-.14-.57C3.09,10.9,3.06,10.7,3,10.51Zm.82-5.76a4.12,4.12,0,0,1-.46.41l-.45.36V8a1.33,1.33,0,0,0,.14.57l.05.05.07,0a.09.09,0,0,1,.07,0s0,0,.1,0a1.69,1.69,0,0,1,.22.31s0,.17.07.36A5.26,5.26,0,0,1,4.54,9a1.05,1.05,0,0,0,.74-.55.7.7,0,0,1,.29.1V7a4.52,4.52,0,0,1,0-.72,2,2,0,0,0-.07-.72A4,4,0,0,1,5,6.05L4.8,5.81A1.21,1.21,0,0,0,5,5.52,4.24,4.24,0,0,1,4.75,5a.85.85,0,0,1-.26,0,.54.54,0,0,0-.22,0,5.13,5.13,0,0,1-.12-.77A4.17,4.17,0,0,0,4,3.5a5.46,5.46,0,0,0-.12.68A5.54,5.54,0,0,1,3.84,4.75ZM3.07,10h0v0Zm.15,23h.09v-.24H3.22ZM4,3.31h0V3.12H4Zm.58,6.34c-.16.09-.23.18-.22.26a1.42,1.42,0,0,0,.07.22c0,.06.08.14.15.24a2.51,2.51,0,0,0,.19.24c0-.16-.06-.32-.1-.48Zm-.15,2.64v0ZM5.66,2.16A1.43,1.43,0,0,0,6,1.7c0-.08-.06-.23-.22-.45H5.09c-.16.13-.23.25-.19.38a1.48,1.48,0,0,1,0,.34l.32.17A2.5,2.5,0,0,0,5.66,2.16Zm-.52,15s0,0,0,0v.09Zm1.39-3.74v.05l0,0v-.1ZM7.92,2.74V2.26a.5.5,0,0,1-.19.12.31.31,0,0,0-.19.12.44.44,0,0,0,.19.12A.34.34,0,0,1,7.92,2.74Zm2.64,12.57c-.19-.09-.39-.18-.6-.26l-.65-.27c-.35-.12-.61-.09-.77.1a1.61,1.61,0,0,0,0,.72c.05.22.09.45.12.67a1.63,1.63,0,0,0,.36.05,2.38,2.38,0,0,1,.41.05.74.74,0,0,1,.24-.17A3.09,3.09,0,0,0,9.94,16l.33.19.29.2a.45.45,0,0,1-.07-.56A.63.63,0,0,0,10.56,15.31Zm0,2.69V16.56c-.1.13-.19.25-.29.36a2.87,2.87,0,0,1-.29.31l-.19-.07-.19-.07a.25.25,0,0,1-.1.12.07.07,0,0,0,0,.07.43.43,0,0,0,0,.19.17.17,0,0,1,0,.19.22.22,0,0,1-.07.17.66.66,0,0,0-.12.17Zm-1.1-4.85a1.66,1.66,0,0,0,.4-.21,3.48,3.48,0,0,1,.36-.22,4.6,4.6,0,0,1,.39.43,1.9,1.9,0,0,1-.12-.53c0-.16,0-.32-.07-.48q-.35-.37-.51-.36c-.11,0-.29.17-.55.46a.94.94,0,0,1,.1.38.38.38,0,0,1,0,.24A1.46,1.46,0,0,0,9.46,13.15ZM14.93,1.49v-.1h-.19v.1Zm-.1,1.63v.1a.47.47,0,0,1,.24-.05s-.05,0-.05-.1A.27.27,0,0,1,14.83,3.12Z"/><path class="cls-2" d="M30.48,14.83l.36.17.31.12a2.92,2.92,0,0,1,1.06.38,6.53,6.53,0,0,1,.91.68,2.28,2.28,0,0,1,.5.72,7.59,7.59,0,0,1,.32.81,2.54,2.54,0,0,1,.09.65,5,5,0,0,0,0,.65,6.06,6.06,0,0,1,.1,1c0,.32,0,.65,0,1a1.23,1.23,0,0,1-.07.44.77.77,0,0,0,0,.43,1.63,1.63,0,0,1,0,.86,5.31,5.31,0,0,1,0,.72,5.55,5.55,0,0,0-.05.72v2.47c0,.63,0,1.3,0,2s0,1.38,0,2,0,1,0,1.06h2v4.08H32.69a2.75,2.75,0,0,1-2.11-.87,2.57,2.57,0,0,1-.72-1.82V25.73c0-1.12,0-2.23,0-3.31s0-2.2,0-3.32a2.88,2.88,0,0,0-.63-1.68,1.15,1.15,0,0,0-.5-.36c-.21-.08-.43-.15-.65-.21a5.62,5.62,0,0,0-1.73-.12,9.31,9.31,0,0,1-1.82,0v3.7c0,.16,0,.34,0,.53a.82.82,0,0,1-.12.53v.19a.72.72,0,0,1,.12.48c0,.16,0,.32,0,.48v9.07h1.82a4,4,0,0,1,.07,1c0,.34,0,.68,0,1v2a10.19,10.19,0,0,1-1.37.07c-.78,0-1.64,0-2.57,0H19.78c-.87,0-1.43,0-1.68-.05v-4h2V17.54a2.49,2.49,0,0,0-.76-1.82l-.6-.6c-.21-.21-.43-.45-.65-.7l.72-.72a5.06,5.06,0,0,0,1-1.37,4.81,4.81,0,0,0,.26-1.85c0-.93,0-1.88,0-2.84s0-1.93,0-2.89V4.13h-2V.1a1.38,1.38,0,0,1,.48,0h8.06A12.83,12.83,0,0,1,28,.12c.46.05.92.1,1.37.17s.62.13.91.21.57.17.86.27a3.78,3.78,0,0,1,1.56,1.1,5.49,5.49,0,0,1,.94,1.68A4.58,4.58,0,0,1,34,4.7q.07.59.12,1.2c.06.45.11.92.14,1.4a6.94,6.94,0,0,1,0,1.44,16.76,16.76,0,0,0-.12,1.75,5.41,5.41,0,0,1-.36,1.75,4.63,4.63,0,0,1-.77,1.27,3,3,0,0,1-1.25.84l-.58.22Zm-5.86-2.16,1.47,0c.49,0,1,0,1.46,0a3.14,3.14,0,0,0,1.13-.29,1.64,1.64,0,0,0,.79-.86,3.44,3.44,0,0,0,.34-1.39c0-.45.05-.89.05-1.32V7.49c0-.32,0-.63,0-.91a4.34,4.34,0,0,0-.12-.87A2.53,2.53,0,0,0,29.4,5a1.48,1.48,0,0,0-.6-.53,2.83,2.83,0,0,0-1.34-.33c-.42,0-.82,0-1.2,0H24.53v7.34a.71.71,0,0,0,0,.29.23.23,0,0,1,0,.24.4.4,0,0,0-.07.39Zm1.2,1.83h0v0h0Zm1.83-.77v0h.19a.14.14,0,0,0-.05-.1A.2.2,0,0,0,27.65,13.73Zm3.12,5.09a1.37,1.37,0,0,0,0,.19,1,1,0,0,1,0,.29c.09-.26.08-.42-.05-.48V18.5a.52.52,0,0,0-.1-.31.55.55,0,0,1,0,.36Q30.58,18.72,30.77,18.82Zm0,3.88c0,.36,0,1,0,1.83s0,1.78,0,2.76,0,1.9,0,2.78a7.83,7.83,0,0,0,.17,1.8,2.77,2.77,0,0,1,1-.21.92.92,0,0,0,.77-.56.26.26,0,0,0,.14,0,.5.5,0,0,1,.15.05l.28-.14V23.52a.68.68,0,0,0-.24-.07l-.24-.07-.14.16a1,1,0,0,1-.14.17.56.56,0,0,1-.29-.05l.14-.43a2.2,2.2,0,0,1-.09-.21,1.92,1.92,0,0,0-.15-.27.73.73,0,0,1-.19.07.77.77,0,0,0-.19.08q-.24-.11-.15-.27a.33.33,0,0,0,0-.36.28.28,0,0,1,0-.29.61.61,0,0,0,0-.33,2.06,2.06,0,0,1,0-.36.82.82,0,0,0-.07-.41c-.07.35-.12.66-.17.94s-.1.55-.17.84a.62.62,0,0,0-.19,0A.62.62,0,0,1,30.77,22.7Zm0-.76a2.46,2.46,0,0,1,.29-.34.73.73,0,0,1-.15-.17l-.14-.21Zm.57,10.56h.05v-.24h-.05Zm.82.81a.42.42,0,0,0,0-.41.65.65,0,0,1-.12-.4.44.44,0,0,0-.17,0,.47.47,0,0,1-.17,0,.34.34,0,0,1,.17.41C31.8,33.13,31.9,33.25,32.16,33.31Zm.1-13.58a5.55,5.55,0,0,1,.48.29l.52-.29v-.58c-.12-.16-.24-.22-.36-.19a.73.73,0,0,1-.36,0A.63.63,0,0,0,32.26,19.73Zm.48-15.46-.1.1a.14.14,0,0,0,0,.07.09.09,0,0,1,0,.07A.54.54,0,0,0,32.74,4.27Zm.38,18.58a0,0,0,0,1,0-.05v.1A0,0,0,0,0,33.12,22.85Zm1.82,10.56.05,0-.12,0s0,0-.12,0v.1Z"/><path class="cls-2" d="M44.4,4.13v8.16a1.24,1.24,0,0,0,.79-.07,3.26,3.26,0,0,0,.65-.41,1.77,1.77,0,0,0,.53-1.39,2.21,2.21,0,0,1,1-.2c.41,0,1.07,0,2,.15a2.07,2.07,0,0,1,.2.86V15.6a1.16,1.16,0,0,1,0,.34.92.92,0,0,0-.05.28,1.8,1.8,0,0,1,0,.22.33.33,0,0,0,0,.22.28.28,0,0,1,0,.38.12.12,0,0,0,0,.19,1,1,0,0,1,.05.77,1.42,1.42,0,0,0-.05.82h-3a2.08,2.08,0,0,0-.82-1.64,1.8,1.8,0,0,0-.53-.28,1.09,1.09,0,0,0-.67,0v9.84c.51,0,1,0,1.49,0s1,0,1.49,0H50.3a1.33,1.33,0,0,1,0-.28c0-.1,0-.18,0-.24V22.75a2,2,0,0,1,0-.36c0-.11,0-.23,0-.36s0-.2,0-.31a1.8,1.8,0,0,1,0-.31l0-.05H54A10,10,0,0,1,54,22.7c0,.77,0,1.64,0,2.62v3c0,1,0,1.83,0,2.47a7.93,7.93,0,0,1-1.1.07l-2.43.05-3.24,0H40.46c-1,0-1.85,0-2.49-.05,0,0,0,0,0,0v-4a3.42,3.42,0,0,1,1.06,0,3.36,3.36,0,0,0,1.05,0V17.47a2.12,2.12,0,0,0-.67-1.63,3.5,3.5,0,0,0-.48-.41A3.5,3.5,0,0,1,38.4,15l-.22-.19A.51.51,0,0,1,38,14.5s0-.06,0-.08a.18.18,0,0,1,0-.07,7.87,7.87,0,0,0,.72-.81c.23-.29.47-.56.72-.82a1.43,1.43,0,0,0,.48-1.1V4.18H38a4.11,4.11,0,0,1-.07-1c0-.33,0-.68,0-1a6.54,6.54,0,0,1,0-1c0-.31,0-.63,0-1A7.5,7.5,0,0,1,39.07.07l2.62,0,3.43,0h3.62l3.17,0L54,.05a7.71,7.71,0,0,1,0,1.44,11.53,11.53,0,0,0,0,1.44V8.74l-.17.09a.31.31,0,0,1-.17.05,1.6,1.6,0,0,0-.72,0,2.44,2.44,0,0,1-.72,0l-.74,0a3.8,3.8,0,0,1-.75,0,1.38,1.38,0,0,1-.43-.1V7.34c0-.25,0-.48,0-.69a2.85,2.85,0,0,1,0-.65,1.55,1.55,0,0,0-.41-1.13A1.7,1.7,0,0,0,49,4.22a1.6,1.6,0,0,0-.39-.09ZM39.12,2.78l.17.17.17.17L39.74,3A.74.74,0,0,0,40,2.78V2.3a1,1,0,0,0-.19-.16A1.91,1.91,0,0,0,39.55,2a2.6,2.6,0,0,1-.43.33Zm1,11a1,1,0,0,0,.09.39.43.43,0,0,0,.17,0l.22,0a1.91,1.91,0,0,1-.24-.17Zm.72-2.4v1.64a1.63,1.63,0,0,1,.41-.05h.4a.75.75,0,0,1,.24-.15.57.57,0,0,0,.24-.14.44.44,0,0,1,.12.07l.12.07a.41.41,0,0,1,.27-.4c.17-.08.21-.24.12-.46a2.3,2.3,0,0,1-.94-.38A1.25,1.25,0,0,0,40.85,11.42Zm.09-4.17s0,0,0,0v.1S40.91,7.25,40.94,7.25ZM42.77,17a2,2,0,0,0,0,.48,4.73,4.73,0,0,1,.62-.19v-.82a2,2,0,0,0,.34-.31,2.15,2.15,0,0,1,.24-.26,2.85,2.85,0,0,1,2.16.57,3.59,3.59,0,0,1,1,1.49h1.35V16.27c-.2-.09-.32-.15-.39-.17a3.8,3.8,0,0,0-.48,0,1.23,1.23,0,0,1,0,.19c0,.07,0,.15-.07.24a1.53,1.53,0,0,0-.17-.14l-.17-.1.29-.29a.56.56,0,0,1-.24-.36.45.45,0,0,0-.29-.31s.05-.05.05-.07,0,0,0-.07a1.74,1.74,0,0,0-.29-.07q-.15,0-.24-.27a1.46,1.46,0,0,0,.07-.19,1.46,1.46,0,0,1,.07-.19c0-.16,0-.31-.07-.43s0-.26-.07-.39a.16.16,0,0,0-.1-.05,1.8,1.8,0,0,1,0,.22.89.89,0,0,0,0,.22l-.16.09-.17.1-.65-.36a3.71,3.71,0,0,0-.65-.27,3.76,3.76,0,0,0-.62-.14,4.83,4.83,0,0,0-.63,0,.88.88,0,0,1-.24-.79,1.51,1.51,0,0,0,0-.79c-.06.25-.12.49-.16.72l-.17.72q-.39,0-.48.24a.82.82,0,0,1-.34.43,1.45,1.45,0,0,0-.26-.07l-.31-.07a1.72,1.72,0,0,0,.09.52.67.67,0,0,0-.12.17.77.77,0,0,1-.07.17l.12.14a1,1,0,0,0,.12.15l-.86.29c.16.12.31.24.45.33l.41.29c-.06.13-.11.23-.14.31a1.62,1.62,0,0,0-.1.31,2.39,2.39,0,0,0,.58.1.43.43,0,0,1,.28.29C42.64,16.82,42.77,16.88,42.77,17Zm-1.54-.29H41a.87.87,0,0,0-.1.29ZM41,1.39v.1s0-.05,0-.05,0,0,0-.05Zm.63,1a4.9,4.9,0,0,0,.09-.58c0-.06-.06-.16-.19-.28l-.19.19a3.54,3.54,0,0,1,.14.33A1.87,1.87,0,0,0,41.62,2.4ZM42,18.58h-.48l-.14.72a1.35,1.35,0,0,0,.19.16l.19.17a1.76,1.76,0,0,1,.27-.14,1.21,1.21,0,0,0,.26-.15v-.48a.33.33,0,0,0-.12-.14A1.53,1.53,0,0,1,42,18.58Zm-.53-14.5V4l0,0Zm.2,4.61V9.74a3.51,3.51,0,0,0,.5-.19l.46-.19a4.66,4.66,0,0,0-.1-.67c-.16-.16-.3-.22-.43-.17Zm.91,12.24a1.08,1.08,0,0,0-.39.24.52.52,0,0,0-.14.38.62.62,0,0,0,.07.29,1.78,1.78,0,0,1,.12.29h.58a1.92,1.92,0,0,1,.38-.53.43.43,0,0,0,.15,0,.26.26,0,0,1,.14.05v-.82a4.35,4.35,0,0,0-.43.38C42.82,21.14,42.66,21,42.53,20.93ZM42.24,1.44a0,0,0,0,0-.05-.05l0,.05,0,.05Zm.24,4.32a1.21,1.21,0,0,1-.19.29.57.57,0,0,1,.14.24.61.61,0,0,0,.15.24c.38-.1.59-.26.62-.48A1.21,1.21,0,0,1,43,5.76Zm.05-1-.05,0v.1A0,0,0,0,1,42.53,4.75Zm.24,4.9-.05-.05h0A.16.16,0,0,0,42.77,9.65Zm.09-.48,0-.05,0,0s0,0,0,0S42.86,9.14,42.86,9.17Zm.24-6.48s0,0,0,0V2.35h-.09a.44.44,0,0,0,0,.17A.44.44,0,0,1,43.1,2.69Zm0,20.11.15.14.14.15v-.58A.68.68,0,0,0,43.15,22.8ZM43.34,9c-.06.07-.11.1-.14.1l.14.14c.07,0,.1,0,.1-.09S43.41,9.09,43.34,9Zm.15,8.88c-.07-.06-.11-.09-.15-.09a.26.26,0,0,0-.14.09l.1.1ZM44.26,1v.05h.24V1Zm.19,1.44-.05,0,.05,0a.11.11,0,0,1,0-.09Zm1.82,12.24c-.06.09-.11.14-.14.14L46,14.69a.09.09,0,0,0,.08,0,.08.08,0,0,1,.07-.05S46.14,14.62,46.27,14.69ZM48.48,12l-.58-.43a1.79,1.79,0,0,1-.43.19l-.17.43c0,.13,0,.26.22.39h.62l.29-.29A.52.52,0,0,0,48.48,12Zm-.38,3.6h.09l0,0Zm3.84-7.92c-.07-.06-.12-.1-.15-.1l-.14.15.19.09S51.87,7.74,51.94,7.68Z"/><path class="cls-2" d="M62.35,4.13v8.16a1.24,1.24,0,0,0,.79-.07,3.26,3.26,0,0,0,.65-.41,1.74,1.74,0,0,0,.53-1.39,2.24,2.24,0,0,1,1-.2c.41,0,1.07,0,2,.15a2.23,2.23,0,0,1,.19.86V15.6a1.16,1.16,0,0,1,0,.34.92.92,0,0,0,0,.28,1.8,1.8,0,0,1,0,.22.33.33,0,0,0,0,.22.28.28,0,0,1,0,.38.12.12,0,0,0,0,.19.91.91,0,0,1,0,.77,1.42,1.42,0,0,0,0,.82h-3a2,2,0,0,0-.82-1.64A1.68,1.68,0,0,0,63,16.9a1.09,1.09,0,0,0-.67,0v9.84c.51,0,1,0,1.49,0s1,0,1.49,0h2.93a1.32,1.32,0,0,1,0-.28,1.15,1.15,0,0,0,0-.24V22.75a2,2,0,0,1,0-.36c0-.11,0-.23,0-.36s0-.2,0-.31a1.8,1.8,0,0,1,0-.31l0-.05H71.9A9.17,9.17,0,0,1,72,22.7c0,.77,0,1.64,0,2.62v3c0,1,0,1.83,0,2.47a7.77,7.77,0,0,1-1.1.07l-2.43.05-3.24,0H58.42c-1,0-1.86,0-2.5-.05,0,0,0,0-.05,0v-4a3.42,3.42,0,0,1,1.06,0,3.36,3.36,0,0,0,1,0V17.47a2.12,2.12,0,0,0-.67-1.63,3.5,3.5,0,0,0-.48-.41,3.5,3.5,0,0,1-.48-.41l-.21-.19A.52.52,0,0,1,56,14.5s.05-.06.05-.08a.13.13,0,0,1,0-.07,7.87,7.87,0,0,0,.72-.81c.23-.29.47-.56.72-.82a1.43,1.43,0,0,0,.48-1.1V4.18H55.92a4.11,4.11,0,0,1-.07-1c0-.33,0-.68,0-1a6.54,6.54,0,0,1,0-1c0-.31,0-.63,0-1A7.65,7.65,0,0,1,57,.07l2.62,0,3.43,0H66.7l3.16,0L72,.05a6.94,6.94,0,0,1,0,1.44,11.53,11.53,0,0,0,0,1.44V8.74l-.17.09a.31.31,0,0,1-.17.05,1.6,1.6,0,0,0-.72,0,2.44,2.44,0,0,1-.72,0l-.74,0a3.68,3.68,0,0,1-.74,0,1.43,1.43,0,0,1-.44-.1V7.34c0-.25,0-.48,0-.69a2.85,2.85,0,0,1,0-.65,1.53,1.53,0,0,0-.4-1.13A1.75,1.75,0,0,0,67,4.22a1.66,1.66,0,0,0-.38-.09ZM57.07,2.78l.17.17.17.17L57.7,3a1,1,0,0,0,.24-.17V2.3a1.4,1.4,0,0,0-.2-.16A1.91,1.91,0,0,0,57.5,2a2.6,2.6,0,0,1-.43.33Zm1,11c0,.23.06.36.1.39a.38.38,0,0,0,.16,0l.22,0a1.91,1.91,0,0,1-.24-.17Zm.72-2.4v1.64a1.68,1.68,0,0,1,.41-.05h.41a.58.58,0,0,1,.24-.15.72.72,0,0,0,.24-.14l.12.07s.05,0,.12.07a.4.4,0,0,1,.26-.4c.17-.08.22-.24.12-.46a2.36,2.36,0,0,1-.94-.38A1.25,1.25,0,0,0,58.8,11.42Zm.1-4.17s0,0,0,0v.1S58.86,7.25,58.9,7.25ZM60.72,17a2,2,0,0,0,.05.48,5.27,5.27,0,0,1,.62-.19v-.82a2,2,0,0,0,.34-.31,2.15,2.15,0,0,1,.24-.26,2.83,2.83,0,0,1,2.16.57A3.59,3.59,0,0,1,65.18,18h1.35V16.27a3.5,3.5,0,0,0-.39-.17,3.8,3.8,0,0,0-.48,0,1.23,1.23,0,0,1,0,.19c0,.07,0,.15-.07.24a1.53,1.53,0,0,0-.17-.14,1.28,1.28,0,0,0-.17-.1l.29-.29a.56.56,0,0,1-.24-.36.45.45,0,0,0-.29-.31s.05-.05.05-.07,0,0,0-.07a1.53,1.53,0,0,0-.29-.07q-.15,0-.24-.27a1.46,1.46,0,0,0,.07-.19,1.46,1.46,0,0,1,.07-.19c0-.16,0-.31-.07-.43s0-.26-.07-.39a.16.16,0,0,0-.1-.05.86.86,0,0,1,0,.22.86.86,0,0,0,0,.22l-.17.09-.17.1-.65-.36a3.71,3.71,0,0,0-.65-.27,3.76,3.76,0,0,0-.62-.14,4.69,4.69,0,0,0-.62,0,.83.83,0,0,1-.24-.79,1.76,1.76,0,0,0,0-.79c-.07.25-.12.49-.17.72l-.17.72q-.39,0-.48.24a.82.82,0,0,1-.34.43,1.45,1.45,0,0,0-.26-.07l-.31-.07a1.72,1.72,0,0,0,.09.52.67.67,0,0,0-.12.17.77.77,0,0,1-.07.17.59.59,0,0,1,.12.14,1,1,0,0,0,.12.15l-.86.29c.16.12.31.24.45.33l.41.29c-.06.13-.11.23-.14.31a2.86,2.86,0,0,0-.1.31,2.39,2.39,0,0,0,.58.1.44.44,0,0,1,.29.29C60.59,16.82,60.72,16.88,60.72,17Zm-1.54-.29H59a.73.73,0,0,0-.09.29ZM58.94,1.39v.1s0-.05,0-.05,0,0,0-.05Zm.63,1a4.9,4.9,0,0,0,.09-.58c0-.06-.06-.16-.19-.28l-.19.19a3.54,3.54,0,0,1,.14.33A1.87,1.87,0,0,0,59.57,2.4Zm.33,16.18h-.48l-.14.72a1.35,1.35,0,0,0,.19.16,1.54,1.54,0,0,1,.19.17,1.76,1.76,0,0,1,.27-.14,1,1,0,0,0,.26-.15v-.48a.33.33,0,0,0-.12-.14A1.53,1.53,0,0,1,59.9,18.58Zm-.52-14.5V4l-.05,0Zm.19,4.61V9.74a3.51,3.51,0,0,0,.5-.19l.46-.19a3.54,3.54,0,0,0-.1-.67c-.16-.16-.3-.22-.43-.17Zm.91,12.24a1,1,0,0,0-.38.24.49.49,0,0,0-.15.38.77.77,0,0,0,.07.29,1.78,1.78,0,0,1,.12.29h.58a2.15,2.15,0,0,1,.38-.53.5.5,0,0,0,.15,0,.26.26,0,0,1,.14.05v-.82a4.35,4.35,0,0,0-.43.38C60.77,21.14,60.61,21,60.48,20.93ZM60.19,1.44s0-.05,0-.05l0,.05,0,.05Zm.24,4.32a1.21,1.21,0,0,1-.19.29.57.57,0,0,1,.14.24.61.61,0,0,0,.15.24c.38-.1.59-.26.62-.48A1.21,1.21,0,0,1,61,5.76Zm0-1,0,0v.1A0,0,0,0,1,60.48,4.75Zm.24,4.9,0-.05h-.05A.16.16,0,0,0,60.72,9.65Zm.1-.48,0-.05,0,0s0,0,0,0A0,0,0,0,1,60.82,9.17Zm.24-6.48s0,0,0,0V2.35H61a.79.79,0,0,0,0,.17A.43.43,0,0,1,61.06,2.69Zm0,20.11.15.14.14.15v-.58A.68.68,0,0,0,61.1,22.8ZM61.3,9c-.07.07-.12.1-.15.1l.15.14a.08.08,0,0,0,.09-.09A.31.31,0,0,0,61.3,9Zm.14,8.88c-.07-.06-.11-.09-.14-.09s-.08,0-.15.09l.1.1ZM62.21,1v.05h.24V1Zm.19,1.44,0,0,0,0a.14.14,0,0,1,.05-.09Zm1.82,12.24c-.06.09-.11.14-.14.14l-.14-.14s.05,0,.07,0a.08.08,0,0,1,.07-.05S64.1,14.62,64.22,14.69ZM66.43,12l-.57-.43a1.9,1.9,0,0,1-.44.19c-.06.16-.12.3-.16.43s0,.26.21.39h.63l.28-.29A.52.52,0,0,0,66.43,12Zm-.38,3.6h.09l0,0Zm3.84-7.92c-.07-.06-.12-.1-.15-.1l-.14.15.19.09S69.82,7.74,69.89,7.68Z"/><path class="cls-2" d="M74,14.4a13.58,13.58,0,0,1,1.2-1.34,2.29,2.29,0,0,0,.62-1.59,7.62,7.62,0,0,1,0-1.17,4.19,4.19,0,0,0-.05-1.13,14.89,14.89,0,0,1-.07-1.87,14,14,0,0,0-.07-1.83,5.51,5.51,0,0,1,0-1.27,5.51,5.51,0,0,0,0-1.27q-.09-.63-.12-1.2c0-.39,0-.79,0-1.2V.14a5.81,5.81,0,0,1,.79-.07l1.3,0h1.34a6.19,6.19,0,0,1,1,.05,5.61,5.61,0,0,0,0,1.36,3.52,3.52,0,0,1-.12,1.37.38.38,0,0,0,0,.24.72.72,0,0,1,0,.29c0,.83,0,1.66,0,2.5s0,1.66-.09,2.49a11.81,11.81,0,0,0,0,1.87,11.91,11.91,0,0,1,0,1.88,6,6,0,0,0,.84,1.22l1,1.13a5.16,5.16,0,0,1-.62.69c-.22.21-.46.43-.72.65a2.35,2.35,0,0,0-.5.58,1.12,1.12,0,0,0-.17.77v.52a8.46,8.46,0,0,0,0,.87c0,.29,0,.59-.05.91a.88.88,0,0,0,.48,0,1.29,1.29,0,0,1,.48,0,2.82,2.82,0,0,1,.07.65c0,.33,0,.71,0,1.12v1.25a10.32,10.32,0,0,1,0,1.06H75v-4a1.45,1.45,0,0,1,.48-.05H76a5.13,5.13,0,0,0,0-1,2.63,2.63,0,0,1-.09-.67v-.72a1.52,1.52,0,0,0-.58-1.25A12,12,0,0,1,74,14.4Zm5.76,14.45a1.2,1.2,0,0,0,0,.43,1,1,0,0,1-.07.48,2.24,2.24,0,0,1-2,1.68,1.87,1.87,0,0,1-.62,0,1.15,1.15,0,0,1-.58-.32,3,3,0,0,1-1-1.53,3.25,3.25,0,0,1,0-1.75,2.61,2.61,0,0,1,.92-1.47,2.24,2.24,0,0,1,1.24-.41,1.66,1.66,0,0,1,1.25.51,3.64,3.64,0,0,1,.67.93A2.56,2.56,0,0,1,79.73,28.85Zm-3-13.3v.1l0-.05A0,0,0,0,0,76.75,15.55ZM77,16.61a.36.36,0,0,0-.1.53c0,.06.07.09.19.09a.32.32,0,0,0,.2-.48Zm.14,3.17h-.05v0h.05Zm.1-1.4h0l0,0,0,0Zm0-14.59v.1l0-.05A0,0,0,0,0,77.28,3.79Zm.14,9.27h0v.43h0Zm0,6.86a.91.91,0,0,0,.39.19,1.27,1.27,0,0,0,.43-.24,3.8,3.8,0,0,1-.39-.33A4.35,4.35,0,0,1,77.42,19.92Zm.24,7a.14.14,0,0,1,0,.1.81.81,0,0,1,.2.14l.09-.1L77.78,27A.44.44,0,0,0,77.66,26.88Zm0,1.78s0,0,0,0S77.71,28.69,77.71,28.66ZM78.24,2v-.1h-.19V2Zm.57,26.16a.48.48,0,0,1,0-.12.42.42,0,0,0,0-.12.75.75,0,0,1-.29,0q0,.24.12.24A.82.82,0,0,0,78.81,28.18Zm-.33,1.58a0,0,0,0,0,0-.05h0l0,.05Zm.67-7.06a.26.26,0,0,0,.14-.09V21.46a.47.47,0,0,0-.21.28.71.71,0,0,0,0,.29,1.86,1.86,0,0,0,0,.27.61.61,0,0,1,0,.26s0,.06,0,.07S79.15,22.67,79.15,22.7Zm.53-8.4,0,0s0,0,0,0l-.05,0S79.65,14.3,79.68,14.3Z"/></svg>