<svg id="Layer_1" data-name="Layer 1" xmlns="http://www.w3.org/2000/svg" viewBox="0 0 232.59 144.73"><defs><style>.cls-1{fill:#fae183;}.cls-2{fill:#e2e2e2;}.cls-3{fill:#c64f1a;}.cls-4,.cls-5,.cls-6{fill:none;stroke-miterlimit:10;}.cls-4{stroke:#b2b2b2;}.cls-5{stroke:#983233;}.cls-6{stroke:#ff6608;}</style></defs><title>Freedom_Hint1</title><path class="cls-1" d="M134.76,84.75s8-17,7-34.25-3.5-37.5-11.5-45-22.25-7-29.75,12S97,60.25,102.26,71.25s18.25,32.25,20.75,36.5S134.76,84.75,134.76,84.75Z"/><path class="cls-2" d="M133.76,84.75l8.25-3.5-4.75,9s2,.25,6.5-2S149.26,78,149.26,78a38.11,38.11,0,0,1,1,8.25c.25,5.75-4.75,9-12,15.75A48.9,48.9,0,0,0,128,115a32.2,32.2,0,0,1-6-7.25c-2.5-4.25-21.5-9.75-21.5-9.75l9,.25a91.87,91.87,0,0,1-11-11s9,3.75,9.75,4.25-3.25-6-3.75-7.25S109.63,86,110.38,86l11.75,9Z"/><path class="cls-3" d="M42.51,95.77l9.25-15.52s-3.43,2.44-3.18,1.69S51.26,52.25,47,39.25s-12-23.75-25.5-19-1,26.25-1,26.25l-18.25-8S13.51,45.25,14.51,48,12.26,69.5,18,81.75,28.26,94.5,28.26,94.5Z"/><path class="cls-4" d="M146.26,144.25c-1.5-.5-41.5-37.5-28-109.5"/><path class="cls-2" d="M17.26,93.58c.75.5,9.25,6.75,8.5,7s-7.5,1.25-6.5,1.25S34.88,103,40.63,110s9.63,9.12,9.63,9.12l1.25-.12s5-14.13,11.25-22.38a29.15,29.15,0,0,0,5.5-17.25A24.32,24.32,0,0,1,59,95.08s4.25-16.75,4-15.75-10.5,23.75-10.5,23.75l6-21.75-3,4.25,1-6.62-4,5.12L44,95.21S16.51,93.08,17.26,93.58Z"/><path class="cls-5" d="M40.51,94.77l9.25-15.52s-3.43,2.44-3.18,1.69S49.26,51.25,45,38.25s-12-23.75-25.5-19-1,26.25-1,26.25L.26,37.5S11.51,44.25,12.51,47,10.26,68.5,16,80.75,26.26,93.5,26.26,93.5Z"/><path class="cls-4" d="M64.76,139.25s-14-4-20.5-29-7-43.5-12-54"/><path class="cls-6" d="M126,115a48.9,48.9,0,0,1,10.25-13c7.25-6.75,12.25-10,12-15.75a38.11,38.11,0,0,0-1-8.25s-1,8-5.5,10.25-6.5,2-6.5,2l4.75-9-8.25,3.5s8-17,7-34.25-3.5-37.5-11.5-45-22.25-7-29.75,12S94,60.25,99.26,71.25,109.13,86,108.38,86s-6.37-3-5.87-1.75S107,92,106.26,91.5s-9.75-4.25-9.75-4.25a91.87,91.87,0,0,0,11,11l-9-.25s19,5.5,21.5,9.75A32.2,32.2,0,0,0,126,115Z"/><path class="cls-3" d="M203.56,98.62c-1.4-1.72,4.51-23.68-13.81-34.47s-30.42-10.44-31.16-28.89,18.16-44.33,30-32.09a150.39,150.39,0,0,1,20.32,27.25L205,2.21S230.64,8,232.51,36,203.56,98.62,203.56,98.62Z"/><path class="cls-5" d="M199.81,104.54c-1.4-1.72,4.51-23.68-13.81-34.47s-30.42-10.45-31.16-28.89,18.16-44.33,30-32.1a150,150,0,0,1,20.31,27.26L201.24,8.12s25.65,5.77,27.52,33.77S199.81,104.54,199.81,104.54Z"/><polygon class="cls-2" points="201.61 112.59 172.76 97.06 186.73 99 178.12 90.78 182.33 90.79 188.61 90.8 192.58 82.81 208.96 97.07 231.81 73.69 201.61 112.59"/><polygon class="cls-4" points="200.21 110.87 171.36 95.34 185.33 97.29 176.72 89.06 180.93 89.07 187.21 89.08 191.18 81.09 207.56 95.36 230.41 71.97 200.21 110.87"/><path class="cls-4" d="M198.79,119.65s16.6-39.24,8.69-59.46S176.9,20.34,176.9,20.34"/><path class="cls-4" d="M13.26,93.25c.75.5,9.25,6.75,8.5,7s-7.5,1.25-6.5,1.25,15.62,1.13,21.37,8.13,9.63,9.12,9.63,9.12l1.25-.12s5-14.13,11.25-22.38A29.15,29.15,0,0,0,64.26,79,24.32,24.32,0,0,1,55,94.75S59.26,78,59,79s-10.5,23.75-10.5,23.75l6-21.75-3,4.25,1-6.62-4,5.12L40,94.88S12.51,92.75,13.26,93.25Z"/><path class="cls-4" d="M131.76,84.75l8.25-3.5-4.75,9s2,.25,6.5-2S147.26,78,147.26,78a38.11,38.11,0,0,1,1,8.25c.25,5.75-4.75,9-12,15.75A48.9,48.9,0,0,0,126,115a32.2,32.2,0,0,1-6-7.25c-2.5-4.25-21.5-9.75-21.5-9.75l9,.25a91.87,91.87,0,0,1-11-11s9,3.75,9.75,4.25-3.25-6-3.75-7.25S107.63,86,108.38,86l11.75,9Z"/></svg>