<svg id="Layer_1" data-name="Layer 1" xmlns="http://www.w3.org/2000/svg" viewBox="0 0 93.64 39.86"><defs><style>.cls-1{fill:#983233;}.cls-2{fill:#ff6608;}</style></defs><title>Fried</title><path class="cls-1" d="M16.27,12.88a.39.39,0,0,0-.14.1.14.14,0,0,1-.1,0H13a1,1,0,0,1-.38-.19.92.92,0,0,0,0-.29,1.56,1.56,0,0,1,.05-.33.25.25,0,0,0-.05-.17.31.31,0,0,1,0-.17,8.57,8.57,0,0,0,0-.89,8.33,8.33,0,0,1,.05-.88,1.68,1.68,0,0,0-.09-.44,2.06,2.06,0,0,0-1.25-1.39,1.65,1.65,0,0,0-.48-.09c-.74,0-1.46,0-2.16,0H6.53a1.09,1.09,0,0,1,0,.26,1.8,1.8,0,0,0,0,.22c0,.45-.06.91-.1,1.39a10.9,10.9,0,0,0,0,1.4c0,.83.07,1.65.1,2.45s0,1.62,0,2.45a1.51,1.51,0,0,0,1.08-.36A1.67,1.67,0,0,0,8,14.43a1,1,0,0,0,.5-.15.6.6,0,0,1,.6.05,1.5,1.5,0,0,1,.6-.07,2.37,2.37,0,0,0,.6,0h1.2v8.61H8.11A2.86,2.86,0,0,0,8,22a1.76,1.76,0,0,0-.53-.74A3.5,3.5,0,0,0,7,21a2,2,0,0,0-.55-.12,10.16,10.16,0,0,1,0,1.23c0,.4,0,.81,0,1.22V35.73h2v4a7.38,7.38,0,0,1-1.11.07l-2.13,0c-.82,0-1.68,0-2.59,0l-2.52,0A3.75,3.75,0,0,1,0,39.1c0-.35,0-.74,0-1.17V36.68a7.39,7.39,0,0,1,.05-1H2v-15a2,2,0,0,0-.72-.92,7.18,7.18,0,0,1-.63-.6c-.19-.2-.38-.42-.57-.65a3.28,3.28,0,0,1,.55-.67,7,7,0,0,0,.6-.62c.16-.16.31-.33.46-.51A2.5,2.5,0,0,0,2,16.06V8.18a3.38,3.38,0,0,0-1,0,5.34,5.34,0,0,1-1,0v-4H16.22a8.48,8.48,0,0,1,.08,1.2c0,.64,0,1.4,0,2.28v2.76C16.32,11.3,16.3,12.14,16.27,12.88ZM3.12,8.51a1,1,0,0,1,.24-.33,1.93,1.93,0,0,0,.24-.29A1.26,1.26,0,0,0,3,7.41a.75.75,0,0,1-.46-.53.74.74,0,0,0-.6,0,3.86,3.86,0,0,1-.55.29,8.82,8.82,0,0,1,1.11.19,2.77,2.77,0,0,1,.38.33.77.77,0,0,1,.05.44C2.9,8.3,3,8.42,3.12,8.51Zm.34-3.26q0-.11,0-.12a.29.29,0,0,1,0-.12h-1v.48l.45-.34C3.05,5.06,3.23,5.09,3.46,5.25ZM3.31,16.58a2.48,2.48,0,0,0-.26.19.46.46,0,0,0-.17.24,1,1,0,0,0-.1.43,1.36,1.36,0,0,1-.09.48,4,4,0,0,1,.6-.12.54.54,0,0,0,.41-.36v-.53A2.85,2.85,0,0,0,3.31,16.58ZM3,14.51a2.07,2.07,0,0,0,0,1.15h.28a4,4,0,0,1-.14-.57C3.09,14.9,3.06,14.7,3,14.51Zm.82-5.76a4.12,4.12,0,0,1-.46.41l-.45.36V12a1.33,1.33,0,0,0,.14.57l.05.05.07,0a.09.09,0,0,1,.07,0s0,0,.1,0a1.69,1.69,0,0,1,.22.31s0,.17.07.36A5.26,5.26,0,0,1,4.54,13a1.05,1.05,0,0,0,.74-.55.7.7,0,0,1,.29.1V11a4.52,4.52,0,0,1,0-.72,2,2,0,0,0-.07-.72,4,4,0,0,1-.43.48L4.8,9.81A1.21,1.21,0,0,0,5,9.52,4.24,4.24,0,0,1,4.75,9a.85.85,0,0,1-.26,0,.54.54,0,0,0-.22.05,5.13,5.13,0,0,1-.12-.77A4.17,4.17,0,0,0,4,7.5a5.46,5.46,0,0,0-.12.68A5.54,5.54,0,0,1,3.84,8.75ZM3.07,14h0v0Zm.15,23h.09v-.24H3.22ZM4,7.31h0V7.12H4Zm.58,6.34c-.16.09-.23.18-.22.26a1.42,1.42,0,0,0,.07.22c0,.06.08.14.15.24a2.51,2.51,0,0,0,.19.24c0-.16-.06-.32-.1-.48Zm-.15,2.64v0ZM5.66,6.16A1.43,1.43,0,0,0,6,5.7c0-.08-.06-.23-.22-.45H5.09c-.16.13-.23.25-.19.38a1.48,1.48,0,0,1,0,.34l.32.17A2.5,2.5,0,0,0,5.66,6.16Zm-.52,15s0,0,0,0v.09Zm1.39-3.74v0l0,.05v-.1ZM7.92,6.74V6.26a.5.5,0,0,1-.19.12.31.31,0,0,0-.19.12.44.44,0,0,0,.19.12A.34.34,0,0,1,7.92,6.74Zm2.64,12.57c-.19-.09-.39-.18-.6-.26l-.65-.27c-.35-.12-.61-.09-.77.1a1.61,1.61,0,0,0,0,.72c.05.22.09.45.12.67a1.63,1.63,0,0,0,.36.05,2.38,2.38,0,0,1,.41.05.74.74,0,0,1,.24-.17A3.09,3.09,0,0,0,9.94,20l.33.19.29.2a.45.45,0,0,1-.07-.56A.63.63,0,0,0,10.56,19.31Zm0,2.69V20.56c-.1.13-.19.25-.29.36a2.87,2.87,0,0,1-.29.31l-.19-.07-.19-.07a.25.25,0,0,1-.1.12.07.07,0,0,0,0,.07.43.43,0,0,0,0,.19.17.17,0,0,1,0,.19.22.22,0,0,1-.07.17.66.66,0,0,0-.12.17Zm-1.1-4.85a1.66,1.66,0,0,0,.4-.21,3.48,3.48,0,0,1,.36-.22,4.6,4.6,0,0,1,.39.43,1.9,1.9,0,0,1-.12-.53c0-.16,0-.32-.07-.48q-.35-.37-.51-.36c-.11,0-.29.17-.55.46a.94.94,0,0,1,.1.38.38.38,0,0,1,0,.24A1.46,1.46,0,0,0,9.46,17.15ZM14.93,5.49v-.1h-.19v.1Zm-.1,1.63v.1a.47.47,0,0,1,.24,0s-.05,0-.05-.1A.27.27,0,0,1,14.83,7.12Z"/><path class="cls-1" d="M30.48,18.83l.36.17.31.12a2.92,2.92,0,0,1,1.06.38,6.53,6.53,0,0,1,.91.68,2.28,2.28,0,0,1,.5.72,7.59,7.59,0,0,1,.32.81,2.54,2.54,0,0,1,.09.65,5,5,0,0,0,0,.65,6.06,6.06,0,0,1,.1,1c0,.32,0,.65,0,1a1.23,1.23,0,0,1-.07.44.77.77,0,0,0,0,.43,1.63,1.63,0,0,1,0,.86,5.31,5.31,0,0,1,0,.72,5.55,5.55,0,0,0-.05.72v2.47c0,.63,0,1.3,0,2s0,1.38,0,2,0,1,0,1.06h2v4.08H32.69a2.75,2.75,0,0,1-2.11-.87,2.57,2.57,0,0,1-.72-1.82V29.73c0-1.12,0-2.23,0-3.31s0-2.2,0-3.32a2.88,2.88,0,0,0-.63-1.68,1.15,1.15,0,0,0-.5-.36c-.21-.08-.43-.15-.65-.21a5.62,5.62,0,0,0-1.73-.12,9.31,9.31,0,0,1-1.82,0v3.7c0,.16,0,.34,0,.53a.82.82,0,0,1-.12.53v.19a.72.72,0,0,1,.12.48c0,.16,0,.32,0,.48v9.07h1.82a4,4,0,0,1,.07,1c0,.34,0,.68,0,1v2a10.19,10.19,0,0,1-1.37.07c-.78,0-1.64,0-2.57,0H19.78c-.87,0-1.43,0-1.68-.05v-4h2V21.54a2.49,2.49,0,0,0-.76-1.82l-.6-.6c-.21-.21-.43-.45-.65-.7l.72-.72a5.06,5.06,0,0,0,1-1.37,4.81,4.81,0,0,0,.26-1.85c0-.93,0-1.88,0-2.84s0-1.93,0-2.89V8.13h-2v-4a1.38,1.38,0,0,1,.48,0h8.06A12.83,12.83,0,0,1,28,4.12c.46,0,.92.1,1.37.17s.62.13.91.21.57.17.86.27a3.78,3.78,0,0,1,1.56,1.1,5.49,5.49,0,0,1,.94,1.68A4.58,4.58,0,0,1,34,8.7q.07.59.12,1.2c.06.45.11.92.14,1.4a7.71,7.71,0,0,1,0,1.44,16.76,16.76,0,0,0-.12,1.75,5.41,5.41,0,0,1-.36,1.75,4.63,4.63,0,0,1-.77,1.27,3,3,0,0,1-1.25.84l-.58.22Zm-5.86-2.16,1.47,0c.49,0,1,0,1.46,0a3.14,3.14,0,0,0,1.13-.29,1.64,1.64,0,0,0,.79-.86,3.44,3.44,0,0,0,.34-1.39c0-.45.05-.89.05-1.32V11.49c0-.32,0-.63,0-.91a5.2,5.2,0,0,0-.12-.87A2.53,2.53,0,0,0,29.4,9a1.48,1.48,0,0,0-.6-.53,2.83,2.83,0,0,0-1.34-.33c-.42,0-.82-.05-1.2-.05H24.53v7.34a.71.71,0,0,0,0,.29.23.23,0,0,1,0,.24.4.4,0,0,0-.07.39Zm1.2,1.83h0v0h0Zm1.83-.77v.05h.19a.14.14,0,0,0-.05-.1A.2.2,0,0,0,27.65,17.73Zm3.12,5.09a1.37,1.37,0,0,0,0,.19,1,1,0,0,1,0,.29c.09-.26.08-.42-.05-.48V22.5a.52.52,0,0,0-.1-.31.55.55,0,0,1,0,.36Q30.58,22.72,30.77,22.82Zm0,3.88c0,.36,0,1,0,1.83s0,1.78,0,2.76,0,1.9,0,2.78a7.83,7.83,0,0,0,.17,1.8,2.77,2.77,0,0,1,1-.21.92.92,0,0,0,.77-.56.26.26,0,0,0,.14,0l.15.05.28-.14V27.52a.68.68,0,0,0-.24-.07l-.24-.07-.14.16a1,1,0,0,1-.14.17.56.56,0,0,1-.29-.05l.14-.43a2.2,2.2,0,0,1-.09-.21,1.92,1.92,0,0,0-.15-.27.73.73,0,0,1-.19.07.77.77,0,0,0-.19.08q-.24-.11-.15-.27a.33.33,0,0,0,0-.36.28.28,0,0,1,0-.29.61.61,0,0,0,0-.33,2.06,2.06,0,0,1,0-.36.82.82,0,0,0-.07-.41c-.07.35-.12.66-.17.94s-.1.55-.17.84a.62.62,0,0,0-.19,0A.62.62,0,0,1,30.77,26.7Zm0-.76a2.46,2.46,0,0,1,.29-.34.73.73,0,0,1-.15-.17l-.14-.21Zm.57,10.56h.05v-.24h-.05Zm.82.81a.45.45,0,0,0,0-.41.65.65,0,0,1-.12-.4.44.44,0,0,0-.17,0,.47.47,0,0,1-.17,0,.34.34,0,0,1,.17.41C31.8,37.13,31.9,37.25,32.16,37.31Zm.1-13.58a5.55,5.55,0,0,1,.48.29l.52-.29v-.58c-.12-.16-.24-.22-.36-.19a.73.73,0,0,1-.36,0A.63.63,0,0,0,32.26,23.73Zm.48-15.46-.1.1a.14.14,0,0,0,0,.07.09.09,0,0,1,0,.07A.54.54,0,0,0,32.74,8.27Zm.38,18.58a0,0,0,0,1,0-.05v.1A0,0,0,0,0,33.12,26.85Zm1.82,10.56.05,0-.12,0s0,0-.12,0v.1Z"/><path class="cls-1" d="M44.4,20.56v8.06a5.31,5.31,0,0,1,0,.72,5.55,5.55,0,0,0-.05.72q0,.11,0,1c0,.58,0,1.2,0,1.88s0,1.29,0,1.87,0,.89,0,1h2c0,.35.05.69.05,1v3a2.17,2.17,0,0,1-.49.05H42a1.32,1.32,0,0,1-.53-.1.8.8,0,0,0-.53,0,5.5,5.5,0,0,1-1.46.1,7.21,7.21,0,0,0-1.47,0,5.3,5.3,0,0,1-.07-.72c0-.36,0-.75,0-1.18V36.69a6,6,0,0,1,0-1h2v-6c0-1.44,0-2.86,0-4.27s0-2.83,0-4.27a1.78,1.78,0,0,0-.67-1.4l-.67-.57-.72-.63.84-.91c.27-.29.54-.56.79-.81a1.25,1.25,0,0,0,.43-.87V8.18H38a5.3,5.3,0,0,1-.07-.72c0-.36,0-.75,0-1.18V5a5.09,5.09,0,0,1,0-.91h8.4v4H44.45v8a3.06,3.06,0,0,0,.76,1.11,4.25,4.25,0,0,1,.6.6l.56.65a3.11,3.11,0,0,1-1,1A2.52,2.52,0,0,0,44.4,20.56ZM38.83,38.85a0,0,0,0,0,0-.05v.1ZM39,5.06l-.09,0a.66.66,0,0,0,0,.33h0Zm.92,13.58h0v.05A0,0,0,0,0,39.89,18.64Zm.19-.48c0,.26.13.35.38.29,0,0,0,0,0,0s0,0,.05,0a.43.43,0,0,0-.29-.48.25.25,0,0,1-.1.12A.31.31,0,0,0,40.08,18.16Zm1.34,19.15a.16.16,0,0,1,.1-.05c-.07-.28-.13-.62-.19-1l-.2-.12L40.94,36a2.41,2.41,0,0,1-.28.33l-.34.34a2,2,0,0,1,0,.53.39.39,0,0,1,.05.14.41.41,0,0,0,0,.15.74.74,0,0,1,.87-.39A.93.93,0,0,1,41.42,37.31Zm-.72,1.3.39,0a.41.41,0,0,0,.29-.07.62.62,0,0,1,0-.38c0-.13,0-.23-.2-.29L41,38a1.92,1.92,0,0,0-.27.15Zm.68-17.67a1,1,0,0,1-.34.12c-.1,0-.16.11-.19.27C41.17,21.42,41.34,21.3,41.38,20.94Zm-.44,3.12,0,0v.09S40.94,24.1,40.94,24.06ZM41,28.14l.14.87a1.9,1.9,0,0,1,.44.19,1,1,0,0,1,.24-.26l.24-.22a1.94,1.94,0,0,0-.36-.36A3.58,3.58,0,0,0,41,28.14Zm.29-6.28h0v-.05h0ZM42,25.17c.09-.26,0-.42-.34-.48l-.28.29c.06.16.15.24.26.24A1.63,1.63,0,0,0,42,25.17ZM41.57,12.5c-.1.09-.15.16-.15.19s.08.09.24.19a.43.43,0,0,1,0-.19A.41.41,0,0,0,41.57,12.5Zm1.92,13.72a.76.76,0,0,1-.34-.21.55.55,0,0,0-.34-.17.59.59,0,0,1-.35-.12l-.32-.22-.62.15c0,.16,0,.3,0,.43a2.53,2.53,0,0,0,0,.38,1.52,1.52,0,0,1,.12.36,1.27,1.27,0,0,0,.12.36h.77a1.53,1.53,0,0,0,.29-.24c.09-.09.22-.06.38.1a3.76,3.76,0,0,0,.27-.48C43.43,26.5,43.45,26.38,43.49,26.22ZM41.85,36v-.1a.49.49,0,0,0-.19.05v0Zm.34-.43a3.33,3.33,0,0,0,.48.12.89.89,0,0,1,.38.12.32.32,0,0,0,.1.19h.34v-8.4A2,2,0,0,0,43,28a3.15,3.15,0,0,1-.27-.19l-.21-.19-.39.38c.19.19.23.38.1.55a.49.49,0,0,0-.05.55l-.24.08a.73.73,0,0,0-.19.07c0,.13,0,.21.05.24a1.09,1.09,0,0,1,.45.26,1.17,1.17,0,0,1,.27.41,3,3,0,0,0-.07.89c0,.56-.05,1.16-.08,1.8s-.06,1.24-.09,1.8A4.52,4.52,0,0,1,42.19,35.54ZM41.81,28s0,0,0-.05v0l0,0ZM42,11.87V12l0-.05A0,0,0,0,0,42,11.87Zm.19,9.7a2.22,2.22,0,0,0,0-.53.93.93,0,0,0-.09.24A1.23,1.23,0,0,0,42.14,21.57Zm0,17,.41.07.31,0a.72.72,0,0,0,.14.24h.87a.62.62,0,0,1,.19-.15.77.77,0,0,0,.19-.14.46.46,0,0,0,.29.14,1.36,1.36,0,0,1,.22-.33c.08-.1.15-.2.21-.29s-.12-.3-.17-.41l-.16-.41-.19-.19c-.07.19-.13.37-.2.53-.16-.16-.33-.31-.5-.46a.82.82,0,0,0-.7-.12l-.19.29a3.45,3.45,0,0,0-.19.34.57.57,0,0,1-.29,0c-.1,0-.18.06-.24.22Zm.19-15.5a3.37,3.37,0,0,1,0,.5,2.58,2.58,0,0,0,0,.46,1.28,1.28,0,0,0,.24-.22c.06-.08.13-.15.19-.22a2.35,2.35,0,0,0,.53.1,4.23,4.23,0,0,1-.07-.43,2.7,2.7,0,0,0-.08-.39A.33.33,0,0,0,43,22.7l-.4,0a.34.34,0,0,0-.12.19A.42.42,0,0,1,42.38,23.06ZM43.63,20c-.26-.12-.43-.06-.53.2a.3.3,0,0,1,.1.24c0,.09.08.14.24.14A3,3,0,0,1,43.63,20Zm-.29-2.44-.09.09,0,.1S43.34,17.63,43.34,17.54Zm.34,18.86c-.1.16,0,.24.19.24A1.37,1.37,0,0,0,43.68,36.4Zm1.87,2.5V37.46h0l-.29,1.44Z"/><path class="cls-1" d="M54.67,8.13v8.16a1.24,1.24,0,0,0,.79-.07,3.26,3.26,0,0,0,.65-.41,1.77,1.77,0,0,0,.53-1.39,2.21,2.21,0,0,1,1-.2c.41,0,1.07,0,2,.15a2.07,2.07,0,0,1,.2.86V19.6a1.16,1.16,0,0,1-.05.34.92.92,0,0,0,0,.28,1.8,1.8,0,0,1,0,.22.33.33,0,0,0,0,.22.28.28,0,0,1,0,.38.12.12,0,0,0,0,.19,1,1,0,0,1,0,.77,1.42,1.42,0,0,0,0,.82h-3a2.08,2.08,0,0,0-.82-1.64,1.8,1.8,0,0,0-.53-.28,1.09,1.09,0,0,0-.67,0v9.84c.51,0,1,0,1.49,0s1,0,1.49,0h2.92a1.33,1.33,0,0,1,0-.28c0-.1,0-.18,0-.24V26.75a2,2,0,0,1,0-.36c0-.11,0-.23,0-.36s0-.2,0-.31a1.8,1.8,0,0,1,0-.31l.05-.05h3.55a10,10,0,0,1,.07,1.34c0,.77,0,1.64,0,2.62v3c0,1,0,1.83,0,2.47a7.93,7.93,0,0,1-1.1.07l-2.43,0-3.24,0H50.73c-1,0-1.85,0-2.49,0,0,0,0,0-.05,0v-4a3.42,3.42,0,0,1,1.06,0,3.36,3.36,0,0,0,1,0V21.47a2.12,2.12,0,0,0-.67-1.63,3.5,3.5,0,0,0-.48-.41,3.5,3.5,0,0,1-.48-.41l-.22-.19a.51.51,0,0,1-.16-.33s0-.06,0-.08a.18.18,0,0,1,.05-.07,7.87,7.87,0,0,0,.72-.81c.23-.29.47-.56.72-.82a1.43,1.43,0,0,0,.48-1.1V8.18H48.24a4.11,4.11,0,0,1-.07-1c0-.33,0-.68,0-1a6.54,6.54,0,0,1,0-1c0-.31,0-.63,0-1a7.5,7.5,0,0,1,1.15-.07L52,4l3.43,0H59l3.17,0,2.09,0a7.71,7.71,0,0,1,0,1.44,11.53,11.53,0,0,0,0,1.44v5.81l-.17.09a.31.31,0,0,1-.17.05,1.6,1.6,0,0,0-.72,0,2.44,2.44,0,0,1-.72,0l-.74,0a3.8,3.8,0,0,1-.75,0,1.38,1.38,0,0,1-.43-.1V11.34c0-.25,0-.48,0-.69a2.85,2.85,0,0,1,0-.65,1.55,1.55,0,0,0-.41-1.13,1.7,1.7,0,0,0-.93-.65,1.6,1.6,0,0,0-.39-.09ZM49.39,6.78l.17.17s.1.11.17.17L50,7a.74.74,0,0,0,.24-.17V6.3a1,1,0,0,0-.19-.16A1.91,1.91,0,0,0,49.82,6a2.6,2.6,0,0,1-.43.33Zm1,11a1,1,0,0,0,.09.39.43.43,0,0,0,.17,0l.22,0a1.91,1.91,0,0,1-.24-.17Zm.72-2.4v1.64a1.63,1.63,0,0,1,.41,0h.4a.75.75,0,0,1,.24-.15.57.57,0,0,0,.24-.14.44.44,0,0,1,.12.07l.12.07a.41.41,0,0,1,.27-.4c.17-.08.21-.24.12-.46a2.3,2.3,0,0,1-.94-.38A1.25,1.25,0,0,0,51.12,15.42Zm.09-4.17s0,0,0-.05v.1S51.18,11.25,51.21,11.25ZM53,21a2,2,0,0,0,.05.48,4.73,4.73,0,0,1,.62-.19v-.82a2,2,0,0,0,.34-.31,2.15,2.15,0,0,1,.24-.26,2.85,2.85,0,0,1,2.16.57,3.59,3.59,0,0,1,1,1.49h1.35V20.27c-.2-.09-.32-.15-.39-.17a3.8,3.8,0,0,0-.48,0,1.23,1.23,0,0,1,0,.19c0,.07,0,.15-.07.24a1.53,1.53,0,0,0-.17-.14l-.17-.1.29-.29a.56.56,0,0,1-.24-.36.45.45,0,0,0-.29-.31s0,0,0-.07,0,0,0-.07a1.74,1.74,0,0,0-.29-.07q-.15,0-.24-.27a1.46,1.46,0,0,0,.07-.19,1.46,1.46,0,0,1,.07-.19c0-.16-.05-.31-.07-.43s0-.26-.07-.39a.16.16,0,0,0-.1-.05,1.8,1.8,0,0,1,0,.22.89.89,0,0,0,0,.22l-.16.09-.17.1-.65-.36a3.71,3.71,0,0,0-.65-.27,3.76,3.76,0,0,0-.62-.14,4.83,4.83,0,0,0-.63-.05.88.88,0,0,1-.24-.79,1.51,1.51,0,0,0,0-.79c-.06.25-.12.49-.16.72l-.17.72q-.39,0-.48.24a.82.82,0,0,1-.34.43,1.45,1.45,0,0,0-.26-.07l-.31-.07a1.72,1.72,0,0,0,.09.52.67.67,0,0,0-.12.17.77.77,0,0,1-.07.17,1,1,0,0,1,.12.14,1,1,0,0,0,.12.15l-.86.29c.16.12.31.24.45.33l.41.29c-.06.13-.11.23-.14.31a1.62,1.62,0,0,0-.1.31,2.39,2.39,0,0,0,.58.1.43.43,0,0,1,.28.29C52.91,20.82,53,20.88,53,21Zm-1.54-.29h-.19a.87.87,0,0,0-.1.29ZM51.26,5.39v.1s0,0,0,0,0,0,0-.05Zm.63,1A4.9,4.9,0,0,0,52,5.82c0-.06-.06-.16-.19-.28l-.19.19a3.54,3.54,0,0,1,.14.33A1.87,1.87,0,0,0,51.89,6.4Zm.33,16.18h-.48l-.14.72a1.35,1.35,0,0,0,.19.16l.19.17a1.76,1.76,0,0,1,.27-.14,1.21,1.21,0,0,0,.26-.15v-.48a.33.33,0,0,0-.12-.14A1.53,1.53,0,0,1,52.22,22.58Zm-.53-14.5V8l0,.05Zm.2,4.61v1.05a3.51,3.51,0,0,0,.5-.19l.46-.19a4.66,4.66,0,0,0-.1-.67c-.16-.16-.3-.22-.43-.17Zm.91,12.24a1.08,1.08,0,0,0-.39.24.52.52,0,0,0-.14.38.62.62,0,0,0,.07.29,1.78,1.78,0,0,1,.12.29H53a1.92,1.92,0,0,1,.38-.53.43.43,0,0,0,.15,0,.26.26,0,0,1,.14.05v-.82a4.35,4.35,0,0,0-.43.38C53.09,25.14,52.93,25,52.8,24.93ZM52.51,5.44a0,0,0,0,0,0-.05l-.05.05.05,0Zm.24,4.32a1.21,1.21,0,0,1-.19.29.57.57,0,0,1,.14.24.61.61,0,0,0,.15.24c.38-.1.59-.26.62-.48a1.21,1.21,0,0,1-.19-.29Zm0-1,0-.05v.1A0,0,0,0,1,52.8,8.75Zm.24,4.9,0-.05h-.05A.16.16,0,0,0,53,13.65Zm.09-.48,0-.05,0,0s0,0,0,0S53.13,13.14,53.13,13.17Zm.24-6.48s.05,0,.05-.05V6.35h-.09a.44.44,0,0,0,0,.17A.44.44,0,0,1,53.37,6.69Zm.05,20.11.15.14.14.15v-.58A.68.68,0,0,0,53.42,26.8ZM53.61,13c-.06.07-.11.1-.14.1l.14.14c.07,0,.1,0,.1-.09S53.68,13.09,53.61,13Zm.15,8.88c-.07-.06-.11-.09-.15-.09a.26.26,0,0,0-.14.09l.1.1ZM54.53,5v0h.24V5Zm.19,1.44,0,0,0,0a.11.11,0,0,1,.05-.09Zm1.82,12.24c-.06.09-.11.14-.14.14l-.15-.14a.09.09,0,0,0,.08-.05.08.08,0,0,1,.07-.05S56.41,18.62,56.54,18.69ZM58.75,16l-.58-.43a1.79,1.79,0,0,1-.43.19l-.17.43c0,.13,0,.26.22.39h.62l.29-.29A.52.52,0,0,0,58.75,16Zm-.38,3.6h.09l-.05-.05Zm3.84-7.92c-.07-.06-.12-.1-.15-.1l-.14.15.19.09S62.14,11.74,62.21,11.68Z"/><path class="cls-1" d="M66.05,4.05h5.52l1.8,0c.59,0,1.17.06,1.75.12a12.23,12.23,0,0,1,2.25.51,7.71,7.71,0,0,1,2.07,1A5.51,5.51,0,0,1,81,7.31a7.2,7.2,0,0,1,.75,1.59c.17.54.32,1.08.45,1.63s.12.82.15,1.22.08.81.14,1.23a12.5,12.5,0,0,1,.1,1.6v1.61a4.26,4.26,0,0,0,1,1.18,4.09,4.09,0,0,1,1,1.22l-1.44,1.3a1.34,1.34,0,0,0-.53,1.1,10.93,10.93,0,0,1,0,1.27c0,.4,0,.83,0,1.28a18.19,18.19,0,0,1-.15,2.35c-.06.48-.12,1-.19,1.46a9.3,9.3,0,0,1-.33,1.51,12.73,12.73,0,0,1-.75,2,6.15,6.15,0,0,1-1.27,1.8,6,6,0,0,1-3.22,1.78,6.19,6.19,0,0,1-.81.14,6.64,6.64,0,0,0-.82.15,19.31,19.31,0,0,1-3.21.12c-1.06,0-2.12-.06-3.17,0H66.09a4.5,4.5,0,0,1-.07-1c0-.33,0-.68,0-1a5.33,5.33,0,0,1,0-1c0-.34,0-.68,0-1a3.1,3.1,0,0,1,1,0,5.13,5.13,0,0,0,1,0,3.09,3.09,0,0,1,.12-.46,1,1,0,0,0,0-.46c0-.16-.06-.29-.07-.4A2.46,2.46,0,0,1,68,29a1.67,1.67,0,0,0,0-.43.8.8,0,0,1,.07-.44s0-.09,0-.19a1.1,1.1,0,0,1-.12-.62c0-.23,0-.45,0-.67V20.37c-.32-.32-.64-.63-1-.91l-1-.92.76-.86c.26-.29.52-.56.77-.82a1.88,1.88,0,0,0,.36-.48,1,1,0,0,0,.07-.57v-.58a2.05,2.05,0,0,1,.1-.62.49.49,0,0,0,0-.41,1,1,0,0,1-.1-.46V8.18h-2Zm3,1.63h0Zm1.06,5v-.05l0,.05a0,0,0,0,1,0,0Zm.67,22.46h0v.2h.1q0-.1,0-.12A.15.15,0,0,1,70.75,33.18Zm.43-22.46-.05-.05,0,.05,0,0Zm.39,8.59c-.29.26-.4.5-.34.72h.34Zm0,2.31a2.13,2.13,0,0,1,0-.39V20.9a1.73,1.73,0,0,0-.24.38.62.62,0,0,1,.09.12A2.13,2.13,0,0,0,71.61,21.62ZM71.37,7.89l.48-.48a.77.77,0,0,1-.19-.15l-.07.1-.07.1a.17.17,0,0,0-.15,0Zm.1,6.86.1-.09s0-.05,0-.05,0,0,0,0A.29.29,0,0,0,71.47,14.75Zm1.06,16a4.1,4.1,0,0,1,1.1,0,3,3,0,0,0,1.06-.1,3.67,3.67,0,0,0,2.64-2.11,6.08,6.08,0,0,0,.5-1.66c.08-.56.15-1.13.22-1.7a2.29,2.29,0,0,0,0-.53,5,5,0,0,1,0-.53V20.9a5,5,0,0,0,0-.56,1.07,1.07,0,0,1,.07-.5.69.69,0,0,0,0-.53.79.79,0,0,1,0-.48,1.4,1.4,0,0,0,0-.5.88.88,0,0,1,0-.51,1.06,1.06,0,0,0,0-.72,1.46,1.46,0,0,1,0-.72.18.18,0,0,1,0-.28.21.21,0,0,0,0-.29.82.82,0,0,1-.12-.53c0-.19,0-.37,0-.53,0-.67,0-1.35-.07-2a6.67,6.67,0,0,0-.36-2,3.21,3.21,0,0,0-2.06-2.3,4.94,4.94,0,0,0-1.51-.29,6.3,6.3,0,0,0-1.56.09Zm1.2-23.85a.69.69,0,0,1,.33.05c.23,0,.35-.07.39-.2a.35.35,0,0,0-.15-.48h-.57ZM75,6.3a.45.45,0,0,0-.19.53,1.11,1.11,0,0,0,.12.27c0,.08.1.18.17.31a.59.59,0,0,1,.26-.12,1.93,1.93,0,0,0,.32-.12A1.18,1.18,0,0,1,75.29,7,1.39,1.39,0,0,0,75,6.74,1.56,1.56,0,0,0,75,6.3ZM78,9a1.34,1.34,0,0,0-.15-.29l-.28-.19a2,2,0,0,0,.24.29Zm.19-2.26a.43.43,0,0,0,.26.29.58.58,0,0,0,.32,0A.31.31,0,0,0,79,6.78c0-.25-.15-.36-.43-.33l-.2.19Zm1.15,13v-.09a.27.27,0,0,1-.19.05v.09A.45.45,0,0,1,79.34,19.74Zm.53-2.92v-.05h-.19v.05ZM81,15.9l0,0v0Z"/><path class="cls-1" d="M86.4,18.4a13.58,13.58,0,0,1,1.2-1.34,2.29,2.29,0,0,0,.62-1.59,7.62,7.62,0,0,1,0-1.17,4.19,4.19,0,0,0,0-1.13,14.89,14.89,0,0,1-.07-1.87A14,14,0,0,0,88,9.47,5.51,5.51,0,0,1,88,8.2a5.51,5.51,0,0,0,0-1.27q-.09-.63-.12-1.2c0-.39,0-.79,0-1.2V4.14a5.81,5.81,0,0,1,.79-.07l1.3,0h1.34a6.41,6.41,0,0,1,1,0,5.14,5.14,0,0,0,0,1.36,3.52,3.52,0,0,1-.12,1.37.38.38,0,0,0,0,.24.72.72,0,0,1,0,.29C92,8.19,92,9,92,9.86s0,1.66-.09,2.49a11.81,11.81,0,0,0-.05,1.87,11.91,11.91,0,0,1,0,1.88,6,6,0,0,0,.84,1.22l1,1.13a5.16,5.16,0,0,1-.62.69c-.22.21-.46.43-.72.65a2.35,2.35,0,0,0-.5.58,1.12,1.12,0,0,0-.17.77v.52a8.46,8.46,0,0,0,0,.87c0,.29,0,.59,0,.91a.88.88,0,0,0,.48,0,1.29,1.29,0,0,1,.48,0,2.82,2.82,0,0,1,.07.65c0,.33,0,.71,0,1.12v1.25a10.32,10.32,0,0,1,0,1.06H87.45v-4a1.45,1.45,0,0,1,.48-.05h.48a5.13,5.13,0,0,0,0-1,2.63,2.63,0,0,1-.09-.67v-.72a1.52,1.52,0,0,0-.58-1.25A12,12,0,0,1,86.4,18.4Zm5.76,14.45a1.2,1.2,0,0,0,0,.43,1,1,0,0,1-.07.48,2.24,2.24,0,0,1-2,1.68,1.87,1.87,0,0,1-.62,0,1.15,1.15,0,0,1-.58-.32,3,3,0,0,1-1-1.53,3.25,3.25,0,0,1,0-1.75,2.61,2.61,0,0,1,.92-1.47A2.24,2.24,0,0,1,90,29.94a1.66,1.66,0,0,1,1.25.51,3.64,3.64,0,0,1,.67.93A2.56,2.56,0,0,1,92.16,32.85Zm-3-13.3v.1l0,0A0,0,0,0,0,89.18,19.55Zm.29,1.06a.36.36,0,0,0-.1.53c0,.06.07.09.19.09a.32.32,0,0,0,.2-.48Zm.14,3.17h0v0h0Zm.1-1.4h.05l-.05,0,0,0Zm0-14.59v.1l.05,0A0,0,0,0,0,89.71,7.79Zm.14,9.27h0v.43h0Zm0,6.86a.91.91,0,0,0,.39.19,1.27,1.27,0,0,0,.43-.24,2.9,2.9,0,0,1-.38-.33A5.81,5.81,0,0,1,89.85,23.92Zm.24,7a.14.14,0,0,1,0,.1.81.81,0,0,1,.2.14l.09-.1L90.21,31A.44.44,0,0,0,90.09,30.88Zm0,1.78s0,0,0,0S90.14,32.69,90.14,32.66ZM90.67,6v-.1h-.19V6Zm.58,26.16a.34.34,0,0,1,0-.12.42.42,0,0,0,0-.12.75.75,0,0,1-.29,0q0,.24.12.24A.93.93,0,0,0,91.25,32.18Zm-.34,1.58a0,0,0,0,0,0,0h0l0,0Zm.67-7.06a.26.26,0,0,0,.14-.09V25.46a.47.47,0,0,0-.21.28.71.71,0,0,0,0,.29,1.86,1.86,0,0,0,0,.27.61.61,0,0,1,0,.26s0,.06,0,.07S91.58,26.67,91.58,26.7Zm.53-8.4,0,0s0,0,0-.05l0,.05S92.08,18.3,92.11,18.3Z"/><path class="cls-2" d="M16.27,8.88a.39.39,0,0,0-.14.1A.14.14,0,0,1,16,9H13a1,1,0,0,1-.38-.19.92.92,0,0,0,0-.29,1.56,1.56,0,0,1,.05-.33A.25.25,0,0,0,12.62,8a.31.31,0,0,1,0-.17,8.57,8.57,0,0,0,0-.89,8.33,8.33,0,0,1,.05-.88,1.68,1.68,0,0,0-.09-.44,2.06,2.06,0,0,0-1.25-1.39,1.65,1.65,0,0,0-.48-.09c-.74,0-1.46,0-2.16,0H6.53a1.09,1.09,0,0,1,0,.26,1.8,1.8,0,0,0,0,.22c0,.45-.06.91-.1,1.39a10.9,10.9,0,0,0,0,1.4c0,.83.07,1.65.1,2.45s0,1.62,0,2.45a1.51,1.51,0,0,0,1.08-.36A1.67,1.67,0,0,0,8,10.43a1,1,0,0,0,.5-.15.6.6,0,0,1,.6.05,1.5,1.5,0,0,1,.6-.07,2.37,2.37,0,0,0,.6,0h1.2v8.61H8.11A2.86,2.86,0,0,0,8,18a1.76,1.76,0,0,0-.53-.74A3.5,3.5,0,0,0,7,17a2,2,0,0,0-.55-.12,10.16,10.16,0,0,1,0,1.23c0,.4,0,.81,0,1.22V31.73h2v4a7.38,7.38,0,0,1-1.11.07l-2.13,0c-.82,0-1.68,0-2.59,0l-2.52,0A3.75,3.75,0,0,1,0,35.1c0-.35,0-.74,0-1.17V32.68a7.39,7.39,0,0,1,.05-.95H2v-15a2,2,0,0,0-.72-.92,7.18,7.18,0,0,1-.63-.6c-.19-.2-.38-.42-.57-.65a3.28,3.28,0,0,1,.55-.67,7,7,0,0,0,.6-.62c.16-.16.31-.33.46-.51A2.5,2.5,0,0,0,2,12.06V4.18a3.38,3.38,0,0,0-1,0,5.34,5.34,0,0,1-1,0V.1H16.22a8.48,8.48,0,0,1,.08,1.2c0,.64,0,1.4,0,2.28V6.34C16.32,7.3,16.3,8.14,16.27,8.88ZM3.12,4.51a1,1,0,0,1,.24-.33,1.93,1.93,0,0,0,.24-.29A1.26,1.26,0,0,0,3,3.41a.75.75,0,0,1-.46-.53.74.74,0,0,0-.6.05,3.86,3.86,0,0,1-.55.29,8.82,8.82,0,0,1,1.11.19,2.77,2.77,0,0,1,.38.33.77.77,0,0,1,.05.44C2.9,4.3,3,4.42,3.12,4.51Zm.34-3.26q0-.1,0-.12a.29.29,0,0,1,0-.12h-1v.48l.45-.34C3.05,1.06,3.23,1.09,3.46,1.25ZM3.31,12.58a2.48,2.48,0,0,0-.26.19.46.46,0,0,0-.17.24,1,1,0,0,0-.1.43,1.36,1.36,0,0,1-.09.48,4,4,0,0,1,.6-.12.54.54,0,0,0,.41-.36v-.53A2.85,2.85,0,0,0,3.31,12.58ZM3,10.51a2.07,2.07,0,0,0,0,1.15h.28a4,4,0,0,1-.14-.57C3.09,10.9,3.06,10.7,3,10.51Zm.82-5.76a4.12,4.12,0,0,1-.46.41l-.45.36V8a1.33,1.33,0,0,0,.14.57l.05.05.07,0a.09.09,0,0,1,.07,0s0,0,.1,0a1.69,1.69,0,0,1,.22.31s0,.17.07.36A5.26,5.26,0,0,1,4.54,9a1.05,1.05,0,0,0,.74-.55.7.7,0,0,1,.29.1V7a4.52,4.52,0,0,1,0-.72,2,2,0,0,0-.07-.72A4,4,0,0,1,5,6.05L4.8,5.81A1.21,1.21,0,0,0,5,5.52,4.24,4.24,0,0,1,4.75,5a.85.85,0,0,1-.26,0,.54.54,0,0,0-.22,0,5.13,5.13,0,0,1-.12-.77A4.17,4.17,0,0,0,4,3.5a5.46,5.46,0,0,0-.12.68A5.54,5.54,0,0,1,3.84,4.75ZM3.07,10h0v0Zm.15,23h.09v-.24H3.22ZM4,3.31h0V3.12H4Zm.58,6.34c-.16.09-.23.18-.22.26a1.42,1.42,0,0,0,.07.22c0,.06.08.14.15.24a2.51,2.51,0,0,0,.19.24c0-.16-.06-.32-.1-.48Zm-.15,2.64v0ZM5.66,2.16A1.43,1.43,0,0,0,6,1.7c0-.08-.06-.23-.22-.45H5.09c-.16.13-.23.25-.19.38a1.48,1.48,0,0,1,0,.34l.32.17A2.5,2.5,0,0,0,5.66,2.16Zm-.52,15s0,0,0,0v.09Zm1.39-3.74v.05l0,0v-.1ZM7.92,2.74V2.26a.5.5,0,0,1-.19.12.31.31,0,0,0-.19.12.44.44,0,0,0,.19.12A.34.34,0,0,1,7.92,2.74Zm2.64,12.57c-.19-.09-.39-.18-.6-.26l-.65-.27c-.35-.12-.61-.09-.77.1a1.61,1.61,0,0,0,0,.72c.05.22.09.45.12.67a1.63,1.63,0,0,0,.36.05,2.38,2.38,0,0,1,.41.05.74.74,0,0,1,.24-.17A3.09,3.09,0,0,0,9.94,16l.33.19.29.2a.45.45,0,0,1-.07-.56A.63.63,0,0,0,10.56,15.31Zm0,2.69V16.56c-.1.13-.19.25-.29.36a2.87,2.87,0,0,1-.29.31l-.19-.07-.19-.07a.25.25,0,0,1-.1.12.07.07,0,0,0,0,.07.43.43,0,0,0,0,.19.17.17,0,0,1,0,.19.22.22,0,0,1-.07.17.66.66,0,0,0-.12.17Zm-1.1-4.85a1.66,1.66,0,0,0,.4-.21,3.48,3.48,0,0,1,.36-.22,4.6,4.6,0,0,1,.39.43,1.9,1.9,0,0,1-.12-.53c0-.16,0-.32-.07-.48q-.35-.37-.51-.36c-.11,0-.29.17-.55.46a.94.94,0,0,1,.1.38.38.38,0,0,1,0,.24A1.46,1.46,0,0,0,9.46,13.15ZM14.93,1.49v-.1h-.19v.1Zm-.1,1.63v.1a.47.47,0,0,1,.24-.05s-.05,0-.05-.1A.27.27,0,0,1,14.83,3.12Z"/><path class="cls-2" d="M30.48,14.83l.36.17.31.12a2.92,2.92,0,0,1,1.06.38,6.53,6.53,0,0,1,.91.68,2.28,2.28,0,0,1,.5.72,7.59,7.59,0,0,1,.32.81,2.54,2.54,0,0,1,.09.65,5,5,0,0,0,0,.65,6.06,6.06,0,0,1,.1,1c0,.32,0,.65,0,1a1.23,1.23,0,0,1-.07.44.77.77,0,0,0,0,.43,1.63,1.63,0,0,1,0,.86,5.31,5.31,0,0,1,0,.72,5.55,5.55,0,0,0-.05.72v2.47c0,.63,0,1.3,0,2s0,1.38,0,2,0,1,0,1.06h2v4.08H32.69a2.75,2.75,0,0,1-2.11-.87,2.57,2.57,0,0,1-.72-1.82V25.73c0-1.12,0-2.23,0-3.31s0-2.2,0-3.32a2.88,2.88,0,0,0-.63-1.68,1.15,1.15,0,0,0-.5-.36c-.21-.08-.43-.15-.65-.21a5.62,5.62,0,0,0-1.73-.12,9.31,9.31,0,0,1-1.82,0v3.7c0,.16,0,.34,0,.53a.82.82,0,0,1-.12.53v.19a.72.72,0,0,1,.12.48c0,.16,0,.32,0,.48v9.07h1.82a4,4,0,0,1,.07,1c0,.34,0,.68,0,1v2a10.19,10.19,0,0,1-1.37.07c-.78,0-1.64,0-2.57,0H19.78c-.87,0-1.43,0-1.68-.05v-4h2V17.54a2.49,2.49,0,0,0-.76-1.82l-.6-.6c-.21-.21-.43-.45-.65-.7l.72-.72a5.06,5.06,0,0,0,1-1.37,4.81,4.81,0,0,0,.26-1.85c0-.93,0-1.88,0-2.84s0-1.93,0-2.89V4.13h-2V.1a1.38,1.38,0,0,1,.48,0h8.06A12.83,12.83,0,0,1,28,.12c.46.05.92.1,1.37.17s.62.13.91.21.57.17.86.27a3.78,3.78,0,0,1,1.56,1.1,5.49,5.49,0,0,1,.94,1.68A4.58,4.58,0,0,1,34,4.7q.07.59.12,1.2c.06.45.11.92.14,1.4a7.71,7.71,0,0,1,0,1.44,16.76,16.76,0,0,0-.12,1.75,5.41,5.41,0,0,1-.36,1.75,4.63,4.63,0,0,1-.77,1.27,3,3,0,0,1-1.25.84l-.58.22Zm-5.86-2.16,1.47,0c.49,0,1,0,1.46,0a3.14,3.14,0,0,0,1.13-.29,1.64,1.64,0,0,0,.79-.86,3.44,3.44,0,0,0,.34-1.39c0-.45.05-.89.05-1.32V7.49c0-.32,0-.63,0-.91a5.2,5.2,0,0,0-.12-.87A2.53,2.53,0,0,0,29.4,5a1.48,1.48,0,0,0-.6-.53,2.83,2.83,0,0,0-1.34-.33c-.42,0-.82,0-1.2,0H24.53v7.34a.71.71,0,0,0,0,.29.23.23,0,0,1,0,.24.4.4,0,0,0-.07.39Zm1.2,1.83h0v0h0Zm1.83-.77v0h.19a.14.14,0,0,0-.05-.1A.2.2,0,0,0,27.65,13.73Zm3.12,5.09a1.37,1.37,0,0,0,0,.19,1,1,0,0,1,0,.29c.09-.26.08-.42-.05-.48V18.5a.52.52,0,0,0-.1-.31.55.55,0,0,1,0,.36Q30.58,18.72,30.77,18.82Zm0,3.88c0,.36,0,1,0,1.83s0,1.78,0,2.76,0,1.9,0,2.78a7.83,7.83,0,0,0,.17,1.8,2.77,2.77,0,0,1,1-.21.92.92,0,0,0,.77-.56.26.26,0,0,0,.14,0,.5.5,0,0,1,.15.05l.28-.14V23.52a.68.68,0,0,0-.24-.07l-.24-.07-.14.16a1,1,0,0,1-.14.17.56.56,0,0,1-.29-.05l.14-.43a2.2,2.2,0,0,1-.09-.21,1.92,1.92,0,0,0-.15-.27.73.73,0,0,1-.19.07.77.77,0,0,0-.19.08q-.24-.11-.15-.27a.33.33,0,0,0,0-.36.28.28,0,0,1,0-.29.61.61,0,0,0,0-.33,2.06,2.06,0,0,1,0-.36.82.82,0,0,0-.07-.41c-.07.35-.12.66-.17.94s-.1.55-.17.84a.62.62,0,0,0-.19,0A.62.62,0,0,1,30.77,22.7Zm0-.76a2.46,2.46,0,0,1,.29-.34.73.73,0,0,1-.15-.17l-.14-.21Zm.57,10.56h.05v-.24h-.05Zm.82.81a.45.45,0,0,0,0-.41.65.65,0,0,1-.12-.4.44.44,0,0,0-.17,0,.47.47,0,0,1-.17,0,.34.34,0,0,1,.17.41C31.8,33.13,31.9,33.25,32.16,33.31Zm.1-13.58a5.55,5.55,0,0,1,.48.29l.52-.29v-.58c-.12-.16-.24-.22-.36-.19a.73.73,0,0,1-.36,0A.63.63,0,0,0,32.26,19.73Zm.48-15.46-.1.1a.14.14,0,0,0,0,.07.09.09,0,0,1,0,.07A.54.54,0,0,0,32.74,4.27Zm.38,18.58a0,0,0,0,1,0-.05v.1A0,0,0,0,0,33.12,22.85Zm1.82,10.56.05,0-.12,0s0,0-.12,0v.1Z"/><path class="cls-2" d="M44.4,16.56v8.06a5.31,5.31,0,0,1,0,.72,5.55,5.55,0,0,0-.05.72q0,.11,0,1c0,.58,0,1.2,0,1.88s0,1.29,0,1.87,0,.89,0,1h2c0,.35.05.69.05,1v3a2.17,2.17,0,0,1-.49.05H42a1.32,1.32,0,0,1-.53-.1.8.8,0,0,0-.53,0,5.5,5.5,0,0,1-1.46.1,7.21,7.21,0,0,0-1.47,0,5.3,5.3,0,0,1-.07-.72c0-.36,0-.75,0-1.18V32.69a6,6,0,0,1,0-1h2V25.68c0-1.44,0-2.86,0-4.27s0-2.83,0-4.27a1.78,1.78,0,0,0-.67-1.4l-.67-.57-.72-.63.84-.91c.27-.29.54-.56.79-.81a1.25,1.25,0,0,0,.43-.87V4.18H38a5.3,5.3,0,0,1-.07-.72c0-.36,0-.75,0-1.18V1A5.09,5.09,0,0,1,38,.1h8.4v4H44.45v8a3.06,3.06,0,0,0,.76,1.11,4.25,4.25,0,0,1,.6.6l.56.65a3.11,3.11,0,0,1-1,1A2.52,2.52,0,0,0,44.4,16.56ZM38.83,34.85a0,0,0,0,0,0-.05v.1ZM39,1.06,38.88,1a.66.66,0,0,0,0,.33h0Zm.92,13.58h0v0A0,0,0,0,0,39.89,14.64Zm.19-.48c0,.26.13.35.38.29,0,0,0,0,0,0s0,0,.05,0a.43.43,0,0,0-.29-.48.25.25,0,0,1-.1.12A.31.31,0,0,0,40.08,14.16Zm1.34,19.15a.16.16,0,0,1,.1-.05c-.07-.28-.13-.62-.19-1l-.2-.12L40.94,32a2.41,2.41,0,0,1-.28.33l-.34.34a2,2,0,0,1,0,.53.39.39,0,0,1,.05.14.41.41,0,0,0,0,.15.74.74,0,0,1,.87-.39A.93.93,0,0,1,41.42,33.31Zm-.72,1.3.39,0a.41.41,0,0,0,.29-.07.62.62,0,0,1,0-.38c0-.13,0-.23-.2-.29L41,34a1.92,1.92,0,0,0-.27.15Zm.68-17.67a1,1,0,0,1-.34.12c-.1,0-.16.11-.19.27C41.17,17.42,41.34,17.3,41.38,16.94Zm-.44,3.12,0,0v.09S40.94,20.1,40.94,20.06ZM41,24.14l.14.87a1.9,1.9,0,0,1,.44.19,1,1,0,0,1,.24-.26l.24-.22a1.94,1.94,0,0,0-.36-.36A3.58,3.58,0,0,0,41,24.14Zm.29-6.28h0v-.05h0ZM42,21.17c.09-.26,0-.42-.34-.48l-.28.29c.06.16.15.24.26.24A1.63,1.63,0,0,0,42,21.17ZM41.57,8.5c-.1.09-.15.16-.15.19s.08.09.24.19a.43.43,0,0,1,0-.19A.41.41,0,0,0,41.57,8.5Zm1.92,13.72a.76.76,0,0,1-.34-.21.55.55,0,0,0-.34-.17.59.59,0,0,1-.35-.12l-.32-.22-.62.15c0,.16,0,.3,0,.43a2.53,2.53,0,0,0,0,.38,1.52,1.52,0,0,1,.12.36,1.27,1.27,0,0,0,.12.36h.77a1.53,1.53,0,0,0,.29-.24c.09-.09.22-.06.38.1a3.76,3.76,0,0,0,.27-.48C43.43,22.5,43.45,22.38,43.49,22.22ZM41.85,32v-.1a.49.49,0,0,0-.19.05v0Zm.34-.43a3.33,3.33,0,0,0,.48.12.89.89,0,0,1,.38.12.32.32,0,0,0,.1.19h.34v-8.4A2,2,0,0,0,43,24a3.15,3.15,0,0,1-.27-.19l-.21-.19-.39.38c.19.19.23.38.1.55a.49.49,0,0,0-.05.55l-.24.08a.73.73,0,0,0-.19.07c0,.13,0,.21.05.24a1.09,1.09,0,0,1,.45.26,1.17,1.17,0,0,1,.27.41,3,3,0,0,0-.07.89c0,.56-.05,1.16-.08,1.8s-.06,1.24-.09,1.8A4.52,4.52,0,0,1,42.19,31.54ZM41.81,24s0,0,0-.05v0l0,0ZM42,7.87V8l0,0A0,0,0,0,0,42,7.87Zm.19,9.7a2.22,2.22,0,0,0,0-.53.93.93,0,0,0-.09.24A1.23,1.23,0,0,0,42.14,17.57Zm0,17,.41.07.31,0a.72.72,0,0,0,.14.24h.87a.62.62,0,0,1,.19-.15.77.77,0,0,0,.19-.14.46.46,0,0,0,.29.14,1.36,1.36,0,0,1,.22-.33c.08-.1.15-.2.21-.29s-.12-.3-.17-.41l-.16-.41-.19-.19c-.07.19-.13.37-.2.53-.16-.16-.33-.31-.5-.46a.82.82,0,0,0-.7-.12l-.19.29a3.45,3.45,0,0,0-.19.34.57.57,0,0,1-.29,0c-.1,0-.18.06-.24.22Zm.19-15.5a3.37,3.37,0,0,1,0,.5,2.58,2.58,0,0,0,0,.46,1.28,1.28,0,0,0,.24-.22c.06-.08.13-.15.19-.22a2.35,2.35,0,0,0,.53.1,4.23,4.23,0,0,1-.07-.43,2.7,2.7,0,0,0-.08-.39A.33.33,0,0,0,43,18.7l-.4,0a.34.34,0,0,0-.12.19A.42.42,0,0,1,42.38,19.06ZM43.63,16c-.26-.12-.43-.06-.53.2a.3.3,0,0,1,.1.24c0,.09.08.14.24.14A3,3,0,0,1,43.63,16Zm-.29-2.44-.09.09,0,.1S43.34,13.63,43.34,13.54Zm.34,18.86c-.1.16,0,.24.19.24A1.37,1.37,0,0,0,43.68,32.4Zm1.87,2.5V33.46h0l-.29,1.44Z"/><path class="cls-2" d="M54.67,4.13v8.16a1.24,1.24,0,0,0,.79-.07,3.26,3.26,0,0,0,.65-.41,1.77,1.77,0,0,0,.53-1.39,2.21,2.21,0,0,1,1-.2c.41,0,1.07,0,2,.15a2.07,2.07,0,0,1,.2.86V15.6a1.16,1.16,0,0,1-.05.34.92.92,0,0,0,0,.28,1.8,1.8,0,0,1,0,.22.33.33,0,0,0,0,.22.28.28,0,0,1,0,.38.12.12,0,0,0,0,.19,1,1,0,0,1,0,.77,1.42,1.42,0,0,0,0,.82h-3a2.08,2.08,0,0,0-.82-1.64,1.8,1.8,0,0,0-.53-.28,1.09,1.09,0,0,0-.67,0v9.84c.51,0,1,0,1.49,0s1,0,1.49,0h2.92a1.33,1.33,0,0,1,0-.28c0-.1,0-.18,0-.24V22.75a2,2,0,0,1,0-.36c0-.11,0-.23,0-.36s0-.2,0-.31a1.8,1.8,0,0,1,0-.31l.05-.05h3.55a10,10,0,0,1,.07,1.34c0,.77,0,1.64,0,2.62v3c0,1,0,1.83,0,2.47a7.93,7.93,0,0,1-1.1.07l-2.43.05-3.24,0H50.73c-1,0-1.85,0-2.49-.05,0,0,0,0-.05,0v-4a3.42,3.42,0,0,1,1.06,0,3.36,3.36,0,0,0,1,0V17.47a2.12,2.12,0,0,0-.67-1.63,3.5,3.5,0,0,0-.48-.41,3.5,3.5,0,0,1-.48-.41l-.22-.19a.51.51,0,0,1-.16-.33s0-.06,0-.08a.18.18,0,0,1,.05-.07,7.87,7.87,0,0,0,.72-.81c.23-.29.47-.56.72-.82a1.43,1.43,0,0,0,.48-1.1V4.18H48.24a4.11,4.11,0,0,1-.07-1c0-.33,0-.68,0-1a6.54,6.54,0,0,1,0-1c0-.31,0-.63,0-1A7.5,7.5,0,0,1,49.34.07L52,0l3.43,0H59l3.17,0,2.09,0a7.71,7.71,0,0,1,0,1.44,11.53,11.53,0,0,0,0,1.44V8.74l-.17.09a.31.31,0,0,1-.17.05,1.6,1.6,0,0,0-.72,0,2.44,2.44,0,0,1-.72,0l-.74,0a3.8,3.8,0,0,1-.75,0,1.38,1.38,0,0,1-.43-.1V7.34c0-.25,0-.48,0-.69a2.85,2.85,0,0,1,0-.65,1.55,1.55,0,0,0-.41-1.13,1.7,1.7,0,0,0-.93-.65,1.6,1.6,0,0,0-.39-.09ZM49.39,2.78l.17.17s.1.11.17.17L50,3a.74.74,0,0,0,.24-.17V2.3a1,1,0,0,0-.19-.16A1.91,1.91,0,0,0,49.82,2a2.6,2.6,0,0,1-.43.33Zm1,11a1,1,0,0,0,.09.39.43.43,0,0,0,.17,0l.22,0a1.91,1.91,0,0,1-.24-.17Zm.72-2.4v1.64a1.63,1.63,0,0,1,.41-.05h.4a.75.75,0,0,1,.24-.15.57.57,0,0,0,.24-.14.44.44,0,0,1,.12.07l.12.07a.41.41,0,0,1,.27-.4c.17-.08.21-.24.12-.46a2.3,2.3,0,0,1-.94-.38A1.25,1.25,0,0,0,51.12,11.42Zm.09-4.17s0,0,0,0v.1S51.18,7.25,51.21,7.25ZM53,17a2,2,0,0,0,.05.48,4.73,4.73,0,0,1,.62-.19v-.82a2,2,0,0,0,.34-.31,2.15,2.15,0,0,1,.24-.26,2.85,2.85,0,0,1,2.16.57,3.59,3.59,0,0,1,1,1.49h1.35V16.27c-.2-.09-.32-.15-.39-.17a3.8,3.8,0,0,0-.48,0,1.23,1.23,0,0,1,0,.19c0,.07,0,.15-.07.24a1.53,1.53,0,0,0-.17-.14l-.17-.1.29-.29a.56.56,0,0,1-.24-.36.45.45,0,0,0-.29-.31s0-.05,0-.07,0,0,0-.07a1.74,1.74,0,0,0-.29-.07q-.15,0-.24-.27a1.46,1.46,0,0,0,.07-.19,1.46,1.46,0,0,1,.07-.19c0-.16-.05-.31-.07-.43s0-.26-.07-.39a.16.16,0,0,0-.1-.05,1.8,1.8,0,0,1,0,.22.89.89,0,0,0,0,.22l-.16.09-.17.1-.65-.36a3.71,3.71,0,0,0-.65-.27,3.76,3.76,0,0,0-.62-.14,4.83,4.83,0,0,0-.63,0,.88.88,0,0,1-.24-.79,1.51,1.51,0,0,0,0-.79c-.06.25-.12.49-.16.72l-.17.72q-.39,0-.48.24a.82.82,0,0,1-.34.43,1.45,1.45,0,0,0-.26-.07l-.31-.07a1.72,1.72,0,0,0,.09.52.67.67,0,0,0-.12.17.77.77,0,0,1-.07.17,1,1,0,0,1,.12.14,1,1,0,0,0,.12.15l-.86.29c.16.12.31.24.45.33l.41.29c-.06.13-.11.23-.14.31a1.62,1.62,0,0,0-.1.31,2.39,2.39,0,0,0,.58.1.43.43,0,0,1,.28.29C52.91,16.82,53,16.88,53,17Zm-1.54-.29h-.19a.87.87,0,0,0-.1.29ZM51.26,1.39v.1s0-.05,0-.05,0,0,0-.05Zm.63,1A4.9,4.9,0,0,0,52,1.82c0-.06-.06-.16-.19-.28l-.19.19a3.54,3.54,0,0,1,.14.33A1.87,1.87,0,0,0,51.89,2.4Zm.33,16.18h-.48l-.14.72a1.35,1.35,0,0,0,.19.16l.19.17a1.76,1.76,0,0,1,.27-.14,1.21,1.21,0,0,0,.26-.15v-.48a.33.33,0,0,0-.12-.14A1.53,1.53,0,0,1,52.22,18.58Zm-.53-14.5V4l0,0Zm.2,4.61V9.74a3.51,3.51,0,0,0,.5-.19l.46-.19a4.66,4.66,0,0,0-.1-.67c-.16-.16-.3-.22-.43-.17Zm.91,12.24a1.08,1.08,0,0,0-.39.24.52.52,0,0,0-.14.38.62.62,0,0,0,.07.29,1.78,1.78,0,0,1,.12.29H53a1.92,1.92,0,0,1,.38-.53.43.43,0,0,0,.15,0,.26.26,0,0,1,.14.05v-.82a4.35,4.35,0,0,0-.43.38C53.09,21.14,52.93,21,52.8,20.93ZM52.51,1.44a0,0,0,0,0,0-.05l-.05.05.05.05Zm.24,4.32a1.21,1.21,0,0,1-.19.29.57.57,0,0,1,.14.24.61.61,0,0,0,.15.24c.38-.1.59-.26.62-.48a1.21,1.21,0,0,1-.19-.29Zm0-1,0,0v.1A0,0,0,0,1,52.8,4.75ZM53,9.65l0-.05h-.05A.16.16,0,0,0,53,9.65Zm.09-.48,0-.05,0,0s0,0,0,0S53.13,9.14,53.13,9.17Zm.24-6.48s.05,0,.05,0V2.35h-.09a.44.44,0,0,0,0,.17A.44.44,0,0,1,53.37,2.69Zm.05,20.11.15.14.14.15v-.58A.68.68,0,0,0,53.42,22.8ZM53.61,9c-.06.07-.11.1-.14.1l.14.14c.07,0,.1,0,.1-.09S53.68,9.09,53.61,9Zm.15,8.88c-.07-.06-.11-.09-.15-.09a.26.26,0,0,0-.14.09l.1.1ZM54.53,1v.05h.24V1Zm.19,1.44,0,0,0,0a.11.11,0,0,1,.05-.09Zm1.82,12.24c-.06.09-.11.14-.14.14l-.15-.14a.09.09,0,0,0,.08,0,.08.08,0,0,1,.07-.05S56.41,14.62,56.54,14.69ZM58.75,12l-.58-.43a1.79,1.79,0,0,1-.43.19l-.17.43c0,.13,0,.26.22.39h.62l.29-.29A.52.52,0,0,0,58.75,12Zm-.38,3.6h.09l-.05,0Zm3.84-7.92c-.07-.06-.12-.1-.15-.1l-.14.15.19.09S62.14,7.74,62.21,7.68Z"/><path class="cls-2" d="M66.05.05h5.52l1.8,0c.59,0,1.17.06,1.75.12A12.23,12.23,0,0,1,77.37.7a7.71,7.71,0,0,1,2.07,1A5.51,5.51,0,0,1,81,3.31a7.2,7.2,0,0,1,.75,1.59c.17.54.32,1.08.45,1.63s.12.82.15,1.22.08.81.14,1.23a12.5,12.5,0,0,1,.1,1.6v1.61a4.26,4.26,0,0,0,1,1.18,4.09,4.09,0,0,1,1,1.22l-1.44,1.3a1.34,1.34,0,0,0-.53,1.1,10.93,10.93,0,0,1,0,1.27c0,.4,0,.83,0,1.28a18.19,18.19,0,0,1-.15,2.35c-.06.48-.12,1-.19,1.46a9.3,9.3,0,0,1-.33,1.51,12.73,12.73,0,0,1-.75,2,6.15,6.15,0,0,1-1.27,1.8,6,6,0,0,1-3.22,1.78,6.19,6.19,0,0,1-.81.14,6.64,6.64,0,0,0-.82.15,19.31,19.31,0,0,1-3.21.12c-1.06-.05-2.12-.06-3.17,0H66.09a4.5,4.5,0,0,1-.07-1c0-.33,0-.68,0-1a5.33,5.33,0,0,1,0-1c0-.34,0-.68,0-1a3.1,3.1,0,0,1,1,0,5.13,5.13,0,0,0,1,0,3.09,3.09,0,0,1,.12-.46,1,1,0,0,0,0-.46c0-.16-.06-.29-.07-.4A2.46,2.46,0,0,1,68,25a1.67,1.67,0,0,0,0-.43.8.8,0,0,1,.07-.44s0-.09,0-.19a1.1,1.1,0,0,1-.12-.62c0-.23,0-.45,0-.67V16.37c-.32-.32-.64-.63-1-.91l-1-.92.76-.86c.26-.29.52-.56.77-.82a1.88,1.88,0,0,0,.36-.48,1,1,0,0,0,.07-.57v-.58a2.05,2.05,0,0,1,.1-.62.49.49,0,0,0,0-.41,1,1,0,0,1-.1-.46V4.18h-2Zm3,1.63h0Zm1.06,5v0l0,0a0,0,0,0,1,0,0Zm.67,22.46h0v.2h.1q0-.11,0-.12A.15.15,0,0,1,70.75,29.18Zm.43-22.46-.05,0,0,0,0,0Zm.39,8.59c-.29.26-.4.5-.34.72h.34Zm0,2.31a2.13,2.13,0,0,1,0-.39V16.9a1.73,1.73,0,0,0-.24.38.62.62,0,0,1,.09.12A2.13,2.13,0,0,0,71.61,17.62ZM71.37,3.89l.48-.48a.77.77,0,0,1-.19-.15l-.07.1-.07.1a.17.17,0,0,0-.15,0Zm.1,6.86.1-.09s0-.05,0-.05,0,0,0,0A.29.29,0,0,0,71.47,10.75Zm1.06,16a4.1,4.1,0,0,1,1.1,0,3,3,0,0,0,1.06-.1,3.67,3.67,0,0,0,2.64-2.11,6.08,6.08,0,0,0,.5-1.66c.08-.56.15-1.13.22-1.7a2.29,2.29,0,0,0,0-.53,5,5,0,0,1,0-.53V16.9a5,5,0,0,0,0-.56,1.07,1.07,0,0,1,.07-.5.69.69,0,0,0,0-.53.79.79,0,0,1,0-.48,1.4,1.4,0,0,0,0-.5.88.88,0,0,1,0-.51,1.06,1.06,0,0,0,0-.72,1.46,1.46,0,0,1,0-.72.18.18,0,0,1,0-.28.21.21,0,0,0,0-.29.82.82,0,0,1-.12-.53c0-.19,0-.37,0-.53,0-.67,0-1.35-.07-2a6.67,6.67,0,0,0-.36-2,3.21,3.21,0,0,0-2.06-2.3,4.94,4.94,0,0,0-1.51-.29,6.3,6.3,0,0,0-1.56.09Zm1.2-23.85a.69.69,0,0,1,.33,0c.23,0,.35-.07.39-.2a.35.35,0,0,0-.15-.48h-.57ZM75,2.3a.45.45,0,0,0-.19.53,1.11,1.11,0,0,0,.12.27c0,.08.1.18.17.31a.59.59,0,0,1,.26-.12,1.93,1.93,0,0,0,.32-.12A1.18,1.18,0,0,1,75.29,3,1.39,1.39,0,0,0,75,2.74,1.56,1.56,0,0,0,75,2.3ZM78,5a1.34,1.34,0,0,0-.15-.29l-.28-.19a2,2,0,0,0,.24.29Zm.19-2.26a.43.43,0,0,0,.26.29.58.58,0,0,0,.32,0A.31.31,0,0,0,79,2.78c0-.25-.15-.36-.43-.33l-.2.19Zm1.15,13v-.09a.27.27,0,0,1-.19,0v.09A.45.45,0,0,1,79.34,15.74Zm.53-2.92v-.05h-.19v.05ZM81,11.9l0,0v0Z"/><path class="cls-2" d="M86.4,14.4a13.58,13.58,0,0,1,1.2-1.34,2.29,2.29,0,0,0,.62-1.59,7.62,7.62,0,0,1,0-1.17,4.19,4.19,0,0,0,0-1.13A14.89,14.89,0,0,1,88.1,7.3,14,14,0,0,0,88,5.47,5.51,5.51,0,0,1,88,4.2a5.51,5.51,0,0,0,0-1.27q-.09-.63-.12-1.2c0-.39,0-.79,0-1.2V.14a5.81,5.81,0,0,1,.79-.07l1.3,0h1.34a6.41,6.41,0,0,1,1,.05,5.14,5.14,0,0,0,0,1.36,3.52,3.52,0,0,1-.12,1.37.38.38,0,0,0,0,.24.72.72,0,0,1,0,.29C92,4.19,92,5,92,5.86s0,1.66-.09,2.49a11.81,11.81,0,0,0-.05,1.87,11.91,11.91,0,0,1,0,1.88,6,6,0,0,0,.84,1.22l1,1.13a5.16,5.16,0,0,1-.62.69c-.22.21-.46.43-.72.65a2.35,2.35,0,0,0-.5.58,1.12,1.12,0,0,0-.17.77v.52a8.46,8.46,0,0,0,0,.87c0,.29,0,.59,0,.91a.88.88,0,0,0,.48,0,1.29,1.29,0,0,1,.48,0,2.82,2.82,0,0,1,.07.65c0,.33,0,.71,0,1.12v1.25a10.32,10.32,0,0,1,0,1.06H87.45v-4a1.45,1.45,0,0,1,.48-.05h.48a5.13,5.13,0,0,0,0-1,2.63,2.63,0,0,1-.09-.67v-.72a1.52,1.52,0,0,0-.58-1.25A12,12,0,0,1,86.4,14.4Zm5.76,14.45a1.2,1.2,0,0,0,0,.43,1,1,0,0,1-.07.48,2.24,2.24,0,0,1-2,1.68,1.87,1.87,0,0,1-.62,0,1.15,1.15,0,0,1-.58-.32,3,3,0,0,1-1-1.53,3.25,3.25,0,0,1,0-1.75,2.61,2.61,0,0,1,.92-1.47A2.24,2.24,0,0,1,90,25.94a1.66,1.66,0,0,1,1.25.51,3.64,3.64,0,0,1,.67.93A2.56,2.56,0,0,1,92.16,28.85Zm-3-13.3v.1l0-.05A0,0,0,0,0,89.18,15.55Zm.29,1.06a.36.36,0,0,0-.1.53c0,.06.07.09.19.09a.32.32,0,0,0,.2-.48Zm.14,3.17h0v0h0Zm.1-1.4h.05l-.05,0,0,0Zm0-14.59v.1l.05-.05A0,0,0,0,0,89.71,3.79Zm.14,9.27h0v.43h0Zm0,6.86a.91.91,0,0,0,.39.19,1.27,1.27,0,0,0,.43-.24,2.9,2.9,0,0,1-.38-.33A5.81,5.81,0,0,1,89.85,19.92Zm.24,7a.14.14,0,0,1,0,.1.81.81,0,0,1,.2.14l.09-.1L90.21,27A.44.44,0,0,0,90.09,26.88Zm0,1.78s0,0,0,0S90.14,28.69,90.14,28.66ZM90.67,2v-.1h-.19V2Zm.58,26.16a.34.34,0,0,1,0-.12.42.42,0,0,0,0-.12.75.75,0,0,1-.29,0q0,.24.12.24A.93.93,0,0,0,91.25,28.18Zm-.34,1.58a0,0,0,0,0,0-.05h0l0,.05Zm.67-7.06a.26.26,0,0,0,.14-.09V21.46a.47.47,0,0,0-.21.28.71.71,0,0,0,0,.29,1.86,1.86,0,0,0,0,.27.61.61,0,0,1,0,.26s0,.06,0,.07S91.58,22.67,91.58,22.7Zm.53-8.4,0,0s0,0,0,0l0,0S92.08,14.3,92.11,14.3Z"/></svg>