<svg id="Layer_1" data-name="Layer 1" xmlns="http://www.w3.org/2000/svg" xmlns:xlink="http://www.w3.org/1999/xlink" viewBox="0 0 566.57 406.09"><defs><style>.cls-1,.cls-12,.cls-15,.cls-17,.cls-18,.cls-19,.cls-23,.cls-24,.cls-9{fill:none;}.cls-2{clip-path:url(#clip-path);}.cls-3{fill:#c2e9eb;}.cls-4{fill:#e6fffe;}.cls-5{fill:#999;}.cls-6{fill:#e2e2e2;}.cls-7{fill:#e5e3da;}.cls-8{fill:#bab9b3;}.cls-9{stroke:#fae183;}.cls-12,.cls-17,.cls-18,.cls-23,.cls-24,.cls-26,.cls-9{stroke-miterlimit:10;}.cls-10{fill:#983233;}.cls-11,.cls-26{fill:#fae183;}.cls-12,.cls-15{stroke:#983233;}.cls-13{fill:#ff6608;}.cls-14{fill:#af3c47;}.cls-15,.cls-19{stroke-linecap:round;stroke-linejoin:round;}.cls-16{fill:#f2f2f2;}.cls-17{stroke:#545454;}.cls-18,.cls-19{stroke:#999;}.cls-20{fill:#f9f9f9;}.cls-21{fill:#fff;}.cls-22{fill:#c64f1a;}.cls-23{stroke:#ea5a21;}.cls-24,.cls-26{stroke:#ff6608;}.cls-25{fill:#f9e4a0;}</style><clipPath id="clip-path" transform="translate(83.3 6.78)"><circle class="cls-1" cx="192.47" cy="192.47" r="192.47"/></clipPath></defs><title>Fried</title><g class="cls-2"><rect class="cls-3" width="566.57" height="406.09"/><rect class="cls-4" x="338.42" y="186.59" width="105.68" height="16.39"/><ellipse class="cls-4" cx="352.1" cy="181.26" rx="43.21" ry="27.15"/><ellipse class="cls-4" cx="374.25" cy="161.19" rx="27.8" ry="22.52"/><ellipse class="cls-4" cx="428.33" cy="183.13" rx="34.42" ry="21.63"/><ellipse class="cls-4" cx="397.25" cy="171.19" rx="27.8" ry="22.52"/><ellipse class="cls-4" cx="104.09" cy="109.33" rx="43.21" ry="27.15"/><ellipse class="cls-4" cx="142.36" cy="97.16" rx="34.42" ry="21.63"/><ellipse class="cls-4" cx="180.31" cy="111.2" rx="34.42" ry="21.63"/><rect class="cls-4" x="92.41" y="119.17" width="105.68" height="16.39"/><polygon class="cls-5" points="302.19 283.59 85.69 279.99 137.86 246.41 247.99 245.92 302.19 283.59"/><rect class="cls-6" x="87.78" y="281.1" width="215.9" height="13.38"/><path class="cls-7" d="M156.58,257.59c1,.37,23.27-107.08,23.27-107.08l-134.39,2.6L71.79,257.47Z" transform="translate(83.3 6.78)"/><path class="cls-8" d="M170.61,194.62c.83-3.91,1.64-7.74,2.41-11.42,3.84-18.26,6.83-32.69,6.83-32.69l-134.39,2.6,7.86,31.14,3.07,12.18S130.89,195.3,170.61,194.62Z" transform="translate(83.3 6.78)"/><path class="cls-9" d="M155.08,256.84c1,.37,23.27-107.08,23.27-107.08L44,152.36,70.29,256.71Z" transform="translate(83.3 6.78)"/><path class="cls-10" d="M45.46,153.11c-1.64.38-17,29-17,29L195.59,181l-15.74-30.49Z" transform="translate(83.3 6.78)"/><path class="cls-9" d="M44.71,152.36c-1.64.38-17,29-17,29l167.17-1.11L179.1,149.76Z" transform="translate(83.3 6.78)"/><rect class="cls-11" x="111.26" y="184.61" width="168.2" height="6.69"/><rect class="cls-7" x="165.79" y="129.78" width="58.68" height="39.41"/><rect class="cls-9" x="164.29" y="129.03" width="58.68" height="39.41"/><rect class="cls-12" x="110.51" y="183.86" width="168.2" height="6.69"/><path class="cls-3" d="M132.78,258.46c.39.17,9.37-48.58,9.37-48.58L88,211.06,98.63,258.4Z" transform="translate(83.3 6.78)"/><polygon class="cls-10" points="159.46 130.9 195.95 93.72 234.96 131.27 159.46 130.9"/><rect class="cls-11" x="155.31" y="125.69" width="81.29" height="6.69"/><rect class="cls-8" x="165.79" y="129.78" width="58.68" height="9.84"/><path class="cls-9" d="M131.28,258.46c.39.17,9.37-48.58,9.37-48.58l-54.13,1.18L97.13,258.4Z" transform="translate(83.3 6.78)"/><polygon class="cls-13" points="185.37 149.37 179.56 153.49 186.21 155.01 185.37 149.37"/><path class="cls-14" d="M111.76,131.89l7.65-3.11s-2.6,3.45-2.18,3.28,5.88-.17,5.63-.17a18,18,0,0,0-2.44,1.35c.34-.17,4.21,2.77,4.21,2.77l-2.44-.17S120.09,131.89,111.76,131.89Z" transform="translate(83.3 6.78)"/><polygon class="cls-12" points="185.37 148.62 179.56 152.74 186.21 154.26 185.37 148.62"/><path class="cls-15" d="M111.32,131.33l7.66-3.11s-2.61,3.44-2.19,3.28,5.89-.17,5.63-.17a18.4,18.4,0,0,0-2.43,1.34c.33-.16,4.2,2.78,4.2,2.78l-2.44-.17S119.65,131.33,111.32,131.33Z" transform="translate(83.3 6.78)"/><path class="cls-14" d="M103.74,150a4.81,4.81,0,0,0-1.18,4.19c.37,2.57,1.81-1.44,1.75.44s-1.44,6.51-.13,5.51,1.88-4.07,2.32-1.57,2.69,3.5,2.94,1.57.31-4.13.31-4.13S104.31,153.33,103.74,150Z" transform="translate(83.3 6.78)"/><path class="cls-15" d="M103.12,149.14c0-.19-1.57,1.63-1.19,4.19s1.81-1.44,1.75.44-1.44,6.5-.12,5.5,1.87-4.06,2.31-1.56,2.69,3.5,2.94,1.56.31-4.13.31-4.13S103.68,152.52,103.12,149.14Z" transform="translate(83.3 6.78)"/><ellipse class="cls-16" cx="196.6" cy="151.39" rx="11.14" ry="11.94"/><ellipse class="cls-17" cx="196.6" cy="150.64" rx="11.14" ry="11.94"/><line class="cls-17" x1="190.33" y1="145.93" x2="194.62" y2="150.39"/><path class="cls-17" d="M111.24,139.82c-.25.09-4.21,3.7-4.21,3.7" transform="translate(83.3 6.78)"/><polygon class="cls-9" points="157.96 130.15 194.45 92.97 233.46 130.52 157.96 130.15"/><rect class="cls-12" x="153.81" y="124.94" width="81.29" height="6.69"/><rect class="cls-3" x="152.14" y="215.97" width="15.99" height="23.84"/><rect class="cls-3" x="225.14" y="216.97" width="15.99" height="23.84"/><line class="cls-9" x1="200.11" y1="229.29" x2="200.11" y2="265.13"/><path class="cls-10" d="M87.79,210.18c-.66.17-6.82,13.08-6.82,13.08l66.87-.5L141.55,209Z" transform="translate(83.3 6.78)"/><path class="cls-9" d="M86.29,209.43c-.66.17-6.82,13.08-6.82,13.08l66.87-.5-6.29-13.75Z" transform="translate(83.3 6.78)"/><rect class="cls-18" x="86.28" y="279.6" width="215.9" height="13.38"/><path class="cls-11" d="M373.38,181.93s-19.49,54-20.21,61.86,1.41,31.06,1.41,31.06-45.24,11.72-41-2.52c.88-3-9.7-93.1-9.7-93.1S340,202.54,373.38,181.93Z" transform="translate(83.3 6.78)"/><path class="cls-19" d="M370.26,180.89s-19.48,54-20.2,61.86,1.41,31.07,1.41,31.07-45.24,11.72-41-2.53c.88-3-9.7-93.1-9.7-93.1S336.84,201.5,370.26,180.89Z" transform="translate(83.3 6.78)"/><path class="cls-19" d="M343.26,181.77S346.72,152,347,150.43s-24.69-22.57-26.29-25.23a16.64,16.64,0,0,0-1.33,7.17L341.67,152l-4.25,30Z" transform="translate(83.3 6.78)"/><path class="cls-20" d="M343.26,181.77S346.72,152,347,150.43s-24.69-22.57-26.29-25.23a16.64,16.64,0,0,0-1.33,7.17L341.67,152l-4.25,30Z" transform="translate(83.3 6.78)"/><path class="cls-20" d="M344.3,182.8s3.45-29.74,3.72-31.33-24.7-22.57-26.29-25.23a16.59,16.59,0,0,0-1.33,7.17l22.31,19.65-4.25,30Z" transform="translate(83.3 6.78)"/><path class="cls-19" d="M343.26,181.77S346.72,152,347,150.43s-24.69-22.57-26.29-25.23a16.64,16.64,0,0,0-1.33,7.17L341.67,152l-4.25,30Z" transform="translate(83.3 6.78)"/><path class="cls-21" d="M301.88,180l2.08-5.18s35.59,19,68.08,3.11l-.45,4.33s-13.76,9.08-31.35,8.45C320.89,190,301.88,180,301.88,180Z" transform="translate(83.3 6.78)"/><path class="cls-19" d="M300.56,178.63l2.07-5.18s35.6,19,68.08,3.11l-.45,4.33s-13.76,9.08-31.34,8.46C319.56,188.66,300.56,178.63,300.56,178.63Z" transform="translate(83.3 6.78)"/><ellipse class="cls-21" cx="221.58" cy="290.24" rx="128.49" ry="29.72" transform="translate(74.49 13.72) rotate(-1.76)"/><ellipse class="cls-18" cx="218.37" cy="290.87" rx="116.7" ry="26.99" transform="translate(74.47 13.62) rotate(-1.76)"/><ellipse class="cls-18" cx="221.58" cy="290.24" rx="128.49" ry="29.72" transform="translate(74.49 13.72) rotate(-1.76)"/><path class="cls-7" d="M269.62,288.18l50.09-1.54s-4.73,17.05,6.89,15.53,12.65-5.63,9.56-11.37,3.91-5.37,4.81-14.14-5.36-22.57-12.08-13.62-7.12,14.79-7.12,14.79l-37.92-.58s8.28,3.83,6.54,3.88l-10.49.32Z" transform="translate(83.3 6.78)"/><path class="cls-19" d="M268.5,287.31l50.09-1.54s-4.72,17.05,6.89,15.53,12.66-5.64,9.56-11.37,3.92-5.37,4.82-14.14-5.36-22.57-12.08-13.62S320.65,277,320.65,277l-37.91-.58s8.28,3.83,6.53,3.88l-10.48.32Z" transform="translate(83.3 6.78)"/><path class="cls-22" d="M231.25,273S268.08,257.33,280,264s16.14,12.91,16.14,12.91l-12.24.38s21.61,1.08,14.73,4.79S287.81,292.29,285,295.87s-12.55,9.13-17.19,9.86-10.36,4.4-12.78,1.55-21.58-.5-21.58-.5Z" transform="translate(83.3 6.78)"/><path class="cls-12" d="M231,271.05s36.83-15.71,48.7-9.07,16.13,12.91,16.13,12.91l-12.23.37s21.61,1.09,14.72,4.8-10.76,10.24-13.56,13.83-12.55,9.13-17.19,9.85-10.36,4.4-12.78,1.56-21.59-.5-21.59-.5Z" transform="translate(83.3 6.78)"/><path class="cls-22" d="M260.21,231.68c-1.41-1.56-3.66-5.14-9.73-13.11s-7.4-13.18-18.49-13.43-4.57,3.06-5,7.15-6.91,2.55-18.53,4.07-5.31-2.17-11,3.25-15.91-5.34-24-2.18-8.55,6.1-8.55,6.1,20.92,16.84,24,22,7.9,10.25,7.26,8.52,20.46,1.7,20.46,1.7,16.5,5.91,19.43,6.4,13.65,7.74,19.28,1.16S266.85,239.05,260.21,231.68Z" transform="translate(83.3 6.78)"/><path class="cls-12" d="M259.09,230.81c-1.4-1.57-3.65-5.14-9.73-13.11s-7.4-13.19-18.48-13.43-4.57,3.06-5,7.15-6.92,2.55-18.53,4.07-5.32-2.17-11,3.25-15.9-5.34-24-2.18-8.56,6.1-8.56,6.1,20.93,16.84,24,22,7.89,10.25,7.26,8.52,20.45,1.7,20.45,1.7,16.51,5.91,19.44,6.4,13.65,7.74,19.28,1.16S265.73,238.18,259.09,230.81Z" transform="translate(83.3 6.78)"/><path class="cls-22" d="M215.82,264.18c-2.36-1.09-4.87,31.05-22.93,31.61s-21.8-7.5-21.8-7.5-9.72,6.13-26.92-3.25-17.53-20.45-18.79-23.33-4.49-13.27,1.32-14,9.76-5,22-5.92,15.22,1.86,15.15-.47-3-2.82-10.25-10.76-17.42-16.95-9.34-19.54,30.54,7.23,40.2,18S215.82,264.18,215.82,264.18Z" transform="translate(83.3 6.78)"/><path class="cls-7" d="M285.07,221.83,265.77,258s-8.63,3.77-8.68,2-5.91-2.73-5.91-2.73L267,222.38l-5.09-13.83s1.83-16.38,6.95-20.62,1.66,16.27,14.51,17,11.44-7.35,20.21-6.45a10.45,10.45,0,0,1,9.61,9s.69,22.72-7.5,21.8S285.07,221.83,285.07,221.83Z" transform="translate(83.3 6.78)"/><path class="cls-19" d="M284,221l-19.29,36.15s-8.63,3.76-8.68,2-5.92-2.74-5.92-2.74l15.84-34.88-5.09-13.84s1.83-16.38,6.94-20.61,1.67,16.27,14.52,17,11.43-7.35,20.21-6.45a10.44,10.44,0,0,1,9.6,9s.7,22.72-7.49,21.8S284,221,284,221Z" transform="translate(83.3 6.78)"/><path class="cls-12" d="M215.58,262.2c-2.36-1.1-4.87,31.05-22.93,31.6s-21.8-7.49-21.8-7.49-9.73,6.13-26.92-3.26-17.54-20.45-18.79-23.32-4.49-13.27,1.32-14,9.76-5,22-5.92,15.22,1.87,15.14-.46-3-2.83-10.24-10.77S135.9,211.59,144,209s30.53,7.22,40.19,18S215.58,262.2,215.58,262.2Z" transform="translate(83.3 6.78)"/><path class="cls-22" d="M262.08,251.68s12.11-4.45,11.58-2.68-7.6,18.3-7.6,18.3,6.85,14.37,7.52,17.26-12.38,14.37-19.23,19.25-11.43,7.35-18.49,5.23-15.31-4.78-15.31-4.78-10.85,7.33-15.09,2.22-6.94-17.28-11-16-5.49-8-3.34-13.89,2.69-7.08,8.39-11.34,9.11-7.27,10.68-13.15-3.78-9.21,7.25-10.72,18-3.46,21.07,2.85,7.5-2.56,8.81,2.07l.23,7.57L253.5,238l1,14s12.29-17.29,11.2-14.92S262.08,251.68,262.08,251.68Z" transform="translate(83.3 6.78)"/><path class="cls-12" d="M245.15,235.05s-1.42-9.7-7.6-8.1c-6.44,1.66-7.85,4.48-7.85,4.48s-3.15-6-8.32-3.51-5.42,5.7-5.42,5.7-6.32-9-10.89-5.89" transform="translate(83.3 6.78)"/><path class="cls-12" d="M191.36,253.3c-6-4.48-8.72.85-8.72.85s-3.81-10.37-8.42-8.48a23,23,0,0,0-8,6.07s-4.83-5.68-8.29-4.41-3.76,10.61-3.76,10.61" transform="translate(83.3 6.78)"/><path class="cls-12" d="M168.68,273s-4.91-8-8.88-4.39a56.87,56.87,0,0,1-6.83,5.45s-1.95-6.35-5.95-3.9-1,5.86-1,5.86" transform="translate(83.3 6.78)"/><path class="cls-12" d="M260,250.93s12.11-4.45,11.58-2.68-7.6,18.3-7.6,18.3,6.86,14.37,7.53,17.26-12.39,14.37-19.23,19.25-11.44,7.35-18.5,5.23-15.3-4.78-15.3-4.78-10.86,7.33-15.09,2.22-7-17.28-11-16-5.49-8-3.34-13.89,2.7-7.08,8.4-11.34,9.1-7.27,10.67-13.15-3.78-9.21,7.25-10.72,18-3.46,21.08,2.85,7.5-2.56,8.8,2.07l.24,7.57,5.92-15.93,1,14s12.3-17.29,11.2-14.92S260,250.93,260,250.93Z" transform="translate(83.3 6.78)"/><path class="cls-12" d="M254.29,282.82s2.48,4.59-3.82,8.28a8.14,8.14,0,0,1-10.54-1.42" transform="translate(83.3 6.78)"/><path class="cls-12" d="M227,287.74s-6.15,8.35-9.81,3.22c0,0-15.25-3-12.5-8.36a16.42,16.42,0,0,1,6.77-7.21s-7.64-2.1-5.47-7.41" transform="translate(83.3 6.78)"/><path class="cls-23" d="M228.28,286.92s-6.15,8.35-9.81,3.21c0,0-15.25-3-12.5-8.36a16.42,16.42,0,0,1,6.78-7.2s-7.65-2.1-5.48-7.41" transform="translate(83.3 6.78)"/><path class="cls-23" d="M253.53,282.08s2.47,4.58-3.83,8.28a8.13,8.13,0,0,1-10.54-1.43" transform="translate(83.3 6.78)"/><path class="cls-23" d="M168.8,274s-4.91-8-8.88-4.39a57.75,57.75,0,0,1-6.83,5.46s-2-6.36-6-3.9-1,5.86-1,5.86" transform="translate(83.3 6.78)"/><path class="cls-23" d="M191.48,254.3c-6-4.48-8.72.85-8.72.85s-3.81-10.38-8.42-8.49a22.86,22.86,0,0,0-8,6.08s-4.84-5.69-8.3-4.41-3.76,10.61-3.76,10.61" transform="translate(83.3 6.78)"/><path class="cls-23" d="M245.25,235.88s-1.42-9.7-7.6-8.1c-6.44,1.66-7.85,4.48-7.85,4.48s-3.15-6-8.32-3.51-5.42,5.7-5.42,5.7-6.32-8.95-10.89-5.89" transform="translate(83.3 6.78)"/><ellipse class="cls-11" cx="228.31" cy="133.53" rx="80.71" ry="56.08" transform="translate(58.72 62.83) rotate(-13.29)"/><ellipse class="cls-10" cx="229.53" cy="132.9" rx="72.01" ry="50.03" transform="translate(58.9 63.09) rotate(-13.29)"/><ellipse class="cls-24" cx="224.66" cy="132.62" rx="80.71" ry="56.08" transform="matrix(0.97, -0.26, 0.26, 0.97, 56.63, 69.43)"/><ellipse class="cls-24" cx="227.71" cy="131.08" rx="72.01" ry="50.03" transform="translate(59.27 62.63) rotate(-13.29)"/><path class="cls-25" d="M193.37,163.91a22.09,22.09,0,0,1-5.54,1,11.91,11.91,0,0,1-4.53-.71,11.58,11.58,0,0,1-3.49-2,14.84,14.84,0,0,1-2.77-3.33l-.78-1.22,10.54-4.35.49,1.06a4.16,4.16,0,0,0,1.77,2.08,2.71,2.71,0,0,0,2.09.19,2.53,2.53,0,0,0,1.72-1.48,5,5,0,0,0-.06-3.42,4.85,4.85,0,0,0-1.75-2.89,2.91,2.91,0,0,0-2.44-.24,4,4,0,0,0-1.65,1,5.68,5.68,0,0,0-1.13,1.73l-.28.59-9.24,1.29L174,134l21.87-6.34,2.6,8.95L185,140.56l.19,1.58c.31-.21.62-.4.93-.58a13.33,13.33,0,0,1,2.85-1.21,11.63,11.63,0,0,1,9,.69,10.68,10.68,0,0,1,5.37,6.76,13.25,13.25,0,0,1,.2,6.57,11.41,11.41,0,0,1-3.23,5.88A16.23,16.23,0,0,1,193.37,163.91Z" transform="translate(83.3 6.78)"/><rect class="cls-25" x="206.73" y="146.48" width="11.66" height="11.08" transform="translate(49.36 72.01) rotate(-16.17)"/><path class="cls-25" d="M234.44,152a17.15,17.15,0,0,1-6.33.85,10.2,10.2,0,0,1-4.67-1.62,12.66,12.66,0,0,1-3.6-3.71l-.79-1.2,8.9-3.85a10.59,10.59,0,0,1-7.34-1.28,11.63,11.63,0,0,1-5.42-7.14,12.41,12.41,0,0,1-.18-6.45,10.83,10.83,0,0,1,3.15-5.43,15.55,15.55,0,0,1,6.33-3.33,16.41,16.41,0,0,1,8.27-.56,12.49,12.49,0,0,1,6.37,4,22.77,22.77,0,0,1,4.45,8.87c1.65,5.67,1.64,10.29,0,13.72S238.79,150.74,234.44,152Zm-4.55-9.13a3.41,3.41,0,0,0,1.27,1.6,1.62,1.62,0,0,0,1.23.08,2.34,2.34,0,0,0,1.69-2,10.1,10.1,0,0,0-.11-3.26,11.51,11.51,0,0,1-.93.92,10.41,10.41,0,0,1-3.55,1.91Zm-3-16.6a2.44,2.44,0,0,0-1.62,1.4,4.66,4.66,0,0,0,.05,3.2,4.92,4.92,0,0,0,1.75,2.83,2.54,2.54,0,0,0,2.21.36,2.74,2.74,0,0,0,1.8-1.5,4.42,4.42,0,0,0,0-3.15,4.58,4.58,0,0,0-1.81-2.76A2.8,2.8,0,0,0,226.91,126.27Z" transform="translate(83.3 6.78)"/><path class="cls-25" d="M262.31,143.92a17.19,17.19,0,0,1-6.33.85,10.32,10.32,0,0,1-4.67-1.62,12.66,12.66,0,0,1-3.6-3.71l-.79-1.21,8.9-3.84a10.54,10.54,0,0,1-7.34-1.29,11.55,11.55,0,0,1-5.42-7.13,12.45,12.45,0,0,1-.18-6.46,10.84,10.84,0,0,1,3.15-5.42,15.44,15.44,0,0,1,6.33-3.33,16.38,16.38,0,0,1,8.26-.56,12.45,12.45,0,0,1,6.38,4,22.7,22.7,0,0,1,4.45,8.87c1.65,5.67,1.63,10.28,0,13.71S266.66,142.66,262.31,143.92Zm-4.55-9.13a3.3,3.3,0,0,0,1.27,1.59,1.62,1.62,0,0,0,1.23.09,2.35,2.35,0,0,0,1.69-2,10.42,10.42,0,0,0-.11-3.26,9,9,0,0,1-.94.92,9.94,9.94,0,0,1-3.54,1.91Zm-3-16.6a2.44,2.44,0,0,0-1.63,1.39,4.73,4.73,0,0,0,.06,3.2,4.87,4.87,0,0,0,1.75,2.84,2.51,2.51,0,0,0,2.21.35,2.7,2.7,0,0,0,1.79-1.5,4.39,4.39,0,0,0,0-3.14,4.63,4.63,0,0,0-1.81-2.76A2.81,2.81,0,0,0,254.78,118.19Z" transform="translate(83.3 6.78)"/><polygon class="cls-25" points="361.76 145.46 358.96 135.82 360.43 135.39 354.44 121.37 352.1 113.32 363.3 110.08 365.63 118.12 368.03 133.19 369.56 132.74 372.36 142.39 361.76 145.46"/><path class="cls-26" d="M174.84,134.16,195,128.32l2.05,7.05-13.64,3.95.66,5a14.59,14.59,0,0,1,2.5-1.86,11.45,11.45,0,0,1,2.63-1.14,10.43,10.43,0,0,1,8.27.73,10.29,10.29,0,0,1,5,6.44,13.21,13.21,0,0,1,.25,6.35,10.59,10.59,0,0,1-2.9,5.55,14.71,14.71,0,0,1-6.47,3.5,20.59,20.59,0,0,1-5.35.9,10.89,10.89,0,0,1-4.18-.71,11.08,11.08,0,0,1-3.22-2,14.82,14.82,0,0,1-2.65-3.28l8.3-3.47a5.78,5.78,0,0,0,2.4,2.85,3.94,3.94,0,0,0,3.06.32,3.77,3.77,0,0,0,2.52-2.25,6.69,6.69,0,0,0-.06-4.51,6.5,6.5,0,0,0-2.37-3.83,4.14,4.14,0,0,0-3.49-.42,5.09,5.09,0,0,0-2.19,1.32,7.32,7.32,0,0,0-1.4,2.19l-7.54,1Z" transform="translate(83.3 6.78)"/><path class="cls-26" d="M207.34,149.62l9-2.63,2.57,8.85-9.06,2.63Z" transform="translate(83.3 6.78)"/><path class="cls-26" d="M221.58,147.34l8.11-3.55a4.88,4.88,0,0,0,1.88,2.28,2.81,2.81,0,0,0,2.15.2,3.67,3.67,0,0,0,2.57-3.07c.25-1.22,0-3.58-.7-7.07a10.87,10.87,0,0,1-2.43,3.29,8.87,8.87,0,0,1-3.49,1.84,9.46,9.46,0,0,1-7.8-1,11.3,11.3,0,0,1-5.05-6.87,12.28,12.28,0,0,1-.24-6.18,10,10,0,0,1,2.82-5.09,14,14,0,0,1,5.94-3.17,15,15,0,0,1,7.83-.49,11.75,11.75,0,0,1,5.93,3.92,23.41,23.41,0,0,1,4.39,9q2.5,8.61.18,13.62t-8.48,6.8a15.77,15.77,0,0,1-6,.79A9.27,9.27,0,0,1,225,151,12.14,12.14,0,0,1,221.58,147.34Zm11.5-18.71a6.32,6.32,0,0,0-2.43-3.69,4,4,0,0,0-3.46-.58,3.69,3.69,0,0,0-2.42,2.14,6.34,6.34,0,0,0,0,4.29,6.55,6.55,0,0,0,2.34,3.74,3.73,3.73,0,0,0,3.29.58,3.91,3.91,0,0,0,2.58-2.23A6,6,0,0,0,233.08,128.63Z" transform="translate(83.3 6.78)"/><path class="cls-26" d="M250,139.1l8.11-3.56a4.94,4.94,0,0,0,1.88,2.28,2.83,2.83,0,0,0,2.16.2,3.66,3.66,0,0,0,2.56-3.07q.38-1.83-.7-7.07a10.55,10.55,0,0,1-2.43,3.29,8.9,8.9,0,0,1-3.48,1.84,9.48,9.48,0,0,1-7.81-1,11.31,11.31,0,0,1-5.05-6.86,12.2,12.2,0,0,1-.23-6.19,9.94,9.94,0,0,1,2.81-5.09,14.07,14.07,0,0,1,5.94-3.17,15,15,0,0,1,7.83-.49,11.75,11.75,0,0,1,5.93,3.92,23.41,23.41,0,0,1,4.39,9q2.51,8.61.18,13.62t-8.47,6.8a15.8,15.8,0,0,1-6,.79,9.27,9.27,0,0,1-4.24-1.56A12.22,12.22,0,0,1,250,139.1Zm11.5-18.72a6.35,6.35,0,0,0-2.42-3.69,4,4,0,0,0-3.47-.58,3.65,3.65,0,0,0-2.41,2.14,6.27,6.27,0,0,0,0,4.29,6.55,6.55,0,0,0,2.34,3.74,3.73,3.73,0,0,0,3.29.58,4,4,0,0,0,2.59-2.23A6.07,6.07,0,0,0,261.52,120.38Z" transform="translate(83.3 6.78)"/><path class="cls-26" d="M271.76,106.05l9.06-2.63,2.1,7.24,2.48,15.07-5.6,1.62-5.93-14.06ZM279,130l8.46-2.45,2.26,7.79-8.46,2.45Z" transform="translate(83.3 6.78)"/></g></svg>