<svg id="Layer_1" data-name="Layer 1" xmlns="http://www.w3.org/2000/svg" viewBox="0 0 247.85 71.13"><defs><style>.cls-1{fill:#983233;}</style></defs><title>GameTitle1</title><path class="cls-1" d="M0,12l.63-.7c.2-.23.4-.44.59-.63a1.07,1.07,0,0,0,.29-.8c0-.26,0-.51,0-.75a4.33,4.33,0,0,0,0-.72,6.49,6.49,0,0,1,0-1.08c0-.36.08-.72.13-1.08a10.27,10.27,0,0,1,.79-3.06A4.73,4.73,0,0,1,3.19,2a3.37,3.37,0,0,1,1.13-.85A3.71,3.71,0,0,1,6,.72,5.92,5.92,0,0,1,7,.81a3.18,3.18,0,0,1,1,.37A5,5,0,0,1,9.25,2.31V1.11h2.31s0,0,0,0,0,0,0,0v7H9.07c0-.24,0-.47,0-.7A3.51,3.51,0,0,0,9,6.76a8.8,8.8,0,0,0-.19-1,3.82,3.82,0,0,0-.42-1A1.63,1.63,0,0,0,7.13,4a1.49,1.49,0,0,0-.67.07,2.93,2.93,0,0,0-.59.29,1.08,1.08,0,0,0-.51.5,7,7,0,0,0-.25.69A3.22,3.22,0,0,0,4.9,6.76c0,.2,0,.4,0,.62A1.26,1.26,0,0,1,4.82,8a.57.57,0,0,1,.08.54,1,1,0,0,0-.08.54,2.14,2.14,0,0,1,.08.54v.53a.73.73,0,0,0,.25.51,7.8,7.8,0,0,0,.61.68c.22.22.42.43.61.65l-.57.55c-.2.18-.39.36-.58.52a.91.91,0,0,0-.32.79v.47a1.65,1.65,0,0,1-.08.47.88.88,0,0,0,0,.36,1.13,1.13,0,0,1,.06.36c0,.55,0,1.1,0,1.65s0,1.1,0,1.65a4.1,4.1,0,0,0,.16.95,2.92,2.92,0,0,0,.41.88,1.53,1.53,0,0,0,.72.54,4.16,4.16,0,0,0,.63.16,1.42,1.42,0,0,0,.67,0,2,2,0,0,0,.86-.52A2.42,2.42,0,0,0,8.86,20a5.34,5.34,0,0,0,.28-1.69,6.14,6.14,0,0,0,0-.86c0-.29,0-.57,0-.86h2.78a1.36,1.36,0,0,1,0,.29v1.54a8.15,8.15,0,0,1-.14,1.51,11.05,11.05,0,0,1-.4,1.44,5.19,5.19,0,0,1-.61,1.33,4.25,4.25,0,0,1-1,1.07A4.33,4.33,0,0,1,8,24.55a1.63,1.63,0,0,1-.58.05,1.85,1.85,0,0,0-.57.06.17.17,0,0,1-.18,0l-.22,0-.13,0-.12,0a3.55,3.55,0,0,1-1.51-.31,4.67,4.67,0,0,1-1.26-.81A3.65,3.65,0,0,1,3,23a5.5,5.5,0,0,1-.38-.56,4.17,4.17,0,0,1-.54-1.15l-.36-1.22a1.71,1.71,0,0,1-.07-.49,4.23,4.23,0,0,0,0-.48,14.13,14.13,0,0,1-.13-2.51c0-.82.05-1.66,0-2.5A1.4,1.4,0,0,0,1.08,13a5.65,5.65,0,0,1-.94-.83A1.08,1.08,0,0,1,0,12Zm2.05,1s0,0,0,0v0l0,0Zm1.23-.93h0Zm.9-3s0,0,0,0v.07ZM5.76,21.81v0h0v0Zm.07.76v.32a.32.32,0,0,0,.43-.11c.08-.11,0-.24-.18-.36a.29.29,0,0,1-.12.09ZM8,23.18a1.1,1.1,0,0,0-.29-.25l-.36.21v.47l.12.11.13.11a.5.5,0,0,1,.2-.09.29.29,0,0,0,.16-.09.11.11,0,0,1,0-.06.08.08,0,0,0,0-.05ZM7.85,2.71l-.18.09-.15.05a1.21,1.21,0,0,0,.27.22A.19.19,0,0,0,8,3l-.07-.14C7.9,2.8,7.87,2.75,7.85,2.71ZM9.61,6.26a1.37,1.37,0,0,1,0,.34,2,2,0,0,0,0,.34.64.64,0,0,0,.24,0,.4.4,0,0,1,.2,0,2.33,2.33,0,0,1-.06-.35c0-.1,0-.22-.05-.34a.48.48,0,0,0-.18,0A.57.57,0,0,1,9.61,6.26Zm1.44,12.31a.57.57,0,0,1-.47-.11,1.33,1.33,0,0,0-.43-.21c0-.05,0-.07.06-.07s0,0,0-.08A1.08,1.08,0,0,1,9.9,18a3.3,3.3,0,0,0-.07,1.51h.47a2.43,2.43,0,0,1,.28.45,2.8,2.8,0,0,1,.15.6,1,1,0,0,1,0-.27,1.63,1.63,0,0,0,0-.24l.2-.14.2-.15c-.05-.14-.1-.26-.14-.36a2.18,2.18,0,0,0-.26.22c-.21-.12-.32-.26-.32-.43s0-.08,0-.09a.31.31,0,0,1-.13-.09,1.1,1.1,0,0,0,.07-.29,3.09,3.09,0,0,0,.4.14,1,1,0,0,1,.16-.12l.16-.13a.08.08,0,0,0,.07,0h.11a.13.13,0,0,1,0-.08.21.21,0,0,1-.08.06ZM10.4,4.17l-.21,0-.22,0q-.26.25,0,.39a.35.35,0,0,0,.36,0c.12,0,.18-.08.18-.16A.88.88,0,0,0,10.4,4.17Zm-.18,15.55v0H9.86v0Zm0-.75q0,.18-.18,0Zm.14-1.19a1.48,1.48,0,0,0,0,.36h.36v-.36Zm.47-13.23a.41.41,0,0,1,0-.16.47.47,0,0,0,0-.17h0v.66A1.59,1.59,0,0,1,11,5V4.66A.48.48,0,0,0,10.87,4.55Zm0,14.71.07-.08-.07-.07Z"/><path class="cls-1" d="M13.21,1.11H19.4l.09.13a.16.16,0,0,1,.06.12c0,.24,0,.48,0,.71s0,.47,0,.73,0,.33,0,.49,0,.33,0,.52a3.26,3.26,0,0,1-.07.36H18.07v6.05c.1.12.2.17.31.14l.34-.07a.86.86,0,0,0,.22,0H22.1c0-.17,0-.32.08-.45a1,1,0,0,0,0-.45.33.33,0,0,1,0-.26.9.9,0,0,0,0-.28V4.21h-1.4V1.15H27v3a4.12,4.12,0,0,1-.7,0,5.51,5.51,0,0,0-.7,0s0,0,0,0,0,0,0,0v6l.32.43c.19.22.39.43.6.65s.41.43.63.65c-.2.17-.38.32-.54.47l-.54.47a1.23,1.23,0,0,0-.26.25l-.18.25V24.91H27v3H20.74v-3H22.1a1.11,1.11,0,0,1,0-.19,1.11,1.11,0,0,0,0-.17V19.36a1.11,1.11,0,0,1,0-.19,1.23,1.23,0,0,0,0-.2.92.92,0,0,1,0-.16.25.25,0,0,0,0-.17,1.66,1.66,0,0,1-.08-.48,1.52,1.52,0,0,1,.11-.52.31.31,0,0,0,0-.17.88.88,0,0,1,0-.16V15.15q0-.32,0-.66c0-.23-.05-.47-.08-.71a1.57,1.57,0,0,0-.28-.1.42.42,0,0,0-.33.07h-.21a1.26,1.26,0,0,0-.65-.11,4.73,4.73,0,0,1-.65,0,1,1,0,0,0-.43,0,1.65,1.65,0,0,1-.43.06,9.19,9.19,0,0,0-1.05,0V24.91a4.71,4.71,0,0,0,.65,0,4.39,4.39,0,0,1,.72,0l.07.15a.23.23,0,0,1,0,.14c0,.12,0,.25,0,.39s0,.27,0,.39,0,.28,0,.43,0,.27,0,.39v.85a.23.23,0,0,1,0,.14.4.4,0,0,0,0,.15H13.21a6.37,6.37,0,0,1,0-.75c0-.24,0-.48,0-.75a6.26,6.26,0,0,1,0-.74c0-.24,0-.49,0-.75a2.41,2.41,0,0,1,.7-.05,6.26,6.26,0,0,0,.74,0c0-.05,0-.3,0-.74s0-.93.05-1.46,0-1,0-1.48a2.18,2.18,0,0,0-.07-.79c0-.27,0-.54,0-.83a3.75,3.75,0,0,1,.05-.83c0-.12,0-.23,0-.33a1.32,1.32,0,0,1,0-.28V15a2.75,2.75,0,0,1,0-.41c0-.14,0-.26,0-.38a1.11,1.11,0,0,0-.29-1,2.16,2.16,0,0,0-.29-.31,2.06,2.06,0,0,1-.28-.3l-.36-.28a2.38,2.38,0,0,1-.36-.3c.26-.27.51-.53.73-.79s.48-.53.74-.8a.87.87,0,0,0,.06-.4,1.26,1.26,0,0,1,0-.39,3.86,3.86,0,0,0,0-.6V8.43a1.35,1.35,0,0,0-.07-.76.85.85,0,0,1,0-.5,1.86,1.86,0,0,0,.09-.65,3.51,3.51,0,0,0-.09-.65,1.61,1.61,0,0,1,0-.69,1,1,0,0,0,0-.48,1.15,1.15,0,0,1,0-.49H13.21Zm1.26,11H14.4l0,0A0,0,0,0,0,14.47,12.06Zm.29-9.8s0,0,0,0V2.3Zm3.38,9a.43.43,0,0,0,0-.22l.54.11a.63.63,0,0,1,.14-.18H17.78l-.25-.2-.18-.16V10a.72.72,0,0,1-.18-.11,1.41,1.41,0,0,1-.14.18l-.15.15-.1-.09-.11-.06a1.26,1.26,0,0,0,.18-.21,2.36,2.36,0,0,1-.22-.4l-.16,0-.2,0c0-.2,0-.38-.05-.56a3.64,3.64,0,0,0-.09-.6,4.8,4.8,0,0,0-.11.51c0,.14,0,.28-.07.39l-.31.27a1.55,1.55,0,0,1-.27.24v.79a2,2,0,0,1-.23.32l-.27.33a1,1,0,0,1,.07.29,1.53,1.53,0,0,1-.22.25l.33.11.32.07a.37.37,0,0,0,0,.12.51.51,0,0,1,0,.13l.14-.07c.17,0,.24.12.22.21a.29.29,0,0,0,0,.26,3.14,3.14,0,0,1,.69-.15A.64.64,0,0,0,17,12a.4.4,0,0,0,.38,0,.55.55,0,0,0,.19-.27l.26,0,.21,0a.19.19,0,0,1,.18,0c.07.05.1.08.07.11s-.06.19,0,.21a.14.14,0,0,1,.11.18.59.59,0,0,0,.05.22,1,1,0,0,1,.09.21.76.76,0,0,0,.09-.25.48.48,0,0,1,.09-.21,1.15,1.15,0,0,1,.33,0,1.18,1.18,0,0,1-.11-.27c0-.08-.06-.18-.11-.31l-.22.22a.65.65,0,0,1-.36-.4.1.1,0,0,0-.05-.1Zm-2.26,4.71V15.4l-.2-.1a.46.46,0,0,1-.16-.11.66.66,0,0,0-.15.47,2.25,2.25,0,0,1,0,.46l.23-.09A.92.92,0,0,0,15.88,15.94ZM15.41,4a.54.54,0,0,0,.39.36A.39.39,0,0,0,16,3.92c0-.12-.2-.15-.43-.11Zm.29,2.63v0l0,0a1.05,1.05,0,0,1-.07-.4.58.58,0,0,0-.18-.4v.65A.75.75,0,0,0,15.7,6.66Zm-.29,1.69v.79l.2-.27.19-.27A1.48,1.48,0,0,1,15.41,8.35Zm.68-.11h0V8.06h0Zm.69-3.89-.22-.11a.4.4,0,0,1-.18-.1.51.51,0,0,0,0-.13l-.05-.16a.8.8,0,0,0,.14.75.41.41,0,0,1,.16,0,.33.33,0,0,0,.17,0Zm-.18,9.4a.44.44,0,0,0,0-.42,1.26,1.26,0,0,1-.13-.34.86.86,0,0,1-.14.18,2.57,2.57,0,0,1,.11.27A2,2,0,0,0,16.6,13.75Zm-.18,1.15a0,0,0,0,1,0,0h.07Zm.46-7.56h.47c0-.12,0-.23,0-.34a.83.83,0,0,0-.05-.34H17a.23.23,0,0,0-.21.18,2.45,2.45,0,0,1,0,.27A.26.26,0,0,0,16.88,7.34ZM17.71,12a1.84,1.84,0,0,1,.25.21,2,2,0,0,1,.26-.21Zm.43-.72q0,.18-.21,0Zm.22,1.19,0-.08h0l-.07,0A.27.27,0,0,1,18.36,12.42Zm.47-.94a0,0,0,0,0,0,0v0l0,0ZM20,11.7a0,0,0,0,0,0,0h0l0,0Zm1.22.21v0a1.15,1.15,0,0,1-.09-.34c0-.11,0-.22,0-.34-.29-.17-.51-.16-.65,0v.87a1.83,1.83,0,0,1,.36-.29A.38.38,0,0,1,21.24,11.91Zm-.36-1a0,0,0,0,1,0,0h.08A0,0,0,0,1,20.88,10.94Zm1.44,1.55c.1.09.18.14.27.12h.31a1.58,1.58,0,0,0,.12-.15l.13-.14a.5.5,0,0,1-.09-.2A.37.37,0,0,0,23,12H22.5c-.12.07-.17.15-.16.23A1.15,1.15,0,0,1,22.32,12.49Zm1.4,4v-.21l.26.05.25.06.16-.13.2-.13A2.37,2.37,0,0,1,24,16a.86.86,0,0,1-.43-.38c-.07-.07-.12-.11-.14-.11a.19.19,0,0,1-.22,0l-.14-.16a1.33,1.33,0,0,0-.26-.11v1.08c0,.17,0,.34,0,.52a1.75,1.75,0,0,0,.05.59l.2-.23.16-.16.2,0a.86.86,0,0,1,.27,0s.08,0,.09,0,0,.05.09.08,0,.15,0,.18a.13.13,0,0,1,.11.14.45.45,0,0,0,0,.2c0,.06.05.12.07.2s0,.08,0,.09a.08.08,0,0,1,0,.05c0-.05.06-.08.05-.11a.12.12,0,0,1,0-.11.43.43,0,0,1,.14-.25,1.12,1.12,0,0,1,.29,0c0-.12-.06-.28-.11-.47s-.08-.07-.11-.07a1.3,1.3,0,0,0-.25.21L24,17a.3.3,0,0,1-.09-.25.12.12,0,0,0-.07-.11A.23.23,0,0,1,23.72,16.48Zm0,.69a3,3,0,0,1-.47,0,.58.58,0,0,0,.13.11l.09.07A1.05,1.05,0,0,0,23.76,17.17Zm0-.69c0,.15-.1.15-.25,0Zm.47-5.61-.14-.07-.15-.08c-.19.2-.24.36-.14.51s.18.12.25.07S24.24,11.11,24.19,10.87Zm-.39,4.79H24a.65.65,0,0,0,.2,0v-.36a.65.65,0,0,0-.29,0A.92.92,0,0,0,23.8,15.66Zm.39-8.86h-.07a.13.13,0,0,0,.07,0Zm0,12.24L24.3,19l-.07-.07Zm.14-2.3v0s0,0,0,0Z"/><path class="cls-1" d="M33.08,13.5v6a4.39,4.39,0,0,1,0,.54,3.12,3.12,0,0,0,0,.54c0,.05,0,.29,0,.72s0,.9,0,1.41,0,1,0,1.4,0,.67,0,.72h1.48c0,.27,0,.52,0,.76V27.9a1.9,1.9,0,0,1-.37,0H31.28a1,1,0,0,1-.39-.07.55.55,0,0,0-.4,0,4.05,4.05,0,0,1-1.1.07,5.79,5.79,0,0,0-1.1,0,3.78,3.78,0,0,1-.05-.54c0-.27,0-.56,0-.88v-1a4.51,4.51,0,0,1,0-.72h1.47V20.34c0-1.08,0-2.15,0-3.21s0-2.12,0-3.2a1.32,1.32,0,0,0-.5-1c-.17-.14-.34-.28-.5-.43L28.19,12l.63-.68c.2-.22.4-.42.59-.61a.92.92,0,0,0,.32-.65V4.21H28.29a3.78,3.78,0,0,1-.05-.54c0-.27,0-.56,0-.88v-1a3.75,3.75,0,0,1,0-.68h6.3v3H33.12v6a2.33,2.33,0,0,0,.57.83c.17.15.32.3.46.45l.41.49a2.27,2.27,0,0,1-.76.75A2,2,0,0,0,33.08,13.5ZM28.91,27.21s0,0,0,0v.07ZM29,1.87l-.08,0a.63.63,0,0,0,0,.25h0Zm.68,10.19h0v0S29.7,12.08,29.7,12.06Zm.14-.36c0,.19.1.26.29.21,0,0,0,0,0,0h0a.31.31,0,0,0-.21-.36l-.07.09S29.87,11.65,29.84,11.7Zm1,14.36a.13.13,0,0,1,.07,0c-.05-.21-.09-.46-.14-.75l-.14-.09-.15-.13a1.36,1.36,0,0,1-.22.25l-.25.26a1.17,1.17,0,0,1,0,.39.51.51,0,0,1,0,.11.36.36,0,0,0,0,.11.55.55,0,0,1,.65-.29A.62.62,0,0,1,30.85,26.06Zm-.54,1,.29,0a.33.33,0,0,0,.21-.05.71.71,0,0,1,0-.29c0-.1,0-.17-.14-.22l-.16.07a1.36,1.36,0,0,0-.2.11Zm.5-13.25a.69.69,0,0,1-.25.09c-.07,0-.12.08-.14.2C30.66,14.14,30.79,14.05,30.81,13.78Zm-.32,2.34,0,0v.07S30.49,16.15,30.49,16.12Zm0,3.06.11.65A1.38,1.38,0,0,1,31,20a.86.86,0,0,1,.18-.2l.18-.16a1.08,1.08,0,0,0-.27-.27A3,3,0,0,0,30.53,19.18Zm.21-4.71h0v0h0ZM31.28,17c.07-.19,0-.31-.25-.36l-.22.22c.05.12.12.18.2.18A.84.84,0,0,0,31.28,17ZM31,7.45c-.07.07-.11.12-.11.14s.06.07.18.15a.4.4,0,0,1,0-.15A.37.37,0,0,0,31,7.45ZM32.4,17.74a.49.49,0,0,1-.25-.16.42.42,0,0,0-.25-.12.49.49,0,0,1-.28-.09l-.23-.17-.47.11c0,.12,0,.23,0,.33a1.32,1.32,0,0,0,0,.28,1.22,1.22,0,0,1,.09.27.72.72,0,0,0,.09.27h.57a.87.87,0,0,0,.22-.18c.07-.07.17,0,.29.08a3.47,3.47,0,0,0,.2-.36C32.36,18,32.38,17.87,32.4,17.74Zm-1.22,7.31V25A.28.28,0,0,0,31,25v0Zm.25-.32a1.57,1.57,0,0,0,.36.09.88.88,0,0,1,.29.09.19.19,0,0,0,.07.14h.25v-6.3a1.76,1.76,0,0,0-.36.33l-.2-.15-.16-.14-.29.29c.15.14.17.28.07.41a.36.36,0,0,0,0,.41l-.18.06L31.1,20c0,.1,0,.16,0,.18a.93.93,0,0,1,.34.2,1.1,1.1,0,0,1,.2.31,2.54,2.54,0,0,0-.06.66c0,.42,0,.87-.05,1.35s-.05.93-.07,1.35A3,3,0,0,1,31.43,24.73ZM31.14,19a0,0,0,0,0,0,0v0l0,0ZM31.25,7v.07l0,0S31.27,7,31.25,7Zm.14,7.27a1.61,1.61,0,0,0,0-.39.74.74,0,0,0-.07.18A1,1,0,0,0,31.39,14.25Zm0,12.75.3.05.24,0a.42.42,0,0,0,.11.18h.64a.48.48,0,0,1,.15-.11A.45.45,0,0,0,33,27a.33.33,0,0,0,.22.11.89.89,0,0,1,.16-.25c.06-.07.11-.15.16-.22l-.12-.3-.13-.31-.14-.14q-.07.21-.15.39c-.12-.12-.25-.23-.38-.34a.57.57,0,0,0-.52-.09,1.64,1.64,0,0,0-.14.22,1.83,1.83,0,0,0-.15.25.5.5,0,0,1-.21,0c-.07,0-.13,0-.18.16Zm.14-11.63a2.9,2.9,0,0,1,0,.38,2.14,2.14,0,0,0,0,.34.93.93,0,0,0,.18-.16l.15-.17a2,2,0,0,0,.39.08c0-.12,0-.23,0-.33a1.67,1.67,0,0,0-.06-.29A.26.26,0,0,0,32,15.1l-.31,0a.55.55,0,0,0-.09.14A.23.23,0,0,1,31.57,15.37Zm.94-2.31c-.2-.09-.33,0-.4.15a.24.24,0,0,1,.07.18c0,.07.06.11.18.11A2.19,2.19,0,0,1,32.51,13.06Zm-.22-1.83-.07.07,0,.07S32.29,11.3,32.29,11.23Zm.25,14.15q-.1.18.15.18A.7.7,0,0,0,32.54,25.38ZM34,27.25V26.17h0l-.22,1.08Z"/><path class="cls-1" d="M35.53,12l.63-.7c.2-.23.4-.44.59-.63a1.07,1.07,0,0,0,.29-.8c0-.26,0-.51,0-.75a4.33,4.33,0,0,0,0-.72,6.49,6.49,0,0,1,0-1.08c0-.36.08-.72.13-1.08A10.27,10.27,0,0,1,38,3.13,4.73,4.73,0,0,1,38.72,2a3.37,3.37,0,0,1,1.13-.85A3.71,3.71,0,0,1,41.51.72a5.92,5.92,0,0,1,1,.09,3.18,3.18,0,0,1,1,.37,5,5,0,0,1,1.22,1.13V1.11h2.31s0,0,0,0,0,0,0,0v7H44.6c0-.24,0-.47,0-.7a3.51,3.51,0,0,0-.08-.71,8.8,8.8,0,0,0-.19-1,3.82,3.82,0,0,0-.42-1A1.63,1.63,0,0,0,42.66,4,1.49,1.49,0,0,0,42,4.1a2.93,2.93,0,0,0-.59.29,1.08,1.08,0,0,0-.51.5,7,7,0,0,0-.25.69,3.22,3.22,0,0,0-.21,1.18c0,.2,0,.4,0,.62a1.26,1.26,0,0,1-.09.61.57.57,0,0,1,.08.54,1,1,0,0,0-.08.54,2.14,2.14,0,0,1,.08.54v.53a.73.73,0,0,0,.25.51,7.8,7.8,0,0,0,.61.68c.22.22.42.43.61.65l-.57.55c-.2.18-.39.36-.58.52a.91.91,0,0,0-.32.79v.47a1.65,1.65,0,0,1-.08.47.88.88,0,0,0,0,.36,1.13,1.13,0,0,1,.06.36c0,.55,0,1.1,0,1.65s0,1.1,0,1.65a4.1,4.1,0,0,0,.16.95,2.92,2.92,0,0,0,.41.88,1.53,1.53,0,0,0,.72.54,4.16,4.16,0,0,0,.63.16,1.42,1.42,0,0,0,.67,0,2,2,0,0,0,.86-.52,2.42,2.42,0,0,0,.51-.81,5.34,5.34,0,0,0,.28-1.69,6.14,6.14,0,0,0,0-.86c0-.29,0-.57,0-.86h2.78a1.36,1.36,0,0,1,0,.29v1.54a8.15,8.15,0,0,1-.14,1.51,11.05,11.05,0,0,1-.4,1.44,5.19,5.19,0,0,1-.61,1.33,4.25,4.25,0,0,1-1,1.07,4.33,4.33,0,0,1-1.76.83,1.63,1.63,0,0,1-.58.05,1.85,1.85,0,0,0-.57.06.17.17,0,0,1-.18,0l-.22,0-.13,0-.12,0a3.55,3.55,0,0,1-1.51-.31A4.67,4.67,0,0,1,39,23.5a3.65,3.65,0,0,1-.45-.52,5.5,5.5,0,0,1-.38-.56,4.17,4.17,0,0,1-.54-1.15l-.36-1.22a1.71,1.71,0,0,1-.07-.49,4.23,4.23,0,0,0,0-.48A14.13,14.13,0,0,1,37,16.57c0-.82,0-1.66,0-2.5A1.4,1.4,0,0,0,36.61,13a5.65,5.65,0,0,1-.94-.83A1.08,1.08,0,0,1,35.53,12Zm2,1s0,0,0,0v0l0,0Zm1.23-.93h0Zm.9-3s0,0,0,0v.07Zm1.58,12.71v0h0v0Zm.07.76v.32a.32.32,0,0,0,.43-.11c.08-.11,0-.24-.18-.36a.29.29,0,0,1-.12.09Zm2.13.61a1.1,1.1,0,0,0-.29-.25l-.36.21v.47l.12.11.13.11a.5.5,0,0,1,.2-.09.29.29,0,0,0,.16-.09.11.11,0,0,1,0-.06.08.08,0,0,0,0-.05ZM43.38,2.71l-.18.09-.15.05a1.21,1.21,0,0,0,.27.22.19.19,0,0,0,.2-.08s-.05-.09-.07-.14Zm1.76,3.55a1.37,1.37,0,0,1,0,.34,2,2,0,0,0,0,.34.64.64,0,0,0,.24,0,.4.4,0,0,1,.2,0,2.33,2.33,0,0,1-.06-.35c0-.1,0-.22-.05-.34a.48.48,0,0,0-.18,0A.57.57,0,0,1,45.14,6.26Zm1.44,12.31a.57.57,0,0,1-.47-.11,1.33,1.33,0,0,0-.43-.21c0-.05,0-.07.06-.07s0,0,0-.08a1.08,1.08,0,0,1-.32-.14,3.3,3.3,0,0,0-.07,1.51h.47a2.43,2.43,0,0,1,.28.45,2.8,2.8,0,0,1,.15.6,1,1,0,0,1,0-.27,1.63,1.63,0,0,0,0-.24l.2-.14.2-.15c0-.14-.1-.26-.14-.36a2.18,2.18,0,0,0-.26.22c-.21-.12-.32-.26-.32-.43s0-.08,0-.09a.31.31,0,0,1-.13-.09,1.1,1.1,0,0,0,.07-.29,3.09,3.09,0,0,0,.4.14,1,1,0,0,1,.16-.12l.16-.13a.08.08,0,0,0,.07,0h.11a.13.13,0,0,1,0-.08.21.21,0,0,1-.08.06Zm-.65-14.4-.21,0-.22,0q-.26.25,0,.39a.35.35,0,0,0,.36,0c.12,0,.18-.08.18-.16A.88.88,0,0,0,45.93,4.17Zm-.18,15.55v0h-.36v0Zm0-.75q0,.18-.18,0Zm.14-1.19a1.48,1.48,0,0,0,0,.36h.36v-.36ZM46.4,4.55a.41.41,0,0,1,0-.16.47.47,0,0,0,0-.17h0v.66a1.59,1.59,0,0,1,.26.14V4.66A.48.48,0,0,0,46.4,4.55Zm0,14.71.07-.08-.07-.07Z"/><path class="cls-1" d="M50.36,4.17H48.81v-3h0l0,0H55a3,3,0,0,1,0,.52V3.42a7.48,7.48,0,0,1,0,.75H53.67v7.6q1.15-1.9,2.24-3.8c.72-1.26,1.45-2.52,2.19-3.8H56.48V1.26s0-.08.11-.15h5.72a1,1,0,0,0,.24,0c.08,0,.16,0,.23.17V4.17H61.45L59.18,8.09c-.74,1.29-1.5,2.6-2.27,3.91q1.16,2.31,2.33,4.57l2.35,4.52h1.12l.14.15a1,1,0,0,0,0,.55.69.69,0,0,1,0,.54c0,.05,0,.1,0,.17a.37.37,0,0,1,0,.16v1.2l-.11.33H56.55V21.13a.56.56,0,0,1,.33,0,.58.58,0,0,0,.32,0H58c-.72-1.44-1.44-2.88-2.14-4.32s-1.43-2.9-2.15-4.39v8.71H55a3.81,3.81,0,0,1,.05.55c0,.27,0,.56,0,.89v1a5.73,5.73,0,0,1,0,.69h-6.2V21.13h1.44V13.55a1.86,1.86,0,0,0-.68-.86,2.57,2.57,0,0,1-.4-.34c-.12-.14-.24-.27-.36-.42l.36-.39.36-.43c.12-.12.25-.25.38-.4l.38-.43V6.85a.86.86,0,0,1,.07-.34.17.17,0,0,0,0-.18.49.49,0,0,1-.05-.18V4.42A1.44,1.44,0,0,1,50.36,4.17Zm.11,7.2s0,0,0,0v.07ZM52,8h0l.07,0A0,0,0,0,0,52,8Zm.65,2.12L52.59,10l-.07.07Zm.21-.93a.09.09,0,0,1,.07,0l0,0Zm.51-6.41h.07a.19.19,0,0,0,0-.07.24.24,0,0,1,0-.08h0Zm.75.39v0H54V3.2a.1.1,0,0,0,.07,0Zm1,8.86a.62.62,0,0,0,.18.07l.2-.25a1.12,1.12,0,0,0,.16-.22,1.33,1.33,0,0,0-.75-.46,4.09,4.09,0,0,0-.54,1A.73.73,0,0,0,55.11,12Zm2.13,3q.18-.15.18-.27a.68.68,0,0,0-.07-.27,7.32,7.32,0,0,1-.33-.69,2.2,2.2,0,0,0-.39-.64.19.19,0,0,1-.08-.18.42.42,0,0,0-.12-.33,2.11,2.11,0,0,0-.27-.18.29.29,0,0,1,0-.16.41.41,0,0,0,0-.16,1.23,1.23,0,0,0,0-.2,1.23,1.23,0,0,1,0-.2.78.78,0,0,0,0-.14,1.29,1.29,0,0,1,0-.25c0,.21-.08.39-.1.52s0,.26-.08.38-.23.23-.34.32l-.34.32a3,3,0,0,1-.43-.07c.21.48.43.94.65,1.37s.42.86.61,1.3a1.13,1.13,0,0,0,.93-.47Zm-.79,1.26a.34.34,0,0,0,0,.11.1.1,0,0,1,0,.07.08.08,0,0,0,.07,0l-.1-.11a1.17,1.17,0,0,1,0-.39,1.61,1.61,0,0,0-.09.25C56.31,16.21,56.35,16.25,56.45,16.27Zm.93-6.55a.88.88,0,0,0-.32-.08h-.29c-.07.13-.11.21-.13.26a1.41,1.41,0,0,0,0,.32.38.38,0,0,0,.43.11,3,3,0,0,1,.15-.31A2.15,2.15,0,0,0,57.38,9.72Zm-.14-2-.15.14L57,8l.25.26c.15-.12.22-.21.22-.26A.71.71,0,0,0,57.24,7.74Zm.36,10.9,0,0s0,0,0,0,0,.05,0,.07Zm.11-3.27c-.08.09-.09.16-.06.2l.13.12.14-.14a.35.35,0,0,0-.11-.09A.35.35,0,0,1,57.71,15.37Zm0,1.44s0,0,0,0,0,0,0,0a.09.09,0,0,0,.07,0s0,0,0,0l0,.07S57.7,16.81,57.69,16.81ZM57.92,19a.49.49,0,0,0-.07.32.46.46,0,0,0,.22.22,1.38,1.38,0,0,1-.09-.27C58,19.18,58,19.09,57.92,19Zm.36-2.67h0v.18h0Zm0,1.3v0l0,0V17.6ZM59,18.82a1.08,1.08,0,0,0-.27.15,1.2,1.2,0,0,1-.17.11v.36a.5.5,0,0,0,.13.1l.13.11a.59.59,0,0,0,.54-.43L59.15,19A.73.73,0,0,1,59,18.82Zm-.29-1.58h0l0,0s0,0,0,0Zm1,3.53h-.4a1.35,1.35,0,0,1-.12.12L59,21a.64.64,0,0,1,0,.27c0,.09,0,.16.16.23h.4a1,1,0,0,0,.23-.34A.89.89,0,0,0,59.65,20.77ZM59.18,3s0,0,0,0h0Zm0,3V6l0,0,0,0Zm1.08,14.43,0,0,0,0s0,0,0,0A0,0,0,0,1,60.26,20.44Z"/><path class="cls-1" d="M69.05,4.17v6.12a.91.91,0,0,0,.59,0,2.71,2.71,0,0,0,.49-.31,1.33,1.33,0,0,0,.39-1,1.66,1.66,0,0,1,.76-.15c.31,0,.8,0,1.47.11a1.54,1.54,0,0,1,.15.65v3.28a.66.66,0,0,1,0,.25.76.76,0,0,0,0,.21,1.11,1.11,0,0,1,0,.17.18.18,0,0,0,0,.16.23.23,0,0,1,0,.29.08.08,0,0,0,0,.14.73.73,0,0,1,0,.58,1,1,0,0,0,0,.61H70.56A1.57,1.57,0,0,0,70,14a1.53,1.53,0,0,0-.4-.21.85.85,0,0,0-.5,0v7.38c.38,0,.75,0,1.11,0a10.53,10.53,0,0,1,1.12,0h2.19a1.49,1.49,0,0,1,0-.21,1.41,1.41,0,0,0,0-.18V18.14a2.28,2.28,0,0,1,0-.27,2.13,2.13,0,0,0,0-.27,2,2,0,0,0,0-.23,2.32,2.32,0,0,1,0-.24l0,0h2.66a8.58,8.58,0,0,1,.05,1c0,.58,0,1.23,0,2V22.3c0,.75,0,1.37,0,1.85a5.19,5.19,0,0,1-.83.06l-1.82,0-2.43,0H66.09c-.76,0-1.39,0-1.87,0a0,0,0,0,0,0,0v-3a2.61,2.61,0,0,1,.79,0,2.63,2.63,0,0,0,.79,0V14.18a1.61,1.61,0,0,0-.5-1.22,3.31,3.31,0,0,0-.36-.31,2,2,0,0,1-.36-.31l-.17-.14a.39.39,0,0,1-.12-.25.09.09,0,0,0,0-.06l0-.05a7.84,7.84,0,0,0,.54-.61,6.35,6.35,0,0,1,.54-.61,1.08,1.08,0,0,0,.36-.83V4.21H64.22a3.45,3.45,0,0,1,0-.78c0-.25,0-.5,0-.77a4.67,4.67,0,0,1,0-.74c0-.23,0-.47,0-.74a5.28,5.28,0,0,1,.86-.05l2,0h7.67c.71,0,1.23,0,1.57,0a5.57,5.57,0,0,1,0,1.08,9.73,9.73,0,0,0,0,1.08V7.63l-.12.07a.2.2,0,0,1-.13,0,1.11,1.11,0,0,0-.54,0,1.93,1.93,0,0,1-.54,0h-.56a2.63,2.63,0,0,1-.56,0,1.12,1.12,0,0,1-.32-.08V6.58c0-.19,0-.36,0-.52a2.64,2.64,0,0,1,0-.48,1.19,1.19,0,0,0-.31-.85,1.29,1.29,0,0,0-.7-.49,1.57,1.57,0,0,0-.29-.07Zm-4-1,.12.13.13.13.21-.13a.52.52,0,0,0,.18-.13V2.8a.81.81,0,0,0-.14-.12l-.18-.13a2,2,0,0,1-.32.25Zm.75,8.28a1,1,0,0,0,.07.29.27.27,0,0,0,.13,0h.16L66,11.57Zm.54-1.8v1.23a2,2,0,0,1,.31,0H67a.78.78,0,0,1,.18-.11.32.32,0,0,0,.18-.1l.09.05.09.05a.31.31,0,0,1,.2-.3c.13-.06.16-.17.09-.34a1.82,1.82,0,0,1-.7-.29A1,1,0,0,0,66.38,9.64Zm.07-3.13a0,0,0,0,1,0,0v.07S66.43,6.51,66.45,6.51Zm1.37,7.35a1.47,1.47,0,0,0,0,.36,3.3,3.3,0,0,1,.47-.15v-.61a1.84,1.84,0,0,0,.25-.23,2,2,0,0,1,.18-.2,2.13,2.13,0,0,1,1.62.43,2.69,2.69,0,0,1,.79,1.12h1v-1.3l-.29-.13h-.36a.68.68,0,0,1,0,.14c0,.05,0,.11-.05.18l-.13-.11-.12-.07.21-.22a.5.5,0,0,1-.18-.27.32.32,0,0,0-.21-.23.09.09,0,0,0,0-.05s0,0,0-.06l-.22,0c-.07,0-.13-.08-.18-.2a1.47,1.47,0,0,0,.06-.14.88.88,0,0,1,0-.15c0-.12,0-.22,0-.32s0-.19-.06-.29a.13.13,0,0,0-.07,0,1.11,1.11,0,0,1,0,.17,1,1,0,0,0,0,.16l-.12.07-.13.07-.48-.27a2.84,2.84,0,0,0-1-.3,2.63,2.63,0,0,0-.47,0,.69.69,0,0,1-.18-.59,1.22,1.22,0,0,0,0-.6c0,.19-.09.38-.12.54s-.08.35-.13.54q-.28,0-.36.18a.6.6,0,0,1-.25.33l-.2-.06L67,11.41a1.15,1.15,0,0,0,.07.39.31.31,0,0,0-.09.13,1.12,1.12,0,0,1,0,.13l.09.1a.27.27,0,0,0,.09.11l-.65.22c.12.09.23.18.34.25l.31.22a1.52,1.52,0,0,0-.11.23,1,1,0,0,0-.07.23,1.9,1.9,0,0,0,.43.08.31.31,0,0,1,.21.21C67.73,13.69,67.82,13.74,67.82,13.86Zm-1.15-.22h-.14a.56.56,0,0,0-.08.22ZM66.49,2.12v.07s0,0,0,0,0,0,0,0Zm.47.76A3,3,0,0,0,67,2.44a.43.43,0,0,0-.14-.21l-.15.14a1.6,1.6,0,0,1,.11.25A1.33,1.33,0,0,0,67,2.88ZM67.21,15h-.36l-.11.54.15.12.14.13a1.36,1.36,0,0,1,.2-.11,1,1,0,0,0,.2-.11v-.36a.45.45,0,0,0-.09-.1Zm-.4-10.87v0l0,0ZM67,7.59v.79a2.77,2.77,0,0,0,.38-.14l.34-.14a4.1,4.1,0,0,0-.07-.51c-.13-.12-.23-.16-.33-.12Zm.68,9.18a1,1,0,0,0-.29.18.39.39,0,0,0-.1.29.47.47,0,0,0,0,.22,1,1,0,0,1,.09.21h.43a1.52,1.52,0,0,1,.29-.39l.11,0,.11,0v-.61A2.47,2.47,0,0,0,68,17ZM67.43,2.16a0,0,0,0,0,0,0l0,0,0,0Zm.18,3.24a1,1,0,0,1-.15.21.42.42,0,0,1,.11.18.42.42,0,0,0,.11.18c.29-.07.44-.19.47-.36A1,1,0,0,1,68,5.4Zm0-.76,0,0v.08S67.62,4.64,67.64,4.64Zm.18,3.67,0,0h0A.11.11,0,0,0,67.82,8.31ZM67.89,8l0,0,0,0s0,0,0,0A0,0,0,0,1,67.89,8Zm.18-4.86s0,0,0,0V2.84H68a.27.27,0,0,0,0,.13A.41.41,0,0,1,68.07,3.09Zm0,15.09.11.1a1.11,1.11,0,0,0,.11.11V18A.47.47,0,0,0,68.11,18.18Zm.14-10.34s-.08.08-.1.08l.1.1s.08,0,.08-.07S68.3,7.89,68.25,7.84Zm.11,6.66s-.08-.07-.11-.07a.22.22,0,0,0-.1.07l.07.08Zm.58-12.67v0h.18v0Zm.14,1.08,0,0,0,0s0,0,0-.07Zm1.37,9.18c0,.07-.08.11-.11.11l-.11-.11a.07.07,0,0,0,.06,0,.05.05,0,0,1,0,0S70.35,12,70.45,12.09Zm1.66-2-.44-.33a1.38,1.38,0,0,1-.32.15l-.13.32c0,.1,0,.19.17.29h.46l.22-.22A.36.36,0,0,0,72.11,10.08Zm-.29,2.7h.07l0,0ZM74.7,6.84s-.09-.08-.11-.08l-.11.11.15.07S74.65,6.89,74.7,6.84Z"/><path class="cls-1" d="M91.51,1.15l.07.07,0,.07V4.17a2.94,2.94,0,0,1-.78,0,5,5,0,0,0-.77,0,1,1,0,0,1,0,.16,1,1,0,0,0,0,.16v5.1a1.38,1.38,0,0,0,.4,1l1,1.08a2.31,2.31,0,0,1,.15.22l-.56.54c-.18.16-.37.34-.56.54a1.2,1.2,0,0,0-.4.89V21a.09.09,0,0,1,0,.07h1.48c.12.08.18.16.18.26v.25a1.72,1.72,0,0,0-.06.53,4.36,4.36,0,0,0,.06.49,3,3,0,0,1,0,.6c0,.21,0,.41,0,.6V24a.21.21,0,0,0-.06.08l0,.07H87.23c-.89-2.79-1.77-5.53-2.63-8.25S82.86,10.5,82,7.74a6.36,6.36,0,0,0,0,1.08c0,.64,0,1.44,0,2.39s0,2,0,3.08V17.4c0,1,0,1.8,0,2.49s0,1.08,0,1.2h1.34v3.1H77.58V21.13h1.55v-6.9A2.43,2.43,0,0,0,79,13.5a1.25,1.25,0,0,0-.43-.6,3.6,3.6,0,0,1-.47-.39c-.15-.15-.29-.28-.43-.4a.09.09,0,0,1,0-.07.09.09,0,0,0,0-.07.84.84,0,0,1,.11-.18c.19-.19.38-.4.56-.61a8.27,8.27,0,0,1,.56-.61.91.91,0,0,0,.29-.65V4.21H77.58V1.15h4.89c.24.72.48,1.44.71,2.18s.46,1.45.7,2.17.36,1.16.52,1.73.33,1.15.52,1.73.38,1.16.56,1.75.37,1.17.56,1.74.37,1.15.54,1.71.33,1.13.5,1.68c0,.12.09.24.13.37s.07.29.12.45V4.21H85.89V1.15Zm-10.8.9a1.49,1.49,0,0,0,0,.21,1.8,1.8,0,0,1,0,.22.81.81,0,0,0,.35,0c.05,0,.09-.08.11-.18A.32.32,0,0,0,81,1.9L80.85,2Zm.11,1.55a1.49,1.49,0,0,0,.36,0c.14-.05.18-.14.11-.29s-.06-.11-.19-.18-.21,0-.28.18Zm1-1.23a.35.35,0,0,0,.14.06.5.5,0,0,1,.18.09,4.25,4.25,0,0,0-.25-.69.5.5,0,0,0-.09.29A1.81,1.81,0,0,1,81.83,2.37Zm.93,2.05A1.39,1.39,0,0,1,82.64,4a.57.57,0,0,0-.17-.31c-.12.1-.17.19-.16.27a.85.85,0,0,1,0,.31ZM83.19,8l0,0h0s0,0,0,0Zm5.37-3.85c-.08.07-.1.11-.08.11s0,.07.08.07a.06.06,0,0,0,.07-.07A.3.3,0,0,0,88.56,4.17Zm.74,5.44,0,0S89.28,9.61,89.3,9.61Z"/><path class="cls-1" d="M103.46,4.17H102V1.11h.29c1.08,0,2.16,0,3.26,0s2.17,0,3.25,0a12.29,12.29,0,0,1,1.5.17,4.07,4.07,0,0,1,1.42.52,4.12,4.12,0,0,1,.77.56,3,3,0,0,1,.6.74,5.86,5.86,0,0,1,.72,2.12,3.49,3.49,0,0,1,.07.71V9.66a5.74,5.74,0,0,1-.05.74c0,.22-.08.46-.13.7s-.09.39-.13.59a2.94,2.94,0,0,1-.16.6,3.42,3.42,0,0,1-1.58,2,5.16,5.16,0,0,1-1.69.5,15.17,15.17,0,0,1-1.64.06c-.54,0-1.09,0-1.64,0V24.87a.76.76,0,0,0,.36.06,2.17,2.17,0,0,1,.36,0h.72v3L108,28a.9.9,0,0,1-.36-.05.5.5,0,0,0-.43,0,.92.92,0,0,1-.36.07h-2.34c-.65,0-1.3,0-2,0H102V24.91h1.44c0-.1,0-.39,0-.87s0-1,0-1.57,0-1.09,0-1.57V20a6.74,6.74,0,0,1-.07-1.41q0-.68,0-1.41c0-.6,0-1.2,0-1.8s0-1.19,0-1.77a2.08,2.08,0,0,0-.8-1l-.34-.31L102,12c.19-.22.38-.44.58-.65l.57-.65a1,1,0,0,0,.33-.76,9.65,9.65,0,0,1,0-1.7v-1a6.82,6.82,0,0,1,.07-1,6,6,0,0,0,0-1C103.51,4.85,103.48,4.51,103.46,4.17ZM103.35,12v-.11a.63.63,0,0,1-.29,0l.06.09a.31.31,0,0,1,0,.09A.84.84,0,0,0,103.35,12Zm.72-.5a.26.26,0,0,0,0-.15H104a.72.72,0,0,0,.11.15v.28a.81.81,0,0,1-.36-.09.8.8,0,0,1-.18-.34,2.75,2.75,0,0,1-.29.33l.2.05c.06,0,.12.08.16.2l.09.21a1.59,1.59,0,0,0,.13.22.13.13,0,0,0,.07,0,.86.86,0,0,0,.15-.22h.43a.84.84,0,0,1,.14-.22c-.19,0-.27-.07-.25-.07l-.14-.23A1.17,1.17,0,0,0,104.07,11.52Zm-.79,14.92a.85.85,0,0,1,.22.18C103.5,26.4,103.42,26.34,103.28,26.44Zm.25.52,0,0,0,0a0,0,0,0,0,0,0S103.53,26.94,103.53,27Zm.33-14.22c.07,0,.1-.06.1-.11a.2.2,0,0,0-.07-.11l-.07.08S103.81,12.67,103.86,12.74Zm.43-1.87c-.15,0-.24,0-.29,0a.82.82,0,0,0-.14.23l.19-.13Zm-.15,14.9a.31.31,0,0,1,0,.09.31.31,0,0,0,0,.09l-.15-.07v.32c.12,0,.25-.06.4-.1,0,0,0,0,.07-.11Zm.29-19.22c0-.12-.05-.16-.14-.11A.45.45,0,0,1,104.43,6.55Zm-.07,9.54a1,1,0,0,0,.31.18s.1-.07.19-.22c-.12-.12-.2-.17-.25-.16A.75.75,0,0,0,104.36,16.09Zm.11-1.05,0,0,0,0,0,0A0,0,0,0,1,104.47,15Zm.07,1.91,0,0a0,0,0,0,1,0,0l0,0S104.52,17,104.54,17Zm.22,1.26,0,0v.07A0,0,0,0,0,104.76,18.21Zm.1-12,0,0,0,0,0,0S104.84,6.22,104.86,6.22Zm-.07,7.17h.07a.73.73,0,0,0,0-.25h0Zm0,.21,0,0,0,0s0,0,0,0S104.83,13.58,104.83,13.6Zm.11.44h0s0,0,.07,0Zm0,4.14v0s0,0,0,0a.73.73,0,0,0,.13.23,1.54,1.54,0,0,0,.38.2,3.22,3.22,0,0,1-.18-.51.54.54,0,0,1-.18,0A.28.28,0,0,0,105,18.18Zm.11,9a.85.85,0,0,0,.68,0Zm.18-15.52h0v0S105.26,11.69,105.26,11.66Zm.79,14.83s0,0,0,0,0,0,0,0a1.48,1.48,0,0,0,.25-.14,1.48,1.48,0,0,1,.25-.14l.15.07A1.94,1.94,0,0,0,107,26v-.43a.11.11,0,0,1-.07,0h-.07a1.29,1.29,0,0,1-.4-.06.47.47,0,0,1-.28-.3,1,1,0,0,0-.33-.22l-.21.22a1.36,1.36,0,0,0-.22.25c0,.19,0,.37.07.54s0,.33.07.5Zm-.54-9.65h0s0,0,0,0Zm.54-7.52a1.14,1.14,0,0,0-.18.25.25.25,0,0,0,.07.09l.11.09Zm.11,4.25,0,0,0,0,0,0S106.14,13.57,106.16,13.57Zm1.58,13.68V27a.24.24,0,0,0-.07-.18.26.26,0,0,1-.09-.17,1.6,1.6,0,0,0,0-.21.86.86,0,0,1-.07-.34,3.82,3.82,0,0,0,0-.4c0,.18-.08.35-.11.49s0,.28-.07.42a.83.83,0,0,0-.25.1l-.4.44a1.12,1.12,0,0,0-.32-.08.66.66,0,0,0-.11.16Zm-1.18-14.47,0,0a0,0,0,0,0,0,0s0,0,0,0S106.53,12.78,106.56,12.78Zm.32-1.08h1.53a3.61,3.61,0,0,0,.85-.11,2.28,2.28,0,0,0,.79-.34,1.38,1.38,0,0,0,.47-.74c0-.19.09-.39.14-.58a2.22,2.22,0,0,0,.07-.57v-3a3.17,3.17,0,0,0-.11-.86L110.41,5a1.15,1.15,0,0,0-.33-.41,2.22,2.22,0,0,0-.52-.29,1.51,1.51,0,0,0-.56-.11c-.36,0-.71,0-1.06,0s-.7,0-1.06,0Zm.47,1.54s0,0,0,0l0,0,0,0S107.35,13.27,107.35,13.24Zm.57-.79h-.07s.05,0,.07,0Zm1.44,1.62a1.53,1.53,0,0,0,.74,0,5.53,5.53,0,0,1,.7-.18l.11-.11a3.41,3.41,0,0,1-.48-.18l-.49-.22c-.24-.09-.4-.07-.47.07Zm.47-1.55s0,0,0,0l0,0S109.86,12.5,109.83,12.52Zm.51-.5-.15,0s0,.08,0,.2a.51.51,0,0,1,.15-.22s.07-.08.07-.11h.25a.27.27,0,0,0,.14,0l.15,0a.48.48,0,0,1-.09-.21.76.76,0,0,0-.09-.25,1.68,1.68,0,0,0-.18.21,1.43,1.43,0,0,1-.15.18Zm1,1.4h0v.15h.08a.14.14,0,0,0,0-.07A.24.24,0,0,1,111.38,13.42Zm.22-7.09s0,0,0,0l0,0h.08Zm0,2.85h-.08v.61c.15.12.24.17.27.16s.12-.1.24-.27c-.19-.1-.33-.17-.4-.22a.36.36,0,0,0,0-.14A.66.66,0,0,1,111.6,9.18Zm.21-.83h0S111.84,8.33,111.81,8.35Zm.51,4.39a.62.62,0,0,0,.27-.32,2.53,2.53,0,0,1,.12-.36c-.12-.12-.23-.17-.34-.13a2.06,2.06,0,0,0-.34.16v.51A.71.71,0,0,0,112.32,12.74Zm.07-2.63V10a.42.42,0,0,1-.15,0v0Zm.18,1.12a1,1,0,0,0-.15.21q.15.26.36.15C112.86,11.42,112.78,11.3,112.57,11.23Zm.65-5.55a4.14,4.14,0,0,1-.22-.39.29.29,0,0,1-.16.09.26.26,0,0,0-.16.09c.09.09.24.21.43.36,0,0,0,0,0,0s0,0,0,0S113.19,5.71,113.22,5.68Zm-.33,2.81h-.07a.43.43,0,0,0,0,.22h.07A.43.43,0,0,1,112.89,8.49Z"/><path class="cls-1" d="M120.13,13.5v6a3,3,0,0,1,0,.54,4.63,4.63,0,0,0,0,.54c0,.05,0,.29,0,.72s0,.9,0,1.41,0,1,0,1.4,0,.67,0,.72h1.47a6.8,6.8,0,0,1,0,.76V27.9a1.86,1.86,0,0,1-.36,0h-3a1,1,0,0,1-.4-.07.53.53,0,0,0-.39,0,4.05,4.05,0,0,1-1.1.07,5.76,5.76,0,0,0-1.1,0,3.78,3.78,0,0,1,0-.54c0-.27,0-.56,0-.88v-1a6.57,6.57,0,0,1,0-.72h1.48V20.34c0-1.08,0-2.15,0-3.21s0-2.12,0-3.2a1.35,1.35,0,0,0-.5-1l-.51-.43-.54-.47.63-.68c.21-.22.4-.42.6-.61a1,1,0,0,0,.32-.65V4.21h-1.44a3.78,3.78,0,0,1,0-.54c0-.27,0-.56,0-.88v-1a5.43,5.43,0,0,1,0-.68h6.3v3h-1.43v6a2.21,2.21,0,0,0,.57.83,4.77,4.77,0,0,1,.45.45l.41.49a2.24,2.24,0,0,1-.75.75A2,2,0,0,0,120.13,13.5ZM116,27.21a0,0,0,0,0,0,0v.07Zm.11-25.34-.07,0a.69.69,0,0,0,0,.25h0Zm.68,10.19h0v0A0,0,0,0,0,116.74,12.06Zm.15-.36c0,.19.09.26.29.21,0,0,0,0,0,0h0a.32.32,0,0,0-.22-.36.35.35,0,0,1-.07.09A.17.17,0,0,0,116.89,11.7Zm1,14.36a.1.1,0,0,1,.07,0q-.07-.32-.15-.75l-.14-.09a.86.86,0,0,1-.14-.13l-.22.25-.25.26a1.67,1.67,0,0,1,0,.39.24.24,0,0,1,0,.11.24.24,0,0,0,0,.11.53.53,0,0,1,.64-.29A.86.86,0,0,1,117.9,26.06Zm-.54,1,.28,0a.34.34,0,0,0,.22-.05.71.71,0,0,1,0-.29c0-.1,0-.17-.14-.22l-.17.07-.19.11Zm.5-13.25a.85.85,0,0,1-.25.09c-.07,0-.12.08-.15.2C117.7,14.14,117.84,14.05,117.86,13.78Zm-.32,2.34,0,0v.07A0,0,0,0,0,117.54,16.12Zm0,3.06.11.65A1.38,1.38,0,0,1,118,20a.86.86,0,0,1,.18-.2,1,1,0,0,0,.18-.16,1.08,1.08,0,0,0-.27-.27A2.69,2.69,0,0,0,117.57,19.18Zm.22-4.71h0v0h0Zm.54,2.48c.07-.19,0-.31-.25-.36l-.22.22c0,.12.11.18.2.18A.93.93,0,0,0,118.33,17ZM118,7.45c-.07.07-.1.12-.1.14s.06.07.18.15a.28.28,0,0,1,0-.15A.25.25,0,0,0,118,7.45Zm1.45,10.29a.53.53,0,0,1-.26-.16.39.39,0,0,0-.25-.12.44.44,0,0,1-.27-.09l-.23-.17-.47.11a3.25,3.25,0,0,1,0,.33,2.64,2.64,0,0,0,0,.28.85.85,0,0,1,.09.27.72.72,0,0,0,.09.27h.58a1.09,1.09,0,0,0,.22-.18c.07-.07.16,0,.28.08a2.16,2.16,0,0,0,.2-.36Zm-1.23,7.31V25a.23.23,0,0,0-.14,0v0Zm.25-.32a1.86,1.86,0,0,0,.36.09.81.81,0,0,1,.29.09.19.19,0,0,0,.07.14h.26v-6.3a1.63,1.63,0,0,0-.37.33l-.19-.15-.17-.14-.28.29a.3.3,0,0,1,.07.41.36.36,0,0,0,0,.41l-.18.06-.14.05a.31.31,0,0,0,0,.18,1,1,0,0,1,.35.2.89.89,0,0,1,.19.31,2.91,2.91,0,0,0,0,.66c0,.42,0,.87,0,1.35s-.05.93-.08,1.35A2.45,2.45,0,0,1,118.47,24.73ZM118.18,19s0,0,0,0v0l0,0ZM118.29,7v.07l0,0S118.32,7,118.29,7Zm.15,7.27a2.34,2.34,0,0,0,0-.39.46.46,0,0,0-.07.18A.65.65,0,0,0,118.44,14.25Zm0,12.75.31.05.23,0a.54.54,0,0,0,.11.18h.65a.45.45,0,0,1,.14-.11.48.48,0,0,0,.15-.11.31.31,0,0,0,.21.11,1.81,1.81,0,0,1,.16-.25l.17-.22c0-.12-.09-.22-.13-.3l-.13-.31-.14-.14-.14.39c-.12-.12-.25-.23-.38-.34a.57.57,0,0,0-.52-.09l-.15.22a1.86,1.86,0,0,0-.14.25.55.55,0,0,1-.22,0c-.07,0-.13,0-.18.16Zm.15-11.63a2.75,2.75,0,0,1,0,.38,2.23,2.23,0,0,0,0,.34.93.93,0,0,0,.18-.16c0-.06.09-.12.14-.17a2.21,2.21,0,0,0,.4.08c0-.12,0-.23-.06-.33s0-.19,0-.29a.26.26,0,0,0-.23-.12l-.31,0a.28.28,0,0,0-.09.14A.23.23,0,0,1,118.62,15.37Zm.93-2.31a.25.25,0,0,0-.39.15.24.24,0,0,1,.07.18c0,.07.06.11.18.11A2.29,2.29,0,0,1,119.55,13.06Zm-.21-1.83-.08.07,0,.07A.21.21,0,0,0,119.34,11.23Zm.25,14.15c-.07.12,0,.18.14.18A.63.63,0,0,0,119.59,25.38Zm1.4,1.87V26.17h0l-.22,1.08Z"/><path class="cls-1" d="M122.58,12l.63-.7c.2-.23.4-.44.59-.63a1.11,1.11,0,0,0,.29-.8c0-.26,0-.51,0-.75a5.77,5.77,0,0,0,0-.72,5.57,5.57,0,0,1,0-1.08q0-.54.12-1.08a10.28,10.28,0,0,1,.8-3.06A4.7,4.7,0,0,1,125.76,2a3.41,3.41,0,0,1,1.14-.85,3.67,3.67,0,0,1,1.65-.39,6,6,0,0,1,1,.09,3.27,3.27,0,0,1,1,.37,5,5,0,0,1,1.22,1.13V1.11h2.3s0,0,0,0,0,0,0,0v7h-2.56a5.58,5.58,0,0,1,0-.7,3.49,3.49,0,0,0-.07-.71,8.85,8.85,0,0,0-.2-1,3.46,3.46,0,0,0-.41-1A1.63,1.63,0,0,0,129.71,4a1.46,1.46,0,0,0-.67.07,2.69,2.69,0,0,0-.59.29,1.08,1.08,0,0,0-.51.5,5.13,5.13,0,0,0-.25.69,3,3,0,0,0-.22,1.18c0,.2,0,.4,0,.62a1.56,1.56,0,0,1-.09.61.56.56,0,0,1,.07.54,1.09,1.09,0,0,0-.07.54,2.11,2.11,0,0,1,.07.54v.53a.77.77,0,0,0,.25.51c.2.24.4.46.62.68s.42.43.61.65l-.58.55c-.19.18-.38.36-.57.52a.94.94,0,0,0-.33.79v.47a1.62,1.62,0,0,1-.07.47.73.73,0,0,0,0,.36,1.12,1.12,0,0,1,0,.36c0,.55,0,1.1,0,1.65s0,1.1,0,1.65a5.54,5.54,0,0,0,.16.95,3.22,3.22,0,0,0,.42.88,1.53,1.53,0,0,0,.72.54,4.16,4.16,0,0,0,.63.16,1.43,1.43,0,0,0,.67,0,2.11,2.11,0,0,0,.86-.52,2.4,2.4,0,0,0,.5-.81,5.36,5.36,0,0,0,.29-1.69,6.14,6.14,0,0,0,0-.86c0-.29,0-.57,0-.86h2.77a.92.92,0,0,1,0,.29v1.54a7.36,7.36,0,0,1-.15,1.51,9.62,9.62,0,0,1-.39,1.44,5.55,5.55,0,0,1-.61,1.33,4.44,4.44,0,0,1-1,1.07,4.39,4.39,0,0,1-1.76.83,1.65,1.65,0,0,1-.58.05,1.91,1.91,0,0,0-.58.06.17.17,0,0,1-.18,0l-.21,0-.13,0-.13,0a3.58,3.58,0,0,1-1.51-.31A5,5,0,0,1,126,23.5a4.41,4.41,0,0,1-.45-.52c-.13-.18-.25-.36-.37-.56a3.9,3.9,0,0,1-.54-1.15c-.13-.41-.25-.81-.37-1.22a2.14,2.14,0,0,1-.07-.49,4.12,4.12,0,0,0,0-.48,14.13,14.13,0,0,1-.13-2.51c0-.82,0-1.66,0-2.5a1.4,1.4,0,0,0-.43-1.08,5.65,5.65,0,0,1-.94-.83A.59.59,0,0,1,122.58,12Zm2,1s0,0,0,0v0l0,0Zm1.22-.93h0Zm.9-3a0,0,0,0,0,0,0v.07Zm1.59,12.71v0h0v0Zm.07.76v.32a.32.32,0,0,0,.43-.11c.07-.11,0-.24-.18-.36a.36.36,0,0,1-.12.09Zm2.12.61a1,1,0,0,0-.28-.25l-.37.21v.47a.58.58,0,0,0,.13.11l.13.11a.46.46,0,0,1,.19-.09.32.32,0,0,0,.17-.09.11.11,0,0,1,0-.06s0,0,0-.05Zm-.11-20.47-.17.09-.15.05a1.21,1.21,0,0,0,.27.22.19.19,0,0,0,.2-.08.61.61,0,0,1-.07-.14C130.47,2.8,130.45,2.75,130.42,2.71Zm1.77,3.55a2,2,0,0,1,0,.34,2.09,2.09,0,0,0,0,.34.61.61,0,0,0,.24,0,.36.36,0,0,1,.19,0c0-.12,0-.24-.05-.35a2.45,2.45,0,0,0-.06-.34.4.4,0,0,0-.17,0A.54.54,0,0,1,132.19,6.26Zm1.44,12.31a.57.57,0,0,1-.47-.11,1.33,1.33,0,0,0-.43-.21c0-.05,0-.07.05-.07s0,0,0-.08a1.08,1.08,0,0,1-.32-.14,3.16,3.16,0,0,0-.07,1.51h.46a2.62,2.62,0,0,1,.29.45,2.4,2.4,0,0,1,.14.6,1.65,1.65,0,0,1,0-.27,1.44,1.44,0,0,0,0-.24l.2-.14.2-.15a3.28,3.28,0,0,0-.15-.36c-.07.05-.15.13-.25.22-.22-.12-.32-.26-.32-.43a.08.08,0,0,0-.06-.09.29.29,0,0,1-.12-.09,1.79,1.79,0,0,0,.07-.29,3.54,3.54,0,0,0,.39.14,1,1,0,0,1,.17-.12l.16-.13a.1.1,0,0,0,.07,0h.11s0-.05,0-.08a.19.19,0,0,1-.07.06ZM133,4.17l-.22,0-.21,0c-.17.17-.18.3,0,.39a.35.35,0,0,0,.36,0c.12,0,.18-.08.18-.16A.84.84,0,0,0,133,4.17Zm-.18,15.55v0h-.36v0Zm0-.75q0,.18-.18,0Zm.14-1.19a1.48,1.48,0,0,0,0,.36h.35v-.36Zm.47-13.23a.29.29,0,0,1,0-.16.47.47,0,0,0,0-.17h0v.66a1.17,1.17,0,0,1,.25.14V4.66A.45.45,0,0,0,133.45,4.55Zm0,14.71.07-.08-.07-.07Z"/><path class="cls-1" d="M137.41,4.17h-1.55v-3h0l0,0h6.12a2.1,2.1,0,0,1,0,.52V3.42a5.11,5.11,0,0,1,0,.75h-1.33v7.6Q141.88,9.87,143,8c.72-1.26,1.45-2.52,2.2-3.8h-1.62V1.26s0-.08.11-.15h5.72a.93.93,0,0,0,.23,0c.09,0,.17,0,.24.17V4.17H148.5q-1.16,2-2.27,3.92c-.75,1.29-1.5,2.6-2.27,3.91q1.15,2.31,2.32,4.57c.78,1.51,1.57,3,2.36,4.52h1.12l.14.15a.93.93,0,0,0,0,.55.66.66,0,0,1-.06.54.21.21,0,0,0,0,.17.29.29,0,0,1,.06.16v1.2l-.11.33H143.6V21.13a.54.54,0,0,1,.32,0,.62.62,0,0,0,.33,0H145q-1.08-2.16-2.14-4.32t-2.14-4.39v8.71H142a3.81,3.81,0,0,1,0,.55c0,.27,0,.56,0,.89v1a4,4,0,0,1,0,.69h-6.19V21.13h1.44V13.55a1.93,1.93,0,0,0-.68-.86,2.18,2.18,0,0,1-.4-.34c-.12-.14-.24-.27-.36-.42l.36-.39.36-.43c.12-.12.25-.25.38-.4l.38-.43V6.85a.86.86,0,0,1,.07-.34.2.2,0,0,0,0-.18.35.35,0,0,1,0-.18V4.42A1.44,1.44,0,0,1,137.41,4.17Zm.11,7.2s0,0,0,0v.07ZM139.06,8h0l.07,0S139.09,8,139.06,8Zm.65,2.12-.07-.07-.07.07Zm.22-.93a.11.11,0,0,1,.07,0l0,0Zm.5-6.41h.07a.17.17,0,0,0,0-.07.12.12,0,0,1,0-.08h0Zm.76.39v0H141V3.2a.12.12,0,0,0,.08,0Zm1,8.86a.62.62,0,0,0,.18.07l.2-.25a1.77,1.77,0,0,0,.16-.22,1.33,1.33,0,0,0-.76-.46,4.09,4.09,0,0,0-.54,1A.74.74,0,0,0,142.16,12Zm2.12,3q.18-.15.18-.27a.54.54,0,0,0-.07-.27,5.42,5.42,0,0,1-.32-.69,2.23,2.23,0,0,0-.4-.64s-.07-.09-.07-.18a.39.39,0,0,0-.13-.33,1.27,1.27,0,0,0-.27-.18.41.41,0,0,1,0-.16.29.29,0,0,0,0-.16.65.65,0,0,0,0-.2,1.27,1.27,0,0,1,0-.2.78.78,0,0,0,0-.14,1.29,1.29,0,0,1,0-.25c-.05.21-.08.39-.11.52s0,.26-.07.38-.23.23-.34.32l-.34.32a3,3,0,0,1-.44-.07c.22.48.44.94.65,1.37s.42.86.61,1.3A1.13,1.13,0,0,0,144,15Zm-.79,1.26a.31.31,0,0,0,0,.11.19.19,0,0,1,0,.07.09.09,0,0,0,.07,0l-.11-.11a1.67,1.67,0,0,1,0-.39,1.61,1.61,0,0,0-.09.25C143.35,16.21,143.4,16.25,143.49,16.27Zm.94-6.55a.88.88,0,0,0-.33-.08h-.28a1,1,0,0,0-.13.26,1,1,0,0,0,0,.32.38.38,0,0,0,.43.11l.14-.31A2.09,2.09,0,0,0,144.43,9.72Zm-.15-2a1.85,1.85,0,0,1-.14.14L144,8l.25.26c.14-.12.21-.21.21-.26A.71.71,0,0,0,144.28,7.74Zm.36,10.9,0,0a0,0,0,0,1,0,0,.13.13,0,0,0,0,.07Zm.11-3.27c-.07.09-.09.16-.05.2l.12.12.15-.14-.11-.09Zm0,1.44s0,0,0,0,0,0,0,0a.11.11,0,0,0,.07,0,0,0,0,0,1,0,0l0,.07S144.75,16.81,144.73,16.81ZM145,19a.34.34,0,0,0,.14.54,1.38,1.38,0,0,1-.09-.27C145,19.18,145,19.09,145,19Zm.36-2.67h0v.18h0Zm0,1.3v0l0,0V17.6Zm.72,1.22a1.08,1.08,0,0,0-.27.15l-.16.11v.36a.5.5,0,0,0,.13.1l.12.11a.57.57,0,0,0,.54-.43l-.18-.18A1.24,1.24,0,0,1,146,18.82Zm-.29-1.58h0l0,0s0,0,0,0Zm1,3.53h-.4l-.13.12-.12.13a.86.86,0,0,1,0,.27c0,.09,0,.16.16.23h.39a.94.94,0,0,0,.24-.34A.89.89,0,0,0,146.7,20.77ZM146.23,3s0,0,0,0h0Zm0,3V6l0,0,0,0Zm1.08,14.43,0,0,0,0s0,0,0,0S147.31,20.42,147.31,20.44Z"/><path class="cls-1" d="M156.09,13.5v6a4.39,4.39,0,0,1,0,.54,3.12,3.12,0,0,0,0,.54c0,.05,0,.29,0,.72s0,.9,0,1.41,0,1,0,1.4,0,.67,0,.72h1.48c0,.27,0,.52,0,.76V27.9a1.73,1.73,0,0,1-.36,0h-3a1,1,0,0,1-.39-.07.55.55,0,0,0-.4,0,4.05,4.05,0,0,1-1.1.07,5.76,5.76,0,0,0-1.1,0,3.78,3.78,0,0,1-.05-.54c0-.27,0-.56,0-.88v-1a4.51,4.51,0,0,1,0-.72h1.47V20.34c0-1.08,0-2.15,0-3.21s0-2.12,0-3.2a1.32,1.32,0,0,0-.5-1c-.17-.14-.34-.28-.5-.43L151.2,12l.63-.68c.2-.22.4-.42.59-.61a.92.92,0,0,0,.32-.65V4.21H151.3a3.78,3.78,0,0,1-.05-.54c0-.27,0-.56,0-.88v-1a3.75,3.75,0,0,1,0-.68h6.3v3h-1.44v6a2.33,2.33,0,0,0,.57.83,4.77,4.77,0,0,1,.45.45l.42.49a2.27,2.27,0,0,1-.76.75A2,2,0,0,0,156.09,13.5Zm-4.17,13.71s0,0,0,0v.07ZM152,1.87l-.07,0a.49.49,0,0,0,0,.25h0Zm.69,10.19h0v0S152.71,12.08,152.71,12.06Zm.14-.36c0,.19.1.26.29.21,0,0,0,0,0,0h0a.31.31,0,0,0-.21-.36.36.36,0,0,1-.08.09A.25.25,0,0,0,152.85,11.7Zm1,14.36a.13.13,0,0,1,.07,0c-.05-.21-.09-.46-.14-.75l-.15-.09-.14-.13a1.36,1.36,0,0,1-.22.25l-.25.26a1.17,1.17,0,0,1,0,.39.36.36,0,0,1,0,.11.51.51,0,0,0,0,.11.55.55,0,0,1,.65-.29A.62.62,0,0,1,153.86,26.06Zm-.54,1,.29,0a.33.33,0,0,0,.21-.05.71.71,0,0,1,0-.29c0-.1,0-.17-.14-.22l-.16.07a1.36,1.36,0,0,0-.2.11Zm.5-13.25a.76.76,0,0,1-.25.09c-.07,0-.12.08-.14.2C153.67,14.14,153.8,14.05,153.82,13.78Zm-.32,2.34,0,0v.07S153.5,16.15,153.5,16.12Zm0,3.06.1.65A1.3,1.3,0,0,1,154,20a.86.86,0,0,1,.18-.2l.18-.16a1.08,1.08,0,0,0-.27-.27A3,3,0,0,0,153.54,19.18Zm.21-4.71h0v0h0Zm.54,2.48c.07-.19,0-.31-.25-.36l-.22.22c.05.12.12.18.2.18A.84.84,0,0,0,154.29,17ZM154,7.45c-.07.07-.11.12-.11.14s.06.07.18.15a.42.42,0,0,1,0-.15A.35.35,0,0,0,154,7.45Zm1.44,10.29a.49.49,0,0,1-.25-.16.42.42,0,0,0-.26-.12.48.48,0,0,1-.27-.09l-.23-.17-.47.11a1.72,1.72,0,0,1,0,.33,2.62,2.62,0,0,0,0,.28,2.13,2.13,0,0,1,.09.27.72.72,0,0,0,.09.27h.57a.87.87,0,0,0,.22-.18c.07-.07.17,0,.29.08a1.8,1.8,0,0,0,.19-.36C155.37,18,155.38,17.87,155.41,17.74Zm-1.23,7.31V25a.27.27,0,0,0-.14,0v0Zm.26-.32a1.57,1.57,0,0,0,.36.09.76.76,0,0,1,.28.09.21.21,0,0,0,.08.14h.25v-6.3a1.76,1.76,0,0,0-.36.33l-.2-.15-.16-.14-.29.29c.14.14.17.28.07.41a.36.36,0,0,0,0,.41l-.18.06-.15.05c0,.1,0,.16,0,.18a.93.93,0,0,1,.34.2,1.1,1.1,0,0,1,.2.31,2.54,2.54,0,0,0-.06.66c0,.42,0,.87,0,1.35s-.05.93-.07,1.35A4,4,0,0,1,154.44,24.73ZM154.15,19s0,0,0,0v0l0,0ZM154.26,7v.07l0,0S154.28,7,154.26,7Zm.14,7.27a1.61,1.61,0,0,0,0-.39.74.74,0,0,0-.07.18A1,1,0,0,0,154.4,14.25Zm0,12.75.3.05.24,0a.52.52,0,0,0,.1.18h.65a.48.48,0,0,1,.15-.11A.6.6,0,0,0,156,27a.31.31,0,0,0,.22.11.89.89,0,0,1,.16-.25c.06-.07.11-.15.16-.22s-.09-.22-.13-.3-.07-.19-.12-.31l-.15-.14a3.54,3.54,0,0,1-.14.39c-.12-.12-.25-.23-.38-.34a.57.57,0,0,0-.52-.09,1.64,1.64,0,0,0-.14.22,1.83,1.83,0,0,0-.15.25.5.5,0,0,1-.21,0c-.08,0-.14,0-.18.16Zm.14-11.63a2.9,2.9,0,0,1,0,.38,2.14,2.14,0,0,0,0,.34.93.93,0,0,0,.18-.16l.15-.17a2,2,0,0,0,.39.08c0-.12,0-.23-.05-.33a1.67,1.67,0,0,0-.06-.29.26.26,0,0,0-.23-.12l-.31,0a.55.55,0,0,0-.09.14A.23.23,0,0,1,154.58,15.37Zm.94-2.31c-.2-.09-.33,0-.4.15a.24.24,0,0,1,.07.18c0,.07.06.11.18.11A2.19,2.19,0,0,1,155.52,13.06Zm-.22-1.83-.07.07,0,.07S155.3,11.3,155.3,11.23Zm.25,14.15q-.11.18.15.18A1,1,0,0,0,155.55,25.38ZM157,27.25V26.17h0l-.22,1.08Z"/><path class="cls-1" d="M172.8,1.15l.07.07,0,.07V4.17a2.87,2.87,0,0,1-.77,0,5,5,0,0,0-.77,0,1,1,0,0,1,0,.16,1,1,0,0,0,0,.16v5.1a1.38,1.38,0,0,0,.4,1l1,1.08.14.22-.56.54c-.18.16-.36.34-.55.54a1.2,1.2,0,0,0-.4.89V21a.13.13,0,0,1,0,.07h1.47c.12.08.18.16.18.26v.25a1.69,1.69,0,0,0,0,.53c0,.16,0,.32,0,.49a3,3,0,0,1,0,.6c0,.21,0,.41,0,.6V24a.35.35,0,0,0,0,.08l-.06.07h-4.39l-2.63-8.25c-.86-2.71-1.74-5.44-2.62-8.2a6.36,6.36,0,0,0,0,1.08c0,.64,0,1.44,0,2.39s0,2,0,3.08V17.4c0,1,0,1.8,0,2.49s0,1.08,0,1.2h1.33v3.1h-5.69V21.13h1.55v-6.9a2.15,2.15,0,0,0-.11-.73,1.19,1.19,0,0,0-.43-.6,4.42,4.42,0,0,1-.47-.39,4,4,0,0,0-.43-.4.11.11,0,0,1,0-.07.13.13,0,0,0,0-.07.56.56,0,0,1,.11-.18c.19-.19.38-.4.56-.61a8.18,8.18,0,0,1,.55-.61.87.87,0,0,0,.29-.65V4.21h-1.55V1.15h4.9c.24.72.47,1.44.7,2.18s.46,1.45.7,2.17.37,1.16.53,1.73.33,1.15.52,1.73.38,1.16.56,1.75.36,1.17.55,1.74.38,1.15.54,1.71.34,1.13.51,1.68a2.29,2.29,0,0,1,.12.37c0,.14.08.29.13.45V4.21h-1.44V1.15Zm-10.8.9a1.48,1.48,0,0,0,0,.21.86.86,0,0,1,0,.22.9.9,0,0,0,.36,0c.05,0,.09-.08.11-.18a.33.33,0,0,0-.22-.36l-.14.08A.61.61,0,0,0,162,2.05Zm.1,1.55a1.36,1.36,0,0,0,.36,0c.15-.05.18-.14.11-.29s-.06-.11-.18-.18-.21,0-.29.18Zm1-1.23a.47.47,0,0,0,.15.06.73.73,0,0,1,.18.09,4.41,4.41,0,0,0-.26-.69.5.5,0,0,0-.09.29A1,1,0,0,1,163.11,2.37Zm.94,2.05a1.45,1.45,0,0,1-.13-.41.49.49,0,0,0-.16-.31c-.12.1-.17.19-.16.27a1.15,1.15,0,0,1,0,.31Zm.43,3.6,0,0h0a0,0,0,0,0,0,0Zm5.36-3.85c-.07.07-.09.11-.07.11a.06.06,0,0,0,.07.07s.08,0,.08-.07S169.89,4.22,169.84,4.17Zm.74,5.44.06,0Z"/><path class="cls-1" d="M180.25,0a41.44,41.44,0,0,1-3.39,8.53l-2,.25A51.27,51.27,0,0,0,177,.32Z"/><path class="cls-1" d="M200.05,27.82h-6.3a4.76,4.76,0,0,1,0-.75c0-.24,0-.49,0-.76a4.76,4.76,0,0,1,0-.75c0-.24,0-.5,0-.76a2.49,2.49,0,0,1,.72,0,2.39,2.39,0,0,0,.75,0V15.22a2.69,2.69,0,0,0-.18-1,5.08,5.08,0,0,0-.47-.93.29.29,0,0,0-.21-.18l-.79-.58-.83-.58c.14-.23.27-.47.39-.7s.24-.43.36-.63a1.67,1.67,0,0,0,0-1c-.09-.3-.19-.59-.28-.88l-.51-1.51-.5-1.51c-.1-.27-.18-.53-.25-.78s-.15-.51-.22-.77h-1.12a3.83,3.83,0,0,1-.05-.56c0-.27,0-.58,0-.9s0-.63,0-.94,0-.52.05-.66h5.69v3H195a.35.35,0,0,1,0,.2.29.29,0,0,0,0,.16c.12.39.24.76.34,1.12s.23.72.35,1.08.28,1,.43,1.51.3,1,.47,1.51c.07.27.14.52.21.78s.15.51.22.77h.11c.4-1.18.8-2.34,1.18-3.51s.78-2.36,1.19-3.58a5.3,5.3,0,0,0-.68,0,3.53,3.53,0,0,1-.65,0v-3h5.44v3h-1.08l-.35,1c-.1.32-.22.63-.34.94-.21.55-.42,1.12-.63,1.69s-.41,1.14-.63,1.69a2.8,2.8,0,0,0-.16.76,1.2,1.2,0,0,0,.23.72,1.8,1.8,0,0,0,.17.31,1.39,1.39,0,0,1,.16.3.54.54,0,0,1,.11.18,1.07,1.07,0,0,0,.1.22,2.38,2.38,0,0,1-.36.3l-.36.27-.46.35a4,4,0,0,1-.51.3.75.75,0,0,0-.32.29,2.1,2.1,0,0,0-.18.4c-.07.16-.13.33-.18.48s-.11.32-.18.49a1,1,0,0,0-.07.43v9.47h1.44ZM193.57,4.6v0h.14v0Zm2.05-2.73,0,0s0,0,0,0l0,0S195.59,1.87,195.62,1.87Zm.68,24.62a0,0,0,0,0,0,0s0,0,0,0l0,0Zm.15-.07s0,0,0,0,0,0,0,0l-.07-.14a.08.08,0,0,0-.06,0l0,0a.18.18,0,0,1,0,.07A.19.19,0,0,0,196.45,26.42Zm1-14.29h-.29a.24.24,0,0,1,0,.12.35.35,0,0,0,0,.13.58.58,0,0,0,.11-.13l.11-.12s0,0,0,0,0,0,0,0S197.51,12.1,197.49,12.13Zm-.11,5h0s0,0,0,0h.07Zm.18-.18h0Zm4.29-15a.1.1,0,0,0-.08,0s0,0,0,0,0,0,0,.05h.1A.94.94,0,0,0,201.85,1.94Z"/><path class="cls-1" d="M204.51,12c.19-.24.38-.47.58-.69l.57-.61a1.18,1.18,0,0,0,.36-.86c0-.55,0-1.09,0-1.6s0-1,0-1.57a9.28,9.28,0,0,1,.29-2,6.52,6.52,0,0,1,.8-1.82A4,4,0,0,1,209.42,1a6.87,6.87,0,0,1,2.67-.28,6.13,6.13,0,0,1,1.27.28,4.59,4.59,0,0,1,1.15.62l.63.57a2.81,2.81,0,0,1,.53.69,7.25,7.25,0,0,1,.48,1,5.78,5.78,0,0,1,.31,1.1c.1.55.17,1.09.22,1.62a7.08,7.08,0,0,1,.07,1V8.71a2,2,0,0,1-.07.47v.18a.52.52,0,0,1,.09.32,3,3,0,0,0,0,.32.89.89,0,0,0,.29.65c.19.22.39.43.59.65l.63.68-1,.87a1.45,1.45,0,0,0-.43.47,1.06,1.06,0,0,0-.11.64,2.46,2.46,0,0,1,0,.4,1,1,0,0,1-.11.43v.15a4.59,4.59,0,0,1,.11,1.22c0,.41,0,.82,0,1.22a18.21,18.21,0,0,1-.11,1.95,10.26,10.26,0,0,1-.25,1.47,6.21,6.21,0,0,1-.54,1.41,4.83,4.83,0,0,1-1,1.33,4.19,4.19,0,0,1-1.48.83l-.69.2a1.7,1.7,0,0,1-.68.05.93.93,0,0,0-.31,0,.61.61,0,0,1-.27,0,9.69,9.69,0,0,1-1.63-.22,4.06,4.06,0,0,1-1.48-.68,3.83,3.83,0,0,1-.68-.65c-.2-.24-.39-.49-.58-.76a3.92,3.92,0,0,1-.49-1.06c-.11-.37-.21-.75-.31-1.13s-.09-.58-.14-.87a3.55,3.55,0,0,1,0-.86V14a1.27,1.27,0,0,0-.54-1.08,3.55,3.55,0,0,1-.47-.4,5.22,5.22,0,0,0-.43-.39.16.16,0,0,1,0-.09A.13.13,0,0,0,204.51,12Zm1.08-.11h-.07a.39.39,0,0,1,0,.14h0Zm2-.11-.09-.21a.48.48,0,0,0-.17-.11,3.94,3.94,0,0,1-.48-.18,4.09,4.09,0,0,0-.49-.18h-.14l-.18.18c0,.12,0,.22-.06.3a1.72,1.72,0,0,0,0,.2c0,.12.07.23.09.31a.85.85,0,0,0,.09.27h.57a1.74,1.74,0,0,0,.22-.18c.07-.07.17-.05.29.07a.64.64,0,0,1,.18-.25A1.74,1.74,0,0,0,207.61,11.73Zm-.94,3.93a1,1,0,0,0,.11-.24,2.34,2.34,0,0,1,.11-.3.37.37,0,0,0,.5.1c.14,0,.2.12.18.2a.19.19,0,0,0,0,.2.84.84,0,0,0,.54-.09,1,1,0,0,1,.54-.09V13.28a.63.63,0,0,1-.18-.14.29.29,0,0,1,.12-.09.15.15,0,0,0,.09-.06,2.05,2.05,0,0,1-.29-.47.35.35,0,0,1-.14.06l-.18.05a.69.69,0,0,0-.09-.45.32.32,0,0,1,0-.41.24.24,0,0,1-.07-.13.33.33,0,0,0-.07-.16,2.72,2.72,0,0,0-.09.49,1.6,1.6,0,0,1-.09.41l-.27.14-.27.15c0,.1,0,.16,0,.18l-.32.11-.29.07c0,.12,0,.22.06.3a2.09,2.09,0,0,1,0,.24l.15.07a.94.94,0,0,1-.18.25,1.44,1.44,0,0,1,.05.24.86.86,0,0,0,.06.23.53.53,0,0,0,0,.13s0,.07,0,.12a.67.67,0,0,0-.09.51A3,3,0,0,1,206.67,15.66Zm.83-5.91a.69.69,0,0,1-.09-.41.52.52,0,0,0-.16-.42h-.51a.3.3,0,0,1,0-.12.38.38,0,0,0,0-.13h0a6,6,0,0,1,.06.61c0,.22,0,.44.05.65l.2-.14.16-.15Zm-.87,6.73v.69H207l.12-.13.13-.12a.37.37,0,0,0-.09-.27l-.16-.17Zm.72,1.52a.56.56,0,0,0-.54.14v.76l.51.25a.37.37,0,0,1,.27-.11c.11,0,.17-.07.2-.22s-.09-.28-.13-.43A.74.74,0,0,0,207.35,18Zm.33,2.59-.34-.13-.35-.12.13.52a.71.71,0,0,0,.31.41.85.85,0,0,1,.21-.32A.28.28,0,0,0,207.68,20.59ZM207.17,15v0l0,0a0,0,0,0,1,0,0Zm.18-7.7a1.12,1.12,0,0,0,.29,0,2.06,2.06,0,0,0,.22.25s.06,0,.18,0l-.13-.11a.48.48,0,0,1-.12-.1V6.91l-.15-.07-.18-.08a.66.66,0,0,0-.12.17.89.89,0,0,0-.09.16A2.16,2.16,0,0,0,207.35,7.34Zm.08,8.57a1.49,1.49,0,0,1,0,.21c0,.08,0,.14,0,.18s.15.18.23.18a.88.88,0,0,0,.24,0l.12-.25a.37.37,0,0,0,0-.29ZM208.8,22l-.33-.33a.19.19,0,0,1-.14.07l-.08,0a.92.92,0,0,1-.09-.69,1.47,1.47,0,0,0,0-.75c-.05.24-.1.47-.15.68s-.09.42-.14.61a.57.57,0,0,1-.22,0c0,.05,0,.09-.07.13l-.07.12a3.4,3.4,0,0,0,1.22,1.42,4.55,4.55,0,0,0,1.66.63,3.1,3.1,0,0,1-.14-.43.27.27,0,0,1-.14,0l-.15,0a.77.77,0,0,0,.11-.19.81.81,0,0,1,.11-.2l.47.11A2.69,2.69,0,0,1,211,23l-.22-.11V22.5c-.19-.17-.3-.26-.34-.26s-.11.06-.23.18a.4.4,0,0,1,0,.15.68.68,0,0,0,0,.21c-.17-.11-.32-.22-.45-.32a3.9,3.9,0,0,1-.42-.32h-.36l-.11.18h-.25A2.76,2.76,0,0,1,208.8,22ZM207.64,4.17a.09.09,0,0,0,0-.07s0,0,0,0,0,0,0,0Zm.33,7c-.05.05-.06.07,0,.07a.11.11,0,0,0,0,.06.08.08,0,0,1,0,.05Zm.14-3.49c.24.1.4,0,.47-.15s-.08-.18-.16-.19a.37.37,0,0,1-.2-.09,1,1,0,0,1,0-.33s0,0,0,0,0,0,0,0Zm.11,8.21a3.28,3.28,0,0,0,0,.52.55.55,0,0,0,.18.41,1.37,1.37,0,0,0,.33,0v-.22a2.14,2.14,0,0,1-.24-.34A2.92,2.92,0,0,0,208.22,15.84Zm.14-11.67s0,.07-.07.07l.25.15a.09.09,0,0,0,0-.07.35.35,0,0,1-.11-.08Zm.22,6.81,0,0,0,0,.07,0Zm0-.65h0V9.86h0Zm3.28,1.58c.05-.05.08-.07.11-.07a.09.09,0,0,0,.07,0l.49-.57.48-.58a1.09,1.09,0,0,0,.29-.43,1.51,1.51,0,0,0,.07-.5,20.69,20.69,0,0,1,0-2.49,6.62,6.62,0,0,0-.22-1.73,3,3,0,0,0-.32-.79,1.36,1.36,0,0,0-.69-.54,2.61,2.61,0,0,0-.6-.14,2.2,2.2,0,0,0-.67,0,1.71,1.71,0,0,0-1,.65,1.6,1.6,0,0,0-.35.67c-.06.25-.11.51-.16.77A13.19,13.19,0,0,0,209.3,8V9.72a1.11,1.11,0,0,0,.36.93l1.19,1.3c-.2.19-.39.38-.6.56s-.4.36-.59.55a1.1,1.1,0,0,0-.36.9c0,.87,0,1.73,0,2.6a21.6,21.6,0,0,0,.07,2.55,6.78,6.78,0,0,0,.4,1.33,1.59,1.59,0,0,0,.8.76,1.66,1.66,0,0,0,.38.11l.38,0a2,2,0,0,0,1.2-.39,2.14,2.14,0,0,0,.65-1,5.38,5.38,0,0,0,.22-1.55q-.08-2.16,0-4.35a1.37,1.37,0,0,0-.43-1l-.54-.56Zm-1.12,11.7a.42.42,0,0,1,0,.22c0,.07.07.12.24.14A3.44,3.44,0,0,1,210.77,23.61Zm1.77-.18a.46.46,0,0,0-.22-.5h-.39a.7.7,0,0,0,0,.9,2.47,2.47,0,0,1,.36-.11C212.41,23.7,212.49,23.6,212.54,23.43Zm.25-.36v0h.14v0Zm0-11.16.19.2.2.23a2.18,2.18,0,0,0,.15-.36l-.26-.12C213,11.82,213,11.84,212.83,11.91ZM213,22.6a0,0,0,0,0,0,0h0l0,0Zm.25.62s0-.08,0-.08a.21.21,0,0,0-.14,0v0Zm.07-1.73h.07a1.71,1.71,0,0,1,0-.4l-.18.18.09.11Zm2.12-2.31v0h0a1.12,1.12,0,0,0,0,.29c-.2,0-.31,0-.35-.06a1.33,1.33,0,0,1-.16-.34l-.07-.07-.09,0-.09,0a.09.09,0,0,1,0-.07l0,0a2,2,0,0,1,.29-.29.38.38,0,0,0,.18.06l.18.05.21-.11a.85.85,0,0,0,.22-.18l-.23,0a.2.2,0,0,1-.17,0l-.27-.07a.35.35,0,0,1-.2-.14,1,1,0,0,0-.32-.33l-.47-.25a3.11,3.11,0,0,1,0,1,3.11,3.11,0,0,0,0,1,2.45,2.45,0,0,0,.36-.33h.47c.08.13.14.24.2.36s.13.24.2.36l.11-.1.11-.11.14,0,.18,0a.61.61,0,0,1-.14-.36A.34.34,0,0,0,215.45,19.18ZM214.07,8.42a1.2,1.2,0,0,1,.4,0,.47.47,0,0,0,0-.18s0-.11,0-.18Zm0,6.44h0v-.43h0Zm.3,2.7.11-.19s-.06,0-.18-.06a.35.35,0,0,1,0,.13A.34.34,0,0,0,214.41,17.56Zm.28,2h-.29s0,0,0,0l.12.07.13.07A1.71,1.71,0,0,0,214.69,19.58Zm-.28-6.34v0l0,0,0,0Zm.22.08a2.25,2.25,0,0,1,.12.21.64.64,0,0,0,.13.18.34.34,0,0,0,.36-.21v-.22a2.8,2.8,0,0,0-.25-.14.4.4,0,0,1-.17.09A.46.46,0,0,0,214.63,13.32Zm.5,4.32-.18.19a1.62,1.62,0,0,1-.18.2,1.16,1.16,0,0,0,.27,0h.23A1.15,1.15,0,0,1,215.13,17.64Zm.11,2.48-.07.14.07.08a.2.2,0,0,0,.07-.11,0,0,0,0,1,0,0A.09.09,0,0,1,215.24,20.12Zm0,1.3h0v-.15h0Zm.18-7.71a.13.13,0,0,0,.08,0,.11.11,0,0,0,0-.06.14.14,0,0,1,0-.09h0Zm.08,3.42,0,0,0,0Zm.39-8.35h-.07s0,0,.07,0Zm.4,3.89a.32.32,0,0,0-.22-.36.35.35,0,0,0-.09.11.17.17,0,0,1-.09.07A.28.28,0,0,0,216.32,12.67ZM216,9.86v0a0,0,0,0,0,0,0V9.86Z"/><path class="cls-1" d="M219.31,12l.1-.21.72-.73a2.19,2.19,0,0,0,.69-1.62c0-.86,0-1.73,0-2.59V4.17h-1.55c0-.26,0-.51,0-.74V1.29c.07-.12.15-.18.23-.18h6.1a2.87,2.87,0,0,1,0,.77,4.82,4.82,0,0,0,0,.76v1.5a6.26,6.26,0,0,1-.74,0,4.63,4.63,0,0,0-.74,0,1.21,1.21,0,0,1,0,.18.62.62,0,0,0,0,.18v5a1.74,1.74,0,0,0,.5,1.26c.19.19.36.38.51.56a6.13,6.13,0,0,0,.5.56.41.41,0,0,0,0,.12.19.19,0,0,1-.07.13c-.14.12-.29.25-.43.39a5.23,5.23,0,0,1-.43.4,1.44,1.44,0,0,0-.54,1.19c0,.72,0,1.43,0,2.14s0,1.42,0,2.14a6.36,6.36,0,0,0,.06.87,2.64,2.64,0,0,0,.23.82,1.7,1.7,0,0,0,1.33,1.16,2.55,2.55,0,0,0,1.26-.11,1.26,1.26,0,0,0,.71-.54,4.94,4.94,0,0,0,.34-.83,1.3,1.3,0,0,0,.09-.41c0-.16,0-.31,0-.45a13.73,13.73,0,0,0,.09-2.4c0-.8,0-1.61,0-2.43a1.43,1.43,0,0,0-.46-1.11c-.2-.19-.37-.38-.53-.54s-.33-.35-.52-.54l.22-.22,1-1.08a1,1,0,0,0,.25-.43,1.79,1.79,0,0,0,.07-.51V4.17h-1.47v-3a6,6,0,0,1,.79-.05l1.53,0c.59,0,1.22,0,1.91,0s1.34,0,2,0a3.78,3.78,0,0,1,.05.54c0,.26,0,.54,0,.85s0,.62,0,.93,0,.54-.05.71h-1.44V9.47a2,2,0,0,0,.61,1.48c.15.17.3.33.45.47a6.07,6.07,0,0,1,.49.51,4,4,0,0,0-.47.45,5.42,5.42,0,0,1-.43.41,1.49,1.49,0,0,0-.52.71,2.47,2.47,0,0,0-.13.84c0,.8,0,1.58,0,2.37s0,1.55,0,2.32a8.34,8.34,0,0,1-.68,3,4.52,4.52,0,0,1-2,2.1,6.29,6.29,0,0,1-.92.36,3.75,3.75,0,0,1-1,.14l-.22,0-.25,0-.24,0a.18.18,0,0,1-.19,0,.76.76,0,0,0-.36-.06,2.17,2.17,0,0,1-.36,0,2.11,2.11,0,0,1-.62-.09l-.57-.16a4,4,0,0,1-1.42-.83,5.14,5.14,0,0,1-1-1.3,3.25,3.25,0,0,1-.38-.85c-.08-.3-.16-.6-.23-.92a7.66,7.66,0,0,1-.22-1.87V16.45c0-.71,0-1.42,0-2.14a1.88,1.88,0,0,0-.65-1.52,4.86,4.86,0,0,1-.41-.38Zm.9-9.16s0,0,0,0Zm1.08,9.33a.31.31,0,0,1,0,.18l.07,0a.94.94,0,0,0-.1-.14v-.58l-.26-.14-.21-.15c-.15.15-.25.27-.33.36s0,.24.08.35,0,.22.07.34l.32-.11Zm.79-2.81a.54.54,0,0,0-.18-.11.42.42,0,0,1-.18-.11.27.27,0,0,1,0-.16,1.8,1.8,0,0,0,0-.27.89.89,0,0,0-.06.36.25.25,0,0,1-.05.22.52.52,0,0,0-.15.3,1.26,1.26,0,0,0,0,.27c.12,0,.19,0,.22,0a.24.24,0,0,1,.18-.15,1,1,0,0,0,.18.29,2.29,2.29,0,0,1,.18.29l.18-.11a.6.6,0,0,0,.14-.11l-.23-.18-.2-.14ZM222,18.64a.81.81,0,0,1,0-.25.52.52,0,0,0,0-.21.9.9,0,0,1,.45-.24.44.44,0,0,0,.35-.38l.1.06.11.05.27-.21a3.25,3.25,0,0,0,.27-.26c0-.21,0-.43,0-.66a5,5,0,0,1,0-.67.72.72,0,0,0-.54-.79l-.27-.13-.27-.12-.12.11-.2.14c.07-.19.06-.33,0-.41a.46.46,0,0,1-.13-.31c0-.12,0-.24-.05-.36s0-.26,0-.43c-.05.17-.08.32-.11.45a2.36,2.36,0,0,1-.1.38,1.26,1.26,0,0,1-.17-.67,2.15,2.15,0,0,0,0-.67v5a.31.31,0,0,0,.13.09l.12.09a1.12,1.12,0,0,0,0,.2,1.23,1.23,0,0,1,0,.2A1.06,1.06,0,0,1,222,18.64Zm-.47-8.31,0,0,0,0,0,0A0,0,0,0,1,221.54,10.33Zm.21,9.57v0Zm.08-16.2v.08a.27.27,0,0,0,.14,0v0Zm.32,16.82v0H222v0Zm.07-1.26h.11c0-.17.06-.27,0-.29a.25.25,0,0,1-.06-.22c0-.09,0-.15-.16-.18a.26.26,0,0,0,0,.34A.58.58,0,0,1,222.22,19.26Zm.79-6.34a.76.76,0,0,0,.17-.2l.09-.23-.17-.16a1.65,1.65,0,0,0-.23-.2.42.42,0,0,0-.25-.51h-.29a.31.31,0,0,0-.25.18v.4a.28.28,0,0,0,.14.09.23.23,0,0,1,.11.05c0,.13.08.23.11.31s.05.18.07.27Zm-.39-9,0,0v0l0,0ZM222.87,5a.85.85,0,0,1,.22.18C223.09,5,223,4.94,222.87,5Zm.83,6,.07-.07a1.6,1.6,0,0,1-.25-.47.36.36,0,0,0-.09.12.31.31,0,0,1-.09.13l.2.14Zm.61.54a2,2,0,0,0-.2-.29.71.71,0,0,0-.27-.18c-.05.24-.05.38,0,.43S224.05,11.61,224.31,11.59ZM225,22.17h0l0,0Zm5.29-9.84-.43-.31a2.58,2.58,0,0,0-.43-.34,1,1,0,0,0-.58-.16l-.11.21a.36.36,0,0,1-.14,0h-.18a.45.45,0,0,0,.14-.13.24.24,0,0,1,.11-.09,3,3,0,0,1-.32-.36,3.41,3.41,0,0,1-.38.38.86.86,0,0,0-.27.45l0,0a8.29,8.29,0,0,0,.64.67,1.52,1.52,0,0,1,.44.81.15.15,0,0,0,.1.09.3.3,0,0,1,.15.09,1.44,1.44,0,0,0,.21-.18l.15-.14H230l.21.37a2.13,2.13,0,0,1,.18.38c0,.12,0,.18.11.18a1.17,1.17,0,0,1,0-.39.42.42,0,0,1,.14-.06l.18-.05a1.17,1.17,0,0,1-.09-.33,1.21,1.21,0,0,0-.09-.32.29.29,0,0,0-.09.16.26.26,0,0,1-.09.16l-.36-.25a.41.41,0,0,1,0-.16v-.16a.42.42,0,0,0-.15,0h0V12.6a.73.73,0,0,1,.25,0,.73.73,0,0,1,.25.07l.2-.14.2-.14A1.05,1.05,0,0,1,230.32,12.33Zm-1.47-3.41a.31.31,0,0,0,.36-.1.39.39,0,0,0,.1-.44l-.23-.16a1,1,0,0,0-.23,0Zm.57,9,0,0V18S229.4,17.92,229.42,17.92Zm.07-4.39a.71.71,0,0,1,.18.15l.29-.15Zm.11-5.9s0,0,0,0v0Zm.18,10.55,0,0h.07S229.78,18.2,229.78,18.18Zm.15-10.8c0,.19.08.28.25.28s.25-.09.25-.28a.31.31,0,0,0-.25-.33C230,7.05,229.93,7.16,229.93,7.38Zm.43,4.21a.21.21,0,0,1-.15.07.26.26,0,0,0-.14.07.67.67,0,0,0,0,.25c.15,0,.24,0,.27,0a.67.67,0,0,0,.2-.12Zm.14,3.71s0,0,0,0,0,0,.06,0Zm0-2.34a0,0,0,0,0,0,0v0Zm.54-2.09s0,0,0,0S231.08,10.89,231.08,10.87Z"/><path class="cls-1" d="M243.61,12.2l.27.13.23.09a2.32,2.32,0,0,1,.79.28,5.58,5.58,0,0,1,.69.51,1.86,1.86,0,0,1,.37.54,4.84,4.84,0,0,1,.24.61,1.71,1.71,0,0,1,.07.49,2.67,2.67,0,0,0,0,.48,5.24,5.24,0,0,1,.07.76q0,.36,0,.75a.85.85,0,0,1,0,.33.57.57,0,0,0,0,.32,1.18,1.18,0,0,1,0,.65,3.12,3.12,0,0,1,0,.54,4.63,4.63,0,0,0,0,.54v1.85c0,.47,0,1,0,1.52s0,1,0,1.49,0,.72,0,.79h1.47v3.06h-2.59a2,2,0,0,1-1.58-.65,1.92,1.92,0,0,1-.54-1.36V20.37c0-.84,0-1.66,0-2.48s0-1.64,0-2.49a2.22,2.22,0,0,0-.47-1.26,1,1,0,0,0-.38-.27l-.48-.16a4.78,4.78,0,0,0-1.3-.09,7,7,0,0,1-1.37,0v2.78c0,.12,0,.25,0,.39a.68.68,0,0,1-.09.4v.14a.61.61,0,0,1,.09.36c0,.12,0,.24,0,.36v6.81h1.37a2.88,2.88,0,0,1,.05.77c0,.25,0,.51,0,.77v1.48a9.18,9.18,0,0,1-1,.05c-.59,0-1.23,0-1.93,0h-2q-1,0-1.26,0v-3h1.47V14.23a1.91,1.91,0,0,0-.57-1.37q-.22-.21-.45-.45c-.16-.15-.32-.33-.49-.52l.54-.54a3.8,3.8,0,0,0,.78-1,3.71,3.71,0,0,0,.19-1.39c0-.69,0-1.4,0-2.12s0-1.45,0-2.17V4.17h-1.47v-3a1,1,0,0,1,.36,0h6a9,9,0,0,1,1,.06c.35,0,.69.08,1,.12l.68.16.65.2a3,3,0,0,1,1.17.83,4.06,4.06,0,0,1,.7,1.26,3.58,3.58,0,0,1,.24.86l.09.9c0,.34.08.69.1,1a4.88,4.88,0,0,1,0,1.08c0,.43-.08.87-.09,1.31a3.84,3.84,0,0,1-.27,1.32,3.36,3.36,0,0,1-.58,1,2.2,2.2,0,0,1-.93.63l-.44.16Zm-4.4-1.62,1.1,0c.37,0,.74,0,1.1,0a2.18,2.18,0,0,0,.85-.22,1.2,1.2,0,0,0,.59-.64,2.65,2.65,0,0,0,.25-1.05c0-.33,0-.66,0-1v-1c0-.24,0-.47,0-.68a3.63,3.63,0,0,0-.09-.65,2.14,2.14,0,0,0-.23-.54,1.17,1.17,0,0,0-.45-.4,2.22,2.22,0,0,0-1-.25l-.9,0h-1.3v5.5a.54.54,0,0,0,0,.22.17.17,0,0,1,0,.18c-.07.12-.09.22,0,.29Zm.9,1.37h0v0h0Zm1.37-.58v0h.15a.13.13,0,0,0,0-.07A.18.18,0,0,0,241.48,11.37Zm2.34,3.82a.59.59,0,0,0,0,.14,1.09,1.09,0,0,1,0,.22c.07-.19.06-.31,0-.36V15a.39.39,0,0,0-.07-.23.41.41,0,0,1,0,.27A.15.15,0,0,0,243.82,15.19Zm0,2.91a13.16,13.16,0,0,1,0,1.37c0,.65,0,1.34,0,2.07s0,1.43,0,2.09A5.31,5.31,0,0,0,244,25a2.08,2.08,0,0,1,.72-.16.67.67,0,0,0,.57-.42.24.24,0,0,0,.11,0,.24.24,0,0,1,.11,0l.21-.11V18.72a.54.54,0,0,0-.18-.06l-.18-.05-.1.12-.11.13a.43.43,0,0,1-.22,0l.11-.32c0-.05,0-.1-.07-.16a1.36,1.36,0,0,0-.11-.2.48.48,0,0,1-.14.05l-.15.06c-.12-.05-.15-.11-.11-.2a.26.26,0,0,0,0-.27.23.23,0,0,1,0-.22.53.53,0,0,0,0-.25,1.23,1.23,0,0,1,0-.27.61.61,0,0,0-.06-.3c-.05.26-.09.5-.12.7s-.08.41-.13.63a.32.32,0,0,0-.14,0Zm0-.57a1.86,1.86,0,0,1,.22-.25.58.58,0,0,1-.11-.13,1.59,1.59,0,0,0-.11-.16Zm.43,7.92h0v-.18h0Zm.62.61a.33.33,0,0,0,0-.31.49.49,0,0,1-.09-.3.27.27,0,0,0-.13,0h-.12a.25.25,0,0,1,.12.31C244.6,25.92,244.67,26,244.87,26.06Zm.07-10.19.36.22a4.14,4.14,0,0,0,.39-.22v-.43c-.09-.12-.18-.17-.27-.14a.61.61,0,0,1-.27,0A.47.47,0,0,0,244.94,15.87Zm.36-11.59-.07.07s0,.05,0,.06,0,0,0,0A.34.34,0,0,0,245.3,4.28Zm.29,13.93s0,0,0,0v.07A0,0,0,0,0,245.59,18.21ZM247,26.13l0,0a.14.14,0,0,1-.09,0,.14.14,0,0,0-.09,0v.07Z"/><path class="cls-1" d="M30.08,55.15l.57-.69c.19-.21.39-.41.58-.61a1.16,1.16,0,0,0,.36-.86c0-.55,0-1.09,0-1.6s0-1,0-1.57a8.7,8.7,0,0,1,.29-2A6.79,6.79,0,0,1,32.67,46,4,4,0,0,1,35,44.21a6.71,6.71,0,0,1,2.68-.29,5.49,5.49,0,0,1,1.26.29,4.16,4.16,0,0,1,1.16.61l.63.57a2.78,2.78,0,0,1,.52.69,6.34,6.34,0,0,1,.49,1A6.62,6.62,0,0,1,42,48.2c.09.55.17,1.09.21,1.62a7.07,7.07,0,0,1,.08,1v1a2,2,0,0,1-.08.47v.18a.43.43,0,0,1,.09.32c0,.1,0,.2,0,.33a.87.87,0,0,0,.28.64c.2.22.39.44.6.65l.63.69-1,.86a1.49,1.49,0,0,0-.44.47,1.09,1.09,0,0,0-.1.65,2.38,2.38,0,0,1,0,.39.84.84,0,0,1-.11.43v.15a3.89,3.89,0,0,1,.11,1.22c0,.41,0,.82,0,1.22a18.21,18.21,0,0,1-.11,2A10.26,10.26,0,0,1,42,64a6.76,6.76,0,0,1-.55,1.41,4.8,4.8,0,0,1-1,1.33,4.23,4.23,0,0,1-1.49.83l-.68.2a1.77,1.77,0,0,1-.69,0,.87.87,0,0,0-.3,0,.66.66,0,0,1-.28,0,9.71,9.71,0,0,1-1.62-.22A4.06,4.06,0,0,1,33.83,67a3.3,3.3,0,0,1-.69-.65l-.58-.76a3.89,3.89,0,0,1-.48-1.06c-.11-.37-.22-.75-.31-1.13l-.15-.87a3.52,3.52,0,0,1,0-.86V57.2a1.28,1.28,0,0,0-.54-1.08,3.6,3.6,0,0,1-.47-.39,5.23,5.23,0,0,0-.43-.4.11.11,0,0,1,0-.09A.12.12,0,0,0,30.08,55.15ZM31.16,55h-.08a.28.28,0,0,1,0,.15h0Zm2-.11-.09-.21s-.06-.06-.16-.11a4.09,4.09,0,0,1-.49-.18,3.41,3.41,0,0,0-.48-.18H31.8l-.18.18c0,.12,0,.22-.05.3s0,.16,0,.2a1.26,1.26,0,0,1,.09.31.85.85,0,0,0,.09.27h.58a1.68,1.68,0,0,0,.21-.18c.08-.07.17,0,.29.07a1.14,1.14,0,0,1,.18-.25A1.74,1.74,0,0,0,33.17,54.93Zm-.93,3.93a.87.87,0,0,0,.1-.24c0-.08.06-.18.11-.3a.39.39,0,0,0,.51.1c.14,0,.2.12.18.2a.17.17,0,0,0,0,.2.84.84,0,0,0,.54-.09,1,1,0,0,1,.54-.09V56.48a.63.63,0,0,1-.18-.14.31.31,0,0,1,.13-.09l.09-.06a1.87,1.87,0,0,1-.29-.46l-.14.05-.18,0a.71.71,0,0,0-.09-.45.31.31,0,0,1,0-.41.19.19,0,0,1-.07-.13.47.47,0,0,0-.07-.16,2.88,2.88,0,0,0-.09.49,3.38,3.38,0,0,1-.09.41l-.27.15-.27.14a.29.29,0,0,1,0,.18l-.32.11-.29.07c0,.12,0,.22,0,.31a2,2,0,0,1,0,.23l.14.07a.64.64,0,0,1-.18.25.94.94,0,0,1,.06.24,1.55,1.55,0,0,0,.05.23.51.51,0,0,0,0,.13.14.14,0,0,1,0,.12.78.78,0,0,0-.09.51A2.35,2.35,0,0,1,32.24,58.86ZM33.06,53a.69.69,0,0,1-.09-.41.5.5,0,0,0-.16-.42h-.5a.19.19,0,0,1,0-.12.35.35,0,0,0,0-.13h0c0,.2,0,.4,0,.61s0,.44.06.65l.2-.14.16-.15Zm-.86,6.74v.68h.32l.13-.13.13-.12a.37.37,0,0,0-.09-.27l-.17-.16Zm.72,1.51a.55.55,0,0,0-.54.14v.76l.5.25a.4.4,0,0,1,.27-.11c.11,0,.18-.07.2-.22a3,3,0,0,1-.12-.43A.74.74,0,0,0,32.92,61.2Zm.32,2.59-.34-.13-.34-.12.13.52a.65.65,0,0,0,.3.41,1,1,0,0,1,.22-.32A.28.28,0,0,0,33.24,63.79Zm-.5-5.54v0l0,0a0,0,0,0,1,0,0Zm.18-7.71a1.06,1.06,0,0,0,.29,0,3.1,3.1,0,0,0,.21.25s.06,0,.18,0l-.12-.1-.13-.11v-.47L33.21,50,33,50a1.09,1.09,0,0,0-.13.17l-.09.16A2.41,2.41,0,0,0,32.92,50.54ZM33,59.11a.75.75,0,0,1,0,.21,1.36,1.36,0,0,0,0,.18c.07.13.15.19.23.19a.85.85,0,0,0,.23,0l.13-.25a.34.34,0,0,0,0-.29Zm1.37,6L34,64.83a.21.21,0,0,1-.15.07l-.07,0a.9.9,0,0,1-.09-.68,1.51,1.51,0,0,0,0-.76c-.05.24-.09.47-.14.68s-.1.42-.15.62a.76.76,0,0,1-.21,0l-.07.13a1.25,1.25,0,0,0-.08.12,3.59,3.59,0,0,0,1.23,1.43,4.65,4.65,0,0,0,1.66.62,1.53,1.53,0,0,1-.14-.43.28.28,0,0,1-.15,0,.25.25,0,0,0-.14,0,2.19,2.19,0,0,0,.11-.2,1.24,1.24,0,0,1,.1-.2l.47.11a3.5,3.5,0,0,1,.37-.22l-.22-.11V65.7a1.36,1.36,0,0,0-.34-.26s-.12.06-.24.18a.42.42,0,0,1,0,.15,1,1,0,0,0,0,.21c-.17-.11-.32-.22-.45-.32a5.15,5.15,0,0,1-.41-.32h-.36l-.11.18h-.26C34.28,65.42,34.31,65.3,34.36,65.16ZM33.21,47.37a.09.09,0,0,0,0-.07s0,0,0,0,0,0,0,0Zm.32,7c-.05,0-.06.07,0,.07s0,0,0,.06,0,0,0,0Zm.15-3.49c.24.1.39.05.46-.14s-.07-.19-.16-.2a.34.34,0,0,1-.2-.09,1.37,1.37,0,0,1,0-.33s0,0,0,0,0,0,0,0Zm.1,8.21a5,5,0,0,0,0,.52.55.55,0,0,0,.18.41,1.27,1.27,0,0,0,.32,0v-.22a2.92,2.92,0,0,1-.23-.34A2.14,2.14,0,0,0,33.78,59Zm.15-11.67a.06.06,0,0,1-.07.07l.25.15a.11.11,0,0,0,0-.07.44.44,0,0,1-.1-.08Zm.21,6.81,0,0,0,0a.09.09,0,0,1,.07,0Zm0-.65h0v-.47h0Zm3.28,1.58a.16.16,0,0,1,.1-.07.1.1,0,0,0,.08,0c.16-.19.33-.38.48-.57l.49-.58a1.21,1.21,0,0,0,.29-.43,1.83,1.83,0,0,0,.07-.5,20.69,20.69,0,0,1,0-2.49,6.49,6.49,0,0,0-.22-1.72,2.7,2.7,0,0,0-.33-.8,1.28,1.28,0,0,0-.69-.54,2.39,2.39,0,0,0-.6-.14,2.23,2.23,0,0,0-.67,0,1.72,1.72,0,0,0-1,.64,1.58,1.58,0,0,0-.34.67c-.07.25-.12.51-.17.77a15,15,0,0,0-.11,1.8v1.77a1.17,1.17,0,0,0,.36.93l1.19,1.3-.59.56c-.21.18-.4.36-.6.56a1.13,1.13,0,0,0-.36.9c0,.86,0,1.72,0,2.59a21.59,21.59,0,0,0,.08,2.55,6.24,6.24,0,0,0,.4,1.34,1.64,1.64,0,0,0,.79.75,1.74,1.74,0,0,0,.39.11l.38,0a2,2,0,0,0,1.2-.39,2.22,2.22,0,0,0,.65-1A5.38,5.38,0,0,0,39,61.59q-.07-2.16,0-4.35a1.41,1.41,0,0,0-.43-1c-.2-.19-.38-.38-.54-.56Zm-1.12,11.7a.55.55,0,0,1,0,.22c0,.07.06.12.23.14C36.52,67.08,36.44,67,36.34,66.81Zm1.76-.18a.45.45,0,0,0-.21-.5h-.4a.72.72,0,0,0,0,.9,2.47,2.47,0,0,1,.36-.11C38,66.9,38.06,66.8,38.1,66.63Zm.26-.36v0h.14v0Zm0-11.16.2.2.2.23a2.53,2.53,0,0,0,.14-.35l-.25-.13C38.61,55,38.51,55,38.39,55.11Zm.18,10.7a0,0,0,0,0,0,0h0l0,0Zm.25.61s0-.08,0-.08a.27.27,0,0,0-.15,0v0Zm.08-1.73H39a1.2,1.2,0,0,1,0-.4l-.18.18a.53.53,0,0,1,.09.11ZM41,62.38v0h0a1.06,1.06,0,0,0,0,.29c-.19,0-.3,0-.34-.06a1,1,0,0,1-.16-.34l-.07-.07-.09,0-.1,0a.11.11,0,0,1,0-.07l0,0a2,2,0,0,1,.29-.29.48.48,0,0,0,.18.06l.18.05.22-.11a1,1,0,0,0,.22-.17H41a.22.22,0,0,1-.16,0l-.27-.08a.32.32,0,0,1-.2-.14,1.29,1.29,0,0,0-.33-.33l-.47-.25a3.11,3.11,0,0,1,0,1,3.11,3.11,0,0,0,0,1,4.22,4.22,0,0,0,.36-.33h.47l.2.36c.06.13.13.25.2.37l.11-.11.1-.11.15,0,.18,0a.55.55,0,0,1-.14-.36A.35.35,0,0,0,41,62.38ZM39.64,51.62a1.24,1.24,0,0,1,.4,0,.82.82,0,0,0,0-.18s0-.11-.05-.18Zm0,6.44h0v-.43h0Zm.3,2.71a1,1,0,0,0,.1-.2s-.06,0-.18-.06a.24.24,0,0,1,0,.13A.27.27,0,0,0,40,60.77Zm.28,2H40a0,0,0,0,1,0,0l.13.07.12.07A1.59,1.59,0,0,0,40.26,62.78ZM40,56.44v0l0,0,0,0Zm.21.08a2.39,2.39,0,0,1,.13.21.51.51,0,0,0,.12.18q.3,0,.36-.21v-.22a1.86,1.86,0,0,0-.25-.14.29.29,0,0,1-.16.09A.5.5,0,0,0,40.19,56.52Zm.51,4.32a1,1,0,0,0-.18.2l-.18.19a1.16,1.16,0,0,0,.27,0h.23A1.15,1.15,0,0,1,40.7,60.84Zm.1,2.48-.07.14.07.08c.05,0,.08-.09.08-.11s0,0,0,0A.1.1,0,0,1,40.8,63.32Zm0,1.3h0v-.15h0ZM41,56.91a.11.11,0,0,0,.07,0s0,0,0-.06,0,0,0-.09h0Zm.07,3.42,0,0,0,0Zm.4-8.35h-.07s0,0,.07,0Zm.39,3.89a.3.3,0,0,0-.21-.36.35.35,0,0,0-.09.11.17.17,0,0,1-.09.07A.27.27,0,0,0,41.88,55.87Zm-.36-2.81v0s0,0,0,0v-.07Z"/><path class="cls-1" d="M59.13,64.29H61.5a5.25,5.25,0,0,1,0,.79c0,.25,0,.51,0,.78v1.49a6.36,6.36,0,0,1-1.09.06H56c-.71,0-1.17,0-1.39,0V64.33h1.59c-.2-.91-.37-1.81-.53-2.68s-.31-1.76-.48-2.65-.33-1.77-.49-2.66-.33-1.8-.52-2.74c-.36,1.83-.71,3.61-1,5.36s-.68,3.53-1,5.33a7.1,7.1,0,0,0,.92,0c.3,0,.61,0,.95,0v2.88a1,1,0,0,1-.11.18H47V64.33h2.2c0-.1.06-.17,0-.23s0-.12-.07-.17c0-.33-.1-.65-.14-1s-.11-.61-.18-.95l-.09-.59c0-.21-.08-.4-.13-.6s-.09-.43-.13-.66-.07-.46-.12-.7l-.22-1.19a3.59,3.59,0,0,1-.11-.41c0-.13,0-.27-.07-.41a1.81,1.81,0,0,0-.79-1.4c-.19-.15-.39-.29-.59-.43a6.9,6.9,0,0,1-.6-.47l.45-.59q.24-.31.45-.63a1.31,1.31,0,0,0,.22-1,5.79,5.79,0,0,1-.2-1c0-.32-.08-.65-.13-1a7,7,0,0,0-.19-.83,7.11,7.11,0,0,1-.2-.83l-.09-.63c0-.2-.08-.41-.13-.62L46,47.41H44.87a3.33,3.33,0,0,1,0-.54,4.35,4.35,0,0,0,0-.51,4.26,4.26,0,0,0,0-.5,2.75,2.75,0,0,1,0-.5,4.35,4.35,0,0,0,0-.51,1.46,1.46,0,0,1,.06-.5h5.47a2.5,2.5,0,0,1,0,.72c0,.24,0,.49,0,.75v1.55a3.56,3.56,0,0,1-.65,0,4.71,4.71,0,0,0-.65,0,1.57,1.57,0,0,0,0,.57c0,.2.08.39.1.58s.05.28.08.42,0,.25.07.37c.05.29.09.58.14.87l.15.86c0,.24.08.49.1.74s.06.5.11.74.09.51.13.73a5.83,5.83,0,0,0,.16.74c0,.24.08.48.11.72a6,6,0,0,0,.11.72,6.13,6.13,0,0,1,.18,1,4.47,4.47,0,0,0,.18,1,6.78,6.78,0,0,1,.16.83,6.81,6.81,0,0,0,.16.86l2.16-11.77H51.93s0-.1-.07-.14a.28.28,0,0,1,0-.15c0-.84,0-1.69,0-2.56a1.44,1.44,0,0,1,.07-.25h4.79a2.73,2.73,0,0,1,0,.51c0,.26,0,.55,0,.86v.94a7.48,7.48,0,0,1,0,.75H55.49a1.26,1.26,0,0,0,0,.61,4.21,4.21,0,0,1,.11.58,3.79,3.79,0,0,0,.18.83c0,.24.08.47.11.68a4.9,4.9,0,0,0,.11.65c0,.27.09.52.12.76s.08.48.13.72.09.47.14.68l.15.68c0,.22.08.44.1.67s.06.45.11.67.1.51.15.73.09.48.14.74,0,.24.05.36,0,.24.06.36.09.53.14.79l.15.8a4.21,4.21,0,0,1,0,.61,1.82,1.82,0,0,0,.11-.33c0-.09.05-.17.07-.25.34-1.87.67-3.75,1-5.63s.67-3.77,1-5.67h-1.3V44.35a6.89,6.89,0,0,1,.74-.06H62c.56,0,1,0,1.44,0a4.92,4.92,0,0,1,0,.76c0,.24,0,.49,0,.75a5.15,5.15,0,0,1,0,.78c0,.25,0,.51,0,.77a2.22,2.22,0,0,1-.52,0,3.58,3.58,0,0,0-.56,0,3.56,3.56,0,0,1-.09.39c0,.15-.06.28-.09.4L62,49.6a3.11,3.11,0,0,0-.11.49,4.45,4.45,0,0,1-.11.52c0,.12,0,.25-.07.39a2.09,2.09,0,0,1-.11.43c0,.24-.09.47-.14.68s-.1.45-.15.69a1.63,1.63,0,0,0,.29,1.25,4.51,4.51,0,0,0,.38.53c.13.15.27.33.41.52a1,1,0,0,1-.36.39l-.43.32a3.8,3.8,0,0,1-.38.29,3.8,3.8,0,0,0-.37.33,1.42,1.42,0,0,0-.27.48c-.06.18-.12.37-.17.56-.07.38-.13.76-.19,1.15s-.13.78-.2,1.18-.11.54-.18.83-.13.57-.18.86-.09.34-.13.5l-.09.51c-.05.28-.1.58-.16.88S59.18,64,59.13,64.29ZM49,65.59a.87.87,0,0,0,.33.14s.1-.06.18-.18a1.87,1.87,0,0,0,0-.39H49Zm.22-12.1h.07a.41.41,0,0,0,0-.21h0ZM50,66.59v-.33c-.12,0-.18,0-.18.15l.08.07Zm.11-.56q.28-.18.18-.36a.54.54,0,0,0-.18-.11.42.42,0,0,1-.18-.11,2,2,0,0,0,0-.32A.86.86,0,0,0,50.09,66Zm6.09.6a.2.2,0,0,0-.11-.07s-.06,0-.11,0l.11.11s0,0,0,0A.1.1,0,0,0,56.18,66.63Zm4.1-20.37a1.68,1.68,0,0,0-.18.21Q60.36,46.55,60.28,46.26Zm1.08-.07h0V46h0Zm1.4-.22v-.9a3.56,3.56,0,0,1-.36.25c0,.14,0,.28,0,.4s0,.25,0,.39a.75.75,0,0,1,.18-.09Z"/><path class="cls-1" d="M78.71,44.35l.07.07,0,.07v2.88a2.87,2.87,0,0,1-.77,0,5.08,5.08,0,0,0-.78,0,.47.47,0,0,1,0,.16.92.92,0,0,0,0,.16v5.1a1.45,1.45,0,0,0,.39,1.05l1,1.07a1.24,1.24,0,0,1,.15.22l-.56.54-.56.54a1.23,1.23,0,0,0-.39.89v7.08a.13.13,0,0,1,0,.07h1.48c.12.08.18.16.18.26v.25a1.72,1.72,0,0,0-.06.53c0,.16,0,.32.06.49a4,4,0,0,1,0,.6c0,.21,0,.41,0,.6v.22a.42.42,0,0,0-.06.08l-.05.07H74.43c-.89-2.79-1.77-5.53-2.63-8.24s-1.74-5.45-2.63-8.21a9,9,0,0,0,0,1.08c0,.65,0,1.44,0,2.39s0,2,0,3.08V60.6c0,1,0,1.8,0,2.49s0,1.08,0,1.2h1.33v3.1H64.78V64.33h1.55v-6.9a2.43,2.43,0,0,0-.11-.73,1.25,1.25,0,0,0-.43-.6,3.6,3.6,0,0,1-.47-.39,5.23,5.23,0,0,0-.43-.4.09.09,0,0,1,0-.07.11.11,0,0,0,0-.07.61.61,0,0,1,.1-.18,8.09,8.09,0,0,0,.56-.61,8.27,8.27,0,0,1,.56-.61.91.91,0,0,0,.29-.65V47.41H64.78V44.35h4.9c.24.72.47,1.44.7,2.18s.46,1.45.7,2.18c.19.57.37,1.15.52,1.72s.33,1.15.52,1.73.38,1.16.56,1.75.37,1.17.56,1.74.37,1.15.54,1.71.33,1.13.5,1.68a3.37,3.37,0,0,1,.13.38l.13.44V47.41H73.1V44.35Zm-10.8.9a1.49,1.49,0,0,0,0,.21,1.8,1.8,0,0,1,0,.22,1.27,1.27,0,0,0,.36,0,.31.31,0,0,0,.11-.19.33.33,0,0,0-.22-.36l-.14.08ZM68,46.8a1,1,0,0,0,.36,0c.14,0,.18-.14.11-.29s-.06-.11-.18-.18a.27.27,0,0,0-.29.18Zm1-1.23a.42.42,0,0,0,.14.06.5.5,0,0,1,.18.09A4.25,4.25,0,0,0,69.1,45a.5.5,0,0,0-.09.29A1.81,1.81,0,0,1,69,45.57Zm.93,2a1.39,1.39,0,0,1-.12-.41.55.55,0,0,0-.16-.31c-.12.1-.18.19-.17.27a.82.82,0,0,1,0,.31Zm.44,3.61,0,0h0a0,0,0,0,0,0,0Zm5.36-3.86c-.07.07-.1.11-.07.11s0,.07.07.07.07,0,.07-.07A.2.2,0,0,0,75.76,47.37Zm.74,5.44,0,0S76.48,52.81,76.5,52.81Z"/><path class="cls-1" d="M89.11,64.36h1.16c.09-.38.19-.75.28-1.11a8.22,8.22,0,0,0,.22-1.12A7.38,7.38,0,0,1,91,61,6.61,6.61,0,0,0,91.24,60a3.86,3.86,0,0,1,.12-.72c.06-.21.12-.44.17-.68s.13-.54.19-.81.12-.55.17-.82a1.18,1.18,0,0,1-.09-.38.65.65,0,0,0-.2-.37l-.87-1L91,55l.31-.25.27-.29a1.1,1.1,0,0,1,.31-.25,2.22,2.22,0,0,0,.93-1.52c.05-.26.1-.52.16-.78s.12-.51.17-.77.1-.57.16-.85.13-.56.2-.85.1-.53.16-.79.11-.53.16-.79a.88.88,0,0,0,0-.2,1.29,1.29,0,0,1,0-.24H92.32V44.31H98a2.62,2.62,0,0,1,.56,0,1.75,1.75,0,0,0,.56,0,3.62,3.62,0,0,1,.57,0,5.62,5.62,0,0,0,.58,0v3.06H98.65a2.33,2.33,0,0,1,.06.33c0,.09,0,.2.05.32s.11.53.18.8.13.53.18.79.1.54.16.83.12.56.17.83.1.54.16.83.11.56.16.83a1.88,1.88,0,0,0,.38.76,6.77,6.77,0,0,0,.59.61l.51.43c.16.15.34.3.54.47a5.39,5.39,0,0,0-.4.45,3.92,3.92,0,0,1-.36.42,1,1,0,0,0-.25.39l-.15.44a1.47,1.47,0,0,0,0,.32c0,.1,0,.21.07.33l.15.63c0,.2.09.4.14.59l.22,1.09c0,.24.09.47.14.7s.1.45.14.67a5.8,5.8,0,0,1,.18.75c.05.24.1.5.15.76s.09.48.14.71.1.45.15.66a1.07,1.07,0,0,0,.07.25h1a3.42,3.42,0,0,1,.06.77c0,.25,0,.5,0,.77a6,6,0,0,1,0,.72c0,.23,0,.47,0,.73a3.79,3.79,0,0,1-.74.06l-1.42,0q-.83,0-1.8,0l-1.91,0a3.44,3.44,0,0,1-.05-.53c0-.26,0-.54,0-.85v-.93a5.2,5.2,0,0,1,0-.75h1.54a1.49,1.49,0,0,1,0-.21.29.29,0,0,0,0-.19c-.12-.55-.23-1.12-.34-1.68s-.22-1.14-.34-1.7H93.94a.39.39,0,0,0-.16.37.89.89,0,0,1-.06.4q-.1.43-.18.87c-.05.29-.09.59-.14.91,0,.12-.05.25-.07.38s-.06.27-.11.42a.27.27,0,0,0,0,.18.42.42,0,0,1,0,.22,2.5,2.5,0,0,0,.72,0,6.6,6.6,0,0,1,.76,0l.09.09a.11.11,0,0,1,0,.12.54.54,0,0,0,0,.32,1.65,1.65,0,0,1,0,.32.79.79,0,0,1,0,.43.72.72,0,0,0,0,.46,1,1,0,0,1,0,.45,3.64,3.64,0,0,0,0,.48,2,2,0,0,1-.08.35H89.11Zm2.38-.46h-.32a3.56,3.56,0,0,0-.15.46c.24,0,.38,0,.42,0A.93.93,0,0,0,91.49,63.9Zm-.4,1.18a1,1,0,0,1,0,.33,1.06,1.06,0,0,0,.38,0q.09,0,.09-.18a.24.24,0,0,0-.06-.14l-.09-.15a.77.77,0,0,1-.19.11Zm.62-2.8.07.07a.2.2,0,0,0,.11-.07Zm1.94-2.52c0-.27,0-.51-.05-.74s0-.46-.06-.7a3.42,3.42,0,0,0-.09.63,2.9,2.9,0,0,1-.09.59l-.36.2a.51.51,0,0,0-.25.34,2.46,2.46,0,0,0-.54,0,3.9,3.9,0,0,0,.11.39.84.84,0,0,0-.18.11,2.34,2.34,0,0,0,.25.29.34.34,0,0,0-.31,0,1.09,1.09,0,0,1-.27.11v.18l.54.32a1.58,1.58,0,0,0-.14.54,3,3,0,0,1,.58.07l.07.15q.08-.51.18-1t.18-1a3.68,3.68,0,0,0,.39-.4,1.06,1.06,0,0,0,.26,0l.21,0s0-.07,0-.09,0,0,0-.08l-.2,0A.51.51,0,0,0,93.65,59.76Zm-1-.47s.09,0,.11,0h.07a1.94,1.94,0,0,0,.2-.21l.2-.25a1.9,1.9,0,0,0-.42-.31c-.15-.08-.31-.16-.48-.23,0,.19-.1.37-.16.56a1.28,1.28,0,0,0-.06.55q.18.1.27,0A.44.44,0,0,1,92.64,59.29Zm-.18,5.11c0-.14,0-.26.06-.36s0-.2,0-.32a.52.52,0,0,0-.21,0c-.07,0-.15.06-.22.18v.43a.76.76,0,0,0,.18.06Zm0-8.28a2,2,0,0,1,0,.4,2.77,2.77,0,0,0,0,.39.48.48,0,0,1,.54,0l-.1-.65a.34.34,0,0,0-.27-.13A1.06,1.06,0,0,1,92.46,56.12Zm.83,9.54a2.34,2.34,0,0,1-.29-.25l-.21.13a.41.41,0,0,0-.18.12v.51a.29.29,0,0,0,.14.08.6.6,0,0,1,.15.09l.21-.12a.83.83,0,0,0,.18-.13ZM93.11,54l-.32.33c.09.23.25.31.46.21s.21-.21.11-.43A2.41,2.41,0,0,0,93.11,54Zm.47,11.41h-.07l0,0S93.58,65.4,93.58,65.37Zm.18-11.3h0v.61c.12.1.2.14.24.13a1.69,1.69,0,0,0,.23-.2c-.14-.1-.28-.18-.4-.25A1.12,1.12,0,0,0,93.76,54.07Zm4,3.81c-.29-1.51-.56-3-.81-4.48s-.53-3-.85-4.52c0,.27-.09.53-.14.8s-.08.44-.11.66a4.93,4.93,0,0,1-.11.67,7.77,7.77,0,0,0-.21.93c0,.32-.11.64-.18,1s-.09.42-.13.63l-.09.63a3.25,3.25,0,0,1-.12.59c-.06.21-.12.4-.17.59s-.09.62-.12.91a4.63,4.63,0,0,1-.2.86,1,1,0,0,0-.07.38v.37Zm-3,1.95,0,0,0,0,0,0Zm2.84-13.72,0,0s0,0,0,0l0,0Zm.61-.68h0v.36h0ZM98.44,50l-.07-.07a.1.1,0,0,1-.08,0l.06,0Zm.18,9.94s0,0,0,0h0ZM99,45.07a2.34,2.34,0,0,0-.25.29,1.32,1.32,0,0,0,.29.25c.12-.12.18-.2.18-.25S99.16,45.21,99,45.07ZM98.94,66.2v0H98.8v.07S98.87,66.2,98.94,66.2Zm.07-12,0,0v0l0,0Zm.22.86c-.19.12-.24.25-.14.4h.32A.28.28,0,0,0,99.23,55.11ZM99.48,57a.33.33,0,0,0,.25-.1.29.29,0,0,0,.11-.22.22.22,0,0,0-.25-.25.31.31,0,0,0-.22.13.65.65,0,0,0-.14.23C99.23,57,99.31,57,99.48,57Zm.29,1.16.13-.33a2.24,2.24,0,0,1,.12-.29l-.21-.21-.06.09a.31.31,0,0,0,0,.09l0,0a.09.09,0,0,1-.06,0,1.78,1.78,0,0,0-.25.29c0,.16,0,.26.07.28A.89.89,0,0,0,99.77,58.14Zm-.36-12.57v0h0S99.39,45.57,99.41,45.57Zm.07,8.57s0,0,0,0h.07ZM100,66.43a2.63,2.63,0,0,1-.43,0,.19.19,0,0,0-.07.13.21.21,0,0,1,0,.12H100Zm-.39-3.72c0,.17.09.25.14.25a.79.79,0,0,0,.22,0A1.9,1.9,0,0,1,99.63,62.71Zm.25-7.42a2.22,2.22,0,0,0-.18.33l.2,0,.19,0a.61.61,0,0,1-.1-.14A.72.72,0,0,0,99.88,55.29ZM100,60.4H100l0,0S100,60.43,100,60.4Zm.15.47a.64.64,0,0,0-.13.6,4.49,4.49,0,0,1,.13.59.63.63,0,0,1,.43,0A.35.35,0,0,0,101,62c-.07-.36-.14-.68-.21-1a.33.33,0,0,0-.29-.11A.58.58,0,0,1,100.17,60.87ZM100.09,55s0,0,0,0l0,0,0,0A0,0,0,0,0,100.09,55Zm.33,9.9a.08.08,0,0,1,0-.07.19.19,0,0,1-.07.06l-.07,0a.13.13,0,0,1,0,.07l.08-.05Zm1.19.07a2.91,2.91,0,0,1,0,.47,1.25,1.25,0,0,1,.31,0,.93.93,0,0,0,.27,0,1,1,0,0,0,.23-.07.67.67,0,0,0,.24-.21H102l-.43-.43c-.07-.31-.14-.61-.2-.9s-.12-.59-.2-.9l-.14-.07-.14-.07s0,0-.08,0a.09.09,0,0,1-.07,0,1.47,1.47,0,0,1,.06.14.88.88,0,0,0,0,.15l-.11.12a.58.58,0,0,1-.11.13,2.06,2.06,0,0,1,.22.25l-.45.09a.36.36,0,0,0-.13.17l.29.21.29.22c0,.09-.08.17-.11.23s0,.13-.07.2a.37.37,0,0,1,.25.09c.07.06.17,0,.29,0a2,2,0,0,0,.11.28Zm-.33,1.74q.1-.18,0-.27l-.21-.19h-.29a.67.67,0,0,0-.2.18.25.25,0,0,0,0,.28Zm-.68-11.6a0,0,0,0,1,0,0l0,0ZM102,65.93h0v-.25h0Zm.5.61c.17-.12.21-.24.13-.36a.46.46,0,0,1-.09-.39l-.29.18a.34.34,0,0,1,.11.3A.23.23,0,0,0,102.47,66.54Z"/><path class="cls-1" d="M104.52,44.31h4.14l1.35,0c.45,0,.88,0,1.32.09a9,9,0,0,1,1.69.38,6.06,6.06,0,0,1,1.55.77,4.37,4.37,0,0,1,1.15,1.19,5.84,5.84,0,0,1,.56,1.19c.13.41.24.82.34,1.22s.08.62.11.92.06.61.1.92a9.94,9.94,0,0,1,.08,1.2v1.21a3.09,3.09,0,0,0,.73.88,3.16,3.16,0,0,1,.74.92l-1.08,1a1,1,0,0,0-.39.83,7.76,7.76,0,0,1,0,1c0,.3,0,.61,0,1a14.46,14.46,0,0,1-.11,1.76l-.15,1.1a6.76,6.76,0,0,1-.25,1.13,9.46,9.46,0,0,1-.56,1.54,4.91,4.91,0,0,1-3.36,2.68,5.51,5.51,0,0,1-.61.11,5.74,5.74,0,0,0-.62.1,14,14,0,0,1-2.41.09c-.79,0-1.58,0-2.37,0h-1.91a3.38,3.38,0,0,1-.06-.77c0-.25,0-.51,0-.77a6,6,0,0,1,0-.74c0-.25,0-.51,0-.78a2.9,2.9,0,0,1,.72,0,4.33,4.33,0,0,0,.72,0,2.79,2.79,0,0,1,.09-.34.65.65,0,0,0,0-.34c0-.13,0-.23,0-.31a1.47,1.47,0,0,1,0-.31,1.2,1.2,0,0,0,0-.32.58.58,0,0,1,0-.33s0-.07,0-.14a.92.92,0,0,1-.09-.47c0-.16,0-.33,0-.5V56.55c-.24-.24-.48-.47-.72-.68l-.76-.68.58-.65c.19-.22.38-.42.57-.62a1.14,1.14,0,0,0,.27-.36.73.73,0,0,0,.06-.43V52.7a1.67,1.67,0,0,1,.07-.47.32.32,0,0,0,0-.3.81.81,0,0,1-.07-.35V47.41h-1.48Zm2.23,1.23h0Zm.8,3.78v0l0,0s0,0,0,0Zm.5,16.85h0v.14h.08a.14.14,0,0,0,0-.09A.08.08,0,0,1,108.05,66.17Zm.32-16.85,0,0,0,0,0,0Zm.29,6.44c-.21.19-.3.37-.25.54h.25Zm0,1.73a1.23,1.23,0,0,1,0-.29V57a1.75,1.75,0,0,0-.18.29.22.22,0,0,1,.07.09Zm-.18-10.3.36-.36a.65.65,0,0,1-.15-.1.18.18,0,0,0,0,.07l-.05.07a.18.18,0,0,0-.11,0Zm.07,5.15.07-.07s0,0,0,0,0,0,0,0S108.59,52.27,108.59,52.34Zm.79,12a3.89,3.89,0,0,1,.83,0,2.36,2.36,0,0,0,.79-.07,2.73,2.73,0,0,0,2-1.59,4.33,4.33,0,0,0,.38-1.24c.06-.42.11-.85.16-1.28a1.25,1.25,0,0,0,0-.39c0-.15,0-.28,0-.4V57a2.75,2.75,0,0,0,0-.41.8.8,0,0,1,.06-.38.55.55,0,0,0,0-.4.64.64,0,0,1,0-.36.81.81,0,0,0,0-.38.67.67,0,0,1,0-.37.88.88,0,0,0,0-.55,1.23,1.23,0,0,1,0-.54.13.13,0,0,1,0-.21.15.15,0,0,0,0-.22.66.66,0,0,1-.09-.39c0-.15,0-.28,0-.4,0-.5,0-1-.06-1.53a4.68,4.68,0,0,0-.27-1.49,2.4,2.4,0,0,0-1.54-1.73,4,4,0,0,0-1.14-.22,4.78,4.78,0,0,0-1.17.07Zm.9-17.89a.67.67,0,0,1,.25,0c.17,0,.27,0,.29-.15a.25.25,0,0,0-.11-.36h-.43Zm.94-.47a.33.33,0,0,0-.15.4l.09.2c0,.06.08.14.13.23l.2-.09a.76.76,0,0,0,.23-.09.83.83,0,0,1-.27-.16,1.08,1.08,0,0,0-.2-.16A1.42,1.42,0,0,0,111.22,46Zm2.27,2.06a1.38,1.38,0,0,0-.11-.22l-.22-.14a1.44,1.44,0,0,0,.18.21Zm.14-1.7c.05.13.11.2.2.22a.45.45,0,0,0,.23,0,.23.23,0,0,0,.15-.22c0-.19-.11-.27-.33-.25l-.14.15Zm.86,9.72V56s-.07,0-.14,0v.07A.37.37,0,0,1,114.49,56.08Zm.4-2.19v0h-.14v0Zm.83-.68,0,0v0Z"/><path class="cls-1" d="M125.11,44.31a8.13,8.13,0,0,1,0,3.06h-1.15c0,.2.07.32.07.36,0,.24.09.48.12.71s.08.47.13.73.09.52.13.78.07.51.12.77.1.43.15.72.1.8.16,1.17.12.76.2,1.17c0,.24.08.48.1.72s.06.49.11.76a5.56,5.56,0,0,1,.16.77c0,.25.08.51.13.78s.08.51.11.75.06.49.11.76.09.48.12.72a6.2,6.2,0,0,0,.16.72.64.64,0,0,1,0,.36.4.4,0,0,0,.14.36c0-.29.09-.57.11-.85s.06-.54.11-.81.14-.63.2-1,.12-.64.2-1,.08-.51.1-.75.06-.49.11-.76.1-.44.15-.67.09-.44.14-.66.08-.52.11-.76a7.15,7.15,0,0,1,.11-.75c0-.22.09-.44.12-.67s.08-.46.13-.7.08-.44.11-.67.06-.46.1-.7a2.21,2.21,0,0,0,.06-.34c0-.11,0-.22,0-.34a5.76,5.76,0,0,0,.15-.81,4.29,4.29,0,0,1,.14-.81v-.11h-1.3V44.35a10.17,10.17,0,0,1,1.34-.06c.43,0,.86,0,1.29,0h2.56a.35.35,0,0,1,.18.33,4.71,4.71,0,0,0,0,.92,3.14,3.14,0,0,1-.07.91.48.48,0,0,0,0,.29.87.87,0,0,1,.06.32,1.57,1.57,0,0,1-.07.29h-1.08c-.05.15-.09.28-.13.42a2.83,2.83,0,0,0-.09.37c-.07.39-.14.76-.2,1.12s-.12.73-.2,1.11-.15.68-.25,1a8.71,8.71,0,0,0-.21,1,1.94,1.94,0,0,0-.06.58c0,.19,0,.38,0,.57a.41.41,0,0,0,.05.17,1,1,0,0,0,.13.16c.14.19.28.39.41.59s.27.4.42.59a4.81,4.81,0,0,1-.4.36l-.43.36-.22.18a.94.94,0,0,1-.25.18.86.86,0,0,0-.39.36,1.76,1.76,0,0,0-.18.47,5.69,5.69,0,0,0-.18.77l-.15.77c-.07.31-.14.62-.2.92s-.12.6-.19.91l-.15.87c-.05.28-.11.58-.18.89s-.1.54-.16.83-.13.57-.2.86a2.63,2.63,0,0,1,0,.43h1.58v3.1h-6.91a5,5,0,0,1,0-.77c0-.24,0-.49,0-.76a5,5,0,0,1,0-.77c0-.24,0-.49,0-.76h1.58c.07-.07.1-.14.07-.2a.77.77,0,0,0-.07-.16,2.22,2.22,0,0,0-.07-.57c0-.2-.1-.39-.14-.58-.1-.45-.2-.9-.29-1.33s-.19-.87-.29-1.33-.18-.9-.25-1.33-.16-.87-.25-1.33c0-.19-.11-.37-.17-.55a1.33,1.33,0,0,0-.3-.49l-.22-.21a1.36,1.36,0,0,0-.25-.22c-.17-.14-.34-.28-.52-.41l-.56-.42a1.21,1.21,0,0,1,.2-.41,4,4,0,0,0,.23-.34l.33-.43a1.5,1.5,0,0,0,.21-1.29c-.07-.29-.13-.57-.18-.85s-.11-.55-.18-.84-.1-.53-.16-.79-.13-.53-.2-.79-.1-.57-.16-.85-.11-.54-.16-.81a2.29,2.29,0,0,0-.15-.43h-1v-2a2.18,2.18,0,0,0,0-.51,1.19,1.19,0,0,1,.07-.54Zm-2.59,3.06s0,.05,0,.06a.09.09,0,0,0,0,0,.27.27,0,0,0,.13,0l.13,0a.78.78,0,0,0,0-.14.9.9,0,0,1,0-.18A3.23,3.23,0,0,0,122.52,47.37Zm.29,4.94v0a0,0,0,0,0,0,0l0,0Zm.25-3.79h.07a.58.58,0,0,0,0-.21h0Zm.15-3v0l0,0,0,0Zm0,20.32v.84H125a0,0,0,0,0,0,0l0-.07a.75.75,0,0,0-.57-.15.22.22,0,0,1-.08.15H124a.85.85,0,0,0,.18-.22,3.28,3.28,0,0,0-.25-.44.25.25,0,0,1-.14,0,.21.21,0,0,0-.15.07c0-.19-.07-.37-.09-.53a2.21,2.21,0,0,0-.09-.49.41.41,0,0,0-.14.37,1.09,1.09,0,0,1,0,.36l-.09,0S123.22,65.83,123.17,65.86Zm1.58-2.68a.23.23,0,0,0,0,.23,1.25,1.25,0,0,1,.15.24,1.39,1.39,0,0,0,0-.27C124.93,63.29,124.87,63.23,124.75,63.18Zm.51,3.45v0h0Zm.47-4.07.14-.07.14-.07c0-.24,0-.38-.07-.41s-.19,0-.43,0a1,1,0,0,1,0,.29C125.52,62.41,125.58,62.49,125.73,62.56Zm-.08,4a.07.07,0,0,1,0,0s0,0,0,.06h.43c-.07-.12-.14-.18-.22-.18A.24.24,0,0,0,125.65,66.59Zm1.84-8.24,0,0,0,0s0,0,0,0Zm.22-13.25a1.1,1.1,0,0,1,0,.36,1,1,0,0,0,.06.4l.18-.18.14-.14a1,1,0,0,0-.07-.33A1.22,1.22,0,0,0,127.71,45.1Zm.93,5.33s0,0,0,0h-.07Zm.11-.75a.5.5,0,0,0-.05.39,1.42,1.42,0,0,0,.16.36,1.57,1.57,0,0,1,.29.72,3.4,3.4,0,0,1,.07-.34.3.3,0,0,1,.21-.23l.26.11a2.12,2.12,0,0,1-.11-.33c0-.09-.06-.2-.11-.32l-.14.12-.15.13a.59.59,0,0,1-.25-.27A3.79,3.79,0,0,0,128.75,49.68Zm.07-.65v.39l.33.11a2,2,0,0,0,.28-.16,2.53,2.53,0,0,1,.33-.16,1.53,1.53,0,0,1-.52,0A2.16,2.16,0,0,1,128.82,49Zm.11-.15h.13a.22.22,0,0,1,.12,0v-.36h-.25Zm.22,3.17s0,.05,0,.07a.72.72,0,0,1,.11.15.09.09,0,0,0,0-.06l0-.05A1.1,1.1,0,0,0,129.15,52.05Zm.21-2v-.18s-.06,0-.18,0Zm0,1.08.07.07s0,0,.05,0h.06v0Z"/><path class="cls-1" d="M138.58,47.37v6.12a.91.91,0,0,0,.59-.05,2.71,2.71,0,0,0,.49-.31,1.27,1.27,0,0,0,.39-1,1.69,1.69,0,0,1,.76-.15c.31,0,.8,0,1.48.11a1.69,1.69,0,0,1,.14.65V56a.66.66,0,0,1,0,.25.76.76,0,0,0,0,.21,1.11,1.11,0,0,1,0,.17.22.22,0,0,0,0,.16.23.23,0,0,1,0,.29.08.08,0,0,0,0,.14.69.69,0,0,1,0,.58,1,1,0,0,0,0,.61h-2.27a1.51,1.51,0,0,0-.61-1.22,1.2,1.2,0,0,0-.4-.22.85.85,0,0,0-.5,0v7.38c.38,0,.75,0,1.11,0a10.51,10.51,0,0,1,1.12,0H143a1.48,1.48,0,0,1,0-.21.62.62,0,0,0,0-.18V61.34a2.45,2.45,0,0,1,0-.27,2.13,2.13,0,0,0,0-.27,2,2,0,0,0,0-.23,2.32,2.32,0,0,1,0-.24l0,0h2.66a7.6,7.6,0,0,1,.06,1c0,.57,0,1.23,0,2V65.5c0,.75,0,1.37,0,1.85a4,4,0,0,1-.83.06l-1.82,0c-.73,0-1.54,0-2.43,0h-5.07c-.77,0-1.4,0-1.88,0a0,0,0,0,0,0,0v-3a2.62,2.62,0,0,1,.79,0,2.62,2.62,0,0,0,.79,0V57.38a1.61,1.61,0,0,0-.5-1.22,3.31,3.31,0,0,0-.36-.31,2,2,0,0,1-.36-.31l-.16-.14a.4.4,0,0,1-.13-.25s0,0,0-.06a.09.09,0,0,1,0-.05,6.35,6.35,0,0,0,.54-.61,6.35,6.35,0,0,1,.54-.61,1.07,1.07,0,0,0,.36-.83V47.41h-1.55a4.09,4.09,0,0,1-.05-.78c0-.25,0-.5,0-.77a4.67,4.67,0,0,1,0-.74c0-.22,0-.47,0-.74a5.41,5.41,0,0,1,.86-.05l2,0h7.67c.71,0,1.23,0,1.57,0a4.88,4.88,0,0,1,0,1.08,9.73,9.73,0,0,0,0,1.08v4.36l-.12.07a.2.2,0,0,1-.13,0,1.11,1.11,0,0,0-.54,0,1.61,1.61,0,0,1-.54,0,5.15,5.15,0,0,0-.56,0,3.41,3.41,0,0,1-.55,0,1.17,1.17,0,0,1-.33-.08V49.79a4.35,4.35,0,0,0,0-.53,2.64,2.64,0,0,1,0-.48,1.17,1.17,0,0,0-.3-.85,1.35,1.35,0,0,0-.71-.49l-.28-.07Zm-4-1,.12.13.13.13.22-.13a.59.59,0,0,0,.18-.13V46l-.15-.12-.18-.13a2,2,0,0,1-.32.25Zm.75,8.29c0,.16,0,.26.08.28h.12a.37.37,0,0,1,.16,0l-.18-.13A.7.7,0,0,0,135.37,54.65Zm.54-1.81v1.23a2.19,2.19,0,0,1,.31,0h.31a.5.5,0,0,1,.18-.11.4.4,0,0,0,.18-.1l.09,0,.09.05a.3.3,0,0,1,.19-.3c.14-.06.17-.17.09-.34a1.89,1.89,0,0,1-.7-.29A1,1,0,0,0,135.91,52.84Zm.08-3.13s0,0,0,0v.07A0,0,0,0,1,136,49.71Zm1.36,7.35a2.2,2.2,0,0,0,0,.36,3.78,3.78,0,0,1,.47-.15v-.61a1.84,1.84,0,0,0,.25-.23,2,2,0,0,1,.18-.2,2.15,2.15,0,0,1,1.62.43,2.69,2.69,0,0,1,.79,1.12h1v-1.3l-.29-.13h-.36a.34.34,0,0,1,0,.14c0,.05,0,.11,0,.18l-.13-.11-.12-.07.21-.21a.59.59,0,0,1-.18-.27.32.32,0,0,0-.21-.24.09.09,0,0,0,0,0l0-.06-.22,0c-.07,0-.13-.08-.18-.2a.42.42,0,0,0,.06-.14.88.88,0,0,1,.05-.15c0-.12,0-.22-.05-.32a1.5,1.5,0,0,0-.06-.29.1.1,0,0,0-.07,0,.52.52,0,0,1,0,.17.92.92,0,0,0,0,.16l-.13.07-.13.07-.48-.27a2.84,2.84,0,0,0-1-.3,2.53,2.53,0,0,0-.46,0,.63.63,0,0,1-.18-.59,1.51,1.51,0,0,0,0-.6l-.13.54c0,.17-.08.35-.13.54q-.28,0-.36.18a.53.53,0,0,1-.25.33l-.2-.06-.23,0a1.15,1.15,0,0,0,.07.39.31.31,0,0,0-.09.13,1.12,1.12,0,0,1-.05.13l.09.1a.27.27,0,0,0,.09.11l-.65.22a3.25,3.25,0,0,0,.34.25l.31.22a1.52,1.52,0,0,0-.11.23,2.19,2.19,0,0,0-.07.23,1.9,1.9,0,0,0,.43.08.31.31,0,0,1,.22.21C137.26,56.89,137.35,56.94,137.35,57.06Zm-1.15-.22h-.14a.46.46,0,0,0-.07.22ZM136,45.32v.07s0,0,0,0,0,0,0,0Zm.47.76a3.22,3.22,0,0,0,.07-.43.4.4,0,0,0-.14-.22l-.15.14a1.6,1.6,0,0,1,.11.25A2.49,2.49,0,0,0,136.49,46.08Zm.25,12.13h-.36l-.11.54.15.13a.75.75,0,0,1,.14.12,1.36,1.36,0,0,1,.2-.11l.2-.1v-.37a.45.45,0,0,0-.09-.1Zm-.39-10.87v0l0,0Zm.14,3.45v.79a2.77,2.77,0,0,0,.38-.14l.34-.14a2.77,2.77,0,0,0-.07-.51q-.18-.18-.33-.12Zm.68,9.18a.85.85,0,0,0-.28.18.38.38,0,0,0-.11.29.63.63,0,0,0,.05.22,1,1,0,0,1,.09.21h.43a1.8,1.8,0,0,1,.29-.39l.11,0,.11,0v-.61a2,2,0,0,0-.33.29ZM137,45.36s0,0,0,0l0,0,0,0Zm.18,3.24a.76.76,0,0,1-.15.21.42.42,0,0,1,.11.18.54.54,0,0,0,.11.18c.29-.07.44-.19.47-.36a.76.76,0,0,1-.15-.21Zm0-.76,0,0v.07S137.15,47.84,137.17,47.84Zm.18,3.67,0,0h0Zm.08-.36,0,0,0,0s0,0,0,0S137.43,51.13,137.43,51.15Zm.18-4.86a0,0,0,0,0,0,0V46h-.07a.51.51,0,0,0,0,.13A.43.43,0,0,1,137.61,46.29Zm0,15.09.11.1.11.11v-.43A.47.47,0,0,0,137.64,61.38ZM137.79,51c0,.05-.09.08-.11.08l.11.11a.07.07,0,0,0,.07-.08A.3.3,0,0,0,137.79,51Zm.1,6.67c0-.05-.08-.08-.1-.08s-.06,0-.11.08l.07.07ZM138.47,45v0h.18v0Zm.14,1.08,0,0,0,0s0,0,0-.08ZM140,55.29c0,.07-.08.11-.11.11l-.1-.11a.05.05,0,0,0,0,0,.05.05,0,0,1,.05,0S139.89,55.25,140,55.29Zm1.66-2-.43-.33a1.49,1.49,0,0,1-.33.15c0,.12-.09.23-.12.32s0,.19.16.29h.47l.21-.22S141.64,53.4,141.64,53.28Zm-.29,2.7h.07l0,0ZM144.23,50s-.08-.08-.11-.08l-.11.11.15.08S144.18,50.09,144.23,50Z"/><path class="cls-1" d="M161,44.35l.07.07,0,.07v2.88a2.87,2.87,0,0,1-.77,0,5.08,5.08,0,0,0-.78,0,.47.47,0,0,1,0,.16.92.92,0,0,0,0,.16v5.1a1.45,1.45,0,0,0,.39,1.05l1,1.07a1.24,1.24,0,0,1,.15.22l-.56.54-.56.54a1.23,1.23,0,0,0-.39.89v7.08a.13.13,0,0,1,0,.07h1.48c.12.08.18.16.18.26v.25a1.72,1.72,0,0,0-.06.53c0,.16,0,.32.06.49a4,4,0,0,1,0,.6c0,.21,0,.41,0,.6v.22a.42.42,0,0,0-.06.08l0,.07h-4.39c-.89-2.79-1.77-5.53-2.63-8.24s-1.74-5.45-2.63-8.21a9,9,0,0,0,0,1.08c0,.65,0,1.44,0,2.39s0,2,0,3.08V60.6c0,1,0,1.8,0,2.49s0,1.08,0,1.2h1.33v3.1h-5.69V64.33h1.55v-6.9a2.43,2.43,0,0,0-.11-.73,1.25,1.25,0,0,0-.43-.6,3.6,3.6,0,0,1-.47-.39,5.23,5.23,0,0,0-.43-.4.09.09,0,0,1,0-.07.11.11,0,0,0,0-.07.61.61,0,0,1,.1-.18,8.09,8.09,0,0,0,.56-.61,8.27,8.27,0,0,1,.56-.61.91.91,0,0,0,.29-.65V47.41h-1.55V44.35H152c.24.72.47,1.44.7,2.18s.46,1.45.7,2.18c.19.57.37,1.15.52,1.72s.33,1.15.52,1.73.38,1.16.56,1.75.37,1.17.56,1.74.37,1.15.54,1.71.34,1.13.5,1.68a3.37,3.37,0,0,1,.13.38l.13.44V47.41h-1.44V44.35Zm-10.8.9a1.49,1.49,0,0,0,0,.21,1.8,1.8,0,0,1,0,.22,1.27,1.27,0,0,0,.36,0,.31.31,0,0,0,.11-.19.33.33,0,0,0-.22-.36l-.14.08Zm.11,1.55a1,1,0,0,0,.36,0c.14,0,.18-.14.11-.29s-.06-.11-.18-.18a.27.27,0,0,0-.29.18Zm1-1.23a.42.42,0,0,0,.14.06.5.5,0,0,1,.18.09,4.25,4.25,0,0,0-.25-.69.5.5,0,0,0-.09.29A1.81,1.81,0,0,1,151.36,45.57Zm.93,2a1.39,1.39,0,0,1-.12-.41.55.55,0,0,0-.16-.31c-.12.1-.18.19-.17.27a.82.82,0,0,1,0,.31Zm.44,3.61,0,0h0a0,0,0,0,0,0,0Zm5.36-3.86c-.07.07-.1.11-.07.11s0,.07.07.07.07,0,.07-.07A.2.2,0,0,0,158.09,47.37Zm.74,5.44,0,0Z"/><path class="cls-1" d="M162.55,51.08V44.35H174.5v6.77h-2.23c-.07,0-.1-.13-.1-.33,0-.36,0-.72,0-1.08a7.79,7.79,0,0,1,0-1.08,1.22,1.22,0,0,0-.2-.75,1.36,1.36,0,0,0-.72-.54,1.2,1.2,0,0,0-.39,0h-.64v2.92c0,.81,0,1.64,0,2.48a2,2,0,0,0,.64,1.47c.15.17.29.32.44.47s.3.31.46.5a4.89,4.89,0,0,0-.46.45c-.15.16-.31.31-.47.45a1.87,1.87,0,0,0-.61,1.44c0,.52,0,1.25,0,2.17s0,1.88,0,2.87V68H172v3.1h-7V68h1.87V57.48A1.87,1.87,0,0,0,166.3,56l-.36-.29a3.45,3.45,0,0,1-.36-.32,2.06,2.06,0,0,1-.22-.25.53.53,0,0,0,.09-.11l.05-.11,1-1.08a1.45,1.45,0,0,0,.39-1.07c0-.91,0-1.83,0-2.74V47.3a2.19,2.19,0,0,1-.5,0,1.54,1.54,0,0,0-.47,0,1.52,1.52,0,0,0-1.12,1.55v2.2a8.75,8.75,0,0,1-1.29.05A4.42,4.42,0,0,1,162.55,51.08Zm6.59,11.7h0v0h0Zm3-17.28a1.18,1.18,0,0,0,.08.23c0,.06.1.07.25,0a1.86,1.86,0,0,1-.18-.12Zm.36.54c0,.24.11.36.26.36l-.13-.14A1.27,1.27,0,0,1,172.45,46Z"/><path class="cls-1" d="M175.87,55.16,176,55l.72-.73a2.19,2.19,0,0,0,.69-1.62c0-.86,0-1.73,0-2.59V47.37H175.8c0-.26,0-.51,0-.74V44.49c.07-.12.15-.18.23-.18h6.1a2.87,2.87,0,0,1,0,.77,3.22,3.22,0,0,0,0,.76v1.5a6.31,6.31,0,0,1-.74,0,4.61,4.61,0,0,0-.74,0,.62.62,0,0,1,0,.18,1.62,1.62,0,0,0,0,.18v5a1.7,1.7,0,0,0,.51,1.26,6.13,6.13,0,0,1,.5.56c.15.18.32.37.51.56a.24.24,0,0,0,0,.12.19.19,0,0,1-.07.13,5.23,5.23,0,0,0-.43.4l-.43.39a1.46,1.46,0,0,0-.55,1.19c0,.72,0,1.43,0,2.14s0,1.42,0,2.14a6.36,6.36,0,0,0,.06.87,2.7,2.7,0,0,0,.23.83,1.71,1.71,0,0,0,1.33,1.15,2.57,2.57,0,0,0,1.26-.11,1.2,1.2,0,0,0,.7-.54,4.23,4.23,0,0,0,.35-.83,2.26,2.26,0,0,0,.09-.41c0-.16,0-.31,0-.45a13.7,13.7,0,0,0,.09-2.4c0-.8,0-1.61,0-2.43a1.41,1.41,0,0,0-.47-1.11l-.52-.54c-.15-.17-.33-.35-.52-.54l.22-.22,1-1.08a1,1,0,0,0,.25-.43,1.79,1.79,0,0,0,.07-.51V47.37h-1.47v-3a6,6,0,0,1,.79-.05l1.53,0h1.91c.68,0,1.33,0,2,0a3.78,3.78,0,0,1,0,.54c0,.26,0,.54,0,.85s0,.62,0,.93,0,.54,0,.71h-1.44v5.33a2,2,0,0,0,.61,1.48,4,4,0,0,0,.45.47,6.05,6.05,0,0,1,.48.51,4.89,4.89,0,0,0-.46.45c-.15.15-.29.29-.43.41a1.58,1.58,0,0,0-.53.71,2.75,2.75,0,0,0-.12.84c0,.8,0,1.58,0,2.37s0,1.55,0,2.32a8.14,8.14,0,0,1-.69,3,4.45,4.45,0,0,1-2,2.1,6.76,6.76,0,0,1-.92.36,3.82,3.82,0,0,1-1,.14l-.21,0-.25,0a1.05,1.05,0,0,0-.24,0,.2.2,0,0,1-.2,0,.76.76,0,0,0-.36-.06,2.17,2.17,0,0,1-.36,0,2,2,0,0,1-.61-.09l-.58-.16a4.09,4.09,0,0,1-1.42-.83,5.34,5.34,0,0,1-1-1.3,3,3,0,0,1-.38-.85c-.09-.3-.16-.6-.23-.92a7.66,7.66,0,0,1-.22-1.87V59.65c0-.71,0-1.42,0-2.14a1.88,1.88,0,0,0-.65-1.52,5,5,0,0,1-.42-.38Zm.9-9.16a.09.09,0,0,1,0,0S176.75,46,176.77,46Zm1.08,9.33s0,.08,0,.18l.07,0a.6.6,0,0,0-.11-.14v-.58a1.48,1.48,0,0,1-.25-.14l-.21-.15a4.22,4.22,0,0,0-.33.36c0,.13.05.24.07.35s.05.22.08.34l.32-.11Zm.8-2.81a.54.54,0,0,0-.18-.11.39.39,0,0,1-.18-.1.33.33,0,0,1,0-.17,1.16,1.16,0,0,0,0-.27,1.06,1.06,0,0,0-.05.36.29.29,0,0,1,0,.22.52.52,0,0,0-.15.3.84.84,0,0,0,0,.27q.18.07.21,0a.28.28,0,0,1,.18-.15,1.75,1.75,0,0,0,.18.29,1.35,1.35,0,0,1,.18.29l.18-.11a.65.65,0,0,0,.15-.1l-.24-.19-.19-.14Zm-.08,9.32a1.13,1.13,0,0,1,0-.25.52.52,0,0,0,0-.21.9.9,0,0,1,.45-.24.42.42,0,0,0,.34-.37l.11,0,.11,0,.27-.21.27-.26c0-.21,0-.43,0-.66a5,5,0,0,1,0-.67.72.72,0,0,0-.54-.79l-.27-.13L179,58l-.13.11-.19.14c.07-.19.06-.33,0-.41a.42.42,0,0,1-.13-.31c0-.12,0-.24-.05-.36s0-.26,0-.43a3.63,3.63,0,0,0-.11.45,1.66,1.66,0,0,1-.11.38,1.25,1.25,0,0,1-.16-.67,2.85,2.85,0,0,0-.05-.66v5a.74.74,0,0,0,.12.09.38.38,0,0,1,.13.08.62.62,0,0,0,0,.2,1.23,1.23,0,0,1,0,.2A1,1,0,0,1,178.57,61.84Zm-.46-8.31,0,0,0,0,0,0A0,0,0,0,1,178.11,53.53Zm.21,9.57v0Zm.07-16.2V47a.28.28,0,0,0,.15,0v0Zm.33,16.82v0h-.15v0Zm.07-1.26h.11c0-.17.06-.27,0-.29a.25.25,0,0,1-.05-.22c0-.09,0-.15-.16-.18a.26.26,0,0,0,0,.34A.66.66,0,0,1,178.79,62.46Zm.79-6.34a.53.53,0,0,0,.16-.2s0-.11.09-.23l-.16-.16-.23-.2a.42.42,0,0,0-.25-.51h-.29a.31.31,0,0,0-.25.18v.4a.24.24,0,0,0,.14.09.28.28,0,0,1,.11,0c0,.13.08.23.11.31a2.68,2.68,0,0,0,.07.27Zm-.39-9,0,0v0l0,0Zm.25,1.16a.71.71,0,0,1,.21.18Q179.65,48.09,179.44,48.24Zm.83,6,.07-.07a1.6,1.6,0,0,1-.25-.47.36.36,0,0,0-.09.12.77.77,0,0,1-.09.13l.19.14Zm.61.54a2,2,0,0,0-.2-.29.71.71,0,0,0-.27-.18c0,.24,0,.39,0,.43S180.61,54.81,180.88,54.79Zm.72,10.58h0l0,0Zm5.29-9.84c-.1-.06-.24-.17-.43-.31a3.07,3.07,0,0,0-.43-.34,1,1,0,0,0-.58-.16l-.11.21h-.14a.5.5,0,0,0-.18,0,.45.45,0,0,0,.14-.13.33.33,0,0,1,.11-.09,2.3,2.3,0,0,1-.32-.36,3.41,3.41,0,0,1-.38.38.86.86,0,0,0-.27.45l0,0c.22.24.44.46.65.66a1.52,1.52,0,0,1,.43.81.16.16,0,0,0,.11.09.3.3,0,0,1,.15.09l.21-.18.15-.14h.54c.07.12.14.24.21.38s.13.25.18.37,0,.18.11.18a1.17,1.17,0,0,1,0-.39.59.59,0,0,1,.14-.06l.18,0a1.17,1.17,0,0,1-.09-.33,1.21,1.21,0,0,0-.09-.32.29.29,0,0,0-.09.16.26.26,0,0,1-.09.16l-.36-.25a.38.38,0,0,1,0-.16v-.16a.37.37,0,0,0-.14,0h0V55.8a.79.79,0,0,1,.26,0,.73.73,0,0,1,.25.07l.2-.14a1.56,1.56,0,0,1,.19-.14A1,1,0,0,1,186.89,55.53Zm-1.48-3.41a.31.31,0,0,0,.36-.1.4.4,0,0,0,.11-.44l-.23-.16-.24,0Zm.58,9,0,0v.07A0,0,0,0,1,186,61.12Zm.07-4.39.18.15.29-.15Zm.11-5.9a0,0,0,0,0,0,0v0Zm.18,10.55,0,0h.08S186.35,61.4,186.35,61.38Zm.14-10.8c0,.19.09.28.26.28s.25-.09.25-.28a.32.32,0,0,0-.25-.33C186.58,50.25,186.49,50.36,186.49,50.58Zm.44,4.21a.21.21,0,0,1-.15.07.23.23,0,0,0-.14.07.54.54,0,0,0,0,.26.62.62,0,0,0,.27,0,.82.82,0,0,0,.2-.12Zm.14,3.71s0,0,0,0,0,0,.06,0Zm0-2.34a0,0,0,0,0,0,0v0Zm.54-2.09s0,0,0,0S187.65,54.09,187.65,54.07Z"/><path class="cls-1" d="M200.17,55.4l.27.13.24.09a2.4,2.4,0,0,1,.79.28,4.83,4.83,0,0,1,.68.51,1.72,1.72,0,0,1,.38.54c.09.19.16.39.24.61a2.14,2.14,0,0,1,.07.49,4,4,0,0,0,0,.48,4.18,4.18,0,0,1,.08.76q0,.36,0,.75a1.09,1.09,0,0,1,0,.33.49.49,0,0,0,0,.32,1.28,1.28,0,0,1,0,.65,4.56,4.56,0,0,1,0,.54,3.12,3.12,0,0,0,0,.54v1.85c0,.47,0,1,0,1.52s0,1,0,1.49,0,.72,0,.79h1.47v3.06h-2.59a2,2,0,0,1-1.58-.65,1.88,1.88,0,0,1-.54-1.36V63.57c0-.84,0-1.66,0-2.48s0-1.64,0-2.49a2.22,2.22,0,0,0-.47-1.26,1.19,1.19,0,0,0-.38-.27l-.49-.16a4.68,4.68,0,0,0-1.29-.09,7.87,7.87,0,0,1-1.37,0v2.77a2.68,2.68,0,0,0,0,.39.68.68,0,0,1-.09.4v.14a.61.61,0,0,1,.09.36,2.17,2.17,0,0,0,0,.36V68h1.37a4,4,0,0,1,0,.77c0,.25,0,.51,0,.77v1.48a8.92,8.92,0,0,1-1,0c-.59,0-1.23,0-1.93,0h-2c-.65,0-1.07,0-1.27,0v-3h1.48V57.43a1.91,1.91,0,0,0-.57-1.37l-.46-.45c-.15-.15-.31-.33-.48-.52l.54-.54a3.73,3.73,0,0,0,.77-1,3.68,3.68,0,0,0,.2-1.39c0-.69,0-1.4,0-2.12s0-1.45,0-2.17v-.47h-1.48v-3a1.52,1.52,0,0,1,.37,0h6a9,9,0,0,1,1,.06c.35,0,.69.08,1,.12l.69.16.65.2a3,3,0,0,1,1.17.83,4.06,4.06,0,0,1,.7,1.26,3.12,3.12,0,0,1,.23.87q.06.42.09.9c0,.33.09.68.11,1a6.5,6.5,0,0,1,0,1.08c0,.43-.08.87-.09,1.31a4.11,4.11,0,0,1-.28,1.32,3.12,3.12,0,0,1-.57.95,2.17,2.17,0,0,1-.94.63l-.43.16Zm-4.39-1.62,1.1,0a10,10,0,0,0,1.1,0,2.09,2.09,0,0,0,.84-.22,1.22,1.22,0,0,0,.6-.64,2.8,2.8,0,0,0,.25-1.05c0-.33,0-.66,0-1v-1c0-.24,0-.47,0-.68s-.05-.43-.09-.65a1.86,1.86,0,0,0-.24-.54,1.1,1.1,0,0,0-.45-.4,2.15,2.15,0,0,0-1-.25l-.91,0h-1.29v5.5a.54.54,0,0,0,0,.22.17.17,0,0,1,0,.18c-.07.12-.09.22-.05.29A2.72,2.72,0,0,0,195.78,53.78Zm.9,1.37h0v0h0Zm1.37-.58v0h.14a.11.11,0,0,0,0-.07A.16.16,0,0,0,198.05,54.57Zm2.34,3.82a.32.32,0,0,0,0,.14,1.28,1.28,0,0,1,0,.22c.08-.19.06-.31,0-.36v-.24a.39.39,0,0,0-.07-.23.48.48,0,0,1,0,.27C200.26,58.28,200.29,58.34,200.39,58.39Zm0,2.92c0,.26,0,.71,0,1.36s0,1.34,0,2.07,0,1.43,0,2.09a6,6,0,0,0,.12,1.35,2.08,2.08,0,0,1,.72-.16.68.68,0,0,0,.58-.42.21.21,0,0,0,.11,0,.19.19,0,0,1,.1,0l.22-.11V61.92a.76.76,0,0,0-.18-.06l-.18,0-.11.13-.1.12a.43.43,0,0,1-.22,0l.11-.32-.08-.16a.75.75,0,0,0-.1-.2l-.15.06-.14.05c-.12-.05-.16-.11-.11-.2a.26.26,0,0,0,0-.27.21.21,0,0,1,0-.21.38.38,0,0,0,0-.26,2.45,2.45,0,0,1,0-.27.5.5,0,0,0,0-.3c-.05.26-.09.5-.13.7s-.08.41-.12.63a.39.39,0,0,0-.15,0Zm0-.58a1.36,1.36,0,0,1,.22-.25.58.58,0,0,1-.11-.13l-.11-.16Zm.43,7.92h0v-.18h0Zm.61.61a.31.31,0,0,0,0-.3.54.54,0,0,1-.09-.31.27.27,0,0,0-.13,0l-.13,0a.24.24,0,0,1,.13.3C201.16,69.12,201.24,69.21,201.43,69.26Zm.07-10.19a3.5,3.5,0,0,1,.37.22,4.14,4.14,0,0,0,.39-.22v-.43c-.09-.12-.18-.17-.27-.14a.61.61,0,0,1-.27,0A.46.46,0,0,0,201.5,59.07Zm.37-11.59-.08.07a.08.08,0,0,0,0,.06.08.08,0,0,1,0,0A.48.48,0,0,0,201.87,47.48Zm.28,13.93a0,0,0,0,1,0,0v.07S202.15,61.44,202.15,61.41Zm1.37,7.92,0,0a.14.14,0,0,1-.09,0l-.09,0v.07Z"/><path class="cls-1" d="M210.61,47.37v6.12a.93.93,0,0,0,.6-.05,2.33,2.33,0,0,0,.48-.31,1.31,1.31,0,0,0,.4-1,1.63,1.63,0,0,1,.76-.15c.31,0,.8,0,1.47.11a1.54,1.54,0,0,1,.15.65V56a.93.93,0,0,1,0,.25.78.78,0,0,0,0,.21,1,1,0,0,1,0,.17.22.22,0,0,0,0,.16.21.21,0,0,1,0,.29.08.08,0,0,0,0,.14.69.69,0,0,1,0,.58,1,1,0,0,0,0,.61h-2.27a1.51,1.51,0,0,0-.61-1.22,1.26,1.26,0,0,0-.39-.22.88.88,0,0,0-.51,0v7.38c.39,0,.76,0,1.12,0a10.53,10.53,0,0,1,1.12,0H215a1.49,1.49,0,0,1,0-.21,1.41,1.41,0,0,0,0-.18V61.34a1.23,1.23,0,0,1,0-.27,2.26,2.26,0,0,0,0-.27,1.85,1.85,0,0,0,0-.23,1.06,1.06,0,0,1,0-.24l0,0h2.67a8.66,8.66,0,0,1,.05,1c0,.57,0,1.23,0,2V65.5c0,.75,0,1.37,0,1.85a4,4,0,0,1-.82.06l-1.82,0c-.74,0-1.55,0-2.43,0h-5.08c-.77,0-1.39,0-1.87,0,0,0,0,0,0,0v-3a2.62,2.62,0,0,1,.79,0,2.68,2.68,0,0,0,.8,0V57.38a1.58,1.58,0,0,0-.51-1.22,3.31,3.31,0,0,0-.36-.31,2,2,0,0,1-.36-.31L206,55.4a.39.39,0,0,1-.12-.25.09.09,0,0,0,0-.06s0,0,0-.05a6.35,6.35,0,0,0,.54-.61,5.23,5.23,0,0,1,.54-.61,1.07,1.07,0,0,0,.36-.83V47.41h-1.55a2.93,2.93,0,0,1,0-.78c0-.25,0-.5,0-.77a4.61,4.61,0,0,1,0-.74c0-.22,0-.47,0-.74a5.61,5.61,0,0,1,.87-.05l2,0h7.67c.71,0,1.23,0,1.56,0a5.58,5.58,0,0,1,0,1.08,9.73,9.73,0,0,0,0,1.08v4.36l-.13.07a.16.16,0,0,1-.12,0,1.11,1.11,0,0,0-.54,0,1.61,1.61,0,0,1-.54,0,5.15,5.15,0,0,0-.56,0,3.54,3.54,0,0,1-.56,0,1.12,1.12,0,0,1-.32-.08V49.79c0-.2,0-.37,0-.53a2,2,0,0,1,0-.48,1.19,1.19,0,0,0-.31-.85,1.33,1.33,0,0,0-.7-.49,1.57,1.57,0,0,0-.29-.07Zm-4-1,.13.13.13.13.21-.13a.59.59,0,0,0,.18-.13V46l-.14-.12-.18-.13a1.74,1.74,0,0,1-.33.25Zm.76,8.29a.72.72,0,0,0,.07.28h.13a.34.34,0,0,1,.16,0l-.18-.13Zm.54-1.81v1.23a2.08,2.08,0,0,1,.3,0h.31a.78.78,0,0,1,.18-.11.4.4,0,0,0,.18-.1l.09,0,.09.05a.31.31,0,0,1,.2-.3c.13-.06.16-.17.09-.34a1.76,1.76,0,0,1-.7-.29A1,1,0,0,0,208,52.84Zm.07-3.13a0,0,0,0,1,0,0v.07S208,49.71,208,49.71Zm1.37,7.35a1.47,1.47,0,0,0,0,.36,3.11,3.11,0,0,1,.46-.15v-.61a1.94,1.94,0,0,0,.26-.23,2,2,0,0,1,.18-.2,2.18,2.18,0,0,1,1.62.43,2.78,2.78,0,0,1,.79,1.12h1v-1.3l-.29-.13h-.36a.68.68,0,0,1,0,.14c0,.05,0,.11-.05.18l-.13-.11-.13-.07.22-.21a.46.46,0,0,1-.18-.27.33.33,0,0,0-.22-.24s0,0,0,0,0,0,0-.06l-.22,0c-.07,0-.13-.08-.18-.2a.78.78,0,0,0,0-.14.47.47,0,0,1,.06-.15,2.21,2.21,0,0,1-.06-.32,2.93,2.93,0,0,0,0-.29.13.13,0,0,0-.07,0,1.11,1.11,0,0,1,0,.17,1,1,0,0,0,0,.16l-.12.07-.13.07-.49-.27a2.86,2.86,0,0,0-.48-.2,3.25,3.25,0,0,0-.47-.1,2.63,2.63,0,0,0-.47,0,.63.63,0,0,1-.18-.59,1.22,1.22,0,0,0,0-.6q-.07.3-.12.54c0,.17-.08.35-.13.54q-.28,0-.36.18a.57.57,0,0,1-.25.33l-.2-.06-.23,0a1.15,1.15,0,0,0,.07.39.31.31,0,0,0-.09.13.49.49,0,0,1-.06.13l.09.1a.27.27,0,0,0,.09.11l-.64.22a3.25,3.25,0,0,0,.34.25,2.32,2.32,0,0,1,.3.22,1.33,1.33,0,0,0-.1.23,2,2,0,0,0-.08.23,2.07,2.07,0,0,0,.44.08.31.31,0,0,1,.21.21C209.29,56.89,209.39,56.94,209.39,57.06Zm-1.15-.22h-.15a.61.61,0,0,0-.07.22Zm-.18-11.52v.07s0,0,0,0,0,0,0,0Zm.47.76c0-.24.07-.39.07-.43a.38.38,0,0,0-.15-.22l-.14.14c.05.1.08.18.11.25A1.33,1.33,0,0,0,208.53,46.08Zm.25,12.13h-.36l-.11.54.14.13a.79.79,0,0,1,.15.12l.19-.11.2-.1v-.37a.22.22,0,0,0-.09-.1Zm-.4-10.87v0l0,0Zm.15,3.45v.79a2.61,2.61,0,0,0,.37-.14l.35-.14a3.07,3.07,0,0,0-.08-.51c-.12-.12-.22-.16-.32-.12Zm.68,9.18a.9.9,0,0,0-.29.18.42.42,0,0,0-.11.29.49.49,0,0,0,.06.22l.09.21h.43a1.52,1.52,0,0,1,.29-.39l.11,0,.1,0v-.61a2.53,2.53,0,0,0-.32.29ZM209,45.36s0,0,0,0l0,0,0,0Zm.18,3.24a.76.76,0,0,1-.14.21.54.54,0,0,1,.11.18.42.42,0,0,0,.11.18c.28-.07.44-.19.46-.36a1.08,1.08,0,0,1-.14-.21Zm0-.76,0,0v.07A0,0,0,0,1,209.21,47.84Zm.18,3.67,0,0h0A.11.11,0,0,0,209.39,51.51Zm.07-.36,0,0,0,0s0,0,0,0A0,0,0,0,1,209.46,51.15Zm.18-4.86s0,0,0,0V46h-.07a.53.53,0,0,0,0,.13A.43.43,0,0,1,209.64,46.29Zm0,15.09.11.1.1.11v-.43A.5.5,0,0,0,209.68,61.38ZM209.82,51c0,.05-.08.08-.11.08l.11.11c.05,0,.07,0,.07-.08A.2.2,0,0,0,209.82,51Zm.11,6.67c-.05-.05-.09-.08-.11-.08s-.06,0-.11.08l.08.07ZM210.5,45v0h.19v0Zm.15,1.08,0,0,0,0a.1.1,0,0,1,0-.08ZM212,55.29c-.05.07-.09.11-.11.11l-.11-.11a.07.07,0,0,0,.06,0s0,0,0,0S211.92,55.25,212,55.29Zm1.65-2-.43-.33a1.38,1.38,0,0,1-.32.15l-.13.32c0,.1,0,.19.16.29h.47l.22-.22A.4.4,0,0,0,213.67,53.28Zm-.28,2.7h.07l0,0ZM216.27,50c-.05,0-.09-.08-.11-.08l-.11.11.14.08S216.22,50.09,216.27,50Z"/></svg>