<?xml version="1.0" encoding="UTF-8"?>
<svg width="522px" height="338px" viewBox="0 0 522 338" version="1.1" xmlns="http://www.w3.org/2000/svg" xmlns:xlink="http://www.w3.org/1999/xlink">
    <!-- Generator: Sketch 47.1 (45422) - http://www.bohemiancoding.com/sketch -->
    <title>produce-truck</title>
    <desc>Created with Sketch.</desc>
    <defs></defs>
    <g id="Page-1" stroke="none" stroke-width="1" fill="none" fill-rule="evenodd">
        <g id="produce-truck" fill-rule="nonzero">
            <g id="Group">
                <path d="M407.57,105.2 C404.81,103.2 406.2,100.07 405.49,97.55 C404.622452,94.5098936 404.390967,91.3235759 404.81,88.19 C405.87,80.31 406.4,72.38 407.28,64.49 C408.05,57.57 408.2,57.59 401.68,55.49 C398.68,53.74 395.43,54.69 392.29,54.42 C391.225581,54.4155422 390.184644,54.1067309 389.29,53.53 C388.29,50.04 390.98,50.24 393,50.08 C395.02,49.92 397.17,51.08 399.33,50.54 C400.02,49.94 399.6,49.06 399.88,48.35 C400.098279,47.9590263 400.492687,47.6982649 400.937917,47.6505616 C401.383148,47.6028583 401.823847,47.7741441 402.12,48.11 C404.03,50.77 405.85,53.01 409.89,52.64 C412.67,52.38 412.8,55.12 412.56,57.47 C411.43,68.35 410.35,79.24 409.26,90.13 L409.26,92.13 L407.57,105.2 Z" id="Shape" fill="#0A0B0F"></path>
                <path d="M512.9,126.66 C517.06,127.66 516.9,130.77 516.75,133.66 C515.623333,156.6 514.41,179.536667 513.11,202.47 C512.94,205.6 512.48,208.72 512.11,211.84 C511.53,216.96 508.11,219.05 503.51,218.92 C498.91,218.79 499.32,221.78 499.4,224.5 C499.51,228.26 502.27,225.98 503.88,226.16 C507.88,226.6 511.79,226.93 515.75,227.29 C519.33,227.61 518.99,231.51 521.13,233.14 L521.13,238.14 C516.27,246.61 507.71,244.98 500.13,245.46 C497.05,245.66 495.58,246.46 494.97,249.29 C492.52,260.73 486.03,269.73 478.09,278 C467.19,289.34 451.51,292.25 437.09,285.24 C438.2,281.76 440.65,283.38 442.62,283.93 C448.1,285.47 453.53,286.93 459.1,284.39 C474.27,278.97 483.71,267.91 489.51,253.33 C491.63,248.01 491.33,247.68 485.42,247.33 C484.08395,247.39815 482.751605,247.137176 481.54,246.57 C481.118103,246.289036 480.825193,245.85189 480.725784,245.354843 C480.626375,244.857797 480.72862,244.341619 481.01,243.92 L481.08,243.82 C485.08,241.61 489.48,241.96 493.72,241.82 C499.05,241.7 504.29,240.95 509.59,240.63 C511.263384,240.646536 512.893855,240.100699 514.22,239.08 C517.43,236.36 516.96,232.79 513,231.44 C508.406491,229.838362 503.414174,229.789176 498.79,231.3 C494.673907,232.573113 490.469033,233.539097 486.21,234.19 C485.373591,234.328378 484.527741,234.40193 483.68,234.41 L474,234.41 C470.63,233.85 466.8,235.78 463.93,232.54 C465.05,230.23 467.27,230.78 469.15,230.63 C474.76,230.18 480.36,229.44 486,229.37 C488.677925,229.417167 491.305961,228.642368 493.53,227.15 C495.17,226.22 496.05,224.97 495.17,223.06 C494.4,221.39 492.8,221.29 491.31,221.41 C481.07,222.28 470.74,221.82 460.53,223.28 C454.100935,224.244886 447.597789,224.62644 441.1,224.42 C437.39,223.64 432.91,224.81 430.64,220.33 C431.88,217.21 434.64,219.33 436.64,218.51 C454.85,216.51 473.17,216.74 491.42,215.6 C493.91,215.44 496.42,215.27 498.87,214.92 C507.29,213.73 507.21,213.74 508.34,205.2 C510.07,192.14 508.99,178.94 510.66,165.88 C511.93,155.98 511.85,146 512.27,136.05 C512.44,131.96 510.37,130.35 506.72,129.93 C505.567284,129.756821 504.405176,129.6533 503.24,129.62 C477.78,129.75 452.33,129.17 426.87,130.25 C417.75,130.64 408.65,132.18 399.48,131.14 C397.87,130.49 395.88,130.48 394.96,128.54 C396.22,126.37 398.68,126.82 400.52,125.94 C410.02,123.53 419.77,124.94 429.38,124.09 C443,122.81 456.7,124.23 470.32,123.09 C477.2,123.09 484.09,123.41 490.98,123.17 C492.758672,123.608237 494.58912,123.80003 496.42,123.74 L512.9,126.66 Z" id="Shape" fill="#0A0B0F"></path>
                <path d="M0.12,221.11 C2,219.99 1.12,218.11 1.12,216.65 C1.07274568,210.230405 4.35341307,204.244228 9.79,200.83 C10.57,200.3 12.16,200.17 11.94,199.1 C10.56,192.39 14.24,185.77 12.18,179.1 C12.0349959,177.989458 12.5609217,176.898358 13.52,176.32 C15.5838232,175.212028 17.9267976,174.732309 20.26,174.94 C27.37,175.35 34.5,174.77 41.6,175.68 C44.4334316,176.11523 47.3168092,175.305988 49.51,173.46 C53.5788808,169.994282 58.4162624,167.549879 63.62,166.33 C67.26,165.54 68.99,163.33 69.26,159.78 C70.14,148.38 72.34,137.12 72.44,125.61 C72.5,118.86 73.62,112.05 77.67,106.21 C77.9895251,106.001296 78.3828818,105.938741 78.7513865,106.038027 C79.1198913,106.137313 79.4285763,106.38902 79.6,106.73 C80.4,108.33 79.87,109.93 79.55,111.53 C78.55,116.69 78.55,116.69 83.82,116.72 C84.6576266,116.503837 85.4593542,116.166977 86.2,115.72 C86.6278775,115.594995 87.0617559,115.491532 87.5,115.41 C82.67,109.2 84.25,103.33 88.38,97.58 C88.75,97.07 89.17,96.46 88.26,95.98 C86.45,94.51 84.2,93.51 83.34,91.1 C83.2555181,90.4179819 83.4304107,89.7291192 83.83,89.17 C85.27,88.71 86.15,87.57 87.23,86.6 C88.89,85.1 90.84,84.18 92.36,86.96 C92.24,87.96 91.22,88.5 91.26,89.85 C93.53,88.71 95.95,89.58 98.26,88.94 C99.34,88.32 99.72,86.72 101.26,86.75 C105.44,91.37 100.1,92.53 98.38,95.51 C101.83,94.11 105.19,92.22 109.05,92.86 C109.721829,93.1191075 110.237786,93.6719189 110.45,94.36 C109.03,99.36 110.34,101.28 115.19,103.11 C119.972888,104.945557 125.308924,104.673125 129.88,102.36 C130.597857,102.281701 131.323522,102.399189 131.98,102.7 C132.758903,103.271542 133.458363,103.944101 134.06,104.7 C134.66,105.62 136.13,106.34 134.78,107.7 C132.98,108.7 130.9,108.33 129,108.85 C128.07,109.11 126.89,109.21 126.82,110.45 C126.75,111.69 127.75,112.11 128.69,112.45 C129.459187,112.763406 130.294333,112.880258 131.12,112.79 C137.173962,112.07483 143.263967,111.70756 149.36,111.69 C152.12,111.69 152.86,109.69 153.36,107.49 C153.86,105.29 153.36,103.22 153.27,101.09 C153.53,99.46 152.27,97.9 153.02,96.25 C154.35,92.25 153.2,88.02 154.15,83.99 C155.25,80.34 154.4,76.57 154.84,72.9 C155.425862,71.4086207 155.69161,69.8107243 155.62,68.21 C155.62,67.54 154.62,68.21 155.24,68.09 C155.45,68.09 155.54,68.18 155.53,68.49 C155.47,69.56 156.02,70.86 154.44,71.37 C152.03,69.64 152.68,67.13 152.74,64.77 C157.45,60.22 157.44,60.01 152.09,56.43 C152.78,59.69 154.31,62.88 151.69,65.79 C149.11,66.67 146.69,66.87 144.91,64.24 C144.81,62.66 145.09,61.09 142.66,60.67 C140.72086,60.336314 138.806496,59.8719219 136.93,59.28 C136.676825,58.8893129 136.538248,58.4354738 136.53,57.97 C139.38,54.34 142.87,54.32 148.08,58.04 C146.44,55.67 143.86,55.2 141.77,53.96 C140.71,53.42 139.49,53.12 138.87,51.96 C142.37,48.96 144.87,48.78 152.36,51.26 C153,51.46 152.49,50.5 152.5,51.17 C145.26,48.23 138.16,49.17 131.12,51.94 C130.591377,51.8491986 130.093324,51.6293685 129.67,51.3 C127.41,48.3 127.26,45.23 129.67,42.19 C130.082736,41.8813483 130.619471,41.7918924 131.11,41.95 C132.11,45.38 133.73,46.67 137.67,45.28 C140.87,44.14 144.56,44.73 148.04,45.34 C152.04,46.05 153.04,45.02 152.36,40.85 C152.07,39.07 151.04,37.4 151.63,35.5 C154.63,36.15 156.46,30.63 159.93,34.01 C161.08,39.29 159.93,44.67 160.56,49.94 C162.29,64.61 160.2,79.08 158.69,93.59 C158.05,99.71 158.91,105.9 157.76,112.03 C157.05,115.84 155.45,117.03 151.42,117.17 C143.1,117.4 134.77,117.25 126.42,117.65 C121.42,117.89 116.6,119.05 113.48,123.87 C111.55,126.87 108.81,127.13 105.17,126.07 C97.17,123.75 89.62,118.88 82.33,121.17 C85.0452445,121.00803 87.7684581,121.034761 90.48,121.25 C91.7189611,121.194703 92.7893467,122.107807 92.93,123.34 C93.05,124.93 91.58,125.05 90.5,125.26 C88.0217069,125.595432 85.5175499,125.699214 83.02,125.57 C79.43,125.57 77.39,127.22 77.02,130.86 C76.12,140.86 74.94,150.73 73.63,160.63 C73.2429058,162.49084 74.2827611,164.353204 76.07,165 C98.23,175.43 109.26,193.81 113.07,217.22 C114.61,226.59 117.46,228.49 127.01,228.33 C133.94,228.21 140.84,227.53 147.77,227.69 C150.01,230.8 147.77,231.9 145.38,232.56 C139.83,234.08 134.16,233.67 128.53,233.06 C126.38,232.83 124.25,232.53 122.09,232.47 C112.55,232.24 109.61,229.54 108.65,220.21 C107.55,209.46 104.55,199.34 98.42,190.32 C94.77,184.95 90.9,179.78 85.65,175.78 C73.65,166.64 59.57,168.11 49.75,179.58 C42.87,187.58 39.05,197.11 36.46,207.19 C35.93,209.27 35.46,211.43 36.9,213.42 C37.48,215.42 37.72,217.17 34.83,217.28 C30.83,208.46 21.12,209.14 14.12,205.21 C11.9,203.98 9.9,205.75 8.79,207.74 C5.33441087,213.685794 3.886215,220.58664 4.66,227.42 C5.03,230.49 7.3,232.52 9.72,233.91 C15.83,237.41 22.33,239.82 29.54,239.91 C32.28,239.91 34.4,239.13 35.88,236.79 C36.7289588,235.985757 37.8329596,235.504526 39,235.43 C39.83,235.43 40.79,235.43 41,236.43 C41.34,237.88 39.6,237.43 39.14,238.21 C37.66,242.87 34.22,243.39 29.91,243.13 C23.6408662,242.778298 17.4845988,241.312036 11.73,238.8 C6.59,236.52 2.53,233.25 0.13,228.11 L0.12,221.11 Z" id="Shape" fill="#121416"></path>
                <path d="M291.24,294.52 C288.58,306.27 284.39,317.29 275.8,326.13 C270.893061,331.13673 264.477758,334.393567 257.54,335.4 C255.06,335.81 252.31,335.4 250.12,337.12 L244.12,337.12 C243.28,335.24 241.36,335.52 239.85,335.06 C230.389376,332.288662 221.593431,327.616773 214,321.33 C203.85,312.79 201,300.78 200.76,288.33 C200.49,270.94 206.56,255.86 219.68,243.99 C220.94,242.85 221.01,242.15 219.09,241.99 C219.46,239.58 221.71,239.53 223.29,238.64 C226.54,238.78 229.48,237.29 232.63,236.88 C234.23,236.77 235.82,236.78 237.42,236.76 C239.68,237.19 243.55,235.76 243.66,238.76 C243.74,241.09 239.86,240.28 237.66,240.48 C236,240.63 234.33,240.56 232.93,241.66 C219.76,246.91 211.54,256.81 207.8,270.11 C203.7,284.7 203.1,299.26 211.41,313.03 C213.79,316.97 217.28,319.28 221,321.5 C229.65,326.68 238.6,330.92 249,330.82 C253.562939,330.930213 257.914528,328.898732 260.76,325.33 C265.219266,320.105268 268.079881,313.707074 269,306.9 C270.39,296.83 271.72,286.8 270,276.62 C268,264.42 263.08,253.76 253.7,245.43 C252.7,244.54 251.7,243.65 251.63,242.16 C252.38,239.84 253.98,240.57 255.52,241.07 C264.015163,247.87946 270.043103,257.286699 272.68,267.85 C276.44,282.85 275.68,298.09 272.19,313.1 C270.718728,318.981313 267.796289,324.399858 263.69,328.86 C277.38,322.75 281.94,310.58 285.48,297.74 C286.05,295.67 286.08,293.46 287.05,291.48 C288.170258,287.751136 288.117896,283.768126 286.9,280.07 C285.98,277.31 285.14,274.54 286.62,271.7 C289.62,272.01 291.28,273.96 291.44,278.34 C291.68,283.72 292,289.11 291.24,294.52 Z" id="Shape" fill="#151515"></path>
                <path d="M167.12,1.11 L167.12,0.11 L189.12,0.11 L189.12,1.05 C187.12,3.12 184.51,2.7 182.12,2.55 C177.12,2.22 171.91,3.77 167.12,1.11 Z" id="Shape" fill="#E2DDDF"></path>
                <path d="M232.12,241.11 C235.05,237.01 239.7,240.58 243.56,238.41 L236.81,237.98 C237.14,236.42 238.43,236.77 239.48,236.63 C234.79,237.26 230.06,237.2 225.35,237.69 C214.11,237.62 202.89,237.55 191.66,237.57 C189.27,237.57 186.87,237.57 184.48,237.57 C175.48,236.05 166.4,236.71 157.4,235.87 C157.09,235.97 156.6,235.87 156.48,236.02 C156.15,236.43 156.72,236.38 156.88,236.45 C157.66,236.78 158.41,237.09 158.13,238.18 C153.47,238.77 149.96,242.75 144.77,242.18 C139.58,241.61 134.77,242.25 130.24,238.56 C126.08,235.18 126.59,240.56 125.24,242.33 C124.15,242.02 125.41,238.74 122.77,240.33 C122.13,240.13 121.53,239.84 120.88,239.69 C110.71,237.45 110.81,237.49 107.26,247.14 C103.71,256.79 97.93,264.58 89.1,270 C87.7009819,270.882523 86.4434366,271.971496 85.37,273.23 C79.88,274.47 74.84,273.08 69.98,270.62 C70.76,268.56 72.67,268.76 74.21,268.84 C85.21,269.36 92.27,262.98 98.31,255.1 C101.480953,251.001436 103.617902,246.199305 104.54,241.1 C105.001154,238.496897 104.826185,235.820892 104.03,233.3 C102.03,226.3 101.36,218.93 99.48,211.84 C97.82,205.56 96.61,199.23 92.23,193.97 C88.5372732,189.281622 82.6289064,186.912181 76.72,187.75 C64.87,189 56.48,195.23 51.11,206 C46.34,215.56 45.54,225.75 45.11,236.08 C45.05,237.4 45.38,238.75 44.56,239.94 C44.31,240.15 43.98,240.37 43.76,240.25 C43.06,239.87 42.29,239.93 42.02,240.47 C41.26,239.47 40.95,237.93 39.19,238.17 C39.57,237.69 40.34,237.09 40.24,236.74 C39.92,235.57 39.05,236.4 38.42,236.52 C37.79,236.64 36.91,236.91 36.16,237.11 C32.56,230.61 32.71,223.92 35.16,217.11 C36.74,216.55 37,215.55 36.16,214.17 C38.16,196.96 45.16,182.71 60.38,173.46 C68.4059476,168.811608 78.4813776,169.674531 85.6,175.62 C96.8,185.15 103.02,197.62 106.16,211.77 C107.315979,216.786664 108.137785,221.874508 108.62,227 C108.92,230.44 110.62,232.57 114.29,232.69 C123.08,232.99 131.84,234.04 140.66,233.69 C141.82,233.69 142.98,233.48 144.14,233.46 C148.59,233.37 150.83,231.36 150.24,226.74 C150.491424,225.697176 151.012097,224.738585 151.75,223.96 C152.15486,223.629496 152.636258,223.40599 153.15,223.31 C153.899782,223.209221 154.658868,223.410685 155.26,223.87 C155.94,225.35 154.09,226.55 154.78,228.01 C154.55,228.66 154.87,228.08 154.87,228.01 C154.76,226.01 155.23,224.84 157.15,226.94 C158.015762,228.594196 159.694917,229.664133 161.56,229.75 C164.50471,230.263896 167.482201,230.567994 170.47,230.66 C185.71,230.41 200.94,231.1 216.19,231.07 C225.93,231.07 235.73,231.07 245.48,231.6 C251.8,231.94 258.09,231.25 264.38,230.97 C270.26,230.71 270.26,230.53 270.8,224.65 C270.841702,223.655293 271.051324,222.674802 271.42,221.75 C274.79,220.56 275.01,220.75 274.85,224.81 C274.85,224.96 274.65,225.22 274.68,225.24 C275.16,225.6 275.08,224.7 275.54,224.86 C278.26,226.45 277.04,230.11 279.32,231.86 C279.43,232.74 279.32,233.47 278.16,233.37 C278.84,233.93 279.37,233.21 279.98,233.14 C281.091363,232.895746 282.253926,233.151656 283.16,233.84 C283.04,236.95 280.52,236.06 278.84,236.29 C276.59,236.6 274.13,236.1 272.56,238.39 C272.103938,238.944296 271.452419,239.302274 270.74,239.39 C263.88,235.83 256.52,238.12 249.47,237.55 C251.91,238.35 255.19,236.96 256.47,240.41 C256.472598,241.14074 255.991412,241.78504 255.29,241.99 C254.29,241.83 253.19,240.42 252.17,241.99 C245.47,241.34 238.73,242.25 232.12,241.11 Z" id="Shape" fill="#1B1B1B"></path>
                <path d="M42,240.46 L42.38,238.06 L44.08,240.14 C47.36,245.82 49.2,252.21 53.49,257.44 C57.38,262.18 61.69,266.01 67.49,268.14 C68.6212925,268.413208 69.5925463,269.135329 70.18,270.14 C75.18,271.14 79.87,274.14 85.18,272.01 C86.3900188,271.124655 87.8742827,270.696025 89.37,270.8 C103.19,270.4 111.78,262.66 117.73,250.94 C119.56,247.32 119.73,242.82 123.24,240.09 L124.75,238.99 L125.23,242.22 C120.51,262.92 104.67,277.67 79.14,274.37 C61.98,272.16 50.33,263.64 43.39,248.13 C42.1981375,245.760395 41.7154913,243.097161 42,240.46 Z" id="Shape" fill="#0F0F0F"></path>
                <path d="M158.12,238.11 C158.19,236.8 155.49,238.03 156.26,236.11 C158.74,234.54 161.32,235.18 163.9,235.73 C167.33,236.61 170.83,236 174.29,236.18 C177.54,235.93 180.74,236.54 183.97,236.69 C187.84,236.69 191.67,237.49 195.56,237.18 C203.1,236.85 210.56,237.92 218.15,237.73 C219.94,237.73 221.79,237.73 223.15,239.27 C222.56,241.27 220.23,240.73 219.15,242.04 C207.91,242.88 196.82,240.96 185.66,240.36 C176.44,239.8 167.33,238.37 158.12,238.11 Z" id="Shape" fill="#0D0D0C"></path>
                <path d="M291.24,294.52 C291.24,290.52 291.06,286.52 291.14,282.52 C291.22,278.52 289.14,275.39 287.79,271.92 L287.34,271.92 C287.21,271.92 287.1,272.15 286.99,272.27 C286.304698,272.304932 285.671727,271.904317 285.41,271.27 C283.41,265.09 279.98,259.48 277.69,253.4 C277.940994,252.176141 278.795772,251.163211 279.96,250.71 C282.69,250.32 283.68,254.71 286.81,253.18 C288.16,252.18 287.81,250.54 288.35,249.27 C289.02,247.83 289.83,247.04 290.96,248.94 C292.42,255.61 292.76,255.94 299.52,255.3 C323.86,253.18 348.24,251.87 372.63,250.44 C397.18,249.01 421.63,246.82 446.16,244.29 C455.736605,243.212317 465.363189,242.638194 475,242.57 C477.12,242.57 479.38,242.24 481.11,244.01 C481.034624,244.885931 481.502641,245.718844 482.29,246.11 C479.35,260.87 475.85,275.31 461.35,283.61 C460.766942,283.931402 460.330045,284.46499 460.13,285.1 C454.24,288.69 448.32,286.68 442.44,285.1 C440.6,284.61 438.87,282.94 437.06,285.1 C426.06,279.82 418.82,271.46 416.98,259.22 C416.57,256.47 416.29,256.14 413.61,256.46 C408.61,257.05 404.19,258.11 400.8,262.12 C396.29,267.45 391.8,272.93 384.16,273.83 C373.88,275.05 363.92,274.11 354.75,268.99 C352.04818,267.438473 348.875262,266.91972 345.82,267.53 C328.56,270.13 311.82,275.53 294.51,277.61 C292.33,277.87 292.32,278.92 292.21,280.54 C291.92,285.28 292.36,290 291.24,294.52 Z" id="Shape" fill="#1C1C1C"></path>
                <path d="M156,226.11 C155,226.83 155.16,228.11 154.86,229.32 C153.32,227.26 154.55,225.67 155.08,224.03 C154.500844,223.348719 154.181958,222.484183 154.18,221.59 C157.18,202.05 156.43,182.22 158.04,166.87 C157.04,180.3 156.61,198.07 155.04,215.76 C153.9,218.42 154.76,221.55 153.14,224.1 L152,224.1 C149.9,222.22 149.84,219.75 150,217.21 C151.26,189.83 154.29,162.55 154.69,135.12 C154.69,133.62 155.06,132.12 155.16,130.66 C155.47,126.21 157.65,123.88 162.16,123.07 C168.71,121.9 168.73,121.64 169.04,115.07 C169.39,107.6 169.72,100.13 169.63,92.64 C169.32,66.37 171.32,40.13 170.63,13.85 C170.54,10.28 170.53,6.85 167.25,4.45 C168.8,1.53 170.08,1.37 174.25,3.57 C175.014899,4.87089269 175.396244,6.36160563 175.35,7.87 C175.51,21 176.24,34.14 174.91,47.25 C174.39,52.4 174.61,57.56 174.6,62.71 L174.6,110.83 C178.33,110.07 181.47,109.11 183.94,106.35 C185.81,104.26 188.51,103.69 191.26,103.75 C195.08,103.85 198.89,104.09 202.72,103.86 C206.09,103.66 208.16,105.73 209.93,108.39 C211.7,111.05 212.26,114.18 215.42,116.86 C215.93,109.08 217.56,102.38 223.17,97.42 C224.31,96.42 225.69,96.71 227.01,96.64 C231.6,97.57 232.57,101.42 233.75,105.07 C235.75,111.22 235.75,111.22 241.94,110.82 C243.1,110.74 244.39,110.42 245.41,110.82 C256.1,115.01 264.51,108.11 273.75,105.11 C275.312213,104.531081 276.60514,103.394873 277.38,101.92 C281.14,95.92 287.38,93.92 293.64,97.38 C296.449125,99.0773621 299.875602,99.4119215 302.96,98.29 C307.69,96.85 312.49,98.65 317.23,99.42 C318.23,99.58 319.12,100.04 320.1,100.27 C327.82,102.04 329.78,100.56 329.68,92.66 C329.68,89.92 331.08,85.9 328.68,84.74 C326.28,83.58 324.21,87.34 322.04,88.98 C320.685541,89.9553299 319.131517,90.6179248 317.49,90.92 C295.49,95.68 273.3,95.64 251.06,92.92 C249.19,92.7 246.97,92.69 245.85,90.56 C246.54,88.75 248.19,88.88 249.65,88.66 C249.97,88.66 250.3,88.77 250.65,88.75 C251,88.73 251.18,88.65 250.86,88.59 C249.73,88.39 248.57,88.43 247.44,88.14 C241.99,86.71 241.23,83.77 245.21,79.43 C247.86,78.9 250.29,77.66 252.91,77.01 C253.888793,76.8854834 254.881999,77.0708352 255.75,77.54 C256.68,81.28 252.46,80.19 251.47,82.11 C251,82.68 250.54,83.25 251.22,83.99 C255.51,86.16 259.8,86.79 264.15,84.25 C265.116205,83.662241 266.000523,82.9494068 266.78,82.13 C267.78,81.13 268.9,80.13 270.17,78.69 C265.88,77.44 261.72,80.63 257.79,78.41 C257.14346,77.9608733 256.797358,77.1917585 256.89,76.41 C257.634164,75.2719315 258.960224,74.6554299 260.31,74.82 C266.407941,74.7463438 272.448362,73.6302524 278.17,71.52 C279.98,72.14 279.62,73.43 279.17,75.02 C282.421595,72.3218563 286.153726,70.2623985 290.17,68.95 C286.25,69.26 283.73,73.66 279.27,72.3 C278.08,70.67 279.65,69.71 280.17,68.49 C281.11,67.62 281.05,65.49 283.17,66.05 C284.81,70.37 287.56,67.05 289.81,66.99 C292.56,66.99 291.08,64.99 291.19,63.72 C291.27142,62.892651 291.29481,62.0606165 291.26,61.23 C290.8,51.74 290.8,51.77 299.95,50.91 C301.33,50.78 303.28,51.07 303.6,49.08 C304.24,45.18 306.95,43.96 310.26,42.7 C315.78,40.62 315.68,40.36 320.89,43.57 C321.37,38.93 323.48,36.57 328.54,36.41 C331.35,36.32 333.71,33.8 334.17,30.34 C334.81,25.52 338.17,23.28 342.52,23.71 C345.52,24 347.86,23.16 350.43,22.35 C354.43,21.09 357.65,21.53 360.66,25.01 C362,26.55 364.15,30.22 367.35,26.7 C367.44,26.6 367.72,26.52 367.75,26.56 C371.1,30.41 377.91,28.31 380.27,33.87 C380.8,35.12 380.84,36.39 383.27,35.57 C389.04,33.57 397.75,38.41 399.27,44.57 C399.79,46.68 401.27,46.85 402.09,48.03 L400.09,48.9 C396.78,49.84 394.75,49.41 394.61,45.16 C394.49,41.44 390.94,40 388.16,39.04 C385.38,38.08 382.56,39.74 380.43,41.55 C378.3,43.36 379.77,46.84 382.84,47.55 C385.417023,48.232626 388.06497,48.611863 390.73,48.68 C394.583241,48.7345494 398.397297,49.4621642 402,50.83 C399.93,53.04 397.48,52.02 395.17,51.52 C392.86,51.02 390.6,50.34 389.17,53.05 C387.58,54.66 385.51,54.61 383.56,54.41 C371,53.11 358.33,53 345.75,52 C342.47,51.74 340.47,52.41 340.66,56.07 C341.29,68.21 339.02,80.27 339.66,92.4 C340.018919,93.0768174 340.281459,93.8004872 340.44,94.55 C340.7,96.22 337.64,97.72 339.95,99.4 C341.95,100.88 344.09,99.7 346.06,98.75 C346.758557,98.7338061 347.418995,99.0677776 347.82,99.64 C349.82,103.21 352.93,102.07 355.89,101.64 C358.1,101.9 359.3,104.76 361.89,103.97 C363.39,103.91 364.89,103.84 366.12,104.97 C365.57,108.51 361.75,106.97 360.12,108.81 C358.907405,109.22969 357.601704,109.302422 356.35,109.02 C349.78,106.88 342.85,106.23 335.67,103.61 C336.38,106.83 336.86,109.31 338.67,111.01 C341.57,113.72 341.13,116.13 338.59,119.25 C348.47,116.69 358.37,116.57 368.31,117.84 C369.872923,118.397564 371.591869,118.322203 373.1,117.63 C377.659349,115.16769 382.907044,114.288384 388.02,115.13 C389.85,115.4 390.91,115.07 390.66,112.92 C390.41,110.77 391.25,109.06 391.96,107.22 C392.150917,106.79347 392.396293,106.393474 392.69,106.03 C393.51,105.03 395.12,105.03 395.57,103.5 C394.39,102.2 392.76,103.5 391.49,102.82 C390.49,101.88 388.17,103.64 387.87,101.13 C388.118266,100.448608 388.604955,99.8802124 389.24,99.53 C389.673288,99.3227867 390.12989,99.1683481 390.6,99.07 C394.6,99.07 398.78,97.63 401.18,102.88 C402.18,105.11 403.88,103.49 404.64,101.77 C405.4,100.05 404.27,97.61 407.09,97.11 L407.09,104.63 C409.09,101.91 407.03,99.04 409.02,97.15 C411.42,100.87 410.6,105.15 411.02,109.15 L409.12,112.15 C406.72,114.26 404.06,113.21 401.57,112.55 C398.29,111.69 396.69,112.97 396.65,116.1 C396.65,120.1 395.87,124.5 400.12,127.25 C399.12,128.7 397.38,127.77 395.93,128.52 L399.12,130.05 C397.83,131.54 396.2,131.37 394.53,131.05 C390.741577,128.953905 386.176899,128.805097 382.26,130.65 C381.524181,130.891436 380.720335,130.807778 380.05,130.42 C378.9,128.64 379.62,127.07 380.61,125.54 C382.11,123.68 383.98,126.93 385.73,124.91 C384.51,122.81 383.21,122.2 381.38,124.43 C380.82,124.8 380.38,125.43 379.69,125.53 C375.5,124.85 370.83,125.98 368.35,122.41 C368.969267,122.699195 369.385492,123.298711 369.44,123.98 C369.272514,124.674376 368.837658,125.27455 368.23,125.65 C362.49,127.77 359.33,122.2 354.05,120.78 C356.32,123.63 358.92,125.6 359.28,128.91 C357.82,130.61 356.28,130.32 354.73,129.09 C353.13,126.28 351.02,124.23 347.64,123.64 C344.26,123.05 341.78,123.55 341.17,127.45 C340.59344,127.88165 339.890165,128.110214 339.17,128.1 C338.67,128.1 338.01,128.1 337.77,127.74 C335.42,124.35 336.31,128.25 335.66,128.66 C334.66,129.87 333.66,129.94 332.66,128.8 C331.27,126.32 332.39,122.5 328.79,121.25 C326.91,120.6 324.79,120.13 323,121.31 C319.76,123.5 316,124.2 312.44,125.48 C311.983924,125.595979 311.506076,125.595979 311.05,125.48 C309.88,124.98 308.34,122.74 308.05,126.16 C307.93,127.41 307.9,128.73 306.67,129.55 C303.128525,130.44108 299.421475,130.44108 295.88,129.55 C289.11,127.96 282.14,128.84 275.27,128.55 C279.52,128.63 283.77,128.55 288.02,128.7 C289.12,128.7 291.31,127.59 291.1,130.37 C287.9,132.43 284.31,131.47 280.89,131.59 C275.08,131.8 274.71,132.04 274.66,137.89 C274.49,159.48 275.09,181.06 275.66,202.63 L275.66,205.63 C275.365914,208.938752 275.449788,212.270238 275.91,215.56 C275.67,218.63 277.15,221.8 275.36,224.78 L274.88,228.26 C272.8,226.13 276.17,222.26 272.2,221.12 C270.3,219.24 270.7,216.8 270.68,214.52 C270.56,195.72 269.29,176.94 269.51,158.12 C269.59,151.01 268.43,143.86 268.61,136.7 C268.69,133.51 267.35,131.85 263.97,131.57 C259.33,131.19 254.72,130.57 250.04,130.57 C233.4,130.69 216.79,129.38 200.16,129.12 C189.2,128.953333 178.24,128.813333 167.28,128.7 C164.51,128.7 162.92,129.86 162.39,132.59 C161.994044,134.377984 161.839335,136.210944 161.93,138.04 C163.61,161.49 162.35,184.93 161.46,208.36 C161.17,214.52 160.43,221 156,226.11 Z" id="Shape" fill="#131216"></path>
                <path d="M283.21,66.11 L281.12,69.11 C278.97,66.86 278.86,64.02 278.91,61.18 C279.15,48.35 277.32,35.66 276.25,22.92 C275.84,18.01 273.25,15.27 268.25,14.08 C254.93,10.87 241.25,10.23 227.77,8.63 C211.428495,6.74181073 194.999347,5.71039934 178.55,5.54 C177.041336,5.68896973 175.536735,5.21990933 174.38,4.24 C171.98,3.12 169.58,2.24 167.13,4.11 C165.76,5.86 163.75,6.11 161.76,6.34 C145.13,8.24 129.17,12.93 113.24,17.77 C110.627729,18.4743678 108.561349,20.4727502 107.77,23.06 C100.77,42.63 93.55,62.13 86.55,81.71 C82.03,94.34 76.78,106.71 73.05,119.62 C72.27,122.34 70.05,122.94 67.77,123.62 C59.4,126.04 50.77,126.62 42.15,127.51 C35.5130186,128.033976 28.9225433,129.036584 22.43,130.51 C16.19,132.06 12.26,135.61 10.81,142.08 C9.01966255,150.039618 8.263424,158.196911 8.56,166.35 C8.71,170.67 11.76,173.54 13.12,177.21 C13.2020776,177.957192 12.858266,178.687309 12.23,179.1 C6.38,177.03 5.13,171.83 4.55,166.72 C3.45,157.05 5.02,147.52 7.55,138.2 C9.1,132.55 12.55,128.88 18.55,127.2 C30.32,123.89 42.43,122.69 54.47,121.96 C64.64,121.34 70.1,117.73 73.68,107.64 C84.12,78.11 95.12,48.92 105.12,19.33 C106.12,16.33 108.33,15.79 110.59,14.92 C128.83,7.92 147.76,3.71 167.09,1.13 L189.09,1.05 C206.09,2.36 223.19,3.25 240.16,5.13 C250.94,6.33 261.86,7.13 272.36,10.42 C276.72,11.78 279.36,14.65 279.95,18.75 C282.21,34.44 283.72,50.21 283.21,66.11 Z" id="Shape" fill="#0B0B0D"></path>
                <path d="M275.32,224.76 C276.08,221.84 274.11,219.02 275.01,216.09 C274.01,212.71 275.32,209.16 274.24,205.79 C274.04,196.54 273.79,187.3 273.65,178.05 C273.42,162.83 273.29,147.6 273.03,132.38 C273.03,130.24 273.91,129.99 275.71,130.02 C280.84,130.12 285.98,130.02 291.11,130.02 C292.633965,128.928359 294.598409,128.65895 296.36,129.3 C300.64,130.52 304.8,129.65 308.97,128.99 C314.41,128.13 319.88,128.99 325.25,129.13 C341.62,129.55 357.96,130.06 374.32,129.25 C376.316838,129.14441 378.312055,129.486057 380.16,130.25 L382.16,130.1 C386.018597,128.595859 390.301403,128.595859 394.16,130.1 L399.16,130.01 C433.63,128.45 468.11,127.41 502.61,128.29 C513.96,128.58 514.17,129.06 513.92,140.1 C513.51,157.74 510.8,175.23 511,192.91 C511.07,199.33 509.69,205.76 509.12,212.2 C508.8,215.79 506.12,215.71 503.68,216.04 C493.48,217.46 483.19,217.49 472.93,217.94 C460.69,218.47 448.46,219.35 436.23,220.08 C433.23,219.81 431.64,218.28 431.8,215.16 C431.8,210.31 430.56,205.63 429.8,200.88 C429.09,196.43 426.28,194.41 422.19,194.66 C412.09,195.326667 401.996667,196.043333 391.91,196.81 C388.77,197.06 387.91,198.56 388.24,201.81 C388.67,206.13 389.53,210.33 390.24,214.58 C391.3,220.78 390.24,222.3 384.64,224.21 C367.07,227 349.36,228.4 331.64,229.69 C315.92,230.84 300.16,231.31 284.46,232.69 C282.661349,233.016686 280.80657,232.815231 279.12,232.11 C277.23,232.22 276.26,231.61 276.12,229.43 C276,227.87 276.5,226.11 275.32,224.76 Z" id="Shape" fill="#FEA86E"></path>
                <path d="M338.8,93.92 C336.88,93.73 337.63,92.42 337.68,91.34 C338.26,79.08 339.53,66.84 338.95,54.55 C338.78,50.99 339.95,50.11 343.48,50.37 C358.68,51.47 373.91,52.23 389.12,53.12 L391.83,53.21 C395.18,54.38 398.83,52.8 402.11,54.14 C409.11,55.76 409.05,55.75 408.77,63.28 C408.44,72.22 407.22,81.06 406.14,89.91 C405.683904,92.3549438 406.034869,94.8818933 407.14,97.11 C406.224315,98.1195032 405.905447,99.5354296 406.3,100.84 C406.9,104.3 405.3,105.21 402.17,105.42 C400.17,105.55 399.17,106.04 399.83,103.15 C400.31,100.95 398.15,99.77 395.89,99.78 C394.08,99.78 392.27,99.94 390.46,100.04 C383.24,95.51 375.05,93.29 367.23,90.19 C364.14,88.37 361.46,91.82 358.44,90.89 C356.85,90.42 355.44,89.54 353.85,89.03 C351.255133,88.1029366 348.358871,88.9697898 346.7,91.17 C344.84539,93.5727023 341.745702,94.6517074 338.8,93.92 L338.8,93.92 Z" id="Shape" fill="#FEC980"></path>
                <path d="M481.12,244.11 C463.7,244.11 446.37,245.7 429.12,247.51 C402.58,250.29 375.95,251.71 349.33,253.39 C332.65,254.39 315.99,255.69 299.33,256.85 C299.17,256.85 299.01,256.95 298.84,256.96 C290,257.54 289.57,257.11 289.97,248.11 C289.77,243.85 293.1,243.51 295.97,242.92 C302.82,241.51 309.85,241.92 316.78,240.92 C330.91,238.92 345.2,238.28 359.39,236.77 C363.08,236.55 366.82,237.23 370.45,236.04 C374,235.53 377.56,235.81 381.12,235.72 C396.94,235.49 412.71,234.18 428.53,233.72 C431.007495,233.547119 433.496588,233.654465 435.95,234.04 C439.58,236.04 443.41,234.63 447.16,234.73 C458.75,235.05 470.32,234.08 481.91,234.08 C483.39,234.08 484.91,234.24 486.19,233.19 C494.43,232.08 502.1,227.09 510.82,229.43 C513.92,230.26 518.42,229.68 518.29,234.82 C518.18,239.06 514.78,241.72 509.81,242.07 C500.216667,242.763333 490.653333,243.443333 481.12,244.11 Z" id="Shape" fill="#AEAEAE"></path>
                <path d="M471.06,124.28 C462.34,125.7 453.53,124.97 444.76,125.28 C429.88,125.76 414.97,125.71 400.12,127.2 C396.89,127.43 394.95,126.43 395.71,122.71 C395.744168,122.220574 395.707115,121.728781 395.6,121.25 C394.5,110.48 394.77,110.25 405.2,111.79 C406.49,111.98 407.81,112 409.11,112.09 C417.27,114.37 425.78,114.35 434.03,115.92 C450.69,119.07 466.59,113.92 482.77,111.85 C492.44,110.59 502.09,109.22 512.28,107.85 C511.202459,113.091834 509.524737,118.192112 507.28,123.05 C506.787445,124.308644 505.514056,125.082504 504.17,124.94 C499.7,125.01 495.24,125.31 490.83,124.32 L471.06,124.28 Z" id="Shape" stroke="#000000" stroke-width="3" fill="#D9A27A"></path>
                <path d="M431,220.26 C433.57,223.81 437.76,222.1 441,223.35 C440.91,223.99 440.75,224.42 441.84,224.35 C456.6,222.97 471.41,222.28 486.19,221.2 C487.522279,221.125013 488.857721,221.125013 490.19,221.2 C496.36,221.26 497.19,222.73 494.36,228.36 C492.91,230.36 490.65,230.43 488.58,230.6 C480.43,231.28 472.26,231.79 464.11,232.36 C462.86,233.48 461.39,233.36 459.89,233.13 C451.65,231.92 443.35,232.87 435.09,232.57 L431.61,232.57 C424.61,232.5 424.54,232.36 427.1,226.08 C427.297642,224.517234 427.656213,222.979068 428.17,221.49 C428.76,220.21 429.45,219.05 431,220.26 Z" id="Shape" fill="#AEAEAE"></path>
                <path d="M460.12,285.22 C459.820093,285.055883 459.645875,284.729711 459.676241,284.389187 C459.706606,284.048663 459.935786,283.758462 460.26,283.65 C470.36,277.93 474.71,268.18 478.33,257.93 C479.7,254.05 480.97,250.13 482.33,246.23 C483.5,246.23 484.66,246.29 485.83,246.23 C493.57,246.08 493.73,246.14 490.74,253.65 C484.87,268.36 475.55,279.77 460.12,285.22 Z" id="Shape" fill="#6E6E6E"></path>
                <path d="M402,50.9 C394.85,51.33 387.88,49.58 380.81,49 C378.32,48.8 377.31,42.43 379.21,40.45 C383.08,36.45 394.55,38.59 396.51,43.74 C398.32,48.49 398.32,48.49 400.15,48.99 L402,50.9 Z" id="Shape" fill="#408D40"></path>
                <path d="M460.12,232 L464.2,232.27 C467.46,233.98 471.01,232.55 474.36,233.2 C474.469938,233.487015 474.441786,233.808643 474.283655,234.072193 C474.125525,234.335744 473.854984,234.511939 473.55,234.55 C462.55,235.74 451.46,234.34 440.47,235.87 C438.974898,236.089595 437.448876,235.819472 436.12,235.1 L386.54,237 C384.72,237.07 382.9,237 381.07,237 C380.07,236.55 379.58,236 380.37,234.91 C381.77,233.75 383.46,233.85 385.12,233.8 C395.58,233.5 406,232.69 416.43,231.87 C424.05,231.27 431.67,232.4 439.32,232.24 C446.23,232 453.12,231.06 460.12,232 Z" id="Shape" fill="#151515"></path>
                <path d="M494.42,228.28 C493.42,227.63 493.93,227.01 494.35,226.28 C496.08,223.11 494.63,222.01 491.51,222.17 C480.51,222.72 469.57,223.24 458.61,223.87 C452.18,224.24 445.76,224.8 439.28,225.28 C439,223.65 440.88,224.38 441.07,223.4 C458.24,222.24 475.39,220.65 492.6,220.28 C494.19,220.28 496.6,219.28 496.77,222.28 C496.87,224.48 498.12,227.39 494.42,228.28 Z" id="Shape" fill="#B5B4B4"></path>
                <path d="M436.12,235.11 C448.67,234.11 461.25,234.01 473.83,233.99 C477.2,232.99 480.72,234.24 484.09,233.3 L486.09,233.22 C485.51,235.97 483.28,235.02 481.63,235.1 C468.11,235.766667 454.59,236.37 441.07,236.91 C439.239034,237.041734 437.438678,236.387059 436.12,235.11 L436.12,235.11 Z" id="Shape" fill="#BABABA"></path>
                <path d="M431,220.26 C427.27,220.75 430,224.67 428,226.03 C427.692496,226.340338 427.276759,226.519535 426.84,226.53 C425.17,226.36 423.55,226.14 423.94,223.78 C424.3,222.52 424.94,221.23 424.64,219.95 C423.05,213.47 423.75,206.54 420.79,200.33 C420.725102,199.845183 420.823626,199.352563 421.07,198.93 C424.26,197.45 425.31,199.69 426.07,202.01 C426.801705,204.746199 427.323223,207.534318 427.63,210.35 C427.87,211.99 427.41,214.22 429.93,214.75 C430.956317,215.026395 432.01757,215.15105 433.08,215.12 C433.08,217.49 433.92,219.26 436.29,220.12 C434.5,220.73 432.71,219.11 431,220.26 Z" id="Shape" fill="#201B18"></path>
                <path d="M402.12,54.11 C398.71,53.62 395.19,54.33 391.84,53.18 C395.26,53.46 398.85,52 402.12,54.11 Z" id="Shape" fill="#131216"></path>
                <path d="M484.12,233.29 C480.8,234.97 477.29,233.88 473.86,233.98 C474.013458,233.714994 474.180342,233.457993 474.36,233.21 L484.12,233.29 Z" id="Shape" fill="#AEAEAE"></path>
                <path d="M13.12,177.18 C8.86,174.84 7.41,170.89 7.12,166.39 C6.54,157.7 7.72,149.21 9.63,140.73 C11.16,133.91 15.48,130.8 21.8,129.2 C31.68,126.69 41.8,126.36 51.86,124.99 C53.4790238,124.641673 55.1251755,124.434231 56.78,124.37 C68.36,124.84 72.58,118.37 75.99,107.93 C85.59,78.56 96.73,49.7 107.11,20.59 C108.26,17.36 110.9,17.06 113.29,16.31 C130.89,10.81 148.7,6.11 167.12,4.11 C171.87,3.53 172.17,6.8 172.12,10.11 C172.12,22.43 172.12,34.75 171.94,47.11 C171.686667,66.73 171.353333,86.35 170.94,105.97 C170.84,111.06 170.29,116.13 170.13,121.22 C170.06,123.65 168.93,124.73 166.74,124.22 C163.82,123.5 161.53,125.92 158.6,125.37 C156.6,125 157,127.05 156.92,128.26 C156.306667,137.373333 155.72,146.486667 155.16,155.6 C153.85,176.32 152.52,197.04 151.3,217.76 C151.337639,219.913424 151.548318,222.060338 151.93,224.18 L151.12,226.3 C149.48,225.92 149.64,228.49 148.04,228.17 C138.93,230.44 129.67,230.17 120.49,229.17 C113.8,228.45 112.66,226.5 111.98,219.77 C109.86,198.92 100.25,182.28 83.24,170.01 C81.11,168.47 78.62,166.8 76.14,166.52 C72.08,166.07 71.85,163.94 72.21,160.84 C73.48,149.95 74.8,139.07 75.86,128.17 C76.19,124.82 78.48,124.56 80.73,124.42 C84.51,124.19 88.32,124.36 92.16,123.72 C88.7,121.37 84.79,122.72 81.1,122.48 C80.1107565,122.582165 79.1331927,122.776338 78.18,123.06 C77.56,123.14 76.75,123.18 76.57,122.31 C76.4321293,121.906166 76.515274,121.459647 76.7892571,121.132503 C77.0632402,120.805359 77.4882378,120.645141 77.91,120.71 C84.64,121 91.59,117.63 98.08,122.49 C100.84,124.55 104.9,123.49 108.08,125.77 C109.89,127.1 112.21,124.26 112.96,122.48 C115.3,116.92 120.58,116.48 124.89,116.48 C134.49,116.48 144.09,115.06 153.69,116.17 C155.4,116.37 156.06,115.49 156.18,113.87 C156.32,112.05 156.86,110.24 156.82,108.43 C156.54,95.43 158.37,82.54 159.34,69.63 C160.27,57.4 157.86,45.35 159.01,33.21 C158.634702,32.8759696 158.349306,32.4530329 158.18,31.98 C156.09,24.67 155.18,23.52 147.62,24.15 C134.98622,25.102094 122.553614,27.8566638 110.7,32.33 C107,33.75 104.98,36.8 103.7,40.33 C98.84,53.43 93.94,66.51 89.16,79.64 C87.92,83.04 87.16,86.64 84.33,89.3 L84,91.08 C83.5595707,96.5721364 81.595999,101.832569 78.33,106.27 C73.51,116.05 74.23,126.77 73.08,137.17 C72.08,146.07 71.08,154.96 70.18,163.86 C69.98,165.86 68.75,166.26 67.27,166.62 C60.27,168.35 53.64,170.96 48.41,176.22 C47.17,177.46 45.64,177.1 44.17,177.06 C36.43,176.83 28.68,176.69 20.94,176.29 C18.25,176.11 15.74,177 13.12,177.18 Z" id="Shape" fill="#8A501C"></path>
                <path d="M35.12,217.11 C35.12,223.79 34.99,230.48 36.12,237.11 C36.12,239.11 35.78,240.92 33.32,241.01 C23.09,241.39 13.63,239.29 5.72,232.28 C3.96380641,230.723107 3.00772573,228.454254 3.12,226.11 C2.99,219.17 4.06,212.57 7.84,206.64 C10,203.25 12.71,201.75 16.46,204.64 C19.01,206.64 22.2,207.26 25.26,207.86 C30.6,208.94 33.87,211.86 35.12,217.11 Z" id="Shape" fill="#504E1D"></path>
                <path d="M84.37,89.23 L102.62,39.23 C104.122579,34.7605535 107.720865,31.3117293 112.25,30 C123.48,26.32 135.04,24.27 146.66,22.51 C149.459414,22.1670571 152.299226,22.3915213 155.01,23.17 C160.38,24.61 159.11,29.17 159.08,33.07 C158.01,33.93 155.84,33.39 156.3,36.28 C156.45,37.21 153.69,34.28 151.82,35.18 C148.93,36.36 145.97,35.34 143.07,35.3 C138.74,35.23 135.28,36.14 133.42,40.47 C133.04,41.34 132.42,42.22 131.22,42.07 L130.22,42.07 C128.74,41.44 127.33,42.88 125.85,42.22 C125.468782,41.9652956 125.110733,41.6775176 124.78,41.36 C118.55,40.36 112.63,41.6 106.88,43.87 C104.49,44.81 103.71,47.11 102.82,49.28 C98.82,58.95 95.55,68.89 91.35,78.47 C90.44,79.95 91.21,80.8 92.49,81.47 C93.06,81.82 93.63,82.16 94.23,82.47 C96.81,83.58 100.78,82.63 101.09,87.09 L99.09,90.09 C97.26,87.9 94.32,88.2 92.09,86.97 C89.42,85.22 87.77,85.97 87.09,89.04 C86.4,92.48 85.33,89.87 84.37,89.23 Z" id="Shape" fill="#1B1B1C"></path>
                <path d="M137.12,59.17 C140.19,56.74 142.85,59.96 145.79,60.01 C147.1,60.01 147.98,62.6 145.1,63.22 C144.82,66.32 147.17,65.42 148.77,65.61 C150.37,65.8 152.22,65.03 152.77,67.44 C153.3,69.62 152.97,71.83 150.96,72.66 C147.26,74.19 146.65,76.6 146.7,80.34 C146.705769,83.4150643 144.763196,86.1563398 141.86,87.17 C145.78,86.17 146.41,82.69 147.02,79.36 C147.39,77.36 146.52,74.36 149.82,74.65 C153.12,74.94 153.39,78 153,80.5 C152.09,86.5 149.14,91.61 143.83,94.69 C140.83,96.4 137.9,98.79 134.34,98.87 C129.79,98.97 130.8,93.87 128.47,91.66 C125.41,88.78 123.13,85.21 123.08,80.75 C123.08,78.62 121.78,78.95 120.39,78.95 C117.32,78.95 116.59,76.61 116.21,74.25 C115.603406,71.7137448 116.85449,69.0989803 119.21,67.98 C120.571199,67.1824114 122.308605,67.4776018 123.33,68.68 C126.2,71.81 127.48,69.68 128.74,67.19 C128.92399,66.9085491 129.034049,66.5852517 129.06,66.25 C128.67,60.32 132.55,59.35 137.12,59.17 Z" id="Shape" fill="#F8BFAA"></path>
                <path d="M137.12,59.17 C135.91,63.05 133.6,61.46 130.93,59.51 C131.02,63.33 131.2,66.51 129.44,69.13 C127.68,71.75 125.61,73.72 122.92,70.02 C120.23,66.32 118.92,68.62 117.64,71.11 C116.57,73.27 117.28,75.51 118.45,77.28 C119.45,78.85 121.1,77.82 122.45,77.1 C124.22,76.1 125.29,77.01 124.71,78.68 C123.05,83.53 125.94,86.58 128.62,89.75 C130.35,91.75 132.16,93.75 132.27,96.64 C132.32,98.09 133.39,98.84 134.68,98.2 C141.68,94.68 149.35,91.72 151.31,82.72 C151.618892,81.7820032 151.82346,80.8128186 151.92,79.83 C151.92,77.95 152.35,75.34 149.59,75.26 C146.59,75.18 148.85,77.8 148.23,79.09 C147.522447,80.759307 147.022054,82.5090051 146.74,84.3 C145.57,90.09 140.8,87.8 136.96,88.49 C143.39,85.81 148.69,82.72 143.89,74.43 C146.31,73.92 148.71,73.43 150.54,71.72 C151.68,70.72 152.65,69.63 152.11,67.85 C151.57,66.07 150.03,66.51 148.81,66.34 C147.05,66.09 144.97,66.72 143.81,64.8 C143.14,63.67 143.6,62.91 145.08,63.22 C146.76,66.22 149.63,64.76 152.02,65.13 C152.393333,64.5566667 152.766667,64.5566667 153.14,65.13 C153.863679,67.0121008 154.177332,69.0269803 154.06,71.04 C154.91,72.79 154.53,74.76 155.06,76.58 C155.11,78.26 155.06,79.95 155.06,81.58 C154.743634,84.3968747 153.710791,87.0857085 152.06,89.39 C149.96,92.08 149.37,94.09 152.95,95.82 C153.36,96.02 153.35,96.66 153.05,97.13 C153.3,98.2 155.83,98.21 154.4,100.06 C147.17,96.41 140.75,97.81 134.87,103.06 C134.101485,103.777638 132.908515,103.777638 132.14,103.06 L129.82,102.96 C129.679164,102.10181 130.165155,101.263895 130.98,100.96 C130.440028,100.939655 129.90019,101.003761 129.38,101.15 C127.213968,101.437906 125.024433,100.827293 123.32,99.46 C119.44,96.22 115.17,94 110,94 L109.07,92.9 C110.26,88.15 108.95,85.53 104.17,84.8 C100.49,84.24 96.93,82.88 93.17,83.04 L92.17,82.29 C92.44,80.48 93.88,79.88 95.3,79.29 C102.97,77.94 109.36,79.99 114.37,86.17 C117.54,90.08 121.77,92.64 126.37,94.84 C125.11,91.65 123.37,88.62 120.64,86.84 C115,83.27 114.19,77.84 114.28,72.09 C114.36,67.01 115.75,62.09 114.61,56.81 C113.61,52.06 120.95,42.69 126.1,40.75 L126.38,42.29 C126.76,44.8 124.92,46.23 123.6,47.88 C122.302097,49.613771 121.198799,51.4850188 120.31,53.46 C119.51,55.08 118.15,57.16 120.31,58.3 C122.47,59.44 122.75,56.67 123.82,55.6 C125.66,53.77 126.82,51.14 129.92,50.89 L131.63,51.19 C130.85,54.57 128.27,56.68 126.79,58.94 C129.09,58 131.35,55.77 133.93,54.05 C135.53,52.99 136.87,51.19 139.21,52.05 C140.3,52.11 141.48,51.87 142.21,52.99 C141.83,54.79 140.15,54.85 138.9,55.52 C137.9,56.04 136.2,56.32 137.25,58.18 C137.182321,58.5063441 137.138869,58.8372465 137.12,59.17 Z" id="Shape" fill="#0E0E0F"></path>
                <path d="M46.6,178.26 C40.4565513,186.610692 35.9783776,196.066123 33.41,206.11 C33.06,207.42 32.81,208.22 31.14,207.65 C27.55,206.43 23.88,205.44 20.26,204.28 C15.89,202.88 13.69,199.9 14.26,195.28 C14.81,190.36 15.59,185.47 16.11,180.54 C16.33,178.39 17.71,178.28 19.25,178.28 C28,178.26 36.7,178.26 46.6,178.26 Z" id="Shape" fill="#89501C"></path>
                <path d="M148.12,228.11 C149.12,227.4 148.87,224.73 151.2,226.23 C151.45,234.23 151.46,234.64 143.27,234.8 C133.02,235 122.75,234.51 112.5,234.09 C108.09,233.91 107.62,230.35 107.24,226.9 C106.14,216.82 104.59,206.79 100.05,197.62 C96.45,190.34 92.55,183.19 86.33,177.62 C79.2373384,171.16222 68.7718397,170.060588 60.49,174.9 C47.78,182.48 41.59,194.45 38.08,208.26 C37.57,210.26 37.99,212.63 36.08,214.18 C34.7866558,212.464958 34.3925863,210.234376 35.02,208.18 C38.02,195.33 42.46,183.18 53.28,174.77 C65.75,165.08 77.14,165.77 88.7,176.5 C101.37,188.3 108.64,202.86 110.08,220.2 C110.82,229.07 113.42,231.29 122.48,231.31 C128.62,231.31 134.79,232.15 140.9,231.85 C143.41,231.72 147.73,233.11 148.12,228.11 Z" id="Shape" fill="#93551C"></path>
                <path d="M132.19,103.11 C134.26,102.75 135.52,101.11 137.13,99.99 C144.4,95.1 147.24,95.07 154.45,100.08 C155.36,115.22 155.31,112.41 142.7,113.08 C138.89,113.3 135.07,113.56 131.28,114.08 C126.96,114.61 124.68,112.86 124.28,108.53 C127.76,107.11 131.43,107.2 135.07,107.01 C135.58,106.39 136.34,106.41 137.07,106.24 C136.53,105.98 135.91,106.05 135.35,105.83 C134.63,105.55 133.79,105.67 133.14,105.16 C132.740884,105.015839 132.415955,104.718116 132.237531,104.333096 C132.059106,103.948075 132.041993,103.507706 132.19,103.11 L132.19,103.11 Z" id="Shape" fill="#BF5D23"></path>
                <path d="M131.21,42.11 C135.27,33.39 140.91,31.5 151.82,35.22 C152.67147,37.1935309 153.37019,39.2295119 153.91,41.31 C154.8,46.11 152.71,47.88 148.14,46.49 C143.57,45.1 138.28,45.75 132.03,48.65 C130.53,46.64 131.12,44.34 131.21,42.11 Z" id="Shape" fill="#BD5D22"></path>
                <path d="M100.12,110 C101.77,108 103.32,104.52 105.89,105.16 C110.79,106.37 116.3,104.86 120.64,108.16 C122.35,109.47 123.83,111.22 121.47,113.52 C119.35,115.58 116.03,115.28 114.12,117.23 C112.21,119.18 112.07,122.58 108.12,123.5 C108.83,121.2 109.48,119.14 110.12,117.08 C110.36,116.28 110.55,115.33 109.69,114.86 C108.49,114.2 108.12,115.77 107.22,116.01 C106.769591,115.902508 106.431771,115.52892 106.37,115.07 C107.43,113.07 106.97,111.95 104.8,113.16 C103.17,114.07 102.01,115.85 100.22,117.67 C100.22,114.79 102.43,113.79 103.22,112.03 C103.51,111.37 104.55,110.62 103.29,110.16 C102.77,109.97 101.9,110.72 101.2,111.04 C100.18,111.38 99.79,111.06 100.12,110 Z" id="Shape" fill="#F3C1AD"></path>
                <path d="M110,94.11 C113.11613,92.3793249 116.98974,92.8343331 119.62,95.24 C122.62,97.58 125.28,100.44 129.99,100.24 C133.08,100.1 129.67,102.04 129.86,103.08 C123.05,106.75 114.09,105.92 110.16,101.45 C108,98.89 106.82,96.6 110,94.11 Z" id="Shape" fill="#BD5D23"></path>
                <path d="M93.12,83.11 C99.12,82.67 105.12,81.76 109.93,86.69 C112.27,89.1 112.8,91.37 109.04,92.97 C104.4,93.97 100.28,97.44 94.4,96.29 C95.7042501,94.6040446 97.4284358,93.2902151 99.4,92.48 C101.88,91.48 102.78,89.59 101.04,87.11 C99.63,83.43 95.35,85.34 93.12,83.11 Z" id="Shape" fill="#F1C3AF"></path>
                <path d="M129.8,51 C127.54327,52.9260008 125.52855,55.1186882 123.8,57.53 C122.8,58.82 122.37,62.2 119.8,60.53 C117.8,59.18 117.15,56.72 118.57,53.93 C120.69,49.75 123.79,46.31 126.31,42.45 C127.63,42.45 128.68,38.56 130.25,42.18 C128.44,45 129.61,48 129.8,51 Z" id="Shape" fill="#8C3F3F"></path>
                <path d="M139.12,52.11 C134.12,53.8 131.39,59.25 125.29,60.37 C126.67,56.37 129.29,53.97 131.54,51.29 C139.73,46.29 147.45,46.59 154.71,52.98 C148.82,50.8 144,49.51 139.12,52.11 Z" id="Shape" fill="#C86225"></path>
                <path d="M88.28,107.38 C88.3543744,104.978605 88.9841792,102.627106 90.12,100.51 C91.12,98.23 92.17,96.44 95.17,98.65 C96.72,99.79 99.06,99.55 100.93,98.76 C102.8,97.97 103.62,99.12 104.52,100.34 C104.88471,100.687803 105.06552,101.186316 105.008573,101.687053 C104.951627,102.187791 104.663495,102.632973 104.23,102.89 C103.23,103.67 102.4,104.76 100.91,103.35 C99.77,102.27 98.44,102.87 97.38,103.89 C94.94,106.21 91.59,105.95 88.28,107.38 Z" id="Shape" fill="#F1F1F1"></path>
                <path d="M78.38,106.2 C79.856263,100.988476 81.7524702,95.9051695 84.05,91 L89.12,95.1 C89.4454206,95.705287 89.2796721,96.45753 88.73,96.87 C83.73,101.81 82.73,107.37 86.03,113.65 C86.3482662,114.265482 86.4436674,114.972157 86.3,115.65 C86.17,116.65 86.06,117.65 84.82,118 C81.43,115.21 80.75,111 79.18,107.25 L78.38,106.2 Z" id="Shape" fill="#1B1B1C"></path>
                <path d="M86.29,115.6 C80.88,107.89 82,100 89.11,95.1 L92.77,93.77 C86.35,101.49 82.12,108.77 90.25,117.13 C88.12,117.91 87.57,115.82 86.29,115.6 Z" id="Shape" fill="#EEEDEE"></path>
                <path d="M153.18,65.11 L152.06,65.11 C152.15,61.42 151.96,57.8 148.9,53.99 C153.9,54.56 156.81,56.99 157.96,60.58 C159.11,64.17 154.57,63.33 153.18,65.11 Z" id="Shape" fill="#8E4041"></path>
                <path d="M79.12,107.21 C79.4040337,107.105569 79.6994166,107.03508 80,107 C81.61,110.63 83.17,114.28 84.73,117.92 C76.39,117.92 76.4,117.92 78.73,109.61 C78.9221232,108.821341 79.0525176,108.018913 79.12,107.21 Z" id="Shape" fill="#EDECED"></path>
                <path d="M137.12,58.23 L134.31,59.3 C136.02,55.48 139.43,54.7 142.09,53.04 C146.64,53.89 149.27,56.51 149.97,61.63 C144.77,55.83 140.3,54.75 137.12,58.23 Z" id="Shape" fill="#886349"></path>
                <path d="M92.12,87 C94.86,87.14 98.94,84.27 99.12,90.12 C95.86,90.54 92.32,89.39 89.21,92.34 C88.63,89.26 89.49,87.64 92.12,87 Z" id="Shape" fill="#E9CAB9"></path>
                <path d="M93.74,117.05 L89.39,113.11 C91.71,112.4 93.49,109.83 95.19,111.27 C96.56,112.45 95,114.86 93.74,117.05 Z" id="Shape" fill="#D7D7D6"></path>
                <path d="M100.12,110 L101.12,111.07 L96.22,118.07 C96.21,114.29 97.91,112.05 100.12,110 Z" id="Shape" fill="#B3A798"></path>
                <path d="M133.12,105.18 C135.87,105.18 138.56,105.31 140.99,107.39 C138.63,108.97 136.99,107.03 135.08,107.02 L133.12,105.18 Z" id="Shape" fill="#0E0E0F"></path>
                <path d="M96.46,109.77 C96.03,106.85 97.18,105.68 98.97,104.99 C99.22,104.89 100.04,105.44 99.97,105.61 C99.76,107.52 98.48,108.59 96.46,109.77 Z" id="Shape" fill="#87E8E1"></path>
                <path d="M106.35,115.11 L107.2,116.05 C106.31,118.25 104.53,119.61 101.99,121.43 C102.45,118.05 104.76,116.82 106.35,115.11 Z" id="Shape" fill="#F3ECDA"></path>
                <path d="M232.12,241.11 C238.86,240.11 245.61,238.9 252.12,242.17 C269.86,257.17 274.12,276.65 271.34,298.73 C270.42,305.99 269.94,313.25 266.34,319.8 C259.77,331.6 253.98,334.39 239.53,331.11 C230.85,329.11 223.01,324.98 215.88,319.86 C209.03,314.94 206.57,307.08 204.82,299.26 C202.273081,287.377096 203.630391,274.989459 208.69,263.94 C213.17,253.51 220.12,244.32 232.12,241.11 Z" id="Shape" fill="#3E3E3E"></path>
                <path d="M278,253.18 C282.21,259 284.56,265.69 287,272.34 C286.861645,274.994742 287.270086,277.649607 288.2,280.14 C288.917047,284.110409 288.88992,288.179505 288.12,292.14 C286.671168,300.285549 283.972679,308.158391 280.12,315.48 C275.93,323.76 269.12,328.42 259.86,331.82 C262.44,328.42 264.7,325.91 266.43,323.08 C270.675742,316.277164 272.991701,308.447841 273.13,300.43 C273.3,290.51 274.68,280.57 272.3,270.73 C269.60556,259.700286 263.687359,249.722895 255.3,242.07 L256.17,241 C263.69,238.73 276,245.59 278,253.18 Z" id="Shape" fill="#6E6E6E"></path>
                <path d="M223.12,239.2 L195.12,238 C194.12,236.79 191.6,238.8 191.17,236.23 L226.17,236.23 C227.93,237.56 230.81,235.08 232.11,237.97 C229.12,238.42 226.37,240.77 223.12,239.2 Z" id="Shape" fill="#B6B4B4"></path>
                <path d="M232.12,238 C230.54,236.06 227.79,238.1 226.18,236.26 L242.8,236.26 C240.8,238.26 238.38,236.37 236.8,237.95 L232.12,238 Z" id="Shape" fill="#A8A0A3"></path>
                <path d="M288.12,292.11 C288.12,288.11 288.143333,284.11 288.19,280.11 C289.716023,283.96917 289.690942,288.268895 288.12,292.11 L288.12,292.11 Z" id="Shape" fill="#1C1C1C"></path>
                <path d="M156,226.11 C158.447527,218.187575 159.869119,209.984019 160.23,201.7 C160.91,181.82 161.17,161.94 160.71,142.06 C160.480504,138.439163 160.510581,134.80654 160.8,131.19 C161.15,128.19 162.21,127.07 165.15,127.19 C174.376667,127.503333 183.606667,127.746667 192.84,127.92 C203.92,128.13 215.04,127.71 226.08,128.53 C239.52,129.53 253.02,128.42 266.43,130.2 C270.59,130.75 270.06,133.35 270.12,135.89 C270.54,153.68 270.87,171.48 271.29,189.27 C271.54,199.89 271.87,210.51 272.17,221.13 C272.17,221.79 272.06,222.46 272.04,223.13 C271.81,232.77 271.04,233.13 261.37,232.83 C249.67,232.52 237.94,233.35 226.25,232.83 C217.52,232.48 208.78,232.31 200.08,232.55 C193.6,232.73 187.2,231.75 180.75,232.12 C173.43,232.54 166.17,231.69 158.89,231.12 C154.93,230.81 156.18,228.21 156,226.11 Z" id="Shape" fill="#89501C"></path>
                <path d="M70.12,270.19 C54.84,265.89 47.74,254.51 44.06,240.19 C43.23,226.96 44.9,214.26 51.46,202.42 C57.76,191.05 72.06,184.24 84.11,187.1 C91.65,188.89 95.55,194.61 97.79,201.04 C100.93,210.04 102.55,219.55 104.35,228.97 C105.35,234.25 107.02,239.18 105.13,244.59 C101,256.34 93.63,265 82,269.59 C78.2,271.11 74,269.81 70.12,270.19 Z" id="Shape" fill="#3E3E3E"></path>
                <path d="M423.86,225 L427.15,226.22 C426.98,229.3 424.58,229.34 422.47,229.46 C410.68,230.12 398.99,232.09 387.15,231.97 C386.15,231.97 384.92,232.26 384.24,231.62 C379.09,226.81 373.3,229.93 367.74,230.14 C362.59,230.33 357.51,231.32 352.36,231.56 C337.36,232.26 322.52,233.85 307.57,234.63 C305.57,234.73 303.75,235.29 303.85,237.72 C303.97,240.63 306.31,239.91 307.99,239.8 C323.1,238.8 338.09,236.52 353.2,235.55 C355.2,235.42 357.2,235.04 358.9,236.55 C359.331686,236.92363 359.409543,237.563788 359.08,238.03 L297.65,244.03 C294.58,244.34 291.2,244.34 289.91,248.13 C288.54,249.44 289.11,251.13 289.08,252.67 C289.05,254.21 288.74,254.86 287.17,254.1 C284.86,253.18 285.03,251.25 285.57,249.48 C286.57,246.13 285.02,245.32 282.1,245.39 C279.255147,245.597559 276.411715,244.968388 273.92,243.58 C272.35,242.58 270.83,241.52 271.01,239.32 L272.12,238.13 C278.39,240.13 284.75,241.42 291.39,240.76 C292.708591,240.769493 294.022859,240.608151 295.3,240.28 C296.820267,239.87327 297.741725,238.3316 297.38,236.8 C297.07,234.94 295.59,235.23 294.28,235.23 C290.57,235.23 286.73,236.51 283.28,234.23 L276.65,234.23 L279.12,232.13 C296.12,229.8 313.33,229.73 330.44,228.46 C347.11,227.22 363.78,226 380.31,223.34 C381.790872,223.168706 383.279415,223.071918 384.77,223.05 C388.45,223.12 390.49,221.73 389.7,217.66 C389.517109,216.923015 389.963981,216.176739 390.7,215.99 L390.95,215.99 C394.65,220.54 394.31,223.23 389.11,226.77 C399.22,226.87 408.68,225.43 418.17,224.42 C420.12,224.11 422.12,223.45 423.86,225 Z" id="Shape" fill="#0A0B0D"></path>
                <path d="M123.2,240.11 C120.71,247.11 118.59,254.34 113.66,260.11 C106.2,268.86 96.78,273.11 85.14,272.01 C85.14,270.35 86.52,269.9 87.65,269.24 C98.25,263.02 104.83,253.87 107.17,241.81 C107.91,238.01 109.41,235.5 113.51,237.26 C116.67,238.66 121,235.93 123.2,240.11 Z" id="Shape" fill="#4E4E4E"></path>
                <path d="M283.25,234.18 C287.549285,234.376293 291.857423,234.141791 296.11,233.48 C297.54,233.29 299.62,232.91 299.33,235.19 C299.07,237.26 300.72,240.83 297.81,241.19 C289.12,242.41 280,244.72 272.12,238.11 C270.49,235.84 272.55,235.78 273.8,235.56 C276.94,235 280.21,235.38 283.25,234.18 Z" id="Shape" fill="#B0B0B0"></path>
                <path d="M271,239.33 C273.74,243.27 277.76,244.47 282.21,244.16 C286.66,243.85 289.28,244.72 286.87,249.85 C286.254785,251.226903 286.363452,252.819429 287.16,254.1 C283.31,257.1 282.39,252.37 280.05,251.41 C277.43,251.05 276.39,248.68 274.8,247.1 C271.181957,243.393646 266.458627,240.961798 261.34,240.17 C256.294849,239.453598 251.288616,238.485726 246.34,237.27 C251.77,234.7 257.52,237.62 262.96,236.35 C266.52,235.51 268.88,236.83 271,239.33 Z" id="Shape" fill="#B4B4B4"></path>
                <path d="M246.31,237.27 C252.48,236.87 258.44,238.35 264.4,239.48 C271.5,240.82 276.06,245.83 280.07,251.41 L278,253.18 C272.89,245.18 265,242.18 256.11,241.01 C254.88,238.6 252.61,239.29 250.59,239.1 C249,238.94 246.84,239.93 246.31,237.27 Z" id="Shape" fill="#151515"></path>
                <path d="M164.12,236.3 L156.23,236.05 C156.01,234.37 157.07,234.05 158.36,234.18 C166.96,234.8 175.546667,235.443333 184.12,236.11 C184.44,236.303333 184.55,236.5 184.45,236.7 C184.35,236.9 184.24,237 184.13,237 L174.28,237 C171,235.94 167.48,237.17 164.12,236.3 Z" id="Shape" fill="#9A9A9A"></path>
                <path d="M184.12,237 L184.12,236.11 L191.12,236.22 L195.07,237.99 C191.36,238.65 187.8,237.26 184.12,237 Z" id="Shape" fill="#ADA9A9"></path>
                <path d="M153.12,224.11 C153.27,221.37 153.03,218.6 153.94,215.93 C156.17,217.64 153.76,220.09 154.94,221.93 L155.11,223.93 L153.12,224.11 Z" id="Shape" fill="#AE7C57"></path>
                <path d="M164.12,236.3 C167.52,236.23 170.94,235.97 174.26,237.04 C170.89,236.93 167.42,237.88 164.12,236.3 Z" id="Shape" fill="#1B1B1B"></path>
                <path d="M450.75,285.2 C436.521324,284.320991 424.3519,274.658915 420.27,261 C419.37,257.86 420.5,255.67 423.87,255.44 C428.49,255.11 432.98,253.71 437.68,254.09 C439.316928,254.144086 440.899355,254.691313 442.22,255.66 C449.05,260.72 460.22,260.66 466.86,255.66 C469.32,253.81 470.77,251.18 472.36,248.66 C473.44,246.95 475.08,246.83 476.75,247.31 C478.42,247.79 478.22,249.44 477.95,250.66 C475.59,261.48 472.17,271.84 463.29,279.26 C459.34,282.56 454.91,285.2 450.75,285.2 Z" id="Shape" fill="#3E3E3E"></path>
                <path d="M174.36,4.24 C202.45,3.99 230.36,6.65 258.09,10.5 C260.22,10.79 262.31,11.38 264.42,11.79 C276.82,14.18 276.72,14.36 278.03,27.07 C279.48,41.07 280.26,55.07 281.03,69.07 L279.03,72.07 L279.12,72.07 C272.35,76.75 264.12,75.07 256.79,76.97 C254.64,78.26 253.53,76.74 253.17,75.16 C252.76,73.38 254.6,73.16 255.84,72.96 C259.31,72.48 262.7,71.96 265.84,70.06 C268.863223,68.4894453 270.740499,65.3464596 270.69,61.94 C270.76,54.46 271.04,46.94 269.85,39.52 C268.74,32.59 266.28,30.23 259.27,29.39 C238.152563,26.9203519 216.877813,26.061205 195.63,26.82 C191.48578,26.8611507 187.77672,29.4010075 186.24,33.25 C180.87,45.7 180.24,58.64 183.07,71.79 C183.67,74.59 185.65,75.67 188.6,75.73 C203.231646,75.9963065 217.86735,75.5156813 232.45,74.29 C234.88,74.09 238.05,72.79 239.45,76.13 C240.32,78.13 236.21,83.32 233.55,83.99 C233.078239,84.0822406 232.600238,84.1390658 232.12,84.16 C226.4,84.67 225.01,86.06 224.63,91.76 C224.51,93.58 224.69,95.43 224.05,97.2 C222.05,102.03 217.62,105.56 217.2,111.2 C216.99,114.12 217.63,117.2 215.85,120.2 C212.96,118.93 212.28,116.11 211.17,113.68 C207.27,105.16 207.3,105.23 198.06,106.01 C196.06,106.18 193.9,105.32 191.8,105.19 C187.96,104.96 184.39,105.55 182.8,109.77 C182.45,110.69 182.05,111.28 181.07,110.99 C177.66,109.99 175.44,111.64 173.07,114.22 C173.07,102.36 172.94,90.5 173.07,78.65 C173.376667,56.39 173.796667,34.1333333 174.33,11.88 C174.4,9.34 172.88,6.77 174.36,4.24 Z" id="Shape" fill="#FEA86E"></path>
                <path d="M246,90.17 C254.88,93.54 264.19,93.39 273.44,93.38 C285.7,93.38 297.98,93.25 310.12,91.15 C315.33,90.25 320.57,89.71 324.3,85.06 C325.67,83.35 328.04,82.42 330.72,80.62 C330.91,87.52 331.3,93.62 330.58,99.83 C330.35,101.83 329.36,102.01 327.28,102.15 C321.03,102.58 315.39,100.15 309.45,99.23 C308.962996,99.1786013 308.479005,99.1018303 308,99 C304,98.08 300.29,102.25 297.91,101.39 C294.77,100.26 292.13,97.49 288.2,97.39 C281.41,97.26 280.4,97.87 278.32,104.31 C278.13,104.89 277.69,105.94 277.52,105.91 C272.61,105.04 269.52,109.85 265,109.91 C264.337055,109.998659 263.668844,110.042093 263,110.04 C258.65,109.54 257.34,118.22 251,113.38 C247.19,110.46 241.72,112.23 236.92,112.82 C234.14,113.16 233.49,110.59 233.06,108.47 C232.06,103.78 230.94,99.28 226.27,96.78 C223.56,93.46 224.8,90.12 226.62,87.1 C228.44,84.08 231.49,84.37 234.27,85.1 C238.43,86.11 242.72,87 246,90.17 Z" id="Shape" fill="#FDCA80"></path>
                <path d="M246,90.17 C242.54,89.04 239.09,87.88 235.62,86.79 C228.52,84.56 226.93,85.61 226.42,92.85 C226.33,94.18 226.33,95.51 226.28,96.85 C225.68,98.11 224.81,97.31 224.03,97.15 C222.45,93.59 223.29,89.99 224.18,86.52 C224.84,83.99 227.1,81.35 229.53,82.26 C236.23,84.75 236.34,78.94 239.72,75.35 C228.65,75.97 218.64,76.44 208.64,77.12 C201.48,77.61 194.36,77.12 187.21,76.9 C183.94,76.82 182.3,75.31 181.68,72.34 C179.142818,60.2610409 179.738371,47.7337889 183.41,35.95 C185.99,27.45 192.41,25.13 200.83,25.23 C220.96,25.49 241.05,25.79 261.1,27.99 C266.97,28.64 269.71,31.91 270.79,36.99 C272.492747,45.8229039 272.830005,54.8647928 271.79,63.8 C271.37,68.12 268.42,70.8 264.43,72.39 C261.03,73.73 257.43,73.97 253.76,74.18 C253.96,76.34 255.17,76.89 256.76,76.94 L258.04,77.94 C257.86237,78.2105996 257.584484,78.3995163 257.267518,78.4651601 C256.950553,78.5308039 256.620492,78.4677933 256.35,78.29 L256.22,78.19 L252.66,77.94 C246.33,75.12 244.07,75.84 239.81,82.04 C239.4,82.57 240.6,82.41 239.99,82.14 C239.89,82.14 239.99,81.96 240.14,81.68 C240.531568,80.771075 241.309307,80.0850503 242.26,79.81 C242.95,79.97 243.75,80.5 243.44,81.07 C240.74,85.95 244.16,86.98 247.67,87.98 C248.59,88.24 249.67,88.24 250.04,89.4 C248.89,90.47 247.37,89.94 246,90.17 Z" id="Shape" fill="#0B0A0E"></path>
                <path d="M334.23,97.49 C333.66,91.49 332.96,86.37 332.77,81.28 C332.64,77.96 331.28,76.79 328.19,77.28 C326.713732,77.4891273 325.211418,77.4213028 323.76,77.08 C321.76,76.62 320.38,76.25 321.66,73.6 C322.624495,71.9560673 322.34842,69.8669597 320.99,68.53 C318.99,66.6 317.74,69.19 316.2,69.17 C312.79,69.17 309.2,71.87 305.99,68.82 C305.29,68.16 304.78,68.37 304.36,68.89 C303.36,70.06 302.59,73.01 301.18,71.63 C298.81,69.33 294.78,68.39 294.28,64.33 C294.18,63.51 294.05,62.68 294.01,61.86 C293.62,54.04 293.84,54.98 301.31,53.32 C311.31,51.11 321.31,51.85 331.31,50.43 C335.49,49.83 336.71,51.53 336.85,55.12 C337.22,65.12 337.49,75.12 336.06,84.97 C335.46,88.79 336.69,92.87 334.23,97.49 Z" id="Shape" fill="#DAA27B"></path>
                <path d="M287.68,126.32 L258,126.32 C254.93,126.32 254.53,125.04 255.82,122.65 C259.1,116.56 263,111.33 271.02,111.94 C271.84,112 273.17,112.16 273.42,111.76 C276.24,107.08 280.78,111.03 284.18,109.5 C285.73,108.8 286.31,110.06 286.82,111.03 C289.44,116.03 293.88,118.89 299.02,120.48 C301.52,121.25 301.19,122.48 301.23,124.4 C301.23,127.3 299.44,127.17 297.67,127.22 C294.35,127.31 291.02,127.22 287.67,127.22 L287.68,126.32 Z" id="Shape" fill="#8B8B3D"></path>
                <path d="M368.19,118.84 C362.98,118.52 357.79,119.21 352.54,117.49 C349.54,116.49 346.79,120.49 342.94,120.34 C340.4,120.27 337.94,120.13 335.31,119.95 C335.77,117.95 337.72,118.14 338.72,117.12 C339.72,116.1 341.12,113.89 339.53,113.46 C335.11,112.25 336.85,107.46 334.19,105.46 C333.459954,104.713831 333.335952,103.564741 333.89,102.68 C334.37,101.75 335.22,101.81 336.02,102.18 C342.53,105.18 349.89,105.18 356.49,107.9 C362.49,109.56 368.72,108.84 374.82,109.64 C378.58,110.14 382.45,109.64 386.27,109.81 C388.27,109.92 390.68,109.98 390.58,112.81 C390.49,115.4 388.15,115.21 386.39,115.09 C381.732832,114.673031 377.061783,115.72192 373.03,118.09 C371.45,119.11 369.77,118.42 368.19,118.84 Z" id="Shape" fill="#D9A27A"></path>
                <path d="M247.21,125.16 C238.65,126.55 230.11,125.3 221.56,125.02 C219.19,124.94 218.74,123.02 218.86,121.02 C219.21,114.92 220.86,109.24 224.67,104.37 C225.5,103.31 226.19,101.37 228.11,102.18 C229.66,102.8 229.96,104.35 230.05,105.92 C230.29,110.62 231.61,114.75 236.21,117.04 C239.141503,117.61472 241.96325,118.650935 244.57,120.11 C246.39,121.17 248.44,122.38 247.21,125.16 Z" id="Shape" fill="#44C73F"></path>
                <path d="M328,105.23 C334.46,106.23 333,112.79 337.82,115.4 C333.54,116.4 330.62,117.88 326.99,117.6 C324.23,117.38 321.54,118.75 318.99,120.19 C315.47,122.19 312.18,122.05 309.99,118.19 C308.21,115.06 305.28,115.39 302.54,115.38 C298.3,115.38 294.22,114.93 290.74,112.26 C289.22,111.09 286.88,109.73 288.32,107.56 C289.51,105.76 291.32,107.56 292.89,108.29 C292.17,104.6 290,104.68 287.22,105.8 C285.42,106.52 283.5,107.7 281.61,106.06 C280.61,105.16 280.83,103.89 281.34,102.82 C282.34,100.63 284.21,99.82 286.61,99.82 C293.12,99.62 294.99,101.02 298.61,109.25 C299.081001,110.475573 299.659943,111.656882 300.34,112.78 C300.75,113.39 302.08,114.25 302.34,113.56 C304.92,107.79 308.4,112.04 310.25,113.45 C316.51,118.23 323.13,114.33 329.5,114.91 C331.4,115.08 332.66,112.63 331.19,110.32 C330.36,108.79 329.36,107.28 328,105.23 Z" id="Shape" fill="#909141"></path>
                <path d="M367.28,89 C374,90 379.28,94.86 386.15,95.66 C388.402372,95.9446849 390.16257,97.7421573 390.4,100 L389.01,100.15 C387.29,100.61 386.39,98.4 384.3,98.89 C385.49,100.09 387.44,99.76 388.12,101.23 C388.8,102.7 390.56,100.8 391.19,102.3 C391.74,103.64 392.48,104.89 393.13,106.18 L393.07,107.18 C391.07,110.58 387.82,110.12 384.68,110.06 L374.89,110.06 C370.63,110.21 366.42,109.23 362.15,109.52 C361.15,109.58 360.15,109.61 360.15,108.14 C361.15,105.02 364.51,106.9 366.23,105.3 C365.74,103.21 367.23,103.49 368.41,103.54 C370.304672,105.017941 372.684716,105.731598 375.08,105.54 C373.17,104.27 370.95,105.07 369.17,104.07 C368.698799,103.62003 368.318557,103.083617 368.05,102.49 C367.16,100.25 365.65,98.96 363.15,99.62 C359.91,100.48 361.63,102.97 361.56,104.86 C358.3,106.86 358.03,102.86 356.16,102.13 C355.86,99.7 356.3,97.01 353.92,95.26 C353.775337,94.6005634 353.93306,93.910985 354.35,93.38 C356.41,90.38 351.8,90.54 351.94,88.38 C352.57,87.29 353.47,87.51 354.4,87.86 C355.935651,87.9740754 357.324873,88.8135518 358.14,90.12 C358.81,90.72 360.02,90.26 360.46,91.31 C359.36,98.82 365.54,93.64 367.77,96.11 C368.26,93.11 366.28,91.69 365.85,89.71 C366,89 366.35,88.48 367.28,89 Z" id="Shape" fill="#120E0D"></path>
                <path d="M380.12,130.24 C372.44,131.5 364.67,130.97 356.97,130.99 C335.82,130.99 314.68,130.61 293.53,130.36 C292.704211,130.303908 291.882658,130.19704 291.07,130.04 C285.58,127.79 279.7,130.04 274.13,128.4 C282.34,128.57 290.56,127.33 298.77,128.84 C301.590085,129.264399 304.47213,128.943789 307.13,127.91 C308.38,126.91 309.83,126.18 311.03,125.11 L311.85,125.11 C317.23,125.95 322.56,127.39 328.1,126.11 C329.943228,125.722618 331.845855,126.421543 333,127.91 C333.77,129.15 334.5,129.05 335.18,127.83 C336.24,126.7 337.79,128.19 338.87,127.15 L341,127.09 C345.75,126.53 350.55,125.39 355.06,128.09 C356.41,129.46 357.74,129.5 359.06,128.09 C359.27,125.91 360.93,127.09 361.98,126.83 C364.08,126.43 366.59,127.45 368.07,125 L369.14,124.07 C372.6,125.82 376.14,126.82 379.97,125.29 L380.75,124.12 C381.216667,124.246667 381.34,124.526667 381.12,124.96 L380.12,130.24 Z" id="Shape" fill="#0E0C12"></path>
                <path d="M363.72,31.95 C361.32,34.23 359.23,36.71 358.44,40.15 C354.069658,36.3168713 347.595398,36.1197921 343,39.68 C340.13,42.04 339.09,41.95 338.46,38.12 C338.22,36.67 336.14,35.55 335.81,34.12 C335.268369,31.9493337 336.05139,29.6629126 337.81,28.28 C339.81,26.7 342.38,26.39 344.2,28.05 C345.64,29.36 346.08,29.51 347.64,28.29 C353.7,23.57 355.12,23.74 359.85,29.5 C360.86,30.71 362.47,30.67 363.72,31.95 Z" id="Shape" fill="#3F8B3E"></path>
                <path d="M201,124.47 C199.829961,124.281862 198.642241,124.22818 197.46,124.31 C190.41,125.9 186.38,123.39 184.84,116.11 C184.11,112.67 183.59,110.04 187.2,108.11 C191.27,105.93 193.6,108.26 195.2,111.37 C197.31,115.44 198.94,119.76 201,124.47 Z" id="Shape" fill="#44C73F"></path>
                <path d="M214.28,124.45 C211.13,124.84 208.52,123.78 205.93,124.59 C204.03,125.18 203.25,123.69 202.59,122.37 C201.26,119.72 200.07,116.99 198.75,114.37 C197.43,111.75 197.85,109.83 200.36,108.51 C203.1,107.07 205.28,108.3 206.67,110.64 C209.24,115 211.57,119.49 214.28,124.45 Z" id="Shape" fill="#44C93E"></path>
                <path d="M326.94,49.11 C325.24,49.38 322.39,49.26 323.21,44.9 C323.76,41.98 323.08,37.27 328.77,39.9 C328.92,39.97 329.18,40.08 329.24,40.03 C335.07,34.21 335.95,41.74 338.91,43.63 C339.930779,44.2851336 340.379102,45.5478401 340,46.7 C339.73,47.82 338.77,48.12 337.7,48.2 C334.59,48.45 331.48,48.74 326.94,49.11 Z" id="Shape" fill="#3E8A3E"></path>
                <path d="M359.54,41.81 C361.37,38.2 361.24,35.08 365.14,35.45 C367.29,35.66 366,33.87 366.2,32.98 C366.75,30.55 367.74,28.73 369.86,31.67 C371.11,33.41 372.05,32.92 373.57,32.48 C375.77,31.85 377.27,33.25 378.57,34.88 C379.87,36.51 378.9,37.88 377.9,39.26 C377.14,40.33 376.69,41.62 375.9,42.71 C374.75,44.43 372.15,44.58 371.66,43.43 C369.12,37.37 365.06,39 359.54,41.81 Z" id="Shape" fill="#6EAE6F"></path>
                <path d="M154.92,222 C153.35,220.18 154.75,217.89 153.92,216 C155.12,197.57 155.29,179.06 158.49,160.79 C158,181.18 158.84,201.72 154.92,222 Z" id="Shape" fill="#EAB37F"></path>
                <path d="M333,127.94 C327.25,127 321.43,128.58 315.66,127.38 C314,127.04 312.28,127.38 311.86,125.12 C311.86,124.96 311.86,124.67 311.96,124.65 C317.78,123.04 322.79,117.99 329.36,119.8 C333.24,120.87 333.36,124.52 333,127.94 Z" id="Shape" fill="#8A8A3F"></path>
                <path d="M353.36,48.89 C350.68,48.67 348.36,48.57 346.07,48.26 C344.74,48.09 342.7,49.02 342.3,47.08 C341.9,45.14 341.97,43.08 343.66,41.55 C346.32,39.13 353.66,39.92 356.33,42.39 C357.74,43.69 358.62,44.72 357.86,46.45 C357.23468,48.319847 355.268198,49.3861174 353.36,48.89 Z" id="Shape" fill="#70B171"></path>
                <path d="M385.12,109.36 C387.94,109.26 390.7,108.91 393.12,107.23 C393.55,108.54 391.99,109.45 392.12,110.36 C393.29,116.93 389.77,116.8 384.95,116 C380.95,115.34 377.08,116.69 373.67,118.86 C372.056488,120.075014 369.833512,120.075014 368.22,118.86 C374.55,116.73 380.47,112.95 387.62,114.08 C388.62,114.23 389.82,114 389.82,112.7 C389.82,111.04 388.38,111.17 387.25,111.16 C379.486029,111.308132 371.719951,111.010978 363.99,110.27 C361.214713,109.957304 358.457632,109.500016 355.73,108.9 C354.32,108.58 356.27,108.34 356.5,107.9 L360.1,108.19 C364.99,110.29 370.21,108.02 375.16,109.31 C378.46064,109.801391 381.814593,109.818229 385.12,109.36 Z" id="Shape" fill="#E3AF89"></path>
                <path d="M326.28,113.69 C323.60337,113.137913 320.833803,113.23046 318.2,113.96 C316.74,114.42 315.05,114.2 314.28,112.68 C313.61,111.38 314.6,110.11 315.28,109.04 C316.841441,106.739138 319.485628,105.414118 322.26341,105.540566 C325.041193,105.667015 327.55406,107.22679 328.9,109.66 C329.42,110.66 330.23,111.66 329.59,112.89 C328.95,114.12 327.63,113.7 326.28,113.69 Z" id="Shape" fill="#F58D3F"></path>
                <path d="M306.24,101.11 C309.33,101.73 312.13,102.55 313.95,105.26 C315.37,107.37 313.4,108.59 312.69,110.09 C311.81,111.95 310.55,110.69 309.37,110.34 C307.65,109.83 305.78,108.89 304.16,109.17 C301,109.72 299.91,107.84 299.37,105.64 C298.67,102.81 301.56,102.95 303.07,102.08 C304.083986,101.630826 305.148286,101.305157 306.24,101.11 Z" id="Shape" fill="#F78E41"></path>
                <path d="M286.38,76.23 L296.12,76 C296.388194,76.1732209 296.550129,76.4707301 296.55,76.79 C296.55,77.11 296.506667,77.27 296.42,77.27 C292.74,85.12 287.64,91.08 277.99,91.38 C277.83,89.13 280.11,88.78 280.54,87.24 C282.888951,83.3187591 286.620342,80.4185484 291,79.11 C289.77,78 286.69,79.3 286.38,76.23 Z" id="Shape" fill="#73F13A"></path>
                <path d="M299.12,88.05 C295.89,88.48 293.56,91.98 289.36,90.6 C294.41286,84.8255939 300.792282,80.3644598 307.95,77.6 C309.95,76.83 311.09,77.68 312.12,79.16 C312.79,80.62 313.12,82.27 311.12,82.53 C306.69,83.08 303.48,85.93 299.85,88.01 L299.12,88.05 Z" id="Shape" fill="#6ADC38"></path>
                <path d="M368.36,49 C367.029029,49.1122433 365.690971,49.1122433 364.36,49 C362.76,48.72 359.95,50 359.89,47.42 C359.83,44.84 362,43 364.36,41.95 C366.15,41.14 368.09,40.74 369.04,42.95 C369.99,45.16 371.18,46.47 373.84,46.06 C375.2,45.85 376.77,46.45 376.66,48.06 C376.55,49.67 374.83,49.06 373.82,49.15 C372.01,49.31 370.17,49.15 368.34,49.15 L368.36,49 Z" id="Shape" fill="#408C40"></path>
                <path d="M286.38,76.23 L295.07,79.35 C288.27,80.27 284.8,84.35 280.53,87.23 C278.88,81.58 281.47,76.7 286.38,76.23 Z" id="Shape" fill="#2E3F1C"></path>
                <path d="M237.33,115.86 C241.01,114.86 244.73,114.27 248.4,115.72 C250.17,116.42 253.11,116.96 252.9,118.93 C252.63,121.52 252.6,124.93 249.11,126.12 C248.11,122.25 245.41,120.31 241.75,119.18 C240,118.65 237.9,118.11 237.33,115.86 Z" id="Shape" fill="#47CD40"></path>
                <path d="M355.12,128.11 C350.47,127.26 345.64,128.89 341.06,127.11 C339.63,125.7 339.48,124.34 341.15,122.96 C344.82,119.93 353.63,123.17 355.12,128.11 Z" id="Shape" fill="#71ED71"></path>
                <path d="M368.12,125 C370.01,127.19 370.03,127.35 368.32,127.53 C365.26,127.84 362.18,127.92 359.11,128.09 C356.65,125.31 354.57,122.09 350.11,120.71 C354.4,118.43 357.33,119.71 359.61,121.89 C361.89391,124.059899 364.975142,125.185943 368.12,125 L368.12,125 Z" id="Shape" fill="#70E26F"></path>
                <path d="M354.12,95 C358.32,96.43 358.36,99 356.12,102.21 C350.78,104.8 348.97,104.44 347.32,100.47 C347.75,94.84 349.21,93.67 354.12,95 Z" id="Shape" fill="#DAB4B5"></path>
                <path d="M256.29,78.2 L258.11,77.95 L273,77 C271.59,80 269.06,81.28 267.18,83.17 C266.410708,83.4834748 265.549292,83.4834748 264.78,83.17 C261.089746,81.2579942 256.718848,81.1766408 252.96,82.95 C252.16,83.31 250.42,84.53 250.18,82.1 C251.29,79.4 254.2,79.44 256.29,78.2 Z" id="Shape" fill="#74ED39"></path>
                <path d="M313,49.6 C312.51,49.6 311.85,49.81 311.55,49.6 C309.87,48.25 306.66,51.24 306.14,48.34 C305.57,45.19 309.31,47.05 310.37,45.94 C313.58,42.59 316.49,42.24 319.61,45.82 C320.23,46.53 321.38,47.03 320.98,48.24 C320.58,49.45 319.41,49.24 318.45,49.32 C316.63,49.32 314.81,49.32 312.99,49.32 L313,49.6 Z" id="Shape" fill="#78B777"></path>
                <path d="M326.12,80.76 C323.04,83.15 320.47,85.24 317.79,87.18 C316.89,87.84 315.64,88.54 314.59,87.66 C313.54,86.78 314.13,85.53 314.59,84.43 C316.43,79.67 321,78.05 326.12,80.76 Z" id="Shape" fill="#75F23A"></path>
                <path d="M369,104.11 C367.86494,103.740871 366.634486,104.289179 366.15,105.38 L361.52,104.94 C360.44,103.64 358.09,102.83 359.31,100.56 C360.53,98.29 362.59,98.02 364.87,98.16 C367.15,98.3 368.6,99.34 368.79,101.75 C368.85,102.57 368.86,103.4 368.9,104.22 L369,104.11 Z" id="Shape" fill="#D3B0B0"></path>
                <path d="M373.21,121.76 C376.92,118.23 381.37,117.56 385.8,117.76 C389.87,117.91 392.8,122 392.6,126.05 C392.51,127.85 391.15,127.32 390.66,126.93 C389.993529,126.222804 389.500558,125.370375 389.22,124.44 C387.31,120.04 384.31,118.44 379.69,120.44 C377.75,121.28 375.78,122.25 373.21,121.76 Z" id="Shape" fill="#78E577"></path>
                <path d="M265.22,85.11 C260.181292,88.2126337 253.736041,87.8123075 249.12,84.11 C253.42,82.2 257.62,79.71 262.59,82.11 C264,82.78 265.46,83.17 265.22,85.11 Z" id="Shape" fill="#73EF39"></path>
                <path d="M354.12,95 C349.72,94.17 348.42,97.21 347.29,100.47 L346.12,99.13 C344.58,97.06 341.91,96.62 340.12,94.95 L338.82,93.95 C341.57,93.27 344.07,92.81 346,89.95 C347.870419,87.2196915 351.518045,86.3729212 354.4,88 L352.16,88.89 C351.51,90.6 349.24,90.39 348.31,92.35 C350.56,93.46 353.96,90.26 355.39,93.96 L354.12,95 Z" id="Shape" fill="#302820"></path>
                <path d="M183.61,121.34 C183.47,122.76 183.29,124.59 180.98,124.34 C177.16,123.9 177.92,120.07 176.72,117.79 C176.11,116.63 177.1,113.46 178.52,113.79 C181.85,114.62 183,117.84 183.61,121.34 Z" id="Shape" fill="#46C941"></path>
                <path d="M242.19,80.29 C241.951058,80.7250749 241.676803,81.1398009 241.37,81.53 C240.29,82.72 240.87,84.9 238.96,85.53 C238.645421,85.5231667 238.357252,85.3525403 238.2,85.08 C237.52,82.87 238.85,81.22 240.01,79.68 C244.64,73.56 248.69,73.06 252.72,77.94 C250.45,79.5 248.16,80.94 245.19,80.21 C244.58,78.91 245.36,78.51 246.38,78.21 C244.86,78.62 243.71,79.84 242.19,80.29 Z" id="Shape" fill="#73DB39"></path>
                <path d="M340.12,94.94 C342.75,95.44 347,93.61 346.12,99.12 C345.34,101.84 343.3,101.88 341.12,101.41 C339.55,101.08 337.66,100.85 337.25,98.99 C336.77,96.83 338.65,95.94 340.12,94.94 Z" id="Shape" fill="#DEBABB"></path>
                <path d="M380,125.29 C378.21,127.73 373.65,128.29 371.75,126.2 C371.100295,125.268042 370.208122,124.531481 369.17,124.07 C368.32,122.97 367.07,123.35 365.96,123.2 C364.970279,123.149245 364.052695,122.666691 363.45,121.88 C369.44,120.76 374.45,124.6 380,125.29 Z" id="Shape" fill="#7AE979"></path>
                <path d="M273.48,80.29 C268.83,89.8 266.88,91.29 260.48,90.5 C265.5,87.53 269,83.42 273.48,80.29 Z" id="Shape" fill="#66DF3C"></path>
                <path d="M284.76,74.68 C287.59,71.39 291.4,70.57 295.33,70.03 C297.11,69.78 298.5,70.75 298.63,72.29 C298.78,74.15 296.8,73.77 295.63,73.95 C292.12,74.52 288.39,73.34 284.76,74.68 Z" id="Shape" fill="#64E43A"></path>
                <path d="M311.12,85.11 C308.64,90.17 303.71,89.46 299.38,89.89 C298.11,90.02 299.38,88.67 299.13,88.06 L299.13,88.15 C302.23,86.29 304.91,83.72 308.62,82.9 C310.61,82.45 311.91,82.48 311.12,85.11 Z" id="Shape" fill="#74E13D"></path>
                <path d="M319.94,71.48 C319.94,73.55 319.45,75.04 318.26,75.95 C316.58,77.23 316.12,75.13 315.26,74.42 C313.98,73.42 312.81,72.88 311.26,73.76 C310.53,74.17 309.56,74.25 309.36,73.11 C309.253697,72.2791882 309.839531,71.5189458 310.67,71.41 L310.77,71.41 C313.37,71.15 315.91,71.15 318.4,69.82 C319.88,69 319.9,70.85 319.94,71.48 Z" id="Shape" fill="#64DA3E"></path>
                <path d="M242.19,80.29 C243.75,78.36 245.47,76.74 248.74,77.29 L245.2,80.29 C242.49,85.42 242.58,85.6 247.93,87.23 C250.07,87.88 252.55,87.63 254.3,89.51 C252.87,90.69 251.49,89.59 250.11,89.51 C242,87.19 242,87.19 242.19,80.29 Z" id="Shape" fill="#65AE39"></path>
                <path d="M279.12,72.11 C283.83,72.11 287.24,67.66 292.57,68.43 C288.77,70.24 285.08,71.61 282.33,74.54 C281.16,75.79 280.18,78.64 277.77,76.29 C275.66,74.23 279.77,73.83 279.22,72.06 L279.12,72.11 Z" id="Shape" fill="#68DD39"></path>
                <path d="M381.19,125 C381.261904,124.669387 381.112464,124.330117 380.82,124.16 C379.43,121.93 381.26,121.83 382.63,121.47 C385.03,120.83 386.29,122.32 387.26,124.13 C387.75,125.05 388.84,126.36 387.26,127.01 C385.647449,127.791563 383.739945,127.650408 382.26,126.64 C381.809781,126.160419 381.447578,125.605267 381.19,125 L381.19,125 Z" id="Shape" fill="#74EC77"></path>
                <path d="M265.22,85.11 C262,81.54 258,81.9 253.93,82.8 C252.32,83.15 250.75,83.69 249.17,84.14 C248.99075,83.3210252 249.40727,82.4879851 250.17,82.14 C255.95,80.68 261.74,79.01 267.17,83.2 L265.22,85.11 Z" id="Shape" fill="#335C24"></path>
                <path d="M237.33,115.86 C239.47,117.73 242.22,118.35 244.73,119.49 C247.56,120.77 249.79,122.49 249.12,126.13 C246.97,128.78 248.12,124.92 247.22,125.13 C247.55,122.56 245.5,121.98 243.84,121.04 C241.34,119.62 238.32,119.18 236.22,117.04 L237.33,115.86 Z" id="Shape" fill="#1B351B"></path>
                <path d="M393.12,106.18 C390.95,105.65 389.28,104.87 391.18,102.3 C391.604072,102.048492 392.067074,101.869375 392.55,101.77 C394.41,101.77 397.26,99.67 397.64,103.16 C398,105.91 395.49,106.42 393.12,106.18 Z" id="Shape" fill="#CFAFB2"></path>
                <path d="M311.12,85.11 C311.24,82.82 309.95,83.63 308.63,83.81 C304.98,84.31 302.73,87.74 299.09,88.15 C301.76,84.22 305.84,82.35 310.21,81.56 C312.21,81.2 312.21,80.45 312.13,79.11 C314.18,81.51 312.7,83.31 311.12,85.11 Z" id="Shape" fill="#24401C"></path>
                <path d="M277.95,81.11 C276.89,83.53 274.64,84.76 274.95,87.11 C275.58,91.52 273.36,91.97 269.49,90.82 C273.75,88.72 272.2,82.5 277.95,81.11 Z" id="Shape" fill="#7AD33D"></path>
                <path d="M311.12,125.11 C311.37,128.2 309.33,128.11 307.22,127.91 C307.04,127.3 306.54,126.55 306.74,126.12 C307.44,124.61 306.06,121.94 308.33,121.6 C310,121.34 310.22,123.82 311.12,125.11 Z" id="Shape" fill="#66681D"></path>
                <path d="M394.12,130.11 L382.12,130.11 C384.87,127.26 390.64,127.26 394.12,130.11 Z" id="Shape" fill="#0E0C12"></path>
                <path d="M388.12,101.22 C387,101.04 385.87,100.92 384.78,100.65 C383.69,100.38 382.4,101.74 381.88,100.03 C381.659103,99.2448445 381.767419,98.4035917 382.18,97.7 C383.098157,96.6679558 384.647199,96.4953606 385.77,97.3 C386.967951,98.1030141 388.059893,99.0538434 389.02,100.13 L388.12,101.22 Z" id="Shape" fill="#C8ACAD"></path>
                <path d="M296,117.48 L307.9,117.48 C303.29,120.34 300.12,119.57 296,117.48 Z" id="Shape" fill="#676C1B"></path>
                <path d="M296.42,77.27 L296.12,76.01 C299.27,74.33 302.79,73.46 306.2,70.52 C305.67,73.9 302.69,74.03 302.12,76.08 C302.27,78 301.24,77.62 300.12,77.08 C298.81,75.11 297.64,76.79 296.42,77.27 Z" id="Shape" fill="#487929"></path>
                <path d="M300.12,77.11 C300.928143,77.2152864 301.719343,76.8196861 302.12,76.11 C303.41,75.9 304.68,74.22 306.25,76.38 L297.42,81.32 C297.12,78.87 298.69,78 300.12,77.11 Z" id="Shape" fill="#6ADC38"></path>
                <path d="M338.91,127.18 C337.98,129.05 336.49,127.84 335.22,127.86 C335.130108,127.196364 335.130108,126.523636 335.22,125.86 C335.59,124.58 334.58,122.16 336.63,122.24 C339.7,122.36 337.37,124.61 337.57,125.91 C337.67,126.41 338.46,126.77 338.91,127.18 Z" id="Shape" fill="#6EC672"></path>
                <path d="M311.38,74.87 C314.8,75.33 316.16,77.18 316.48,79.16 C316.65,80.16 314.98,82.07 313.98,79.16 C313.54,77.82 312.54,76.73 311.38,74.87 Z" id="Shape" fill="#68D43B"></path>
                <path d="M304.51,126.73 C302.88,124.27 302.23,121.92 305.82,119.92 L304.51,126.73 Z" id="Shape" fill="#646C1C"></path>
                <path d="M274.24,205.79 C275.47,209.15 274.98,212.64 275.01,216.09 C273.17,212.77 274.43,209.22 274.24,205.79 Z" id="Shape" fill="#1B1B1B"></path>
                <path d="M391.12,216.11 C390.81,216.83 390.12,217.59 390.24,218.26 C390.81,222.69 388.61,223.74 384.77,222.99 C389.28,222.44 390.31,219.8 389.22,215.76 C387.87,210.76 387.48,205.63 386.68,200.56 C386.19,197.42 387.23,195.99 390,195.76 C401.21,194.82 412.42,193.88 423.65,193.26 C427.26,193.06 429.9,195.09 430.72,198.93 C431.86,204.28 433.18,209.6 433.01,215.13 C432.01,216.9 431.01,216.13 430.01,215.13 C427.24,213.98 428.51,211.41 428.18,209.51 C425.77,195.88 427.32,197.2 413.18,197.67 C409.18,197.8 405.25,198.53 401.26,198.4 C398.803931,198.31341 396.344957,198.437195 393.91,198.77 C392.91,198.87 391.91,199.08 392.55,200.56 C392.52143,201.004924 392.387775,201.436735 392.16,201.82 C390.16,204.76 391.7,207.9 391.62,210.95 C391.52,212.7 392.68,214.52 391.12,216.11 Z" id="Shape" fill="#110F14"></path>
                <path d="M367.28,89 L366.16,89.85 C364.830703,91.6736422 362.361861,92.2407511 360.37,91.18 C359.5,91.18 358.61,91.18 358.13,90.18 C361.26,90.48 363.85,86.63 367.28,89 Z" id="Shape" fill="#372D1F"></path>
                <path d="M359.12,238 L359.12,236.72 C359.65,234.96 361.19,235.03 362.57,234.79 C365.11,234.9 367.75,234.24 370.12,235.79 C370.553388,236.203746 370.588489,236.883835 370.2,237.34 C366.55,238.77 362.78,237.88 359.12,238 Z" id="Shape" fill="#303030"></path>
                <path d="M370.12,237.33 L370.12,236.13 C373.34,234.54 376.56,233.13 379.86,235.96 L381.06,236.96 L370.12,237.33 Z" id="Shape" fill="#050505"></path>
                <path d="M379.87,236 C376.61,235.25 373.38,236.12 370.13,236.17 L362.13,236.03 C362.28,233.55 364.28,233.21 366.03,233.03 C369.83,232.61 373.67,232.64 377.47,232.26 C381.27,231.88 384.81,233.51 387.19,232.89 C380.68,231.34 372.83,229.89 364.71,232.23 C361.87,233.07 358.71,232.7 355.77,232.44 C354.27,232.31 352.22,232.64 352.09,230.14 C360.87,228.84 369.84,229.14 378.52,226.95 C379.52,226.69 381.67,226.95 381.79,227.37 C383.29,232.85 387.7,230.63 390.79,230.46 C401.99,229.85 413.17,228.68 424.36,227.8 C425.521023,227.87382 426.62005,227.269745 427.18,226.25 C427.449626,226.179164 427.723523,226.125721 428,226.09 C430.37,228.82 426.63,229.01 426,231.16 L454.39,231.16 C456.29,231.16 458.39,230.44 460.06,232.03 C445.84,232.51 431.61,232.82 417.39,233.51 C404.89,234.11 392.38,235.11 379.87,236 Z" id="Shape" fill="#B7B7B6"></path>
                <path d="M390.12,45.87 C386.54,43.7 383.35,42.12 379.6,43.27 C382.5,40.11 387.17,41 390.12,45.87 Z" id="Shape" fill="#131216"></path>
                <path d="M391.12,216.11 C390.62,212.5 390.3,208.86 389.56,205.3 C389.03,202.77 390.19,201.66 392.19,200.84 C396.63,198.03 401.62,198.9 406.46,198.71 C411.37,199.23 416.46,197.55 421.23,199.96 C421.8,200.51 422.76,200.96 422.87,201.63 C423.97,208.24 424.87,214.88 425.95,221.51 C426.23,223.29 425.26,224.22 423.95,224.98 C412.61,226.56 401.27,228.07 389.79,228.04 C388.37,228.04 386.45,228.98 385.96,227.04 C385.36,224.62 387.76,225.21 388.96,224.88 C394.83,223.19 391.23,219.23 391.12,216.11 Z" id="Shape" fill="#65B8D9"></path>
                <path d="M400.25,197.33 C407.64,196.94 415.05,196.7 422.43,196.09 C426.36,195.77 427.82,197.8 428.28,201.09 C428.94,205.77 429.42,210.47 429.98,215.17 C429.8,215.95 429.84,216.89 428.75,217.04 C427.34,217.24 427.11,216.16 426.97,215.2 C426.38,211.3 425.97,207.36 425.26,203.48 C424.86,201.33 424.71,198.55 421.17,199.28 C419.17,200.1 417.17,199.28 415.24,199.14 C411.58,199.14 407.92,199.21 404.24,199.07 C402.77,199 400.76,199.77 400.25,197.33 Z" id="Shape" fill="#E98C40"></path>
                <path d="M416.38,198.25 C417.74,199.68 419.56,198.96 421.16,199.25 C421.14372,199.476374 421.14372,199.703626 421.16,199.93 L406,199.93 C405.867329,199.691789 405.854011,199.405158 405.964021,199.155671 C406.074031,198.906184 406.294643,198.722703 406.56,198.66 C409.84,198.34 413.12,199.11 416.38,198.25 Z" id="Shape" fill="#193B4D"></path>
                <path d="M136.6,149.2 C137.06,149.2 138.6,149.11 140.04,149.02 C142.42,148.88 144.52,149.4 144.84,152.13 C145.16,154.86 144.84,157.96 141.68,158.58 C136.16,159.66 130.45,160.12 125.12,157.69 C121.33,155.96 121.42,153.46 124.99,151.15 C128.27,149 131.94,149.24 136.6,149.2 Z" id="Shape" fill="#181413"></path>
                <path d="M93.52,80.06 L95.25,80.27 L92.15,82.37 C91.99,80.93 86.53,82.83 90.07,79.06 C90.73,80.52 91.43,79.06 92.07,79.06 C92.52,79.49 93.19,79.52 93.52,80.06 Z" id="Shape" fill="#8F9295"></path>
                <path d="M138.35,67.32 C137.07,67.32 136.35,66.83 136.45,65.86 C136.534555,64.8441535 137.302948,64.0179241 138.31,63.86 C138.700703,63.7144643 139.137042,63.760563 139.488708,63.9845288 C139.840374,64.2084946 140.066664,64.5844063 140.1,65 C140.27,66.43 139.12,66.89 138.35,67.32 Z" id="Shape" fill="#24201C"></path>
                <path d="M118.19,66.4 C119.02,65.23 128.19,61.96 128.58,62.47 C129.93,64.08 128.79,65.62 128.11,67.04 C127.43,68.46 126.32,70.21 124.87,68.38 C123.12,66.11 120.87,66.11 118.19,66.4 Z" id="Shape" fill="#986D4C"></path>
                <path d="M258.24,286 C259.13,297.22 248.76,312 240.11,313.68 C233.94,314.86 227.04,313.08 223.7,307.89 C213.31,291.69 213.5,269.57 228.22,255.34 C234.49,249.28 246.15,249.6 250.87,257.93 C255.9,266.84 257.12,276.33 258.24,286 Z" id="Shape" fill="#141516"></path>
                <path d="M60.12,204.11 C62.4152573,201.931189 65.1400285,200.255455 68.12,199.19 C74.4,197.38 80.85,200.58 83.5,207.88 C85.76,214.13 87.22,220.79 83.76,227.3 C80.27,224.92 82.26,221.53 82.13,218.53 C82.13,218.43 82.03,218.26 81.97,218.26 C81.8064147,218.272899 81.6451269,218.306501 81.49,218.36 C80.733308,218.006611 80.1447525,217.371401 79.85,216.59 C78.72,214.29 77.34,211.97 74.42,212.36 C71.69,212.72 70.5,215.15 69.49,217.47 C67.641981,221.562594 66.9303911,226.07739 67.43,230.54 C67.76,233.37 68.98,235.8 71.82,236.54 C74.66,237.28 76.44,235.54 77.73,233.11 C78.49,231.69 79.1,230.02 81.09,229.77 C82.1537145,229.884071 83.1000814,230.496426 83.64,231.42 C83.2183573,240.309469 79.3561543,248.686541 72.87,254.78 C70.02,257.57 62.87,256.52 58.96,253.39 C52.96,248.66 50.96,241.95 50.47,234.89 C49.78,223.49 51.61,212.67 60.12,204.11 Z" id="Shape" fill="#558C8C"></path>
                <path d="M83.3,227.35 C84.5882436,221.882658 84.7007247,216.204068 83.63,210.69 C81.92,202.76 76.94,199.31 68.12,199.11 C69.98,196.89 72.18,196.79 74.72,197.88 C80.64,200.43 84.55,204.8 85.85,211.05 C88.3553472,222.462597 87.4156371,234.362111 83.15,245.24 C80.15,252.88 74.07,257.14 66.58,257.17 C59.46,257.17 55.24,252.49 52.89,247.17 C46.42,232.38 48.57,218.11 57.83,204.93 C58.27,204.3 58.83,202.93 60.08,204.07 C51.51,215.96 48.76,228.88 53.08,243.07 C54.0034526,246.276619 55.7235369,249.197322 58.08,251.56 C63.65,257.05 70.63,256.56 75.28,250.2 C79.4042193,244.567423 82.0950439,238.015402 83.12,231.11 C82.12,229.79 81.9,228.52 83.3,227.35 Z" id="Shape" fill="#171818"></path>
                <path d="M352.12,230.11 C358.64,232.69 365.12,230.66 371.56,229.77 C375.7,229.2 379.56,228.14 383.24,231.44 C385.04,233.07 387.76,231.72 390.01,233.08 C382.87,233.43 375.74,233.83 368.6,234.08 C366.25,234.17 363.92,234.08 362.16,235.99 C361.16,236.24 359.94,235.76 359.09,236.73 C341.34,237.17 323.81,240.09 306.09,241.43 C304.09,241.58 301.78,242.63 302.28,239.12 C302.59,236.96 300.08,233.54 305,233.24 C320.75,232.29 336.43,231.11 352.12,230.11 Z" id="Shape" fill="#B0AFAF"></path>
                <path d="M217.42,49.2 C216.81,56.4 217.25,63.92 215.88,71.33 C215.61,72.79 215.8,74.33 213.47,74.2 C205.52,73.7 197.6,75.2 189.63,74.47 C186.51,74.2 184.63,73.08 184.1,69.93 C182.397432,59.5628108 182.822731,48.9575615 185.35,38.76 C187.7,29.5 191.35,27.39 201.92,27.76 C203.58,27.81 205.25,28.13 206.92,28.08 C218,27.74 217.92,27.71 217.47,38.51 C217.29,41.95 217.42,45.45 217.42,49.2 Z" id="Shape" fill="#C9C9C9"></path>
                <path d="M257.12,30.19 C267.42,30.03 268.36,33.68 269.93,45.59 C270.57,50.48 270.11,55.53 269.93,60.5 C269.77,66.43 267.38,69.29 261.43,70.3 C255.89,71.23 250.27,71.68 244.72,72.54 C242.23,72.92 242,71.88 242.07,69.81 C242.463333,57.4033333 242.796667,44.9933333 243.07,32.58 C243.07,30.11 243.43,28.47 246.4,29.97 C249.93,30.55 253.52,29.89 257.12,30.19 Z" id="Shape" fill="#C9C9C9"></path>
                <path d="M232.12,29.11 C241.12,28.46 241.01,28.45 240.58,37.25 C240.06,47.69 239.673333,58.1333333 239.42,68.58 C239.35,71.46 239.03,73.13 235.42,72.97 C230.81247,72.8189584 226.200317,73.0463887 221.63,73.65 C219.57,73.9 218.94,73.65 219,71.65 C219.32,60.55 219.57,49.45 219.84,38.35 C220.67,29.86 220.67,29.87 229.32,29.68 C230.26,29.6 231.28,29.82 232.12,29.11 Z" id="Shape" fill="#C9C9C9"></path>
                <path d="M232.12,29.11 C230.36,30.91 228.12,30.17 226.12,30.04 C222.46,29.8 220.48,30.78 221.12,34.85 C221.31,36.13 221.21,37.49 219.87,38.29 C218.51,36.68 219.34,34.79 219.23,33.03 C219.06,30.3 220.03,28.73 223.23,29.03 C226.189893,29.2121653 229.157308,29.2388687 232.12,29.11 L232.12,29.11 Z" id="Shape" fill="#E4E3E3"></path>
                <path d="M257.12,30.19 C253.3,32.11 249.24,30.72 245.3,30.95 C245.12,30.95 245.96,30.26 246.4,29.95 C249.909039,28.896095 253.661643,28.9801086 257.12,30.19 L257.12,30.19 Z" id="Shape" fill="#E8E5E7"></path>
                <path d="M360.36,91.18 L366.15,89.85 C368.43,92.1 370.23,94.54 369.69,98.38 C366.9,96.86 364.25,95.6 361.25,97.15 C360.7,97.43 359.7,97.92 359.6,96.43 C359.47,94.6 357.7,92.59 360.36,91.18 Z" id="Shape" fill="#D5B1B2"></path>
                <path d="M376.24,95.11 C379.36,94.39 379.78,96.11 379.99,98.96 C380.24,102.47 377.89,102.37 375.93,102.5 C373.41,102.67 371.16,101.57 371.29,98.63 C371.4,95.85 373.24,94.6 376.24,95.11 Z" id="Shape" fill="#DAB7B7"></path>
                <path d="M355.37,93.93 C353.54,92.44 351.59,92.84 349.88,93.93 C348.33,94.93 347.26,95.09 346.38,93.28 C345.5,91.47 346.78,90.75 347.92,90.2 C349.290062,89.6453324 350.700926,89.1973329 352.14,88.86 C356.91,90.29 357.22,90.78 355.37,93.93 Z" id="Shape" fill="#DAB6B9"></path>
                <path d="M383.32,108 C382,107.65 380.22,108.09 380.21,105.78 C380.21,102.72 382.44,102.42 384.56,102.29 C386.33,102.18 388.45,102.22 388.23,104.99 C388,108.11 385.12,107.2 383.32,108 Z" id="Shape" fill="#D3B2B4"></path>
                <path d="M368.92,104.19 C371.68,101.7 374.44,104.25 377.13,104.47 C378.23,104.56 377.28,107.29 376.26,107.25 C373.57,107.14 370.14,108.02 369.02,104.08 L368.92,104.19 Z" id="Shape" fill="#D8B7B8"></path>
                <path d="M385.12,109.36 C381.92861,110.631283 378.37139,110.631283 375.18,109.36 L385.12,109.36 Z" id="Shape" fill="#D9A27A"></path>
                <path d="M416.38,198.25 C413.09,199.97 409.47,198.31 406.1,199.25 C401.46,199.92 396.74,199.35 392.1,200.25 C391.35,200.05 390.1,200.05 389.93,199.62 C389.4,198.24 390.62,198.15 391.58,198.07 C394.46,197.82 397.35,197.6 400.24,197.37 C405.54,199.17 411,197.4 416.38,198.25 Z" id="Shape" fill="#B16B32"></path>
                <path d="M392.12,200.2 C396.68,198.37 401.42,199.2 406.12,199.2 C406.119756,199.442204 406.092929,199.68365 406.04,199.92 L392.18,200.79 C392.130791,200.597408 392.110569,200.398556 392.12,200.2 L392.12,200.2 Z" id="Shape" fill="#2D2219"></path>
                <path d="M133.59,157.53 C132.45,157.35 130.98,157.14 129.52,156.87 C127.9,156.56 125.33,157.3 125.35,154.73 C125.35,152.61 127.75,152.9 129.3,152.65 C132.23,152.19 135.19,151.86 138.13,151.42 C140.13,151.12 141.89,151.32 142.24,153.69 C142.59,156.06 140.67,156.76 138.86,157.11 C137.112453,157.347356 135.353082,157.487571 133.59,157.53 L133.59,157.53 Z" id="Shape" fill="#EBECEB"></path>
                <path d="M93.52,80.06 C92.91,79.94 92.1,80.06 92.1,79.06 C99.03,74.06 103.18,73.8 107.1,79.06 C101.77,76.28 97.52,77.28 93.52,80.06 Z" id="Shape" fill="#363535"></path>
                <path d="M218.12,282.27 C218.526082,273.78745 221.717475,265.675405 227.2,259.19 C237.11,247.57 248.2,253.88 252.2,263.93 C258,278.54 257.35,293.11 247.68,306.4 C244.953766,310.239387 240.480041,312.451073 235.774089,312.285952 C231.068138,312.120831 226.76043,309.601025 224.31,305.58 C220.59,299.79 218,290.67 218.12,282.27 Z" id="Shape" fill="#558C8C"></path>
                <path d="M81,229.92 C80.2,231.37 79.46,232.84 78.6,234.25 C77.15,236.62 75.32,238.71 72.26,238.25 C69.1726386,237.791288 66.7620021,235.343941 66.35,232.25 C64.984814,225.804612 66.4404831,219.08306 70.35,213.78 C73.79,209.12 77.46,209.61 80.35,214.69 C81,215.83 81.51,217.06 82.09,218.24 C83,222.25 83.12,226.19 81,229.92 Z" id="Shape" fill="#101516"></path>
                <path d="M57.87,233.17 C60.97,233.51 62.3,235.08 62.12,237.56 C62.066188,240.008925 60.0793741,241.973614 57.63,242 C55.42,241.92 54.12,239.62 54.24,237.23 C54.1693695,235.123614 55.7688711,233.33464 57.87,233.17 L57.87,233.17 Z" id="Shape" fill="#192022"></path>
                <path d="M60.5,218.3 C58.28,218.23 57.11,217.41 57.08,215.3 C57.08,212.77 60.76,209.02 63.28,209.15 C65.35,209.26 66.42,210.57 66.16,212.43 C65.67,215.74 63.4,217.54 60.5,218.3 Z" id="Shape" fill="#12191D"></path>
                <path d="M70.93,252 C69.0084597,251.820965 67.5323914,250.219733 67.51,248.29 C67.26,245.57 69.18,244.29 71.77,243.98 C73.77,243.76 75.09,244.69 75.15,246.61 C75.25,249.51 73.12,250.87 70.93,252 Z" id="Shape" fill="#121A1D"></path>
                <path d="M73.92,207.21 C72.13,206.94 70.3,206.45 70.25,204.21 C70.25,202.47 71.62,201.61 73.18,201.46 C75.28,201.25 76.72,202.3 76.82,204.46 C76.9,206.2 75.68,207 73.92,207.21 Z" id="Shape" fill="#182323"></path>
                <path d="M81,229.92 C81.41,226.03 82.54,222.2 82.09,218.23 C82.1073571,218.066055 82.1548184,217.906721 82.23,217.76 C82.41,217.29 83.04,216.96 83.07,217.49 C83.27,220.77 83.27,224.06 83.34,227.35 L83.17,231.11 C82.2721459,231.19071 81.4146313,230.720461 81,229.92 Z" id="Shape" fill="#6AB0AC"></path>
                <path d="M239.12,285 C239.214708,281.044832 240.282882,277.173988 242.23,273.73 C244.39,270.17 247.81,270.17 250.23,273.54 C253.78,278.54 253.16,288.66 248.97,293.16 C247.97,294.23 246.97,295.56 245.17,294.75 C242.39,293.48 239.97,291.75 239.17,288.6 C239.027807,287.405029 239.011049,286.198459 239.12,285 L239.12,285 Z" id="Shape" fill="#131A1B"></path>
                <path d="M238,300 C240.52,300.43 243.58,300.31 243.78,303.59 C243.96,306.46 241.88,308.12 239.03,308.23 C236.18,308.34 234.14,307.11 234.14,303.96 C234.12,301.54 235.3,299.87 238,300 Z" id="Shape" fill="#192021"></path>
                <path d="M233.9,285.79 C233.18,288.03 232.48,290.79 229.56,290.97 C226.93,291.1 225.27,288.78 225.28,286.39 C225.29,284 226.36,281.8 229.46,281.85 C232,281.88 233.5,283.11 233.9,285.79 Z" id="Shape" fill="#12191B"></path>
                <path d="M235.37,260 C237.37,261 240.37,261.77 239.77,264.44 C239.26251,267.160728 236.897581,269.139889 234.13,269.16 C231.33,269.09 230.91,266.97 231.02,264.57 C231.12,261.76 232.81,260.57 235.37,260 Z" id="Shape" fill="#121A1C"></path>
                <path d="M80.23,222 C80.0669482,224.989555 79.4254683,227.93361 78.33,230.72 C77.33,233.72 75.81,236.63 72.22,236.09 C68.1,235.48 67.22,231.63 67.5,228.39 C67.7647508,224.927122 68.5328243,221.521322 69.78,218.28 C70.89,215.42 72.69,212.53 75.35,212.69 C78.62,212.88 79.44,216.56 80.1,219.52 C80.2145197,220.341395 80.2580141,221.171134 80.23,222 L80.23,222 Z" id="Shape" fill="#B0B0B0"></path>
                <path d="M60.6,237.23 C60.22,238.8 59.52,240.14 57.71,240.04 C56.61,240.04 56.15,239.04 56.08,237.91 C55.96,235.91 57.38,235.4 58.93,235.28 C60.2,235.18 60.56,236.11 60.6,237.23 Z" id="Shape" fill="#BEBEBD"></path>
                <path d="M64.6,212.52 C63.76,214.45 62.73,216.32 60.17,216.32 C59.41,216.32 58.17,215.98 58.58,215.04 C59.3168454,213.022875 61.0261281,211.516899 63.12,211.04 C64.12,210.84 64.63,211.4 64.6,212.52 Z" id="Shape" fill="#B8B3B1"></path>
                <path d="M73.69,246.89 C73.5617453,248.24176 72.6481512,249.390615 71.36,249.82 C70.19,250.18 69.57,249.17 69.42,248.18 C69.21,246.79 70.14,246.1 71.42,245.91 C72.31,245.78 73.36,245.61 73.69,246.89 Z" id="Shape" fill="#B1ADAE"></path>
                <path d="M241,286.42 C240.479745,283.101934 240.934863,279.704184 242.31,276.64 C243.04,275.02 244.03,273.12 246.11,273.18 C248.19,273.24 249.11,274.97 249.83,276.71 C251.686639,280.851578 251.46391,285.629124 249.23,289.58 C248.44,291.1 247.77,293.41 245.49,292.77 C243.21,292.13 240.84,290.77 240.94,287.69 C240.94,287 241,286.37 241,286.42 Z" id="Shape" fill="#B1B1B1"></path>
                <path d="M239.22,302.11 C240.6,302.18 242.22,302.42 241.97,304.11 C241.920253,304.867619 241.517827,305.557973 240.883086,305.974583 C240.248344,306.391194 239.454876,306.485761 238.74,306.23 C237.3,305.86 235.66,305.38 236.01,303.4 C236.36,301.42 238,302.2 239.22,302.11 Z" id="Shape" fill="#C3BDBB"></path>
                <path d="M229.25,289 C227.75,288.4 226.7,287.39 226.97,285.67 C227.24,283.95 228.46,283.67 229.97,283.87 C231.27,284.03 232.28,284.52 232.03,286.02 C231.78,287.52 231.12,288.9 229.25,289 Z" id="Shape" fill="#BABCBA"></path>
                <path d="M238.12,264.36 C237.23,265.74 236.21,267.12 234.45,267.22 C233.775697,267.259168 233.121606,266.982115 232.680585,266.470531 C232.239563,265.958946 232.061908,265.271173 232.2,264.61 C232.347738,263.097631 233.686296,261.986628 235.2,262.12 L235.3,262.12 C236.64,262.25 237.95,262.65 238.12,264.36 Z" id="Shape" fill="#BBB6B7"></path>
                <path d="M513.68,106.23 C513.68,106.23 512.82,103.23 499.84,103.69 C492.53,103.97 477.64,106.17 475.42,106.12 C453.9,99.73 441.42,104.69 418.04,102.22 C394.64,102.81 395.88,105.05 394.19,110.15 C390.79,120.43 448.32,118.54 448.32,118.54 C468.81,120.77 492.23,112.54 505.9,111.93 C508.7,111.81 514,106.65 513.68,106.23 Z" id="Shape" fill="#000000"></path>
            </g>
        </g>
    </g>
</svg>