<svg id="Layer_1" data-name="Layer 1" xmlns="http://www.w3.org/2000/svg" viewBox="0 0 94.03 39.86"><defs><style>.cls-1{fill:#983233;}.cls-2{fill:#ff6608;}</style></defs><title>River</title><path class="cls-1" d="M12.43,18.83l.36.17.31.12a2.92,2.92,0,0,1,1.06.38,6.53,6.53,0,0,1,.91.68,2.32,2.32,0,0,1,.51.72c.11.25.21.52.31.81a2.54,2.54,0,0,1,.09.65A5,5,0,0,0,16,23a5.16,5.16,0,0,1,.1,1,8.69,8.69,0,0,0,.05,1,1.23,1.23,0,0,1-.08.44.87.87,0,0,0,0,.43,1.54,1.54,0,0,1,.05.86,5.31,5.31,0,0,1-.05.72,5.55,5.55,0,0,0,0,.72v2.47c0,.63,0,1.3,0,2s0,1.38,0,2,0,1,0,1.06h2v4.08H14.64a2.76,2.76,0,0,1-2.11-.87,2.57,2.57,0,0,1-.72-1.82V29.73c0-1.12,0-2.23,0-3.31s0-2.2,0-3.32a2.88,2.88,0,0,0-.63-1.68,1.1,1.1,0,0,0-.5-.36,6.18,6.18,0,0,0-.65-.21,5.59,5.59,0,0,0-1.73-.12,9.31,9.31,0,0,1-1.82,0v3.7c0,.16,0,.34,0,.53a.82.82,0,0,1-.12.53v.19a.72.72,0,0,1,.12.48c0,.16,0,.32,0,.48v9.07H8.3a4.56,4.56,0,0,1,.08,1c0,.34,0,.68,0,1v2A10.19,10.19,0,0,1,7,39.78c-.78,0-1.64,0-2.56,0H1.73c-.87,0-1.43,0-1.68-.05v-4H2V21.54a2.5,2.5,0,0,0-.77-1.82q-.28-.3-.6-.6c-.21-.21-.43-.45-.65-.7l.72-.72a4.86,4.86,0,0,0,1-1.37A4.77,4.77,0,0,0,2,14.48c0-.93,0-1.88,0-2.84S2,9.71,2,8.75V8.13h-2v-4a1.38,1.38,0,0,1,.48,0H8.59A12.7,12.7,0,0,1,10,4.12c.46,0,.92.1,1.37.17s.62.13.91.21.58.17.86.27a3.78,3.78,0,0,1,1.56,1.1,5.29,5.29,0,0,1,.94,1.68,4.58,4.58,0,0,1,.31,1.15q.08.59.12,1.2c.07.45.11.92.15,1.4a7.71,7.71,0,0,1-.05,1.44A16.76,16.76,0,0,0,16,14.49a5.41,5.41,0,0,1-.36,1.75,4.4,4.4,0,0,1-.77,1.27,3,3,0,0,1-1.25.84l-.57.22ZM6.58,16.67,8,16.7c.5,0,1,0,1.46,0a3.08,3.08,0,0,0,1.13-.29,1.64,1.64,0,0,0,.79-.86,3.44,3.44,0,0,0,.34-1.39c0-.45.05-.89.05-1.32V11.49c0-.32,0-.63,0-.91a4.34,4.34,0,0,0-.12-.87A2.28,2.28,0,0,0,11.35,9a1.48,1.48,0,0,0-.6-.53,2.8,2.8,0,0,0-1.34-.33c-.42,0-.82-.05-1.2-.05H6.48v7.34a.93.93,0,0,0,0,.29.23.23,0,0,1,0,.24.4.4,0,0,0-.07.39Zm1.2,1.83h0v0h0Zm1.82-.77v.05h.19a.11.11,0,0,0,0-.1A.2.2,0,0,0,9.6,17.73Zm3.12,5.09a1.37,1.37,0,0,0,0,.19,1,1,0,0,1,0,.29c.09-.26.08-.42,0-.48V22.5a.52.52,0,0,0-.1-.31.49.49,0,0,1,0,.36Q12.53,22.72,12.72,22.82Zm0,3.88c0,.36,0,1,0,1.83s0,1.78,0,2.76,0,1.9,0,2.78a8.47,8.47,0,0,0,.17,1.8,2.77,2.77,0,0,1,1-.21.92.92,0,0,0,.77-.56.26.26,0,0,0,.14,0,.43.43,0,0,1,.15.05l.29-.14V27.52a.84.84,0,0,0-.24-.07,1,1,0,0,1-.24-.07,1,1,0,0,0-.15.16,1,1,0,0,1-.14.17.56.56,0,0,1-.29-.05l.14-.43a2.2,2.2,0,0,1-.09-.21,1.25,1.25,0,0,0-.15-.27.62.62,0,0,1-.19.07.77.77,0,0,0-.19.08c-.16-.07-.21-.16-.14-.27a.38.38,0,0,0,0-.36.28.28,0,0,1,0-.29.61.61,0,0,0,0-.33c0-.13,0-.25,0-.36a.82.82,0,0,0-.07-.41c-.06.35-.12.66-.17.94s-.1.55-.17.84a.65.65,0,0,0-.19,0A.62.62,0,0,1,12.72,26.7Zm0-.76A3.42,3.42,0,0,1,13,25.6a1.07,1.07,0,0,1-.15-.17l-.14-.21ZM13.3,36.5h0v-.24h0Zm.81.81a.4.4,0,0,0,0-.41.65.65,0,0,1-.12-.4.44.44,0,0,0-.17,0,.44.44,0,0,1-.17,0,.34.34,0,0,1,.17.41C13.75,37.13,13.86,37.25,14.11,37.31Zm.1-13.58a3.58,3.58,0,0,1,.48.29l.53-.29v-.58c-.13-.16-.25-.22-.36-.19a.73.73,0,0,1-.36,0A.63.63,0,0,0,14.21,23.73Zm.48-15.46-.1.1a.09.09,0,0,0,0,.07.14.14,0,0,1,0,.07A.54.54,0,0,0,14.69,8.27Zm.38,18.58A0,0,0,0,1,15,26.8v.1S15.07,26.88,15.07,26.85ZM16.9,37.41l0,0-.12,0s-.05,0-.12,0v.1Z"/><path class="cls-1" d="M26.35,20.56v8.06a4.07,4.07,0,0,1-.05.72,5.58,5.58,0,0,0,0,.72c0,.07,0,.39,0,1s0,1.2,0,1.88,0,1.29,0,1.87,0,.89,0,1h2c0,.35.05.69.05,1v3a2.14,2.14,0,0,1-.48.05H24a1.32,1.32,0,0,1-.53-.1.77.77,0,0,0-.52,0,5.55,5.55,0,0,1-1.47.1,7.11,7.11,0,0,0-1.46,0,4,4,0,0,1-.07-.72c0-.36,0-.75,0-1.18V36.69a7.46,7.46,0,0,1,.05-1h2v-6c0-1.44,0-2.86,0-4.27s0-2.83,0-4.27a1.81,1.81,0,0,0-.67-1.4l-.68-.57-.72-.63.84-.91c.28-.29.54-.56.8-.81a1.29,1.29,0,0,0,.43-.87V8.18H20a4,4,0,0,1-.07-.72c0-.36,0-.75,0-1.18V5a6.28,6.28,0,0,1,.05-.91h8.4v4H26.4v8a3.1,3.1,0,0,0,.77,1.11,5.66,5.66,0,0,1,.6.6l.55.65a3,3,0,0,1-1,1A2.66,2.66,0,0,0,26.35,20.56ZM20.78,38.85s0-.05,0-.05v.1Zm.15-33.79-.1,0a.8.8,0,0,0,.05.33h.05Zm.91,13.58h-.05v.05A0,0,0,0,0,21.84,18.64Zm.19-.48c0,.26.13.35.39.29,0,0,0,0,0,0s0,0,.05,0a.42.42,0,0,0-.29-.48.31.31,0,0,1-.09.12A.32.32,0,0,0,22,18.16Zm1.35,19.15a.14.14,0,0,1,.09-.05c-.06-.28-.13-.62-.19-1l-.19-.12A1.54,1.54,0,0,1,22.9,36a3.4,3.4,0,0,1-.29.33l-.34.34a2,2,0,0,1,.05.53.39.39,0,0,1,.05.14.32.32,0,0,0,.05.15.73.73,0,0,1,.86-.39A1.19,1.19,0,0,1,23.38,37.31Zm-.72,1.3.38,0a.4.4,0,0,0,.29-.07.81.81,0,0,1,0-.38c0-.13,0-.23-.19-.29l-.22.09a1.43,1.43,0,0,0-.26.15Zm.67-17.67a.93.93,0,0,1-.34.12c-.09,0-.16.11-.19.27C23.12,21.42,23.3,21.3,23.33,20.94Zm-.43,3.12,0,0v.09S22.9,24.1,22.9,24.06Zm0,4.08.15.87a2,2,0,0,1,.43.19,1,1,0,0,1,.24-.26,2.85,2.85,0,0,0,.24-.22,1.94,1.94,0,0,0-.36-.36A3.58,3.58,0,0,0,22.94,28.14Zm.29-6.28h.05v-.05h-.05ZM24,25.17q.15-.39-.33-.48l-.29.29c.06.16.15.24.26.24A1.63,1.63,0,0,0,24,25.17ZM23.52,12.5c-.1.09-.14.16-.14.19s.08.09.24.19a.34.34,0,0,1-.05-.19A.41.41,0,0,0,23.52,12.5Zm1.92,13.72A.83.83,0,0,1,25.1,26a.52.52,0,0,0-.33-.17.6.6,0,0,1-.36-.12l-.31-.22-.63.15c0,.16,0,.3,0,.43a2.53,2.53,0,0,0,0,.38,1,1,0,0,1,.12.36,1.27,1.27,0,0,0,.12.36h.77a1.53,1.53,0,0,0,.29-.24c.1-.09.22-.06.38.1a3.76,3.76,0,0,0,.27-.48C25.38,26.5,25.41,26.38,25.44,26.22ZM23.81,36v-.1a.41.41,0,0,0-.19.05v0Zm.33-.43a4.14,4.14,0,0,0,.48.12,1,1,0,0,1,.39.12.3.3,0,0,0,.09.19h.34v-8.4A2,2,0,0,0,25,28a2.93,2.93,0,0,1-.26-.19l-.22-.19L24.1,28c.19.19.22.38.09.55a.5.5,0,0,0-.05.55,1.68,1.68,0,0,1-.24.08.89.89,0,0,0-.19.07.38.38,0,0,0,.05.24,1.21,1.21,0,0,1,.46.26,1.15,1.15,0,0,1,.26.41,3.49,3.49,0,0,0-.07.89c0,.56,0,1.16-.07,1.8s-.07,1.24-.1,1.8A3.22,3.22,0,0,1,24.14,35.54ZM23.76,28s0,0,0-.05v0l0,0Zm.14-16.08V12l.05-.05S23.94,11.87,23.9,11.87Zm.2,9.7a2.89,2.89,0,0,0-.05-.53.77.77,0,0,0-.1.24A1.06,1.06,0,0,0,24.1,21.57Zm0,17,.41.07.31,0a.75.75,0,0,0,.15.24h.86a.77.77,0,0,1,.19-.15.81.81,0,0,0,.2-.14.42.42,0,0,0,.28.14,1.72,1.72,0,0,1,.22-.33l.22-.29c-.07-.16-.12-.3-.17-.41s-.11-.25-.17-.41l-.19-.19-.19.53c-.16-.16-.33-.31-.51-.46a.79.79,0,0,0-.69-.12l-.2.29-.19.34a.57.57,0,0,1-.29,0c-.09,0-.17.06-.24.22Zm.2-15.5a3.22,3.22,0,0,1,0,.5,2.58,2.58,0,0,0,.05.46,1,1,0,0,0,.24-.22l.19-.22a2.45,2.45,0,0,0,.53.1c0-.16-.05-.3-.07-.43s0-.26-.07-.39a.33.33,0,0,0-.31-.16l-.41,0a.34.34,0,0,0-.12.19A.42.42,0,0,1,24.34,23.06ZM25.58,20c-.25-.12-.43-.06-.52.2a.32.32,0,0,1,.09.24c0,.09.08.14.24.14A3.92,3.92,0,0,1,25.58,20Zm-.28-2.44-.1.09.05.1A.29.29,0,0,0,25.3,17.54Zm.33,18.86c-.09.16,0,.24.19.24A1,1,0,0,0,25.63,36.4Zm1.87,2.5V37.46h0l-.29,1.44Z"/><path class="cls-1" d="M37.39,4.05c.23.48.21,1.84,0,4.08H35.81a2.83,2.83,0,0,1,.09.48c.07.32.12.63.17.93s.1.64.17,1,.12.69.17,1,.1.68.17,1,.12.58.19,1q.09.82.21,1.56t.27,1.56c.06.32.11.64.14,1a9.88,9.88,0,0,0,.15,1,10.47,10.47,0,0,1,.21,1c0,.34.1.68.17,1s.11.69.14,1a9.88,9.88,0,0,0,.15,1c.06.32.12.64.17,1a6.6,6.6,0,0,0,.21,1,.8.8,0,0,1,0,.48.53.53,0,0,0,.19.48c.07-.38.11-.76.15-1.13a9.37,9.37,0,0,1,.14-1.08c.1-.41.18-.84.26-1.27s.17-.86.27-1.27.11-.69.14-1a9.88,9.88,0,0,1,.15-1c.06-.29.12-.58.19-.89s.12-.6.19-.88.11-.69.14-1,.08-.66.15-1,.12-.58.17-.89.1-.61.16-.93a6.61,6.61,0,0,0,.15-.89c0-.31.08-.62.14-.94a4.14,4.14,0,0,0,.07-.45,4,4,0,0,1,.08-.46,6.42,6.42,0,0,0,.19-1.08,5.55,5.55,0,0,1,.19-1.08V8.18H40V4.1A13.48,13.48,0,0,1,41.81,4c.57,0,1.15,0,1.73,0h3.4a.46.46,0,0,1,.24.43,8.28,8.28,0,0,0,0,1.22,4.31,4.31,0,0,1-.09,1.23.62.62,0,0,0,0,.38,1.18,1.18,0,0,1,.07.43,1.6,1.6,0,0,1-.09.39H45.65c-.07.19-.12.37-.17.55s-.09.34-.12.5c-.1.51-.19,1-.26,1.49s-.17,1-.27,1.48-.21.91-.33,1.39a10.78,10.78,0,0,0-.29,1.39,2.24,2.24,0,0,0-.07.77c0,.25,0,.51,0,.76a.4.4,0,0,0,.07.22.87.87,0,0,0,.17.21c.19.26.38.52.55.79s.36.54.55.79c-.16.16-.33.32-.52.48l-.58.48a3.07,3.07,0,0,0-.29.24,1.12,1.12,0,0,1-.33.24,1.1,1.1,0,0,0-.53.48A3.07,3.07,0,0,0,43,21c-.1.35-.18.7-.24,1s-.13.68-.19,1-.19.82-.27,1.22-.17.81-.26,1.23-.13.76-.19,1.15-.15.78-.24,1.19-.14.72-.22,1.1-.17.77-.26,1.15a3.13,3.13,0,0,1,0,.58H43.2v4.13H34a7.05,7.05,0,0,1,0-1c0-.33,0-.67,0-1a7.05,7.05,0,0,1,0-1c0-.33,0-.67,0-1H36.1a.27.27,0,0,0,.09-.27,2.2,2.2,0,0,0-.09-.21,3.39,3.39,0,0,0-.1-.77c-.07-.25-.13-.51-.19-.77L35.42,27c-.13-.57-.25-1.16-.38-1.77s-.24-1.2-.34-1.77-.2-1.17-.33-1.77c-.07-.26-.14-.51-.22-.75a1.53,1.53,0,0,0-.41-.64L33.46,20a3.42,3.42,0,0,0-.34-.29c-.22-.19-.46-.37-.7-.55l-.74-.55a1.56,1.56,0,0,1,.26-.55,3.76,3.76,0,0,0,.32-.46l.43-.57A2,2,0,0,0,33,15.27c-.1-.39-.18-.76-.24-1.13s-.15-.74-.24-1.13-.14-.7-.22-1-.17-.7-.26-1.05-.14-.76-.22-1.13-.15-.73-.22-1.08a2.5,2.5,0,0,0-.19-.57H30V5.44a2.51,2.51,0,0,0,0-.67,1.42,1.42,0,0,1,.1-.72ZM33.94,8.13s0,0,0,.07,0,0,.05.07l.17,0a.43.43,0,0,1,.17,0,.68.68,0,0,0,0-.19,1.44,1.44,0,0,1,0-.24A3,3,0,0,0,33.94,8.13Zm.38,6.57v0s0,0,0,0l0,.05Zm.34-5h.09a.54.54,0,0,0,0-.28h0Zm.19-4v0l-.05,0,.05.05Zm-.05,27.1v1.11h2.4s0,0,0,0l0-.09a1,1,0,0,0-.77-.2.28.28,0,0,1-.1.2H36a1.38,1.38,0,0,0,.24-.29,5.82,5.82,0,0,0-.33-.59.37.37,0,0,1-.2.05.27.27,0,0,0-.19.1,5.54,5.54,0,0,1-.12-.71,3.89,3.89,0,0,0-.12-.65.53.53,0,0,0-.19.48,1.34,1.34,0,0,1,0,.49.75.75,0,0,0-.12.07Zm2.11-3.58a.29.29,0,0,0,0,.31,1.5,1.5,0,0,1,.19.31,1.49,1.49,0,0,0,0-.36C37.15,29.35,37.07,29.26,36.91,29.2Zm.67,4.61v0h.05Zm.63-5.43.19-.09.19-.1c0-.32,0-.5-.09-.55s-.26,0-.58,0a1,1,0,0,1,0,.39Q37.92,28.24,38.21,28.38Zm-.1,5.37a.12.12,0,0,1,0,.07.09.09,0,0,0,0,.07h.58c-.1-.16-.19-.24-.29-.24A.35.35,0,0,0,38.11,33.75Zm2.45-11-.05-.05,0,.05s0,0,0,.05ZM40.85,5.1a1.55,1.55,0,0,1,0,.48,1.27,1.27,0,0,0,.07.53l.24-.24.2-.19a1.32,1.32,0,0,0-.1-.43A1.74,1.74,0,0,0,40.85,5.1Zm1.25,7.11s0,0,0-.05h-.09Zm.14-1a.68.68,0,0,0-.07.53,2.5,2.5,0,0,0,.21.48,2,2,0,0,1,.39,1l.09-.46a.43.43,0,0,1,.29-.31,2.75,2.75,0,0,0,.34.14,3.74,3.74,0,0,1-.15-.43,3.53,3.53,0,0,0-.14-.43l-.19.17a1,1,0,0,0-.19.17.83.83,0,0,1-.34-.36A4.08,4.08,0,0,0,42.24,11.2Zm.09-.86v.52l.44.15.38-.22a2.46,2.46,0,0,1,.43-.21,1.74,1.74,0,0,1-.69,0A2.53,2.53,0,0,1,42.33,10.34Zm.15-.2a.47.47,0,0,0,.17,0,.44.44,0,0,1,.17,0V9.62h-.34Zm.29,4.23a.14.14,0,0,0-.05.09.81.81,0,0,1,.14.2s0-.06,0-.08a.18.18,0,0,1,.05-.07A1,1,0,0,0,42.77,14.37Zm.29-2.74v-.24q0-.09-.24,0Zm0,1.44.1.1a.09.09,0,0,0,.07,0l.07,0v0Z"/><path class="cls-1" d="M55.34,8.13v8.16a1.23,1.23,0,0,0,.79-.07,3,3,0,0,0,.65-.41,1.74,1.74,0,0,0,.53-1.39,2.24,2.24,0,0,1,1-.2c.41,0,1.07,0,2,.15a2.06,2.06,0,0,1,.19.86V19.6a1.16,1.16,0,0,1,0,.34.92.92,0,0,0,0,.28.86.86,0,0,1,0,.22.33.33,0,0,0,0,.22.28.28,0,0,1,0,.38.12.12,0,0,0,0,.19.91.91,0,0,1,0,.77,1.42,1.42,0,0,0,0,.82h-3a2,2,0,0,0-.82-1.64A1.75,1.75,0,0,0,56,20.9a1.12,1.12,0,0,0-.68,0v9.84c.51,0,1,0,1.49,0s1,0,1.49,0h2.93a1.32,1.32,0,0,1,0-.28,1.15,1.15,0,0,0,0-.24V26.75a2,2,0,0,1,0-.36c0-.11,0-.23,0-.36s0-.2,0-.31a1.8,1.8,0,0,1,0-.31l.05-.05H64.9A12.29,12.29,0,0,1,65,26.7c0,.77,0,1.64,0,2.62v3c0,1,0,1.83,0,2.47a7.77,7.77,0,0,1-1.1.07l-2.42,0-3.25,0H51.41c-1,0-1.86,0-2.5,0,0,0,0,0,0,0v-4a3.43,3.43,0,0,1,1.06,0,3.43,3.43,0,0,0,1.06,0V21.47a2.13,2.13,0,0,0-.68-1.63,3.5,3.5,0,0,0-.48-.41,3.5,3.5,0,0,1-.48-.41l-.21-.19A.52.52,0,0,1,49,18.5s0-.06,0-.08a.13.13,0,0,1,0-.07,9.36,9.36,0,0,0,.73-.81,8,8,0,0,1,.72-.82,1.46,1.46,0,0,0,.48-1.1V8.18H48.91a4.63,4.63,0,0,1-.07-1c0-.33,0-.68,0-1a6.54,6.54,0,0,1,0-1c0-.31,0-.63,0-1A7.71,7.71,0,0,1,50,4.07L52.63,4l3.43,0h3.63l3.17,0,2.08,0a6.94,6.94,0,0,1,0,1.44,11.53,11.53,0,0,0,0,1.44v5.81l-.17.09a.28.28,0,0,1-.16.05,1.61,1.61,0,0,0-.72,0,2.52,2.52,0,0,1-.73,0l-.74,0a3.68,3.68,0,0,1-.74,0,1.43,1.43,0,0,1-.44-.1V11.34c0-.25,0-.48,0-.69a2.85,2.85,0,0,1,0-.65,1.53,1.53,0,0,0-.4-1.13A1.75,1.75,0,0,0,60,8.22a1.66,1.66,0,0,0-.38-.09ZM50.06,6.78l.17.17.17.17L50.69,7a1,1,0,0,0,.24-.17V6.3a2.31,2.31,0,0,0-.19-.16L50.5,6a3.32,3.32,0,0,1-.44.33Zm1,11c0,.23.06.36.1.39a.38.38,0,0,0,.16,0l.22,0L51.31,18Zm.72-2.4v1.64a1.68,1.68,0,0,1,.41,0h.41a.58.58,0,0,1,.24-.15.72.72,0,0,0,.24-.14l.12.07s0,0,.12.07a.41.41,0,0,1,.26-.4c.18-.08.22-.24.12-.46a2.26,2.26,0,0,1-.93-.38A1.29,1.29,0,0,0,51.79,15.42Zm.1-4.17s0,0,0-.05v.1S51.85,11.25,51.89,11.25ZM53.71,21a2.61,2.61,0,0,0,0,.48,5.27,5.27,0,0,1,.62-.19v-.82a2,2,0,0,0,.34-.31,3.47,3.47,0,0,1,.24-.26,2.82,2.82,0,0,1,2.16.57A3.59,3.59,0,0,1,58.17,22h1.35V20.27a3.5,3.5,0,0,0-.39-.17,3.71,3.71,0,0,0-.47,0,.63.63,0,0,1,0,.19c0,.07,0,.15-.07.24a1,1,0,0,0-.17-.14,1.28,1.28,0,0,0-.17-.1l.29-.29a.56.56,0,0,1-.24-.36.45.45,0,0,0-.29-.31s.05,0,.05-.07,0,0,0-.07a1.53,1.53,0,0,0-.29-.07q-.13,0-.24-.27a.73.73,0,0,0,.07-.19.77.77,0,0,1,.08-.19c0-.16-.06-.31-.08-.43a2.66,2.66,0,0,0-.07-.39.14.14,0,0,0-.09-.05.89.89,0,0,1,0,.22,1.8,1.8,0,0,0,0,.22l-.17.09-.17.1-.65-.36a4,4,0,0,0-.64-.27,3.88,3.88,0,0,0-.63-.14,4.69,4.69,0,0,0-.62-.05.83.83,0,0,1-.24-.79,1.76,1.76,0,0,0,0-.79c-.07.25-.12.49-.17.72l-.17.72c-.26,0-.41.05-.48.24a.77.77,0,0,1-.34.43,1.45,1.45,0,0,0-.26-.07l-.31-.07a1.49,1.49,0,0,0,.1.52.38.38,0,0,0-.12.17.85.85,0,0,1-.08.17.41.41,0,0,1,.12.14,1,1,0,0,0,.12.15l-.86.29c.16.12.31.24.45.33a4.85,4.85,0,0,1,.41.29c-.06.13-.11.23-.14.31s-.06.19-.1.31a2.39,2.39,0,0,0,.58.1.44.44,0,0,1,.29.29C53.58,20.82,53.71,20.88,53.71,21Zm-1.54-.29H52a.73.73,0,0,0-.09.29ZM51.94,5.39v.1s0,0,0,0,0,0,0-.05Zm.62,1c.06-.32.1-.51.1-.58s-.07-.16-.2-.28l-.19.19.15.33A2.75,2.75,0,0,0,52.56,6.4Zm.34,16.18h-.48l-.15.72a1.35,1.35,0,0,0,.19.16l.2.17a1.34,1.34,0,0,1,.26-.14,1,1,0,0,0,.26-.15v-.48a.33.33,0,0,0-.12-.14Zm-.53-14.5V8l0,.05Zm.19,4.61v1.05a3.51,3.51,0,0,0,.5-.19l.46-.19a3.54,3.54,0,0,0-.1-.67c-.16-.16-.3-.22-.43-.17Zm.91,12.24a1,1,0,0,0-.38.24.49.49,0,0,0-.15.38.63.63,0,0,0,.08.29c0,.1.08.19.11.29h.58a2.15,2.15,0,0,1,.38-.53.5.5,0,0,0,.15,0,.26.26,0,0,1,.14.05v-.82a4.35,4.35,0,0,0-.43.38C53.76,25.14,53.6,25,53.47,24.93ZM53.18,5.44s0-.05,0-.05l0,.05,0,0Zm.24,4.32a1.21,1.21,0,0,1-.19.29.7.7,0,0,1,.15.24.72.72,0,0,0,.14.24c.38-.1.59-.26.62-.48A1.21,1.21,0,0,1,54,9.76Zm0-1,0-.05v.1A0,0,0,0,1,53.47,8.75Zm.24,4.9-.05-.05h0A.14.14,0,0,0,53.71,13.65Zm.1-.48,0-.05,0,0a0,0,0,0,0-.05,0A0,0,0,0,1,53.81,13.17Zm.24-6.48s0,0,0-.05V6.35H54a.79.79,0,0,0,0,.17A.43.43,0,0,1,54.05,6.69Zm0,20.11.15.14.14.15v-.58A.68.68,0,0,0,54.09,26.8ZM54.29,13c-.07.07-.12.1-.15.1l.15.14a.08.08,0,0,0,.09-.09A.31.31,0,0,0,54.29,13Zm.14,8.88a.26.26,0,0,0-.14-.09s-.08,0-.15.09l.1.1ZM55.2,5v0h.24V5Zm.19,1.44,0,0,0,0a.14.14,0,0,1,0-.09Zm1.82,12.24c-.06.09-.11.14-.14.14l-.14-.14s0,0,.07-.05a.08.08,0,0,1,.07-.05S57.09,18.62,57.21,18.69ZM59.42,16l-.57-.43a2,2,0,0,1-.43.19,4.21,4.21,0,0,0-.17.43q-.07.19.21.39h.63l.29-.29S59.42,16.16,59.42,16ZM59,19.6h.09l0-.05Zm3.84-7.92c-.07-.06-.11-.1-.14-.1l-.15.15.19.09S62.81,11.74,62.88,11.68Z"/><path class="cls-1" d="M79.2,18.83l.36.17.31.12a3,3,0,0,1,1.06.38,6.53,6.53,0,0,1,.91.68,2.28,2.28,0,0,1,.5.72,7.6,7.6,0,0,1,.31.81,2.19,2.19,0,0,1,.1.65,5,5,0,0,0,0,.65,6,6,0,0,1,.09,1c0,.32,0,.65,0,1a1.23,1.23,0,0,1-.07.44.69.69,0,0,0,0,.43,1.54,1.54,0,0,1,0,.86,5.39,5.39,0,0,1,0,.72,4.21,4.21,0,0,0,0,.72v2.47c0,.63,0,1.3,0,2s0,1.38.05,2,0,1,0,1.06h2v4.08H81.41a2.78,2.78,0,0,1-2.12-.87,2.57,2.57,0,0,1-.72-1.82V29.73c0-1.12,0-2.23,0-3.31s0-2.2,0-3.32A2.87,2.87,0,0,0,78,21.42a1.22,1.22,0,0,0-.5-.36c-.21-.08-.43-.15-.65-.21a5.62,5.62,0,0,0-1.73-.12,9.3,9.3,0,0,1-1.82,0v3.7a5,5,0,0,0,0,.53.82.82,0,0,1-.12.53v.19a.72.72,0,0,1,.12.48,3.85,3.85,0,0,0,0,.48v9.07h1.82a4.54,4.54,0,0,1,.07,1c0,.34,0,.68,0,1v2a10.33,10.33,0,0,1-1.37.07c-.78,0-1.64,0-2.57,0H68.49c-.86,0-1.42,0-1.68-.05v-4h2V21.54A2.46,2.46,0,0,0,68,19.72q-.29-.3-.6-.6l-.64-.7.72-.72a5.06,5.06,0,0,0,1-1.37,5,5,0,0,0,.26-1.85c0-.93,0-1.88,0-2.84s0-1.93,0-2.89V8.13h-2v-4a1.45,1.45,0,0,1,.48,0h8.07a12.83,12.83,0,0,1,1.37.07c.46,0,.92.1,1.36.17s.63.13.92.21l.86.27a3.78,3.78,0,0,1,1.56,1.1,5.49,5.49,0,0,1,.94,1.68,4.58,4.58,0,0,1,.31,1.15q.07.59.12,1.2c.06.45.11.92.14,1.4a6.94,6.94,0,0,1,0,1.44c-.06.57-.1,1.16-.12,1.75a4.93,4.93,0,0,1-.36,1.75,4.38,4.38,0,0,1-.76,1.27,3,3,0,0,1-1.25.84l-.58.22Zm-5.86-2.16,1.47,0c.49,0,1,0,1.46,0a3.14,3.14,0,0,0,1.13-.29,1.68,1.68,0,0,0,.79-.86,3.61,3.61,0,0,0,.34-1.39c0-.45,0-.89,0-1.32V11.49c0-.32,0-.63,0-.91a6.5,6.5,0,0,0-.12-.87A2.53,2.53,0,0,0,78.12,9a1.62,1.62,0,0,0-.6-.53,2.87,2.87,0,0,0-1.35-.33c-.41,0-.81-.05-1.2-.05H73.25v7.34a.92.92,0,0,0,0,.29.21.21,0,0,1,0,.24.44.44,0,0,0-.08.39C73.22,16.43,73.28,16.54,73.34,16.67Zm1.2,1.83h-.05v0h.05Zm1.83-.77v.05h.19a.14.14,0,0,0,0-.1A.2.2,0,0,0,76.37,17.73Zm3.12,5.09a.65.65,0,0,0,0,.19,1.11,1.11,0,0,1,0,.29c.1-.26.08-.42,0-.48V22.5a.6.6,0,0,0-.1-.31.62.62,0,0,1,0,.36Q79.29,22.72,79.49,22.82Zm0,3.88c0,.36,0,1,0,1.83s0,1.78,0,2.76,0,1.9,0,2.78a7.83,7.83,0,0,0,.17,1.8,2.77,2.77,0,0,1,1-.21.93.93,0,0,0,.77-.56.26.26,0,0,0,.14,0,.39.39,0,0,1,.14.05l.29-.14V27.52a.68.68,0,0,0-.24-.07l-.24-.07-.14.16a.73.73,0,0,1-.15.17.54.54,0,0,1-.28-.05l.14-.43L81,27a1.76,1.76,0,0,0-.14-.27.73.73,0,0,1-.19.07.64.64,0,0,0-.19.08q-.24-.11-.15-.27a.33.33,0,0,0,0-.36.3.3,0,0,1,0-.29.47.47,0,0,0,0-.33,2,2,0,0,1,0-.36,1,1,0,0,0-.07-.41c-.07.35-.12.66-.17.94s-.11.55-.17.84a.62.62,0,0,0-.19,0A.65.65,0,0,1,79.49,26.7Zm0-.76a3.39,3.39,0,0,1,.28-.34,1,1,0,0,1-.14-.17l-.14-.21Zm.57,10.56h0v-.24h0Zm.82.81a.42.42,0,0,0,0-.41.65.65,0,0,1-.12-.4.39.39,0,0,0-.16,0,.47.47,0,0,1-.17,0,.35.35,0,0,1,.17.41C80.52,37.13,80.62,37.25,80.88,37.31ZM81,23.73a3.58,3.58,0,0,1,.48.29,5.72,5.72,0,0,0,.53-.29v-.58c-.13-.16-.25-.22-.36-.19a.73.73,0,0,1-.36,0A.64.64,0,0,0,81,23.73Zm.48-15.46-.09.1a.14.14,0,0,0,0,.07.09.09,0,0,1,0,.07A.55.55,0,0,0,81.45,8.27Zm.39,18.58a0,0,0,0,1,0-.05v.1A0,0,0,0,0,81.84,26.85Zm1.82,10.56,0,0-.12,0a.17.17,0,0,0-.12,0v.1Z"/><path class="cls-1" d="M86.78,18.4A13.58,13.58,0,0,1,88,17.06a2.25,2.25,0,0,0,.63-1.59,5.72,5.72,0,0,1,0-1.17,4.64,4.64,0,0,0,0-1.13,13.21,13.21,0,0,1-.07-1.87,16,16,0,0,0-.07-1.83,5,5,0,0,1,0-1.27,6.13,6.13,0,0,0-.05-1.27,8.7,8.7,0,0,1-.12-1.2q0-.59,0-1.2V4.14a6,6,0,0,1,.8-.07l1.29,0h1.35a6.19,6.19,0,0,1,1,0,5.61,5.61,0,0,0,0,1.36,3.94,3.94,0,0,1-.12,1.37.38.38,0,0,0,0,.24.57.57,0,0,1,0,.29c0,.83-.05,1.66-.05,2.5s0,1.66-.1,2.49a11.78,11.78,0,0,0,0,1.87,13.24,13.24,0,0,1,0,1.88A5.3,5.3,0,0,0,93,17.32l1,1.13a5.16,5.16,0,0,1-.62.69l-.72.65a2.39,2.39,0,0,0-.51.58,1.18,1.18,0,0,0-.17.77v.52a8.44,8.44,0,0,0,0,.87c0,.29,0,.59,0,.91a.88.88,0,0,0,.48,0,1.29,1.29,0,0,1,.48,0,3.58,3.58,0,0,1,.07.65c0,.33,0,.71,0,1.12v1.25c0,.42,0,.77,0,1.06H87.84v-4a1.38,1.38,0,0,1,.48-.05h.48a5.13,5.13,0,0,0,0-1,2.27,2.27,0,0,1-.1-.67v-.72a1.54,1.54,0,0,0-.57-1.25A12.87,12.87,0,0,1,86.78,18.4Zm5.76,14.45a1.21,1.21,0,0,0,0,.43,1.15,1.15,0,0,1-.07.48,2.25,2.25,0,0,1-2,1.68,1.94,1.94,0,0,1-.63,0,1.16,1.16,0,0,1-.57-.32,3,3,0,0,1-1-1.53,3.25,3.25,0,0,1,0-1.75,2.6,2.6,0,0,1,.91-1.47,2.27,2.27,0,0,1,1.25-.41,1.66,1.66,0,0,1,1.25.51,3.89,3.89,0,0,1,.67.93A2.57,2.57,0,0,1,92.54,32.85Zm-3-13.3v.1l0,0S89.6,19.55,89.57,19.55Zm.28,1.06a.36.36,0,0,0-.09.53c0,.06.06.09.19.09a.32.32,0,0,0,.19-.48ZM90,23.78h0v0h0Zm.09-1.4h0l0,0,0,0Zm0-14.59v.1l0,0S90.13,7.79,90.09,7.79Zm.15,9.27h0v.43h0Zm0,6.86a1,1,0,0,0,.38.19,1.11,1.11,0,0,0,.43-.24c-.12-.09-.25-.21-.38-.33A4.35,4.35,0,0,1,90.24,23.92Zm.24,7a.19.19,0,0,1,0,.1.77.77,0,0,1,.19.14l.1-.1c-.07,0-.11-.05-.12-.07Zm0,1.78s0,0,0,0S90.53,32.69,90.53,32.66ZM91.05,6v-.1h-.19V6Zm.58,26.16,0-.12a.24.24,0,0,0,0-.12.69.69,0,0,1-.28,0q0,.24.12.24A.87.87,0,0,0,91.63,32.18Zm-.34,1.58s0,0,0,0h0l0,0ZM92,26.7a.26.26,0,0,0,.14-.09V25.46a.5.5,0,0,0-.22.28,1.4,1.4,0,0,0,0,.29c0,.1,0,.19,0,.27a.48.48,0,0,1,0,.26s0,.06,0,.07S92,26.67,92,26.7Zm.52-8.4.05,0a0,0,0,0,1-.05-.05l0,.05S92.46,18.3,92.49,18.3Z"/><path class="cls-2" d="M12.43,14.83l.36.17.31.12a2.92,2.92,0,0,1,1.06.38,6.53,6.53,0,0,1,.91.68,2.32,2.32,0,0,1,.51.72c.11.25.21.52.31.81a2.54,2.54,0,0,1,.09.65A5,5,0,0,0,16,19a5.16,5.16,0,0,1,.1,1,8.69,8.69,0,0,0,.05,1,1.23,1.23,0,0,1-.08.44.87.87,0,0,0,0,.43,1.54,1.54,0,0,1,.05.86,5.31,5.31,0,0,1-.05.72,5.55,5.55,0,0,0,0,.72v2.47c0,.63,0,1.3,0,2s0,1.38,0,2,0,1,0,1.06h2v4.08H14.64a2.76,2.76,0,0,1-2.11-.87,2.57,2.57,0,0,1-.72-1.82V25.73c0-1.12,0-2.23,0-3.31s0-2.2,0-3.32a2.88,2.88,0,0,0-.63-1.68,1.1,1.1,0,0,0-.5-.36,6.18,6.18,0,0,0-.65-.21,5.59,5.59,0,0,0-1.73-.12,9.31,9.31,0,0,1-1.82,0v3.7c0,.16,0,.34,0,.53a.82.82,0,0,1-.12.53v.19a.72.72,0,0,1,.12.48c0,.16,0,.32,0,.48v9.07H8.3a4.56,4.56,0,0,1,.08,1c0,.34,0,.68,0,1v2A10.19,10.19,0,0,1,7,35.78c-.78,0-1.64,0-2.56,0H1.73c-.87,0-1.43,0-1.68-.05v-4H2V17.54a2.5,2.5,0,0,0-.77-1.82l-.6-.6c-.21-.21-.43-.45-.65-.7l.72-.72a4.86,4.86,0,0,0,1-1.37A4.77,4.77,0,0,0,2,10.48C2,9.55,2,8.6,2,7.64S2,5.71,2,4.75V4.13h-2V.1a1.38,1.38,0,0,1,.48,0H8.59A12.7,12.7,0,0,1,10,.12c.46.05.92.1,1.37.17s.62.13.91.21.58.17.86.27a3.78,3.78,0,0,1,1.56,1.1,5.29,5.29,0,0,1,.94,1.68,4.58,4.58,0,0,1,.31,1.15q.08.59.12,1.2c.07.45.11.92.15,1.4a7.71,7.71,0,0,1-.05,1.44A16.76,16.76,0,0,0,16,10.49a5.41,5.41,0,0,1-.36,1.75,4.4,4.4,0,0,1-.77,1.27,3,3,0,0,1-1.25.84l-.57.22ZM6.58,12.67,8,12.7c.5,0,1,0,1.46,0a3.08,3.08,0,0,0,1.13-.29,1.64,1.64,0,0,0,.79-.86,3.44,3.44,0,0,0,.34-1.39c0-.45.05-.89.05-1.32V7.49c0-.32,0-.63,0-.91a4.34,4.34,0,0,0-.12-.87A2.28,2.28,0,0,0,11.35,5a1.48,1.48,0,0,0-.6-.53,2.8,2.8,0,0,0-1.34-.33c-.42,0-.82,0-1.2,0H6.48v7.34a.93.93,0,0,0,0,.29.23.23,0,0,1,0,.24.4.4,0,0,0-.07.39Zm1.2,1.83h0v0h0Zm1.82-.77v0h.19a.11.11,0,0,0,0-.1A.2.2,0,0,0,9.6,13.73Zm3.12,5.09a1.37,1.37,0,0,0,0,.19,1,1,0,0,1,0,.29c.09-.26.08-.42,0-.48V18.5a.52.52,0,0,0-.1-.31.49.49,0,0,1,0,.36Q12.53,18.72,12.72,18.82Zm0,3.88c0,.36,0,1,0,1.83s0,1.78,0,2.76,0,1.9,0,2.78a8.47,8.47,0,0,0,.17,1.8,2.77,2.77,0,0,1,1-.21.92.92,0,0,0,.77-.56.26.26,0,0,0,.14,0,.43.43,0,0,1,.15.05l.29-.14V23.52a.84.84,0,0,0-.24-.07,1,1,0,0,1-.24-.07,1,1,0,0,0-.15.16,1,1,0,0,1-.14.17.56.56,0,0,1-.29-.05l.14-.43a2.2,2.2,0,0,1-.09-.21,1.25,1.25,0,0,0-.15-.27.62.62,0,0,1-.19.07.77.77,0,0,0-.19.08c-.16-.07-.21-.16-.14-.27a.38.38,0,0,0,0-.36.28.28,0,0,1,0-.29.61.61,0,0,0,0-.33c0-.13,0-.25,0-.36a.82.82,0,0,0-.07-.41c-.06.35-.12.66-.17.94s-.1.55-.17.84a.65.65,0,0,0-.19,0A.62.62,0,0,1,12.72,22.7Zm0-.76A3.42,3.42,0,0,1,13,21.6a1.07,1.07,0,0,1-.15-.17l-.14-.21ZM13.3,32.5h0v-.24h0Zm.81.81a.4.4,0,0,0,0-.41.65.65,0,0,1-.12-.4.44.44,0,0,0-.17,0,.44.44,0,0,1-.17,0,.34.34,0,0,1,.17.41C13.75,33.13,13.86,33.25,14.11,33.31Zm.1-13.58a3.58,3.58,0,0,1,.48.29l.53-.29v-.58c-.13-.16-.25-.22-.36-.19a.73.73,0,0,1-.36,0A.63.63,0,0,0,14.21,19.73Zm.48-15.46-.1.1a.09.09,0,0,0,0,.07.14.14,0,0,1,0,.07A.54.54,0,0,0,14.69,4.27Zm.38,18.58A0,0,0,0,1,15,22.8v.1S15.07,22.88,15.07,22.85ZM16.9,33.41l0,0-.12,0s-.05,0-.12,0v.1Z"/><path class="cls-2" d="M26.35,16.56v8.06a4.07,4.07,0,0,1-.05.72,5.58,5.58,0,0,0,0,.72c0,.07,0,.39,0,1s0,1.2,0,1.88,0,1.29,0,1.87,0,.89,0,1h2c0,.35.05.69.05,1v3a2.14,2.14,0,0,1-.48.05H24a1.32,1.32,0,0,1-.53-.1.77.77,0,0,0-.52,0,5.55,5.55,0,0,1-1.47.1,7.11,7.11,0,0,0-1.46,0,4,4,0,0,1-.07-.72c0-.36,0-.75,0-1.18V32.69a7.46,7.46,0,0,1,.05-1h2V25.68c0-1.44,0-2.86,0-4.27s0-2.83,0-4.27a1.81,1.81,0,0,0-.67-1.4l-.68-.57-.72-.63.84-.91c.28-.29.54-.56.8-.81a1.29,1.29,0,0,0,.43-.87V4.18H20a4,4,0,0,1-.07-.72c0-.36,0-.75,0-1.18V1A6.28,6.28,0,0,1,19.92.1h8.4v4H26.4v8a3.1,3.1,0,0,0,.77,1.11,5.66,5.66,0,0,1,.6.6l.55.65a3,3,0,0,1-1,1A2.66,2.66,0,0,0,26.35,16.56ZM20.78,34.85s0-.05,0-.05v.1Zm.15-33.79L20.83,1a.8.8,0,0,0,.05.33h.05Zm.91,13.58h-.05v0A0,0,0,0,0,21.84,14.64Zm.19-.48c0,.26.13.35.39.29,0,0,0,0,0,0s0,0,.05,0a.42.42,0,0,0-.29-.48.31.31,0,0,1-.09.12A.32.32,0,0,0,22,14.16Zm1.35,19.15a.14.14,0,0,1,.09-.05c-.06-.28-.13-.62-.19-1l-.19-.12A1.54,1.54,0,0,1,22.9,32a3.4,3.4,0,0,1-.29.33l-.34.34a2,2,0,0,1,.05.53.39.39,0,0,1,.05.14.32.32,0,0,0,.05.15.73.73,0,0,1,.86-.39A1.19,1.19,0,0,1,23.38,33.31Zm-.72,1.3.38,0a.4.4,0,0,0,.29-.07.81.81,0,0,1,0-.38c0-.13,0-.23-.19-.29l-.22.09a1.43,1.43,0,0,0-.26.15Zm.67-17.67a.93.93,0,0,1-.34.12c-.09,0-.16.11-.19.27C23.12,17.42,23.3,17.3,23.33,16.94Zm-.43,3.12,0,0v.09S22.9,20.1,22.9,20.06Zm0,4.08.15.87a2,2,0,0,1,.43.19,1,1,0,0,1,.24-.26,2.85,2.85,0,0,0,.24-.22,1.94,1.94,0,0,0-.36-.36A3.58,3.58,0,0,0,22.94,24.14Zm.29-6.28h.05v-.05h-.05ZM24,21.17q.15-.39-.33-.48l-.29.29c.06.16.15.24.26.24A1.63,1.63,0,0,0,24,21.17ZM23.52,8.5c-.1.09-.14.16-.14.19s.08.09.24.19a.34.34,0,0,1-.05-.19A.41.41,0,0,0,23.52,8.5Zm1.92,13.72A.83.83,0,0,1,25.1,22a.52.52,0,0,0-.33-.17.6.6,0,0,1-.36-.12l-.31-.22-.63.15c0,.16,0,.3,0,.43a2.53,2.53,0,0,0,0,.38,1,1,0,0,1,.12.36,1.27,1.27,0,0,0,.12.36h.77a1.53,1.53,0,0,0,.29-.24c.1-.09.22-.06.38.1a3.76,3.76,0,0,0,.27-.48C25.38,22.5,25.41,22.38,25.44,22.22ZM23.81,32v-.1a.41.41,0,0,0-.19.05v0Zm.33-.43a4.14,4.14,0,0,0,.48.12,1,1,0,0,1,.39.12.3.3,0,0,0,.09.19h.34v-8.4A2,2,0,0,0,25,24a2.93,2.93,0,0,1-.26-.19l-.22-.19L24.1,24c.19.19.22.38.09.55a.5.5,0,0,0-.05.55,1.68,1.68,0,0,1-.24.08.89.89,0,0,0-.19.07.38.38,0,0,0,.05.24,1.21,1.21,0,0,1,.46.26,1.15,1.15,0,0,1,.26.41,3.49,3.49,0,0,0-.07.89c0,.56,0,1.16-.07,1.8s-.07,1.24-.1,1.8A3.22,3.22,0,0,1,24.14,31.54ZM23.76,24s0,0,0-.05v0l0,0ZM23.9,7.87V8l.05,0S23.94,7.87,23.9,7.87Zm.2,9.7a2.89,2.89,0,0,0-.05-.53.77.77,0,0,0-.1.24A1.06,1.06,0,0,0,24.1,17.57Zm0,17,.41.07.31,0a.75.75,0,0,0,.15.24h.86a.77.77,0,0,1,.19-.15.81.81,0,0,0,.2-.14.42.42,0,0,0,.28.14,1.72,1.72,0,0,1,.22-.33l.22-.29c-.07-.16-.12-.3-.17-.41s-.11-.25-.17-.41l-.19-.19-.19.53c-.16-.16-.33-.31-.51-.46a.79.79,0,0,0-.69-.12l-.2.29-.19.34a.57.57,0,0,1-.29,0c-.09,0-.17.06-.24.22Zm.2-15.5a3.22,3.22,0,0,1,0,.5,2.58,2.58,0,0,0,.05.46,1,1,0,0,0,.24-.22l.19-.22a2.45,2.45,0,0,0,.53.1c0-.16-.05-.3-.07-.43s0-.26-.07-.39a.33.33,0,0,0-.31-.16l-.41,0a.34.34,0,0,0-.12.19A.42.42,0,0,1,24.34,19.06ZM25.58,16c-.25-.12-.43-.06-.52.2a.32.32,0,0,1,.09.24c0,.09.08.14.24.14A3.92,3.92,0,0,1,25.58,16Zm-.28-2.44-.1.09.05.1A.29.29,0,0,0,25.3,13.54Zm.33,18.86c-.09.16,0,.24.19.24A1,1,0,0,0,25.63,32.4Zm1.87,2.5V33.46h0l-.29,1.44Z"/><path class="cls-2" d="M37.39.05c.23.48.21,1.84,0,4.08H35.81a2.83,2.83,0,0,1,.09.48c.07.32.12.63.17.93s.1.64.17,1,.12.69.17,1,.1.68.17,1,.12.58.19,1q.09.82.21,1.56t.27,1.56c.06.32.11.64.14,1a9.88,9.88,0,0,0,.15,1,10.47,10.47,0,0,1,.21,1c0,.34.1.68.17,1s.11.69.14,1a9.88,9.88,0,0,0,.15,1c.06.32.12.64.17,1a6.6,6.6,0,0,0,.21,1,.8.8,0,0,1,0,.48.53.53,0,0,0,.19.48c.07-.38.11-.76.15-1.13a9.37,9.37,0,0,1,.14-1.08c.1-.41.18-.84.26-1.27s.17-.86.27-1.27.11-.69.14-1a9.88,9.88,0,0,1,.15-1c.06-.29.12-.58.19-.89s.12-.6.19-.88.11-.69.14-1,.08-.66.15-1,.12-.58.17-.89.1-.61.16-.93a6.61,6.61,0,0,0,.15-.89c0-.31.08-.62.14-.94a4.14,4.14,0,0,0,.07-.45,4,4,0,0,1,.08-.46,6.42,6.42,0,0,0,.19-1.08,5.55,5.55,0,0,1,.19-1.08V4.18H40V.1A13.48,13.48,0,0,1,41.81,0c.57,0,1.15,0,1.73,0h3.4a.46.46,0,0,1,.24.43,8.28,8.28,0,0,0,0,1.22,4.31,4.31,0,0,1-.09,1.23.62.62,0,0,0,0,.38,1.18,1.18,0,0,1,.07.43,1.6,1.6,0,0,1-.09.39H45.65c-.07.19-.12.37-.17.55s-.09.34-.12.5c-.1.51-.19,1-.26,1.49s-.17,1-.27,1.48-.21.91-.33,1.39a10.78,10.78,0,0,0-.29,1.39,2.24,2.24,0,0,0-.07.77c0,.25,0,.51,0,.76a.4.4,0,0,0,.07.22.87.87,0,0,0,.17.21c.19.26.38.52.55.79s.36.54.55.79c-.16.16-.33.32-.52.48l-.58.48a3.07,3.07,0,0,0-.29.24,1.12,1.12,0,0,1-.33.24,1.1,1.1,0,0,0-.53.48A3.07,3.07,0,0,0,43,17c-.1.35-.18.7-.24,1s-.13.68-.19,1-.19.82-.27,1.22-.17.81-.26,1.23-.13.76-.19,1.15-.15.78-.24,1.19-.14.72-.22,1.1-.17.77-.26,1.15a3.13,3.13,0,0,1,0,.58H43.2v4.13H34a7.05,7.05,0,0,1,0-1c0-.33,0-.67,0-1a7.05,7.05,0,0,1,0-1c0-.33,0-.67,0-1H36.1a.27.27,0,0,0,.09-.27,2.2,2.2,0,0,0-.09-.21,3.39,3.39,0,0,0-.1-.77c-.07-.25-.13-.51-.19-.77L35.42,23c-.13-.57-.25-1.16-.38-1.77s-.24-1.2-.34-1.77-.2-1.17-.33-1.77c-.07-.26-.14-.51-.22-.75a1.53,1.53,0,0,0-.41-.64L33.46,16a3.42,3.42,0,0,0-.34-.29c-.22-.19-.46-.37-.7-.55l-.74-.55a1.56,1.56,0,0,1,.26-.55,3.76,3.76,0,0,0,.32-.46l.43-.57A2,2,0,0,0,33,11.27c-.1-.39-.18-.76-.24-1.13S32.59,9.4,32.5,9s-.14-.7-.22-1-.17-.7-.26-1-.14-.76-.22-1.13-.15-.73-.22-1.08a2.5,2.5,0,0,0-.19-.57H30V1.44a2.51,2.51,0,0,0,0-.67,1.42,1.42,0,0,1,.1-.72ZM33.94,4.13s0,0,0,.07,0,0,.05.07l.17,0a.43.43,0,0,1,.17,0,.68.68,0,0,0,0-.19,1.44,1.44,0,0,1,0-.24A3,3,0,0,0,33.94,4.13Zm.38,6.57v0s0,0,0,0l0,.05Zm.34-5h.09a.54.54,0,0,0,0-.28h0Zm.19-4V1.63l-.05.05.05.05Zm-.05,27.1v1.11h2.4s0,0,0-.05l0-.09a1,1,0,0,0-.77-.2.28.28,0,0,1-.1.2H36a1.38,1.38,0,0,0,.24-.29,5.82,5.82,0,0,0-.33-.59.37.37,0,0,1-.2.05.27.27,0,0,0-.19.1,5.54,5.54,0,0,1-.12-.71,3.89,3.89,0,0,0-.12-.65.53.53,0,0,0-.19.48,1.34,1.34,0,0,1,0,.49.75.75,0,0,0-.12.07Zm2.11-3.58a.29.29,0,0,0,0,.31,1.5,1.5,0,0,1,.19.31,1.49,1.49,0,0,0,0-.36C37.15,25.35,37.07,25.26,36.91,25.2Zm.67,4.61v.05h.05Zm.63-5.43.19-.09.19-.1c0-.32,0-.5-.09-.55s-.26,0-.58,0a1,1,0,0,1,0,.39Q37.92,24.24,38.21,24.38Zm-.1,5.37a.12.12,0,0,1,0,.07.09.09,0,0,0,0,.07h.58c-.1-.16-.19-.24-.29-.24A.35.35,0,0,0,38.11,29.75Zm2.45-11-.05-.05,0,.05s0,0,0,.05ZM40.85,1.1a1.55,1.55,0,0,1,0,.48,1.27,1.27,0,0,0,.07.53,2.69,2.69,0,0,0,.24-.24l.2-.19a1.32,1.32,0,0,0-.1-.43A1.74,1.74,0,0,0,40.85,1.1ZM42.1,8.21s0,0,0-.05h-.09Zm.14-1a.68.68,0,0,0-.07.53,2.5,2.5,0,0,0,.21.48,2,2,0,0,1,.39,1l.09-.46a.43.43,0,0,1,.29-.31,2.75,2.75,0,0,0,.34.14,3.74,3.74,0,0,1-.15-.43,3.53,3.53,0,0,0-.14-.43L43,7.85a1,1,0,0,0-.19.17.83.83,0,0,1-.34-.36A4.08,4.08,0,0,0,42.24,7.2Zm.09-.86v.52l.44.15.38-.22a2.46,2.46,0,0,1,.43-.21,1.74,1.74,0,0,1-.69,0A2.53,2.53,0,0,1,42.33,6.34Zm.15-.2a.47.47,0,0,0,.17,0,.44.44,0,0,1,.17,0V5.62h-.34Zm.29,4.23a.14.14,0,0,0-.05.09.81.81,0,0,1,.14.2s0-.06,0-.08a.18.18,0,0,1,.05-.07A1,1,0,0,0,42.77,10.37Zm.29-2.74V7.39q0-.09-.24,0Zm0,1.44.1.1a.09.09,0,0,0,.07,0l.07,0v0Z"/><path class="cls-2" d="M55.34,4.13v8.16a1.23,1.23,0,0,0,.79-.07,3,3,0,0,0,.65-.41,1.74,1.74,0,0,0,.53-1.39,2.24,2.24,0,0,1,1-.2c.41,0,1.07,0,2,.15a2.06,2.06,0,0,1,.19.86V15.6a1.16,1.16,0,0,1,0,.34.92.92,0,0,0,0,.28.86.86,0,0,1,0,.22.33.33,0,0,0,0,.22.28.28,0,0,1,0,.38.12.12,0,0,0,0,.19.91.91,0,0,1,0,.77,1.42,1.42,0,0,0,0,.82h-3a2,2,0,0,0-.82-1.64A1.75,1.75,0,0,0,56,16.9a1.12,1.12,0,0,0-.68,0v9.84c.51,0,1,0,1.49,0s1,0,1.49,0h2.93a1.32,1.32,0,0,1,0-.28,1.15,1.15,0,0,0,0-.24V22.75a2,2,0,0,1,0-.36c0-.11,0-.23,0-.36s0-.2,0-.31a1.8,1.8,0,0,1,0-.31l.05-.05H64.9A12.29,12.29,0,0,1,65,22.7c0,.77,0,1.64,0,2.62v3c0,1,0,1.83,0,2.47a7.77,7.77,0,0,1-1.1.07l-2.42.05-3.25,0H51.41c-1,0-1.86,0-2.5-.05,0,0,0,0,0,0v-4a3.43,3.43,0,0,1,1.06,0,3.43,3.43,0,0,0,1.06,0V17.47a2.13,2.13,0,0,0-.68-1.63,3.5,3.5,0,0,0-.48-.41,3.5,3.5,0,0,1-.48-.41l-.21-.19A.52.52,0,0,1,49,14.5s0-.06,0-.08a.13.13,0,0,1,0-.07,9.36,9.36,0,0,0,.73-.81,8,8,0,0,1,.72-.82,1.46,1.46,0,0,0,.48-1.1V4.18H48.91a4.63,4.63,0,0,1-.07-1c0-.33,0-.68,0-1a6.54,6.54,0,0,1,0-1c0-.31,0-.63,0-1A7.71,7.71,0,0,1,50,.07l2.61,0,3.43,0h3.63l3.17,0,2.08,0a6.94,6.94,0,0,1,0,1.44,11.53,11.53,0,0,0,0,1.44V8.74l-.17.09a.28.28,0,0,1-.16.05,1.61,1.61,0,0,0-.72,0,2.52,2.52,0,0,1-.73,0l-.74,0a3.68,3.68,0,0,1-.74,0,1.43,1.43,0,0,1-.44-.1V7.34c0-.25,0-.48,0-.69a2.85,2.85,0,0,1,0-.65,1.53,1.53,0,0,0-.4-1.13A1.75,1.75,0,0,0,60,4.22a1.66,1.66,0,0,0-.38-.09ZM50.06,2.78l.17.17.17.17L50.69,3a1,1,0,0,0,.24-.17V2.3a2.31,2.31,0,0,0-.19-.16L50.5,2a3.32,3.32,0,0,1-.44.33Zm1,11c0,.23.06.36.1.39a.38.38,0,0,0,.16,0l.22,0L51.31,14Zm.72-2.4v1.64A1.68,1.68,0,0,1,52.2,13h.41a.58.58,0,0,1,.24-.15.72.72,0,0,0,.24-.14l.12.07s0,0,.12.07a.41.41,0,0,1,.26-.4c.18-.08.22-.24.12-.46a2.26,2.26,0,0,1-.93-.38A1.29,1.29,0,0,0,51.79,11.42Zm.1-4.17s0,0,0,0v.1S51.85,7.25,51.89,7.25ZM53.71,17a2.61,2.61,0,0,0,0,.48,5.27,5.27,0,0,1,.62-.19v-.82a2,2,0,0,0,.34-.31,3.47,3.47,0,0,1,.24-.26,2.82,2.82,0,0,1,2.16.57A3.59,3.59,0,0,1,58.17,18h1.35V16.27a3.5,3.5,0,0,0-.39-.17,3.71,3.71,0,0,0-.47,0,.63.63,0,0,1,0,.19c0,.07,0,.15-.07.24a1,1,0,0,0-.17-.14,1.28,1.28,0,0,0-.17-.1l.29-.29a.56.56,0,0,1-.24-.36.45.45,0,0,0-.29-.31s.05-.05.05-.07,0,0,0-.07a1.53,1.53,0,0,0-.29-.07q-.13,0-.24-.27a.73.73,0,0,0,.07-.19.77.77,0,0,1,.08-.19c0-.16-.06-.31-.08-.43a2.66,2.66,0,0,0-.07-.39.14.14,0,0,0-.09-.05.89.89,0,0,1,0,.22,1.8,1.8,0,0,0,0,.22l-.17.09-.17.1-.65-.36a4,4,0,0,0-.64-.27,3.88,3.88,0,0,0-.63-.14,4.69,4.69,0,0,0-.62,0,.83.83,0,0,1-.24-.79,1.76,1.76,0,0,0,0-.79c-.07.25-.12.49-.17.72l-.17.72c-.26,0-.41.05-.48.24a.77.77,0,0,1-.34.43,1.45,1.45,0,0,0-.26-.07l-.31-.07a1.49,1.49,0,0,0,.1.52.38.38,0,0,0-.12.17.85.85,0,0,1-.08.17.41.41,0,0,1,.12.14,1,1,0,0,0,.12.15l-.86.29c.16.12.31.24.45.33a4.85,4.85,0,0,1,.41.29c-.06.13-.11.23-.14.31s-.06.19-.1.31a2.39,2.39,0,0,0,.58.1.44.44,0,0,1,.29.29C53.58,16.82,53.71,16.88,53.71,17Zm-1.54-.29H52a.73.73,0,0,0-.09.29ZM51.94,1.39v.1s0-.05,0-.05,0,0,0-.05Zm.62,1c.06-.32.1-.51.1-.58s-.07-.16-.2-.28l-.19.19.15.33A2.75,2.75,0,0,0,52.56,2.4Zm.34,16.18h-.48l-.15.72a1.35,1.35,0,0,0,.19.16l.2.17a1.34,1.34,0,0,1,.26-.14,1,1,0,0,0,.26-.15v-.48a.33.33,0,0,0-.12-.14Zm-.53-14.5V4l0,0Zm.19,4.61V9.74a3.51,3.51,0,0,0,.5-.19l.46-.19a3.54,3.54,0,0,0-.1-.67c-.16-.16-.3-.22-.43-.17Zm.91,12.24a1,1,0,0,0-.38.24.49.49,0,0,0-.15.38.63.63,0,0,0,.08.29c0,.1.08.19.11.29h.58a2.15,2.15,0,0,1,.38-.53.5.5,0,0,0,.15,0,.26.26,0,0,1,.14.05v-.82a4.35,4.35,0,0,0-.43.38C53.76,21.14,53.6,21,53.47,20.93ZM53.18,1.44s0-.05,0-.05l0,.05,0,.05Zm.24,4.32a1.21,1.21,0,0,1-.19.29.7.7,0,0,1,.15.24.72.72,0,0,0,.14.24c.38-.1.59-.26.62-.48A1.21,1.21,0,0,1,54,5.76Zm0-1,0,0v.1A0,0,0,0,1,53.47,4.75Zm.24,4.9-.05-.05h0A.14.14,0,0,0,53.71,9.65Zm.1-.48,0-.05,0,0a0,0,0,0,0-.05,0A0,0,0,0,1,53.81,9.17Zm.24-6.48s0,0,0,0V2.35H54a.79.79,0,0,0,0,.17A.43.43,0,0,1,54.05,2.69Zm0,20.11.15.14.14.15v-.58A.68.68,0,0,0,54.09,22.8ZM54.29,9c-.07.07-.12.1-.15.1l.15.14a.08.08,0,0,0,.09-.09A.31.31,0,0,0,54.29,9Zm.14,8.88a.26.26,0,0,0-.14-.09s-.08,0-.15.09l.1.1ZM55.2,1v.05h.24V1Zm.19,1.44,0,0,0,0a.14.14,0,0,1,0-.09Zm1.82,12.24c-.06.09-.11.14-.14.14l-.14-.14s0,0,.07,0a.08.08,0,0,1,.07-.05S57.09,14.62,57.21,14.69ZM59.42,12l-.57-.43a2,2,0,0,1-.43.19,4.21,4.21,0,0,0-.17.43q-.07.2.21.39h.63l.29-.29S59.42,12.16,59.42,12ZM59,15.6h.09l0,0Zm3.84-7.92c-.07-.06-.11-.1-.14-.1l-.15.15.19.09S62.81,7.74,62.88,7.68Z"/><path class="cls-2" d="M79.2,14.83l.36.17.31.12a3,3,0,0,1,1.06.38,6.53,6.53,0,0,1,.91.68,2.28,2.28,0,0,1,.5.72,7.6,7.6,0,0,1,.31.81,2.19,2.19,0,0,1,.1.65,5,5,0,0,0,0,.65,6,6,0,0,1,.09,1c0,.32,0,.65,0,1a1.23,1.23,0,0,1-.07.44.69.69,0,0,0,0,.43,1.54,1.54,0,0,1,0,.86,5.39,5.39,0,0,1,0,.72,4.21,4.21,0,0,0,0,.72v2.47c0,.63,0,1.3,0,2s0,1.38.05,2,0,1,0,1.06h2v4.08H81.41a2.78,2.78,0,0,1-2.12-.87,2.57,2.57,0,0,1-.72-1.82V25.73c0-1.12,0-2.23,0-3.31s0-2.2,0-3.32A2.87,2.87,0,0,0,78,17.42a1.22,1.22,0,0,0-.5-.36c-.21-.08-.43-.15-.65-.21a5.62,5.62,0,0,0-1.73-.12,9.3,9.3,0,0,1-1.82,0v3.7a5,5,0,0,0,0,.53.82.82,0,0,1-.12.53v.19a.72.72,0,0,1,.12.48,3.85,3.85,0,0,0,0,.48v9.07h1.82a4.54,4.54,0,0,1,.07,1c0,.34,0,.68,0,1v2a10.33,10.33,0,0,1-1.37.07c-.78,0-1.64,0-2.57,0H68.49c-.86,0-1.42,0-1.68-.05v-4h2V17.54A2.46,2.46,0,0,0,68,15.72q-.29-.3-.6-.6l-.64-.7.72-.72a5.06,5.06,0,0,0,1-1.37,5,5,0,0,0,.26-1.85c0-.93,0-1.88,0-2.84s0-1.93,0-2.89V4.13h-2V.1a1.45,1.45,0,0,1,.48,0h8.07a12.83,12.83,0,0,1,1.37.07c.46.05.92.1,1.36.17s.63.13.92.21l.86.27a3.78,3.78,0,0,1,1.56,1.1,5.49,5.49,0,0,1,.94,1.68,4.58,4.58,0,0,1,.31,1.15q.07.59.12,1.2c.06.45.11.92.14,1.4a6.94,6.94,0,0,1,0,1.44c-.06.57-.1,1.16-.12,1.75a4.93,4.93,0,0,1-.36,1.75,4.38,4.38,0,0,1-.76,1.27,3,3,0,0,1-1.25.84l-.58.22Zm-5.86-2.16,1.47,0c.49,0,1,0,1.46,0a3.14,3.14,0,0,0,1.13-.29,1.68,1.68,0,0,0,.79-.86,3.61,3.61,0,0,0,.34-1.39c0-.45,0-.89,0-1.32V7.49c0-.32,0-.63,0-.91a6.5,6.5,0,0,0-.12-.87A2.53,2.53,0,0,0,78.12,5a1.62,1.62,0,0,0-.6-.53,2.87,2.87,0,0,0-1.35-.33c-.41,0-.81,0-1.2,0H73.25v7.34a.92.92,0,0,0,0,.29.21.21,0,0,1,0,.24.44.44,0,0,0-.08.39C73.22,12.43,73.28,12.54,73.34,12.67Zm1.2,1.83h-.05v0h.05Zm1.83-.77v0h.19a.14.14,0,0,0,0-.1A.2.2,0,0,0,76.37,13.73Zm3.12,5.09a.65.65,0,0,0,0,.19,1.11,1.11,0,0,1,0,.29c.1-.26.08-.42,0-.48V18.5a.6.6,0,0,0-.1-.31.62.62,0,0,1,0,.36Q79.29,18.72,79.49,18.82Zm0,3.88c0,.36,0,1,0,1.83s0,1.78,0,2.76,0,1.9,0,2.78a7.83,7.83,0,0,0,.17,1.8,2.77,2.77,0,0,1,1-.21.93.93,0,0,0,.77-.56.26.26,0,0,0,.14,0,.39.39,0,0,1,.14.05l.29-.14V23.52a.68.68,0,0,0-.24-.07l-.24-.07-.14.16a.73.73,0,0,1-.15.17.54.54,0,0,1-.28-.05l.14-.43L81,23a1.76,1.76,0,0,0-.14-.27.73.73,0,0,1-.19.07.64.64,0,0,0-.19.08q-.24-.11-.15-.27a.33.33,0,0,0,0-.36.3.3,0,0,1,0-.29.47.47,0,0,0,0-.33,2,2,0,0,1,0-.36,1,1,0,0,0-.07-.41c-.07.35-.12.66-.17.94s-.11.55-.17.84a.62.62,0,0,0-.19,0A.65.65,0,0,1,79.49,22.7Zm0-.76a3.39,3.39,0,0,1,.28-.34,1,1,0,0,1-.14-.17l-.14-.21Zm.57,10.56h0v-.24h0Zm.82.81a.42.42,0,0,0,0-.41.65.65,0,0,1-.12-.4.39.39,0,0,0-.16,0,.47.47,0,0,1-.17,0,.35.35,0,0,1,.17.41C80.52,33.13,80.62,33.25,80.88,33.31ZM81,19.73a3.58,3.58,0,0,1,.48.29,5.72,5.72,0,0,0,.53-.29v-.58c-.13-.16-.25-.22-.36-.19a.73.73,0,0,1-.36,0A.64.64,0,0,0,81,19.73Zm.48-15.46-.09.1a.14.14,0,0,0,0,.07.09.09,0,0,1,0,.07A.55.55,0,0,0,81.45,4.27Zm.39,18.58a0,0,0,0,1,0-.05v.1A0,0,0,0,0,81.84,22.85Zm1.82,10.56,0,0-.12,0a.17.17,0,0,0-.12,0v.1Z"/><path class="cls-2" d="M86.78,14.4A13.58,13.58,0,0,1,88,13.06a2.25,2.25,0,0,0,.63-1.59,5.72,5.72,0,0,1,0-1.17,4.64,4.64,0,0,0,0-1.13,13.21,13.21,0,0,1-.07-1.87,16,16,0,0,0-.07-1.83,5,5,0,0,1,0-1.27,6.13,6.13,0,0,0-.05-1.27,8.7,8.7,0,0,1-.12-1.2q0-.58,0-1.2V.14A6,6,0,0,1,89,.07l1.29,0h1.35a6.19,6.19,0,0,1,1,.05,5.61,5.61,0,0,0,0,1.36,3.94,3.94,0,0,1-.12,1.37.38.38,0,0,0,0,.24.57.57,0,0,1,0,.29c0,.83-.05,1.66-.05,2.5s0,1.66-.1,2.49a11.78,11.78,0,0,0,0,1.87,13.24,13.24,0,0,1,0,1.88A5.3,5.3,0,0,0,93,13.32l1,1.13a5.16,5.16,0,0,1-.62.69l-.72.65a2.39,2.39,0,0,0-.51.58,1.18,1.18,0,0,0-.17.77v.52a8.44,8.44,0,0,0,0,.87c0,.29,0,.59,0,.91a.88.88,0,0,0,.48,0,1.29,1.29,0,0,1,.48,0,3.58,3.58,0,0,1,.07.65c0,.33,0,.71,0,1.12v1.25c0,.42,0,.77,0,1.06H87.84v-4a1.38,1.38,0,0,1,.48-.05h.48a5.13,5.13,0,0,0,0-1,2.27,2.27,0,0,1-.1-.67v-.72a1.54,1.54,0,0,0-.57-1.25A12.87,12.87,0,0,1,86.78,14.4Zm5.76,14.45a1.21,1.21,0,0,0,0,.43,1.15,1.15,0,0,1-.07.48,2.25,2.25,0,0,1-2,1.68,1.94,1.94,0,0,1-.63,0,1.16,1.16,0,0,1-.57-.32,3,3,0,0,1-1-1.53,3.25,3.25,0,0,1,0-1.75,2.6,2.6,0,0,1,.91-1.47,2.27,2.27,0,0,1,1.25-.41,1.66,1.66,0,0,1,1.25.51,3.89,3.89,0,0,1,.67.93A2.57,2.57,0,0,1,92.54,28.85Zm-3-13.3v.1l0-.05S89.6,15.55,89.57,15.55Zm.28,1.06a.36.36,0,0,0-.09.53c0,.06.06.09.19.09a.32.32,0,0,0,.19-.48ZM90,19.78h0v0h0Zm.09-1.4h0l0,0,0,0Zm0-14.59v.1l0-.05S90.13,3.79,90.09,3.79Zm.15,9.27h0v.43h0Zm0,6.86a1,1,0,0,0,.38.19,1.11,1.11,0,0,0,.43-.24c-.12-.09-.25-.21-.38-.33A4.35,4.35,0,0,1,90.24,19.92Zm.24,7a.19.19,0,0,1,0,.1.77.77,0,0,1,.19.14l.1-.1c-.07,0-.11-.05-.12-.07Zm0,1.78s0,0,0,0S90.53,28.69,90.53,28.66ZM91.05,2v-.1h-.19V2Zm.58,26.16a1,1,0,0,1,0-.12.24.24,0,0,0,0-.12.69.69,0,0,1-.28,0q0,.24.12.24A.87.87,0,0,0,91.63,28.18Zm-.34,1.58s0,0,0-.05h0l0,.05ZM92,22.7a.26.26,0,0,0,.14-.09V21.46a.5.5,0,0,0-.22.28,1.4,1.4,0,0,0,0,.29c0,.1,0,.19,0,.27a.48.48,0,0,1,0,.26s0,.06,0,.07S92,22.67,92,22.7Zm.52-8.4.05,0a0,0,0,0,1-.05,0l0,0S92.46,14.3,92.49,14.3Z"/></svg>