<svg xmlns="http://www.w3.org/2000/svg" xmlns:xlink="http://www.w3.org/1999/xlink" viewBox="0 0 612 612"><defs><style>.cls-1,.cls-10{fill:none;}.cls-2{clip-path:url(#clip-path);}.cls-3{fill:#898989;}.cls-4{fill:#009a87;}.cls-5{clip-path:url(#clip-path-2);}.cls-6{fill:#006657;}.cls-7{fill:#999;}.cls-8{fill:#7f7f7f;}.cls-9{fill:#e2e2e2;}.cls-10{stroke:#999;stroke-miterlimit:10;stroke-width:0.5px;}.cls-11{clip-path:url(#clip-path-3);}.cls-12{clip-path:url(#clip-path-4);}.cls-13{fill:#bc9469;}</style><clipPath id="clip-path"><rect class="cls-1" x="-1.04" y="-1.62" width="618.81" height="612"/></clipPath><clipPath id="clip-path-2"><rect class="cls-1" x="-2.73" y="-2.19" width="612" height="612"/></clipPath><clipPath id="clip-path-3"><rect class="cls-1" x="-632" y="6.07" width="612" height="612"/></clipPath><clipPath id="clip-path-4"><rect class="cls-1" x="-632" y="7.03" width="618.81" height="612"/></clipPath></defs><title>Road1</title><g id="ROAD1"><g class="cls-2"><rect class="cls-3" x="-105.61" y="-38.62" width="1021.23" height="675.35"/><rect class="cls-4" x="-0.75" y="-1.62" width="257.7" height="276.66"/><rect class="cls-4" x="349.74" y="-1.62" width="271.25" height="276.66"/><rect class="cls-4" x="348.32" y="367.25" width="272.67" height="243.12"/><rect class="cls-4" x="-1.04" y="367.25" width="257.7" height="243.12"/></g><g class="cls-5"><rect class="cls-6" x="-0.66" y="367.6" width="254.86" height="243.12" rx="7.62" ry="7.62"/><rect class="cls-6" x="345.52" y="366.06" width="266.49" height="243.12" rx="6.83" ry="6.83"/><path class="cls-6" d="M350.22.72H609.41a0,0,0,0,1,0,0V277.38a0,0,0,0,1,0,0H348.81a4.54,4.54,0,0,1-4.54-4.54V6.68A6,6,0,0,1,350.22.72Z"/><path class="cls-6" d="M1.64-1.28h250a4.84,4.84,0,0,1,4.84,4.84v266a5.78,5.78,0,0,1-5.78,5.78H1.64a0,0,0,0,1,0,0V-1.28A0,0,0,0,1,1.64-1.28Z"/><path class="cls-6" d="M251.18,251.22c3.18.57,11.28-.51,13.9-2.39a64.16,64.16,0,0,1-8.69-5.59l4-2.51a32.8,32.8,0,0,1-6.94-7.81A44.19,44.19,0,0,0,265.74,229L259,225.15a10.15,10.15,0,0,0,8-3.42,17.85,17.85,0,0,1-10.79-5.38c3.2.54,7.83,0,7.86-3.26,0-4.15-7.66-4.16-8.5-8.23l7.14-1.15a8.5,8.5,0,0,0-5.35-2.76c2-.47,1.13-3.53-.17-5.13a13.36,13.36,0,0,0,7.06-6.89,9.15,9.15,0,0,0-5.83-1.73l10-4.27-6.52-.85a7.65,7.65,0,0,0,4.43-5.44l-4.33.46c.57-3-3.53-5.54-6-3.75l2-5.54c-.29.93-1.89.31-1.94-.66s1.25-1.55,1.32-2.52a156.08,156.08,0,0,0,.41-20.21,21.12,21.12,0,0,1,4.41-13.86,3.75,3.75,0,0,0-4.24-.72c-.62-2-6.07-5.05-7.5-6.64Z"/><path class="cls-6" d="M10,283c0-3.45.37-3.63.38-7.08,6.21,3.17,5.92,11,6.13,12,.48-.24.9-5.13,1-5.65a25.49,25.49,0,0,0,.44-8.11,25.73,25.73,0,0,0,3,8.88l.23-10.12-14.83-1Z"/><path class="cls-6" d="M27.3,284.6a18.76,18.76,0,0,1,5.48-8.23l-2,11.23L40,275.22a18.94,18.94,0,0,1-1.11,7.41l7.52-14.15-20,1.75Z"/><path class="cls-6" d="M147.2,289.31c-1.25-1.44-5.93-6.78-7.32-7.75-1.86-1.29-10.2-1.25-18.67-1.92l-7.68,6.84-2.15-3.86-3.73,7.64a33.24,33.24,0,0,1-5.88-8.56,12.69,12.69,0,0,0-2.08,5.42A14.13,14.13,0,0,1,92.91,278l-6.83,7.4c1-2-1.78-4.24-4-3.67s-3.6,2.64-4.8,4.57a11.78,11.78,0,0,0-2.2-5c-1.22-1.36-3.38-2.07-4.92-1.09-1.75,1.11-2.77,4.1-4.73,3.44-.8-.27-1.25-1.1-2-1.56-2.86-1.85-6.3,3.47-9.45,2.19l6.71-7.64a17.1,17.1,0,0,0-10.92,6l2.6-10.15,174.08,3.35,8.6-7.16A57.68,57.68,0,0,1,255.62,280a28.9,28.9,0,0,1-11.75-.45l7.87,3.27a120,120,0,0,1-18.6-1.22l3.22,2.57-18.6-4.11,2.71,3.34a34.53,34.53,0,0,1-11-4.42l-1.23,6.43-6.07-6.74a19.18,19.18,0,0,1-16,2.2,9.43,9.43,0,0,0,5.63,5,35.16,35.16,0,0,1-13.91-3.08c.27-.53.94,2.66.41,2.4-2.67-1.27-6.72-4.41-9.21-6L163,283.41a8.66,8.66,0,0,1-2.44-3.8c-1.66,1.52-3,7.92-3.68,10.07-1.76-2.2-.37-8.69-3.19-8.69C153.51,281,147.2,289.31,147.2,289.31Z"/><path class="cls-4" d="M1.08,273.71A33.64,33.64,0,0,0-.33,259.36v2.86"/><path class="cls-4" d="M7,283c0-3.45.37-3.63.37-7.08,6.21,3.17,5.92,11,6.13,12,.48-.24.9-5.13,1-5.65a25.49,25.49,0,0,0,.44-8.11,25.73,25.73,0,0,0,3,8.88l.23-10.12-14.83-1Z"/><path class="cls-4" d="M24.3,284.6a18.76,18.76,0,0,1,5.48-8.23l-2,11.23L37,275.22a18.94,18.94,0,0,1-1.11,7.41l7.52-14.15-20,1.75Z"/><path class="cls-4" d="M150.2,288.31c-1.25-1.44-5.93-6.78-7.32-7.75-1.86-1.29-10.2-1.25-18.67-1.92l-7.68,6.84-2.15-3.86-3.73,7.64a33.24,33.24,0,0,1-5.88-8.56,12.69,12.69,0,0,0-2.08,5.42A14.13,14.13,0,0,1,95.91,277l-6.83,7.4c1-2-1.78-4.24-4-3.67s-3.6,2.64-4.8,4.57a11.78,11.78,0,0,0-2.2-5c-1.22-1.36-3.38-2.07-4.92-1.09-1.75,1.11-2.77,4.1-4.73,3.44-.8-.27-1.25-1.1-2-1.56-2.86-1.85-6.3,3.47-9.45,2.19l6.71-7.64a17.1,17.1,0,0,0-10.92,6L55,275.33l174.5-.5,8.6-7.16A57.68,57.68,0,0,1,258.62,279a28.9,28.9,0,0,1-11.75-.45l7.87,3.27a120,120,0,0,1-18.6-1.22l3.22,2.57-18.6-4.11,2.71,3.34a34.53,34.53,0,0,1-11-4.42l-1.23,6.43-6.07-6.74a19.18,19.18,0,0,1-16,2.2,9.43,9.43,0,0,0,5.63,5,35.16,35.16,0,0,1-13.91-3.08c.27-.53.94,2.66.41,2.4-2.67-1.27-6.72-4.41-9.21-6L166,282.41a8.66,8.66,0,0,1-2.44-3.8c-1.66,1.52-3,7.92-3.68,10.07-1.76-2.2-.37-8.69-3.19-8.69C156.51,280,150.2,288.31,150.2,288.31Z"/><path class="cls-4" d="M250.18,249.22c3.18.57,11.28-.51,13.9-2.39a64.16,64.16,0,0,1-8.69-5.59l4-2.51a32.8,32.8,0,0,1-6.94-7.81A44.19,44.19,0,0,0,264.74,227L258,223.15a10.15,10.15,0,0,0,8-3.42,17.85,17.85,0,0,1-10.79-5.38c3.2.54,7.83,0,7.86-3.26,0-4.15-7.66-4.16-8.5-8.23l7.14-1.15a8.5,8.5,0,0,0-5.35-2.76c2-.47,1.13-3.53-.17-5.13a13.36,13.36,0,0,0,7.06-6.89,9.15,9.15,0,0,0-5.83-1.73l10-4.27-6.52-.85a7.65,7.65,0,0,0,4.43-5.44l-4.33.46c.57-3-3.53-5.54-6-3.75l2-5.54c-.29.93-1.89.31-1.94-.66s1.25-1.55,1.32-2.52a156.08,156.08,0,0,0,.41-20.21,21.12,21.12,0,0,1,4.41-13.86,3.75,3.75,0,0,0-4.24-.72c-.62-2-6.07-5.05-7.5-6.64Z"/><path class="cls-6" d="M254.48,104.77a33.86,33.86,0,0,0,8.89-9.39A12.78,12.78,0,0,1,257,97.22c.51-2.17,1.13-2.13,2-3.5s4.41-1.89,3.67-3.33c-.38-.74-5.33-2.68-5.5-3.5-.22-1,4.38-2.3,4.5-3.33s-2.17-2.17-3.67-3.67c.5-4.17-1.3-6.1-1-7.67.25-1.31-2.46-2-2.67-3.33C253.72,64.92,254.48,104.77,254.48,104.77Z"/><path class="cls-6" d="M252.83,76c3.11-2.92,10-4.37,13.16-7.3a19.77,19.77,0,0,1-7.33.29l2.49-3.63A2.22,2.22,0,0,0,261.7,64c-.09-1.05-1.44-1.37-2.48-1.56h0c-1-.19-5-3.62-4.55-4.57C255.91,57.87,252.83,76,252.83,76Z"/><path class="cls-4" d="M252.65,103.6a33.86,33.86,0,0,0,8.89-9.39,12.78,12.78,0,0,1-6.37,1.84c.51-2.17,1.13-2.13,2-3.5s4.41-1.89,3.67-3.33c-.38-.74-5.33-2.68-5.5-3.5-.22-1,4.38-2.3,4.5-3.33s-2.17-2.17-3.67-3.67c.5-4.17-1.3-6.1-1-7.67.25-1.31-2.46-2-2.67-3.33C251.89,63.76,252.65,103.6,252.65,103.6Z"/><path class="cls-4" d="M251,74.86c3.11-2.92,10-4.37,13.16-7.3a19.77,19.77,0,0,1-7.33.29l2.49-3.63a2.22,2.22,0,0,0,.54-1.37c-.09-1.05-1.44-1.37-2.48-1.56h0c-1-.19-5-3.62-4.55-4.57C254.07,56.7,251,74.86,251,74.86Z"/><path class="cls-6" d="M264.83,36.92c-3.44-.29-3.59-.67-7-1,3.67-5.93,11.41-5,12.46-5.12-.2-.49-5-1.32-5.54-1.47a25.49,25.49,0,0,0-8-1.1A25.73,25.73,0,0,0,265.77,26L255.7,25l-2.22,14.7Z"/><path class="cls-6" d="M267.83,19.82a18.76,18.76,0,0,1-7.75-6.14c3.67,1,5.42-.94,9.09,0-3.86-3.42-3.81-4.41-7.67-7.83,1.67-2.67,1.17-2.83,2.67-3.83l-9.5.17L253.44,19.5Z"/><path class="cls-4" d="M263.83,35.92c-3.44-.29-3.59-.67-7-1,3.67-5.93,11.41-5,12.46-5.12-.2-.49-5-1.32-5.54-1.47a25.49,25.49,0,0,0-8-1.1A25.73,25.73,0,0,0,264.77,25L254.7,24l-2.22,14.7Z"/><path class="cls-4" d="M266.83,18.82a18.76,18.76,0,0,1-7.75-6.14c3.67,1,5.42-.94,9.09,0-3.86-3.42-3.81-4.41-7.67-7.83,1.67-2.67,1.17-2.83,2.67-3.83l-9.5.17L252.44,18.5Z"/><path class="cls-6" d="M351.59,204.22c-5.35-3.25-11.46,1.5-15.67-1.5,1.29-1,6.69-8.93,5.91-10.15l-4.91.84a30.76,30.76,0,0,1,8.68-8.3l-6.87-.2q3.4-3,6.49-6.19a14.15,14.15,0,0,1-7.53-2.41c4.34-1.25,7.47-4.13,7.86-7.22-.5,1.87-6.64,2.25-5.79.85s2.47-2.59,3.1-4-.33-3.42-2.63-3.59c-1.5-.11-3.95.11-3.73-.87a23.87,23.87,0,0,0,9-9.94l10.63,20.74Z"/><path class="cls-4" d="M350.71,202c-4.62-3.25-9.91,1.5-13.54-1.5,1.11-1,5.79-8.93,5.1-10.15l-4.25.84a28.79,28.79,0,0,1,7.5-8.3l-5.94-.2q2.94-3,5.61-6.19a11.14,11.14,0,0,1-6.51-2.41c3.75-1.25,6.45-4.13,6.79-7.22-.44,1.87-5.74,2.25-5,.85s2.13-2.59,2.68-4A2.65,2.65,0,0,0,340.9,160c-1.3-.11-3.41.11-3.22-.87,3.66-2.75,9.56-7.21,11-11l6,21.75Z"/><path class="cls-6" d="M348.63,94a33.86,33.86,0,0,0-9.1,9.19,12.78,12.78,0,0,1,6.41-1.7c-.56,2.15-1.18,2.11-2.09,3.45s-4.45,1.79-3.74,3.25c.37.75,5.26,2.8,5.42,3.62.19,1-4.43,2.2-4.57,3.23s2.12,2.21,3.58,3.75c-.59,4.15,3.24,9.76,3.42,11.08C348.49,133.84,348.63,94,348.63,94Z"/><path class="cls-4" d="M349.43,93.18a33.86,33.86,0,0,0-9.1,9.19,12.78,12.78,0,0,1,6.41-1.7c-.56,2.15-1.18,2.11-2.09,3.45s-4.45,1.79-3.74,3.25c.37.75,5.26,2.8,5.42,3.62.19,1-4.43,2.2-4.57,3.23s2.12,2.21,3.58,3.75c-.59,4.15,4.42,8.43,4.09,10-.28,1.31-.84-.24-.67,1.08C349.29,133,349.43,93.18,349.43,93.18Z"/><path class="cls-6" d="M347.77,5.93c-1.16,4-5.87,8.55-9.28,9.29l3.51.31a16.88,16.88,0,0,1-3.4,7.15l2.82-1.16a13.38,13.38,0,0,1-2.69,8.32,18.52,18.52,0,0,0,7.32-3.68,40.25,40.25,0,0,1-5.82,14.16l4.89-1.83a44.51,44.51,0,0,1-5.48,8.05l1.66,1.53a8.57,8.57,0,0,0-1.93,2.75,7.84,7.84,0,0,0,5.13.28,39.11,39.11,0,0,0-5.32,9.48l6,.14a23.1,23.1,0,0,0-7.23,6.88,39.78,39.78,0,0,0,12.74.76Z"/><path class="cls-4" d="M348.77,3.93c-1.16,4-5.87,8.55-9.28,9.29l3.51.31a16.88,16.88,0,0,1-3.4,7.15l2.82-1.16a13.38,13.38,0,0,1-2.69,8.32,18.52,18.52,0,0,0,7.32-3.68,40.25,40.25,0,0,1-5.82,14.16l4.89-1.83a44.51,44.51,0,0,1-5.48,8.05l1.66,1.53a8.57,8.57,0,0,0-1.93,2.75,7.84,7.84,0,0,0,5.13.28,39.11,39.11,0,0,0-5.32,9.48l6,.14a23.1,23.1,0,0,0-7.23,6.88,51.77,51.77,0,0,0,12.74.76Z"/><rect class="cls-4" x="-0.36" y="-2.58" width="254.86" height="277.96" rx="4.94" ry="4.94"/><rect class="cls-4" x="345.93" y="-2.58" width="265.14" height="280.3" rx="4.51" ry="4.51"/><path class="cls-6" d="M420.11,273.09c-2.61,2.12-5.21,9.23-7.82,11.35a2,2,0,0,1-1.66.64c-1-.27-.93-1.65-1.35-2.57-.75-1.66-3-1.77-4.84-1.61l-11.77,1a8.05,8.05,0,0,0-.51-4.62l-9.38,6.09a2.39,2.39,0,0,1-1.54.55c-1.19-.16-1.4-1.82-1.06-3s.87-2.51.13-3.45A16.29,16.29,0,0,1,367.25,280c3.23-1.75,6.81-3.95,7.48-7.56Z"/><path class="cls-6" d="M467.25,274.56a38.19,38.19,0,0,1-8.33,10.39,17.09,17.09,0,0,0,9.7-1.62,8.55,8.55,0,0,0,3.84,6.52l2-7.54a19.18,19.18,0,0,0,8.39,5.92,18.1,18.1,0,0,1-1.86-5.56,13.53,13.53,0,0,0,10.81,4,9.71,9.71,0,0,1-4.64-4.7c3.11,0,12.06,1.39,13.36,2.13-.08-1,.16-3.21.08-4.17,5.66,1.67,10.54,2.26,16.19,3.93.2-1.82.56-8.77.56-8.77Z"/><path class="cls-6" d="M608.18,273c.79,1.51,1,9.33.93,11.61l-2.54-2.22a3.59,3.59,0,0,1-.77,1.82l-1.65-1.52a20.74,20.74,0,0,0-1.31,4.09,6.72,6.72,0,0,1-1.29-4.16c-2.8-.13-5.42.15-8-.66a33.62,33.62,0,0,0-.94,4.83,16.53,16.53,0,0,1-1.87-4,4.71,4.71,0,0,0-3.32,2.61,5.68,5.68,0,0,1-1.53-2.52,29.4,29.4,0,0,0-3.36,6,49.64,49.64,0,0,1-2.43-7c-1.45,1.46-3.28,2.85-4.4,3.81.2-.44-1.33-2.92-1.74-3.17s-5.46,2.39-6.22,4c-.74-.59-.91-4.32-.68-5.23a26.13,26.13,0,0,0-5,9.55,10.64,10.64,0,0,1-1-7,9.15,9.15,0,0,0-3,3.35,22.58,22.58,0,0,0-2-3.76c-.31,0-2.47,4.51-2.71,4.4a20.61,20.61,0,0,1-.83-4.94,35.26,35.26,0,0,1-5.12,4.81l.88-6.16-4.78,2.75c1.95-2.54,6.4-10.45,8-12Z"/><path class="cls-4" d="M420.11,271.09c-2.61,2.12-5.21,9.23-7.82,11.35a2,2,0,0,1-1.66.64c-1-.27-.93-1.65-1.35-2.57-.75-1.66-3-1.77-4.84-1.61l-11.77,1a8.05,8.05,0,0,0-.51-4.62l-9.38,6.09a2.39,2.39,0,0,1-1.54.55c-1.19-.16-1.4-1.82-1.06-3s.87-2.51.13-3.45A16.29,16.29,0,0,1,367.25,278c3.23-1.75,6.81-3.95,7.48-7.56Z"/><path class="cls-4" d="M467.25,272.56a38.19,38.19,0,0,1-8.33,10.39,17.09,17.09,0,0,0,9.7-1.62,8.55,8.55,0,0,0,3.84,6.52l2-7.54a19.18,19.18,0,0,0,8.39,5.92,18.1,18.1,0,0,1-1.86-5.56,13.53,13.53,0,0,0,10.81,4,9.71,9.71,0,0,1-4.64-4.7c3.11,0,12.06,1.39,13.36,2.13-.08-1,.16-3.21.08-4.17,5.66,1.67,10.54,2.26,16.19,3.93.2-1.82.56-8.77.56-8.77Z"/><path class="cls-4" d="M340.27,260.74c.86-2.87,2.16-7.25,3.07-11,.09-.38-4-.38-3.82-.71,1.16-2.06,4.44-5.13,4.87-5.88,1.35-2.34-.46-4.89,1.41-6.08-1.41-.77-3.15.2-4.24,1.37s-2,2.63-3.55,3.17a31.68,31.68,0,0,1,5.64-10.11s-1.68-3.71-2.68-3.88,8.5,1.83,8.5,1.83l1.33,26.83S343,259.51,340.27,260.74Z"/><path class="cls-4" d="M608.18,271c.79,1.51,1,9.33.93,11.61l-2.54-2.22a3.59,3.59,0,0,1-.77,1.82l-1.65-1.52a20.74,20.74,0,0,0-1.31,4.09,6.72,6.72,0,0,1-1.29-4.16c-2.8-.13-5.42.15-8-.66a33.62,33.62,0,0,0-.94,4.83,16.53,16.53,0,0,1-1.87-4,4.71,4.71,0,0,0-3.32,2.61,5.68,5.68,0,0,1-1.53-2.52,29.4,29.4,0,0,0-3.36,6,49.64,49.64,0,0,1-2.43-7c-1.45,1.46-3.28,2.85-4.4,3.81.2-.44-1.33-2.92-1.74-3.17s-5.46,2.39-6.22,4c-.74-.59-.91-4.32-.68-5.23a26.13,26.13,0,0,0-5,9.55,10.64,10.64,0,0,1-1-7,9.15,9.15,0,0,0-3,3.35,22.58,22.58,0,0,0-2-3.76c-.31,0-2.47,4.51-2.71,4.4a20.61,20.61,0,0,1-.83-4.94,35.26,35.26,0,0,1-5.12,4.81l.88-6.16-4.78,2.75c1.95-2.54,6.4-10.45,8-12Z"/><path class="cls-6" d="M346.77,538.6c-1.16,4-5.87,8.55-9.28,9.29l3.51.31a16.88,16.88,0,0,1-3.4,7.15l2.82-1.16a13.38,13.38,0,0,1-2.69,8.32,18.52,18.52,0,0,0,7.32-3.68A40.25,40.25,0,0,1,339.24,573l4.89-1.83a44.51,44.51,0,0,1-5.48,8.05l1.66,1.53a8.57,8.57,0,0,0-1.93,2.75,7.84,7.84,0,0,0,5.13.28,39.11,39.11,0,0,0-5.32,9.48l6,.14a23.1,23.1,0,0,0-7.23,6.88,51.77,51.77,0,0,0,12.74.76Z"/><path class="cls-6" d="M449.2,355c-1.25,1.44-5.93,6.78-7.32,7.75-1.86,1.29-10.2,1.25-18.67,1.92l-7.68-6.84-2.15,3.86L409.65,354a33.24,33.24,0,0,0-5.88,8.56,12.69,12.69,0,0,1-2.08-5.42,14.13,14.13,0,0,0-6.77,9.13l-6.83-7.4c1,2-1.78,4.24-4,3.67s-3.6-2.64-4.8-4.57a11.78,11.78,0,0,1-2.2,5c-1.22,1.36-3.38,2.07-4.92,1.09-1.75-1.11-2.77-4.1-4.73-3.44-.8.27-1.25,1.1-2,1.56-2.86,1.85-6.3-3.47-9.45-2.19l6.71,7.64a17.1,17.1,0,0,1-10.92-6l2.18,6.29,174.5.5,8.6,7.16a57.68,57.68,0,0,0,20.51-11.35,28.9,28.9,0,0,0-11.75.45l7.87-3.27a120,120,0,0,0-18.6,1.22l3.22-2.57-18.6,4.11,2.71-3.34a34.53,34.53,0,0,0-11,4.42l-1.23-6.43-6.07,6.74a19.18,19.18,0,0,0-16-2.2,9.43,9.43,0,0,1,5.63-5,35.16,35.16,0,0,0-13.91,3.08c.27.53.94-2.66.41-2.4-2.67,1.27-6.72,4.41-9.21,6L465,360.84a8.66,8.66,0,0,0-2.44,3.8c-1.66-1.52-3-7.92-3.68-10.07-1.76,2.2-.37,8.69-3.19,8.69C455.51,363.26,449.2,355,449.2,355Z"/><path class="cls-6" d="M333.9,445.35c1.44,1.25,6.8,5.91,7.77,7.29,1.3,1.85,1.28,10.2,2,18.67l-6.81,7.7,3.86,2.14-7.63,3.75a33.24,33.24,0,0,0,8.58,5.85,12.69,12.69,0,0,1-5.42,2.1,14.13,14.13,0,0,0,9.15,6.75L338,506.45c2-1,4.25,1.77,3.68,4s-2.63,3.6-4.55,4.81a11.78,11.78,0,0,1,5,2.19c1.37,1.22,2.08,3.37,1.11,4.92-1.1,1.75-4.09,2.79-3.42,4.74.27.79,1.11,1.25,1.57,1.95,1.86,2.85-3.46,6.31-2.17,9.46l7.62-6.73a17.1,17.1,0,0,1-5.92,10.94l6.29-2.2V375.06s-6.45-2.11-7.57-3A34.53,34.53,0,0,0,344,383l-6.43,1.25,6.76,6.06a19.18,19.18,0,0,0-2.16,16,9.43,9.43,0,0,1-5-5.62,35.16,35.16,0,0,0,3.12,13.9c.53-.27-2.66-.94-2.4-.4,1.28,2.67,4.43,6.71,6,9.19l-4.23,6.13a8.66,8.66,0,0,0,3.8,2.43c-1.51,1.67-7.91,3-10.05,3.7,2.21,1.75,8.69.35,8.7,3.16C342.19,439,333.9,445.35,333.9,445.35Z"/><path class="cls-4" d="M347.77,539.6c-1.16,4-5.87,8.55-9.28,9.29l3.51.31a16.88,16.88,0,0,1-3.4,7.15l2.82-1.16a13.38,13.38,0,0,1-2.69,8.32,18.52,18.52,0,0,0,7.32-3.68A40.25,40.25,0,0,1,340.24,574l4.89-1.83a44.51,44.51,0,0,1-5.48,8.05l1.66,1.53a8.57,8.57,0,0,0-1.93,2.75,7.84,7.84,0,0,0,5.13.28,39.11,39.11,0,0,0-5.32,9.48l6,.14a23.1,23.1,0,0,0-7.23,6.88,51.77,51.77,0,0,0,12.74.76Z"/><path class="cls-6" d="M249,390.18c1.61-1,10-1.41,12.49-1.35l-2.35,3.29a3.57,3.57,0,0,1,2,1l-1.61,2.14a19.84,19.84,0,0,0,4.42,1.63,6.46,6.46,0,0,1-4.46,1.71c-.09,3.61.25,7-.58,10.29a31,31,0,0,0,5.22,1.15,16.69,16.69,0,0,1-4.24,2.46,6,6,0,0,0,2.86,4.24,6,6,0,0,1-2.69,2,30.68,30.68,0,0,0,6.52,4.25,47.91,47.91,0,0,1-7.48,3.23c1.6,1.85,3.12,4.18,4.17,5.62-.47-.25-3.13,1.75-3.39,2.28s2.67,7,4.37,8c-.62,1-4.64,1.23-5.62.95A27,27,0,0,0,269,449.34a9.84,9.84,0,0,1-7.54,1.44,10.72,10.72,0,0,0,3.66,3.83,23.24,23.24,0,0,0-4,2.59c0,.39,4.9,3.12,4.78,3.43s-4.38,1.19-5.3,1.13a43.24,43.24,0,0,1,5.26,6.53l-6.65-1.06,3,6.12c-2.77-2.47-11.36-8.09-13.1-10.1C249.11,462.71,249,390.18,249,390.18Z"/><path class="cls-6" d="M250.49,544.38c2.1,2.4,9.19,4.83,11.29,7.23.39.44.8,1,.63,1.52-.28.89-1.66.83-2.58,1.21-1.67.67-1.79,2.75-1.65,4.4l.88,10.74a8.77,8.77,0,0,0-4.63.42l6,8.6a2.06,2.06,0,0,1,.53,1.41c-.17,1.08-1.84,1.26-3,.94s-2.5-.81-3.45-.14A13.81,13.81,0,0,1,257,592.64c-1.72-3-3.9-6.24-7.5-6.89Z"/><path class="cls-6" d="M252,526.07a37.79,37.79,0,0,1,10.32,7.69,14.39,14.39,0,0,0-1.55-8.86,8.73,8.73,0,0,0,6.55-3.44l-7.53-1.88a17.6,17.6,0,0,0,6-7.6,19.33,19.33,0,0,1-5.57,1.65,11.75,11.75,0,0,0,4.12-9.82,9.34,9.34,0,0,1-4.73,4.19c0-2.84,1.48-11,2.24-12.16-1,.06-3.21-.17-4.17-.11,1.72-5.15,2.34-9.59,4.06-14.73-1.82-.2-8.76-.58-8.76-.58Z"/><path class="cls-4" d="M450.2,356c-1.25,1.44-5.93,6.78-7.32,7.75-1.86,1.29-10.2,1.25-18.67,1.92l-7.68-6.84-2.15,3.86L410.65,355a33.24,33.24,0,0,0-5.88,8.56,12.69,12.69,0,0,1-2.08-5.42,14.13,14.13,0,0,0-6.77,9.13l-6.83-7.4c1,2-1.78,4.24-4,3.67s-3.6-2.64-4.8-4.57a11.78,11.78,0,0,1-2.2,5c-1.22,1.36-3.38,2.07-4.92,1.09-1.75-1.11-2.77-4.1-4.73-3.44-.8.27-1.25,1.1-2,1.56-2.86,1.85-6.3-3.47-9.45-2.19l6.71,7.64a17.1,17.1,0,0,1-10.92-6l2.18,6.29,174.5.5,8.6,7.16a57.68,57.68,0,0,0,20.51-11.35,28.9,28.9,0,0,0-11.75.45l7.87-3.27a120,120,0,0,0-18.6,1.22l3.22-2.57-18.6,4.11,2.71-3.34a34.53,34.53,0,0,0-11,4.42l-1.23-6.43-6.07,6.74a19.18,19.18,0,0,0-16-2.2,9.43,9.43,0,0,1,5.63-5,35.16,35.16,0,0,0-13.91,3.08c.27.53.94-2.66.41-2.4-2.67,1.27-6.72,4.41-9.21,6L466,361.84a8.66,8.66,0,0,0-2.44,3.8c-1.66-1.52-3-7.92-3.68-10.07-1.76,2.2-.37,8.69-3.19,8.69C456.51,364.26,450.2,356,450.2,356Z"/><path class="cls-4" d="M248,388.18c1.61-1,10-1.41,12.49-1.35l-2.35,3.29a3.57,3.57,0,0,1,2,1l-1.61,2.14a19.84,19.84,0,0,0,4.42,1.63,6.46,6.46,0,0,1-4.46,1.71c-.09,3.61.25,7-.58,10.29a31,31,0,0,0,5.22,1.15,16.69,16.69,0,0,1-4.24,2.46,6,6,0,0,0,2.86,4.24,6,6,0,0,1-2.69,2,30.68,30.68,0,0,0,6.52,4.25,47.91,47.91,0,0,1-7.48,3.23c1.6,1.85,3.12,4.18,4.17,5.62-.47-.25-3.13,1.75-3.39,2.28s2.67,7,4.37,8c-.62,1-4.64,1.23-5.62.95A27,27,0,0,0,268,447.34a9.84,9.84,0,0,1-7.54,1.44,10.72,10.72,0,0,0,3.66,3.83,23.24,23.24,0,0,0-4,2.59c0,.39,4.9,3.12,4.78,3.43s-4.38,1.19-5.3,1.13a43.24,43.24,0,0,1,5.26,6.53l-6.65-1.06,3,6.12c-2.77-2.47-11.36-8.09-13.1-10.1C248.11,460.71,248,388.18,248,388.18Z"/><path class="cls-4" d="M334.9,446.35c1.44,1.25,6.8,5.91,7.77,7.29,1.3,1.85,1.28,10.2,2,18.67l-6.81,7.7,3.86,2.14-7.63,3.75a33.24,33.24,0,0,0,8.58,5.85,12.69,12.69,0,0,1-5.42,2.1,14.13,14.13,0,0,0,9.15,6.75L339,507.45c2-1,4.25,1.77,3.68,4s-2.63,3.6-4.55,4.81a11.78,11.78,0,0,1,5,2.19c1.37,1.22,2.08,3.37,1.11,4.92-1.1,1.75-4.09,2.79-3.42,4.74.27.79,1.11,1.25,1.57,1.95,1.86,2.85-3.46,6.31-2.17,9.46l7.62-6.73a17.1,17.1,0,0,1-5.92,10.94l6.29-2.2V376.06s-6.45-2.11-7.57-3A34.53,34.53,0,0,0,345,384l-6.43,1.25,6.76,6.06a19.18,19.18,0,0,0-2.16,16,9.43,9.43,0,0,1-5-5.62,35.16,35.16,0,0,0,3.12,13.9c.53-.27-2.66-.94-2.4-.4,1.28,2.67,4.43,6.71,6,9.19l-4.23,6.13a8.66,8.66,0,0,0,3.8,2.43c-1.51,1.67-7.91,3-10.05,3.7,2.21,1.75,8.69.35,8.7,3.16C343.19,440,334.9,446.35,334.9,446.35Z"/><path class="cls-6" d="M.25,361.64c4.1-3.87,7.28-6.57,9.34-11.58.23,2.07.72,4.15-.36,6-.82,1.44-.91,4.16.58,4.13.49,0,3.62-2.92,4.78-4a7.52,7.52,0,0,0,2,6.76,4.37,4.37,0,0,1,4.8-4.09c2.21.37,4,2.54,4.65,5,.59-1.49,2.12-5.28,2.48-5.37s3.84,3.32,5.29,4.74l.56-4.25,4.95,4a2.53,2.53,0,0,1,2.06-2.9,7.21,7.21,0,0,1,3.57.84c4.8,1.85,35.14-1.35,38.44,1a19.87,19.87,0,0,1-.42-8.6,14.39,14.39,0,0,1,6.38,7.94l4-7.3a13.94,13.94,0,0,0,3.46,7.81A16.33,16.33,0,0,1,99.43,356a8.78,8.78,0,0,1,.42,3.89,10.76,10.76,0,0,0,7.1-4.65,11.21,11.21,0,0,1,0,5.73,18.32,18.32,0,0,0,5.34-3.45l-.16,3.47a9.87,9.87,0,0,1,4.82-1.81,3.84,3.84,0,0,1,3.79,3.22,17.94,17.94,0,0,0,4.21-7c0,2.86.43,6.46,2.79,7.28.91.32,15.11,1.64,21.22.84a19.32,19.32,0,0,0,13.38-8.87,28.15,28.15,0,0,0,2.38,8.37c1.89.38,3.22-3.3,5-2.56.59.24,1,.9,1.43,1.39,2.09,2.17,5.48.38,7.34-2.05s3.34-5.59,6-6.69l0,8.91s-.19,6.74-.41,6.82S-.66,368-.66,368Z"/><path class="cls-6" d="M203.18,367.73c1.5-4.08,2.92-8,6.46-11.22a3,3,0,0,0,.72,3.21c.82.83,3.84.77,4.14.42,1.54-1.84,2.17-2.61,3.81-4.55-.71,1.64-.06,3.59.91,5.39.13.24,1.39.57,1.7.13a15.91,15.91,0,0,0,1.91-3.58l7.72,6.76a17.84,17.84,0,0,1,4.68-8.78c.08,2.61,10.38,12.49,10.26,12.49Z"/><path class="cls-6" d="M242.65,368.47c1.79-2.72,4.79-10.21,7.49-12a25.22,25.22,0,0,0-1.27,7.27l5.64-2.18c.53.07.44.87.13,1.31s.24,1.59.52,1.56c1.82-.25,3.57-.9,5.4-1.09a5.64,5.64,0,0,1,5,1.64,39.56,39.56,0,0,0-8.73,2.11c-.88.32-1.95,1.09-1.57,2a19.81,19.81,0,0,1,11.34,1.88,18.61,18.61,0,0,0-11.73,4.1l7.29,5.12c-3.19-1.53-10.59-2.26-14.06-1.59l.47-6Z"/><path class="cls-4" d="M-.41,363.64c4.11-3.87,7.31-6.57,9.38-11.58.24,2.07.72,4.15-.36,6-.83,1.44-.92,4.16.58,4.13.49,0,3.63-2.92,4.8-4a7.5,7.5,0,0,0,2,6.76,4.38,4.38,0,0,1,4.81-4.09c2.21.37,4,2.54,4.67,5,.59-1.49,2.13-5.28,2.49-5.37s3.86,3.32,5.31,4.74l.56-4.25,5,4a2.53,2.53,0,0,1,2.07-2.9,7.26,7.26,0,0,1,3.58.84c4.82,1.85,35.27-1.35,38.58,1a19.8,19.8,0,0,1-.42-8.6A14.4,14.4,0,0,1,89,363.38l4.05-7.3a13.91,13.91,0,0,0,3.47,7.81A16.3,16.3,0,0,1,99.12,358a8.75,8.75,0,0,1,.42,3.89,10.81,10.81,0,0,0,7.12-4.65,11.17,11.17,0,0,1,0,5.73A18.39,18.39,0,0,0,112,359.5l-.16,3.47a9.92,9.92,0,0,1,4.84-1.81,3.85,3.85,0,0,1,3.8,3.22,17.93,17.93,0,0,0,4.23-7c0,2.86.44,6.46,2.8,7.28.91.32,15.16,1.64,21.3.84a19.39,19.39,0,0,0,13.43-8.87,28.07,28.07,0,0,0,2.39,8.37c1.89.38,3.23-3.3,5-2.56.59.24,1,.9,1.43,1.39,2.1,2.17,5.5.38,7.37-2.05s3.35-5.59,6-6.69c0,3,4.49,11.64,4.5,14.61,0,0-4.67,1-4.88,1.12S.68,371.72.68,371.72Z"/><path class="cls-4" d="M249.49,542.38c2.1,2.4,9.19,4.83,11.29,7.23.39.44.8,1,.63,1.52-.28.89-1.66.83-2.58,1.21-1.67.67-1.79,2.75-1.65,4.4l.88,10.74a8.77,8.77,0,0,0-4.63.42l6,8.6a2.06,2.06,0,0,1,.53,1.41c-.17,1.08-1.84,1.26-3,.94s-2.5-.81-3.45-.14A13.81,13.81,0,0,1,256,590.64c-1.72-3-3.9-6.24-7.5-6.89Z"/><path class="cls-4" d="M251,524.07a37.79,37.79,0,0,1,10.32,7.69,14.39,14.39,0,0,0-1.55-8.86,8.73,8.73,0,0,0,6.55-3.44l-7.53-1.88a17.6,17.6,0,0,0,6-7.6,19.33,19.33,0,0,1-5.57,1.65,11.75,11.75,0,0,0,4.12-9.82,9.34,9.34,0,0,1-4.73,4.19c0-2.84,1.48-11,2.24-12.16-1,.06-3.21-.17-4.17-.11,1.72-5.15,2.34-9.59,4.06-14.73-1.82-.2-8.76-.58-8.76-.58Z"/><path class="cls-4" d="M202.68,369.73c1.51-4.08,3-8,6.53-11.22a3,3,0,0,0,.73,3.21c.83.83,3.89.77,4.18.42,1.55-1.84,2.2-2.61,3.86-4.55-.72,1.64-.06,3.59.93,5.39.13.24,1.41.57,1.72.13a15.85,15.85,0,0,0,1.93-3.58l7.81,6.76a17.77,17.77,0,0,1,4.73-8.78c.08,2.61,10.51,12.49,10.38,12.49Z"/><path class="cls-4" d="M242.65,370.47c1.79-2.72,4.79-10.21,7.49-12a25.22,25.22,0,0,0-1.27,7.27l5.64-2.18c.53.07.44.87.13,1.31s.24,1.59.52,1.56c1.82-.25,3.57-.9,5.4-1.09a5.64,5.64,0,0,1,5,1.64,39.56,39.56,0,0,0-8.73,2.11c-.88.32-1.95,1.09-1.57,2a19.81,19.81,0,0,1,11.34,1.88,18.61,18.61,0,0,0-11.73,4.1l7.29,5.12c-3.19-1.53-10.59-2.26-14.06-1.59l-4.78-3.64Z"/><rect class="cls-4" x="344.36" y="366.6" width="266.49" height="243.12" rx="6.83" ry="6.83"/><rect class="cls-4" x="-0.66" y="367.6" width="254.86" height="243.12" rx="7.62" ry="7.62"/><path class="cls-7" d="M490.42,324.12l1,4.18-3.56,1.39-5.06-.46a13.46,13.46,0,0,0-2.93.31c-1,.31-3.56.7-3.56.7l.16-2.71,4.93-2.14,1.95.9Z"/><path class="cls-8" d="M469.15,324.36c.4.08,7.67,3.4,7.43,3.48s-.24,2.4-.24,2.4l-2.53.08L469,325.9Z"/><path class="cls-9" d="M469.38,324.61s2.77-2.76,3.08-2.92,5.06-2,5.06-2l7.51.63,5.62,4-6.72,2.29-2.45-1.34s-4.59,2.53-4.75,2.53S469,324.69,469.38,324.61Z"/><polygon class="cls-8" points="503.82 328.66 504.2 331.88 507.33 331.8 511.5 332.68 510.65 329.79 507.8 328.5 503.82 328.66"/><path class="cls-7" d="M498.79,324.89a16.55,16.55,0,0,1-.19,3.21l5.6,3.78-.38-3.21Z"/><polygon class="cls-8" points="481.43 325.43 481.55 329.14 487.4 329.78 491.45 328.3 490.42 324.12 483.86 326.43 481.43 325.43"/><path class="cls-10" d="M469.26,324.12s2.77-2.71,3.08-2.86,5.06-1.93,5.06-1.93l7.51.62,5.62,3.94-6.72,2.24-2.45-1.31s-4.59,2.48-4.75,2.48S468.86,324.2,469.26,324.12Z"/><path class="cls-7" d="M296.45,495.88l-4.75,4.51.36,2.63a27.51,27.51,0,0,0,1.88,2c.2.08,9.22.88,9.22.88l2.63-1.52a33.82,33.82,0,0,1,1.6-3.19c.28-.28-3.11-4.07-3.23-4.11s-3.75-1.92-4.35-1.88A22.91,22.91,0,0,1,296.45,495.88Z"/><path class="cls-8" d="M308.23,493.45s-2.12.8-2.24.88-1.84,2.79-1.84,2.79l2.91,4.51,1.32.24a33.68,33.68,0,0,0,3.51-1.24c0-.16,1-3.19,1.08-3.31s-1-2.44-1-2.44Z"/><path class="cls-9" d="M296.77,496s-.2,0-.24,1.08.52,1,.08,1.92.52,2.16.52,2.16l3,1.12a13.78,13.78,0,0,1,4.55-1.16c1.72.08,2.79.2,2.71.16s-3.19-4-3.23-4.11a25.31,25.31,0,0,0-4.35-1.88A18,18,0,0,0,296.77,496Z"/><path class="cls-9" d="M304.52,496.88a2.36,2.36,0,0,1,2.2.4c1.08.88,2.12,1.28,2.79.76a12.8,12.8,0,0,0,1.76-2.08l-.56,2.32.84.76,1.56-1.88L312,494.89l-3.79-1.44-2.24.88Z"/><path class="cls-7" d="M298.42,489.36l1,4.18-3.56,1.39-5.06-.46a13.46,13.46,0,0,0-2.93.31c-1,.31-3.56.7-3.56.7l.16-2.71,4.93-2.14,1.95.9Z"/><path class="cls-8" d="M277.14,489.6c.4.08,7.67,3.4,7.43,3.48s-.24,2.4-.24,2.4l-2.53.08L277,491.14Z"/><path class="cls-9" d="M277.37,489.86s2.77-2.76,3.08-2.92,5.06-2,5.06-2l7.51.63,5.62,4-6.72,2.29-2.45-1.34s-4.59,2.53-4.75,2.53S277,489.93,277.37,489.86Z"/><polygon class="cls-8" points="289.43 490.67 289.55 494.38 295.4 495.02 299.45 493.54 298.42 489.36 291.86 491.67 289.43 490.67"/><path class="cls-7" d="M300.13,502.23l.39,3.38,2.65.33,2.63-1.52,1.6-3.19s-2.83-.63-4.11-.09S300.13,502.23,300.13,502.23Z"/><path class="cls-8" d="M296.57,499.65,292.06,503a11.88,11.88,0,0,1-.36-2.63c.19-.11,4.75-4.51,4.75-4.51a1.82,1.82,0,0,0-.09,1.64C296.79,498.27,295.93,499.22,296.57,499.65Z"/><path class="cls-7" d="M309,498.37c0,.32-.64,3.5-.64,3.5l3.51-1.24,1.2-3.47L311.54,499l-.84-.76.56-2.32Z"/><path class="cls-10" d="M277.26,489.37s2.77-2.71,3.08-2.86,5.06-1.93,5.06-1.93l7.51.62,5.62,3.94-6.72,2.24-2.45-1.31s-4.59,2.48-4.75,2.48S276.86,489.44,277.26,489.37Z"/><path class="cls-10" d="M296.77,496s-.2,0-.24,1.08.52,1,.08,1.92.52,2.16.52,2.16l3,1.12a13.78,13.78,0,0,1,4.55-1.16c1.72.08,2.79.2,2.71.16s-3.19-4-3.23-4.11a25.31,25.31,0,0,0-4.35-1.88A18,18,0,0,0,296.77,496Z"/><path class="cls-10" d="M304.52,496.88a2.36,2.36,0,0,1,2.2.4c1.08.88,2.12,1.28,2.79.76a12.8,12.8,0,0,0,1.76-2.08l-.56,2.32.84.76,1.56-1.88L312,494.89l-3.79-1.44-2.24.88Z"/><path class="cls-7" d="M187.82,302.1,183,306.52l.37,2.58a27.41,27.41,0,0,0,1.92,2c.2.08,9.43.86,9.43.86l2.69-1.48a32.52,32.52,0,0,1,1.63-3.12c.29-.27-3.18-4-3.31-4s-3.84-1.87-4.45-1.84A24.39,24.39,0,0,1,187.82,302.1Z"/><path class="cls-8" d="M199.87,299.72s-2.16.78-2.29.86-1.88,2.73-1.88,2.73l3,4.41L200,308a35.52,35.52,0,0,0,3.59-1.21c0-.16,1.06-3.12,1.1-3.24s-1-2.38-1-2.38Z"/><path class="cls-9" d="M188.15,302.18s-.2,0-.24,1.05.53,1,.08,1.87.53,2.11.53,2.11l3.06,1.09a14.6,14.6,0,0,1,4.65-1.13c1.76.08,2.86.2,2.78.16s-3.27-3.9-3.31-4a26.52,26.52,0,0,0-4.45-1.84A19.12,19.12,0,0,0,188.15,302.18Z"/><path class="cls-9" d="M196.27,302.88a2.36,2.36,0,0,1,2.2.4c1.08.88,2.12,1.28,2.79.76A12.8,12.8,0,0,0,203,302l-.56,2.32.84.76,1.56-1.88-1.08-2.28L200,299.45l-2.24.88Z"/><path class="cls-7" d="M191.58,308.31l.39,3.31,2.71.33,2.69-1.48,1.63-3.12s-2.9-.61-4.21-.09S191.58,308.31,191.58,308.31Z"/><path class="cls-8" d="M187.95,305.79l-4.61,3.31a11.14,11.14,0,0,1-.37-2.58c.19-.1,4.86-4.41,4.86-4.41a1.71,1.71,0,0,0-.1,1.6C188.17,304.43,187.29,305.37,187.95,305.79Z"/><path class="cls-7" d="M200.78,304.37c0,.32-.64,3.5-.64,3.5l3.51-1.24,1.2-3.47L203.29,305l-.84-.76L203,302Z"/><path class="cls-10" d="M188,301.62s-.2,0-.24,1.05.53,1,.08,1.87.53,2.11.53,2.11l3.06,1.09a14.6,14.6,0,0,1,4.65-1.13c1.76.08,2.86.2,2.78.16s-3.27-3.9-3.31-4a26.52,26.52,0,0,0-4.45-1.84A19.12,19.12,0,0,0,188,301.62Z"/><path class="cls-10" d="M196.52,302.57a2.36,2.36,0,0,1,2.2.4c1.08.88,2.12,1.28,2.79.76a12.8,12.8,0,0,0,1.76-2.08L202.7,304l.84.76,1.56-1.88L204,300.57l-3.79-1.44L198,300Z"/><path class="cls-8" d="M208.35,307s-1.66.63-1.75.69-1.44,2.19-1.44,2.19l2.29,3.54,1,.19a26.44,26.44,0,0,0,2.76-1c0-.13.81-2.51.85-2.6s-.75-1.91-.75-1.91Z"/><path class="cls-9" d="M205.44,309.71a1.85,1.85,0,0,1,1.72.31c.85.69,1.66,1,2.19.6a10.05,10.05,0,0,0,1.38-1.63l-.44,1.82.66.6,1.22-1.47-.85-1.79-3-1.13-1.75.69Z"/><path class="cls-7" d="M209,310.88c0,.25-.5,2.75-.5,2.75l2.76-1,.94-2.73L211,311.4l-.66-.6.44-1.82Z"/><path class="cls-10" d="M205.25,309.33a1.85,1.85,0,0,1,1.72.31c.85.69,1.66,1,2.19.6a10.05,10.05,0,0,0,1.38-1.63l-.44,1.82.66.6,1.22-1.47-.85-1.79-3-1.13-1.75.69Z"/><path class="cls-9" d="M268.19,500.6s4,3.35,4,3.16a17.38,17.38,0,0,1,3.19-.13l2.28,1,2.43-1.22,10.19-1.48s-2.74-3.09-3-3-9.43-1.8-9.43-1.8a32.17,32.17,0,0,0-3.19,1.48,7.21,7.21,0,0,1,1.52.71Z"/><polygon class="cls-7" points="290.23 501.95 289.85 505.43 278.3 506.97 277.61 504.65 280.05 503.43 290.23 501.95"/><polygon class="cls-8" points="272.31 503.64 272.62 506.22 275.13 506.16 278.47 506.87 277.79 504.55 275.5 503.52 272.31 503.64"/><path class="cls-7" d="M268.28,500.62a13.27,13.27,0,0,1-.15,2.58l4.48,3-.3-2.58Z"/><path class="cls-10" d="M268.61,500.46s4,3.35,4,3.16,3.23-.47,3.23-.47l2.13,1,2.08-1.34,10.19-1.48s-2.74-3.09-3-3-9.43-1.8-9.43-1.8a32.17,32.17,0,0,0-3.19,1.48,7.21,7.21,0,0,1,1.52.71Z"/><path class="cls-7" d="M310.43,92l4.86,4.41L314.92,99a27.41,27.41,0,0,1-1.92,2c-.2.08-9.43.86-9.43.86l-2.69-1.48a32.52,32.52,0,0,0-1.63-3.12c-.29-.27,3.18-4,3.31-4s3.84-1.87,4.45-1.84A24.39,24.39,0,0,0,310.43,92Z"/><path class="cls-9" d="M310.11,92.09s.2,0,.24,1.05-.53,1-.08,1.87-.53,2.11-.53,2.11l-3.06,1.09A14.6,14.6,0,0,0,302,97.09c-1.76.08-2.86.2-2.78.16s3.27-3.9,3.31-4A26.52,26.52,0,0,1,307,91.39,19.12,19.12,0,0,1,310.11,92.09Z"/><path class="cls-7" d="M306.68,98.22l-.39,3.31-2.71.33-2.69-1.48-1.63-3.12s2.9-.61,4.21-.09S306.68,98.22,306.68,98.22Z"/><path class="cls-8" d="M310.31,95.7,314.92,99a11.14,11.14,0,0,0,.37-2.58c-.19-.1-4.86-4.41-4.86-4.41a1.71,1.71,0,0,1,.1,1.6C310.09,94.34,311,95.28,310.31,95.7Z"/><path class="cls-10" d="M310.11,92.09s.2,0,.24,1.05-.53,1-.08,1.87-.53,2.11-.53,2.11l-3.06,1.09A14.6,14.6,0,0,0,302,97.09c-1.76.08-2.86.2-2.78.16s3.27-3.9,3.31-4A26.52,26.52,0,0,1,307,91.39,19.12,19.12,0,0,1,310.11,92.09Z"/><path class="cls-9" d="M287.89,100.39s2.58,2.14,2.53,2a11.11,11.11,0,0,1,2-.08l1.46.66,1.56-.78,6.51-.95A15.1,15.1,0,0,0,300,99.32c-.19,0-6-1.15-6-1.15a20.58,20.58,0,0,0-2,.95,4.61,4.61,0,0,1,1,.45Z"/><polygon class="cls-7" points="301.99 101.26 301.74 103.48 294.36 104.47 293.92 102.99 295.47 102.21 301.99 101.26"/><polygon class="cls-8" points="290.53 102.34 290.72 103.99 292.33 103.95 294.46 104.41 294.03 102.92 292.57 102.26 290.53 102.34"/><path class="cls-7" d="M288,100.41a8.48,8.48,0,0,1-.1,1.65l2.87,1.94-.19-1.65Z"/><path class="cls-10" d="M288.16,100.31s2.58,2.14,2.53,2a11.23,11.23,0,0,1,2.06-.3l1.36.67,1.33-.85,6.51-.95A15.1,15.1,0,0,0,300,99c-.19,0-6-1.15-6-1.15a20.58,20.58,0,0,0-2,.95,4.61,4.61,0,0,1,1,.45Z"/><path class="cls-9" d="M295.89,104.39s2.58,2.14,2.53,2a11.11,11.11,0,0,1,2-.08l1.46.66,1.56-.78,6.51-.95a15.1,15.1,0,0,0-1.94-1.94c-.19,0-6-1.15-6-1.15a20.58,20.58,0,0,0-2,.95,4.61,4.61,0,0,1,1,.45Z"/><polygon class="cls-7" points="309.99 105.26 309.74 107.48 302.36 108.47 301.92 106.99 303.47 106.21 309.99 105.26"/><polygon class="cls-8" points="298.53 106.34 298.72 107.99 300.33 107.95 302.46 108.41 302.03 106.92 300.57 106.26 298.53 106.34"/><path class="cls-7" d="M296,104.41a8.48,8.48,0,0,1-.1,1.65l2.87,1.94-.19-1.65Z"/><path class="cls-10" d="M296.16,104.31s2.58,2.14,2.53,2a11.23,11.23,0,0,1,2.06-.3l1.36.67,1.33-.85,6.51-.95A15.1,15.1,0,0,0,308,103c-.19,0-6-1.15-6-1.15a20.58,20.58,0,0,0-2,.95,4.61,4.61,0,0,1,1,.45Z"/><path class="cls-8" d="M490.19,311.34s-1.66.63-1.75.69-1.44,2.19-1.44,2.19l2.29,3.54,1,.19a26.44,26.44,0,0,0,2.76-1c0-.13.81-2.51.85-2.6s-.75-1.91-.75-1.91Z"/><path class="cls-9" d="M487.27,314a1.85,1.85,0,0,1,1.72.31c.85.69,1.66,1,2.19.6a10.05,10.05,0,0,0,1.38-1.63l-.44,1.82.66.6,1.22-1.47-.85-1.79-3-1.13-1.75.69Z"/><path class="cls-7" d="M490.81,315.21c0,.25-.5,2.75-.5,2.75l2.76-1,.94-2.73-1.22,1.47-.66-.6.44-1.82Z"/><path class="cls-10" d="M487.08,313.66a1.85,1.85,0,0,1,1.72.31c.85.69,1.66,1,2.19.6a10.05,10.05,0,0,0,1.38-1.63l-.44,1.82.66.6,1.22-1.47L493,312.1,490,311l-1.75.69Z"/><path class="cls-8" d="M498.14,305.42s3.22,1.22,3.4,1.34,2.8,4.26,2.8,4.26l-4.44,6.87-2,.36a51.3,51.3,0,0,1-5.35-1.88c-.06-.24-1.58-4.86-1.64-5s1.46-3.71,1.46-3.71Z"/><path class="cls-9" d="M503.8,310.65a3.59,3.59,0,0,0-3.34.61c-1.64,1.34-3.22,1.95-4.26,1.16a19.5,19.5,0,0,1-2.67-3.16l.85,3.53-1.28,1.16-2.37-2.86,1.64-3.47,5.78-2.19,3.4,1.34Z"/><path class="cls-7" d="M496.93,312.92c0,.49,1,5.33,1,5.33l-5.35-1.88-1.82-5.29,2.37,2.86,1.28-1.16-.85-3.53Z"/><path class="cls-10" d="M504.16,309.92a3.59,3.59,0,0,0-3.34.61c-1.64,1.34-3.22,1.95-4.26,1.16a19.5,19.5,0,0,1-2.67-3.16l.85,3.53-1.28,1.16-2.37-2.86,1.64-3.47,5.78-2.19,3.4,1.34Z"/><path class="cls-9" d="M498.67,324.86s5,4.18,4.93,3.94,4-.16,4-.16l2.84,1.29,3-1.53,12.71-1.85s-3.41-3.86-3.79-3.78-11.76-2.25-11.76-2.25a40.14,40.14,0,0,0-4,1.85,9,9,0,0,1,1.9.88Z"/><polygon class="cls-7" points="526.18 326.55 525.7 330.88 511.29 332.81 510.43 329.92 513.47 328.39 526.18 326.55"/><path class="cls-10" d="M499.2,324.69s5,4.18,4.93,3.94,4-.58,4-.58l2.66,1.3,2.59-1.67,12.71-1.85s-3.41-3.86-3.79-3.78-11.76-2.25-11.76-2.25a40.14,40.14,0,0,0-4,1.85,9,9,0,0,1,1.9.88Z"/><path class="cls-7" d="M62.42,311.86l1,4.18-3.56,1.39L54.83,317a13.46,13.46,0,0,0-2.93.31c-1,.31-3.56.7-3.56.7l.16-2.71,4.93-2.14,1.95.9Z"/><path class="cls-9" d="M41.37,312.36s2.77-2.76,3.08-2.92,5.06-2,5.06-2l7.51.63,5.62,4-6.72,2.29-2.45-1.34s-4.59,2.53-4.75,2.53S41,312.43,41.37,312.36Z"/><polygon class="cls-8" points="53.43 313.17 53.55 316.88 59.4 317.52 63.45 316.04 62.42 311.86 55.85 314.17 53.43 313.17"/><path class="cls-10" d="M41.26,311.87S44,309.16,44.34,309s5.06-1.93,5.06-1.93l7.51.62,5.62,3.94-6.72,2.24-2.45-1.31S48.77,315,48.61,315,40.86,311.94,41.26,311.87Z"/><path class="cls-8" d="M43.64,307.92s3.22,1.22,3.4,1.34,2.8,4.26,2.8,4.26l-4.44,6.87-2,.36A51.3,51.3,0,0,1,38,318.87c-.06-.24-1.58-4.86-1.64-5s1.46-3.71,1.46-3.71Z"/><path class="cls-9" d="M49.3,313.15a3.59,3.59,0,0,0-3.34.61c-1.64,1.34-3.22,1.95-4.26,1.16A19.5,19.5,0,0,1,39,311.75l.85,3.53-1.28,1.16-2.37-2.86,1.64-3.47,5.78-2.19,3.4,1.34Z"/><path class="cls-7" d="M42.43,315.42c0,.49,1,5.33,1,5.33L38,318.87l-1.82-5.29,2.37,2.86,1.28-1.16L39,311.75Z"/><path class="cls-10" d="M49.66,312.42a3.59,3.59,0,0,0-3.34.61c-1.64,1.34-3.22,1.95-4.26,1.16A19.5,19.5,0,0,1,39.39,311l.85,3.53L39,315.71l-2.37-2.86,1.64-3.47L44,307.2l3.4,1.34Z"/><path class="cls-4" d="M505.61,426.9c1.6-1.32,3.18-5.74,4.78-7.06a1.23,1.23,0,0,1,1-.4c.61.16.58,1,.85,1.58.47,1,1.88,1.08,3,1l7.27-.66a5,5,0,0,0,.34,2.86l5.77-3.81a1.48,1.48,0,0,1,.95-.34c.74.09.87,1.12.67,1.84s-.52,1.55-.06,2.13a10.07,10.07,0,0,1,8.06-1.65c-2,1.1-4.19,2.48-4.59,4.71Z"/></g></g><g id="forest_1" data-name="forest 1"><g class="cls-11"><g class="cls-12"><rect class="cls-13" x="-736.57" y="-29.97" width="1021.23" height="675.35"/></g></g></g></svg>