<?xml version="1.0" encoding="UTF-8"?>
<svg width="86px" height="77px" viewBox="0 0 86 77" version="1.1" xmlns="http://www.w3.org/2000/svg" xmlns:xlink="http://www.w3.org/1999/xlink">
    <!-- Generator: Sketch 47.1 (45422) - http://www.bohemiancoding.com/sketch -->
    <title>Rock</title>
    <desc>Created with Sketch.</desc>
    <defs>
        <path d="M34.5449219,77.2802734 C47.1630644,77.2802734 58.3049689,74.4112196 71.9238281,71.4462891 C78.3652344,70.0439453 83,47.4328587 83,38 C83,30.0833045 76.219401,25.0800493 62.6582031,22.9902344 C55.1867476,7.66341146 48.1340132,0 41.5,0 C32.6937829,0 17.4701588,4.9479438 10.7529297,9.23144531 C4.0357006,13.5149468 0.424804688,40.754438 0.424804688,53.6777344 C0.424804688,66.6010308 11.6251048,77.2802734 34.5449219,77.2802734 Z" id="path-1"></path>
        <path d="M36.8280475,75 C48.4414481,75 58.696159,72.2527273 71.2305925,69.4136476 C77.1590904,68.0708283 81.4248047,46.4195021 81.4248047,37.3870348 C81.4248047,29.8063749 75.1841229,25.0154902 62.7027592,23.0143805 C55.8262315,8.33812683 49.3350835,1 43.2293153,1 C35.1243087,1 21.1128924,5.73792114 14.9305346,9.83960321 C8.74817665,13.9412853 5.42480469,40.0245567 5.42480469,52.399305 C5.42480469,64.7740533 15.7332611,75 36.8280475,75 Z" id="path-3"></path>
    </defs>
    <g id="Chix-Select" stroke="none" stroke-width="1" fill="none" fill-rule="evenodd">
        <g id="Rock">
            <g id="Group">
                <g id="Group-2">
                    <mask id="mask-2" fill="white">
                        <use xlink:href="#path-1"></use>
                    </mask>
                    <use id="Oval" fill="#6B6B6B" xlink:href="#path-1"></use>
                    <mask id="mask-4" fill="white">
                        <use xlink:href="#path-3"></use>
                    </mask>
                    <use id="Oval" fill="#D8D8D8" xlink:href="#path-3"></use>
                </g>
                <path d="M35.5449219,75.2802734 C48.1630644,75.2802734 65.5634515,74.7849102 73.4438477,70.4868164 C79.1958008,67.3496094 84.4065153,45.3807654 82.6591797,34.2358398 C81.5791016,27.3468424 75.1333008,23.1948242 63.3217773,21.7797852 C58.004069,9.10042318 51.0634766,2.17382812 42.5,1 C33.7928744,-0.19351864 13.0264484,7.22381401 11.1523437,9.24853516 C0.301269531,20.9716797 1.83886719,40.4577771 1.83886719,52.8793945 C1.83886719,65.3010119 12.6251048,75.2802734 35.5449219,75.2802734 Z" id="Oval" stroke="#979797" fill-opacity="0" fill="#D8D8D8"></path>
                <path d="M69.3716189,33 C67.1670291,40.0566406 64.5003624,45.1824544 61.3716189,48.3774414 C56.6785037,53.1699219 48.9302127,56.3967285 45.5891482,55.4140625 C42.2480837,54.4313965 54.0164523,49.7401201 58.326697,45.7890625 C61.2001935,43.1550241 64.8818341,38.8920032 69.3716189,33 Z" id="Line" fill="#6B6B6B"></path>
                <path d="M56,41 C53.8290258,43.1865982 51.2030205,44.7749029 48.1219841,45.7649141 C43.5004296,47.2499308 35.8702847,48.2498017 32.5801649,47.945309 C29.290045,47.6408162 40.8789693,46.187159 45.1234913,44.9628689 C47.9531726,44.1466754 51.5786755,42.8257191 56,41 Z" id="Line" fill="#6B6B6B" transform="translate(44.000000, 44.500000) scale(-1, -1) translate(-44.000000, -44.500000) "></path>
                <path d="M30.6873689,22.5174132 C33.724935,22.5174132 37.7492762,19.5721281 36.6334277,18.4122949 C35.5175792,17.2524617 25.7318481,16.0137706 25.6334277,18.4122949 C25.5350073,20.8108192 27.6498027,22.5174132 30.6873689,22.5174132 Z" id="Oval-5" fill="#6B6B6B" transform="translate(31.226972, 19.778532) rotate(-24.000000) translate(-31.226972, -19.778532) "></path>
                <path d="M35.4236544,25.2651367 C37.0518404,25.2651367 39.2089543,23.6520955 38.6108409,23.0168908 C38.0127276,22.3816862 32.7674128,21.7032935 32.7146578,23.0168908 C32.6619028,24.3304882 33.7954684,25.2651367 35.4236544,25.2651367 Z" id="Oval-5" fill="#6B6B6B" transform="translate(35.712891, 23.765137) scale(-1, -1) rotate(8.000000) translate(-35.712891, -23.765137) "></path>
            </g>
        </g>
    </g>
</svg>