<svg xmlns="http://www.w3.org/2000/svg" viewBox="0 0 153.74 139.45"><defs><style>.cls-1{fill:#f2cc11;}</style></defs><title>sunshinesparrow</title><g id="Layer_2" data-name="Layer 2"><g id="Layer_1-2" data-name="Layer 1"><path class="cls-1" d="M17.32,43.09c3.33,1.94,6.18,3.58,9,5.27,5.79,3.45,11.54,7,17.36,10.39A34.61,34.61,0,0,0,65.2,63.66c5.71-.57,11.48-.48,17.23-.55,1.87,0,2.93-.61,3.34-2.51.81-3.78,3.48-6.12,6.43-7.64-4.6-8.59-9.26-16.8-13.44-25.24a114.21,114.21,0,0,1-6.44-16.14c-.65-2-.9-4.19-1.83-6.25C69.87,4,70.37,2.06,70.37,0a9.83,9.83,0,0,1,2.32.95q13.54,10.24,27,20.56c5,3.84,10,7.76,15.08,11.53a52.56,52.56,0,0,1,13.9,15.87,8.92,8.92,0,0,1,.42,8.6,36.43,36.43,0,0,0-3.32,16c.11,3.3.64,3.84,4,4.56,3.56.77,7.23,1.42,10.5,2.9,2.28,1,4.16,3.2,5.87,5.17,2.32,2.68,4.32,5.64,6.44,8.49.27.37.5.77,1.15,1.79-6.3-1-11.21,2.33-16.6,3.17s-10.93.49-16.41.35c-3.45-.09-4.64.4-5.16,3.78-.66,4.36-1.3,8.74-1.54,13.13-.19,3.48-1.78,5.73-4.85,6.84-9.94,3.57-19.93,7-29.92,10.47a11.17,11.17,0,0,1-2.69.5q-23,2-46,3.88c-4.81.39-9.64.73-14.46.91a28.9,28.9,0,0,1-5.15-.75c.35-.86.38-1.33.6-1.44C16.4,135,17.92,128.9,23.1,127c.29-.11.74-.39.74-.6.08-2.86,2.8-3.1,4.31-4.57,6.71-6.54,16-8.08,23.68-12.72,4.79-2.9,9.67-5.47,15.34-6.29,1.89-.27,2.55-1.78,2-3.6A19.47,19.47,0,0,0,67.92,96a18.65,18.65,0,0,1-1.84-9.2c.05-1.21-.55-3.1-1.45-3.59C59,80.06,53.34,76.58,47.27,74.53s-12.52-2.58-18.83-3.65c-8.54-1.44-17.1-2.74-25.64-4.16A12.92,12.92,0,0,1,.14,65.65L0,64.86c3.35-1.51,6.63-3.23,10.08-4.48a49.55,49.55,0,0,1,9.17-2.27c2-.31,2.37-1.1,1.81-2.81q-1.64-5-3.23-10C17.66,44.81,17.58,44.26,17.32,43.09Z"/></g></g></svg>