<svg xmlns="http://www.w3.org/2000/svg" xmlns:xlink="http://www.w3.org/1999/xlink" viewBox="0 0 612 612"><defs><style>.cls-1,.cls-12,.cls-15,.cls-16,.cls-17,.cls-18,.cls-19,.cls-20{fill:none;}.cls-2{clip-path:url(#clip-path);}.cls-3{clip-path:url(#clip-path-2);}.cls-4{fill:#bc9469;}.cls-5{clip-path:url(#clip-path-3);}.cls-6{fill:#878787;}.cls-7{fill:#999;}.cls-8{fill:#e2e2e2;}.cls-9{fill:#e5e3da;}.cls-10{fill:#fae183;}.cls-11{fill:#60cfcf;}.cls-12{stroke:#fae183;}.cls-12,.cls-15,.cls-16,.cls-17,.cls-18,.cls-19,.cls-20{stroke-miterlimit:10;}.cls-13{fill:#009a87;}.cls-14{fill:#fb716a;}.cls-15,.cls-16{stroke:#009a87;}.cls-15,.cls-17,.cls-20{stroke-width:0.5px;}.cls-17,.cls-18{stroke:#60cfcf;}.cls-18{stroke-width:0.75px;}.cls-19,.cls-20{stroke:#fb716a;}.cls-21{clip-path:url(#clip-path-4);}.cls-22{clip-path:url(#clip-path-5);}</style><clipPath id="clip-path"><rect class="cls-1" x="634.67" y="6.07" width="612" height="612"/></clipPath><clipPath id="clip-path-2"><rect class="cls-1" x="634.67" y="7.03" width="618.81" height="612"/></clipPath><clipPath id="clip-path-3"><rect class="cls-1" width="612" height="612"/></clipPath><clipPath id="clip-path-4"><rect class="cls-1" x="-636.33" y="6.07" width="612" height="612"/></clipPath><clipPath id="clip-path-5"><rect class="cls-1" x="-636.53" y="7.38" width="612" height="612"/></clipPath></defs><title>Town1</title><g id="forest_1" data-name="forest 1"><g class="cls-2"><g class="cls-3"><rect class="cls-4" x="530.09" y="-29.97" width="1021.23" height="675.35"/></g></g></g><g id="town"><g class="cls-5"><rect class="cls-6" x="-1.87" y="-1.82" width="615.74" height="615.65"/><rect class="cls-7" x="2.7" y="0.64" width="259.5" height="283.03" rx="4.94" ry="4.94"/><rect class="cls-7" x="343.62" y="0.64" width="270.52" height="285.81" rx="4.51" ry="4.51"/><rect class="cls-8" x="-12.33" y="0.64" width="269.89" height="277.96" rx="4.94" ry="4.94"/><rect class="cls-9" x="349" y="-11.62" width="278.14" height="292.56" rx="4.51" ry="4.51"/><rect class="cls-7" x="343.22" y="366.98" width="273.83" height="247.3" rx="7.62" ry="7.62" transform="translate(960.26 981.26) rotate(-180)"/><rect class="cls-7" x="-4.11" y="366.65" width="265.76" height="247.3" rx="7.62" ry="7.62"/><rect class="cls-9" x="346.92" y="370.15" width="290.06" height="257.47" rx="6.83" ry="6.83"/><rect class="cls-9" x="-17.95" y="370.82" width="275.22" height="253.99" rx="7.62" ry="7.62"/><rect class="cls-10" x="299.93" y="73.35" width="4.86" height="17.02"/><rect class="cls-10" x="299.93" y="103.35" width="4.86" height="17.02"/><rect class="cls-10" x="299.93" y="133.35" width="4.86" height="17.02"/><rect class="cls-10" x="299.93" y="163.77" width="4.86" height="17.02"/><rect class="cls-10" x="299.93" y="193.77" width="4.86" height="17.02"/><rect class="cls-10" x="299.93" y="223.77" width="4.86" height="17.02"/><rect class="cls-10" x="299.93" y="554.43" width="4.86" height="17.02"/><rect class="cls-10" x="299.93" y="524.43" width="4.86" height="17.02"/><rect class="cls-10" x="299.93" y="494.43" width="4.86" height="17.02"/><rect class="cls-10" x="299.93" y="464.02" width="4.86" height="17.02"/><rect class="cls-10" x="299.93" y="434.02" width="4.86" height="17.02"/><rect class="cls-10" x="299.93" y="404.02" width="4.86" height="17.02"/><rect class="cls-10" x="546.31" y="316.43" width="4.86" height="17.02" transform="translate(223.8 873.69) rotate(-90)"/><rect class="cls-10" x="516.31" y="316.43" width="4.86" height="17.02" transform="translate(193.8 843.69) rotate(-90)"/><rect class="cls-10" x="486.31" y="316.43" width="4.86" height="17.02" transform="translate(163.8 813.69) rotate(-90)"/><rect class="cls-10" x="455.9" y="316.43" width="4.86" height="17.02" transform="translate(133.38 783.27) rotate(-90)"/><rect class="cls-10" x="425.9" y="316.43" width="4.86" height="17.02" transform="translate(103.38 753.27) rotate(-90)"/><rect class="cls-10" x="395.9" y="316.43" width="4.86" height="17.02" transform="translate(73.38 723.27) rotate(-90)"/><rect class="cls-10" x="211.31" y="316.43" width="4.86" height="17.02" transform="translate(-111.2 538.69) rotate(-90)"/><rect class="cls-10" x="181.31" y="316.43" width="4.86" height="17.02" transform="translate(-141.2 508.69) rotate(-90)"/><rect class="cls-10" x="151.31" y="316.43" width="4.86" height="17.02" transform="translate(-171.2 478.69) rotate(-90)"/><rect class="cls-10" x="120.9" y="316.43" width="4.86" height="17.02" transform="translate(-201.62 448.27) rotate(-90)"/><rect class="cls-10" x="90.9" y="316.43" width="4.86" height="17.02" transform="translate(-231.62 418.27) rotate(-90)"/><rect class="cls-10" x="60.9" y="316.43" width="4.86" height="17.02" transform="translate(-261.62 388.27) rotate(-90)"/><rect class="cls-11" x="415.57" y="56.5" width="57.5" height="115.95"/><rect class="cls-12" x="414.57" y="55.15" width="57.5" height="115.95"/><rect class="cls-10" x="419.56" y="77.07" width="10.47" height="19.55"/><rect class="cls-10" x="432.56" y="77.07" width="10.47" height="19.55"/><rect class="cls-10" x="445.56" y="77.07" width="10.47" height="19.55"/><rect class="cls-13" x="458.56" y="77.07" width="10.47" height="19.55"/><rect class="cls-10" x="419.56" y="110.05" width="10.47" height="19.55"/><rect class="cls-13" x="432.56" y="110.05" width="10.47" height="19.55"/><rect class="cls-13" x="445.56" y="110.05" width="10.47" height="19.55"/><rect class="cls-10" x="458.56" y="110.05" width="10.47" height="19.55"/><rect class="cls-14" x="437.07" y="141.34" width="16.15" height="30.75"/><rect class="cls-13" x="419.56" y="141.45" width="10.47" height="19.55"/><rect class="cls-10" x="458.56" y="141.45" width="10.47" height="19.55"/><rect class="cls-12" x="436.07" y="139.99" width="16.15" height="30.75"/><rect class="cls-15" x="418.56" y="75.73" width="10.47" height="19.55"/><rect class="cls-15" x="431.56" y="75.73" width="10.47" height="19.55"/><rect class="cls-15" x="444.56" y="75.73" width="10.47" height="19.55"/><rect class="cls-15" x="418.56" y="108.7" width="10.47" height="19.55"/><rect class="cls-15" x="457.56" y="108.7" width="10.47" height="19.55"/><rect class="cls-15" x="457.56" y="140.11" width="10.47" height="19.55"/><rect class="cls-12" x="395.17" y="104.82" width="39.3" height="99.09"/><rect class="cls-13" x="395.85" y="105.92" width="39.3" height="99.09"/><rect class="cls-11" x="398.57" y="117.53" width="7.16" height="13.12"/><rect class="cls-11" x="407.46" y="117.53" width="7.16" height="13.12"/><rect class="cls-10" x="416.34" y="117.53" width="7.16" height="13.12"/><rect class="cls-11" x="425.22" y="117.53" width="7.16" height="13.12"/><rect class="cls-11" x="398.57" y="140.99" width="7.16" height="13.12"/><rect class="cls-10" x="407.46" y="140.99" width="7.16" height="13.12"/><rect class="cls-11" x="416.34" y="140.99" width="7.16" height="13.12"/><rect class="cls-11" x="425.22" y="140.99" width="7.16" height="13.12"/><rect class="cls-10" x="398.57" y="163.13" width="7.16" height="13.12"/><rect class="cls-11" x="407.46" y="163.13" width="7.16" height="13.12"/><rect class="cls-10" x="416.34" y="163.13" width="7.16" height="13.12"/><rect class="cls-11" x="425.22" y="163.13" width="7.16" height="13.12"/><rect class="cls-11" x="410.54" y="184.13" width="11.04" height="20.64"/><rect class="cls-11" x="398.57" y="184.21" width="7.16" height="13.12"/><rect class="cls-10" x="425.22" y="184.21" width="7.16" height="13.12"/><rect class="cls-12" x="397.89" y="116.43" width="7.16" height="13.12"/><rect class="cls-12" x="406.78" y="116.43" width="7.16" height="13.12"/><rect class="cls-12" x="424.55" y="116.43" width="7.16" height="13.12"/><rect class="cls-12" x="397.89" y="139.88" width="7.16" height="13.12"/><rect class="cls-12" x="415.66" y="139.88" width="7.16" height="13.12"/><rect class="cls-12" x="424.55" y="139.88" width="7.16" height="13.12"/><rect class="cls-12" x="406.78" y="162.02" width="7.16" height="13.12"/><rect class="cls-12" x="424.55" y="162.02" width="7.16" height="13.12"/><rect class="cls-12" x="397.89" y="183.1" width="7.16" height="13.12"/><rect class="cls-12" x="115.77" y="65.25" width="39.3" height="99.09"/><rect class="cls-13" x="116.44" y="66.35" width="39.3" height="99.09"/><rect class="cls-11" x="119.17" y="77.96" width="7.16" height="13.12"/><rect class="cls-11" x="128.05" y="77.96" width="7.16" height="13.12"/><rect class="cls-10" x="136.94" y="77.96" width="7.16" height="13.12"/><rect class="cls-11" x="145.82" y="77.96" width="7.16" height="13.12"/><rect class="cls-11" x="119.17" y="101.42" width="7.16" height="13.12"/><rect class="cls-10" x="128.05" y="101.42" width="7.16" height="13.12"/><rect class="cls-11" x="136.94" y="101.42" width="7.16" height="13.12"/><rect class="cls-11" x="145.82" y="101.42" width="7.16" height="13.12"/><rect class="cls-10" x="119.17" y="123.56" width="7.16" height="13.12"/><rect class="cls-11" x="128.05" y="123.56" width="7.16" height="13.12"/><rect class="cls-10" x="136.94" y="123.56" width="7.16" height="13.12"/><rect class="cls-11" x="145.82" y="123.56" width="7.16" height="13.12"/><rect class="cls-11" x="131.14" y="144.56" width="11.04" height="20.64"/><rect class="cls-11" x="119.17" y="144.64" width="7.16" height="13.12"/><rect class="cls-10" x="145.82" y="144.64" width="7.16" height="13.12"/><rect class="cls-12" x="118.49" y="76.86" width="7.16" height="13.12"/><rect class="cls-12" x="127.38" y="76.86" width="7.16" height="13.12"/><rect class="cls-12" x="145.15" y="76.86" width="7.16" height="13.12"/><rect class="cls-12" x="118.49" y="100.31" width="7.16" height="13.12"/><rect class="cls-12" x="136.26" y="100.31" width="7.16" height="13.12"/><rect class="cls-12" x="145.15" y="100.31" width="7.16" height="13.12"/><rect class="cls-12" x="127.38" y="122.45" width="7.16" height="13.12"/><rect class="cls-12" x="145.15" y="122.45" width="7.16" height="13.12"/><rect class="cls-12" x="118.49" y="143.54" width="7.16" height="13.12"/><rect class="cls-11" x="163.05" y="69.29" width="52.72" height="81.03"/><rect class="cls-16" x="162.2" y="68.09" width="52.72" height="81.03"/><rect class="cls-10" x="161.77" y="79.23" width="55.48" height="4.2"/><rect class="cls-10" x="161.77" y="115.93" width="55.48" height="4.2"/><rect class="cls-10" x="166.82" y="90.7" width="8.88" height="17.77"/><rect class="cls-15" x="166.23" y="90.17" width="8.88" height="17.77"/><path class="cls-10" d="M191.13,142.22l8.91.08L200.3,132s-1.75-4-4.44-4-4.84,3.44-4.84,3.44Z"/><path class="cls-15" d="M190.86,141.61l8.91.08.27-10.32s-1.75-4-4.44-4-4.84,3.44-4.84,3.44Z"/><path class="cls-10" d="M169.55,142.08l8.91.08.27-10.32s-1.75-4-4.44-4-4.84,3.44-4.84,3.44Z"/><path class="cls-15" d="M169.29,141.48l8.91.08.27-10.32s-1.75-4-4.44-4-4.84,3.44-4.84,3.44Z"/><rect class="cls-10" x="178.92" y="90.7" width="8.88" height="17.77"/><rect class="cls-10" x="190.32" y="90.7" width="8.88" height="17.77"/><rect class="cls-10" x="202.43" y="90.7" width="8.88" height="17.77"/><rect class="cls-13" x="205.67" y="126.74" width="7.48" height="23.35"/><rect class="cls-13" x="166.82" y="90.7" width="8.88" height="6.17"/><rect class="cls-15" x="178.34" y="90.17" width="8.88" height="17.77"/><rect class="cls-13" x="178.92" y="90.7" width="8.88" height="6.17"/><rect class="cls-15" x="189.74" y="90.17" width="8.88" height="17.77"/><rect class="cls-13" x="190.32" y="90.7" width="8.88" height="6.17"/><rect class="cls-15" x="201.84" y="90.17" width="8.88" height="17.77"/><rect class="cls-13" x="202.43" y="90.7" width="8.88" height="6.17"/><rect class="cls-10" x="18.87" y="406.49" width="68.23" height="54.3"/><line class="cls-16" x1="17.87" y1="452.78" x2="17.87" y2="412.97"/><line class="cls-16" x1="86.1" y1="412.66" x2="86.1" y2="451.4"/><rect class="cls-11" x="15.74" y="454.96" width="74.06" height="6.4"/><rect class="cls-11" x="15.74" y="406.19" width="74.06" height="6.4"/><rect class="cls-16" x="14.74" y="453.96" width="74.06" height="6.4"/><rect class="cls-16" x="14.74" y="405.19" width="74.06" height="6.4"/><rect class="cls-13" x="44.31" y="402.94" width="16.91" height="57.43"/><polygon class="cls-11" points="52.56 387.87 40.76 401.51 64.78 401.51 52.56 387.87"/><rect class="cls-10" x="48.65" y="445.58" width="9.38" height="15.07"/><path class="cls-10" d="M48.72,437.76H58V428.1s-1.14-3.55-4.41-3.7-4.83,3.41-4.83,3.41Z"/><path class="cls-10" d="M48.72,419.57H58V409.9s-1.14-3.55-4.41-3.7-4.83,3.41-4.83,3.41Z"/><circle class="cls-10" cx="52.77" cy="396.45" r="3.48"/><polygon class="cls-16" points="51.56 387.87 39.76 401.51 63.78 401.51 51.56 387.87"/><rect class="cls-17" x="48.03" y="445.2" width="9.38" height="15.07"/><path class="cls-17" d="M48.1,437.39h9.24v-9.67s-1.14-3.55-4.41-3.7-4.83,3.41-4.83,3.41Z"/><path class="cls-17" d="M48.1,419.19h9.24v-9.67s-1.14-3.55-4.41-3.7-4.83,3.41-4.83,3.41Z"/><circle class="cls-17" cx="51.77" cy="396.45" r="3.48"/><rect class="cls-12" x="100.1" y="383.92" width="58.03" height="89.7"/><rect class="cls-13" x="101.1" y="384.92" width="58.03" height="89.7"/><rect class="cls-11" x="105.13" y="395.43" width="10.57" height="11.88"/><rect class="cls-11" x="118.24" y="395.43" width="10.57" height="11.88"/><rect class="cls-10" x="131.36" y="395.43" width="10.57" height="11.88"/><rect class="cls-11" x="144.48" y="395.43" width="10.57" height="11.88"/><rect class="cls-11" x="105.13" y="416.66" width="10.57" height="11.88"/><rect class="cls-10" x="118.24" y="416.66" width="10.57" height="11.88"/><rect class="cls-11" x="131.36" y="416.66" width="10.57" height="11.88"/><rect class="cls-11" x="144.48" y="416.66" width="10.57" height="11.88"/><rect class="cls-10" x="105.13" y="436.7" width="10.57" height="11.88"/><rect class="cls-11" x="118.24" y="436.7" width="10.57" height="11.88"/><rect class="cls-10" x="131.36" y="436.7" width="10.57" height="11.88"/><rect class="cls-11" x="144.48" y="436.7" width="10.57" height="11.88"/><rect class="cls-11" x="122.8" y="455.72" width="16.3" height="18.69"/><rect class="cls-11" x="105.13" y="455.79" width="10.57" height="11.88"/><rect class="cls-10" x="144.48" y="455.79" width="10.57" height="11.88"/><rect class="cls-12" x="104.13" y="394.43" width="10.57" height="11.88"/><rect class="cls-12" x="117.24" y="394.43" width="10.57" height="11.88"/><rect class="cls-12" x="143.48" y="394.43" width="10.57" height="11.88"/><rect class="cls-12" x="104.13" y="415.66" width="10.57" height="11.88"/><rect class="cls-12" x="130.36" y="415.66" width="10.57" height="11.88"/><rect class="cls-12" x="143.48" y="415.66" width="10.57" height="11.88"/><rect class="cls-12" x="117.24" y="435.7" width="10.57" height="11.88"/><rect class="cls-12" x="143.48" y="435.7" width="10.57" height="11.88"/><rect class="cls-12" x="104.13" y="454.79" width="10.57" height="11.88"/><rect class="cls-11" x="104.09" y="447.17" width="62.06" height="67.13"/><rect class="cls-16" x="103.09" y="446.17" width="62.06" height="67.13"/><rect class="cls-10" x="102.58" y="455.41" width="65.31" height="3.48"/><rect class="cls-10" x="102.58" y="485.8" width="65.31" height="3.48"/><rect class="cls-10" x="108.52" y="464.91" width="10.45" height="14.72"/><rect class="cls-15" x="107.83" y="464.47" width="10.45" height="14.72"/><path class="cls-10" d="M137.14,507.58l10.49.07.32-8.55s-2.06-3.32-5.22-3.32-5.7,2.85-5.7,2.85Z"/><path class="cls-15" d="M136.83,507.08l10.49.07.32-8.55s-2.06-3.32-5.22-3.32-5.7,2.85-5.7,2.85Z"/><path class="cls-10" d="M111.74,507.47l10.49.07.32-8.55s-2.06-3.32-5.22-3.32-5.7,2.85-5.7,2.85Z"/><path class="cls-15" d="M111.43,507l10.49.07.32-8.55s-2.06-3.32-5.22-3.32-5.7,2.85-5.7,2.85Z"/><rect class="cls-10" x="122.77" y="464.91" width="10.45" height="14.72"/><rect class="cls-10" x="136.2" y="464.91" width="10.45" height="14.72"/><rect class="cls-10" x="150.44" y="464.91" width="10.45" height="14.72"/><rect class="cls-13" x="154.26" y="494.76" width="8.8" height="19.34"/><rect class="cls-13" x="108.52" y="464.91" width="10.45" height="5.11"/><rect class="cls-15" x="122.08" y="464.47" width="10.45" height="14.72"/><rect class="cls-13" x="122.77" y="464.91" width="10.45" height="5.11"/><rect class="cls-15" x="135.51" y="464.47" width="10.45" height="14.72"/><rect class="cls-13" x="136.2" y="464.91" width="10.45" height="5.11"/><rect class="cls-15" x="149.76" y="464.47" width="10.45" height="14.72"/><rect class="cls-13" x="150.44" y="464.91" width="10.45" height="5.11"/><rect class="cls-11" x="448.47" y="383.48" width="57.5" height="73.84"/><rect class="cls-16" x="447.47" y="382.48" width="57.5" height="73.84"/><rect class="cls-10" x="452.46" y="396.58" width="10.47" height="12.45"/><rect class="cls-10" x="465.46" y="396.58" width="10.47" height="12.45"/><rect class="cls-10" x="478.46" y="396.58" width="10.47" height="12.45"/><rect class="cls-10" x="491.46" y="396.58" width="10.47" height="12.45"/><rect class="cls-10" x="452.46" y="417.58" width="10.47" height="12.45"/><rect class="cls-10" x="465.46" y="417.58" width="10.47" height="12.45"/><rect class="cls-10" x="478.46" y="417.58" width="10.47" height="12.45"/><rect class="cls-10" x="491.46" y="417.58" width="10.47" height="12.45"/><rect class="cls-13" x="469.97" y="437.51" width="16.15" height="19.58"/><rect class="cls-10" x="452.46" y="437.58" width="10.47" height="12.45"/><rect class="cls-10" x="491.46" y="437.58" width="10.47" height="12.45"/><rect class="cls-16" x="451.46" y="395.58" width="10.47" height="12.45"/><rect class="cls-16" x="490.46" y="395.58" width="10.47" height="12.45"/><rect class="cls-16" x="464.46" y="416.58" width="10.47" height="12.45"/><rect class="cls-16" x="477.46" y="416.58" width="10.47" height="12.45"/><rect class="cls-16" x="490.46" y="436.58" width="10.47" height="12.45"/><rect class="cls-13" x="31.51" y="456.24" width="60.67" height="46.07"/><rect class="cls-11" x="75.16" y="481.74" width="9.27" height="20.36"/><rect class="cls-10" x="38.31" y="480.04" width="31.96" height="17.62"/><polygon class="cls-11" points="95.51 471.11 28.64 471.11 31.39 455.61 92.01 456.47 95.51 471.11"/><rect class="cls-11" x="38.31" y="493.84" width="31.96" height="3.82"/><polyline class="cls-18" points="91.18 470.34 91.18 502.31 30.51 502.31 30.51 469.85"/><rect class="cls-10" x="29.08" y="502.31" width="65.64" height="2.63"/><polygon class="cls-16" points="94.51 470.11 27.64 470.11 30.39 454.61 91.01 455.47 94.51 470.11"/><rect class="cls-10" x="45.16" y="451.55" width="33.71" height="10.94"/><rect class="cls-19" x="44.92" y="450.82" width="33.71" height="10.94"/><rect class="cls-20" x="37.46" y="479.44" width="31.96" height="17.62"/><rect class="cls-18" x="28.23" y="501.94" width="65.64" height="2.63"/><rect class="cls-14" x="171.23" y="427.63" width="53.31" height="87.15"/><rect class="cls-16" x="170.3" y="426.7" width="53.31" height="87.15"/><polygon class="cls-13" points="163.58 432.96 173.55 415.11 222.22 415.11 232.65 433.42 163.58 432.96"/><polygon class="cls-19" points="163.58 432.03 173.55 414.18 222.22 414.18 232.65 432.49 163.58 432.03"/><rect class="cls-13" x="174.93" y="437.84" width="9.71" height="11.54"/><rect class="cls-10" x="186.98" y="437.84" width="9.71" height="11.54"/><rect class="cls-13" x="199.03" y="437.84" width="9.71" height="11.54"/><rect class="cls-13" x="211.09" y="437.84" width="9.71" height="11.54"/><rect class="cls-10" x="174.93" y="458.47" width="9.71" height="11.54"/><rect class="cls-10" x="186.98" y="458.47" width="9.71" height="11.54"/><rect class="cls-13" x="199.03" y="458.47" width="9.71" height="11.54"/><rect class="cls-13" x="211.09" y="458.47" width="9.71" height="11.54"/><rect class="cls-13" x="174.93" y="477.93" width="9.71" height="11.54"/><rect class="cls-10" x="186.98" y="477.93" width="9.71" height="11.54"/><rect class="cls-13" x="199.03" y="477.93" width="9.71" height="11.54"/><rect class="cls-10" x="211.09" y="477.93" width="9.71" height="11.54"/><rect class="cls-13" x="191.16" y="496.41" width="14.97" height="18.16"/><rect class="cls-13" x="174.93" y="496.48" width="9.71" height="11.54"/><rect class="cls-13" x="211.09" y="496.48" width="9.71" height="11.54"/><polygon class="cls-19" points="188.14 419.66 183.27 430.26 187.44 430.26 191.44 419.83 188.14 419.66"/><polygon class="cls-19" points="178.87 419.28 171.46 430.18 175.63 430.18 182.63 419.42 178.87 419.28"/><polygon class="cls-19" points="207.72 419.31 212.88 430.58 208.71 430.58 204.42 419.47 207.72 419.31"/><polygon class="cls-19" points="218.39 419.31 224.76 430.66 220.59 430.66 214.91 419.42 218.39 419.31"/><polygon class="cls-19" points="197.52 419.56 196.61 430.46 200.85 430.52 200.02 419.54 197.52 419.56"/><rect class="cls-10" x="197.6" y="496.43" width="1.08" height="18.08"/><rect class="cls-16" x="186.05" y="436.91" width="9.71" height="11.54"/><rect class="cls-16" x="174" y="457.54" width="9.71" height="11.54"/><rect class="cls-16" x="186.05" y="457.54" width="9.71" height="11.54"/><rect class="cls-16" x="186.05" y="477.01" width="9.71" height="11.54"/><rect class="cls-16" x="210.16" y="477.01" width="9.71" height="11.54"/><rect class="cls-14" x="432.17" y="165.37" width="57.5" height="94"/><rect class="cls-16" x="431.17" y="164.37" width="57.5" height="94"/><polygon class="cls-13" points="423.92 171.12 434.67 151.87 487.17 151.87 498.42 171.62 423.92 171.12"/><polygon class="cls-19" points="423.92 170.12 434.67 150.87 487.17 150.87 498.42 170.62 423.92 170.12"/><rect class="cls-13" x="436.16" y="176.38" width="10.47" height="12.45"/><rect class="cls-10" x="449.16" y="176.38" width="10.47" height="12.45"/><rect class="cls-13" x="462.16" y="176.38" width="10.47" height="12.45"/><rect class="cls-13" x="475.16" y="176.38" width="10.47" height="12.45"/><rect class="cls-10" x="436.16" y="198.63" width="10.47" height="12.45"/><rect class="cls-10" x="449.16" y="198.63" width="10.47" height="12.45"/><rect class="cls-13" x="462.16" y="198.63" width="10.47" height="12.45"/><rect class="cls-13" x="475.16" y="198.63" width="10.47" height="12.45"/><rect class="cls-13" x="436.16" y="219.63" width="10.47" height="12.45"/><rect class="cls-10" x="449.16" y="219.63" width="10.47" height="12.45"/><rect class="cls-13" x="462.16" y="219.63" width="10.47" height="12.45"/><rect class="cls-10" x="475.16" y="219.63" width="10.47" height="12.45"/><rect class="cls-13" x="453.67" y="239.56" width="16.15" height="19.58"/><rect class="cls-13" x="436.16" y="239.63" width="10.47" height="12.45"/><rect class="cls-13" x="475.16" y="239.63" width="10.47" height="12.45"/><polygon class="cls-19" points="450.41 156.78 445.16 168.21 449.66 168.21 453.97 156.96 450.41 156.78"/><polygon class="cls-19" points="440.41 156.37 432.42 168.12 436.92 168.12 444.47 156.52 440.41 156.37"/><polygon class="cls-19" points="471.53 156.4 477.09 168.56 472.59 168.56 467.97 156.57 471.53 156.4"/><polygon class="cls-19" points="483.03 156.4 489.91 168.65 485.41 168.65 479.28 156.52 483.03 156.4"/><polygon class="cls-19" points="460.52 156.67 459.54 168.43 464.11 168.5 463.22 156.65 460.52 156.67"/><rect class="cls-10" x="460.61" y="239.58" width="1.17" height="19.5"/><rect class="cls-16" x="448.16" y="175.38" width="10.47" height="12.45"/><rect class="cls-16" x="435.16" y="197.63" width="10.47" height="12.45"/><rect class="cls-16" x="448.16" y="197.63" width="10.47" height="12.45"/><rect class="cls-16" x="448.16" y="218.63" width="10.47" height="12.45"/><rect class="cls-16" x="474.16" y="218.63" width="10.47" height="12.45"/><rect class="cls-14" x="67.04" y="127.73" width="42.37" height="32.18"/><rect class="cls-12" x="66.34" y="127.73" width="42.37" height="32.18"/><polygon class="cls-11" points="111.74 138.12 65.03 138.12 66.95 127.29 109.3 127.89 111.74 138.12"/><polygon class="cls-16" points="111.04 137.42 64.33 137.42 66.25 126.59 108.6 127.19 111.04 137.42"/><rect class="cls-13" x="97.53" y="145.54" width="6.47" height="14.22"/><rect class="cls-10" x="71.79" y="144.35" width="22.32" height="12.31"/><rect class="cls-13" x="76.58" y="124.45" width="23.54" height="7.64"/><rect class="cls-13" x="71.79" y="153.99" width="22.32" height="2.67"/><rect class="cls-10" x="65.34" y="159.9" width="45.85" height="1.84"/><rect class="cls-13" x="76.58" y="124.45" width="23.54" height="7.64"/><rect class="cls-12" x="75.88" y="123.75" width="23.54" height="7.64"/><rect class="cls-16" x="64.64" y="159.21" width="45.85" height="1.84"/><rect class="cls-15" x="71.09" y="143.66" width="22.32" height="12.31"/><rect class="cls-14" x="46.21" y="171.04" width="60.67" height="46.07"/><rect class="cls-12" x="45.21" y="171.04" width="60.67" height="46.07"/><polygon class="cls-11" points="110.21 185.92 43.33 185.92 46.08 170.42 106.71 171.28 110.21 185.92"/><polygon class="cls-16" points="109.21 184.92 42.33 184.92 45.08 169.42 105.71 170.28 109.21 184.92"/><rect class="cls-13" x="89.86" y="196.54" width="9.27" height="20.36"/><rect class="cls-10" x="53" y="194.85" width="31.96" height="17.62"/><rect class="cls-13" x="59.86" y="166.35" width="33.71" height="10.94"/><rect class="cls-13" x="53" y="208.64" width="31.96" height="3.82"/><rect class="cls-10" x="43.78" y="217.11" width="65.64" height="2.63"/><rect class="cls-13" x="59.86" y="166.35" width="33.71" height="10.94"/><rect class="cls-12" x="58.86" y="165.35" width="33.71" height="10.94"/><rect class="cls-16" x="42.78" y="216.11" width="65.64" height="2.63"/><rect class="cls-15" x="52" y="193.85" width="31.96" height="17.62"/><rect class="cls-11" x="110.57" y="137.15" width="57.5" height="86.24"/><rect class="cls-12" x="109.57" y="136.15" width="57.5" height="86.24"/><rect class="cls-10" x="114.56" y="152.45" width="10.47" height="14.54"/><rect class="cls-10" x="127.56" y="152.45" width="10.47" height="14.54"/><rect class="cls-10" x="140.56" y="152.45" width="10.47" height="14.54"/><rect class="cls-13" x="153.56" y="152.45" width="10.47" height="14.54"/><rect class="cls-10" x="114.56" y="176.98" width="10.47" height="14.54"/><rect class="cls-13" x="127.56" y="176.98" width="10.47" height="14.54"/><rect class="cls-13" x="140.56" y="176.98" width="10.47" height="14.54"/><rect class="cls-10" x="153.56" y="176.98" width="10.47" height="14.54"/><rect class="cls-14" x="132.07" y="200.25" width="16.15" height="22.87"/><rect class="cls-13" x="114.56" y="200.34" width="10.47" height="14.54"/><rect class="cls-10" x="153.56" y="200.34" width="10.47" height="14.54"/><rect class="cls-12" x="131.07" y="199.25" width="16.15" height="22.87"/><rect class="cls-15" x="113.56" y="151.45" width="10.47" height="14.54"/><rect class="cls-15" x="126.56" y="151.45" width="10.47" height="14.54"/><rect class="cls-15" x="139.56" y="151.45" width="10.47" height="14.54"/><rect class="cls-15" x="113.56" y="175.98" width="10.47" height="14.54"/><rect class="cls-15" x="152.56" y="175.98" width="10.47" height="14.54"/><rect class="cls-15" x="152.56" y="199.34" width="10.47" height="14.54"/><rect class="cls-12" x="176.77" y="127.25" width="67.31" height="99.09"/><rect class="cls-13" x="177.93" y="128.35" width="67.31" height="99.09"/><rect class="cls-11" x="182.6" y="139.96" width="12.26" height="13.12"/><rect class="cls-11" x="197.81" y="139.96" width="12.26" height="13.12"/><rect class="cls-10" x="213.03" y="139.96" width="12.26" height="13.12"/><rect class="cls-11" x="228.25" y="139.96" width="12.26" height="13.12"/><rect class="cls-11" x="182.6" y="163.42" width="12.26" height="13.12"/><rect class="cls-10" x="197.81" y="163.42" width="12.26" height="13.12"/><rect class="cls-11" x="213.03" y="163.42" width="12.26" height="13.12"/><rect class="cls-11" x="228.25" y="163.42" width="12.26" height="13.12"/><rect class="cls-10" x="182.6" y="185.56" width="12.26" height="13.12"/><rect class="cls-11" x="197.81" y="185.56" width="12.26" height="13.12"/><rect class="cls-10" x="213.03" y="185.56" width="12.26" height="13.12"/><rect class="cls-11" x="228.25" y="185.56" width="12.26" height="13.12"/><rect class="cls-11" x="203.1" y="206.56" width="18.91" height="20.64"/><rect class="cls-11" x="182.6" y="206.64" width="12.26" height="13.12"/><rect class="cls-10" x="228.25" y="206.64" width="12.26" height="13.12"/><rect class="cls-12" x="181.44" y="138.86" width="12.26" height="13.12"/><rect class="cls-12" x="196.65" y="138.86" width="12.26" height="13.12"/><rect class="cls-12" x="227.09" y="138.86" width="12.26" height="13.12"/><rect class="cls-12" x="181.44" y="162.31" width="12.26" height="13.12"/><rect class="cls-12" x="211.87" y="162.31" width="12.26" height="13.12"/><rect class="cls-12" x="227.09" y="162.31" width="12.26" height="13.12"/><rect class="cls-12" x="196.65" y="184.45" width="12.26" height="13.12"/><rect class="cls-12" x="227.09" y="184.45" width="12.26" height="13.12"/><rect class="cls-12" x="181.44" y="205.54" width="12.26" height="13.12"/><polygon class="cls-13" points="231.04 206.49 163.74 206.49 170.47 186.28 224.6 186.39 231.04 206.49"/><polygon class="cls-12" points="230.04 205.49 162.74 205.49 169.47 185.28 223.6 185.39 230.04 205.49"/><rect class="cls-11" x="170.04" y="183.36" width="54.63" height="2.87"/><rect class="cls-16" x="169.04" y="182.36" width="54.63" height="2.87"/><rect class="cls-14" x="165.04" y="205.77" width="64.36" height="60.7"/><rect class="cls-12" x="164.04" y="204.77" width="64.36" height="60.7"/><rect class="cls-10" x="188.67" y="234.55" width="17.06" height="29.98"/><rect class="cls-13" x="189.64" y="235.86" width="14.91" height="27.84"/><rect class="cls-10" x="209.52" y="235.86" width="15.18" height="18.05"/><rect class="cls-10" x="168.18" y="236.14" width="15.7" height="17.52"/><rect class="cls-10" x="168.97" y="208.91" width="15.7" height="17.71"/><rect class="cls-10" x="188.59" y="208.91" width="16.22" height="17.98"/><rect class="cls-10" x="209.52" y="209.18" width="15.18" height="17.53"/><rect class="cls-13" x="167.07" y="226.78" width="19.02" height="4.64"/><rect class="cls-13" x="187.64" y="226.94" width="18.49" height="4.57"/><rect class="cls-13" x="208.01" y="226.71" width="19.18" height="4.64"/><rect class="cls-13" x="166.65" y="253.78" width="18.49" height="4.57"/><rect class="cls-13" x="208.24" y="253.87" width="18.49" height="4.57"/><rect class="cls-14" x="168.9" y="245.28" width="15.04" height="0.39"/><rect class="cls-14" x="175.71" y="236.71" width="1.18" height="16.81"/><rect class="cls-14" x="210.05" y="245.22" width="15.04" height="0.39"/><rect class="cls-14" x="216.85" y="236.65" width="1.18" height="16.81"/><rect class="cls-14" x="169.23" y="217.94" width="15.04" height="0.39"/><rect class="cls-14" x="176.03" y="209.37" width="1.18" height="16.81"/><rect class="cls-14" x="189.64" y="218.14" width="15.04" height="0.39"/><rect class="cls-14" x="196.44" y="209.57" width="1.18" height="16.81"/><rect class="cls-14" x="209.98" y="218.2" width="15.04" height="0.39"/><rect class="cls-14" x="216.78" y="209.63" width="1.18" height="16.81"/><rect class="cls-10" x="196.61" y="236.06" width="1.18" height="28.22"/><rect class="cls-13" x="187.1" y="263.42" width="20.44" height="4.57"/><rect class="cls-11" x="162.78" y="203.75" width="68.86" height="2.87"/><rect class="cls-10" x="178.06" y="179.48" width="3.6" height="8.5"/><rect class="cls-16" x="161.78" y="202.75" width="68.86" height="2.87"/><rect class="cls-13" x="98.46" y="218.27" width="60.67" height="46.07"/><rect class="cls-11" x="142.11" y="243.76" width="9.27" height="20.36"/><rect class="cls-10" x="105.26" y="242.07" width="31.96" height="17.62"/><polygon class="cls-11" points="162.46 233.14 95.58 233.14 98.33 217.64 158.96 218.5 162.46 233.14"/><rect class="cls-11" x="105.26" y="255.87" width="31.96" height="3.82"/><polyline class="cls-18" points="158.13 232.37 158.13 264.34 97.46 264.34 97.46 231.88"/><rect class="cls-10" x="96.03" y="264.34" width="65.64" height="2.63"/><polygon class="cls-16" points="161.46 232.14 94.58 232.14 97.33 216.64 157.96 217.5 161.46 232.14"/><rect class="cls-10" x="112.11" y="213.58" width="33.71" height="10.94"/><rect class="cls-19" x="111.87" y="212.85" width="33.71" height="10.94"/><rect class="cls-20" x="104.41" y="241.46" width="31.96" height="17.62"/><rect class="cls-18" x="95.18" y="263.97" width="65.64" height="2.63"/><rect class="cls-10" x="478.65" y="438.37" width="51.57" height="44.98"/><line class="cls-16" x1="477.9" y1="476.71" x2="477.9" y2="443.73"/><line class="cls-16" x1="529.46" y1="443.48" x2="529.46" y2="475.57"/><rect class="cls-11" x="476.29" y="478.52" width="55.97" height="5.3"/><rect class="cls-11" x="476.29" y="438.12" width="55.97" height="5.3"/><rect class="cls-16" x="475.53" y="477.69" width="55.97" height="5.3"/><rect class="cls-16" x="475.53" y="437.3" width="55.97" height="5.3"/><rect class="cls-13" x="497.88" y="435.42" width="12.78" height="47.57"/><polygon class="cls-11" points="504.11 422.94 495.2 434.25 513.35 434.25 504.11 422.94"/><rect class="cls-10" x="501.16" y="470.75" width="7.09" height="12.48"/><path class="cls-10" d="M501.21,464.27h7v-8s-.86-2.94-3.33-3.06-3.65,2.83-3.65,2.83Z"/><path class="cls-10" d="M501.21,449.2h7v-8s-.86-2.94-3.33-3.06-3.65,2.83-3.65,2.83Z"/><ellipse class="cls-10" cx="504.27" cy="430.05" rx="2.63" ry="2.88"/><polygon class="cls-16" points="503.36 422.94 494.44 434.25 512.6 434.25 503.36 422.94"/><rect class="cls-17" x="500.69" y="470.44" width="7.09" height="12.48"/><path class="cls-17" d="M500.74,464h7v-8s-.86-2.94-3.33-3.06-3.65,2.83-3.65,2.83Z"/><path class="cls-17" d="M500.74,448.89h7v-8s-.86-2.94-3.33-3.06-3.65,2.83-3.65,2.83Z"/><ellipse class="cls-17" cx="503.52" cy="430.05" rx="2.63" ry="2.88"/><rect class="cls-13" x="374.01" y="392.07" width="60.67" height="46.07"/><rect class="cls-11" x="417.66" y="417.57" width="9.27" height="20.36"/><rect class="cls-10" x="380.81" y="415.88" width="31.96" height="17.62"/><polygon class="cls-11" points="438.01 406.95 371.14 406.95 373.89 391.45 434.51 392.31 438.01 406.95"/><rect class="cls-11" x="380.81" y="429.67" width="31.96" height="3.82"/><polyline class="cls-18" points="433.68 406.17 433.68 438.14 373.01 438.14 373.01 405.69"/><rect class="cls-10" x="371.58" y="438.14" width="65.64" height="2.63"/><polygon class="cls-16" points="437.01 405.95 370.14 405.95 372.89 390.45 433.51 391.31 437.01 405.95"/><rect class="cls-10" x="387.66" y="387.38" width="33.71" height="10.94"/><rect class="cls-19" x="387.42" y="386.65" width="33.71" height="10.94"/><rect class="cls-20" x="379.96" y="415.27" width="31.96" height="17.62"/><rect class="cls-18" x="370.73" y="437.78" width="65.64" height="2.63"/><path class="cls-10" d="M13.74,231.64c.38-.94,41.86-23.19,41.86-23.19l42.24,23Z"/><rect class="cls-14" x="21.59" y="230.7" width="4.71" height="32.43"/><rect class="cls-14" x="48.74" y="230.7" width="4.71" height="32.43"/><rect class="cls-14" x="62.32" y="230.7" width="4.71" height="32.43"/><rect class="cls-14" x="90.6" y="230.7" width="4.71" height="32.43"/><rect class="cls-14" x="77.03" y="230.7" width="4.71" height="32.43"/><rect class="cls-14" x="34.03" y="230.7" width="4.71" height="32.43"/><rect class="cls-10" x="19.59" y="230.7" width="4.71" height="32.43"/><rect class="cls-10" x="46.74" y="230.7" width="4.71" height="32.43"/><rect class="cls-10" x="60.32" y="230.7" width="4.71" height="32.43"/><rect class="cls-10" x="88.6" y="230.7" width="4.71" height="32.43"/><rect class="cls-10" x="75.03" y="230.7" width="4.71" height="32.43"/><rect class="cls-10" x="32.03" y="230.7" width="4.71" height="32.43"/><rect class="cls-11" x="13.18" y="262.76" width="86.55" height="4.34"/><polygon class="cls-11" points="9.6 226.74 13.74 231.64 55.6 208.45 99.54 232.02 102.18 227.5 55.98 201.85 9.6 226.74"/><path class="cls-11" d="M29.39,227.31c.23-.57,27-15.27,27-15.27l24.32,15.16Z"/><circle class="cls-10" cx="56.17" cy="221.27" r="4.53"/><path class="cls-15" d="M28.39,226.31c.23-.57,27-15.27,27-15.27l24.32,15.16Z"/><polygon class="cls-16" points="8.6 225.74 12.74 230.64 54.6 207.45 98.54 231.02 101.18 226.5 54.98 200.85 8.6 225.74"/><rect class="cls-20" x="18.59" y="229.7" width="4.71" height="32.43"/><rect class="cls-20" x="45.74" y="229.7" width="4.71" height="32.43"/><rect class="cls-20" x="59.32" y="229.7" width="4.71" height="32.43"/><rect class="cls-20" x="87.6" y="229.7" width="4.71" height="32.43"/><rect class="cls-20" x="74.03" y="229.7" width="4.71" height="32.43"/><rect class="cls-20" x="31.03" y="229.7" width="4.71" height="32.43"/><rect class="cls-16" x="12.18" y="261.76" width="86.55" height="4.34"/><rect class="cls-14" x="492.21" y="466.54" width="60.67" height="46.07"/><rect class="cls-12" x="491.21" y="466.54" width="60.67" height="46.07"/><polygon class="cls-11" points="556.21 481.42 489.33 481.42 492.08 465.92 552.71 466.78 556.21 481.42"/><polygon class="cls-16" points="555.21 480.42 488.33 480.42 491.08 464.92 551.71 465.78 555.21 480.42"/><rect class="cls-13" x="535.86" y="492.04" width="9.27" height="20.36"/><rect class="cls-10" x="499" y="490.35" width="31.96" height="17.62"/><rect class="cls-13" x="505.86" y="461.85" width="33.71" height="10.94"/><rect class="cls-13" x="499" y="504.14" width="31.96" height="3.82"/><rect class="cls-10" x="489.78" y="512.61" width="65.64" height="2.63"/><rect class="cls-13" x="505.86" y="461.85" width="33.71" height="10.94"/><rect class="cls-12" x="504.86" y="460.85" width="33.71" height="10.94"/><rect class="cls-16" x="488.78" y="511.61" width="65.64" height="2.63"/><rect class="cls-15" x="498" y="489.35" width="31.96" height="17.62"/><polygon class="cls-13" points="479.2 452.71 411.89 452.71 418.63 432.5 472.76 432.6 479.2 452.71"/><polygon class="cls-12" points="478.2 451.71 410.89 451.71 417.63 431.5 471.76 431.6 478.2 451.71"/><rect class="cls-11" x="418.19" y="429.58" width="54.63" height="2.87"/><rect class="cls-16" x="417.19" y="428.58" width="54.63" height="2.87"/><rect class="cls-13" x="413.2" y="451.99" width="64.36" height="60.7"/><rect class="cls-12" x="412.2" y="450.99" width="64.36" height="60.7"/><rect class="cls-10" x="436.83" y="480.76" width="17.06" height="29.98"/><rect class="cls-11" x="437.79" y="482.08" width="14.91" height="27.84"/><rect class="cls-10" x="457.68" y="482.08" width="15.18" height="18.05"/><rect class="cls-10" x="416.34" y="482.35" width="15.7" height="17.52"/><rect class="cls-10" x="417.12" y="455.13" width="15.7" height="17.71"/><rect class="cls-10" x="436.75" y="455.13" width="16.22" height="17.98"/><rect class="cls-10" x="457.68" y="455.39" width="15.18" height="17.53"/><rect class="cls-11" x="415.23" y="472.99" width="19.02" height="4.64"/><rect class="cls-11" x="435.8" y="473.15" width="18.49" height="4.57"/><rect class="cls-11" x="456.16" y="472.92" width="19.18" height="4.64"/><rect class="cls-11" x="414.8" y="499.99" width="18.49" height="4.57"/><rect class="cls-11" x="456.4" y="500.09" width="18.49" height="4.57"/><rect class="cls-14" x="417.06" y="491.5" width="15.04" height="0.39"/><rect class="cls-14" x="423.86" y="482.93" width="1.18" height="16.81"/><rect class="cls-14" x="458.2" y="491.43" width="15.04" height="0.39"/><rect class="cls-14" x="465" y="482.86" width="1.18" height="16.81"/><rect class="cls-14" x="417.39" y="464.15" width="15.04" height="0.39"/><rect class="cls-14" x="424.19" y="455.58" width="1.18" height="16.81"/><rect class="cls-14" x="437.79" y="464.35" width="15.04" height="0.39"/><rect class="cls-14" x="444.6" y="455.78" width="1.18" height="16.81"/><rect class="cls-14" x="458.14" y="464.42" width="15.04" height="0.39"/><rect class="cls-14" x="464.94" y="455.85" width="1.18" height="16.81"/><rect class="cls-10" x="444.77" y="482.27" width="1.18" height="28.22"/><rect class="cls-11" x="435.26" y="509.63" width="20.44" height="4.57"/><rect class="cls-11" x="410.93" y="449.96" width="68.86" height="2.87"/><rect class="cls-10" x="426.22" y="425.69" width="3.6" height="8.5"/><rect class="cls-16" x="409.93" y="448.96" width="68.86" height="2.87"/><path class="cls-10" d="M357.24,493.64c.38-.94,41.86-23.19,41.86-23.19l42.24,23Z"/><rect class="cls-14" x="365.09" y="492.7" width="4.71" height="32.43"/><rect class="cls-14" x="392.24" y="492.7" width="4.71" height="32.43"/><rect class="cls-14" x="405.82" y="492.7" width="4.71" height="32.43"/><rect class="cls-14" x="434.1" y="492.7" width="4.71" height="32.43"/><rect class="cls-14" x="420.53" y="492.7" width="4.71" height="32.43"/><rect class="cls-14" x="377.53" y="492.7" width="4.71" height="32.43"/><rect class="cls-10" x="363.09" y="492.7" width="4.71" height="32.43"/><rect class="cls-10" x="390.24" y="492.7" width="4.71" height="32.43"/><rect class="cls-10" x="403.82" y="492.7" width="4.71" height="32.43"/><rect class="cls-10" x="432.1" y="492.7" width="4.71" height="32.43"/><rect class="cls-10" x="418.53" y="492.7" width="4.71" height="32.43"/><rect class="cls-10" x="375.53" y="492.7" width="4.71" height="32.43"/><rect class="cls-11" x="356.68" y="524.76" width="86.55" height="4.34"/><polygon class="cls-11" points="353.1 488.74 357.24 493.64 399.1 470.45 443.04 494.02 445.68 489.5 399.48 463.85 353.1 488.74"/><path class="cls-11" d="M372.89,489.31c.23-.57,27-15.27,27-15.27l24.32,15.16Z"/><circle class="cls-10" cx="399.67" cy="483.27" r="4.53"/><path class="cls-15" d="M371.89,488.31c.23-.57,27-15.27,27-15.27l24.32,15.16Z"/><polygon class="cls-16" points="352.1 487.74 356.24 492.64 398.1 469.45 442.04 493.02 444.68 488.5 398.48 462.85 352.1 487.74"/><rect class="cls-20" x="362.09" y="491.7" width="4.71" height="32.43"/><rect class="cls-20" x="389.24" y="491.7" width="4.71" height="32.43"/><rect class="cls-20" x="402.82" y="491.7" width="4.71" height="32.43"/><rect class="cls-20" x="431.1" y="491.7" width="4.71" height="32.43"/><rect class="cls-20" x="417.53" y="491.7" width="4.71" height="32.43"/><rect class="cls-20" x="374.53" y="491.7" width="4.71" height="32.43"/><rect class="cls-16" x="355.68" y="523.76" width="86.55" height="4.34"/><rect class="cls-11" x="364.77" y="190.56" width="62.06" height="67.13"/><rect class="cls-16" x="363.77" y="189.56" width="62.06" height="67.13"/><rect class="cls-10" x="363.26" y="198.79" width="65.31" height="3.48"/><rect class="cls-10" x="363.26" y="229.19" width="65.31" height="3.48"/><rect class="cls-10" x="369.2" y="208.29" width="10.45" height="14.72"/><rect class="cls-15" x="368.51" y="207.85" width="10.45" height="14.72"/><path class="cls-10" d="M397.82,251l10.49.07.32-8.55s-2.06-3.32-5.22-3.32-5.7,2.85-5.7,2.85Z"/><path class="cls-15" d="M397.51,250.47l10.49.07.32-8.55s-2.06-3.32-5.22-3.32-5.7,2.85-5.7,2.85Z"/><path class="cls-10" d="M372.42,250.86l10.49.07.32-8.55s-2.06-3.32-5.22-3.32-5.7,2.85-5.7,2.85Z"/><path class="cls-15" d="M372.11,250.36l10.49.07.32-8.55s-2.06-3.32-5.22-3.32-5.7,2.85-5.7,2.85Z"/><rect class="cls-10" x="383.45" y="208.29" width="10.45" height="14.72"/><rect class="cls-10" x="396.87" y="208.29" width="10.45" height="14.72"/><rect class="cls-10" x="411.12" y="208.29" width="10.45" height="14.72"/><rect class="cls-13" x="414.93" y="238.14" width="8.8" height="19.34"/><rect class="cls-13" x="369.2" y="208.29" width="10.45" height="5.11"/><rect class="cls-15" x="382.76" y="207.85" width="10.45" height="14.72"/><rect class="cls-13" x="383.45" y="208.29" width="10.45" height="5.11"/><rect class="cls-15" x="396.19" y="207.85" width="10.45" height="14.72"/><rect class="cls-13" x="396.87" y="208.29" width="10.45" height="5.11"/><rect class="cls-15" x="410.44" y="207.85" width="10.45" height="14.72"/><rect class="cls-13" x="411.12" y="208.29" width="10.45" height="5.11"/><rect class="cls-13" x="494.51" y="212.57" width="60.67" height="46.07"/><rect class="cls-11" x="538.16" y="238.07" width="9.27" height="20.36"/><rect class="cls-10" x="501.31" y="236.38" width="31.96" height="17.62"/><polygon class="cls-11" points="558.51 227.45 491.64 227.45 494.39 211.95 555.01 212.81 558.51 227.45"/><rect class="cls-11" x="501.31" y="250.17" width="31.96" height="3.82"/><polyline class="cls-18" points="554.18 226.67 554.18 258.64 493.51 258.64 493.51 226.19"/><rect class="cls-10" x="492.08" y="258.64" width="65.64" height="2.63"/><polygon class="cls-16" points="557.51 226.45 490.64 226.45 493.39 210.95 554.01 211.81 557.51 226.45"/><rect class="cls-10" x="508.16" y="207.88" width="33.71" height="10.94"/><rect class="cls-19" x="507.92" y="207.15" width="33.71" height="10.94"/><rect class="cls-20" x="500.46" y="235.77" width="31.96" height="17.62"/><rect class="cls-18" x="491.23" y="258.28" width="65.64" height="2.63"/><rect class="cls-14" x="66.71" y="501.54" width="60.67" height="46.07"/><rect class="cls-12" x="65.71" y="501.54" width="60.67" height="46.07"/><polygon class="cls-11" points="130.71 516.42 63.83 516.42 66.58 500.92 127.21 501.78 130.71 516.42"/><polygon class="cls-16" points="129.71 515.42 62.83 515.42 65.58 499.92 126.21 500.78 129.71 515.42"/><rect class="cls-13" x="110.36" y="527.04" width="9.27" height="20.36"/><rect class="cls-10" x="73.5" y="525.35" width="31.96" height="17.62"/><rect class="cls-13" x="80.36" y="496.85" width="33.71" height="10.94"/><rect class="cls-13" x="73.5" y="539.14" width="31.96" height="3.82"/><rect class="cls-10" x="64.28" y="547.61" width="65.64" height="2.63"/><rect class="cls-13" x="80.36" y="496.85" width="33.71" height="10.94"/><rect class="cls-12" x="79.36" y="495.85" width="33.71" height="10.94"/><rect class="cls-16" x="63.28" y="546.61" width="65.64" height="2.63"/><rect class="cls-15" x="72.5" y="524.35" width="31.96" height="17.62"/></g></g><g id="Forest_Intro" data-name="Forest Intro"><g class="cls-21"><g class="cls-22"><rect class="cls-4" x="-739.95" y="-29.62" width="1010" height="675.35"/></g></g></g></svg>