<svg id="Layer_1" data-name="Layer 1" xmlns="http://www.w3.org/2000/svg" viewBox="0 0 88.83 40.35"><defs><style>.cls-1{fill:#983233;}.cls-2{fill:#ff6608;}</style></defs><title>Wolf</title><path class="cls-1" d="M19,31.2h3.17a7.28,7.28,0,0,1,0,1c0,.34,0,.69,0,1v2a10.67,10.67,0,0,1-1.47.07c-.88,0-1.84,0-2.9,0h-3c-.94,0-1.56,0-1.85,0V31.25H15.1c-.25-1.22-.48-2.41-.69-3.58s-.43-2.34-.65-3.53-.44-2.36-.65-3.55-.44-2.4-.69-3.65Q11.7,20.6,11,24.09T9.68,31.2a10,10,0,0,0,1.22,0c.4,0,.83,0,1.28,0v3.83a2.21,2.21,0,0,1-.15.25H2.82V31.25H5.74a.37.37,0,0,0,0-.31c0-.08-.06-.16-.09-.22-.07-.45-.13-.87-.2-1.27s-.14-.82-.24-1.27c0-.25-.07-.52-.12-.79S5,26.86,5,26.6s-.12-.58-.17-.89-.11-.61-.17-.93L4.35,23.2a4.45,4.45,0,0,1-.14-.55c0-.18-.07-.36-.1-.55a2.41,2.41,0,0,0-1.05-1.87l-.8-.57c-.27-.2-.53-.4-.79-.63l.6-.79q.31-.4.6-.84A1.7,1.7,0,0,0,3,16.06a6.9,6.9,0,0,1-.26-1.31c-.05-.43-.11-.87-.17-1.32a10.33,10.33,0,0,0-.27-1.1A10.79,10.79,0,0,1,2,11.23q0-.44-.12-.84c0-.27-.1-.55-.17-.84l-.14-.86H0A3.54,3.54,0,0,1,0,8c0-.23,0-.45,0-.67s0-.45,0-.68A3,3,0,0,1,0,6c0-.22,0-.45,0-.67a1.92,1.92,0,0,1,.07-.67h7.3a4.44,4.44,0,0,1,.07,1c0,.32,0,.65,0,1V8.64a4.92,4.92,0,0,1-.86,0,6.13,6.13,0,0,0-.86,0,2,2,0,0,0,0,.76,5.5,5.5,0,0,1,.15.77l.09.56c0,.17.07.34.1.5.06.38.13.77.19,1.15s.13.77.19,1.15a7.86,7.86,0,0,1,.15,1c0,.33.08.66.14,1s.12.68.17,1a8.54,8.54,0,0,0,.22,1c.06.32.11.64.14,1s.08.64.14,1a6.41,6.41,0,0,1,.24,1.34,8,8,0,0,0,.24,1.35,7.65,7.65,0,0,1,.22,1.1,9.31,9.31,0,0,0,.22,1.15L11.22,8.69H9.44a1.86,1.86,0,0,0-.1-.2.41.41,0,0,1,0-.19c0-1.12,0-2.25,0-3.41a2.13,2.13,0,0,1,.09-.33h6.39a3.76,3.76,0,0,1,.07.67c0,.35,0,.74,0,1.15V7.63a7,7,0,0,1,0,1H14.19a1.84,1.84,0,0,0,0,.81,7.45,7.45,0,0,1,.15.77,5.59,5.59,0,0,0,.24,1.11c.06.32.11.62.14.91a8.55,8.55,0,0,0,.14.86c.07.36.12.69.17,1s.11.64.17,1,.13.62.19.91.13.6.19.91a6.61,6.61,0,0,1,.15.89,8.27,8.27,0,0,0,.14.89c.07.35.13.68.19,1s.13.64.2,1c0,.16,0,.32.07.48a4,4,0,0,0,.07.48c.06.35.13.7.19,1s.13.71.19,1.06a4,4,0,0,1,0,.82,3.84,3.84,0,0,0,.15-.44c0-.12.06-.24.09-.33l1.35-7.51c.44-2.51.89-5,1.34-7.56H18V4.61a7.1,7.1,0,0,1,1-.08l1.8,0,2.11,0,1.92,0a6.89,6.89,0,0,1,0,1c0,.32,0,.65,0,1a7.28,7.28,0,0,1,0,1c0,.33,0,.68,0,1a3.26,3.26,0,0,1-.7,0,4.63,4.63,0,0,0-.74,0c0,.16-.07.33-.12.52s-.09.37-.12.53l-.29,1.87a5.42,5.42,0,0,0-.14.65c0,.2-.08.43-.15.69s-.06.34-.09.53a4,4,0,0,1-.15.57c-.06.32-.13.62-.19.91s-.13.59-.19.91a2.17,2.17,0,0,0,.38,1.68,5.36,5.36,0,0,0,.51.69c.17.21.36.44.55.7a1.51,1.51,0,0,1-.48.52c-.19.13-.39.28-.58.43l-.5.39a4.15,4.15,0,0,0-.51.43,2,2,0,0,0-.36.65c-.08.24-.15.48-.21.74q-.15.76-.27,1.53c-.08.51-.16,1-.26,1.58-.06.35-.14.72-.24,1.1s-.18.77-.24,1.15c-.06.23-.12.45-.17.67s-.09.45-.12.67c-.06.39-.13.78-.21,1.18S19.1,30.78,19,31.2ZM5.55,32.93a1.32,1.32,0,0,0,.43.19q.1,0,.24-.24a2.53,2.53,0,0,0,0-.53H5.55ZM5.84,16.8h.1a.72.72,0,0,0-.05-.29h0Zm1,17.46v-.43c-.16-.07-.24,0-.24.19l.09.09ZM7,33.52q.39-.24.24-.48A.49.49,0,0,0,7,32.89a.72.72,0,0,1-.24-.14,1.72,1.72,0,0,0,0-.43A1.18,1.18,0,0,0,7,33.52Zm8.11.8c-.06-.06-.11-.1-.14-.1s-.08,0-.14.05l.14.14s0,0,0,0A.14.14,0,0,0,15.1,34.32ZM20.58,7.15a1.53,1.53,0,0,0-.24.29C20.56,7.5,20.64,7.41,20.58,7.15ZM22,7.05h0V6.86h0Zm1.87-.28V5.57c-.13.09-.29.21-.48.33,0,.19,0,.37,0,.53a4.33,4.33,0,0,1,0,.53.89.89,0,0,1,.24-.12Z"/><path class="cls-1" d="M26.29,19c.25-.32.51-.63.77-.92s.51-.55.76-.81a1.56,1.56,0,0,0,.48-1.15c0-.74,0-1.45,0-2.14s0-1.38,0-2.09a12.19,12.19,0,0,1,.39-2.66,8.72,8.72,0,0,1,1.06-2.43,5.32,5.32,0,0,1,3.08-2.4A9.22,9.22,0,0,1,36.39,4a8.11,8.11,0,0,1,1.69.38,6.17,6.17,0,0,1,1.54.82c.29.26.57.51.84.77a3.5,3.5,0,0,1,.7.91,9,9,0,0,1,.65,1.37,7.67,7.67,0,0,1,.41,1.46c.13.74.23,1.46.29,2.16a9,9,0,0,1,.1,1.4v1.39a2.38,2.38,0,0,1-.1.62v.24a.64.64,0,0,1,.12.43,3,3,0,0,0,0,.43,1.22,1.22,0,0,0,.38.87l.79.86c.28.29.56.6.84.91l-1.29,1.16a2.1,2.1,0,0,0-.58.62,1.45,1.45,0,0,0-.14.86,3,3,0,0,1,0,.53,1.25,1.25,0,0,1-.15.58V23a5.67,5.67,0,0,1,.15,1.63c0,.55,0,1.09,0,1.64a22.62,22.62,0,0,1-.15,2.59,12.73,12.73,0,0,1-.33,2,8.32,8.32,0,0,1-.73,1.88A6.5,6.5,0,0,1,40,34.46a5.79,5.79,0,0,1-2,1.11l-.91.26a2.35,2.35,0,0,1-.92.07,1.64,1.64,0,0,0-.41.05.73.73,0,0,1-.36,0,11.82,11.82,0,0,1-2.16-.29,5.24,5.24,0,0,1-2-.91,4.72,4.72,0,0,1-.92-.86c-.25-.32-.51-.66-.76-1A5.23,5.23,0,0,1,29,31.46c-.14-.49-.28-1-.41-1.51s-.12-.77-.19-1.15a5,5,0,0,1-.05-1.15V21.74a1.71,1.71,0,0,0-.72-1.44,5.17,5.17,0,0,1-.62-.52,5.68,5.68,0,0,0-.58-.53.17.17,0,0,1,0-.12A.17.17,0,0,0,26.29,19Zm1.44-.15h-.1a.49.49,0,0,1,.05.19h.05Zm2.69-.14-.12-.29a.61.61,0,0,0-.22-.14c-.22-.07-.44-.15-.65-.24a3.61,3.61,0,0,0-.65-.24h-.19l-.24.24c0,.16-.05.29-.07.4a1.48,1.48,0,0,0,0,.27,2.48,2.48,0,0,1,.12.41,1,1,0,0,0,.12.36h.76a2.17,2.17,0,0,0,.29-.24c.1-.1.22-.07.39.09a1.12,1.12,0,0,1,.24-.33ZM29.17,24a1.23,1.23,0,0,0,.14-.31,3.09,3.09,0,0,1,.15-.41.51.51,0,0,0,.67.14q.29.11.24.27a.24.24,0,0,0,.05.26,1.13,1.13,0,0,0,.72-.12,1.25,1.25,0,0,1,.72-.12V20.78a.73.73,0,0,1-.24-.19.66.66,0,0,1,.16-.12.24.24,0,0,0,.12-.07,2.65,2.65,0,0,1-.38-.62l-.19.07a1.53,1.53,0,0,0-.24.07.89.89,0,0,0-.12-.6.43.43,0,0,1,.07-.55c-.06-.07-.1-.12-.1-.17a.5.5,0,0,0-.09-.22,3.38,3.38,0,0,0-.12.65,2.86,2.86,0,0,1-.12.55l-.36.2-.36.19a.4.4,0,0,1-.05.24l-.43.14-.39.1c0,.16.06.29.08.4s0,.22,0,.32l.19.09a1.16,1.16,0,0,1-.24.34,1.41,1.41,0,0,1,.07.31,1.41,1.41,0,0,0,.08.31.44.44,0,0,0,0,.17.21.21,0,0,1,0,.17.9.9,0,0,0-.12.67A4.09,4.09,0,0,1,29.17,24Zm1.1-7.87a1,1,0,0,1-.12-.55.69.69,0,0,0-.21-.56h-.68a.37.37,0,0,1,0-.16.41.41,0,0,0,0-.17h-.05c0,.26.06.53.07.81s0,.58.07.87a3.15,3.15,0,0,0,.27-.19,2,2,0,0,0,.21-.2Zm-1.15,9V26h.43c.06-.07.12-.12.17-.17l.17-.17a.49.49,0,0,0-.12-.36c-.08-.08-.16-.15-.22-.22Zm1,2a.74.74,0,0,0-.72.19v1l.67.34a.49.49,0,0,1,.36-.15c.15,0,.23-.09.27-.29s-.12-.38-.17-.57A1,1,0,0,0,30.08,27.07Zm.43,3.46-.45-.17c-.15-.05-.3-.1-.46-.17.06.26.12.49.17.7a.93.93,0,0,0,.41.55,1.23,1.23,0,0,1,.28-.43A.37.37,0,0,0,30.51,30.53Zm-.67-7.4v.05l-.05-.05s0,0,.05,0Zm.24-10.27a1,1,0,0,0,.38.05,2.52,2.52,0,0,0,.29.34s.08,0,.24-.05a1.07,1.07,0,0,0-.17-.15.64.64,0,0,1-.16-.14v-.62l-.2-.1-.24-.1a1.12,1.12,0,0,0-.16.22,1.64,1.64,0,0,0-.12.22A2.68,2.68,0,0,0,30.08,12.86Zm.1,11.43a1.33,1.33,0,0,1,0,.28c0,.1,0,.18,0,.24s.2.24.31.24a1,1,0,0,0,.31,0l.17-.34a.47.47,0,0,0,0-.38ZM32,32.35l-.43-.43a.28.28,0,0,1-.19.09l-.1,0a1.23,1.23,0,0,1-.12-.92,2,2,0,0,0,0-1c-.07.32-.13.62-.2.91s-.12.56-.19.82a.92.92,0,0,1-.29,0,1.31,1.31,0,0,1-.09.17,1.28,1.28,0,0,0-.1.17,4.75,4.75,0,0,0,1.64,1.89,6.05,6.05,0,0,0,2.21.84,2.65,2.65,0,0,1-.19-.57.49.49,0,0,1-.19,0,.48.48,0,0,0-.2,0,1,1,0,0,0,.15-.26,1.34,1.34,0,0,1,.14-.26l.63.14a5.1,5.1,0,0,1,.48-.29l-.29-.14v-.53a1.48,1.48,0,0,0-.46-.33.89.89,0,0,0-.31.23.49.49,0,0,1,0,.2.91.91,0,0,0,0,.28c-.23-.15-.43-.3-.61-.43s-.36-.27-.55-.43h-.48a.91.91,0,0,1-.15.24h-.33C31.89,32.7,31.94,32.54,32,32.35ZM30.46,8.64a.12.12,0,0,0,.05-.1s0,0,0,0,0,0,0,0Zm.44,9.26c-.07.07-.08.1,0,.1a.12.12,0,0,0,0,.07.09.09,0,0,1,0,.07Zm.19-4.65c.32.13.53.06.62-.2s-.1-.24-.21-.26a.4.4,0,0,1-.27-.12,1.53,1.53,0,0,1-.05-.43s0,0,0,0,0,0-.05,0Zm.14,10.94a6.21,6.21,0,0,0-.05.7.75.75,0,0,0,.24.55,1.56,1.56,0,0,0,.44-.05V25.1a3.48,3.48,0,0,1-.32-.45A2.86,2.86,0,0,0,31.23,24.19Zm.19-15.55c0,.06,0,.1-.09.1l.33.19a.16.16,0,0,0,.05-.1.56.56,0,0,1-.14-.09A.44.44,0,0,0,31.42,8.64Zm.29,9.07-.05-.05,0,.05a.14.14,0,0,1,.09.05Zm.05-.86h0v-.63h0ZM36.13,19c.06-.06.11-.1.14-.1a.12.12,0,0,0,.1-.05l.65-.76c.2-.26.42-.51.64-.77a1.52,1.52,0,0,0,.39-.58,2.22,2.22,0,0,0,.09-.67,30.45,30.45,0,0,1,0-3.31,8.81,8.81,0,0,0-.29-2.31,3.74,3.74,0,0,0-.43-1.05,1.78,1.78,0,0,0-.92-.72,3.21,3.21,0,0,0-.8-.19,3.08,3.08,0,0,0-.9,0,2.3,2.3,0,0,0-1.31.87,2.11,2.11,0,0,0-.46.89c-.08.33-.15.68-.21,1a18.63,18.63,0,0,0-.15,2.4V16a1.56,1.56,0,0,0,.48,1.25L34.74,19l-.8.74c-.27.24-.53.49-.79.74a1.53,1.53,0,0,0-.48,1.2c0,1.16,0,2.31,0,3.46a29.68,29.68,0,0,0,.1,3.41,8.48,8.48,0,0,0,.53,1.77,2.14,2.14,0,0,0,1.07,1,2.21,2.21,0,0,0,.5.15,3.08,3.08,0,0,0,.51,0A2.63,2.63,0,0,0,37,31a2.83,2.83,0,0,0,.87-1.35,7.17,7.17,0,0,0,.29-2.06c-.06-1.92-.06-3.86,0-5.81a1.84,1.84,0,0,0-.57-1.34q-.39-.39-.72-.75Zm-1.49,15.6a.57.57,0,0,1,0,.29c0,.09.09.16.32.19C34.88,34.91,34.77,34.75,34.64,34.56ZM37,34.32a.6.6,0,0,0-.29-.67h-.52a.94.94,0,0,0,0,1.2,3,3,0,0,1,.48-.15C36.82,34.67,36.93,34.54,37,34.32Zm.34-.48v0h.19v0ZM37.38,19l.26.26a3,3,0,0,1,.26.31,2.9,2.9,0,0,0,.2-.48l-.34-.16A.38.38,0,0,0,37.38,19Zm.24,14.25s0,0,0,0h0l0,0ZM38,34c0-.06,0-.1-.05-.1a.29.29,0,0,0-.19,0V34Zm.1-2.3h.09a2.14,2.14,0,0,1,0-.53l-.24.24a1,1,0,0,1,.12.14Zm2.82-3.08v0h.05a1.25,1.25,0,0,0-.05.38c-.26,0-.41,0-.46-.07a1.53,1.53,0,0,1-.21-.46l-.1-.09-.12,0-.12.05a.14.14,0,0,1,0-.09l-.05-.05a2.39,2.39,0,0,1,.39-.39.67.67,0,0,0,.24.08.68.68,0,0,1,.24.07l.29-.15a1.38,1.38,0,0,0,.29-.24,1.3,1.3,0,0,0-.31,0,.28.28,0,0,1-.22,0l-.36-.09a.48.48,0,0,1-.27-.19,1.39,1.39,0,0,0-.43-.44L39,26.64A4,4,0,0,1,39,28a4.37,4.37,0,0,0,0,1.35,5.14,5.14,0,0,0,.49-.44h.62c.1.17.19.32.27.48s.17.32.26.48l.15-.14.14-.14a.58.58,0,0,0,.19,0l.25,0a.77.77,0,0,1-.2-.48A.45.45,0,0,0,40.87,28.65ZM39,14.3a2,2,0,0,1,.53,0,1.66,1.66,0,0,0,0-.24c0-.06,0-.14-.08-.24Zm.05,8.59h0v-.57h0Zm.4,3.6a1.39,1.39,0,0,0,.14-.26s-.08,0-.24-.07a.41.41,0,0,1,0,.17A.29.29,0,0,0,39.49,26.49Zm.37,2.69h-.38a0,0,0,0,1,0,.05l.17.1.16.09A1.45,1.45,0,0,0,39.86,29.18Zm-.37-8.44v0l-.05,0,.05,0Zm.28.09a1.46,1.46,0,0,1,.17.29,1.13,1.13,0,0,0,.17.24.44.44,0,0,0,.48-.29v-.29l-.33-.19a.44.44,0,0,1-.22.12A1,1,0,0,0,39.77,20.83Zm.68,5.76-.24.26c-.07.09-.15.17-.24.27a2.29,2.29,0,0,0,.36.05h.31A1.42,1.42,0,0,1,40.45,26.59Zm.14,3.31-.09.19.09.1c.07-.06.1-.11.1-.14a0,0,0,0,1,0-.05A.14.14,0,0,1,40.59,29.9Zm0,1.73h0v-.19h0Zm.24-10.27a.19.19,0,0,0,.1-.05.09.09,0,0,0,0-.07.29.29,0,0,1,0-.12h0Zm.1,4.56,0-.05,0,.05Zm.52-11.14h-.09s0,.05.09.05ZM42,20a.41.41,0,0,0-.29-.48l-.12.14a.21.21,0,0,1-.12.1A.37.37,0,0,0,42,20Zm-.48-3.75v.05a0,0,0,0,0,.05.05v-.1Z"/><path class="cls-1" d="M45.82,19.05c.48-.57,1-1.11,1.49-1.63A1.86,1.86,0,0,0,47.89,16c0-1.21,0-2.43,0-3.65V8.69H45.82V4.61h8.45l.1.17a.28.28,0,0,1,.05.16v3.7a7.53,7.53,0,0,1-1.06,0,9.45,9.45,0,0,0-1.06,0v3.76c0,1.08,0,2.17,0,3.29a2.54,2.54,0,0,0,.21,1.08,4.1,4.1,0,0,0,.6.89L54.32,19a4,4,0,0,1-.55.62c-.21.2-.41.37-.6.53a2.7,2.7,0,0,1-.36.38,3.59,3.59,0,0,0-.36.39,1,1,0,0,0-.15.53V36.24h.53q.63,0,1.23,0c.4,0,.8,0,1.22,0a2.35,2.35,0,0,0,.86-.17,3,3,0,0,0,.82-.48,3.3,3.3,0,0,0,.65-.7,2.45,2.45,0,0,0,.36-.81,3.22,3.22,0,0,0,.14-1V30.81a.54.54,0,0,1,.31-.21,2.46,2.46,0,0,1,.41,0,3.17,3.17,0,0,0,.87,0,2,2,0,0,1,.86.1h.14a.62.62,0,0,1,.56-.1l.5.2v9.4l-.19.1a.49.49,0,0,1-.19,0H46.06a.6.6,0,0,1-.24,0v-4h2.12V22.32a3,3,0,0,0-.27-1.44,3.82,3.82,0,0,0-1-1.06,4.08,4.08,0,0,1-.43-.36A5.12,5.12,0,0,1,45.82,19.05ZM47,38.45v-.1a.32.32,0,0,0-.2,0v.05Zm-.15.86,0-.05v.1S46.83,39.34,46.83,39.31Zm2.11-16s0-.05,0-.05v.1Zm.24,14.06a.53.53,0,0,0,.15.12l.14.12C49.5,37.36,49.41,37.28,49.18,37.34Zm.58-2.25v-.24a1.55,1.55,0,0,1-.34-.05,1.53,1.53,0,0,0,.17.14A1.07,1.07,0,0,1,49.76,35.09Zm0-4a0,0,0,0,1,0-.05l0,0s-.05,0-.05,0S49.71,31.07,49.71,31.1Zm.1-13s0,0-.05,0ZM50,23.47l0,.05h0Zm1-5.38h-.34a.13.13,0,0,1,0,.1.14.14,0,0,0,0,.1H51Zm-.1-2.3h.34V15.6l-.05,0h-.29Zm0,13.92v-.05l0,.05,0,.05Zm.29-7.49a0,0,0,0,0-.05,0l0,0,0,.05ZM52,39a0,0,0,0,0,0,0h0Zm8.35-3.45,0,.09s0,.05-.05.05,0,.08.1.14l.14-.14Zm.53-1.44c0-.29,0-.48,0-.56a1.84,1.84,0,0,0-.1-.4,4.23,4.23,0,0,0-.07.43,2.81,2.81,0,0,0,0,.43,0,0,0,0,0,0,0A.16.16,0,0,0,60.85,34.13Z"/><path class="cls-1" d="M79.62,13.39a.48.48,0,0,0-.15.1.12.12,0,0,1-.09,0H76.3a1,1,0,0,1-.38-.19.93.93,0,0,0,0-.29,1.1,1.1,0,0,1,0-.33.31.31,0,0,0,0-.17.31.31,0,0,1,0-.17,8.53,8.53,0,0,0,0-.89,6.31,6.31,0,0,1,0-.88,1.81,1.81,0,0,0-.1-.44,2,2,0,0,0-1.25-1.39,1.65,1.65,0,0,0-.48-.09c-.73,0-1.45,0-2.16,0H69.87a2,2,0,0,1,0,.26,1,1,0,0,0,0,.22c0,.45-.06.91-.09,1.39a10.9,10.9,0,0,0,0,1.4c0,.83.06,1.65.09,2.45s0,1.62,0,2.45a1.4,1.4,0,0,0,1.08-.36,1.63,1.63,0,0,0,.41-1.51,1.06,1.06,0,0,0,.51-.15.6.6,0,0,1,.6.05,1.5,1.5,0,0,1,.6-.07,2.41,2.41,0,0,0,.6,0h1.2v8.6H71.46a2.6,2.6,0,0,0-.15-.89,1.68,1.68,0,0,0-.53-.74,3.48,3.48,0,0,0-.4-.22,2.18,2.18,0,0,0-.56-.12,10.2,10.2,0,0,1,0,1.23c0,.4,0,.81,0,1.22V36.24h2v4a6.64,6.64,0,0,1-1.1.08l-2.14,0c-.81,0-1.68,0-2.59,0l-2.52,0a3.89,3.89,0,0,1-.07-.71q0-.53,0-1.17V37.19a7.39,7.39,0,0,1,0-.95h1.92v-15a2,2,0,0,0-.72-.91c-.22-.2-.43-.4-.62-.61s-.39-.42-.58-.64a3.41,3.41,0,0,1,.55-.68,7,7,0,0,0,.6-.62,5.57,5.57,0,0,0,.46-.51,2.35,2.35,0,0,0,.36-.65V8.69a3.31,3.31,0,0,0-1,0,5.45,5.45,0,0,1-1,0v-4H79.57a11.57,11.57,0,0,1,.07,1.2c0,.64,0,1.4,0,2.28v2.76C79.66,11.81,79.65,12.65,79.62,13.39ZM66.46,9a1.65,1.65,0,0,1,.24-.33,1.93,1.93,0,0,0,.24-.29,1.33,1.33,0,0,0-.6-.48.71.71,0,0,1-.45-.53.73.73,0,0,0-.6.05,5.38,5.38,0,0,1-.55.29,10.86,10.86,0,0,1,1.1.19,2,2,0,0,1,.38.34.67.67,0,0,1,0,.43C66.24,8.82,66.3,8.93,66.46,9Zm.34-3.26a.25.25,0,0,0,0-.12.17.17,0,0,1,0-.12h-1V6c.16-.13.31-.24.46-.34S66.58,5.6,66.8,5.76Zm-.14,11.33a1.85,1.85,0,0,0-.27.19.53.53,0,0,0-.17.24,1,1,0,0,0-.09.43,1.18,1.18,0,0,1-.1.48,4.52,4.52,0,0,1,.6-.12c.18,0,.31-.14.41-.36v-.53C66.91,17.3,66.78,17.18,66.66,17.09ZM66.37,15a2,2,0,0,0-.05,1.15h.29a4,4,0,0,1-.15-.57Zm.81-5.76a5.24,5.24,0,0,1-.45.41l-.46.36v2.45a1.21,1.21,0,0,0,.15.57l0,0s.06,0,.08,0a.08.08,0,0,1,.07,0s0,0,.09,0a1.69,1.69,0,0,1,.22.31,2.44,2.44,0,0,1,.07.36,5.51,5.51,0,0,1,.89-.22,1.05,1.05,0,0,0,.74-.55.66.66,0,0,1,.29.1V11.52a3.54,3.54,0,0,1,0-.72,2.66,2.66,0,0,0-.07-.72,4.2,4.2,0,0,1-.44.48l-.24-.24a1,1,0,0,0,.2-.29,3.66,3.66,0,0,1-.24-.53.71.71,0,0,1-.27.05.46.46,0,0,0-.21,0,3.43,3.43,0,0,1-.12-.77A6.5,6.5,0,0,0,67.38,8a3.26,3.26,0,0,0-.12.68A5.58,5.58,0,0,1,67.18,9.26Zm-.76,5.23h0v0Zm.14,23h.1V37.3h-.1Zm.82-29.71h0V7.63h0ZM68,14.16c-.16.1-.23.18-.21.26a.81.81,0,0,0,.07.22l.14.24a2.88,2.88,0,0,0,.19.24l-.09-.48C68,14.48,68,14.32,68,14.16Zm-.14,2.64v0ZM69,6.67a1.4,1.4,0,0,0,.31-.46c0-.07-.06-.23-.22-.45h-.67c-.16.13-.22.26-.19.38a1.55,1.55,0,0,1,.05.34l.31.17A2.68,2.68,0,0,0,69,6.67Zm-.53,15s0,0,0,0v.09ZM69.87,18V18l0,.05V18Zm1.39-10.7V6.77a.44.44,0,0,1-.19.12.34.34,0,0,0-.19.12.5.5,0,0,0,.19.12A.31.31,0,0,1,71.26,7.25ZM73.9,19.82c-.19-.09-.39-.18-.6-.26l-.64-.26c-.36-.13-.61-.1-.77.09a1.62,1.62,0,0,0,0,.72c0,.23.09.45.12.67a1.2,1.2,0,0,0,.36,0,2.27,2.27,0,0,1,.41.05,1.46,1.46,0,0,1,.24-.17,2.19,2.19,0,0,0,.29-.17,3.4,3.4,0,0,1,.34.2l.28.19a.45.45,0,0,1-.07-.56A.6.6,0,0,0,73.9,19.82Zm0,2.69V21.07c-.09.13-.19.25-.28.36l-.29.31-.19-.07-.2-.07a.31.31,0,0,1-.09.12s0,0,0,.07a.41.41,0,0,0,0,.19.21.21,0,0,1,0,.19.24.24,0,0,1-.07.17.66.66,0,0,0-.12.17Zm-1.1-4.85a1.74,1.74,0,0,0,.41-.21,3.13,3.13,0,0,1,.36-.22,4.19,4.19,0,0,1,.38.43,2.85,2.85,0,0,1-.12-.53,4.64,4.64,0,0,0-.07-.48c-.22-.25-.39-.37-.5-.35s-.3.16-.56.45a.8.8,0,0,1,.1.38.38.38,0,0,1,0,.24C72.81,17.47,72.8,17.57,72.8,17.66ZM78.27,6V5.9h-.19V6Zm-.09,1.63v.1a.54.54,0,0,1,.24-.05s0,0,0-.1A.29.29,0,0,1,78.18,7.63Z"/><path class="cls-1" d="M81.58,18.91a14.83,14.83,0,0,1,1.2-1.34A2.25,2.25,0,0,0,83.41,16a7.62,7.62,0,0,1,0-1.17,4.64,4.64,0,0,0,0-1.13,14.82,14.82,0,0,1-.07-1.87A16,16,0,0,0,83.22,10a5.49,5.49,0,0,1,0-1.27,6.13,6.13,0,0,0,0-1.27Q83,6.81,83,6.24c0-.39,0-.78,0-1.2V4.65a5.64,5.64,0,0,1,.79-.07l1.29,0h1.35a7.7,7.7,0,0,1,1,.05,5.62,5.62,0,0,0,0,1.36,3.5,3.5,0,0,1-.12,1.37.47.47,0,0,0,0,.24.57.57,0,0,1,0,.29c0,.83,0,1.67,0,2.5s0,1.66-.09,2.49a11.91,11.91,0,0,0,0,1.88A13.13,13.13,0,0,1,87,16.61a5.1,5.1,0,0,0,.84,1.22l1,1.13a4.61,4.61,0,0,1-.62.69l-.72.65a2.87,2.87,0,0,0-.51.58,1.12,1.12,0,0,0-.16.77v.52a6.35,6.35,0,0,0,0,.87c0,.29,0,.59,0,.91a.8.8,0,0,0,.48.05,1.29,1.29,0,0,1,.48,0,3.58,3.58,0,0,1,.07.65c0,.33,0,.71,0,1.13V27a10.32,10.32,0,0,1,0,1.06H82.64v-4a1.79,1.79,0,0,1,.48-.05h.48a5.13,5.13,0,0,0,0-1,2.59,2.59,0,0,1-.1-.67v-.72a1.51,1.51,0,0,0-.57-1.25A12.09,12.09,0,0,1,81.58,18.91Zm5.76,14.45a1.21,1.21,0,0,0,0,.43,1,1,0,0,1-.07.48,2.23,2.23,0,0,1-2,1.68,1.87,1.87,0,0,1-.62,0,1.08,1.08,0,0,1-.58-.32,3,3,0,0,1-1-1.53,3.25,3.25,0,0,1,0-1.75A2.69,2.69,0,0,1,84,30.86a2.3,2.3,0,0,1,1.25-.41,1.66,1.66,0,0,1,1.25.51,3.82,3.82,0,0,1,.67.93A2.57,2.57,0,0,1,87.34,33.36Zm-3-13.3v.1l0-.05A0,0,0,0,0,84.37,20.06Zm.29,1.06a.35.35,0,0,0-.1.53c0,.06.06.09.19.09a.32.32,0,0,0,.19-.48Zm.14,3.17h0v0h0Zm.1-1.4h0l0,0-.05,0Zm0-14.59v.1l0-.05S84.93,8.3,84.9,8.3ZM85,17.57H85V18H85Zm0,6.86a1,1,0,0,0,.38.19,1.19,1.19,0,0,0,.44-.24,3.8,3.8,0,0,1-.39-.33A4.35,4.35,0,0,1,85,24.43Zm.24,7a.16.16,0,0,1,0,.1.62.62,0,0,1,.19.14l.1-.1-.12-.07Zm0,1.78s0,0,0,0S85.33,33.2,85.33,33.17Zm.53-26.64v-.1h-.2v.1Zm.57,26.16-.05-.12a.31.31,0,0,0,0-.12.75.75,0,0,1-.29,0c0,.17,0,.25.12.25A.85.85,0,0,0,86.43,32.69Zm-.33,1.58s0,0,0-.05h0l0,.05Zm.67-7.06a.26.26,0,0,0,.14-.09V26a.43.43,0,0,0-.21.29.66.66,0,0,0,0,.28c0,.1,0,.19,0,.27a.48.48,0,0,1,0,.26s0,.06,0,.07S86.77,27.18,86.77,27.21Zm.53-8.4,0,0s0,0,0-.05l0,.05S87.26,18.81,87.3,18.81Z"/><path class="cls-2" d="M19,27.2h3.17a7.28,7.28,0,0,1,0,1c0,.34,0,.69,0,1.05v2a10.67,10.67,0,0,1-1.47.07c-.88,0-1.84,0-2.9,0h-3c-.94,0-1.56,0-1.85,0V27.25H15.1c-.25-1.22-.48-2.41-.69-3.58s-.43-2.34-.65-3.53-.44-2.36-.65-3.55-.44-2.4-.69-3.65Q11.7,16.6,11,20.09T9.68,27.2a10,10,0,0,0,1.22,0c.4,0,.83,0,1.28,0v3.83a2.21,2.21,0,0,1-.15.25H2.82V27.25H5.74a.37.37,0,0,0,0-.31c0-.08-.06-.16-.09-.22-.07-.45-.13-.87-.2-1.27s-.14-.82-.24-1.27c0-.25-.07-.52-.12-.79S5,22.86,5,22.6s-.12-.58-.17-.89-.11-.61-.17-.93L4.35,19.2a4.45,4.45,0,0,1-.14-.55c0-.18-.07-.36-.1-.55a2.41,2.41,0,0,0-1.05-1.87l-.8-.57c-.27-.2-.53-.4-.79-.63l.6-.79q.31-.4.6-.84A1.7,1.7,0,0,0,3,12.06a6.9,6.9,0,0,1-.26-1.31c-.05-.43-.11-.87-.17-1.32a10.33,10.33,0,0,0-.27-1.1A10.79,10.79,0,0,1,2,7.23q0-.44-.12-.84c0-.27-.1-.55-.17-.84l-.14-.86H0A3.54,3.54,0,0,1,0,4c0-.23,0-.45,0-.67s0-.45,0-.68A3,3,0,0,1,0,2c0-.22,0-.45,0-.67A1.92,1.92,0,0,1,.08.61h7.3a4.44,4.44,0,0,1,.07,1c0,.32,0,.65,0,1V4.64a4.92,4.92,0,0,1-.86,0,6.13,6.13,0,0,0-.86,0,2,2,0,0,0,0,.76,5.5,5.5,0,0,1,.15.77L6,6.78c0,.17.07.34.1.5.06.38.13.77.19,1.15s.13.77.19,1.15a7.86,7.86,0,0,1,.15,1c0,.33.08.66.14,1s.12.68.17,1a8.54,8.54,0,0,0,.22,1c.06.32.11.64.14,1s.08.64.14,1a6.41,6.41,0,0,1,.24,1.34,8,8,0,0,0,.24,1.35,7.65,7.65,0,0,1,.22,1.1,9.31,9.31,0,0,0,.22,1.15L11.22,4.69H9.44a1.86,1.86,0,0,0-.1-.2.41.41,0,0,1,0-.19c0-1.12,0-2.25,0-3.41A2.13,2.13,0,0,1,9.39.56h6.39a3.76,3.76,0,0,1,.07.67c0,.35,0,.74,0,1.15V3.63a7,7,0,0,1,0,1H14.19a1.84,1.84,0,0,0,0,.81,7.45,7.45,0,0,1,.15.77,5.59,5.59,0,0,0,.24,1.11c.06.32.11.62.14.91a8.55,8.55,0,0,0,.14.86c.07.36.12.69.17,1s.11.64.17,1,.13.62.19.91.13.6.19.91a6.61,6.61,0,0,1,.15.89,8.27,8.27,0,0,0,.14.89c.07.35.13.68.19,1s.13.64.2,1c0,.16,0,.32.07.48a4,4,0,0,0,.07.48c.06.35.13.7.19,1s.13.71.19,1.06a4,4,0,0,1,0,.82,3.84,3.84,0,0,0,.15-.44c0-.12.06-.24.09-.33l1.35-7.51c.44-2.51.89-5,1.34-7.56H18V.61a7.1,7.1,0,0,1,1-.08l1.8,0,2.11,0,1.92,0a6.89,6.89,0,0,1,0,1c0,.32,0,.65,0,1a7.28,7.28,0,0,1,0,1c0,.33,0,.68,0,1a3.26,3.26,0,0,1-.7,0,4.63,4.63,0,0,0-.74,0c0,.16-.07.33-.12.52s-.09.37-.12.53l-.29,1.87a5.42,5.42,0,0,0-.14.65c0,.2-.08.43-.15.69s-.06.34-.09.53a4,4,0,0,1-.15.57c-.06.32-.13.62-.19.91s-.13.59-.19.91a2.17,2.17,0,0,0,.38,1.68,5.36,5.36,0,0,0,.51.69c.17.21.36.44.55.7a1.51,1.51,0,0,1-.48.52c-.19.13-.39.28-.58.43l-.5.39a4.15,4.15,0,0,0-.51.43,2,2,0,0,0-.36.65c-.08.24-.15.48-.21.74q-.15.76-.27,1.53c-.08.51-.16,1-.26,1.58-.06.35-.14.72-.24,1.1s-.18.77-.24,1.15c-.06.23-.12.45-.17.67s-.09.45-.12.67c-.06.39-.13.78-.21,1.18S19.1,26.78,19,27.2ZM5.55,28.93a1.32,1.32,0,0,0,.43.19q.1,0,.24-.24a2.53,2.53,0,0,0,0-.53H5.55ZM5.84,12.8h.1a.72.72,0,0,0-.05-.29h0Zm1,17.46v-.43c-.16-.07-.24,0-.24.19l.09.09ZM7,29.52q.39-.24.24-.48A.49.49,0,0,0,7,28.89a.72.72,0,0,1-.24-.14,1.72,1.72,0,0,0,0-.43A1.18,1.18,0,0,0,7,29.52Zm8.11.8c-.06-.06-.11-.1-.14-.1s-.08,0-.14.05l.14.14s0,0,0,0A.14.14,0,0,0,15.1,30.32ZM20.58,3.15a1.53,1.53,0,0,0-.24.29C20.56,3.5,20.64,3.41,20.58,3.15ZM22,3.05h0V2.86h0Zm1.87-.28V1.57c-.13.09-.29.21-.48.33,0,.19,0,.37,0,.53a4.33,4.33,0,0,1,0,.53.89.89,0,0,1,.24-.12Z"/><path class="cls-2" d="M26.29,15c.25-.32.51-.63.77-.92s.51-.55.76-.81a1.56,1.56,0,0,0,.48-1.15c0-.74,0-1.45,0-2.14s0-1.38,0-2.09a12.19,12.19,0,0,1,.39-2.66,8.72,8.72,0,0,1,1.06-2.43A5.32,5.32,0,0,1,32.83.41,9.22,9.22,0,0,1,36.39,0a8.11,8.11,0,0,1,1.69.38,6.17,6.17,0,0,1,1.54.82c.29.26.57.51.84.77a3.5,3.5,0,0,1,.7.91,9,9,0,0,1,.65,1.37,7.67,7.67,0,0,1,.41,1.46c.13.74.23,1.46.29,2.16a9,9,0,0,1,.1,1.4v1.39a2.38,2.38,0,0,1-.1.62v.24a.64.64,0,0,1,.12.43,3,3,0,0,0,0,.43,1.22,1.22,0,0,0,.38.87l.79.86c.28.29.56.6.84.91l-1.29,1.16a2.1,2.1,0,0,0-.58.62,1.45,1.45,0,0,0-.14.86,3,3,0,0,1,0,.53,1.25,1.25,0,0,1-.15.58V19a5.67,5.67,0,0,1,.15,1.63c0,.55,0,1.09,0,1.64a22.62,22.62,0,0,1-.15,2.59,12.73,12.73,0,0,1-.33,2,8.32,8.32,0,0,1-.73,1.88A6.5,6.5,0,0,1,40,30.46a5.79,5.79,0,0,1-2,1.11l-.91.26a2.35,2.35,0,0,1-.92.07,1.64,1.64,0,0,0-.41.05.73.73,0,0,1-.36,0,11.82,11.82,0,0,1-2.16-.29,5.24,5.24,0,0,1-2-.91,4.72,4.72,0,0,1-.92-.86c-.25-.32-.51-.66-.76-1A5.23,5.23,0,0,1,29,27.46c-.14-.49-.28-1-.41-1.51s-.12-.77-.19-1.15a5,5,0,0,1-.05-1.15V17.74a1.71,1.71,0,0,0-.72-1.44,5.17,5.17,0,0,1-.62-.52,5.68,5.68,0,0,0-.58-.53.17.17,0,0,1,0-.12A.17.17,0,0,0,26.29,15Zm1.44-.15h-.1a.49.49,0,0,1,.05.19h.05Zm2.69-.14-.12-.29a.61.61,0,0,0-.22-.14c-.22-.07-.44-.15-.65-.24a3.61,3.61,0,0,0-.65-.24h-.19l-.24.24c0,.16-.05.29-.07.4a1.48,1.48,0,0,0,0,.27,2.48,2.48,0,0,1,.12.41,1,1,0,0,0,.12.36h.76a2.17,2.17,0,0,0,.29-.24c.1-.1.22-.07.39.09a1.12,1.12,0,0,1,.24-.33ZM29.17,20a1.23,1.23,0,0,0,.14-.31,3.09,3.09,0,0,1,.15-.41.51.51,0,0,0,.67.14q.29.11.24.27a.24.24,0,0,0,.05.26,1.13,1.13,0,0,0,.72-.12,1.25,1.25,0,0,1,.72-.12V16.78a.73.73,0,0,1-.24-.19.66.66,0,0,1,.16-.12.24.24,0,0,0,.12-.07,2.65,2.65,0,0,1-.38-.62l-.19.07a1.53,1.53,0,0,0-.24.07.89.89,0,0,0-.12-.6.43.43,0,0,1,.07-.55c-.06-.07-.1-.12-.1-.17a.5.5,0,0,0-.09-.22,3.38,3.38,0,0,0-.12.65,2.86,2.86,0,0,1-.12.55l-.36.2-.36.19a.4.4,0,0,1-.05.24l-.43.14-.39.1c0,.16.06.29.08.4s0,.22,0,.32l.19.09a1.16,1.16,0,0,1-.24.34,1.41,1.41,0,0,1,.07.31,1.41,1.41,0,0,0,.08.31.44.44,0,0,0,0,.17.21.21,0,0,1,0,.17.9.9,0,0,0-.12.67A4.09,4.09,0,0,1,29.17,20Zm1.1-7.87a1,1,0,0,1-.12-.55.69.69,0,0,0-.21-.56h-.68a.37.37,0,0,1,0-.16.41.41,0,0,0,0-.17h-.05c0,.26.06.53.07.81s0,.58.07.87a3.15,3.15,0,0,0,.27-.19,2,2,0,0,0,.21-.2Zm-1.15,9V22h.43c.06-.07.12-.12.17-.17l.17-.17a.49.49,0,0,0-.12-.36c-.08-.08-.16-.15-.22-.22Zm1,2a.74.74,0,0,0-.72.19v1l.67.34a.49.49,0,0,1,.36-.15c.15,0,.23-.09.27-.29s-.12-.38-.17-.57A1,1,0,0,0,30.08,23.07Zm.43,3.46-.45-.17c-.15-.05-.3-.1-.46-.17.06.26.12.49.17.7a.93.93,0,0,0,.41.55,1.23,1.23,0,0,1,.28-.43A.37.37,0,0,0,30.51,26.53Zm-.67-7.4v.05l-.05-.05s0,0,.05,0Zm.24-10.27a1,1,0,0,0,.38.05,2.52,2.52,0,0,0,.29.34s.08,0,.24-.05a1.07,1.07,0,0,0-.17-.15.64.64,0,0,1-.16-.14V8.29l-.2-.1-.24-.1a1.12,1.12,0,0,0-.16.22,1.64,1.64,0,0,0-.12.22A2.68,2.68,0,0,0,30.08,8.86Zm.1,11.43a1.33,1.33,0,0,1,0,.28c0,.1,0,.18,0,.24s.2.24.31.24a1,1,0,0,0,.31,0l.17-.34a.47.47,0,0,0,0-.38ZM32,28.35l-.43-.43a.28.28,0,0,1-.19.09l-.1,0a1.23,1.23,0,0,1-.12-.92,2,2,0,0,0,0-1c-.07.32-.13.62-.2.91s-.12.56-.19.82a.92.92,0,0,1-.29,0,1.31,1.31,0,0,1-.09.17,1.28,1.28,0,0,0-.1.17,4.75,4.75,0,0,0,1.64,1.89,6.05,6.05,0,0,0,2.21.84,2.65,2.65,0,0,1-.19-.57.49.49,0,0,1-.19.05.48.48,0,0,0-.2,0,1,1,0,0,0,.15-.26,1.34,1.34,0,0,1,.14-.26l.63.14a5.1,5.1,0,0,1,.48-.29l-.29-.14v-.53a1.48,1.48,0,0,0-.46-.33.89.89,0,0,0-.31.23.49.49,0,0,1,0,.2.91.91,0,0,0,0,.28c-.23-.15-.43-.3-.61-.43s-.36-.27-.55-.43h-.48a.91.91,0,0,1-.15.24h-.33C31.89,28.7,31.94,28.54,32,28.35ZM30.46,4.64a.12.12,0,0,0,.05-.1s0,0,0,0,0,0,0,0Zm.44,9.26c-.07.07-.08.1,0,.1a.12.12,0,0,0,0,.07.09.09,0,0,1,0,.07Zm.19-4.65c.32.13.53.06.62-.2s-.1-.24-.21-.26a.4.4,0,0,1-.27-.12,1.53,1.53,0,0,1-.05-.43s0,0,0,0,0,0-.05,0Zm.14,10.94a6.21,6.21,0,0,0-.05.7.75.75,0,0,0,.24.55,1.56,1.56,0,0,0,.44-.05V21.1a3.48,3.48,0,0,1-.32-.45A2.86,2.86,0,0,0,31.23,20.19Zm.19-15.55c0,.06,0,.1-.09.1l.33.19a.16.16,0,0,0,.05-.1.56.56,0,0,1-.14-.09A.44.44,0,0,0,31.42,4.64Zm.29,9.07-.05-.05,0,.05a.14.14,0,0,1,.09,0Zm.05-.86h0v-.63h0ZM36.13,15c.06-.06.11-.1.14-.1a.12.12,0,0,0,.1,0l.65-.76c.2-.26.42-.51.64-.77a1.52,1.52,0,0,0,.39-.58,2.22,2.22,0,0,0,.09-.67,30.45,30.45,0,0,1,0-3.31,8.81,8.81,0,0,0-.29-2.31,3.74,3.74,0,0,0-.43-1,1.78,1.78,0,0,0-.92-.72,3.21,3.21,0,0,0-.8-.19,3.08,3.08,0,0,0-.9,0,2.3,2.3,0,0,0-1.31.87,2.11,2.11,0,0,0-.46.89c-.08.33-.15.68-.21,1a18.63,18.63,0,0,0-.15,2.4V12a1.56,1.56,0,0,0,.48,1.25L34.74,15l-.8.74c-.27.24-.53.49-.79.74a1.53,1.53,0,0,0-.48,1.2c0,1.16,0,2.31,0,3.46a29.68,29.68,0,0,0,.1,3.41,8.48,8.48,0,0,0,.53,1.77,2.14,2.14,0,0,0,1.07,1,2.21,2.21,0,0,0,.5.15,3.08,3.08,0,0,0,.51,0A2.63,2.63,0,0,0,37,27a2.83,2.83,0,0,0,.87-1.35,7.17,7.17,0,0,0,.29-2.06c-.06-1.92-.06-3.86,0-5.81a1.84,1.84,0,0,0-.57-1.34q-.39-.39-.72-.75Zm-1.49,15.6a.57.57,0,0,1,0,.29c0,.09.09.16.32.19C34.88,30.91,34.77,30.75,34.64,30.56ZM37,30.32a.6.6,0,0,0-.29-.67h-.52a.94.94,0,0,0,0,1.2,3,3,0,0,1,.48-.15C36.82,30.67,36.93,30.54,37,30.32Zm.34-.48v.05h.19v-.05ZM37.38,15l.26.26a3,3,0,0,1,.26.31,2.9,2.9,0,0,0,.2-.48l-.34-.16A.38.38,0,0,0,37.38,15Zm.24,14.25s0,0,0,0h0l0,0ZM38,30c0-.06,0-.1-.05-.1a.29.29,0,0,0-.19.05V30Zm.1-2.3h.09a2.14,2.14,0,0,1,0-.53l-.24.24a1,1,0,0,1,.12.14Zm2.82-3.08v0h.05a1.25,1.25,0,0,0-.05.38c-.26,0-.41,0-.46-.07a1.53,1.53,0,0,1-.21-.46l-.1-.09-.12,0-.12.05a.14.14,0,0,1,0-.09l-.05-.05a2.39,2.39,0,0,1,.39-.39.67.67,0,0,0,.24.08.68.68,0,0,1,.24.07l.29-.15a1.38,1.38,0,0,0,.29-.24,1.3,1.3,0,0,0-.31,0,.28.28,0,0,1-.22,0l-.36-.09a.48.48,0,0,1-.27-.19,1.39,1.39,0,0,0-.43-.44L39,22.64A4,4,0,0,1,39,24a4.37,4.37,0,0,0,0,1.35,5.14,5.14,0,0,0,.49-.44h.62c.1.17.19.32.27.48s.17.32.26.48l.15-.14.14-.14a.58.58,0,0,0,.19,0l.25,0a.77.77,0,0,1-.2-.48A.45.45,0,0,0,40.87,24.65ZM39,10.3a2,2,0,0,1,.53,0,1.66,1.66,0,0,0,0-.24c0-.06,0-.14-.08-.24Zm.05,8.59h0v-.57h0Zm.4,3.6a1.39,1.39,0,0,0,.14-.26s-.08,0-.24-.07a.41.41,0,0,1,0,.17A.29.29,0,0,0,39.49,22.49Zm.37,2.69h-.38a0,0,0,0,1,0,.05l.17.1.16.09A1.45,1.45,0,0,0,39.86,25.18Zm-.37-8.44v0l-.05,0,.05,0Zm.28.09a1.46,1.46,0,0,1,.17.29,1.13,1.13,0,0,0,.17.24.44.44,0,0,0,.48-.29v-.29l-.33-.19a.44.44,0,0,1-.22.12A1,1,0,0,0,39.77,16.83Zm.68,5.76-.24.26c-.07.09-.15.17-.24.27a2.29,2.29,0,0,0,.36.05h.31A1.42,1.42,0,0,1,40.45,22.59Zm.14,3.31-.09.19.09.1c.07-.06.1-.11.1-.14a0,0,0,0,1,0-.05A.14.14,0,0,1,40.59,25.9Zm0,1.73h0v-.19h0Zm.24-10.27a.19.19,0,0,0,.1-.05.09.09,0,0,0,0-.07.29.29,0,0,1,0-.12h0Zm.1,4.56,0-.05,0,.05Zm.52-11.14h-.09s0,.05.09.05ZM42,16a.41.41,0,0,0-.29-.48l-.12.14a.21.21,0,0,1-.12.1A.37.37,0,0,0,42,16Zm-.48-3.75v0a0,0,0,0,0,.05.05v-.1Z"/><path class="cls-2" d="M45.82,15.05c.48-.57,1-1.11,1.49-1.63A1.86,1.86,0,0,0,47.89,12c0-1.21,0-2.43,0-3.65V4.69H45.82V.61h8.45l.1.17a.28.28,0,0,1,.05.16v3.7a7.53,7.53,0,0,1-1.06,0,9.45,9.45,0,0,0-1.06,0V8.45c0,1.08,0,2.17,0,3.29a2.54,2.54,0,0,0,.21,1.08,4.1,4.1,0,0,0,.6.89L54.32,15a4,4,0,0,1-.55.62c-.21.2-.41.37-.6.53a2.7,2.7,0,0,1-.36.38,3.59,3.59,0,0,0-.36.39,1,1,0,0,0-.15.53V32.24h.53q.63,0,1.23,0c.4,0,.8,0,1.22,0a2.35,2.35,0,0,0,.86-.17,3,3,0,0,0,.82-.48,3.3,3.3,0,0,0,.65-.7,2.45,2.45,0,0,0,.36-.81,3.22,3.22,0,0,0,.14-1V26.81a.54.54,0,0,1,.31-.21,2.46,2.46,0,0,1,.41,0,3.17,3.17,0,0,0,.87,0,2,2,0,0,1,.86.1h.14a.62.62,0,0,1,.56-.1l.5.2v9.4l-.19.1a.49.49,0,0,1-.19,0H46.06a.6.6,0,0,1-.24,0v-4h2.12V18.32a3,3,0,0,0-.27-1.44,3.82,3.82,0,0,0-1-1.06,4.08,4.08,0,0,1-.43-.36A5.12,5.12,0,0,1,45.82,15.05ZM47,34.45v-.1a.32.32,0,0,0-.2,0v.05Zm-.15.86,0-.05v.1S46.83,35.34,46.83,35.31Zm2.11-16s0-.05,0-.05v.1Zm.24,14.06a.53.53,0,0,0,.15.12l.14.12C49.5,33.36,49.41,33.28,49.18,33.34Zm.58-2.25v-.24a1.55,1.55,0,0,1-.34-.05,1.53,1.53,0,0,0,.17.14A1.07,1.07,0,0,1,49.76,31.09Zm0-4a0,0,0,0,1,0-.05l0,0s-.05,0-.05,0S49.71,27.07,49.71,27.1Zm.1-13s0,0-.05,0ZM50,19.47l0,.05h0Zm1-5.38h-.34a.13.13,0,0,1,0,.1.14.14,0,0,0,0,.1H51Zm-.1-2.3h.34V11.6l-.05,0h-.29Zm0,13.92v-.05l0,.05,0,.05Zm.29-7.49a0,0,0,0,0-.05,0l0,0,0,.05ZM52,35a0,0,0,0,0,0,0h0Zm8.35-3.45,0,.09s0,.05-.05.05,0,.08.1.14l.14-.14Zm.53-1.44c0-.29,0-.48,0-.56a1.84,1.84,0,0,0-.1-.4,4.23,4.23,0,0,0-.07.43,2.81,2.81,0,0,0,0,.43,0,0,0,0,0,0,0A.16.16,0,0,0,60.85,30.13Z"/><path class="cls-2" d="M79.62,9.39a.48.48,0,0,0-.15.1.12.12,0,0,1-.09,0H76.3a1,1,0,0,1-.38-.19.93.93,0,0,0,0-.29,1.1,1.1,0,0,1,0-.33.31.31,0,0,0,0-.17.31.31,0,0,1,0-.17,8.53,8.53,0,0,0,0-.89,6.31,6.31,0,0,1,0-.88,1.81,1.81,0,0,0-.1-.44,2,2,0,0,0-1.25-1.39,1.65,1.65,0,0,0-.48-.09c-.73,0-1.45-.05-2.16-.05H69.87a2,2,0,0,1,0,.26,1,1,0,0,0,0,.22c0,.45-.06.91-.09,1.39a10.9,10.9,0,0,0,0,1.4c0,.83.06,1.65.09,2.45s0,1.62,0,2.45a1.4,1.4,0,0,0,1.08-.36,1.63,1.63,0,0,0,.41-1.51,1.06,1.06,0,0,0,.51-.15.6.6,0,0,1,.6.05,1.5,1.5,0,0,1,.6-.07,2.41,2.41,0,0,0,.6,0h1.2v8.6H71.46a2.6,2.6,0,0,0-.15-.89,1.68,1.68,0,0,0-.53-.74,3.48,3.48,0,0,0-.4-.22,2.18,2.18,0,0,0-.56-.12,10.2,10.2,0,0,1,0,1.23c0,.4,0,.81,0,1.22V32.24h2v4a6.64,6.64,0,0,1-1.1.08l-2.14,0c-.81,0-1.68,0-2.59,0l-2.52,0a3.89,3.89,0,0,1-.07-.71q0-.53,0-1.17V33.19a7.39,7.39,0,0,1,0-.95h1.92v-15a2,2,0,0,0-.72-.91c-.22-.2-.43-.4-.62-.61s-.39-.42-.58-.64a3.41,3.41,0,0,1,.55-.68,7,7,0,0,0,.6-.62,5.57,5.57,0,0,0,.46-.51,2.35,2.35,0,0,0,.36-.65V4.69a3.31,3.31,0,0,0-1-.05,5.45,5.45,0,0,1-1,0v-4H79.57a11.57,11.57,0,0,1,.07,1.2c0,.64,0,1.4,0,2.28V6.85C79.66,7.81,79.65,8.65,79.62,9.39ZM66.46,5a1.65,1.65,0,0,1,.24-.33,1.93,1.93,0,0,0,.24-.29,1.33,1.33,0,0,0-.6-.48.71.71,0,0,1-.45-.53.73.73,0,0,0-.6,0,5.38,5.38,0,0,1-.55.29,10.86,10.86,0,0,1,1.1.19,2,2,0,0,1,.38.34.67.67,0,0,1,0,.43C66.24,4.82,66.3,4.93,66.46,5Zm.34-3.26a.25.25,0,0,0,0-.12.17.17,0,0,1,0-.12h-1V2c.16-.13.31-.24.46-.34S66.58,1.6,66.8,1.76Zm-.14,11.33a1.85,1.85,0,0,0-.27.19.53.53,0,0,0-.17.24,1,1,0,0,0-.09.43,1.18,1.18,0,0,1-.1.48,4.52,4.52,0,0,1,.6-.12c.18,0,.31-.14.41-.36v-.53C66.91,13.3,66.78,13.18,66.66,13.09ZM66.37,11a2,2,0,0,0-.05,1.15h.29a4,4,0,0,1-.15-.57Zm.81-5.76a5.24,5.24,0,0,1-.45.41L66.27,6V8.48a1.21,1.21,0,0,0,.15.57l0,0s.06,0,.08,0a.08.08,0,0,1,.07,0s0,0,.09,0a1.69,1.69,0,0,1,.22.31,2.44,2.44,0,0,1,.07.36,5.51,5.51,0,0,1,.89-.22,1.05,1.05,0,0,0,.74-.55.66.66,0,0,1,.29.1V7.52a3.54,3.54,0,0,1,0-.72,2.66,2.66,0,0,0-.07-.72,4.2,4.2,0,0,1-.44.48l-.24-.24a1,1,0,0,0,.2-.29,3.66,3.66,0,0,1-.24-.53.71.71,0,0,1-.27,0,.46.46,0,0,0-.21,0,3.43,3.43,0,0,1-.12-.77A6.5,6.5,0,0,0,67.38,4a3.26,3.26,0,0,0-.12.68A5.58,5.58,0,0,1,67.18,5.26Zm-.76,5.23h0v0Zm.14,23h.1V33.3h-.1Zm.82-29.71h0V3.63h0ZM68,10.16c-.16.1-.23.18-.21.26a.81.81,0,0,0,.07.22l.14.24a2.88,2.88,0,0,0,.19.24l-.09-.48C68,10.48,68,10.32,68,10.16Zm-.14,2.64v0ZM69,2.67a1.4,1.4,0,0,0,.31-.46c0-.07-.06-.23-.22-.45h-.67c-.16.13-.22.26-.19.38a1.55,1.55,0,0,1,.05.34l.31.17A2.68,2.68,0,0,0,69,2.67Zm-.53,15s0,0,0,0v.09ZM69.87,14V14l0,.05V14Zm1.39-10.7V2.77a.44.44,0,0,1-.19.12.34.34,0,0,0-.19.12.5.5,0,0,0,.19.12A.31.31,0,0,1,71.26,3.25ZM73.9,15.82c-.19-.09-.39-.18-.6-.26l-.64-.26c-.36-.13-.61-.1-.77.09a1.62,1.62,0,0,0,0,.72c0,.23.09.45.12.67a1.2,1.2,0,0,0,.36,0,2.27,2.27,0,0,1,.41.05,1.46,1.46,0,0,1,.24-.17,2.19,2.19,0,0,0,.29-.17,3.4,3.4,0,0,1,.34.2l.28.19a.45.45,0,0,1-.07-.56A.6.6,0,0,0,73.9,15.82Zm0,2.69V17.07c-.09.13-.19.25-.28.36l-.29.31-.19-.07-.2-.07a.31.31,0,0,1-.09.12s0,0,0,.07a.41.41,0,0,0,0,.19.21.21,0,0,1,0,.19.24.24,0,0,1-.07.17.66.66,0,0,0-.12.17Zm-1.1-4.85a1.74,1.74,0,0,0,.41-.21,3.13,3.13,0,0,1,.36-.22,4.19,4.19,0,0,1,.38.43,2.85,2.85,0,0,1-.12-.53,4.64,4.64,0,0,0-.07-.48c-.22-.25-.39-.37-.5-.35s-.3.16-.56.45a.8.8,0,0,1,.1.38.38.38,0,0,1,0,.24C72.81,13.47,72.8,13.57,72.8,13.66ZM78.27,2V1.9h-.19V2Zm-.09,1.63v.1a.54.54,0,0,1,.24,0s0,0,0-.1A.29.29,0,0,1,78.18,3.63Z"/><path class="cls-2" d="M81.58,14.91a14.83,14.83,0,0,1,1.2-1.34A2.25,2.25,0,0,0,83.41,12a7.62,7.62,0,0,1,0-1.17,4.64,4.64,0,0,0,0-1.13,14.82,14.82,0,0,1-.07-1.87A16,16,0,0,0,83.22,6a5.49,5.49,0,0,1,0-1.27,6.13,6.13,0,0,0,0-1.27Q83,2.81,83,2.24c0-.39,0-.78,0-1.2V.65a5.64,5.64,0,0,1,.79-.07l1.29,0h1.35a7.7,7.7,0,0,1,1,0,5.62,5.62,0,0,0,0,1.36,3.5,3.5,0,0,1-.12,1.37.47.47,0,0,0,0,.24.57.57,0,0,1,0,.29c0,.83,0,1.67,0,2.5s0,1.66-.09,2.49a11.91,11.91,0,0,0,0,1.88A13.13,13.13,0,0,1,87,12.61a5.1,5.1,0,0,0,.84,1.22l1,1.13a4.61,4.61,0,0,1-.62.69l-.72.65a2.87,2.87,0,0,0-.51.58,1.12,1.12,0,0,0-.16.77v.52a6.35,6.35,0,0,0,0,.87c0,.29,0,.59,0,.91a.8.8,0,0,0,.48.05,1.29,1.29,0,0,1,.48,0,3.58,3.58,0,0,1,.07.65c0,.33,0,.71,0,1.13V23a10.32,10.32,0,0,1,0,1.06H82.64v-4a1.79,1.79,0,0,1,.48-.05h.48a5.13,5.13,0,0,0,0-1,2.59,2.59,0,0,1-.1-.67v-.72a1.51,1.51,0,0,0-.57-1.25A12.09,12.09,0,0,1,81.58,14.91Zm5.76,14.45a1.21,1.21,0,0,0,0,.43,1,1,0,0,1-.07.48,2.23,2.23,0,0,1-2,1.68,1.87,1.87,0,0,1-.62,0,1.08,1.08,0,0,1-.58-.32,3,3,0,0,1-1-1.53,3.25,3.25,0,0,1,0-1.75A2.69,2.69,0,0,1,84,26.86a2.3,2.3,0,0,1,1.25-.41,1.66,1.66,0,0,1,1.25.51,3.82,3.82,0,0,1,.67.93A2.57,2.57,0,0,1,87.34,29.36Zm-3-13.3v.1l0-.05A0,0,0,0,0,84.37,16.06Zm.29,1.06a.35.35,0,0,0-.1.53c0,.06.06.09.19.09a.32.32,0,0,0,.19-.48Zm.14,3.17h0v0h0Zm.1-1.4h0l0,0-.05,0Zm0-14.59v.1l0-.05S84.93,4.3,84.9,4.3ZM85,13.57H85V14H85Zm0,6.86a1,1,0,0,0,.38.19,1.19,1.19,0,0,0,.44-.24,3.8,3.8,0,0,1-.39-.33A4.35,4.35,0,0,1,85,20.43Zm.24,7a.16.16,0,0,1,0,.1.62.62,0,0,1,.19.14l.1-.1-.12-.07Zm0,1.78s0,0,0,0S85.33,29.2,85.33,29.17Zm.53-26.64v-.1h-.2v.1Zm.57,26.16-.05-.12a.31.31,0,0,0,0-.12.75.75,0,0,1-.29,0c0,.17,0,.25.12.25A.85.85,0,0,0,86.43,28.69Zm-.33,1.58s0,0,0-.05h0l0,.05Zm.67-7.06a.26.26,0,0,0,.14-.09V22a.43.43,0,0,0-.21.29.66.66,0,0,0,0,.28c0,.1,0,.19,0,.27a.48.48,0,0,1,0,.26s0,.06,0,.07S86.77,23.18,86.77,23.21Zm.53-8.4,0,0s0,0,0,0l0,0S87.26,14.81,87.3,14.81Z"/></svg>