<svg id="Layer_1" data-name="Layer 1" xmlns="http://www.w3.org/2000/svg" xmlns:xlink="http://www.w3.org/1999/xlink" viewBox="0 0 560.81 454.59"><defs><style>.cls-1,.cls-13,.cls-14,.cls-6,.cls-8{fill:none;}.cls-2{clip-path:url(#clip-path);}.cls-3{fill:#c2e9eb;}.cls-17,.cls-4{fill:#60cfcf;}.cls-4{stroke:#c2e9eb;}.cls-13,.cls-14,.cls-4,.cls-6,.cls-9{stroke-miterlimit:10;}.cls-5{fill:#545454;}.cls-6,.cls-9{stroke:#999;}.cls-7{fill:#fb716a;}.cls-8{stroke:#983233;stroke-linejoin:round;}.cls-13,.cls-8{stroke-linecap:round;}.cls-12,.cls-9{fill:#fff;}.cls-10{fill:#af3c47;}.cls-11{fill:#e2e2e2;}.cls-13{stroke:#fb716a;stroke-width:0.5px;}.cls-14{stroke:#545454;}.cls-15{fill:#353535;}.cls-16{fill:#999;}</style><clipPath id="clip-path" transform="translate(69.83 24.3)"><circle class="cls-1" cx="192.47" cy="192.47" r="192.47"/></clipPath></defs><title>Wolf</title><g class="cls-2"><rect class="cls-3" width="560.81" height="454.59"/><path class="cls-4" d="M102.64,260.53S96,272,99.26,283.21s5.94,3.3,4.62-5.94,9.9-6.6,9.24,3.3,5.28,28.38,5.28,15.18-.4-39.86-.4-39.86Z" transform="translate(69.83 24.3)"/><path class="cls-5" d="M97.32,175.55c.52.79,26.82,8.68,33.92,24.46S136,247.35,136,246.56s9.47,11,9.47,11,40.24-39.71,50.23-40,21.3-33.4,6.57-51-37.34-31.3-58.12-18.41S97.32,175.55,97.32,175.55Z" transform="translate(69.83 24.3)"/><path class="cls-6" d="M97.32,175.55c.52.79,26.82,8.68,33.92,24.46S136,247.35,136,246.56s9.47,11,9.47,11,40.24-39.71,50.23-40,21.3-33.4,6.57-51-37.34-31.3-58.12-18.41S97.32,175.55,97.32,175.55Z" transform="translate(69.83 24.3)"/><path class="cls-7" d="M174.49,187.36s-14.6-.74-22.52,10.15S125,244.28,109.9,250s-22.58-3.77-28.46-5.44c-1.73-.5,1,4.2,4.71,10.88s11.13,12.38,22.27,8.66,24.74-9.4,37.36-20.53,24.25-20.79,28.71-25.49S174.49,187.36,174.49,187.36Z" transform="translate(69.83 24.3)"/><path class="cls-8" d="M173.5,186.37s-14.6-.74-22.52,10.15S124,243.29,108.91,249s-22.58-3.77-28.46-5.44c-1.73-.5,1,4.2,4.71,10.88s11.13,12.38,22.27,8.66,24.74-9.4,37.36-20.53S169,221.76,173.5,217.06,173.5,186.37,173.5,186.37Z" transform="translate(69.83 24.3)"/><path class="cls-7" d="M63.65,176.34s6.05-9.21,11.84-6.58,7.1-3.15,14.73-1,11.31,5.26,17.62,10,13.13,13,15.51,4.53,6.58-13.21,10.79-13,10.52,5.26,10.52,5.26-12.1,0-15.52,6.31-6.57,7.63-9.2,8.42-11.84-5.53-13.68-3.42-4.73,5.78-6.31,2.89S89.69,181.6,88.64,184s-8.94-8.16-9.73-4.21-1,1.84-6-.79-6.84,4.73-9.21,1.31" transform="translate(69.83 24.3)"/><path class="cls-9" d="M58.68,176c0,.78,7.92,11.88,7.92,11.88l3.46-7.92s3.22,9.4,3.22,8.66S76,183.65,76,183.65l3.22,7.92s2.47-.49,3.21.74,2.48-7.67,2.48-7.67,4.21,8.91,9.15,10.89c0,0-1.48-6.43-.24-8.17l7.17,8.17,1.74-4,4.45,3.71,2-5.44s2.23-2.72,4.21,1.73,3.71,5.2,3.71,5.2l1-2.48s3.71.5,4.7,2.72,3.46-9.4,3.46-9.4l3.22,5.44s4.21-3.71,4.46-7.42,2.72-8.41,6.68-2.47,3.21,14.1-.5,20.29c0,0,12.87-6.19,13.12-16.33a91.37,91.37,0,0,0-2.5-21s-7.65,2-11.11,8.17c0,0-11.14-1-14.11,7.17l-2.72,5.2s-4.21-.49-4.45,1.49c0,0-5.94-3.22-6.19-1.49s-8.91-7.42-9.9-3.22l-1,4.21s-4.7-9.15-6.43-6.43c0,0-6.44-7.92-9.9-2.72,0,0-5.69-5.7-8.17,0,0,0-4.7-5.45-6.18-2.23C70.56,176.23,59.17,163.61,58.68,176Z" transform="translate(69.83 24.3)"/><path class="cls-10" d="M151.47,166.08s18.32,5.94,22,22.27-3,34.89-3,34.89,17.57-5.93,21.53-21.77,2-34.65-7.18-44.79-29.45-.25-32.17,3.71S151.47,166.08,151.47,166.08Z" transform="translate(69.83 24.3)"/><path class="cls-8" d="M148.5,167.32s20.05,5.44,23.76,21.78-4.7,35.38-4.7,35.38,17.57-5.94,21.53-21.77,3-30.44-6.19-40.59-30.44-4.45-33.16-.49S148.5,167.32,148.5,167.32Z" transform="translate(69.83 24.3)"/><path class="cls-9" d="M116.58,261.85l-3.46-8.66,11.63,1.23L126,247s5.69,4.45,6.43-1.48-2.23-6.93-2.23-6.93l8.91,4-.74-7.43,5.44.25-5-7.18s7.68,1.24,10.4,3.72,4.45,2.22,4.7-5.45S149,210.87,149,210.87a31.51,31.51,0,0,1,14.35,13.61l.74-15.09s8.67,14.84,7.92,17.81-35.14,37.37-43.55,36.87S116.58,261.85,116.58,261.85Z" transform="translate(69.83 24.3)"/><path class="cls-7" d="M116.34,260.12s19,1.23,15.83-10.41c0,0,4.46.71,5.69-.93a5.17,5.17,0,0,0,1-3.5s3.47,2.57,5.45-.47a10.15,10.15,0,0,0,1.24-6.78,24.9,24.9,0,0,0,4.7.94c1.48,0,2.72-5.61,2.72-5.61s.66,1.71,3.79.62,6.85-5.29,6.6-7.16c0,0,4,1.4,5.45-.47l1.48-1.87s3.47,1-3,8.66S152,251.68,142.07,257.39C123.51,268,116.34,260.12,116.34,260.12Z" transform="translate(69.83 24.3)"/><path class="cls-11" d="M180.43,84.67a68.45,68.45,0,0,0,3.71-20.29c.49-12.13-7.67-23.26-7.67-23.26S178,49.53,175,54.23c0,0-5.69-16.58-11.63-26.72l-1.24,9.65S141.58,16.62,119.55,29c0,0,22,11.38,22.52,18.07,0,0,15.34-5.45,15.34,11.13,0,9.16-16.08,3.22-16.08,3.22s4,9.9,4.21,14.6-10.4,34.64-10.4,34.64l22.52,24Z" transform="translate(69.83 24.3)"/><path class="cls-6" d="M179.44,81.7a68.45,68.45,0,0,0,3.71-20.29c.49-12.13-7.67-23.26-7.67-23.26S177,46.56,174,51.26c0,0-5.69-16.58-11.63-26.72l-1.23,9.65S140.59,13.65,118.56,26c0,0,22,11.39,22.52,18.07,0,0,15.34-5.45,15.34,11.13,0,9.16-16.08,3.22-16.08,3.22s4,9.9,4.21,14.6-10.4,34.64-10.4,34.64l22.52,24Z" transform="translate(69.83 24.3)"/><ellipse class="cls-12" cx="203.08" cy="121.75" rx="22.11" ry="30.35"/><ellipse class="cls-5" cx="205" cy="123.01" rx="12.86" ry="12.05"/><path class="cls-13" d="M125.33,125.75s2.31-2.07,2.72-3.47-.91-3.38-.91-3.38" transform="translate(69.83 24.3)"/><path class="cls-13" d="M130,127.66s2.64-2.82,3-3.81a12.48,12.48,0,0,0,0-4.29c-.17-.41-1.65-3.13-1.08-4.21s1.24-2.47,1.24-2.47" transform="translate(69.83 24.3)"/><path class="cls-13" d="M138.52,116.1s-2.72,1.81-3.13,2.22-.17,4-.17,4l-2.14.33" transform="translate(69.83 24.3)"/><path class="cls-13" d="M117.82,118.74s2.15-3.22,1.49-5a20.5,20.5,0,0,1-.91-4l1.07-1.73" transform="translate(69.83 24.3)"/><path class="cls-13" d="M120.38,122s.66-2.06,1.56-2.39a5.43,5.43,0,0,0,2.23-2.06c0-.25.08-2.48.08-2.48" transform="translate(69.83 24.3)"/><path class="cls-13" d="M121.45,114.2a14.66,14.66,0,0,0,.41,3.3,7.91,7.91,0,0,0,1,1.4" transform="translate(69.83 24.3)"/><ellipse class="cls-14" cx="203.08" cy="121.75" rx="22.11" ry="30.35"/><path class="cls-11" d="M326.92,178.58s-1.48-15.59-3.34-26.73-6.68-8.53-6.68-8.53l-2,3.34s-.62.12,0-4-2.35-12-5.32-18.19-15.72-10-15.72-10l8.42-2.23c-3.22-8.29-22-9.16-20.17-14.85S294.87,90,294.87,90c-17.56-13.12-33.4-.74-33.4-.74a12.27,12.27,0,0,1,1.61-8.17c-4,.87-6.56,4.83-6.56,4.83-3.84-14.48-.5-21.78,4.21-25.86s11.38-3.71,11.38-3.71,3.09.37-9.9-6.07-38.35,12.87-38.35,12.87V60.42c-1.37,1.11-11.39,11.63-11.39,11.63l-.74-7.55a61.92,61.92,0,0,0-6.81,11.76c-3.21,7.17-3.71,19.22-3.71,19.22,0,1-2.31-12.54-2.31-13.53s-1,16.16-2.64,13.2-1.32-16.5-1.32-16.5-4.95,2.64-4.62,3.63,3-8.91,3-8.91-4.61,2.31-17.15,9.57-31.35,40.58-31.35,40.58c-9.24,1-7.92,6.93-10.88,10.89s-7.92,2-11.88-1.65-4-.66-5.94,4.62-6.93,11.22-17.49,2-24.41,2.64-28,9.9S49,152.47,49,152.47c7.17,4.46,8,25.16,8,25.16,2.64-1.65,8.16-7.75,12.78-2.14s14.93-2.15,20.87-1.82,6.27,4,14.52,9.24,9.9,9.24,19.14,2.31,21.44-12.54,27.38-19.14,19.14-5.61,19.14-5.61,14.85-12,16.5,3.14,6.26,38.11-7.92,51S165.91,225.8,159,238s-27,27.38-35.63,24.41-9.24-1-9.24-1,6.93,12.86,17.16,11.87,28-18.14,38.6-29.36c9.78-10.39,16.07-8,22.68-6.35,0,0-20.29,29.44-4.45,53.45,0,0,1.73-25.49,9.65-32.91l7.92-7.43s.74,25,7.92,31.18l.74-16.83s13.86,14.11,30.19,13.86c0,0-8.66-11.38-7.92-10.39s16.33,8.66,23.26,6.68,50.73-12.87,50.73-12.87L303.91,252l12.86,5.2s7.43-21.53-2.22-36.13c0,0,16.33-.5,19.79,17.32s-.74,25-.74,25,10.39-4.95,5.2-23.75L346,246s1.49-3.46-6.18-16.08-9.65-17.33-9.65-17.33l12.62,8.66s-6.68-7.17-7.18-15.58,19.06-1.24,19.55-.25-9.65-9.9-9.65-9.9l12.37,1.24S350.43,179,341.77,179.2s-12.87,5.44-12.87,5.44l5.69-15.84Z" transform="translate(69.83 24.3)"/><path class="cls-6" d="M325.93,176.6s-1.48-15.59-3.34-26.73-6.68-8.53-6.68-8.53l-2,3.34s-.62.12,0-4-2.35-12-5.32-18.19-15.71-10-15.71-10l8.41-2.23c-3.22-8.29-22-9.15-20.17-14.85S293.88,88,293.88,88c-17.56-13.11-33.4-.74-33.4-.74a12.27,12.27,0,0,1,1.61-8.17c-3.36,2.37-5.54,7.38-6.56,4.83-3.84-14.48-.5-21.78,4.21-25.86s11.38-3.71,11.38-3.71,3.09.37-9.9-6.07-38.35,12.87-38.35,12.87V58.44c-1.37,1.11-11.39,11.63-11.39,11.63l-.74-7.55a61.92,61.92,0,0,0-6.81,11.76c-3.21,7.17-3.71,19.22-3.71,19.22,0,1-2.31-12.54-2.31-13.53s-1,16.16-2.64,13.2S194,76.67,194,76.67s-4.94,2.64-4.61,3.63,3-8.91,3-8.91S187.69,73.7,175.15,81s-31.35,40.58-31.35,40.58c-9.24,1-7.92,6.93-10.88,10.89s-7.92,2-11.88-1.65-4-.66-5.94,4.62-6.93,11.22-17.49,2-24.41,2.64-28,9.9S48,150.49,48,150.49c7.17,4.46,8,25.16,8,25.16,2.64-1.65,8.17-7.75,12.78-2.14s14.93-2.15,20.87-1.82,6.27,4,14.52,9.24,9.9,9.24,19.14,2.31,21.44-12.54,27.38-19.14,19.14-5.61,19.14-5.61,16.33-10.06,18,5.12,4.78,36.13-9.4,49S164.92,223.82,158,236s-27.05,27.38-35.63,24.42-9.24-1-9.24-1,6.93,12.86,17.16,11.87,28-18.14,38.6-29.36c9.78-10.39,16.07-8.05,22.68-6.35,0,0-20.29,29.44-4.45,53.45,0,0,1.73-25.49,9.65-32.91l7.92-7.43s.74,25,7.92,31.18l.74-16.83s13.86,14.11,30.19,13.86c0,0-8.66-11.38-7.92-10.39s16.33,8.66,23.26,6.68,50.73-12.87,50.73-12.87L302.92,250l12.86,5.2s7.43-21.53-2.22-36.13c0,0,16.33-.5,19.79,17.32s-.74,25-.74,25,10.39-5,5.2-23.75L345,244s1.49-3.46-6.18-16.08-9.65-17.33-9.65-17.33l12.62,8.67s-6.68-7.18-7.18-15.59,19.06-1.24,19.55-.25-9.65-9.9-9.65-9.9l12.37,1.24s-7.42-17.82-16.08-17.57-12.87,5.44-12.87,5.44l5.69-15.84Z" transform="translate(69.83 24.3)"/><path class="cls-5" d="M43.09,187.12S32.7,187.61,31.46,170s4.7-29.2,10.64-26S56,157.42,57.69,167.57,55.21,186.13,43.09,187.12Z" transform="translate(69.83 24.3)"/><path class="cls-6" d="M150,155.59c.78.06,8.46-2.89,18.47-7.54s17.21-6.45,24.76.49a24.4,24.4,0,0,1,7.52,16.59" transform="translate(69.83 24.3)"/><path class="cls-6" d="M199.23,189.34s1.24,13.12-4.45,21-9.16,10.14-9.16,10.14" transform="translate(69.83 24.3)"/><path class="cls-6" d="M248.48,173.51l9.15,12.62-1.23-14.6,4.45,5.19s4.7-10.14,3.22-19.55,4.7-10.64,11.87-3.71,12.13,10.89,12.13,10.89-1.24-21.28-13.86-30.19" transform="translate(69.83 24.3)"/><path class="cls-15" d="M48.32,185.14s-6.08.29-6.8-10,2.75-17.07,6.22-15.19,8.1,7.81,9.11,13.75S55.41,184.56,48.32,185.14Z" transform="translate(69.83 24.3)"/><ellipse class="cls-12" cx="240.36" cy="125.71" rx="22.11" ry="30.35"/><path class="cls-13" d="M175,131.52s2.15-4.21,1.16-6.19-4.13-2.8-4.13-2.8" transform="translate(69.83 24.3)"/><path class="cls-13" d="M177.68,130.45s2.48-1.57,2.31-3.38-1.32-1.65-1.4-3a9.65,9.65,0,0,1,.74-3.3" transform="translate(69.83 24.3)"/><path class="cls-13" d="M188.41,119.31s-4.95-.49-5.2-1.73" transform="translate(69.83 24.3)"/><path class="cls-13" d="M168.61,131.87s1.49-4.64.5-6.12a19.07,19.07,0,0,1-1.74-3.71" transform="translate(69.83 24.3)"/><path class="cls-13" d="M186.18,119.07a38.7,38.7,0,0,0-1-5.7" transform="translate(69.83 24.3)"/><path class="cls-13" d="M159.12,127.64A8.77,8.77,0,0,0,161,126.5a1.94,1.94,0,0,0,.52-.67c.33-.91-.5-3.22-.5-3.22l1.32-1.81" transform="translate(69.83 24.3)"/><path class="cls-13" d="M161.35,126.08a12.45,12.45,0,0,1,2.23-2.48,21.91,21.91,0,0,0,1.48-1.89" transform="translate(69.83 24.3)"/><path class="cls-13" d="M151.7,118.16a4.42,4.42,0,0,1,2.06-1.4,2.13,2.13,0,0,0,1.41-1.82" transform="translate(69.83 24.3)"/><ellipse class="cls-14" cx="240.36" cy="125.71" rx="22.11" ry="30.35"/><ellipse class="cls-14" cx="237.66" cy="126.73" rx="15.81" ry="14.83"/><ellipse class="cls-14" cx="237.78" cy="126.59" rx="12.87" ry="12.07"/><ellipse class="cls-14" cx="238.92" cy="126.77" rx="10.18" ry="9.54"/><ellipse class="cls-5" cx="241.04" cy="126.49" rx="5.7" ry="5.34"/><ellipse class="cls-14" cx="240.39" cy="126.74" rx="8.13" ry="7.62"/><path class="cls-8" d="M168.06,171.6s14.47,10.79,10.79,25" transform="translate(69.83 24.3)"/><path class="cls-7" d="M240.06,101.74c.5-1.48,4.71-38.35,4.71-38.35s-9.41,2.23-12.87,5.44-11.39,16.09-12.13,20.79,1.49,10.14,2,9.4,6.68-5.94,6.68-5.94l3.71,4.21,3.22-4.7Z" transform="translate(69.83 24.3)"/><path class="cls-8" d="M168.85,175.55c.79.26,7.83,7.85,8.36,16.27s-3.36,20.55-3.36,20.55" transform="translate(69.83 24.3)"/><path class="cls-6" d="M212.35,97.29l5.94-12.13S219,98.53,219,97s2.47-13.11,5.2-18.06,5.69-10.15,11.38-12.37,8.41-3,8.41-3-1,3.21-1.73,17.07-2.47,21-2.47,20.29-4.46-8.41-4.46-8.41l-3.22,4.7-4.2-3.71s-4,3-4.95,7.42" transform="translate(69.83 24.3)"/><path class="cls-16" d="M173.79,153.36c-.89.55,12.81-3.21,17.32,4.78s4,11.34,4,11.34a17,17,0,0,0,1.17-9.17C195.38,155.64,183.46,147.4,173.79,153.36Z" transform="translate(69.83 24.3)"/><path class="cls-16" d="M224.64,198.42s-2,29.69-2,33.65-31.1,3.55-31.1,3.55l15.92-2.56s9.57-1.32,10.89-8.58S224.64,198.42,224.64,198.42Z" transform="translate(69.83 24.3)"/><path class="cls-16" d="M166.9,135.07s13.53,9.57,20.46-2S194,112.3,194,112.3s1.65,22.44-4.29,28.05S169.21,137.05,166.9,135.07Z" transform="translate(69.83 24.3)"/><path class="cls-5" d="M159.15,74.85S175.48,57.7,185.87,66c7.24,5.74,12.87,30,12.87,29s-1.32-21.45-6.6-28.7S171.35,55.06,159.15,74.85Z" transform="translate(69.83 24.3)"/><path class="cls-17" d="M128.79,259.62s-.33,3.3-.33,7.92c0,9.91-.49,11.88,2.48,10.89s3.46,23.75-1.49,39.1-1.48,50,5.44,46.52-3-20.79-1-32.67,3-65.33,5.44-60.38-2,2.48,3,16.83,10.39,19.3,8.41,4.95,2.37-51.72,1-50A56.63,56.63,0,0,1,128.79,259.62Z" transform="translate(69.83 24.3)"/><path class="cls-5" d="M113.61,57.2S130,40.05,140.34,48.29c7.24,5.75,12.87,30,12.87,29s-1.32-21.45-6.6-28.71S125.82,37.41,113.61,57.2Z" transform="translate(69.83 24.3)"/><path class="cls-6" d="M220,130.78s10.23,3.63,17.16,10.56,4.62,12.2,0,19.79-8.25,12.87-10.89,27.72-7.51,38.19-9.49,39.84c-1.48,1.23-16.4,7.45-24,6.93" transform="translate(69.83 24.3)"/><path class="cls-6" d="M106.93,145.79s6.19.74,8.17,9.4,2,10.15,2,10.15-.5-15.34-2.72-18.81c0,0,6.43,1.49,8.66,6.44" transform="translate(69.83 24.3)"/><path class="cls-6" d="M135.88,136.39s4.21-3.22,7.68,3.71,3.71,8.66,3.71,8.66l-9.41-9.16,4.21,9.16" transform="translate(69.83 24.3)"/><ellipse class="cls-6" cx="181.71" cy="203.22" rx="1.84" ry="2.1"/><circle class="cls-6" cx="191.79" cy="198.23" r="0.68"/><circle class="cls-6" cx="198.41" cy="194.21" r="0.74"/><circle class="cls-6" cx="173.48" cy="193.66" r="2.17"/><circle class="cls-6" cx="207.82" cy="189.64" r="0.99"/><circle class="cls-6" cx="174.16" cy="200.89" r="0.74"/><path class="cls-6" d="M68.21,151.61s1.48-1.12,5.07,2.84,4.21,6.06,4.21,6.06-5.7-7.67-9.53-7.3c0,0,5.07,3.84,5.32,6.81" transform="translate(69.83 24.3)"/></g></svg>